<?xml version="1.0" encoding="utf-8"?>
<!-- Generator: Adobe Illustrator 27.0.1, SVG Export Plug-In . SVG Version: 6.00 Build 0)  -->
<svg version="1.1" id="Layer_1" xmlns="http://www.w3.org/2000/svg" xmlns:xlink="http://www.w3.org/1999/xlink" x="0px" y="0px"
	 viewBox="0 0 225 225" style="enable-background:new 0 0 225 225;" xml:space="preserve">
<style type="text/css">
	.st0{fill:#677432;}
	.st1{fill:none;}
	.st2{enable-background:new    ;}
	.st3{fill:#FFFFFF;}
</style>
<polygon class="st0" points="203.6,165.1 112.5,217.7 21.4,165.1 21.4,59.9 112.5,7.3 203.6,59.9 "/>
<rect x="59" y="78.3" class="st1" width="122" height="79.3"/>
<g class="st2">
	<path class="st3" d="M69.9,88.5l1.4-9.4h3l-2.7,14.9h-3l-1.7-8.8l-1.7,8.8h-3l-2.7-14.9h3l1.4,9.4l1.8-9.4h2.5L69.9,88.5z"/>
	<path class="st3" d="M78.6,84c0.6-0.8,1.4-1.2,2.3-1.2c1,0,1.8,0.4,2.3,1.1s0.8,1.8,0.8,3.2v7.1h-2.9v-7c0-0.6-0.1-1.1-0.3-1.4
		c-0.2-0.3-0.5-0.4-1-0.4c-0.5,0-0.9,0.2-1.2,0.7v8.1h-2.9V78.3h2.9V84z"/>
	<path class="st3" d="M90.6,94.3c-1.5,0-2.7-0.4-3.5-1.3s-1.3-2.2-1.3-3.8v-0.9c0-1.8,0.4-3.1,1.1-4.1c0.8-0.9,1.9-1.4,3.3-1.4
		c1.4,0,2.4,0.4,3.1,1.3s1.1,2.2,1.1,4v1.4h-5.8c0,0.8,0.2,1.4,0.5,1.8s0.8,0.6,1.5,0.6c1,0,1.8-0.3,2.4-1l1.1,1.8
		c-0.4,0.5-0.9,0.9-1.5,1.2C92.1,94.1,91.4,94.3,90.6,94.3z M88.8,87.5h2.9v-0.3c0-0.7-0.1-1.2-0.3-1.5s-0.6-0.5-1.1-0.5
		s-0.9,0.2-1.1,0.5C89,86.1,88.8,86.7,88.8,87.5z"/>
	<path class="st3" d="M101.7,85.8l-1-0.1c-0.8,0-1.3,0.3-1.6,1v7.3h-2.9V83h2.7l0.1,1.2c0.5-0.9,1.1-1.4,1.9-1.4
		c0.3,0,0.6,0,0.8,0.1L101.7,85.8z"/>
	<path class="st3" d="M107.6,94.3c-1.5,0-2.7-0.4-3.5-1.3s-1.3-2.2-1.3-3.8v-0.9c0-1.8,0.4-3.1,1.1-4.1c0.8-0.9,1.9-1.4,3.3-1.4
		c1.4,0,2.4,0.4,3.1,1.3s1.1,2.2,1.1,4v1.4h-5.8c0,0.8,0.2,1.4,0.5,1.8s0.8,0.6,1.5,0.6c1,0,1.8-0.3,2.4-1l1.1,1.8
		c-0.4,0.5-0.9,0.9-1.5,1.2C109.2,94.1,108.4,94.3,107.6,94.3z M105.8,87.5h2.9v-0.3c0-0.7-0.1-1.2-0.3-1.5s-0.6-0.5-1.1-0.5
		s-0.9,0.2-1.1,0.5C106,86.1,105.8,86.7,105.8,87.5z"/>
	<path class="st3" d="M117.6,88.2c0-1.8,0.3-3.2,0.9-4.1c0.6-0.9,1.5-1.3,2.7-1.3c0.9,0,1.6,0.4,2.1,1.1v-5.6h2.9v15.8h-2.6
		l-0.1-1.1c-0.6,0.9-1.4,1.3-2.3,1.3c-1.2,0-2-0.4-2.7-1.3c-0.6-0.9-0.9-2.2-0.9-3.9V88.2z M120.6,88.9c0,1.1,0.1,1.9,0.3,2.3
		c0.2,0.4,0.6,0.7,1.2,0.7c0.6,0,1-0.3,1.3-0.8V86c-0.3-0.5-0.7-0.8-1.3-0.8c-0.5,0-0.9,0.2-1.2,0.6s-0.4,1.2-0.4,2.3V88.9z"/>
	<path class="st3" d="M128.1,88.2c0-1.7,0.4-3,1.2-4s1.9-1.4,3.3-1.4c1.4,0,2.5,0.5,3.3,1.4s1.2,2.3,1.2,4v0.7c0,1.7-0.4,3-1.2,4
		c-0.8,1-1.9,1.4-3.3,1.4c-1.4,0-2.5-0.5-3.3-1.4c-0.8-1-1.2-2.3-1.2-4V88.2z M131,88.9c0,2,0.5,3,1.6,3c1,0,1.5-0.8,1.6-2.5l0-1.2
		c0-1-0.1-1.8-0.4-2.3c-0.3-0.5-0.7-0.7-1.2-0.7c-0.5,0-0.9,0.2-1.2,0.7c-0.3,0.5-0.4,1.2-0.4,2.3V88.9z"/>
	<path class="st3" d="M143.4,94.3c-1.5,0-2.7-0.4-3.5-1.3s-1.3-2.2-1.3-3.8v-0.9c0-1.8,0.4-3.1,1.1-4.1c0.8-0.9,1.9-1.4,3.3-1.4
		c1.4,0,2.4,0.4,3.1,1.3s1.1,2.2,1.1,4v1.4h-5.8c0,0.8,0.2,1.4,0.5,1.8s0.8,0.6,1.5,0.6c1,0,1.8-0.3,2.4-1l1.1,1.8
		c-0.4,0.5-0.9,0.9-1.5,1.2C144.9,94.1,144.2,94.3,143.4,94.3z M141.5,87.5h2.9v-0.3c0-0.7-0.1-1.2-0.3-1.5s-0.6-0.5-1.1-0.5
		s-0.9,0.2-1.1,0.5C141.7,86.1,141.6,86.7,141.5,87.5z"/>
	<path class="st3" d="M153.8,91.1c0-0.2-0.1-0.5-0.4-0.7c-0.2-0.2-0.8-0.5-1.6-0.8c-1.2-0.5-2-1-2.5-1.5c-0.4-0.5-0.7-1.2-0.7-1.9
		c0-1,0.4-1.8,1.1-2.4c0.7-0.6,1.6-0.9,2.8-0.9c1.2,0,2.2,0.3,2.9,0.9s1.1,1.5,1.1,2.5h-2.9c0-0.9-0.4-1.4-1.1-1.4
		c-0.3,0-0.6,0.1-0.8,0.3c-0.2,0.2-0.3,0.5-0.3,0.8c0,0.2,0.1,0.5,0.3,0.7c0.2,0.2,0.7,0.5,1.5,0.8c1.2,0.4,2,0.9,2.5,1.5
		c0.5,0.5,0.7,1.2,0.7,2.1c0,1-0.4,1.8-1.1,2.4s-1.7,0.9-2.9,0.9c-0.8,0-1.5-0.2-2.2-0.5c-0.6-0.3-1.1-0.8-1.5-1.3
		c-0.4-0.6-0.5-1.2-0.5-1.8h2.8c0,0.5,0.1,0.9,0.4,1.1c0.2,0.3,0.6,0.4,1.1,0.4C153.5,92.2,153.8,91.8,153.8,91.1z"/>
</g>
<g class="st2">
	<path class="st3" d="M65,118.1c0-0.2-0.1-0.5-0.4-0.7c-0.2-0.2-0.8-0.5-1.6-0.8c-1.2-0.5-2-1-2.5-1.5c-0.4-0.5-0.7-1.2-0.7-1.9
		c0-1,0.4-1.8,1.1-2.4c0.7-0.6,1.6-0.9,2.8-0.9c1.2,0,2.2,0.3,2.9,0.9s1.1,1.5,1.1,2.5h-2.9c0-0.9-0.4-1.4-1.1-1.4
		c-0.3,0-0.6,0.1-0.8,0.3c-0.2,0.2-0.3,0.5-0.3,0.8c0,0.2,0.1,0.5,0.3,0.7c0.2,0.2,0.7,0.5,1.5,0.8c1.2,0.4,2,0.9,2.5,1.5
		c0.5,0.5,0.7,1.2,0.7,2.1c0,1-0.4,1.8-1.1,2.4s-1.7,0.9-2.9,0.9c-0.8,0-1.5-0.2-2.2-0.5c-0.6-0.3-1.1-0.8-1.5-1.3
		c-0.4-0.6-0.5-1.2-0.5-1.8h2.8c0,0.5,0.1,0.9,0.4,1.1c0.2,0.3,0.6,0.4,1.1,0.4C64.6,119.2,65,118.8,65,118.1z"/>
	<path class="st3" d="M78.2,115.9c0,1.7-0.3,3.1-0.9,4s-1.5,1.4-2.7,1.4c-0.9,0-1.6-0.4-2.2-1.1v5.2h-2.9V110h2.7l0.1,1
		c0.6-0.8,1.3-1.2,2.3-1.2c1.2,0,2.1,0.4,2.7,1.3s0.9,2.2,0.9,4V115.9z M75.4,115.2c0-1.1-0.1-1.8-0.4-2.3c-0.2-0.4-0.6-0.7-1.2-0.7
		c-0.6,0-1,0.2-1.3,0.7v5.2c0.3,0.5,0.7,0.7,1.3,0.7c0.6,0,1-0.2,1.2-0.7c0.2-0.5,0.3-1.2,0.3-2.3V115.2z"/>
	<path class="st3" d="M84.5,121.3c-1.5,0-2.7-0.4-3.5-1.3s-1.3-2.2-1.3-3.8v-0.9c0-1.8,0.4-3.1,1.1-4.1c0.8-0.9,1.9-1.4,3.3-1.4
		c1.4,0,2.4,0.4,3.1,1.3s1.1,2.2,1.1,4v1.4h-5.8c0,0.8,0.2,1.4,0.5,1.8s0.8,0.6,1.5,0.6c1,0,1.8-0.3,2.4-1l1.1,1.8
		c-0.4,0.5-0.9,0.9-1.5,1.2C86,121.1,85.3,121.3,84.5,121.3z M82.7,114.5h2.9v-0.3c0-0.7-0.1-1.2-0.3-1.5s-0.6-0.5-1.1-0.5
		s-0.9,0.2-1.1,0.5C82.8,113.1,82.7,113.7,82.7,114.5z"/>
	<path class="st3" d="M92.7,110l0.1,1.1c0.7-0.9,1.5-1.3,2.6-1.3c1.9,0,2.9,1.3,2.9,4v7.3h-2.9V114c0-0.6-0.1-1.1-0.3-1.4
		c-0.2-0.3-0.5-0.4-1-0.4c-0.5,0-0.9,0.3-1.2,0.8v8.1H90V110H92.7z"/>
	<path class="st3" d="M100,115.2c0-1.8,0.3-3.2,0.9-4.1c0.6-0.9,1.5-1.3,2.7-1.3c0.9,0,1.6,0.4,2.1,1.1v-5.6h2.9v15.8H106l-0.1-1.1
		c-0.6,0.9-1.4,1.3-2.3,1.3c-1.2,0-2-0.4-2.7-1.3s-0.9-2.2-0.9-3.9V115.2z M102.9,115.9c0,1.1,0.1,1.9,0.3,2.3
		c0.2,0.4,0.6,0.7,1.2,0.7c0.6,0,1-0.3,1.3-0.8V113c-0.3-0.5-0.7-0.8-1.3-0.8c-0.5,0-0.9,0.2-1.2,0.6s-0.4,1.2-0.4,2.3V115.9z"/>
	<path class="st3" d="M110.8,107.1c0-0.5,0.1-0.8,0.4-1.1s0.7-0.4,1.1-0.4s0.9,0.1,1.1,0.4s0.4,0.7,0.4,1.1c0,0.4-0.1,0.8-0.4,1.1
		c-0.3,0.3-0.7,0.4-1.2,0.4s-0.9-0.1-1.2-0.4S110.8,107.6,110.8,107.1z M113.8,121.1h-2.9V110h2.9V121.1z"/>
	<path class="st3" d="M118.7,110l0.1,1.1c0.7-0.9,1.5-1.3,2.6-1.3c1.9,0,2.9,1.3,2.9,4v7.3h-2.9V114c0-0.6-0.1-1.1-0.3-1.4
		c-0.2-0.3-0.5-0.4-1-0.4c-0.5,0-0.9,0.3-1.2,0.8v8.1H116V110H118.7z"/>
	<path class="st3" d="M126.1,115.2c0-1.8,0.3-3.2,1-4.1c0.7-0.9,1.6-1.3,2.8-1.3c1,0,1.8,0.4,2.3,1.2l0.1-1h2.6v11.1
		c0,1.4-0.4,2.5-1.2,3.2c-0.8,0.7-1.9,1.1-3.4,1.1c-0.6,0-1.2-0.1-1.9-0.4c-0.7-0.2-1.2-0.6-1.5-0.9l1-2c0.3,0.3,0.6,0.5,1.1,0.7
		c0.4,0.2,0.9,0.3,1.2,0.3c0.6,0,1.1-0.2,1.4-0.5c0.3-0.3,0.4-0.8,0.4-1.5v-1c-0.6,0.7-1.3,1.1-2.2,1.1c-1.2,0-2.1-0.5-2.7-1.4
		c-0.6-0.9-1-2.2-1-3.9V115.2z M129,115.9c0,1,0.1,1.8,0.4,2.2c0.3,0.5,0.7,0.7,1.3,0.7c0.6,0,1-0.2,1.3-0.6v-5.3
		c-0.3-0.5-0.7-0.7-1.3-0.7c-0.6,0-1,0.2-1.3,0.7c-0.3,0.5-0.4,1.2-0.4,2.3V115.9z"/>
	<path class="st3" d="M142.5,121.1v-8.9h-1.3V110h1.3v-1c0-1.2,0.3-2.2,1-2.9c0.6-0.7,1.5-1,2.7-1c0.3,0,0.8,0.1,1.3,0.2l0,2.3
		c-0.2-0.1-0.4-0.1-0.7-0.1c-0.9,0-1.3,0.5-1.3,1.5v0.9h1.7v2.2h-1.7v8.9H142.5z"/>
	<path class="st3" d="M148.4,115.2c0-1.7,0.4-3,1.2-4s1.9-1.4,3.3-1.4c1.4,0,2.5,0.5,3.3,1.4s1.2,2.3,1.2,4v0.7c0,1.7-0.4,3-1.2,4
		c-0.8,1-1.9,1.4-3.3,1.4c-1.4,0-2.5-0.5-3.3-1.4c-0.8-1-1.2-2.3-1.2-4V115.2z M151.3,115.9c0,2,0.5,3,1.6,3c1,0,1.5-0.8,1.6-2.5
		l0-1.2c0-1-0.1-1.8-0.4-2.3c-0.3-0.5-0.7-0.7-1.2-0.7c-0.5,0-0.9,0.2-1.2,0.7c-0.3,0.5-0.4,1.2-0.4,2.3V115.9z"/>
	<path class="st3" d="M164.6,112.8l-1-0.1c-0.8,0-1.3,0.3-1.6,1v7.3h-2.9V110h2.7l0.1,1.2c0.5-0.9,1.1-1.4,1.9-1.4
		c0.3,0,0.6,0,0.8,0.1L164.6,112.8z"/>
</g>
<g class="st2">
	<path class="st3" d="M60.7,148.1v-8.9h-1.3V137h1.3v-1c0-1.2,0.3-2.2,1-2.9c0.6-0.7,1.5-1,2.7-1c0.3,0,0.8,0.1,1.3,0.2l0,2.3
		c-0.2-0.1-0.4-0.1-0.7-0.1c-0.9,0-1.3,0.5-1.3,1.5v0.9h1.7v2.2h-1.7v8.9H60.7z"/>
	<path class="st3" d="M72.2,148.1c-0.1-0.2-0.2-0.5-0.2-0.9c-0.5,0.7-1.2,1.1-2.1,1.1c-0.9,0-1.7-0.3-2.3-0.9
		c-0.6-0.6-0.9-1.4-0.9-2.4c0-1.2,0.4-2.1,1.1-2.7s1.8-1,3.2-1h0.9v-0.9c0-0.5-0.1-0.9-0.3-1.1s-0.4-0.3-0.7-0.3
		c-0.7,0-1.1,0.4-1.1,1.3h-2.9c0-1,0.4-1.9,1.2-2.5c0.8-0.7,1.7-1,2.9-1c1.2,0,2.2,0.3,2.8,0.9c0.7,0.6,1,1.5,1,2.7v5.2
		c0,1,0.2,1.7,0.4,2.2v0.2H72.2z M70.5,146c0.3,0,0.6-0.1,0.8-0.2s0.4-0.3,0.5-0.5V143h-0.7c-0.5,0-0.9,0.2-1.2,0.5
		c-0.3,0.3-0.4,0.7-0.4,1.3C69.5,145.6,69.9,146,70.5,146z"/>
	<path class="st3" d="M79.6,137l0.1,1c0.6-0.8,1.5-1.2,2.6-1.2c1.1,0,1.9,0.5,2.3,1.5c0.6-1,1.5-1.5,2.7-1.5c1.9,0,2.9,1.3,3,4v7.3
		h-2.9V141c0-0.6-0.1-1.1-0.3-1.4s-0.5-0.4-0.9-0.4c-0.5,0-0.9,0.3-1.2,1l0,0.3v7.5h-2.9V141c0-0.6-0.1-1.1-0.3-1.4
		c-0.2-0.3-0.5-0.4-0.9-0.4c-0.5,0-0.9,0.3-1.2,0.8v8.1h-2.9V137H79.6z"/>
	<path class="st3" d="M92.4,134.1c0-0.5,0.1-0.8,0.4-1.1s0.7-0.4,1.1-0.4s0.9,0.1,1.1,0.4s0.4,0.7,0.4,1.1c0,0.4-0.1,0.8-0.4,1.1
		c-0.3,0.3-0.7,0.4-1.2,0.4s-0.9-0.1-1.2-0.4S92.4,134.6,92.4,134.1z M95.5,148.1h-2.9V137h2.9V148.1z"/>
	<path class="st3" d="M100.7,148.1h-2.9v-15.8h2.9V148.1z"/>
	<path class="st3" d="M103,134.1c0-0.5,0.1-0.8,0.4-1.1s0.7-0.4,1.1-0.4s0.9,0.1,1.1,0.4s0.4,0.7,0.4,1.1c0,0.4-0.1,0.8-0.4,1.1
		c-0.3,0.3-0.7,0.4-1.2,0.4s-0.9-0.1-1.2-0.4S103,134.6,103,134.1z M106,148.1h-2.9V137h2.9V148.1z"/>
	<path class="st3" d="M112.8,148.3c-1.5,0-2.7-0.4-3.5-1.3s-1.3-2.2-1.3-3.8v-0.9c0-1.8,0.4-3.1,1.1-4.1c0.8-0.9,1.9-1.4,3.3-1.4
		c1.4,0,2.4,0.4,3.1,1.3s1.1,2.2,1.1,4v1.4h-5.8c0,0.8,0.2,1.4,0.5,1.8s0.8,0.6,1.5,0.6c1,0,1.8-0.3,2.4-1l1.1,1.8
		c-0.4,0.5-0.9,0.9-1.5,1.2C114.3,148.1,113.6,148.3,112.8,148.3z M110.9,141.5h2.9v-0.3c0-0.7-0.1-1.2-0.3-1.5s-0.6-0.5-1.1-0.5
		s-0.9,0.2-1.1,0.5C111.1,140.1,111,140.7,110.9,141.5z"/>
	<path class="st3" d="M123.2,145.1c0-0.2-0.1-0.5-0.4-0.7c-0.2-0.2-0.8-0.5-1.6-0.8c-1.2-0.5-2-1-2.5-1.5c-0.4-0.5-0.7-1.2-0.7-1.9
		c0-1,0.3-1.8,1.1-2.4c0.7-0.6,1.6-0.9,2.8-0.9c1.2,0,2.2,0.3,2.9,0.9s1.1,1.5,1.1,2.5h-2.9c0-0.9-0.4-1.4-1.1-1.4
		c-0.3,0-0.6,0.1-0.8,0.3c-0.2,0.2-0.3,0.5-0.3,0.8c0,0.2,0.1,0.5,0.3,0.7c0.2,0.2,0.7,0.5,1.5,0.8c1.2,0.4,2,0.9,2.5,1.5
		c0.5,0.5,0.7,1.2,0.7,2.1c0,1-0.4,1.8-1.1,2.4s-1.7,0.9-2.9,0.9c-0.8,0-1.5-0.2-2.2-0.5c-0.6-0.3-1.1-0.8-1.5-1.3
		c-0.4-0.6-0.5-1.2-0.5-1.8h2.8c0,0.5,0.1,0.9,0.4,1.1c0.2,0.3,0.6,0.4,1.1,0.4C122.9,146.2,123.2,145.8,123.2,145.1z"/>
	<path class="st3" d="M132.4,142.2c0-1.8,0.3-3.2,1-4.1c0.7-0.9,1.6-1.3,2.8-1.3c1,0,1.8,0.4,2.3,1.2l0.1-1h2.6v11.1
		c0,1.4-0.4,2.5-1.2,3.2c-0.8,0.7-1.9,1.1-3.4,1.1c-0.6,0-1.2-0.1-1.9-0.4c-0.7-0.2-1.2-0.6-1.5-0.9l1-2c0.3,0.3,0.6,0.5,1.1,0.7
		c0.4,0.2,0.9,0.3,1.2,0.3c0.6,0,1.1-0.2,1.4-0.5c0.3-0.3,0.4-0.8,0.4-1.5v-1c-0.6,0.7-1.3,1.1-2.2,1.1c-1.2,0-2.1-0.5-2.7-1.4
		c-0.6-0.9-1-2.2-1-3.9V142.2z M135.3,142.9c0,1,0.1,1.8,0.4,2.2c0.3,0.5,0.7,0.7,1.3,0.7c0.6,0,1-0.2,1.3-0.6v-5.3
		c-0.3-0.5-0.7-0.7-1.3-0.7c-0.6,0-1,0.2-1.3,0.7c-0.3,0.5-0.4,1.2-0.4,2.3V142.9z"/>
	<path class="st3" d="M142.9,142.2c0-1.7,0.4-3,1.2-4s1.9-1.4,3.3-1.4c1.4,0,2.5,0.5,3.3,1.4s1.2,2.3,1.2,4v0.7c0,1.7-0.4,3-1.2,4
		c-0.8,1-1.9,1.4-3.3,1.4c-1.4,0-2.5-0.5-3.3-1.4c-0.8-1-1.2-2.3-1.2-4V142.2z M145.8,142.9c0,2,0.5,3,1.6,3c1,0,1.5-0.8,1.6-2.5
		l0-1.2c0-1-0.1-1.8-0.4-2.3c-0.3-0.5-0.7-0.7-1.2-0.7c-0.5,0-0.9,0.2-1.2,0.7c-0.3,0.5-0.4,1.2-0.4,2.3V142.9z"/>
	<path class="st3" d="M155.8,143.5c0-1,0.1-1.7,0.3-2.3c0.2-0.6,0.5-1.1,1-1.6c0.5-0.6,0.9-1,1-1.4s0.3-0.7,0.3-1.1
		c0-1.1-0.4-1.7-1.1-1.7c-0.3,0-0.6,0.2-0.8,0.5s-0.3,0.7-0.3,1.3h-2.9c0-1.3,0.4-2.4,1.1-3.1c0.7-0.7,1.7-1.1,3-1.1
		c1.3,0,2.3,0.4,3,1.1c0.7,0.7,1.1,1.7,1.1,3c0,1.1-0.4,2.1-1.3,3.1l-0.9,1c-0.3,0.3-0.5,0.7-0.6,1c-0.1,0.4-0.2,0.8-0.2,1.4H155.8z
		 M155.5,146.6c0-0.5,0.1-0.8,0.4-1.1c0.3-0.3,0.7-0.4,1.1-0.4c0.5,0,0.9,0.1,1.1,0.4c0.3,0.3,0.4,0.7,0.4,1.1
		c0,0.5-0.1,0.8-0.4,1.1s-0.7,0.5-1.2,0.5c-0.5,0-0.9-0.2-1.1-0.5S155.5,147.1,155.5,146.6z"/>
</g>
</svg>
