<?xml version="1.0" encoding="utf-8"?>
<!-- Generator: Adobe Illustrator 27.0.1, SVG Export Plug-In . SVG Version: 6.00 Build 0)  -->
<svg version="1.1" id="Layer_1" xmlns="http://www.w3.org/2000/svg" xmlns:xlink="http://www.w3.org/1999/xlink" x="0px" y="0px"
	 viewBox="0 0 175 190" style="enable-background:new 0 0 175 190;" xml:space="preserve">
<style type="text/css">
	.st0{fill:#A5A49F;}
	.st1{fill:#FFFFFF;}
	.st2{fill:#524C4C;}
	.st3{fill:#828A43;}
	.st4{fill:#B3BD80;}
	.st5{fill:#677432;}
	.st6{fill:#7F7474;}
	.st7{enable-background:new    ;}
</style>
<polygon class="st3" points="162.5,138.3 87.5,181.6 12.5,138.3 12.5,51.7 87.5,8.4 162.5,51.7 "/>
<g class="st7">
	<path class="st1" d="M65.2,62H62v2.7h3.8v1.7h-5.9V56.2h5.8v1.7H62v2.4h3.2V62z"/>
	<path class="st1" d="M66.6,62.4c0-1.2,0.2-2.2,0.6-2.8s1-0.9,1.8-0.9c0.6,0,1.1,0.3,1.5,0.8v-3.8h2v10.8h-1.8l-0.1-0.8
		c-0.4,0.6-0.9,0.9-1.6,0.9c-0.8,0-1.4-0.3-1.8-0.9c-0.4-0.6-0.6-1.5-0.6-2.7V62.4z M68.6,62.9c0,0.7,0.1,1.3,0.2,1.6
		c0.2,0.3,0.4,0.4,0.8,0.4c0.4,0,0.7-0.2,0.9-0.5v-3.5c-0.2-0.4-0.5-0.6-0.9-0.6c-0.4,0-0.6,0.1-0.8,0.4c-0.2,0.3-0.3,0.8-0.3,1.6
		V62.9z"/>
	<path class="st1" d="M77.7,65.7c-0.4,0.6-1,0.8-1.7,0.8c-0.7,0-1.2-0.2-1.6-0.7c-0.4-0.5-0.5-1.2-0.5-2.1v-4.9h2v5
		c0,0.7,0.3,1.1,0.7,1.1c0.5,0,0.8-0.2,1-0.6v-5.5h2v7.6h-1.9L77.7,65.7z"/>
	<path class="st1" d="M83.8,64.9c0.6,0,0.9-0.4,0.9-1.1h1.9c0,0.8-0.3,1.5-0.8,2c-0.5,0.5-1.1,0.8-1.9,0.8c-1,0-1.7-0.3-2.2-0.9
		c-0.5-0.6-0.8-1.5-0.8-2.7v-0.6c0-1.2,0.3-2.1,0.8-2.7c0.5-0.6,1.3-0.9,2.2-0.9c0.8,0,1.5,0.3,2,0.8c0.5,0.5,0.7,1.2,0.7,2.2h-1.9
		c0-0.4-0.1-0.8-0.2-1c-0.1-0.2-0.4-0.3-0.7-0.3c-0.3,0-0.6,0.1-0.7,0.4c-0.1,0.2-0.2,0.7-0.2,1.4v0.8c0,0.6,0,1,0.1,1.3
		s0.2,0.4,0.3,0.5C83.3,64.9,83.5,64.9,83.8,64.9z"/>
	<path class="st1" d="M91.2,66.4c-0.1-0.1-0.1-0.3-0.2-0.6c-0.4,0.5-0.8,0.7-1.4,0.7c-0.6,0-1.2-0.2-1.6-0.6c-0.4-0.4-0.6-1-0.6-1.6
		c0-0.8,0.3-1.4,0.8-1.8c0.5-0.4,1.2-0.7,2.2-0.7H91v-0.6c0-0.3-0.1-0.6-0.2-0.7c-0.1-0.1-0.3-0.2-0.5-0.2c-0.5,0-0.7,0.3-0.7,0.9
		h-2c0-0.7,0.3-1.3,0.8-1.7c0.5-0.5,1.2-0.7,2-0.7c0.8,0,1.5,0.2,1.9,0.6c0.5,0.4,0.7,1.1,0.7,1.9v3.6c0,0.7,0.1,1.2,0.3,1.5v0.1
		H91.2z M90.1,65c0.2,0,0.4,0,0.6-0.1c0.2-0.1,0.3-0.2,0.3-0.3V63h-0.5c-0.3,0-0.6,0.1-0.8,0.3c-0.2,0.2-0.3,0.5-0.3,0.9
		C89.4,64.7,89.6,65,90.1,65z"/>
	<path class="st1" d="M96.7,57v1.9h1v1.5h-1v3.8c0,0.3,0,0.5,0.1,0.6c0.1,0.1,0.2,0.2,0.5,0.2c0.2,0,0.3,0,0.5,0l0,1.5
		c-0.3,0.1-0.7,0.2-1.1,0.2c-1.3,0-1.9-0.7-1.9-2.2v-4h-0.9v-1.5h0.9V57H96.7z"/>
	<path class="st1" d="M98.8,56.9c0-0.3,0.1-0.6,0.3-0.8c0.2-0.2,0.5-0.3,0.8-0.3c0.3,0,0.6,0.1,0.8,0.3c0.2,0.2,0.3,0.4,0.3,0.8
		c0,0.3-0.1,0.6-0.3,0.8c-0.2,0.2-0.5,0.3-0.8,0.3c-0.3,0-0.6-0.1-0.8-0.3C98.9,57.4,98.8,57.2,98.8,56.9z M100.9,66.4h-2v-7.6h2
		V66.4z"/>
	<path class="st1" d="M102.2,62.4c0-1.2,0.3-2.1,0.8-2.7c0.5-0.7,1.3-1,2.3-1c1,0,1.7,0.3,2.3,1s0.8,1.6,0.8,2.7v0.5
		c0,1.2-0.3,2.1-0.8,2.7c-0.5,0.6-1.3,1-2.3,1c-1,0-1.7-0.3-2.3-1c-0.5-0.7-0.8-1.6-0.8-2.7V62.4z M104.2,62.9c0,1.4,0.4,2,1.1,2
		c0.7,0,1-0.6,1.1-1.7l0-0.8c0-0.7-0.1-1.2-0.3-1.5c-0.2-0.3-0.5-0.5-0.8-0.5c-0.3,0-0.6,0.2-0.8,0.5s-0.3,0.8-0.3,1.5V62.9z"/>
	<path class="st1" d="M111.4,58.8l0.1,0.8c0.4-0.6,1-0.9,1.8-0.9c1.3,0,2,0.9,2,2.7v5h-2v-4.8c0-0.4-0.1-0.7-0.2-0.9
		s-0.4-0.3-0.7-0.3c-0.4,0-0.6,0.2-0.8,0.6v5.5h-2v-7.6H111.4z"/>
</g>
<g class="st7">
	<path class="st1" d="M73.9,91.9h-0.9v-3.1h-2.7v3.1h-0.9v-6.8h0.9V88h2.7v-2.9h0.9V91.9z"/>
	<path class="st1" d="M77.1,92c-0.6,0-1.1-0.2-1.4-0.6c-0.3-0.4-0.5-0.9-0.5-1.7v-0.6c0-0.8,0.2-1.3,0.5-1.8
		c0.3-0.4,0.8-0.6,1.4-0.6c0.6,0,1,0.2,1.3,0.6c0.3,0.4,0.4,1,0.4,1.8v0.5H76v0.1c0,0.5,0.1,0.9,0.3,1.2c0.2,0.2,0.5,0.4,0.9,0.4
		c0.2,0,0.5,0,0.6-0.1c0.2-0.1,0.4-0.2,0.5-0.4l0.4,0.5C78.4,91.8,77.8,92,77.1,92z M77,87.5c-0.3,0-0.6,0.1-0.8,0.4
		c-0.2,0.2-0.3,0.6-0.3,1.1h2v-0.1c0-0.5-0.1-0.8-0.3-1C77.6,87.6,77.3,87.5,77,87.5z"/>
	<path class="st1" d="M82.4,91.9c-0.1-0.1-0.1-0.3-0.1-0.6C82,91.8,81.6,92,81.2,92c-0.5,0-0.8-0.1-1.1-0.4
		c-0.3-0.3-0.4-0.6-0.4-1.1c0-0.5,0.2-0.9,0.5-1.2c0.3-0.3,0.8-0.5,1.4-0.5h0.6v-0.5c0-0.3-0.1-0.5-0.2-0.6
		c-0.1-0.1-0.3-0.2-0.6-0.2c-0.2,0-0.5,0.1-0.6,0.2s-0.2,0.3-0.2,0.6h-0.8c0-0.3,0.1-0.5,0.2-0.7c0.2-0.2,0.4-0.4,0.6-0.6
		c0.3-0.1,0.5-0.2,0.9-0.2c0.5,0,0.9,0.1,1.2,0.4c0.3,0.3,0.4,0.6,0.4,1.1v2.6c0,0.4,0.1,0.7,0.2,1v0.1H82.4z M81.3,91.3
		c0.2,0,0.4-0.1,0.6-0.2c0.2-0.1,0.3-0.3,0.4-0.4v-1.2h-0.5c-0.4,0-0.7,0.1-0.9,0.3c-0.2,0.2-0.3,0.4-0.3,0.7c0,0.3,0.1,0.5,0.2,0.6
		C80.8,91.2,81,91.3,81.3,91.3z"/>
	<path class="st1" d="M84.2,89.2c0-0.8,0.1-1.4,0.4-1.8c0.3-0.4,0.7-0.6,1.3-0.6c0.5,0,0.9,0.2,1.1,0.6v-2.6h0.8v7.2h-0.8l0-0.5
		c-0.3,0.4-0.7,0.6-1.2,0.6c-0.5,0-0.9-0.2-1.2-0.6c-0.3-0.4-0.4-1-0.5-1.7V89.2z M85,89.6c0,0.6,0.1,1,0.3,1.2
		c0.2,0.3,0.4,0.4,0.8,0.4c0.4,0,0.7-0.2,0.9-0.6v-2.5c-0.2-0.4-0.5-0.6-0.9-0.6c-0.4,0-0.7,0.1-0.8,0.4c-0.2,0.3-0.3,0.7-0.3,1.2
		V89.6z"/>
	<path class="st1" d="M91.6,90.6c0-0.2-0.1-0.3-0.2-0.5c-0.1-0.1-0.4-0.3-0.8-0.4c-0.4-0.2-0.8-0.3-0.9-0.5
		c-0.2-0.1-0.3-0.3-0.4-0.4c-0.1-0.2-0.1-0.4-0.1-0.6c0-0.4,0.2-0.8,0.5-1c0.3-0.3,0.7-0.4,1.2-0.4c0.5,0,0.9,0.1,1.2,0.4
		c0.3,0.3,0.4,0.7,0.4,1.1h-0.8c0-0.2-0.1-0.4-0.2-0.6c-0.2-0.2-0.3-0.2-0.6-0.2c-0.2,0-0.4,0.1-0.6,0.2c-0.1,0.1-0.2,0.3-0.2,0.5
		c0,0.2,0.1,0.3,0.2,0.4s0.3,0.2,0.7,0.4c0.6,0.2,1,0.5,1.3,0.7c0.2,0.2,0.3,0.5,0.3,0.9c0,0.4-0.2,0.8-0.5,1.1
		c-0.3,0.3-0.7,0.4-1.2,0.4c-0.5,0-1-0.2-1.3-0.5c-0.3-0.3-0.5-0.7-0.5-1.1h0.8c0,0.3,0.1,0.5,0.3,0.7c0.2,0.2,0.4,0.2,0.7,0.2
		c0.3,0,0.5-0.1,0.6-0.2C91.5,91,91.6,90.8,91.6,90.6z"/>
	<path class="st1" d="M94.6,85.6v1.2h0.8v0.7h-0.8v3.1c0,0.2,0,0.4,0.1,0.5c0.1,0.1,0.2,0.2,0.3,0.2c0.1,0,0.2,0,0.3-0.1l0,0.7
		C95.1,92,94.9,92,94.7,92c-0.3,0-0.6-0.1-0.7-0.4c-0.2-0.2-0.3-0.6-0.3-1v-3.1H93v-0.7h0.8v-1.2H94.6z"/>
	<path class="st1" d="M98.9,91.9c-0.1-0.1-0.1-0.3-0.1-0.6c-0.3,0.4-0.7,0.6-1.1,0.6c-0.5,0-0.8-0.1-1.1-0.4s-0.4-0.6-0.4-1.1
		c0-0.5,0.2-0.9,0.5-1.2c0.3-0.3,0.8-0.5,1.4-0.5h0.6v-0.5c0-0.3-0.1-0.5-0.2-0.6c-0.1-0.1-0.3-0.2-0.6-0.2c-0.2,0-0.5,0.1-0.6,0.2
		c-0.2,0.1-0.2,0.3-0.2,0.6h-0.8c0-0.3,0.1-0.5,0.2-0.7c0.2-0.2,0.4-0.4,0.6-0.6c0.3-0.1,0.5-0.2,0.9-0.2c0.5,0,0.9,0.1,1.2,0.4
		c0.3,0.3,0.4,0.6,0.4,1.1v2.6c0,0.4,0.1,0.7,0.2,1v0.1H98.9z M97.8,91.3c0.2,0,0.4-0.1,0.6-0.2c0.2-0.1,0.3-0.3,0.4-0.4v-1.2h-0.5
		c-0.4,0-0.7,0.1-0.9,0.3c-0.2,0.2-0.3,0.4-0.3,0.7c0,0.3,0.1,0.5,0.2,0.6C97.3,91.2,97.5,91.3,97.8,91.3z"/>
</g>
<g class="st7">
	<path class="st1" d="M103,87.6c-0.1,0-0.2,0-0.4,0c-0.4,0-0.7,0.2-0.9,0.7v3.6h-0.8v-5.1h0.8l0,0.5c0.2-0.4,0.5-0.6,0.9-0.6
		c0.1,0,0.2,0,0.3,0.1L103,87.6z"/>
</g>
<g class="st7">
	<path class="st1" d="M105.1,85.6v1.2h0.8v0.7h-0.8v3.1c0,0.2,0,0.4,0.1,0.5c0.1,0.1,0.2,0.2,0.3,0.2c0.1,0,0.2,0,0.3-0.1l0,0.7
		c-0.2,0.1-0.4,0.1-0.6,0.1c-0.3,0-0.6-0.1-0.7-0.4c-0.2-0.2-0.3-0.6-0.3-1v-3.1h-0.8v-0.7h0.8v-1.2H105.1z"/>
</g>
<g class="st7">
	<path class="st1" d="M69,100.7v2.7h-0.9v-6.8h2.2c0.6,0,1.1,0.2,1.5,0.6c0.4,0.4,0.5,0.9,0.5,1.5c0,0.7-0.2,1.2-0.5,1.5
		s-0.8,0.5-1.5,0.5H69z M69,100h1.3c0.4,0,0.7-0.1,0.9-0.3c0.2-0.2,0.3-0.6,0.3-1c0-0.4-0.1-0.7-0.3-1c-0.2-0.2-0.5-0.4-0.9-0.4H69
		V100z"/>
	<path class="st1" d="M75.1,103.5c-0.6,0-1.1-0.2-1.4-0.6c-0.3-0.4-0.5-0.9-0.5-1.7v-0.6c0-0.8,0.2-1.3,0.5-1.8
		c0.3-0.4,0.8-0.6,1.4-0.6c0.6,0,1,0.2,1.3,0.6c0.3,0.4,0.4,1,0.4,1.8v0.5H74v0.1c0,0.5,0.1,0.9,0.3,1.2c0.2,0.2,0.5,0.4,0.9,0.4
		c0.2,0,0.5,0,0.6-0.1c0.2-0.1,0.4-0.2,0.5-0.4l0.4,0.5C76.4,103.2,75.9,103.5,75.1,103.5z M75,99c-0.3,0-0.6,0.1-0.8,0.4
		c-0.2,0.2-0.3,0.6-0.3,1.1h2v-0.1c0-0.5-0.1-0.8-0.3-1C75.6,99.1,75.3,99,75,99z"/>
	<path class="st1" d="M78.7,103.4h-0.8v-7.2h0.8V103.4z"/>
	<path class="st1" d="M80.9,103.4h-0.8v-7.2h0.8V103.4z"/>
	<path class="st1" d="M84.2,100.6c0-0.8,0.1-1.4,0.4-1.8c0.3-0.4,0.7-0.6,1.3-0.6c0.5,0,0.9,0.2,1.2,0.7l0-0.6h0.7v5.1
		c0,0.6-0.2,1.1-0.5,1.4c-0.3,0.3-0.8,0.5-1.3,0.5c-0.2,0-0.5-0.1-0.8-0.2c-0.3-0.1-0.5-0.3-0.7-0.5l0.3-0.6
		c0.3,0.3,0.7,0.5,1.1,0.5c0.7,0,1-0.4,1.1-1.1v-0.7c-0.3,0.4-0.6,0.6-1.1,0.6c-0.5,0-0.9-0.2-1.2-0.6c-0.3-0.4-0.4-1-0.5-1.7V100.6
		z M85,101.1c0,0.6,0.1,1,0.3,1.2c0.2,0.3,0.4,0.4,0.8,0.4c0.4,0,0.7-0.2,0.9-0.6v-2.5c-0.2-0.4-0.5-0.6-0.9-0.6
		c-0.4,0-0.7,0.1-0.8,0.4c-0.2,0.3-0.3,0.7-0.3,1.2V101.1z"/>
</g>
<g class="st7">
	<path class="st1" d="M91.2,99.1c-0.1,0-0.2,0-0.4,0c-0.4,0-0.7,0.2-0.9,0.7v3.6h-0.8v-5.1h0.8l0,0.5c0.2-0.4,0.5-0.6,0.9-0.6
		c0.1,0,0.2,0,0.3,0.1L91.2,99.1z"/>
</g>
<g class="st7">
	<path class="st1" d="M94.4,103.4c-0.1-0.1-0.1-0.3-0.1-0.6c-0.3,0.4-0.7,0.6-1.1,0.6c-0.5,0-0.8-0.1-1.1-0.4s-0.4-0.6-0.4-1.1
		c0-0.5,0.2-0.9,0.5-1.2c0.3-0.3,0.8-0.5,1.4-0.5h0.6v-0.5c0-0.3-0.1-0.5-0.2-0.6S93.8,99,93.5,99c-0.2,0-0.5,0.1-0.6,0.2
		c-0.2,0.1-0.2,0.3-0.2,0.6h-0.8c0-0.3,0.1-0.5,0.2-0.7c0.2-0.2,0.4-0.4,0.6-0.6s0.5-0.2,0.9-0.2c0.5,0,0.9,0.1,1.2,0.4
		s0.4,0.6,0.4,1.1v2.6c0,0.4,0.1,0.7,0.2,1v0.1H94.4z M93.3,102.7c0.2,0,0.4-0.1,0.6-0.2c0.2-0.1,0.3-0.3,0.4-0.4v-1.2h-0.5
		c-0.4,0-0.7,0.1-0.9,0.3c-0.2,0.2-0.3,0.4-0.3,0.7c0,0.3,0.1,0.5,0.2,0.6C92.8,102.7,93,102.7,93.3,102.7z"/>
	<path class="st1" d="M97.2,98.3l0,0.5c0.3-0.4,0.7-0.6,1.2-0.6c0.9,0,1.3,0.6,1.4,1.8v3.4H99v-3.3c0-0.4-0.1-0.7-0.2-0.8
		c-0.1-0.2-0.3-0.2-0.6-0.2c-0.2,0-0.4,0.1-0.6,0.2c-0.2,0.1-0.3,0.3-0.4,0.5v3.7h-0.8v-5.1H97.2z"/>
	<path class="st1" d="M102.1,97.1v1.2h0.8V99h-0.8v3.1c0,0.2,0,0.4,0.1,0.5c0.1,0.1,0.2,0.2,0.3,0.2c0.1,0,0.2,0,0.3-0.1l0,0.7
		c-0.2,0.1-0.4,0.1-0.6,0.1c-0.3,0-0.6-0.1-0.7-0.4s-0.3-0.6-0.3-1V99h-0.8v-0.7h0.8v-1.2H102.1z"/>
	<path class="st1" d="M106.3,102.1c0-0.2-0.1-0.3-0.2-0.5c-0.1-0.1-0.4-0.3-0.8-0.4c-0.4-0.2-0.8-0.3-0.9-0.5
		c-0.2-0.1-0.3-0.3-0.4-0.4c-0.1-0.2-0.1-0.4-0.1-0.6c0-0.4,0.2-0.8,0.5-1c0.3-0.3,0.7-0.4,1.2-0.4c0.5,0,0.9,0.1,1.2,0.4
		c0.3,0.3,0.4,0.7,0.4,1.1h-0.8c0-0.2-0.1-0.4-0.2-0.6c-0.2-0.2-0.3-0.2-0.6-0.2c-0.2,0-0.4,0.1-0.6,0.2c-0.1,0.1-0.2,0.3-0.2,0.5
		c0,0.2,0.1,0.3,0.2,0.4s0.3,0.2,0.7,0.4c0.6,0.2,1,0.5,1.3,0.7c0.2,0.2,0.3,0.5,0.3,0.9c0,0.4-0.2,0.8-0.5,1.1
		c-0.3,0.3-0.7,0.4-1.2,0.4c-0.5,0-1-0.2-1.3-0.5c-0.3-0.3-0.5-0.7-0.5-1.1h0.8c0,0.3,0.1,0.5,0.3,0.7c0.2,0.2,0.4,0.2,0.7,0.2
		c0.3,0,0.5-0.1,0.6-0.2C106.3,102.5,106.3,102.3,106.3,102.1z"/>
</g>
<g class="st7">
	<path class="st1" d="M46,108.8h-1.8v6.1h-0.9v-6.1h-1.8v-0.7H46V108.8z"/>
</g>
<g class="st7">
	<path class="st1" d="M49.1,114.4c-0.3,0.4-0.7,0.5-1.2,0.5c-0.5,0-0.8-0.2-1-0.5c-0.2-0.3-0.4-0.8-0.4-1.4v-3.3h0.8v3.2
		c0,0.8,0.2,1.2,0.7,1.2c0.5,0,0.8-0.2,1-0.7v-3.7h0.8v5.1h-0.8L49.1,114.4z"/>
	<path class="st1" d="M52.1,108.5c0,0.1,0,0.3-0.1,0.4c-0.1,0.1-0.2,0.1-0.4,0.1c-0.2,0-0.3,0-0.4-0.1c-0.1-0.1-0.1-0.2-0.1-0.4
		c0-0.1,0-0.3,0.1-0.4c0.1-0.1,0.2-0.1,0.4-0.1c0.2,0,0.3,0,0.4,0.1C52,108.2,52.1,108.4,52.1,108.5z M52,114.9h-0.8v-5.1H52V114.9z
		"/>
	<path class="st1" d="M54.4,108.6v1.2h0.8v0.7h-0.8v3.1c0,0.2,0,0.4,0.1,0.5c0.1,0.1,0.2,0.2,0.3,0.2c0.1,0,0.2,0,0.3-0.1l0,0.7
		c-0.2,0.1-0.4,0.1-0.6,0.1c-0.3,0-0.6-0.1-0.7-0.4c-0.2-0.2-0.3-0.6-0.3-1v-3.1h-0.8v-0.7h0.8v-1.2H54.4z"/>
	<path class="st1" d="M57.1,108.5c0,0.1,0,0.3-0.1,0.4c-0.1,0.1-0.2,0.1-0.4,0.1c-0.2,0-0.3,0-0.4-0.1c-0.1-0.1-0.1-0.2-0.1-0.4
		c0-0.1,0-0.3,0.1-0.4c0.1-0.1,0.2-0.1,0.4-0.1c0.2,0,0.3,0,0.4,0.1C57.1,108.2,57.1,108.4,57.1,108.5z M57,114.9h-0.8v-5.1H57
		V114.9z"/>
	<path class="st1" d="M58.2,112.1c0-0.7,0.2-1.3,0.5-1.7c0.4-0.4,0.8-0.6,1.4-0.6c0.6,0,1.1,0.2,1.4,0.6c0.4,0.4,0.5,1,0.5,1.7v0.5
		c0,0.7-0.2,1.3-0.5,1.7c-0.4,0.4-0.8,0.6-1.4,0.6c-0.6,0-1.1-0.2-1.4-0.6c-0.4-0.4-0.5-1-0.5-1.7V112.1z M59,112.6
		c0,0.5,0.1,0.9,0.3,1.2c0.2,0.3,0.5,0.4,0.8,0.4c0.7,0,1.1-0.5,1.1-1.6v-0.6c0-0.5-0.1-0.9-0.3-1.2c-0.2-0.3-0.5-0.5-0.8-0.5
		c-0.3,0-0.6,0.2-0.8,0.5c-0.2,0.3-0.3,0.7-0.3,1.2V112.6z"/>
	<path class="st1" d="M63.9,109.8l0,0.5c0.3-0.4,0.7-0.6,1.2-0.6c0.9,0,1.3,0.6,1.4,1.8v3.4h-0.8v-3.3c0-0.4-0.1-0.7-0.2-0.8
		s-0.3-0.2-0.6-0.2c-0.2,0-0.4,0.1-0.6,0.2c-0.2,0.1-0.3,0.3-0.4,0.5v3.7h-0.8v-5.1H63.9z"/>
	<path class="st1" d="M72.6,114.9c-0.1-0.1-0.1-0.3-0.1-0.6c-0.3,0.4-0.7,0.6-1.1,0.6c-0.5,0-0.8-0.1-1.1-0.4
		c-0.3-0.3-0.4-0.6-0.4-1.1c0-0.5,0.2-0.9,0.5-1.2c0.3-0.3,0.8-0.5,1.4-0.5h0.6v-0.5c0-0.3-0.1-0.5-0.2-0.6s-0.3-0.2-0.6-0.2
		c-0.2,0-0.5,0.1-0.6,0.2s-0.2,0.3-0.2,0.6H70c0-0.3,0.1-0.5,0.2-0.7c0.2-0.2,0.4-0.4,0.6-0.6s0.5-0.2,0.9-0.2
		c0.5,0,0.9,0.1,1.2,0.4s0.4,0.6,0.4,1.1v2.6c0,0.4,0.1,0.7,0.2,1v0.1H72.6z M71.5,114.2c0.2,0,0.4-0.1,0.6-0.2
		c0.2-0.1,0.3-0.3,0.4-0.4v-1.2H72c-0.4,0-0.7,0.1-0.9,0.3c-0.2,0.2-0.3,0.4-0.3,0.7c0,0.3,0.1,0.5,0.2,0.6
		C71,114.2,71.2,114.2,71.5,114.2z"/>
	<path class="st1" d="M75.3,109.8l0,0.5c0.3-0.4,0.7-0.6,1.2-0.6c0.9,0,1.3,0.6,1.4,1.8v3.4h-0.8v-3.3c0-0.4-0.1-0.7-0.2-0.8
		c-0.1-0.2-0.3-0.2-0.6-0.2c-0.2,0-0.4,0.1-0.6,0.2c-0.2,0.1-0.3,0.3-0.4,0.5v3.7h-0.8v-5.1H75.3z"/>
	<path class="st1" d="M79,112.1c0-0.8,0.1-1.4,0.4-1.8c0.3-0.4,0.7-0.6,1.3-0.6c0.5,0,0.9,0.2,1.1,0.6v-2.6h0.8v7.2h-0.8l0-0.5
		c-0.3,0.4-0.7,0.6-1.2,0.6c-0.5,0-0.9-0.2-1.2-0.6c-0.3-0.4-0.4-1-0.5-1.7V112.1z M79.8,112.6c0,0.6,0.1,1,0.3,1.2
		c0.2,0.3,0.4,0.4,0.8,0.4c0.4,0,0.7-0.2,0.9-0.6v-2.5c-0.2-0.4-0.5-0.6-0.9-0.6c-0.4,0-0.7,0.1-0.8,0.4c-0.2,0.3-0.3,0.7-0.3,1.2
		V112.6z"/>
	<path class="st1" d="M88.6,113.6c0-0.2-0.1-0.3-0.2-0.5c-0.1-0.1-0.4-0.3-0.8-0.4c-0.4-0.2-0.8-0.3-0.9-0.5
		c-0.2-0.1-0.3-0.3-0.4-0.4c-0.1-0.2-0.1-0.4-0.1-0.6c0-0.4,0.2-0.8,0.5-1c0.3-0.3,0.7-0.4,1.2-0.4c0.5,0,0.9,0.1,1.2,0.4
		c0.3,0.3,0.4,0.7,0.4,1.1h-0.8c0-0.2-0.1-0.4-0.2-0.6c-0.2-0.2-0.3-0.2-0.6-0.2c-0.2,0-0.4,0.1-0.6,0.2c-0.1,0.1-0.2,0.3-0.2,0.5
		c0,0.2,0.1,0.3,0.2,0.4c0.1,0.1,0.3,0.2,0.7,0.4c0.6,0.2,1,0.5,1.3,0.7c0.2,0.2,0.3,0.5,0.3,0.9c0,0.4-0.2,0.8-0.5,1.1
		c-0.3,0.3-0.7,0.4-1.2,0.4c-0.5,0-1-0.2-1.3-0.5c-0.3-0.3-0.5-0.7-0.5-1.1h0.8c0,0.3,0.1,0.5,0.3,0.7c0.2,0.2,0.4,0.2,0.7,0.2
		c0.3,0,0.5-0.1,0.6-0.2C88.5,114,88.6,113.8,88.6,113.6z"/>
	<path class="st1" d="M92.2,114.3c0.3,0,0.5-0.1,0.7-0.3c0.2-0.2,0.3-0.4,0.3-0.7H94c0,0.5-0.2,0.9-0.5,1.2s-0.7,0.5-1.2,0.5
		c-0.6,0-1.1-0.2-1.4-0.6c-0.3-0.4-0.5-1-0.5-1.8v-0.6c0-0.8,0.2-1.3,0.5-1.7c0.3-0.4,0.8-0.6,1.4-0.6c0.5,0,0.9,0.2,1.2,0.5
		c0.3,0.3,0.5,0.8,0.5,1.3h-0.8c0-0.4-0.1-0.7-0.3-0.8c-0.2-0.2-0.4-0.3-0.7-0.3c-0.4,0-0.6,0.1-0.8,0.4c-0.2,0.2-0.3,0.6-0.3,1.2
		v0.6c0,0.6,0.1,1,0.3,1.3C91.6,114.2,91.9,114.3,92.2,114.3z"/>
	<path class="st1" d="M95.7,110.4c0.3-0.4,0.7-0.6,1.2-0.6c0.9,0,1.3,0.6,1.4,1.8v3.4h-0.8v-3.3c0-0.4-0.1-0.7-0.2-0.8
		c-0.1-0.2-0.3-0.2-0.6-0.2c-0.2,0-0.4,0.1-0.6,0.2c-0.2,0.1-0.3,0.3-0.4,0.5v3.7h-0.8v-7.2h0.8V110.4z"/>
	<path class="st1" d="M99.4,112.1c0-0.7,0.2-1.3,0.5-1.7c0.4-0.4,0.8-0.6,1.4-0.6s1.1,0.2,1.4,0.6c0.4,0.4,0.5,1,0.6,1.7v0.5
		c0,0.7-0.2,1.3-0.5,1.7s-0.8,0.6-1.4,0.6c-0.6,0-1.1-0.2-1.4-0.6s-0.5-1-0.5-1.7V112.1z M100.2,112.6c0,0.5,0.1,0.9,0.3,1.2
		c0.2,0.3,0.5,0.4,0.8,0.4c0.7,0,1.1-0.5,1.1-1.6v-0.6c0-0.5-0.1-0.9-0.3-1.2c-0.2-0.3-0.5-0.5-0.8-0.5c-0.3,0-0.6,0.2-0.8,0.5
		c-0.2,0.3-0.3,0.7-0.3,1.2V112.6z"/>
	<path class="st1" d="M105.2,114.9h-0.8v-7.2h0.8V114.9z"/>
	<path class="st1" d="M109.1,114.9c-0.1-0.1-0.1-0.3-0.1-0.6c-0.3,0.4-0.7,0.6-1.1,0.6c-0.5,0-0.8-0.1-1.1-0.4
		c-0.3-0.3-0.4-0.6-0.4-1.1c0-0.5,0.2-0.9,0.5-1.2c0.3-0.3,0.8-0.5,1.4-0.5h0.6v-0.5c0-0.3-0.1-0.5-0.2-0.6s-0.3-0.2-0.6-0.2
		c-0.2,0-0.5,0.1-0.6,0.2s-0.2,0.3-0.2,0.6h-0.8c0-0.3,0.1-0.5,0.2-0.7s0.4-0.4,0.6-0.6c0.3-0.1,0.5-0.2,0.9-0.2
		c0.5,0,0.9,0.1,1.2,0.4c0.3,0.3,0.4,0.6,0.4,1.1v2.6c0,0.4,0.1,0.7,0.2,1v0.1H109.1z M108,114.2c0.2,0,0.4-0.1,0.6-0.2
		s0.3-0.3,0.4-0.4v-1.2h-0.5c-0.4,0-0.7,0.1-0.9,0.3c-0.2,0.2-0.3,0.4-0.3,0.7c0,0.3,0.1,0.5,0.2,0.6
		C107.6,114.2,107.8,114.2,108,114.2z"/>
	<path class="st1" d="M113.2,110.6c-0.1,0-0.2,0-0.4,0c-0.4,0-0.7,0.2-0.9,0.7v3.6h-0.8v-5.1h0.8l0,0.5c0.2-0.4,0.5-0.6,0.9-0.6
		c0.1,0,0.2,0,0.3,0.1L113.2,110.6z"/>
	<path class="st1" d="M116.5,113.6c0-0.2-0.1-0.3-0.2-0.5c-0.1-0.1-0.4-0.3-0.8-0.4c-0.4-0.2-0.8-0.3-0.9-0.5
		c-0.2-0.1-0.3-0.3-0.4-0.4s-0.1-0.4-0.1-0.6c0-0.4,0.2-0.8,0.5-1c0.3-0.3,0.7-0.4,1.2-0.4c0.5,0,0.9,0.1,1.2,0.4
		c0.3,0.3,0.4,0.7,0.4,1.1h-0.8c0-0.2-0.1-0.4-0.2-0.6c-0.2-0.2-0.3-0.2-0.6-0.2c-0.2,0-0.4,0.1-0.6,0.2c-0.1,0.1-0.2,0.3-0.2,0.5
		c0,0.2,0.1,0.3,0.2,0.4c0.1,0.1,0.3,0.2,0.7,0.4c0.6,0.2,1,0.5,1.3,0.7c0.2,0.2,0.3,0.5,0.3,0.9c0,0.4-0.2,0.8-0.5,1.1
		c-0.3,0.3-0.7,0.4-1.2,0.4c-0.5,0-1-0.2-1.3-0.5c-0.3-0.3-0.5-0.7-0.5-1.1h0.8c0,0.3,0.1,0.5,0.3,0.7c0.2,0.2,0.4,0.2,0.7,0.2
		c0.3,0,0.5-0.1,0.6-0.2C116.4,114,116.5,113.8,116.5,113.6z"/>
	<path class="st1" d="M119.2,110.4c0.3-0.4,0.7-0.6,1.2-0.6c0.9,0,1.3,0.6,1.4,1.8v3.4H121v-3.3c0-0.4-0.1-0.7-0.2-0.8
		c-0.1-0.2-0.3-0.2-0.6-0.2c-0.2,0-0.4,0.1-0.6,0.2c-0.2,0.1-0.3,0.3-0.4,0.5v3.7h-0.8v-7.2h0.8V110.4z"/>
	<path class="st1" d="M124,108.5c0,0.1,0,0.3-0.1,0.4c-0.1,0.1-0.2,0.1-0.4,0.1c-0.2,0-0.3,0-0.4-0.1c-0.1-0.1-0.1-0.2-0.1-0.4
		c0-0.1,0-0.3,0.1-0.4c0.1-0.1,0.2-0.1,0.4-0.1c0.2,0,0.3,0,0.4,0.1C123.9,108.2,124,108.4,124,108.5z M123.9,114.9h-0.8v-5.1h0.8
		V114.9z"/>
	<path class="st1" d="M128.9,112.6c0,0.8-0.1,1.4-0.4,1.8c-0.3,0.4-0.7,0.6-1.2,0.6c-0.5,0-0.9-0.2-1.2-0.6v2.4h-0.8v-7h0.7l0,0.6
		c0.3-0.4,0.7-0.7,1.2-0.7c0.6,0,1,0.2,1.2,0.6s0.4,1,0.4,1.7V112.6z M128,112.1c0-0.6-0.1-1-0.3-1.3c-0.2-0.3-0.5-0.4-0.8-0.4
		c-0.4,0-0.7,0.2-0.9,0.6v2.6c0.2,0.4,0.5,0.6,0.9,0.6c0.4,0,0.6-0.1,0.8-0.4c0.2-0.3,0.3-0.7,0.3-1.2V112.1z"/>
	<path class="st1" d="M132.4,113.6c0-0.2-0.1-0.3-0.2-0.5c-0.1-0.1-0.4-0.3-0.8-0.4c-0.4-0.2-0.8-0.3-0.9-0.5
		c-0.2-0.1-0.3-0.3-0.4-0.4c-0.1-0.2-0.1-0.4-0.1-0.6c0-0.4,0.2-0.8,0.5-1c0.3-0.3,0.7-0.4,1.2-0.4c0.5,0,0.9,0.1,1.2,0.4
		c0.3,0.3,0.4,0.7,0.4,1.1h-0.8c0-0.2-0.1-0.4-0.2-0.6c-0.2-0.2-0.3-0.2-0.6-0.2c-0.2,0-0.4,0.1-0.6,0.2c-0.1,0.1-0.2,0.3-0.2,0.5
		c0,0.2,0.1,0.3,0.2,0.4c0.1,0.1,0.3,0.2,0.7,0.4c0.6,0.2,1,0.5,1.3,0.7c0.2,0.2,0.3,0.5,0.3,0.9c0,0.4-0.2,0.8-0.5,1.1
		c-0.3,0.3-0.7,0.4-1.2,0.4c-0.5,0-1-0.2-1.3-0.5c-0.3-0.3-0.5-0.7-0.5-1.1h0.8c0,0.3,0.1,0.5,0.3,0.7c0.2,0.2,0.4,0.2,0.7,0.2
		c0.3,0,0.5-0.1,0.6-0.2C132.3,114,132.4,113.8,132.4,113.6z"/>
</g>
<g class="st7">
	<path class="st1" d="M27.2,123.2h-2.4v2.4h2.8v0.7H24v-6.8h3.6v0.7h-2.8v2.2h2.4V123.2z"/>
	<path class="st1" d="M29.5,126.4h-0.8v-7.2h0.8V126.4z"/>
	<path class="st1" d="M32.6,126.5c-0.6,0-1.1-0.2-1.4-0.6c-0.3-0.4-0.5-0.9-0.5-1.7v-0.6c0-0.8,0.2-1.3,0.5-1.8
		c0.3-0.4,0.8-0.6,1.4-0.6c0.6,0,1,0.2,1.3,0.6s0.4,1,0.4,1.8v0.5h-2.8v0.1c0,0.5,0.1,0.9,0.3,1.2c0.2,0.2,0.5,0.4,0.9,0.4
		c0.2,0,0.5,0,0.6-0.1c0.2-0.1,0.4-0.2,0.5-0.4l0.4,0.5C33.9,126.2,33.3,126.5,32.6,126.5z M32.5,121.9c-0.3,0-0.6,0.1-0.8,0.4
		c-0.2,0.2-0.3,0.6-0.3,1.1h2v-0.1c0-0.5-0.1-0.8-0.3-1C33,122,32.8,121.9,32.5,121.9z"/>
	<path class="st1" d="M36,121.3l0,0.5c0.3-0.4,0.7-0.6,1.2-0.6c0.6,0,1,0.2,1.2,0.7c0.3-0.5,0.8-0.7,1.3-0.7c0.9,0,1.4,0.6,1.4,1.7
		v3.4h-0.8v-3.3c0-0.4-0.1-0.6-0.2-0.8c-0.1-0.2-0.4-0.3-0.7-0.3c-0.2,0-0.5,0.1-0.6,0.3c-0.2,0.2-0.2,0.4-0.3,0.7v3.4h-0.8V123
		c0-0.7-0.3-1.1-0.9-1.1c-0.4,0-0.7,0.2-0.9,0.6v3.8h-0.8v-5.1H36z"/>
	<path class="st1" d="M44.3,126.5c-0.6,0-1.1-0.2-1.4-0.6c-0.3-0.4-0.5-0.9-0.5-1.7v-0.6c0-0.8,0.2-1.3,0.5-1.8
		c0.3-0.4,0.8-0.6,1.4-0.6c0.6,0,1,0.2,1.3,0.6s0.4,1,0.4,1.8v0.5h-2.8v0.1c0,0.5,0.1,0.9,0.3,1.2c0.2,0.2,0.5,0.4,0.9,0.4
		c0.2,0,0.5,0,0.6-0.1c0.2-0.1,0.4-0.2,0.5-0.4l0.4,0.5C45.6,126.2,45,126.5,44.3,126.5z M44.2,121.9c-0.3,0-0.6,0.1-0.8,0.4
		c-0.2,0.2-0.3,0.6-0.3,1.1h2v-0.1c0-0.5-0.1-0.8-0.3-1C44.7,122,44.5,121.9,44.2,121.9z"/>
	<path class="st1" d="M47.7,121.3l0,0.5c0.3-0.4,0.7-0.6,1.2-0.6c0.9,0,1.3,0.6,1.4,1.8v3.4h-0.8v-3.3c0-0.4-0.1-0.7-0.2-0.8
		c-0.1-0.2-0.3-0.2-0.6-0.2c-0.2,0-0.4,0.1-0.6,0.2c-0.2,0.1-0.3,0.3-0.4,0.5v3.7H47v-5.1H47.7z"/>
	<path class="st1" d="M52.7,120.1v1.2h0.8v0.7h-0.8v3.1c0,0.2,0,0.4,0.1,0.5c0.1,0.1,0.2,0.2,0.3,0.2c0.1,0,0.2,0,0.3-0.1l0,0.7
		c-0.2,0.1-0.4,0.1-0.6,0.1c-0.3,0-0.6-0.1-0.7-0.4c-0.2-0.2-0.3-0.6-0.3-1V122h-0.8v-0.7h0.8v-1.2H52.7z"/>
	<path class="st1" d="M57,126.4c-0.1-0.1-0.1-0.3-0.1-0.6c-0.3,0.4-0.7,0.6-1.1,0.6c-0.5,0-0.8-0.1-1.1-0.4
		c-0.3-0.3-0.4-0.6-0.4-1.1c0-0.5,0.2-0.9,0.5-1.2c0.3-0.3,0.8-0.5,1.4-0.5h0.6v-0.5c0-0.3-0.1-0.5-0.2-0.6
		c-0.1-0.1-0.3-0.2-0.6-0.2c-0.2,0-0.5,0.1-0.6,0.2c-0.2,0.1-0.2,0.3-0.2,0.6h-0.8c0-0.3,0.1-0.5,0.2-0.7c0.2-0.2,0.4-0.4,0.6-0.6
		s0.5-0.2,0.9-0.2c0.5,0,0.9,0.1,1.2,0.4s0.4,0.6,0.4,1.1v2.6c0,0.4,0.1,0.7,0.2,1v0.1H57z M55.9,125.7c0.2,0,0.4-0.1,0.6-0.2
		c0.2-0.1,0.3-0.3,0.4-0.4v-1.2h-0.5c-0.4,0-0.7,0.1-0.9,0.3c-0.2,0.2-0.3,0.4-0.3,0.7c0,0.3,0.1,0.5,0.2,0.6
		C55.4,125.7,55.6,125.7,55.9,125.7z"/>
	<path class="st1" d="M61.1,122.1c-0.1,0-0.2,0-0.4,0c-0.4,0-0.7,0.2-0.9,0.7v3.6H59v-5.1h0.8l0,0.5c0.2-0.4,0.5-0.6,0.9-0.6
		c0.1,0,0.2,0,0.3,0.1L61.1,122.1z"/>
	<path class="st1" d="M63.3,125l0.9-3.7h0.9l-1.7,5.8c-0.1,0.4-0.3,0.8-0.5,1c-0.2,0.2-0.5,0.3-0.8,0.3c-0.1,0-0.3,0-0.4-0.1v-0.7
		l0.2,0c0.2,0,0.4-0.1,0.6-0.2c0.1-0.1,0.2-0.3,0.3-0.6l0.2-0.6l-1.5-5h0.9L63.3,125z"/>
	<path class="st1" d="M70.7,126.4c-0.1-0.1-0.1-0.3-0.1-0.6c-0.3,0.4-0.7,0.6-1.1,0.6c-0.5,0-0.8-0.1-1.1-0.4
		c-0.3-0.3-0.4-0.6-0.4-1.1c0-0.5,0.2-0.9,0.5-1.2c0.3-0.3,0.8-0.5,1.4-0.5h0.6v-0.5c0-0.3-0.1-0.5-0.2-0.6
		c-0.1-0.1-0.3-0.2-0.6-0.2c-0.2,0-0.5,0.1-0.6,0.2s-0.2,0.3-0.2,0.6h-0.8c0-0.3,0.1-0.5,0.2-0.7c0.2-0.2,0.4-0.4,0.6-0.6
		s0.5-0.2,0.9-0.2c0.5,0,0.9,0.1,1.2,0.4s0.4,0.6,0.4,1.1v2.6c0,0.4,0.1,0.7,0.2,1v0.1H70.7z M69.6,125.7c0.2,0,0.4-0.1,0.6-0.2
		c0.2-0.1,0.3-0.3,0.4-0.4v-1.2h-0.5c-0.4,0-0.7,0.1-0.9,0.3c-0.2,0.2-0.3,0.4-0.3,0.7c0,0.3,0.1,0.5,0.2,0.6
		C69.1,125.7,69.3,125.7,69.6,125.7z"/>
	<path class="st1" d="M73.5,121.3l0,0.5c0.3-0.4,0.7-0.6,1.2-0.6c0.9,0,1.3,0.6,1.4,1.8v3.4h-0.8v-3.3c0-0.4-0.1-0.7-0.2-0.8
		c-0.1-0.2-0.3-0.2-0.6-0.2c-0.2,0-0.4,0.1-0.6,0.2c-0.2,0.1-0.3,0.3-0.4,0.5v3.7h-0.8v-5.1H73.5z"/>
	<path class="st1" d="M77.1,123.6c0-0.8,0.1-1.4,0.4-1.8c0.3-0.4,0.7-0.6,1.3-0.6c0.5,0,0.9,0.2,1.1,0.6v-2.6h0.8v7.2H80l0-0.5
		c-0.3,0.4-0.7,0.6-1.2,0.6c-0.5,0-0.9-0.2-1.2-0.6c-0.3-0.4-0.4-1-0.5-1.7V123.6z M78,124.1c0,0.6,0.1,1,0.3,1.2
		c0.2,0.3,0.4,0.4,0.8,0.4c0.4,0,0.7-0.2,0.9-0.6v-2.5c-0.2-0.4-0.5-0.6-0.9-0.6c-0.4,0-0.7,0.1-0.8,0.4c-0.2,0.3-0.3,0.7-0.3,1.2
		V124.1z"/>
	<path class="st1" d="M86.7,125.1c0-0.2-0.1-0.3-0.2-0.5c-0.1-0.1-0.4-0.3-0.8-0.4c-0.4-0.2-0.8-0.3-0.9-0.5
		c-0.2-0.1-0.3-0.3-0.4-0.4c-0.1-0.2-0.1-0.4-0.1-0.6c0-0.4,0.2-0.8,0.5-1c0.3-0.3,0.7-0.4,1.2-0.4c0.5,0,0.9,0.1,1.2,0.4
		c0.3,0.3,0.4,0.7,0.4,1.1h-0.8c0-0.2-0.1-0.4-0.2-0.6c-0.2-0.2-0.3-0.2-0.6-0.2c-0.2,0-0.4,0.1-0.6,0.2c-0.1,0.1-0.2,0.3-0.2,0.5
		c0,0.2,0.1,0.3,0.2,0.4c0.1,0.1,0.3,0.2,0.7,0.4c0.6,0.2,1,0.5,1.3,0.7c0.2,0.2,0.3,0.5,0.3,0.9c0,0.4-0.2,0.8-0.5,1.1
		c-0.3,0.3-0.7,0.4-1.2,0.4c-0.5,0-1-0.2-1.3-0.5c-0.3-0.3-0.5-0.7-0.5-1.1h0.8c0,0.3,0.1,0.5,0.3,0.7c0.2,0.2,0.4,0.2,0.7,0.2
		c0.3,0,0.5-0.1,0.6-0.2C86.6,125.5,86.7,125.3,86.7,125.1z"/>
	<path class="st1" d="M90.4,126.5c-0.6,0-1.1-0.2-1.4-0.6c-0.3-0.4-0.5-0.9-0.5-1.7v-0.6c0-0.8,0.2-1.3,0.5-1.8
		c0.3-0.4,0.8-0.6,1.4-0.6c0.6,0,1,0.2,1.3,0.6s0.4,1,0.4,1.8v0.5h-2.8v0.1c0,0.5,0.1,0.9,0.3,1.2c0.2,0.2,0.5,0.4,0.9,0.4
		c0.2,0,0.5,0,0.6-0.1c0.2-0.1,0.4-0.2,0.5-0.4l0.4,0.5C91.7,126.2,91.2,126.5,90.4,126.5z M90.3,121.9c-0.3,0-0.6,0.1-0.8,0.4
		c-0.2,0.2-0.3,0.6-0.3,1.1h2v-0.1c0-0.5-0.1-0.8-0.3-1C90.9,122,90.6,121.9,90.3,121.9z"/>
	<path class="st1" d="M94.9,125.8c0.3,0,0.5-0.1,0.7-0.3c0.2-0.2,0.3-0.4,0.3-0.7h0.8c0,0.5-0.2,0.9-0.5,1.2
		c-0.3,0.3-0.7,0.5-1.2,0.5c-0.6,0-1.1-0.2-1.4-0.6c-0.3-0.4-0.5-1-0.5-1.8v-0.6c0-0.8,0.2-1.3,0.5-1.7c0.3-0.4,0.8-0.6,1.4-0.6
		c0.5,0,0.9,0.2,1.2,0.5c0.3,0.3,0.5,0.8,0.5,1.3h-0.8c0-0.4-0.1-0.7-0.3-0.8c-0.2-0.2-0.4-0.3-0.7-0.3c-0.4,0-0.6,0.1-0.8,0.4
		c-0.2,0.2-0.3,0.6-0.3,1.2v0.6c0,0.6,0.1,1,0.3,1.3C94.2,125.6,94.5,125.8,94.9,125.8z"/>
	<path class="st1" d="M97.4,123.6c0-0.7,0.2-1.3,0.5-1.7c0.4-0.4,0.8-0.6,1.4-0.6s1.1,0.2,1.4,0.6c0.4,0.4,0.5,1,0.6,1.7v0.5
		c0,0.7-0.2,1.3-0.5,1.7c-0.4,0.4-0.8,0.6-1.4,0.6c-0.6,0-1.1-0.2-1.4-0.6c-0.4-0.4-0.5-1-0.5-1.7V123.6z M98.2,124.1
		c0,0.5,0.1,0.9,0.3,1.2c0.2,0.3,0.5,0.4,0.8,0.4c0.7,0,1.1-0.5,1.1-1.6v-0.6c0-0.5-0.1-0.9-0.3-1.2c-0.2-0.3-0.5-0.5-0.8-0.5
		c-0.3,0-0.6,0.2-0.8,0.5c-0.2,0.3-0.3,0.7-0.3,1.2V124.1z"/>
	<path class="st1" d="M103.1,121.3l0,0.5c0.3-0.4,0.7-0.6,1.2-0.6c0.9,0,1.3,0.6,1.4,1.8v3.4h-0.8v-3.3c0-0.4-0.1-0.7-0.2-0.8
		c-0.1-0.2-0.3-0.2-0.6-0.2c-0.2,0-0.4,0.1-0.6,0.2c-0.2,0.1-0.3,0.3-0.4,0.5v3.7h-0.8v-5.1H103.1z"/>
	<path class="st1" d="M106.8,123.6c0-0.8,0.1-1.4,0.4-1.8c0.3-0.4,0.7-0.6,1.3-0.6c0.5,0,0.9,0.2,1.1,0.6v-2.6h0.8v7.2h-0.8l0-0.5
		c-0.3,0.4-0.7,0.6-1.2,0.6c-0.5,0-0.9-0.2-1.2-0.6c-0.3-0.4-0.4-1-0.5-1.7V123.6z M107.6,124.1c0,0.6,0.1,1,0.3,1.2
		c0.2,0.3,0.4,0.4,0.8,0.4c0.4,0,0.7-0.2,0.9-0.6v-2.5c-0.2-0.4-0.5-0.6-0.9-0.6c-0.4,0-0.7,0.1-0.8,0.4c-0.2,0.3-0.3,0.7-0.3,1.2
		V124.1z"/>
	<path class="st1" d="M114.3,126.4c-0.1-0.1-0.1-0.3-0.1-0.6c-0.3,0.4-0.7,0.6-1.1,0.6c-0.5,0-0.8-0.1-1.1-0.4
		c-0.3-0.3-0.4-0.6-0.4-1.1c0-0.5,0.2-0.9,0.5-1.2c0.3-0.3,0.8-0.5,1.4-0.5h0.6v-0.5c0-0.3-0.1-0.5-0.2-0.6
		c-0.1-0.1-0.3-0.2-0.6-0.2c-0.2,0-0.5,0.1-0.6,0.2s-0.2,0.3-0.2,0.6h-0.8c0-0.3,0.1-0.5,0.2-0.7s0.4-0.4,0.6-0.6
		c0.3-0.1,0.5-0.2,0.9-0.2c0.5,0,0.9,0.1,1.2,0.4c0.3,0.3,0.4,0.6,0.4,1.1v2.6c0,0.4,0.1,0.7,0.2,1v0.1H114.3z M113.2,125.7
		c0.2,0,0.4-0.1,0.6-0.2c0.2-0.1,0.3-0.3,0.4-0.4v-1.2h-0.5c-0.4,0-0.7,0.1-0.9,0.3c-0.2,0.2-0.3,0.4-0.3,0.7c0,0.3,0.1,0.5,0.2,0.6
		C112.8,125.7,112.9,125.7,113.2,125.7z"/>
	<path class="st1" d="M118.4,122.1c-0.1,0-0.2,0-0.4,0c-0.4,0-0.7,0.2-0.9,0.7v3.6h-0.8v-5.1h0.8l0,0.5c0.2-0.4,0.5-0.6,0.9-0.6
		c0.1,0,0.2,0,0.3,0.1L118.4,122.1z"/>
	<path class="st1" d="M120.6,125l0.9-3.7h0.9l-1.7,5.8c-0.1,0.4-0.3,0.8-0.5,1c-0.2,0.2-0.5,0.3-0.8,0.3c-0.1,0-0.3,0-0.4-0.1v-0.7
		l0.2,0c0.2,0,0.4-0.1,0.6-0.2c0.1-0.1,0.2-0.3,0.3-0.6l0.2-0.6l-1.5-5h0.9L120.6,125z"/>
	<path class="st1" d="M127.9,125.1c0-0.2-0.1-0.3-0.2-0.5c-0.1-0.1-0.4-0.3-0.8-0.4c-0.4-0.2-0.8-0.3-0.9-0.5
		c-0.2-0.1-0.3-0.3-0.4-0.4c-0.1-0.2-0.1-0.4-0.1-0.6c0-0.4,0.2-0.8,0.5-1c0.3-0.3,0.7-0.4,1.2-0.4c0.5,0,0.9,0.1,1.2,0.4
		c0.3,0.3,0.4,0.7,0.4,1.1h-0.8c0-0.2-0.1-0.4-0.2-0.6c-0.2-0.2-0.3-0.2-0.6-0.2c-0.2,0-0.4,0.1-0.6,0.2c-0.1,0.1-0.2,0.3-0.2,0.5
		c0,0.2,0.1,0.3,0.2,0.4c0.1,0.1,0.3,0.2,0.7,0.4c0.6,0.2,1,0.5,1.3,0.7c0.2,0.2,0.3,0.5,0.3,0.9c0,0.4-0.2,0.8-0.5,1.1
		c-0.3,0.3-0.7,0.4-1.2,0.4c-0.5,0-1-0.2-1.3-0.5c-0.3-0.3-0.5-0.7-0.5-1.1h0.8c0,0.3,0.1,0.5,0.3,0.7c0.2,0.2,0.4,0.2,0.7,0.2
		c0.3,0,0.5-0.1,0.6-0.2S127.9,125.3,127.9,125.1z"/>
	<path class="st1" d="M131.5,125.8c0.3,0,0.5-0.1,0.7-0.3c0.2-0.2,0.3-0.4,0.3-0.7h0.8c0,0.5-0.2,0.9-0.5,1.2s-0.7,0.5-1.2,0.5
		c-0.6,0-1.1-0.2-1.4-0.6c-0.3-0.4-0.5-1-0.5-1.8v-0.6c0-0.8,0.2-1.3,0.5-1.7c0.3-0.4,0.8-0.6,1.4-0.6c0.5,0,0.9,0.2,1.2,0.5
		c0.3,0.3,0.5,0.8,0.5,1.3h-0.8c0-0.4-0.1-0.7-0.3-0.8c-0.2-0.2-0.4-0.3-0.7-0.3c-0.4,0-0.6,0.1-0.8,0.4c-0.2,0.2-0.3,0.6-0.3,1.2
		v0.6c0,0.6,0.1,1,0.3,1.3C130.9,125.6,131.1,125.8,131.5,125.8z"/>
	<path class="st1" d="M135,121.8c0.3-0.4,0.7-0.6,1.2-0.6c0.9,0,1.3,0.6,1.4,1.8v3.4h-0.8v-3.3c0-0.4-0.1-0.7-0.2-0.8
		c-0.1-0.2-0.3-0.2-0.6-0.2c-0.2,0-0.4,0.1-0.6,0.2c-0.2,0.1-0.3,0.3-0.4,0.5v3.7h-0.8v-7.2h0.8V121.8z"/>
	<path class="st1" d="M138.6,123.6c0-0.7,0.2-1.3,0.5-1.7c0.4-0.4,0.8-0.6,1.4-0.6c0.6,0,1.1,0.2,1.4,0.6c0.4,0.4,0.5,1,0.6,1.7v0.5
		c0,0.7-0.2,1.3-0.5,1.7c-0.4,0.4-0.8,0.6-1.4,0.6c-0.6,0-1.1-0.2-1.4-0.6s-0.5-1-0.5-1.7V123.6z M139.5,124.1
		c0,0.5,0.1,0.9,0.3,1.2c0.2,0.3,0.5,0.4,0.8,0.4c0.7,0,1.1-0.5,1.1-1.6v-0.6c0-0.5-0.1-0.9-0.3-1.2c-0.2-0.3-0.5-0.5-0.8-0.5
		c-0.3,0-0.6,0.2-0.8,0.5c-0.2,0.3-0.3,0.7-0.3,1.2V124.1z"/>
	<path class="st1" d="M143.4,123.6c0-0.7,0.2-1.3,0.5-1.7c0.4-0.4,0.8-0.6,1.4-0.6s1.1,0.2,1.4,0.6c0.4,0.4,0.5,1,0.6,1.7v0.5
		c0,0.7-0.2,1.3-0.5,1.7c-0.4,0.4-0.8,0.6-1.4,0.6c-0.6,0-1.1-0.2-1.4-0.6s-0.5-1-0.5-1.7V123.6z M144.3,124.1
		c0,0.5,0.1,0.9,0.3,1.2c0.2,0.3,0.5,0.4,0.8,0.4c0.7,0,1.1-0.5,1.1-1.6v-0.6c0-0.5-0.1-0.9-0.3-1.2c-0.2-0.3-0.5-0.5-0.8-0.5
		c-0.3,0-0.6,0.2-0.8,0.5c-0.2,0.3-0.3,0.7-0.3,1.2V124.1z"/>
	<path class="st1" d="M149.3,126.4h-0.8v-7.2h0.8V126.4z"/>
</g>
<g class="st7">
	<path class="st2" d="M151.3,125.9c0-0.1,0-0.1-0.1-0.2c-0.1-0.1-0.2-0.1-0.3-0.2c-0.2-0.1-0.3-0.1-0.4-0.2
		c-0.1-0.1-0.1-0.1-0.2-0.2c0-0.1-0.1-0.1-0.1-0.2c0-0.2,0.1-0.3,0.2-0.4c0.1-0.1,0.3-0.2,0.5-0.2c0.2,0,0.4,0.1,0.5,0.2
		c0.1,0.1,0.2,0.3,0.2,0.5h-0.3c0-0.1,0-0.2-0.1-0.2c-0.1-0.1-0.1-0.1-0.2-0.1c-0.1,0-0.2,0-0.2,0.1s-0.1,0.1-0.1,0.2
		c0,0.1,0,0.1,0.1,0.2c0,0,0.1,0.1,0.3,0.2c0.3,0.1,0.4,0.2,0.5,0.3c0.1,0.1,0.1,0.2,0.1,0.4c0,0.2-0.1,0.3-0.2,0.4
		c-0.1,0.1-0.3,0.2-0.5,0.2c-0.2,0-0.4-0.1-0.5-0.2c-0.1-0.1-0.2-0.3-0.2-0.5h0.3c0,0.1,0,0.2,0.1,0.3c0.1,0.1,0.2,0.1,0.3,0.1
		c0.1,0,0.2,0,0.3-0.1C151.2,126,151.3,125.9,151.3,125.9z"/>
</g>
</svg>
