<?xml version="1.0" encoding="utf-8"?>
<!-- Generator: Adobe Illustrator 27.0.1, SVG Export Plug-In . SVG Version: 6.00 Build 0)  -->
<svg version="1.1" id="Layer_1" xmlns="http://www.w3.org/2000/svg" xmlns:xlink="http://www.w3.org/1999/xlink" x="0px" y="0px"
	 viewBox="0 0 175 190" style="enable-background:new 0 0 175 190;" xml:space="preserve">
<style type="text/css">
	.st0{fill:#A5A49F;}
	.st1{fill:#FFFFFF;}
	.st2{fill:#524C4C;}
	.st3{fill:#828A43;}
	.st4{fill:#B3BD80;}
	.st5{fill:#677432;}
	.st6{fill:#7F7474;}
	.st7{enable-background:new    ;}
</style>
<polygon class="st0" points="162.5,138.3 87.5,181.6 12.5,138.3 12.5,51.7 87.5,8.4 162.5,51.7 "/>
<g>
	<path class="st2" d="M108.1,36.5c-0.8,0.6-1.7,1.3-2.6,2c1,1.7,2,3.3,2.8,5c2.8,6.3,4.3,12.8,3.5,19.8c-0.3,2.5-0.4,5-0.8,7.4
		c-0.7,4.7-3.2,8.6-6.4,12c-1,1.1-2,2.1-3,3.2c-1,1.2-1,1.9-0.1,3.1c0.9,1.2,1.8,2.5,2.4,3.8c3.1,6.6,6,13.3,9,20
		c1.7,3.7,3.3,7.5,4.9,11.3c0.2,0.4,0.7,0.8,1.1,0.9c3.1,0.9,5.5,2.7,7.6,5.1c0.4,0.4,0.8,0.9,0.9,1.5c0.3,1.7,1.5,2,3,2.2
		c1.3,0.1,2.5,0.4,3.8,0.6c1.3,0.2,2.1,1.2,1.8,2.5c-0.3,1.2-0.7,2.3-1.2,3.4c-2,4.2-4.1,8.4-6.6,12.3c-3.7,5.6-8,10.7-13.6,14.7
		c-2.9,2-5.7,4.3-8.5,6.4c-3,2.3-6.2,3.9-9.9,4.9c-3.1,0.8-6.1,1.8-9.2,2.8c-3,1-6,0.9-8.9-0.1c-6.9-2.2-13.4-5.2-19.6-8.9
		c-1.7-1-3.1-2.3-4.7-3.5c-0.6,1.5-1.1,3-1.7,4.4c-0.6,1.4-1.2,2.8-2,4.2c-1.2,2.1-3.1,2.2-4.3,0.1c-1.5-2.6-2.8-5.3-4.2-8
		c-3.7-7-7.3-13.9-11-20.9c-0.5-0.9-0.9-1.8-1.2-2.7c-0.4-1.2-0.3-2.5,0.3-3.6c3.5-6.3,7.1-12.6,10.6-18.9c0.9-1.6,1.8-3.3,2.5-5
		c3-6.5,6.7-12.6,10.8-18.4c1.1-1.5,2.6-2.7,3.9-4.1c0.5-0.5,1-1.1,1.3-1.8c1.6-3.4,3.6-6.6,6.2-9.3c0.1-0.1,0.3-0.2,0.3-0.3
		c0.4-2.7,2.2-4.6,3.7-6.6c1-1.3,1.4-2.3,0.5-3.9c-0.9-1.5-1.4-3.2-1.9-4.9c-0.4-1.2-1.1-2-2.1-2.6c-2.6-1.6-4.3-3.9-5.3-6.8
		c-0.4-1-0.3-2,0.3-2.9c0.8-1.3,1.3-2.8,3-3.2c0.5-0.1,1-0.2,1.5-0.3c0.3-0.1,0.6-0.3,0.8-0.5c-1.5-0.9-2.7-1.7-4-2.4
		c-7.7-4.8-15.3-9.6-23-14.4c-1.6-1-1.6-1.7,0-2.7c3.3-2.1,6.7-4.2,10.1-6.2C61.6,19.5,74.3,12.1,87,4.6c0.8-0.5,1.3-0.4,2,0.2
		c9.6,8.3,18.7,17.2,27.4,26.4c0.2,0.2,0.3,0.3,0.5,0.6c-1.6,0.8-3.1,1.5-4.6,2.3C110.9,34.9,109.5,35.7,108.1,36.5L108.1,36.5z
		 M103.7,96.8c-1.5,1.5-2.9,2.8-4.2,4.2c-0.6,0.7-1.1,0.9-1.9,0.4c-0.7-0.5-1.4-1-2.2-1.4c-3.9-2.2-7.7-4.4-11.6-6.5
		c-1.1-0.6-2.3-1.2-3.6-1.3c-2-0.2-4.2-0.3-6.2,0c-2.3,0.3-4.7,0.9-6.9,1.7c-4,1.5-7.3,4.2-9.7,7.6c-3.4,4.7-6.6,9.5-9.6,14.4
		c-3.6,5.9-7,12-10.4,18c-1.7,3.1-3.3,6.2-4.9,9.3c-0.2,0.4-0.1,1.1,0.1,1.5c0.9,1.7,1.8,3.4,2.8,5.1c3.1,5.6,6.2,11.2,9.3,16.8
		c1.1,2,2.2,4,3.3,6c0.2,0.3,0.3,0.6,0.6,1c0.3-1.2,0.5-2.1,0.7-3.1c2-9.8,4.6-19.4,8.6-28.6c3.6-8.4,7.4-16.7,13.2-24
		c4.9-6.2,10.3-11.7,18-14.3c3.2-1.1,6.4-1.3,9.5,0.3c1.7,0.9,3.4,1.7,5,2.6c1,0.5,1.9,1.1,2.8,1.7c0.7,0.5,1.2,1,1.8,1.6
		c0.1-0.1,0.1-0.1,0.2-0.2C106.9,105.5,105.4,101.3,103.7,96.8L103.7,96.8z M69.7,67.1C69.4,67,69.2,67,69,66.9
		c1.2,2.5,2.4,5,3.6,7.5c0.7,1.5,2,2.3,3.4,2.9c3.1,1.5,6.3,3,9.5,4.4c3.9,1.7,7.8,3.3,11.7,5c0.6,0.3,1.1,0.2,1.5-0.3
		c0.8-0.8,1.6-1.6,2.4-2.4c2.4-2.4,4.4-5.2,5.9-8.3c2-4.1,1.2-8.6,1.5-12.9c-2.5,0.2-4.8,0.3-7.1,0.5c-1.4,0.2-1.9,0-2.6-1.2
		c-0.3-0.5-0.4-1-0.7-1.5c-0.5-1-0.9-2-1.4-3.2c-1,1.8-1.8,3.3-2.8,4.9c-0.3,0.5-0.7,1-1.2,1.2c-1.1,0.3-2.3,0.5-3.5,0.5
		c-2.2,0.1-4.4,0.1-6.6,0.2c-1.2,0.1-1.9-0.3-2.5-1.4c-1.1-2.1-2.2-4.1-3.3-6.2c-0.1-0.3-0.4-0.6-0.6-0.6c-0.6-0.2-1.2-0.2-1.3,0.7
		c-0.4,2.3-0.7,4.6-1.2,6.9c-0.1,0.5-0.7,1.2-1.1,1.3c-0.4,0.1-1.1-0.4-1.4-0.9c-1.4-2.3-2.6-4.7-4-6.9c-0.4-0.6-1.3-1.2-2.1-1.3
		c-0.6,0-1.3,0.6-1.8,1.2c-0.8,1-0.2,2.2,0.1,3.2c0.9,2.5,2.8,3.9,5.3,4.7c0.4,0.1,1,0.3,1.2,0.6C70.1,66.1,69.8,66.6,69.7,67.1
		L69.7,67.1z M108,52.7c-0.2-0.8-0.3-1.7-0.7-2.6c-1.4-3.5-2.7-7.1-4.3-10.6c-0.3-0.7-1.6-1.8-2.1-1.6c-2.2,0.7-4.3,1.7-5.8,3.5
		c-0.3,0.3-0.8,0.6-1.2,0.6c-1-0.1-2-0.3-3-0.6c-3.2-0.9-6.4-1-9.7-0.8c-1,0.1-1.7,0.5-2.1,1.6c-0.9,3.2-2,6.4-3,9.7
		c-0.1,0.3-0.2,0.7-0.3,1.2C86.6,53.8,97.3,54,108,52.7L108,52.7z M108.9,133.9c0.1,0.1,0.2,0.1,0.3,0.2c-0.8,1.9-1.3,4-2.4,5.8
		c-1.2,1.9-2.8,3.4-4.3,5.1c-0.4,0.5-0.9,0.8-1.2,1.3c-0.4,0.6-0.2,1.1,0.5,1.3c1.2,0.3,2.3,0.6,3.5,0.8c2,0.3,3.9,0.3,5.9,0.6
		c1.8,0.3,3.4-0.1,4.8-1.3c2.2-1.9,4.4-3.8,6.6-5.6c2-1.7,2.8-4,3.2-6.4c0.2-1.1-0.1-2.5-0.7-3.5c-2.1-3.3-5.1-5.3-9.1-5.4
		c-0.9,0-1.8,0.2-2.7,0.5c-3.2,1-5.5,3.5-8,5.5c-0.6,0.5-1.1,0.9-0.6,1.7c0.5,0.7,1.2,0.7,2,0.3
		C107.2,134.5,108.1,134.2,108.9,133.9L108.9,133.9z M68.2,84c2.3,0.9,4.3,1.6,6.2,2.4c1.8,0.7,3.6,1.5,5.3,2.3
		c2,0.9,4.1,1.9,6.1,2.8c2.3,1.1,4.6,2.1,6.9,3.2c1.4,0.7,2.7,1.6,4,2.4c0.4,0.3,0.8,0.4,1.2-0.1c0.9-1.1,1.7-2.3,2.8-3.2
		c0.9-0.8,0.7-1.5,0.3-2.2c-0.5-1-1.1-1.8-1.8-2.9c-0.4,0.2-0.7,0.4-1,0.6c-0.5,0.4-1.1,0.8-1.8,0.6c-2.3-0.8-4.5-1.6-6.8-2.5
		c-1.3-0.5-2.5-1.2-3.7-1.8c-2.6-1.3-5.2-2.5-7.8-3.8c-1.8-0.9-3.6-1.9-5.4-2.8c-0.3-0.1-0.9,0-1.1,0.2C70.5,80.8,69.3,82.4,68.2,84
		L68.2,84z M102.5,30.4c0.1-0.1,0.2-0.2,0.4-0.3c-0.5-0.6-0.9-1.2-1.4-1.7c-1.5-1.2-3-2.5-4.6-3.6c-2.4-1.6-4.7-3.2-7.7-3.8
		c-2.2-0.4-4.2-0.5-6.4-0.2c-2.6,0.3-5.2,0.9-7.3,2.4c-3,2-6,4.1-8.7,6.5C63,33,60.5,37.2,59.2,42c-0.2,0.7-0.2,1.5-0.2,2.3
		c0,0.2,0.3,0.4,0.5,0.7c0.6-1.1,1.2-2.1,1.7-3.1c3.5-7.3,9.7-11.6,16.6-14.9C81,25.4,84.4,25,88,25c3.7,0,7.1,0.5,10.3,2.5
		C99.7,28.4,101.1,29.4,102.5,30.4L102.5,30.4z M80.4,56.4c0.7,1.5,1.3,2.8,2,4.2c0.2,0.3,0.6,0.6,1,0.6c2.5,0,5,0,7.4-0.1
		c0.2,0,0.6-0.2,0.7-0.4c0.7-1.2,1.4-2.5,2.2-3.9C89.2,56.7,84.9,56.5,80.4,56.4L80.4,56.4z M99.4,56.6c0.5,1.4,1,2.6,1.5,3.8
		c0.1,0.3,0.5,0.7,0.8,0.7c2.3-0.2,4.6-0.5,7.1-0.9c-0.1-1.5-0.1-2.9-0.1-4.4C105.5,56.1,102.5,56.3,99.4,56.6L99.4,56.6z
		 M74.1,89.4l0-0.4c-0.2-0.2-0.4-0.3-0.7-0.4c-1.5-0.7-3.1-1.4-4.6-2c-2.3-1-2-1.1-3.4,0.7c-0.2,0.3-0.5,0.5-0.7,0.7
		c-1.1,1.5-2.1,3.1-3.2,4.6c0.1,0.1,0.1,0.2,0.2,0.3C65.6,91.2,69.6,89.4,74.1,89.4L74.1,89.4z M68.5,52.7c1.4,0,2.9,0.1,4.4,0.1
		c0.2,0,0.6-0.4,0.6-0.7c0.5-1.7,0.9-3.4,1.4-5.2c0.2-0.8,0.3-1.7,0.5-2.6c-2,1.4-3.7,2.9-5.5,4.3C68.5,49.7,67.9,50.9,68.5,52.7
		L68.5,52.7z M71.6,60.6c0.3-1.7,0.5-3.2,0.8-4.7c-1.2,0-2.3-0.1-3.6-0.1C69.7,57.5,70.6,58.9,71.6,60.6z"/>
	<path class="st5" d="M108.1,36.5c1.4-0.8,2.7-1.6,4.1-2.4c0.7,3.4,1.5,6.9,2.1,10.3c0.8,4.5,1.6,8.9,2.1,13.4
		c0.6,5.5,1,10.9,1.4,16.4c0.2,2.9,0.9,5.8,1.6,8.6c0.6,2.1-1.5,4.4-3.6,4c-0.6-0.1-1.1-0.3-1-1.1c0.4-3.8,0.2-7.5-0.2-11.3
		c-0.3-2.7-0.2-5.5-0.5-8.2c-0.3-2.8-0.8-5.6-1.2-8.4c-0.3-2.2-0.6-4.4-1-6.5c-0.5-2.6-1.2-5.2-1.9-7.8
		C109.4,41.3,108.8,38.9,108.1,36.5L108.1,36.5z"/>
	<path class="st4" d="M103.7,96.8c1.7,4.6,3.2,8.7,4.7,12.9c-0.1,0.1-0.1,0.1-0.2,0.2c-0.6-0.5-1.2-1.1-1.8-1.6
		c-0.9-0.6-1.8-1.2-2.8-1.7c-1.7-0.9-3.4-1.8-5-2.6c-3.1-1.6-6.3-1.4-9.5-0.3c-7.7,2.6-13.1,8.1-18,14.3c-5.7,7.3-9.5,15.6-13.2,24
		c-4,9.2-6.6,18.8-8.6,28.6c-0.2,1-0.4,1.9-0.7,3.1c-0.3-0.5-0.5-0.7-0.6-1c-1.1-2-2.2-4-3.3-6c-3.1-5.6-6.2-11.2-9.3-16.8
		c-0.9-1.7-1.9-3.4-2.8-5.1c-0.2-0.4-0.3-1.1-0.1-1.5c1.6-3.1,3.2-6.3,4.9-9.3c3.4-6,6.8-12.1,10.4-18c3-4.9,6.2-9.8,9.6-14.4
		c2.5-3.4,5.7-6.1,9.7-7.6c2.2-0.8,4.6-1.4,6.9-1.7c2-0.3,4.2-0.2,6.2,0c1.2,0.1,2.5,0.7,3.6,1.3c3.9,2.1,7.8,4.3,11.6,6.5
		c0.8,0.4,1.5,1,2.2,1.4c0.8,0.5,1.3,0.2,1.9-0.4C100.8,99.5,102.2,98.3,103.7,96.8L103.7,96.8z"/>
	<path class="st6" d="M69.7,67.1c0.1-0.5,0.4-1,0.2-1.3c-0.2-0.3-0.8-0.5-1.2-0.6c-2.5-0.8-4.4-2.2-5.3-4.7c-0.4-1-1-2.2-0.1-3.2
		c0.4-0.5,1.2-1.2,1.8-1.2c0.7,0.1,1.7,0.6,2.1,1.3c1.4,2.2,2.6,4.6,4,6.9c0.3,0.4,1,1,1.4,0.9c0.4-0.1,1-0.8,1.1-1.3
		c0.5-2.3,0.8-4.6,1.2-6.9c0.1-0.9,0.7-1,1.3-0.7c0.3,0.1,0.5,0.4,0.6,0.6c1.1,2,2.3,4.1,3.3,6.2c0.5,1,1.3,1.4,2.5,1.4
		c2.2-0.2,4.4-0.1,6.6-0.2c1.2-0.1,2.4-0.2,3.5-0.5c0.5-0.1,0.9-0.7,1.2-1.2c0.9-1.5,1.8-3.1,2.8-4.9c0.5,1.2,1,2.2,1.4,3.2
		c0.2,0.5,0.4,1,0.7,1.5c0.6,1.2,1.1,1.4,2.6,1.2c2.3-0.2,4.7-0.3,7.1-0.5c-0.2,4.3,0.6,8.8-1.5,12.9c-1.5,3-3.5,5.8-5.9,8.3
		c-0.8,0.8-1.6,1.6-2.4,2.4c-0.5,0.5-0.9,0.6-1.5,0.3c-3.9-1.7-7.8-3.3-11.7-5c-3.2-1.4-6.3-2.9-9.5-4.4c-1.4-0.7-2.7-1.4-3.4-2.9
		c-1.2-2.5-2.4-5-3.6-7.5C69.2,67,69.4,67,69.7,67.1L69.7,67.1z M99.6,71.5c1.7-0.8,2.7-1.9,3.2-3.5c0.1-0.3-0.2-0.9-0.5-1.2
		c-0.2-0.2-0.8,0-1.1,0.2c-1.1,0.9-2,1.9-3,2.8c-0.5,0.5-0.4,1,0.1,1.2C98.7,71.4,99.2,71.4,99.6,71.5L99.6,71.5z"/>
	<path class="st6" d="M108,52.7c-10.7,1.2-21.3,1-32.1,0.4c0.1-0.5,0.2-0.8,0.3-1.2c1-3.2,2-6.4,3-9.7c0.3-1.1,1-1.5,2.1-1.6
		c3.3-0.2,6.5-0.1,9.7,0.8c1,0.3,2,0.5,3,0.6c0.4,0,0.9-0.3,1.2-0.6c1.6-1.8,3.7-2.8,5.8-3.5c0.5-0.2,1.8,0.9,2.1,1.6
		c1.5,3.5,2.9,7,4.3,10.6C107.6,51,107.8,51.9,108,52.7L108,52.7z"/>
	<path class="st6" d="M108.9,133.9c-0.8,0.3-1.7,0.7-2.5,1.1c-0.7,0.3-1.5,0.4-2-0.3c-0.5-0.8,0-1.3,0.6-1.7c2.5-2.1,4.8-4.5,8-5.5
		c0.9-0.3,1.8-0.5,2.7-0.5c4.1,0,7,2.1,9.1,5.4c0.6,0.9,0.9,2.3,0.7,3.5c-0.3,2.4-1.1,4.8-3.2,6.4c-2.2,1.8-4.4,3.7-6.6,5.6
		c-1.4,1.2-2.9,1.6-4.8,1.3c-1.9-0.3-3.9-0.4-5.9-0.6c-1.2-0.2-2.3-0.4-3.5-0.8c-0.7-0.2-0.9-0.7-0.5-1.3c0.3-0.5,0.8-0.9,1.2-1.3
		c1.5-1.7,3.1-3.2,4.3-5.1c1.1-1.8,1.6-3.8,2.4-5.8C109.1,134,109,133.9,108.9,133.9L108.9,133.9z"/>
	<path class="st5" d="M68.2,84c1.2-1.6,2.3-3.2,3.5-4.7c0.2-0.2,0.8-0.3,1.1-0.2c1.8,0.9,3.6,1.9,5.4,2.8c2.6,1.3,5.2,2.5,7.8,3.8
		c1.2,0.6,2.5,1.3,3.7,1.8c2.2,0.9,4.5,1.7,6.8,2.5c0.7,0.3,1.3-0.2,1.8-0.6c0.3-0.2,0.6-0.4,1-0.6c0.6,1,1.3,1.9,1.8,2.9
		c0.4,0.7,0.6,1.5-0.3,2.2c-1,0.9-1.9,2.1-2.8,3.2c-0.4,0.5-0.8,0.4-1.2,0.1c-1.3-0.8-2.6-1.7-4-2.4c-2.3-1.1-4.6-2.1-6.9-3.2
		c-2-0.9-4.1-1.9-6.1-2.8c-1.8-0.8-3.5-1.6-5.3-2.3C72.4,85.7,70.4,84.9,68.2,84L68.2,84z"/>
	<path class="st1" d="M102.5,30.4c-1.4-1-2.8-2-4.2-2.9c-3.1-2-6.6-2.5-10.3-2.5c-3.5,0-7,0.4-10.1,1.9c-7,3.4-13.1,7.7-16.6,14.9
		c-0.5,1-1,1.9-1.7,3.1c-0.2-0.3-0.5-0.5-0.5-0.7c0-0.8,0-1.6,0.2-2.3c1.4-4.8,3.8-9,7.6-12.3c2.7-2.4,5.7-4.5,8.7-6.5
		c2.2-1.4,4.7-2,7.3-2.4c2.1-0.3,4.2-0.2,6.4,0.2c3,0.5,5.4,2.1,7.7,3.8c1.6,1.1,3.1,2.3,4.6,3.6c0.6,0.5,1,1.1,1.4,1.7
		C102.7,30.2,102.6,30.3,102.5,30.4L102.5,30.4z"/>
	<path class="st1" d="M80.4,56.4c4.5,0.1,8.8,0.2,13.3,0.4c-0.8,1.4-1.5,2.7-2.2,3.9c-0.1,0.2-0.5,0.4-0.7,0.4
		c-2.5,0.1-5,0.1-7.4,0.1c-0.3,0-0.8-0.3-1-0.6C81.7,59.3,81.1,57.9,80.4,56.4L80.4,56.4z"/>
	<path class="st1" d="M99.4,56.6c3.1-0.3,6-0.5,9.2-0.8c0.1,1.5,0.1,2.9,0.1,4.4c-2.5,0.3-4.8,0.6-7.1,0.9c-0.2,0-0.7-0.4-0.8-0.7
		C100.4,59.2,100,58,99.4,56.6L99.4,56.6z"/>
	<path class="st5" d="M74.1,89.4c-4.5,0-8.4,1.8-12.4,3.5c-0.1-0.1-0.1-0.2-0.2-0.3c1.1-1.5,2.1-3.1,3.2-4.6
		c0.2-0.3,0.5-0.5,0.7-0.7c1.4-1.9,1.1-1.7,3.4-0.7c1.6,0.7,3.1,1.3,4.6,2c0.2,0.1,0.5,0.3,0.7,0.4L74.1,89.4L74.1,89.4z"/>
	<path class="st1" d="M68.5,52.7c-0.5-1.8,0-3,1.4-4.1c1.8-1.4,3.5-2.9,5.5-4.3c-0.2,0.9-0.3,1.7-0.5,2.6c-0.4,1.7-0.9,3.5-1.4,5.2
		c-0.1,0.3-0.4,0.7-0.6,0.7C71.4,52.9,69.9,52.8,68.5,52.7L68.5,52.7z"/>
	<path class="st1" d="M71.6,60.6c-1-1.7-1.8-3.1-2.8-4.8c1.3,0,2.4,0.1,3.6,0.1C72.1,57.5,71.9,58.9,71.6,60.6z"/>
	<path class="st2" d="M99.6,71.5c-0.4-0.1-0.9-0.1-1.3-0.4c-0.5-0.3-0.7-0.7-0.1-1.2c1-0.9,2-1.9,3-2.8c0.3-0.2,0.9-0.4,1.1-0.2
		c0.3,0.2,0.6,0.9,0.5,1.2C102.2,69.6,101.3,70.8,99.6,71.5L99.6,71.5z"/>
</g>
</svg>
