<?xml version="1.0" encoding="utf-8"?>
<!-- Generator: Adobe Illustrator 27.0.1, SVG Export Plug-In . SVG Version: 6.00 Build 0)  -->
<svg version="1.1" id="Layer_1" xmlns="http://www.w3.org/2000/svg" xmlns:xlink="http://www.w3.org/1999/xlink" x="0px" y="0px"
	 viewBox="0 0 225 225" style="enable-background:new 0 0 225 225;" xml:space="preserve">
<style type="text/css">
	.st0{fill:#828A43;}
	.st1{fill:#FFFFFF;}
	.st2{fill:#A5A49F;}
	.st3{fill:#524C4C;}
	.st4{fill:#B3BD80;}
	.st5{fill:#677432;}
	.st6{fill:#7F7474;}
	.st7{enable-background:new    ;}
</style>
<g>
	<polygon class="st0" points="203.6,165.1 112.5,217.7 21.4,165.1 21.4,59.9 112.5,7.3 203.6,59.9 	"/>
	<g class="st7">
		<path class="st1" d="M85.4,72.4h-3.9v3.3h4.6v2.1H79V65.4h7.1v2.1h-4.6v2.9h3.9V72.4z"/>
		<path class="st1" d="M87.1,72.9c0-1.5,0.3-2.6,0.8-3.4c0.5-0.7,1.3-1.1,2.2-1.1c0.7,0,1.3,0.3,1.8,0.9v-4.6h2.4v13.1h-2.2L92,76.8
			c-0.5,0.7-1.1,1.1-1.9,1.1c-1,0-1.7-0.4-2.2-1.1c-0.5-0.7-0.8-1.8-0.8-3.3V72.9z M89.5,73.5c0,0.9,0.1,1.5,0.3,1.9
			c0.2,0.4,0.5,0.5,1,0.5c0.5,0,0.8-0.2,1.1-0.6v-4.2c-0.2-0.5-0.6-0.7-1.1-0.7c-0.4,0-0.8,0.2-1,0.5c-0.2,0.4-0.3,1-0.3,1.9V73.5z"
			/>
		<path class="st1" d="M100.6,76.9c-0.5,0.7-1.2,1-2,1c-0.8,0-1.5-0.3-1.9-0.9c-0.4-0.6-0.7-1.4-0.7-2.5v-6h2.4v6
			c0,0.9,0.3,1.3,0.9,1.3c0.6,0,0.9-0.2,1.2-0.7v-6.7h2.4v9.2h-2.3L100.6,76.9z"/>
		<path class="st1" d="M108,75.9c0.7,0,1.1-0.5,1.1-1.4h2.3c0,1-0.3,1.8-0.9,2.4c-0.6,0.6-1.4,0.9-2.4,0.9c-1.2,0-2.1-0.4-2.7-1.1
			c-0.6-0.7-0.9-1.8-1-3.3v-0.7c0-1.4,0.3-2.6,0.9-3.3c0.6-0.8,1.5-1.1,2.7-1.1c1,0,1.8,0.3,2.4,0.9c0.6,0.6,0.9,1.5,0.9,2.7H109
			c0-0.5-0.1-0.9-0.3-1.2c-0.2-0.3-0.4-0.4-0.8-0.4c-0.4,0-0.7,0.1-0.9,0.4c-0.2,0.3-0.3,0.9-0.3,1.7v0.9c0,0.8,0,1.3,0.1,1.6
			c0.1,0.3,0.2,0.5,0.4,0.7C107.4,75.9,107.7,75.9,108,75.9z"/>
		<path class="st1" d="M117.1,77.8c-0.1-0.1-0.1-0.4-0.2-0.7c-0.4,0.6-1,0.9-1.8,0.9c-0.8,0-1.4-0.3-1.9-0.8c-0.5-0.5-0.8-1.2-0.8-2
			c0-1,0.3-1.7,0.9-2.2c0.6-0.5,1.5-0.8,2.7-0.8h0.7v-0.7c0-0.4-0.1-0.7-0.2-0.9c-0.1-0.2-0.3-0.3-0.6-0.3c-0.6,0-0.9,0.4-0.9,1.1
			h-2.4c0-0.9,0.3-1.6,1-2.1c0.6-0.6,1.4-0.8,2.4-0.8c1,0,1.8,0.3,2.3,0.8c0.6,0.5,0.8,1.3,0.8,2.3v4.3c0,0.8,0.1,1.4,0.3,1.9v0.1
			H117.1z M115.6,76.1c0.3,0,0.5-0.1,0.7-0.2c0.2-0.1,0.3-0.2,0.4-0.4v-1.9h-0.6c-0.4,0-0.7,0.1-1,0.4c-0.2,0.3-0.4,0.6-0.4,1
			C114.8,75.7,115.1,76.1,115.6,76.1z"/>
		<path class="st1" d="M123.7,66.3v2.3h1.2v1.8h-1.2v4.6c0,0.4,0,0.6,0.1,0.8c0.1,0.1,0.3,0.2,0.6,0.2c0.2,0,0.4,0,0.6-0.1l0,1.9
			c-0.4,0.2-0.9,0.2-1.3,0.2c-1.6,0-2.3-0.9-2.4-2.7v-4.9h-1.1v-1.8h1.1v-2.3H123.7z"/>
		<path class="st1" d="M126.2,66.2c0-0.4,0.1-0.7,0.4-0.9c0.2-0.2,0.6-0.4,1-0.4c0.4,0,0.7,0.1,1,0.4s0.4,0.5,0.4,0.9
			c0,0.4-0.1,0.7-0.4,0.9c-0.2,0.2-0.6,0.4-1,0.4c-0.4,0-0.7-0.1-1-0.4C126.4,66.8,126.2,66.5,126.2,66.2z M128.8,77.8h-2.4v-9.2
			h2.4V77.8z"/>
		<path class="st1" d="M130.4,72.9c0-1.4,0.3-2.5,1-3.3c0.7-0.8,1.6-1.2,2.7-1.2c1.2,0,2.1,0.4,2.8,1.2c0.7,0.8,1,1.9,1,3.3v0.6
			c0,1.4-0.3,2.5-1,3.3c-0.7,0.8-1.6,1.2-2.7,1.2c-1.2,0-2.1-0.4-2.8-1.2c-0.7-0.8-1-1.9-1-3.3V72.9z M132.8,73.5
			c0,1.6,0.4,2.5,1.3,2.5c0.8,0,1.3-0.7,1.3-2.1l0-1c0-0.8-0.1-1.5-0.3-1.9c-0.2-0.4-0.6-0.6-1-0.6c-0.4,0-0.7,0.2-1,0.6
			c-0.2,0.4-0.3,1-0.3,1.9V73.5z"/>
		<path class="st1" d="M141.5,68.6l0.1,0.9c0.5-0.7,1.3-1.1,2.1-1.1c1.6,0,2.4,1.1,2.4,3.3v6.1h-2.4v-5.9c0-0.5-0.1-0.9-0.2-1.1
			c-0.2-0.2-0.4-0.4-0.8-0.4c-0.4,0-0.8,0.2-1,0.7v6.7h-2.4v-9.2H141.5z"/>
	</g>
	<g class="st7">
		<path class="st1" d="M96,108.7h-1v-3.8h-3.3v3.8h-1v-8.3h1v3.6H95v-3.6h1V108.7z"/>
		<path class="st1" d="M99.9,108.9c-0.8,0-1.4-0.2-1.8-0.7c-0.4-0.5-0.6-1.1-0.6-2v-0.7c0-0.9,0.2-1.6,0.6-2.2
			c0.4-0.5,1-0.8,1.7-0.8c0.7,0,1.3,0.2,1.6,0.7s0.5,1.2,0.5,2.1v0.7h-3.4v0.1c0,0.7,0.1,1.1,0.4,1.4s0.6,0.4,1.1,0.4
			c0.3,0,0.6-0.1,0.8-0.2c0.2-0.1,0.4-0.3,0.6-0.5l0.5,0.6C101.4,108.6,100.8,108.9,99.9,108.9z M99.8,103.4c-0.4,0-0.7,0.1-0.9,0.4
			c-0.2,0.3-0.3,0.7-0.3,1.3h2.4V105c0-0.6-0.1-1-0.3-1.3C100.4,103.5,100.1,103.4,99.8,103.4z"/>
		<path class="st1" d="M106.3,108.7c-0.1-0.1-0.1-0.4-0.1-0.7c-0.4,0.5-0.8,0.8-1.4,0.8c-0.6,0-1-0.2-1.3-0.5
			c-0.3-0.3-0.5-0.8-0.5-1.3c0-0.6,0.2-1.1,0.6-1.5c0.4-0.4,1-0.6,1.7-0.6h0.7v-0.7c0-0.4-0.1-0.6-0.2-0.8c-0.2-0.2-0.4-0.2-0.7-0.2
			c-0.3,0-0.5,0.1-0.7,0.3s-0.3,0.4-0.3,0.7h-1c0-0.3,0.1-0.6,0.3-0.9c0.2-0.3,0.4-0.5,0.7-0.7c0.3-0.2,0.7-0.2,1.1-0.2
			c0.6,0,1.1,0.2,1.4,0.5s0.5,0.8,0.5,1.4v3.1c0,0.5,0.1,0.9,0.2,1.2v0.1H106.3z M104.9,107.9c0.2,0,0.5-0.1,0.7-0.2
			c0.2-0.1,0.4-0.3,0.5-0.5v-1.5h-0.6c-0.5,0-0.9,0.1-1.1,0.3s-0.4,0.5-0.4,0.9c0,0.3,0.1,0.6,0.2,0.8
			C104.4,107.9,104.6,107.9,104.9,107.9z"/>
		<path class="st1" d="M108.5,105.4c0-0.9,0.2-1.7,0.5-2.2c0.4-0.5,0.9-0.7,1.5-0.7c0.6,0,1,0.2,1.4,0.7V100h1v8.7H112l-0.1-0.7
			c-0.3,0.5-0.8,0.8-1.4,0.8c-0.6,0-1.1-0.2-1.5-0.7c-0.4-0.5-0.5-1.2-0.6-2.1V105.4z M109.5,106c0,0.7,0.1,1.2,0.3,1.5
			c0.2,0.3,0.5,0.5,1,0.5c0.5,0,0.9-0.3,1.1-0.8v-3.1c-0.3-0.5-0.6-0.7-1.1-0.7c-0.5,0-0.8,0.2-1,0.5c-0.2,0.3-0.3,0.8-0.3,1.5V106z
			"/>
		<path class="st1" d="M117.5,107.2c0-0.2-0.1-0.4-0.2-0.6c-0.2-0.2-0.5-0.3-0.9-0.5c-0.5-0.2-0.9-0.4-1.1-0.6
			c-0.2-0.2-0.4-0.3-0.5-0.5c-0.1-0.2-0.2-0.4-0.2-0.7c0-0.5,0.2-0.9,0.5-1.2c0.4-0.3,0.8-0.5,1.4-0.5c0.6,0,1.1,0.2,1.4,0.5
			c0.4,0.3,0.5,0.8,0.5,1.3h-1c0-0.3-0.1-0.5-0.3-0.7c-0.2-0.2-0.4-0.3-0.7-0.3c-0.3,0-0.5,0.1-0.7,0.2c-0.2,0.2-0.3,0.4-0.3,0.6
			c0,0.2,0.1,0.4,0.2,0.5c0.1,0.1,0.4,0.3,0.9,0.5c0.7,0.3,1.3,0.6,1.5,0.9c0.3,0.3,0.4,0.6,0.4,1.1c0,0.5-0.2,1-0.6,1.3
			c-0.4,0.3-0.9,0.5-1.5,0.5c-0.6,0-1.2-0.2-1.6-0.6c-0.4-0.4-0.6-0.8-0.6-1.4h1c0,0.3,0.1,0.6,0.3,0.8c0.2,0.2,0.5,0.3,0.8,0.3
			c0.3,0,0.6-0.1,0.8-0.2S117.5,107.4,117.5,107.2z"/>
		<path class="st1" d="M121.1,101.1v1.5h0.9v0.8h-0.9v3.8c0,0.2,0,0.4,0.1,0.6c0.1,0.1,0.2,0.2,0.4,0.2c0.1,0,0.3,0,0.4-0.1l0,0.8
			c-0.2,0.1-0.5,0.1-0.7,0.1c-0.4,0-0.7-0.1-0.9-0.4s-0.3-0.7-0.3-1.2v-3.8h-0.9v-0.8h0.9v-1.5H121.1z"/>
		<path class="st1" d="M126.4,108.7c-0.1-0.1-0.1-0.4-0.1-0.7c-0.4,0.5-0.8,0.8-1.4,0.8c-0.6,0-1-0.2-1.3-0.5
			c-0.3-0.3-0.5-0.8-0.5-1.3c0-0.6,0.2-1.1,0.6-1.5c0.4-0.4,1-0.6,1.7-0.6h0.7v-0.7c0-0.4-0.1-0.6-0.2-0.8c-0.2-0.2-0.4-0.2-0.7-0.2
			c-0.3,0-0.5,0.1-0.7,0.3c-0.2,0.2-0.3,0.4-0.3,0.7h-1c0-0.3,0.1-0.6,0.3-0.9c0.2-0.3,0.4-0.5,0.7-0.7c0.3-0.2,0.7-0.2,1.1-0.2
			c0.6,0,1.1,0.2,1.4,0.5c0.3,0.3,0.5,0.8,0.5,1.4v3.1c0,0.5,0.1,0.9,0.2,1.2v0.1H126.4z M125,107.9c0.2,0,0.5-0.1,0.7-0.2
			c0.2-0.1,0.4-0.3,0.5-0.5v-1.5h-0.6c-0.5,0-0.9,0.1-1.1,0.3c-0.3,0.2-0.4,0.5-0.4,0.9c0,0.3,0.1,0.6,0.2,0.8
			C124.5,107.9,124.7,107.9,125,107.9z"/>
	</g>
	<g class="st7">
		<path class="st1" d="M131.3,103.5c-0.1,0-0.3,0-0.5,0c-0.5,0-0.9,0.3-1.1,0.8v4.4h-1v-6.1h1l0,0.6c0.3-0.5,0.6-0.7,1.1-0.7
			c0.2,0,0.3,0,0.4,0.1L131.3,103.5z"/>
	</g>
	<g class="st7">
		<path class="st1" d="M133.9,101.1v1.5h0.9v0.8h-0.9v3.8c0,0.2,0,0.4,0.1,0.6c0.1,0.1,0.2,0.2,0.4,0.2c0.1,0,0.3,0,0.4-0.1l0,0.8
			c-0.2,0.1-0.5,0.1-0.7,0.1c-0.4,0-0.7-0.1-0.9-0.4c-0.2-0.3-0.3-0.7-0.3-1.2v-3.8H132v-0.8h0.9v-1.5H133.9z"/>
	</g>
	<g class="st7">
		<path class="st1" d="M90,119.5v3.2h-1v-8.3h2.6c0.8,0,1.4,0.2,1.8,0.7c0.4,0.5,0.7,1.1,0.7,1.8c0,0.8-0.2,1.4-0.6,1.8
			s-1,0.7-1.8,0.7H90z M90,118.6h1.6c0.5,0,0.8-0.1,1.1-0.4c0.2-0.3,0.4-0.7,0.4-1.2c0-0.5-0.1-0.9-0.4-1.2c-0.3-0.3-0.6-0.4-1-0.4
			H90V118.6z"/>
		<path class="st1" d="M97.5,122.8c-0.8,0-1.4-0.2-1.8-0.7c-0.4-0.5-0.6-1.1-0.6-2v-0.7c0-0.9,0.2-1.6,0.6-2.2
			c0.4-0.5,1-0.8,1.7-0.8c0.7,0,1.3,0.2,1.6,0.7s0.5,1.2,0.5,2.1v0.7h-3.4v0.1c0,0.7,0.1,1.1,0.4,1.4c0.2,0.3,0.6,0.4,1.1,0.4
			c0.3,0,0.6-0.1,0.8-0.2c0.2-0.1,0.4-0.3,0.6-0.5l0.5,0.6C99,122.5,98.4,122.8,97.5,122.8z M97.3,117.3c-0.4,0-0.7,0.1-0.9,0.4
			c-0.2,0.3-0.3,0.7-0.3,1.3h2.4v-0.1c0-0.6-0.1-1-0.3-1.3C98,117.4,97.7,117.3,97.3,117.3z"/>
		<path class="st1" d="M101.8,122.7h-1V114h1V122.7z"/>
		<path class="st1" d="M104.5,122.7h-1V114h1V122.7z"/>
		<path class="st1" d="M108.5,119.4c0-1,0.2-1.7,0.5-2.2c0.3-0.5,0.9-0.7,1.5-0.7c0.6,0,1.1,0.3,1.4,0.8l0.1-0.7h0.9v6.2
			c0,0.8-0.2,1.3-0.6,1.8c-0.4,0.4-0.9,0.6-1.6,0.6c-0.3,0-0.6-0.1-1-0.2c-0.4-0.1-0.7-0.3-0.8-0.6l0.4-0.7c0.4,0.4,0.9,0.6,1.4,0.6
			c0.8,0,1.3-0.5,1.3-1.4v-0.8c-0.3,0.5-0.8,0.7-1.4,0.7c-0.6,0-1.1-0.2-1.5-0.7c-0.4-0.5-0.5-1.2-0.6-2.1V119.4z M109.5,119.9
			c0,0.7,0.1,1.2,0.3,1.5c0.2,0.3,0.5,0.5,1,0.5c0.5,0,0.9-0.3,1.1-0.8v-3.1c-0.3-0.5-0.6-0.8-1.1-0.8c-0.5,0-0.8,0.2-1,0.5
			c-0.2,0.3-0.3,0.8-0.3,1.5V119.9z"/>
	</g>
	<g class="st7">
		<path class="st1" d="M117,117.5c-0.1,0-0.3,0-0.5,0c-0.5,0-0.9,0.3-1.1,0.8v4.4h-1v-6.1h1l0,0.6c0.3-0.5,0.6-0.7,1.1-0.7
			c0.2,0,0.3,0,0.4,0.1L117,117.5z"/>
	</g>
	<g class="st7">
		<path class="st1" d="M120.9,122.7c-0.1-0.1-0.1-0.4-0.1-0.7c-0.4,0.5-0.8,0.8-1.4,0.8c-0.6,0-1-0.2-1.3-0.5
			c-0.3-0.3-0.5-0.8-0.5-1.3c0-0.6,0.2-1.1,0.6-1.5c0.4-0.4,1-0.6,1.7-0.6h0.7v-0.7c0-0.4-0.1-0.6-0.2-0.8c-0.2-0.2-0.4-0.2-0.7-0.2
			c-0.3,0-0.5,0.1-0.7,0.3c-0.2,0.2-0.3,0.4-0.3,0.7h-1c0-0.3,0.1-0.6,0.3-0.9c0.2-0.3,0.4-0.5,0.7-0.7c0.3-0.2,0.7-0.2,1.1-0.2
			c0.6,0,1.1,0.2,1.4,0.5c0.3,0.3,0.5,0.8,0.5,1.4v3.1c0,0.5,0.1,0.9,0.2,1.2v0.1H120.9z M119.6,121.9c0.2,0,0.5-0.1,0.7-0.2
			c0.2-0.1,0.4-0.3,0.5-0.5v-1.5h-0.6c-0.5,0-0.9,0.1-1.1,0.3c-0.3,0.2-0.4,0.5-0.4,0.9c0,0.3,0.1,0.6,0.2,0.8
			C119,121.8,119.2,121.9,119.6,121.9z"/>
		<path class="st1" d="M124.3,116.6l0,0.7c0.4-0.5,0.9-0.8,1.5-0.8c1.1,0,1.6,0.7,1.7,2.2v4.1h-1v-4c0-0.5-0.1-0.8-0.2-1
			c-0.2-0.2-0.4-0.3-0.7-0.3c-0.3,0-0.5,0.1-0.7,0.2c-0.2,0.2-0.4,0.4-0.5,0.7v4.5h-1v-6.1H124.3z"/>
		<path class="st1" d="M130.3,115.1v1.5h0.9v0.8h-0.9v3.8c0,0.2,0,0.4,0.1,0.6c0.1,0.1,0.2,0.2,0.4,0.2c0.1,0,0.3,0,0.4-0.1l0,0.8
			c-0.2,0.1-0.5,0.1-0.7,0.1c-0.4,0-0.7-0.1-0.9-0.4c-0.2-0.3-0.3-0.7-0.3-1.2v-3.8h-0.9v-0.8h0.9v-1.5H130.3z"/>
		<path class="st1" d="M135.4,121.1c0-0.2-0.1-0.4-0.2-0.6c-0.2-0.2-0.5-0.3-0.9-0.5c-0.5-0.2-0.9-0.4-1.1-0.6
			c-0.2-0.2-0.4-0.3-0.5-0.5c-0.1-0.2-0.2-0.4-0.2-0.7c0-0.5,0.2-0.9,0.5-1.2c0.4-0.3,0.8-0.5,1.4-0.5c0.6,0,1.1,0.2,1.4,0.5
			c0.4,0.3,0.5,0.8,0.5,1.3h-1c0-0.3-0.1-0.5-0.3-0.7c-0.2-0.2-0.4-0.3-0.7-0.3c-0.3,0-0.5,0.1-0.7,0.2c-0.2,0.2-0.3,0.4-0.3,0.6
			c0,0.2,0.1,0.4,0.2,0.5c0.1,0.1,0.4,0.3,0.9,0.5c0.7,0.3,1.3,0.6,1.5,0.9c0.3,0.3,0.4,0.6,0.4,1.1c0,0.5-0.2,1-0.6,1.3
			c-0.4,0.3-0.9,0.5-1.5,0.5c-0.6,0-1.2-0.2-1.6-0.6c-0.4-0.4-0.6-0.8-0.6-1.4h1c0,0.3,0.1,0.6,0.3,0.8c0.2,0.2,0.5,0.3,0.8,0.3
			c0.3,0,0.6-0.1,0.8-0.2C135.3,121.6,135.4,121.4,135.4,121.1z"/>
	</g>
	<g class="st7">
		<path class="st1" d="M62.1,129.3h-2.2v7.4h-1v-7.4h-2.2v-0.9h5.4V129.3z"/>
	</g>
	<g class="st7">
		<path class="st1" d="M65.8,136.1c-0.3,0.4-0.8,0.7-1.5,0.7c-0.6,0-1-0.2-1.3-0.6c-0.3-0.4-0.4-0.9-0.4-1.7v-4h1v3.9
			c0,1,0.3,1.4,0.9,1.4c0.6,0,1-0.3,1.3-0.8v-4.6h1v6.1h-1L65.8,136.1z"/>
		<path class="st1" d="M69.4,128.9c0,0.2,0,0.3-0.1,0.4c-0.1,0.1-0.2,0.2-0.4,0.2c-0.2,0-0.3-0.1-0.4-0.2c-0.1-0.1-0.1-0.3-0.1-0.4
			c0-0.2,0-0.3,0.1-0.4c0.1-0.1,0.2-0.2,0.4-0.2s0.3,0.1,0.4,0.2C69.4,128.6,69.4,128.7,69.4,128.9z M69.4,136.7h-1v-6.1h1V136.7z"
			/>
		<path class="st1" d="M72.3,129v1.5h0.9v0.8h-0.9v3.8c0,0.2,0,0.4,0.1,0.6c0.1,0.1,0.2,0.2,0.4,0.2c0.1,0,0.3,0,0.4-0.1l0,0.8
			c-0.2,0.1-0.5,0.1-0.7,0.1c-0.4,0-0.7-0.1-0.9-0.4c-0.2-0.3-0.3-0.7-0.3-1.2v-3.8h-0.9v-0.8h0.9V129H72.3z"/>
		<path class="st1" d="M75.5,128.9c0,0.2,0,0.3-0.1,0.4c-0.1,0.1-0.2,0.2-0.4,0.2c-0.2,0-0.3-0.1-0.4-0.2c-0.1-0.1-0.1-0.3-0.1-0.4
			c0-0.2,0-0.3,0.1-0.4c0.1-0.1,0.2-0.2,0.4-0.2s0.3,0.1,0.4,0.2C75.5,128.6,75.5,128.7,75.5,128.9z M75.5,136.7h-1v-6.1h1V136.7z"
			/>
		<path class="st1" d="M76.8,133.3c0-0.9,0.2-1.6,0.7-2.1c0.4-0.5,1-0.8,1.7-0.8c0.7,0,1.3,0.3,1.7,0.8c0.4,0.5,0.7,1.2,0.7,2.1v0.6
			c0,0.9-0.2,1.6-0.6,2.1c-0.4,0.5-1,0.8-1.7,0.8c-0.7,0-1.3-0.3-1.7-0.8c-0.4-0.5-0.7-1.2-0.7-2V133.3z M77.8,133.9
			c0,0.6,0.1,1.1,0.4,1.5c0.2,0.4,0.6,0.5,1,0.5c0.9,0,1.3-0.6,1.4-1.9v-0.7c0-0.6-0.1-1.1-0.4-1.5c-0.3-0.4-0.6-0.5-1-0.5
			c-0.4,0-0.7,0.2-1,0.5c-0.2,0.4-0.4,0.9-0.4,1.5V133.9z"/>
		<path class="st1" d="M83.8,130.5l0,0.7c0.4-0.5,0.9-0.8,1.5-0.8c1.1,0,1.6,0.7,1.7,2.2v4.1h-1v-4c0-0.5-0.1-0.8-0.2-1
			s-0.4-0.3-0.7-0.3c-0.3,0-0.5,0.1-0.7,0.2c-0.2,0.2-0.4,0.4-0.5,0.7v4.5h-1v-6.1H83.8z"/>
		<path class="st1" d="M94.3,136.7c-0.1-0.1-0.1-0.4-0.1-0.7c-0.4,0.5-0.8,0.8-1.4,0.8c-0.6,0-1-0.2-1.3-0.5s-0.5-0.8-0.5-1.3
			c0-0.6,0.2-1.1,0.6-1.5c0.4-0.4,1-0.6,1.7-0.6h0.7v-0.7c0-0.4-0.1-0.6-0.2-0.8c-0.2-0.2-0.4-0.2-0.7-0.2c-0.3,0-0.5,0.1-0.7,0.3
			c-0.2,0.2-0.3,0.4-0.3,0.7h-1c0-0.3,0.1-0.6,0.3-0.9c0.2-0.3,0.4-0.5,0.7-0.7c0.3-0.2,0.7-0.2,1.1-0.2c0.6,0,1.1,0.2,1.4,0.5
			c0.3,0.3,0.5,0.8,0.5,1.4v3.1c0,0.5,0.1,0.9,0.2,1.2v0.1H94.3z M93,135.9c0.2,0,0.5-0.1,0.7-0.2c0.2-0.1,0.4-0.3,0.5-0.5v-1.5
			h-0.6c-0.5,0-0.9,0.1-1.1,0.3c-0.3,0.2-0.4,0.5-0.4,0.9c0,0.3,0.1,0.6,0.2,0.8C92.4,135.8,92.7,135.9,93,135.9z"/>
		<path class="st1" d="M97.7,130.5l0,0.7c0.4-0.5,0.9-0.8,1.5-0.8c1.1,0,1.6,0.7,1.7,2.2v4.1h-1v-4c0-0.5-0.1-0.8-0.2-1
			c-0.2-0.2-0.4-0.3-0.7-0.3c-0.3,0-0.5,0.1-0.7,0.2c-0.2,0.2-0.4,0.4-0.5,0.7v4.5h-1v-6.1H97.7z"/>
		<path class="st1" d="M102.2,133.3c0-0.9,0.2-1.7,0.5-2.2s0.9-0.7,1.5-0.7c0.6,0,1,0.2,1.4,0.7v-3.2h1v8.7h-0.9l-0.1-0.7
			c-0.3,0.5-0.8,0.8-1.4,0.8c-0.6,0-1.1-0.2-1.5-0.7c-0.4-0.5-0.5-1.2-0.6-2.1V133.3z M103.2,133.9c0,0.7,0.1,1.2,0.3,1.5
			c0.2,0.3,0.5,0.5,1,0.5c0.5,0,0.9-0.3,1.1-0.8V132c-0.3-0.5-0.6-0.7-1.1-0.7c-0.5,0-0.8,0.2-1,0.5c-0.2,0.3-0.3,0.8-0.3,1.5V133.9
			z"/>
		<path class="st1" d="M113.8,135.1c0-0.2-0.1-0.4-0.2-0.6c-0.2-0.2-0.5-0.3-0.9-0.5c-0.5-0.2-0.9-0.4-1.1-0.6s-0.4-0.3-0.5-0.5
			s-0.2-0.4-0.2-0.7c0-0.5,0.2-0.9,0.5-1.2c0.4-0.3,0.8-0.5,1.4-0.5c0.6,0,1.1,0.2,1.4,0.5c0.4,0.3,0.5,0.8,0.5,1.3h-1
			c0-0.3-0.1-0.5-0.3-0.7c-0.2-0.2-0.4-0.3-0.7-0.3c-0.3,0-0.5,0.1-0.7,0.2c-0.2,0.2-0.3,0.4-0.3,0.6c0,0.2,0.1,0.4,0.2,0.5
			c0.1,0.1,0.4,0.3,0.9,0.5c0.7,0.3,1.3,0.6,1.5,0.9c0.3,0.3,0.4,0.6,0.4,1.1c0,0.5-0.2,1-0.6,1.3c-0.4,0.3-0.9,0.5-1.5,0.5
			c-0.6,0-1.2-0.2-1.6-0.6c-0.4-0.4-0.6-0.8-0.6-1.4h1c0,0.3,0.1,0.6,0.3,0.8c0.2,0.2,0.5,0.3,0.8,0.3c0.3,0,0.6-0.1,0.8-0.2
			S113.8,135.4,113.8,135.1z"/>
		<path class="st1" d="M118.3,135.9c0.3,0,0.6-0.1,0.8-0.3c0.2-0.2,0.3-0.5,0.3-0.9h0.9c0,0.6-0.2,1.1-0.6,1.5
			c-0.4,0.4-0.9,0.6-1.5,0.6c-0.8,0-1.3-0.2-1.7-0.7c-0.4-0.5-0.6-1.2-0.6-2.1v-0.7c0-0.9,0.2-1.6,0.6-2.1s1-0.7,1.7-0.7
			c0.6,0,1.1,0.2,1.5,0.6c0.4,0.4,0.6,0.9,0.6,1.6h-0.9c0-0.5-0.1-0.8-0.3-1c-0.2-0.2-0.5-0.3-0.8-0.3c-0.4,0-0.8,0.1-1,0.4
			c-0.2,0.3-0.3,0.8-0.3,1.4v0.8c0,0.7,0.1,1.2,0.3,1.5C117.5,135.8,117.8,135.9,118.3,135.9z"/>
		<path class="st1" d="M122.5,131.2c0.4-0.5,0.9-0.7,1.5-0.7c1.1,0,1.6,0.7,1.7,2.2v4.1h-1v-4c0-0.5-0.1-0.8-0.2-1
			c-0.2-0.2-0.4-0.3-0.7-0.3c-0.3,0-0.5,0.1-0.7,0.2c-0.2,0.2-0.4,0.4-0.5,0.7v4.5h-1v-8.7h1V131.2z"/>
		<path class="st1" d="M126.9,133.3c0-0.9,0.2-1.6,0.6-2.1c0.4-0.5,1-0.8,1.7-0.8s1.3,0.3,1.7,0.8c0.4,0.5,0.7,1.2,0.7,2.1v0.6
			c0,0.9-0.2,1.6-0.6,2.1c-0.4,0.5-1,0.8-1.7,0.8c-0.7,0-1.3-0.3-1.7-0.8c-0.4-0.5-0.7-1.2-0.7-2V133.3z M127.9,133.9
			c0,0.6,0.1,1.1,0.4,1.5c0.2,0.4,0.6,0.5,1,0.5c0.9,0,1.3-0.6,1.4-1.9v-0.7c0-0.6-0.1-1.1-0.4-1.5c-0.3-0.4-0.6-0.5-1-0.5
			c-0.4,0-0.7,0.2-1,0.5c-0.2,0.4-0.4,0.9-0.4,1.5V133.9z"/>
		<path class="st1" d="M134,136.7h-1v-8.7h1V136.7z"/>
		<path class="st1" d="M138.8,136.7c-0.1-0.1-0.1-0.4-0.1-0.7c-0.4,0.5-0.8,0.8-1.4,0.8c-0.6,0-1-0.2-1.3-0.5
			c-0.3-0.3-0.5-0.8-0.5-1.3c0-0.6,0.2-1.1,0.6-1.5c0.4-0.4,1-0.6,1.7-0.6h0.7v-0.7c0-0.4-0.1-0.6-0.2-0.8s-0.4-0.2-0.7-0.2
			c-0.3,0-0.5,0.1-0.7,0.3c-0.2,0.2-0.3,0.4-0.3,0.7h-1c0-0.3,0.1-0.6,0.3-0.9c0.2-0.3,0.4-0.5,0.8-0.7c0.3-0.2,0.7-0.2,1.1-0.2
			c0.6,0,1.1,0.2,1.4,0.5c0.3,0.3,0.5,0.8,0.5,1.4v3.1c0,0.5,0.1,0.9,0.2,1.2v0.1H138.8z M137.4,135.9c0.2,0,0.5-0.1,0.7-0.2
			s0.4-0.3,0.5-0.5v-1.5h-0.6c-0.5,0-0.9,0.1-1.1,0.3c-0.3,0.2-0.4,0.5-0.4,0.9c0,0.3,0.1,0.6,0.2,0.8
			C136.9,135.8,137.1,135.9,137.4,135.9z"/>
		<path class="st1" d="M143.7,131.5c-0.1,0-0.3,0-0.5,0c-0.5,0-0.9,0.3-1.1,0.8v4.4h-1v-6.1h1l0,0.6c0.3-0.5,0.6-0.7,1.1-0.7
			c0.2,0,0.3,0,0.4,0.1L143.7,131.5z"/>
		<path class="st1" d="M147.7,135.1c0-0.2-0.1-0.4-0.2-0.6c-0.2-0.2-0.5-0.3-0.9-0.5c-0.5-0.2-0.9-0.4-1.1-0.6
			c-0.2-0.2-0.4-0.3-0.5-0.5c-0.1-0.2-0.2-0.4-0.2-0.7c0-0.5,0.2-0.9,0.5-1.2c0.4-0.3,0.8-0.5,1.4-0.5c0.6,0,1.1,0.2,1.4,0.5
			c0.4,0.3,0.5,0.8,0.5,1.3h-1c0-0.3-0.1-0.5-0.3-0.7c-0.2-0.2-0.4-0.3-0.7-0.3c-0.3,0-0.5,0.1-0.7,0.2c-0.2,0.2-0.3,0.4-0.3,0.6
			c0,0.2,0.1,0.4,0.2,0.5c0.1,0.1,0.4,0.3,0.9,0.5c0.7,0.3,1.3,0.6,1.5,0.9c0.3,0.3,0.4,0.6,0.4,1.1c0,0.5-0.2,1-0.6,1.3
			c-0.4,0.3-0.9,0.5-1.5,0.5c-0.6,0-1.2-0.2-1.6-0.6c-0.4-0.4-0.6-0.8-0.6-1.4h1c0,0.3,0.1,0.6,0.3,0.8c0.2,0.2,0.5,0.3,0.8,0.3
			c0.3,0,0.6-0.1,0.8-0.2S147.7,135.4,147.7,135.1z"/>
		<path class="st1" d="M151,131.2c0.4-0.5,0.9-0.7,1.5-0.7c1.1,0,1.6,0.7,1.7,2.2v4.1h-1v-4c0-0.5-0.1-0.8-0.2-1
			c-0.2-0.2-0.4-0.3-0.7-0.3c-0.3,0-0.5,0.1-0.7,0.2c-0.2,0.2-0.4,0.4-0.5,0.7v4.5h-1v-8.7h1V131.2z"/>
		<path class="st1" d="M156.8,128.9c0,0.2,0,0.3-0.1,0.4c-0.1,0.1-0.2,0.2-0.4,0.2c-0.2,0-0.3-0.1-0.4-0.2c-0.1-0.1-0.1-0.3-0.1-0.4
			c0-0.2,0-0.3,0.1-0.4c0.1-0.1,0.2-0.2,0.4-0.2s0.3,0.1,0.4,0.2C156.8,128.6,156.8,128.7,156.8,128.9z M156.7,136.7h-1v-6.1h1
			V136.7z"/>
		<path class="st1" d="M162.8,133.9c0,1-0.2,1.7-0.5,2.2c-0.3,0.5-0.8,0.7-1.5,0.7c-0.6,0-1.1-0.2-1.4-0.7v2.9h-1v-8.5h0.9l0.1,0.7
			c0.3-0.5,0.8-0.8,1.4-0.8c0.7,0,1.2,0.2,1.5,0.7c0.3,0.5,0.5,1.2,0.5,2.1V133.9z M161.8,133.3c0-0.7-0.1-1.2-0.3-1.5
			c-0.2-0.3-0.6-0.5-1-0.5c-0.5,0-0.8,0.2-1.1,0.7v3.2c0.2,0.5,0.6,0.7,1.1,0.7c0.5,0,0.8-0.2,1-0.5c0.2-0.3,0.3-0.8,0.3-1.5V133.3z
			"/>
		<path class="st1" d="M167,135.1c0-0.2-0.1-0.4-0.2-0.6c-0.2-0.2-0.5-0.3-0.9-0.5c-0.5-0.2-0.9-0.4-1.1-0.6
			c-0.2-0.2-0.4-0.3-0.5-0.5s-0.2-0.4-0.2-0.7c0-0.5,0.2-0.9,0.5-1.2c0.4-0.3,0.8-0.5,1.4-0.5c0.6,0,1.1,0.2,1.4,0.5
			c0.4,0.3,0.5,0.8,0.5,1.3h-1c0-0.3-0.1-0.5-0.3-0.7c-0.2-0.2-0.4-0.3-0.7-0.3c-0.3,0-0.5,0.1-0.7,0.2c-0.2,0.2-0.3,0.4-0.3,0.6
			c0,0.2,0.1,0.4,0.2,0.5c0.1,0.1,0.4,0.3,0.9,0.5c0.7,0.3,1.3,0.6,1.5,0.9c0.3,0.3,0.4,0.6,0.4,1.1c0,0.5-0.2,1-0.6,1.3
			c-0.4,0.3-0.9,0.5-1.5,0.5c-0.6,0-1.2-0.2-1.6-0.6c-0.4-0.4-0.6-0.8-0.6-1.4h1c0,0.3,0.1,0.6,0.3,0.8s0.5,0.3,0.8,0.3
			c0.3,0,0.6-0.1,0.8-0.2S167,135.4,167,135.1z"/>
	</g>
	<g class="st7">
		<path class="st1" d="M39.3,146.8h-2.9v2.9h3.4v0.9h-4.4v-8.3h4.4v0.9h-3.4v2.7h2.9V146.8z"/>
		<path class="st1" d="M42,150.6h-1v-8.7h1V150.6z"/>
		<path class="st1" d="M45.8,150.7c-0.8,0-1.4-0.2-1.8-0.7c-0.4-0.5-0.6-1.1-0.6-2v-0.7c0-0.9,0.2-1.6,0.6-2.2
			c0.4-0.5,1-0.8,1.7-0.8c0.7,0,1.3,0.2,1.6,0.7c0.4,0.5,0.5,1.2,0.5,2.1v0.7h-3.4v0.1c0,0.7,0.1,1.1,0.4,1.4s0.6,0.4,1.1,0.4
			c0.3,0,0.6-0.1,0.8-0.2c0.2-0.1,0.4-0.3,0.6-0.5l0.5,0.6C47.3,150.4,46.7,150.7,45.8,150.7z M45.7,145.2c-0.4,0-0.7,0.1-0.9,0.4
			c-0.2,0.3-0.3,0.7-0.3,1.3h2.4v-0.1c0-0.6-0.1-1-0.3-1.3C46.3,145.4,46,145.2,45.7,145.2z"/>
		<path class="st1" d="M50,144.5l0,0.6c0.4-0.5,0.9-0.7,1.5-0.7c0.7,0,1.2,0.3,1.4,0.9c0.4-0.6,0.9-0.9,1.6-0.9
			c1.1,0,1.7,0.7,1.7,2.1v4.1h-1v-4c0-0.4-0.1-0.8-0.2-1c-0.2-0.2-0.4-0.3-0.8-0.3c-0.3,0-0.5,0.1-0.7,0.4c-0.2,0.2-0.3,0.5-0.3,0.9
			v4.1h-1v-4.1c0-0.9-0.4-1.3-1-1.3c-0.5,0-0.9,0.3-1.1,0.8v4.6h-1v-6.1H50z"/>
		<path class="st1" d="M60,150.7c-0.8,0-1.4-0.2-1.8-0.7c-0.4-0.5-0.6-1.1-0.6-2v-0.7c0-0.9,0.2-1.6,0.6-2.2c0.4-0.5,1-0.8,1.7-0.8
			c0.7,0,1.3,0.2,1.6,0.7c0.4,0.5,0.5,1.2,0.5,2.1v0.7h-3.4v0.1c0,0.7,0.1,1.1,0.4,1.4s0.6,0.4,1.1,0.4c0.3,0,0.6-0.1,0.8-0.2
			c0.2-0.1,0.4-0.3,0.6-0.5l0.5,0.6C61.5,150.4,60.9,150.7,60,150.7z M59.9,145.2c-0.4,0-0.7,0.1-0.9,0.4c-0.2,0.3-0.3,0.7-0.3,1.3
			H61v-0.1c0-0.6-0.1-1-0.3-1.3C60.5,145.4,60.2,145.2,59.9,145.2z"/>
		<path class="st1" d="M64.2,144.5l0,0.7c0.4-0.5,0.9-0.8,1.5-0.8c1.1,0,1.6,0.7,1.7,2.2v4.1h-1v-4c0-0.5-0.1-0.8-0.2-1
			c-0.2-0.2-0.4-0.3-0.7-0.3c-0.3,0-0.5,0.1-0.7,0.2c-0.2,0.2-0.4,0.4-0.5,0.7v4.5h-1v-6.1H64.2z"/>
		<path class="st1" d="M70.2,143v1.5h0.9v0.8h-0.9v3.8c0,0.2,0,0.4,0.1,0.6c0.1,0.1,0.2,0.2,0.4,0.2c0.1,0,0.3,0,0.4-0.1l0,0.8
			c-0.2,0.1-0.5,0.1-0.7,0.1c-0.4,0-0.7-0.1-0.9-0.4c-0.2-0.3-0.3-0.7-0.3-1.2v-3.8h-0.9v-0.8h0.9V143H70.2z"/>
		<path class="st1" d="M75.5,150.6c-0.1-0.1-0.1-0.4-0.1-0.7c-0.4,0.5-0.8,0.8-1.4,0.8c-0.6,0-1-0.2-1.3-0.5
			c-0.3-0.3-0.5-0.8-0.5-1.3c0-0.6,0.2-1.1,0.6-1.5c0.4-0.4,1-0.6,1.7-0.6h0.7v-0.7c0-0.4-0.1-0.6-0.2-0.8c-0.2-0.2-0.4-0.2-0.7-0.2
			c-0.3,0-0.5,0.1-0.7,0.3c-0.2,0.2-0.3,0.4-0.3,0.7h-1c0-0.3,0.1-0.6,0.3-0.9c0.2-0.3,0.4-0.5,0.7-0.7c0.3-0.2,0.7-0.2,1.1-0.2
			c0.6,0,1.1,0.2,1.4,0.5c0.3,0.3,0.5,0.8,0.5,1.4v3.1c0,0.5,0.1,0.9,0.2,1.2v0.1H75.5z M74.1,149.8c0.2,0,0.5-0.1,0.7-0.2
			c0.2-0.1,0.4-0.3,0.5-0.5v-1.5h-0.6c-0.5,0-0.9,0.1-1.1,0.3c-0.3,0.2-0.4,0.5-0.4,0.9c0,0.3,0.1,0.6,0.2,0.8
			C73.6,149.8,73.8,149.8,74.1,149.8z"/>
		<path class="st1" d="M80.4,145.4c-0.1,0-0.3,0-0.5,0c-0.5,0-0.9,0.3-1.1,0.8v4.4h-1v-6.1h1l0,0.6c0.3-0.5,0.6-0.7,1.1-0.7
			c0.2,0,0.3,0,0.4,0.1L80.4,145.4z"/>
		<path class="st1" d="M83.1,149l1.1-4.5h1.1l-2,7c-0.2,0.5-0.4,0.9-0.6,1.2c-0.3,0.3-0.6,0.4-0.9,0.4c-0.1,0-0.3,0-0.5-0.1v-0.9
			l0.2,0c0.3,0,0.5-0.1,0.7-0.2c0.2-0.1,0.3-0.4,0.4-0.7l0.2-0.7l-1.8-6.1H82L83.1,149z"/>
		<path class="st1" d="M92.1,150.6c-0.1-0.1-0.1-0.4-0.1-0.7c-0.4,0.5-0.8,0.8-1.4,0.8c-0.6,0-1-0.2-1.3-0.5
			c-0.3-0.3-0.5-0.8-0.5-1.3c0-0.6,0.2-1.1,0.6-1.5c0.4-0.4,1-0.6,1.7-0.6h0.7v-0.7c0-0.4-0.1-0.6-0.2-0.8c-0.2-0.2-0.4-0.2-0.7-0.2
			c-0.3,0-0.5,0.1-0.7,0.3s-0.3,0.4-0.3,0.7h-1c0-0.3,0.1-0.6,0.3-0.9c0.2-0.3,0.4-0.5,0.7-0.7c0.3-0.2,0.7-0.2,1.1-0.2
			c0.6,0,1.1,0.2,1.4,0.5c0.3,0.3,0.5,0.8,0.5,1.4v3.1c0,0.5,0.1,0.9,0.2,1.2v0.1H92.1z M90.7,149.8c0.2,0,0.5-0.1,0.7-0.2
			c0.2-0.1,0.4-0.3,0.5-0.5v-1.5h-0.6c-0.5,0-0.9,0.1-1.1,0.3c-0.3,0.2-0.4,0.5-0.4,0.9c0,0.3,0.1,0.6,0.2,0.8
			C90.2,149.8,90.4,149.8,90.7,149.8z"/>
		<path class="st1" d="M95.4,144.5l0,0.7c0.4-0.5,0.9-0.8,1.5-0.8c1.1,0,1.6,0.7,1.7,2.2v4.1h-1v-4c0-0.5-0.1-0.8-0.2-1
			c-0.2-0.2-0.4-0.3-0.7-0.3c-0.3,0-0.5,0.1-0.7,0.2c-0.2,0.2-0.4,0.4-0.5,0.7v4.5h-1v-6.1H95.4z"/>
		<path class="st1" d="M99.9,147.3c0-0.9,0.2-1.7,0.5-2.2s0.9-0.7,1.5-0.7c0.6,0,1,0.2,1.4,0.7v-3.2h1v8.7h-0.9l-0.1-0.7
			c-0.3,0.5-0.8,0.8-1.4,0.8c-0.6,0-1.1-0.2-1.5-0.7c-0.4-0.5-0.5-1.2-0.6-2.1V147.3z M100.9,147.9c0,0.7,0.1,1.2,0.3,1.5
			c0.2,0.3,0.5,0.5,1,0.5c0.5,0,0.9-0.3,1.1-0.8V146c-0.3-0.5-0.6-0.7-1.1-0.7c-0.5,0-0.8,0.2-1,0.5c-0.2,0.3-0.3,0.8-0.3,1.5V147.9
			z"/>
		<path class="st1" d="M111.6,149.1c0-0.2-0.1-0.4-0.2-0.6c-0.2-0.2-0.5-0.3-0.9-0.5c-0.5-0.2-0.9-0.4-1.1-0.6
			c-0.2-0.2-0.4-0.3-0.5-0.5c-0.1-0.2-0.2-0.4-0.2-0.7c0-0.5,0.2-0.9,0.5-1.2c0.4-0.3,0.8-0.5,1.4-0.5c0.6,0,1.1,0.2,1.4,0.5
			c0.4,0.3,0.5,0.8,0.5,1.3h-1c0-0.3-0.1-0.5-0.3-0.7c-0.2-0.2-0.4-0.3-0.7-0.3c-0.3,0-0.5,0.1-0.7,0.2c-0.2,0.2-0.3,0.4-0.3,0.6
			c0,0.2,0.1,0.4,0.2,0.5c0.1,0.1,0.4,0.3,0.9,0.5c0.7,0.3,1.3,0.6,1.5,0.9c0.3,0.3,0.4,0.6,0.4,1.1c0,0.5-0.2,1-0.6,1.3
			c-0.4,0.3-0.9,0.5-1.5,0.5c-0.6,0-1.2-0.2-1.6-0.6c-0.4-0.4-0.6-0.8-0.6-1.4h1c0,0.3,0.1,0.6,0.3,0.8c0.2,0.2,0.5,0.3,0.8,0.3
			c0.3,0,0.6-0.1,0.8-0.2S111.6,149.3,111.6,149.1z"/>
		<path class="st1" d="M116.1,150.7c-0.8,0-1.4-0.2-1.8-0.7c-0.4-0.5-0.6-1.1-0.6-2v-0.7c0-0.9,0.2-1.6,0.6-2.2
			c0.4-0.5,1-0.8,1.7-0.8c0.7,0,1.3,0.2,1.6,0.7s0.5,1.2,0.5,2.1v0.7h-3.4v0.1c0,0.7,0.1,1.1,0.4,1.4s0.6,0.4,1.1,0.4
			c0.3,0,0.6-0.1,0.8-0.2c0.2-0.1,0.4-0.3,0.6-0.5l0.5,0.6C117.6,150.4,117,150.7,116.1,150.7z M115.9,145.2c-0.4,0-0.7,0.1-0.9,0.4
			c-0.2,0.3-0.3,0.7-0.3,1.3h2.4v-0.1c0-0.6-0.1-1-0.3-1.3C116.6,145.4,116.3,145.2,115.9,145.2z"/>
		<path class="st1" d="M121.4,149.9c0.3,0,0.6-0.1,0.8-0.3c0.2-0.2,0.3-0.5,0.3-0.9h0.9c0,0.6-0.2,1.1-0.6,1.5s-0.9,0.6-1.5,0.6
			c-0.8,0-1.3-0.2-1.7-0.7c-0.4-0.5-0.6-1.2-0.6-2.1v-0.7c0-0.9,0.2-1.6,0.6-2.1s1-0.7,1.7-0.7c0.6,0,1.1,0.2,1.5,0.6
			c0.4,0.4,0.6,0.9,0.6,1.6h-0.9c0-0.5-0.1-0.8-0.3-1c-0.2-0.2-0.5-0.3-0.8-0.3c-0.4,0-0.8,0.1-1,0.4s-0.3,0.8-0.3,1.4v0.8
			c0,0.7,0.1,1.2,0.3,1.5C120.6,149.7,121,149.9,121.4,149.9z"/>
		<path class="st1" d="M124.5,147.3c0-0.9,0.2-1.6,0.7-2.1c0.4-0.5,1-0.8,1.7-0.8s1.3,0.3,1.7,0.8c0.4,0.5,0.7,1.2,0.7,2.1v0.6
			c0,0.9-0.2,1.6-0.6,2.1c-0.4,0.5-1,0.8-1.7,0.8c-0.7,0-1.3-0.3-1.7-0.8c-0.4-0.5-0.7-1.2-0.7-2V147.3z M125.5,147.9
			c0,0.6,0.1,1.1,0.4,1.5c0.2,0.4,0.6,0.5,1,0.5c0.9,0,1.3-0.6,1.4-1.9v-0.7c0-0.6-0.1-1.1-0.4-1.5c-0.2-0.4-0.6-0.5-1-0.5
			c-0.4,0-0.7,0.2-1,0.5c-0.2,0.4-0.4,0.9-0.4,1.5V147.9z"/>
		<path class="st1" d="M131.5,144.5l0,0.7c0.4-0.5,0.9-0.8,1.5-0.8c1.1,0,1.6,0.7,1.7,2.2v4.1h-1v-4c0-0.5-0.1-0.8-0.2-1
			c-0.2-0.2-0.4-0.3-0.7-0.3c-0.3,0-0.5,0.1-0.7,0.2c-0.2,0.2-0.4,0.4-0.5,0.7v4.5h-1v-6.1H131.5z"/>
		<path class="st1" d="M135.9,147.3c0-0.9,0.2-1.7,0.5-2.2c0.4-0.5,0.9-0.7,1.5-0.7c0.6,0,1,0.2,1.4,0.7v-3.2h1v8.7h-0.9l-0.1-0.7
			c-0.3,0.5-0.8,0.8-1.4,0.8c-0.6,0-1.1-0.2-1.5-0.7c-0.4-0.5-0.5-1.2-0.6-2.1V147.3z M137,147.9c0,0.7,0.1,1.2,0.3,1.5
			c0.2,0.3,0.5,0.5,1,0.5c0.5,0,0.9-0.3,1.1-0.8V146c-0.3-0.5-0.6-0.7-1.1-0.7c-0.5,0-0.8,0.2-1,0.5c-0.2,0.3-0.3,0.8-0.3,1.5V147.9
			z"/>
		<path class="st1" d="M145.1,150.6c-0.1-0.1-0.1-0.4-0.1-0.7c-0.4,0.5-0.8,0.8-1.4,0.8c-0.6,0-1-0.2-1.3-0.5
			c-0.3-0.3-0.5-0.8-0.5-1.3c0-0.6,0.2-1.1,0.6-1.5c0.4-0.4,1-0.6,1.7-0.6h0.7v-0.7c0-0.4-0.1-0.6-0.2-0.8s-0.4-0.2-0.7-0.2
			c-0.3,0-0.5,0.1-0.7,0.3s-0.3,0.4-0.3,0.7h-1c0-0.3,0.1-0.6,0.3-0.9c0.2-0.3,0.4-0.5,0.8-0.7c0.3-0.2,0.7-0.2,1.1-0.2
			c0.6,0,1.1,0.2,1.4,0.5c0.3,0.3,0.5,0.8,0.5,1.4v3.1c0,0.5,0.1,0.9,0.2,1.2v0.1H145.1z M143.8,149.8c0.2,0,0.5-0.1,0.7-0.2
			c0.2-0.1,0.4-0.3,0.5-0.5v-1.5h-0.6c-0.5,0-0.9,0.1-1.1,0.3c-0.3,0.2-0.4,0.5-0.4,0.9c0,0.3,0.1,0.6,0.2,0.8
			C143.2,149.8,143.4,149.8,143.8,149.8z"/>
		<path class="st1" d="M150,145.4c-0.1,0-0.3,0-0.5,0c-0.5,0-0.9,0.3-1.1,0.8v4.4h-1v-6.1h1l0,0.6c0.3-0.5,0.6-0.7,1.1-0.7
			c0.2,0,0.3,0,0.4,0.1L150,145.4z"/>
		<path class="st1" d="M152.7,149l1.1-4.5h1.1l-2,7c-0.2,0.5-0.4,0.9-0.6,1.2c-0.3,0.3-0.6,0.4-0.9,0.4c-0.1,0-0.3,0-0.5-0.1v-0.9
			l0.2,0c0.3,0,0.5-0.1,0.7-0.2c0.2-0.1,0.3-0.4,0.4-0.7l0.2-0.7l-1.8-6.1h1.1L152.7,149z"/>
		<path class="st1" d="M161.5,149.1c0-0.2-0.1-0.4-0.2-0.6c-0.2-0.2-0.5-0.3-0.9-0.5c-0.5-0.2-0.9-0.4-1.1-0.6
			c-0.2-0.2-0.4-0.3-0.5-0.5c-0.1-0.2-0.2-0.4-0.2-0.7c0-0.5,0.2-0.9,0.5-1.2c0.4-0.3,0.8-0.5,1.4-0.5c0.6,0,1.1,0.2,1.4,0.5
			c0.4,0.3,0.5,0.8,0.5,1.3h-1c0-0.3-0.1-0.5-0.3-0.7c-0.2-0.2-0.4-0.3-0.7-0.3c-0.3,0-0.5,0.1-0.7,0.2c-0.2,0.2-0.3,0.4-0.3,0.6
			c0,0.2,0.1,0.4,0.2,0.5c0.1,0.1,0.4,0.3,0.9,0.5c0.7,0.3,1.3,0.6,1.5,0.9c0.3,0.3,0.4,0.6,0.4,1.1c0,0.5-0.2,1-0.6,1.3
			c-0.4,0.3-0.9,0.5-1.5,0.5c-0.6,0-1.2-0.2-1.6-0.6c-0.4-0.4-0.6-0.8-0.6-1.4h1c0,0.3,0.1,0.6,0.3,0.8c0.2,0.2,0.5,0.3,0.8,0.3
			c0.3,0,0.6-0.1,0.8-0.2C161.5,149.5,161.5,149.3,161.5,149.1z"/>
		<path class="st1" d="M166,149.9c0.3,0,0.6-0.1,0.8-0.3c0.2-0.2,0.3-0.5,0.3-0.9h0.9c0,0.6-0.2,1.1-0.6,1.5
			c-0.4,0.4-0.9,0.6-1.5,0.6c-0.8,0-1.3-0.2-1.7-0.7c-0.4-0.5-0.6-1.2-0.6-2.1v-0.7c0-0.9,0.2-1.6,0.6-2.1c0.4-0.5,1-0.7,1.7-0.7
			c0.6,0,1.1,0.2,1.5,0.6c0.4,0.4,0.6,0.9,0.6,1.6h-0.9c0-0.5-0.1-0.8-0.3-1c-0.2-0.2-0.5-0.3-0.8-0.3c-0.4,0-0.8,0.1-1,0.4
			c-0.2,0.3-0.3,0.8-0.3,1.4v0.8c0,0.7,0.1,1.2,0.3,1.5C165.2,149.7,165.5,149.9,166,149.9z"/>
		<path class="st1" d="M170.2,145.1c0.4-0.5,0.9-0.7,1.5-0.7c1.1,0,1.6,0.7,1.7,2.2v4.1h-1v-4c0-0.5-0.1-0.8-0.2-1
			c-0.2-0.2-0.4-0.3-0.7-0.3c-0.3,0-0.5,0.1-0.7,0.2c-0.2,0.2-0.4,0.4-0.5,0.7v4.5h-1v-8.7h1V145.1z"/>
		<path class="st1" d="M174.6,147.3c0-0.9,0.2-1.6,0.6-2.1c0.4-0.5,1-0.8,1.7-0.8s1.3,0.3,1.7,0.8c0.4,0.5,0.7,1.2,0.7,2.1v0.6
			c0,0.9-0.2,1.6-0.6,2.1c-0.4,0.5-1,0.8-1.7,0.8c-0.7,0-1.3-0.3-1.7-0.8c-0.4-0.5-0.7-1.2-0.7-2V147.3z M175.6,147.9
			c0,0.6,0.1,1.1,0.4,1.5c0.2,0.4,0.6,0.5,1,0.5c0.9,0,1.3-0.6,1.4-1.9v-0.7c0-0.6-0.1-1.1-0.4-1.5c-0.3-0.4-0.6-0.5-1-0.5
			c-0.4,0-0.7,0.2-1,0.5c-0.2,0.4-0.4,0.9-0.4,1.5V147.9z"/>
		<path class="st1" d="M180.5,147.3c0-0.9,0.2-1.6,0.6-2.1c0.4-0.5,1-0.8,1.7-0.8s1.3,0.3,1.7,0.8c0.4,0.5,0.7,1.2,0.7,2.1v0.6
			c0,0.9-0.2,1.6-0.6,2.1c-0.4,0.5-1,0.8-1.7,0.8c-0.7,0-1.3-0.3-1.7-0.8c-0.4-0.5-0.7-1.2-0.7-2V147.3z M181.5,147.9
			c0,0.6,0.1,1.1,0.4,1.5c0.2,0.4,0.6,0.5,1,0.5c0.9,0,1.3-0.6,1.4-1.9v-0.7c0-0.6-0.1-1.1-0.4-1.5c-0.3-0.4-0.6-0.5-1-0.5
			c-0.4,0-0.7,0.2-1,0.5c-0.2,0.4-0.4,0.9-0.4,1.5V147.9z"/>
		<path class="st1" d="M187.6,150.6h-1v-8.7h1V150.6z"/>
	</g>
	<g class="st7">
		<path class="st3" d="M190,150c0-0.1,0-0.2-0.1-0.2c-0.1-0.1-0.2-0.1-0.4-0.2c-0.2-0.1-0.4-0.2-0.5-0.2c-0.1-0.1-0.2-0.1-0.2-0.2
			c0-0.1-0.1-0.2-0.1-0.3c0-0.2,0.1-0.4,0.2-0.5c0.1-0.1,0.3-0.2,0.6-0.2c0.2,0,0.4,0.1,0.6,0.2c0.1,0.1,0.2,0.3,0.2,0.5h-0.4
			c0-0.1,0-0.2-0.1-0.3c-0.1-0.1-0.2-0.1-0.3-0.1c-0.1,0-0.2,0-0.3,0.1c-0.1,0.1-0.1,0.1-0.1,0.3c0,0.1,0,0.1,0.1,0.2
			c0.1,0.1,0.2,0.1,0.4,0.2c0.3,0.1,0.5,0.2,0.6,0.3c0.1,0.1,0.2,0.3,0.2,0.4c0,0.2-0.1,0.4-0.2,0.5c-0.1,0.1-0.4,0.2-0.6,0.2
			c-0.3,0-0.5-0.1-0.6-0.2c-0.2-0.1-0.2-0.3-0.2-0.6h0.4c0,0.1,0,0.2,0.1,0.3c0.1,0.1,0.2,0.1,0.3,0.1c0.1,0,0.2,0,0.3-0.1
			C189.9,150.2,190,150.1,190,150z"/>
	</g>
</g>
</svg>
