<?xml version="1.0" encoding="UTF-8"?><svg id="Layer_1" xmlns="http://www.w3.org/2000/svg" viewBox="0 0 626.61 739.33"><defs><style>.cls-1{fill:#fefefe;}.cls-2{fill:#7f7474;}.cls-3{fill:#667323;}.cls-4{fill:#b2bc7f;}.cls-5{fill:#a5a5a0;}.cls-6{fill:#514b4b;}</style></defs><polygon class="cls-5" points="626.61 558.44 313.3 739.33 0 558.44 0 196.66 313.3 15.77 626.61 196.66 626.61 558.44"/><g><path class="cls-6" d="M398.49,132.82c-3.44,2.67-6.89,5.35-10.54,8.18,3.94,6.92,8.44,13.49,11.62,20.64,11.55,25.96,17.94,52.91,14.34,81.61-1.28,10.18-1.72,20.47-3.27,30.59-3,19.55-13.1,35.48-26.53,49.55-4.18,4.37-8.39,8.72-12.43,13.22-4.3,4.79-4.03,7.77-.36,12.78,3.68,5.03,7.43,10.18,10.02,15.8,12.64,27.44,24.95,55.03,37.26,82.62,6.89,15.46,13.47,31.06,20.4,46.5,.72,1.6,2.75,3.16,4.48,3.65,12.72,3.58,22.7,11.14,31.19,20.92,1.57,1.81,3.44,3.87,3.85,6.06,1.36,7.16,6.35,8.4,12.4,8.97,5.24,.5,10.41,1.64,15.62,2.52,5.4,.91,8.76,5,7.58,10.38-1.05,4.83-2.73,9.63-4.84,14.1-8.2,17.37-16.73,34.49-27.42,50.61-15.47,23.32-33.06,44.31-56.12,60.52-12,8.44-23.48,17.62-35.17,26.5-12.31,9.35-25.76,16.23-40.8,20.21-12.72,3.37-25.32,7.28-37.8,11.47-12.45,4.18-24.77,3.68-36.96-.23-28.35-9.08-55.31-21.43-80.91-36.57-6.84-4.04-12.86-9.47-19.54-14.46-2.38,6.15-4.54,12.25-7.09,18.18-2.51,5.83-5.03,11.71-8.23,17.17-5.15,8.78-12.84,9.03-17.96,.25-6.23-10.68-11.46-21.93-17.23-32.88-15.13-28.75-30.35-57.45-45.46-86.21-1.89-3.6-3.62-7.36-4.87-11.22-1.62-5.04-1.35-10.21,1.29-14.93,14.54-26.01,29.19-51.96,43.67-78,3.74-6.73,7.26-13.61,10.52-20.58,12.48-26.68,27.54-51.86,44.55-75.83,4.49-6.33,10.82-11.34,16.15-17.11,2.01-2.18,4.01-4.58,5.26-7.24,6.61-14.07,14.73-27.11,25.43-38.45,.41-.43,1.07-.85,1.14-1.34,1.5-11.14,8.96-19.01,15.37-27.31,4.05-5.25,5.83-9.5,2.02-15.98-3.63-6.18-5.98-13.25-7.98-20.19-1.48-5.1-4.58-8.1-8.77-10.61-10.84-6.52-17.64-16.2-21.74-27.97-1.47-4.21-1.2-8.17,1.05-12.18,3.1-5.53,5.55-11.53,12.51-13.35,1.99-.52,4.08-.68,6.03-1.31,1.28-.41,2.39-1.36,3.37-1.95-6.04-3.69-11.27-6.82-16.43-10.05-31.68-19.84-63.36-39.7-95.01-59.58-6.48-4.07-6.74-6.93-.13-11.18,13.72-8.83,27.61-17.42,41.67-25.69C206.07,62.63,258.56,32.02,310.97,1.29c3.17-1.86,5.47-1.79,8.42,.77,39.61,34.31,77.05,70.87,112.98,109,.62,.65,1.18,1.36,2.2,2.55-6.57,3.23-12.87,6.34-19.18,9.44-5.63,3.25-11.27,6.5-16.9,9.76h0Zm-18.26,248.94c-6.38,6.28-12.15,11.5-17.32,17.25-2.49,2.77-4.59,3.75-7.71,1.78-3.07-1.93-5.95-4.18-9.1-5.96-15.93-9.01-31.84-18.07-47.94-26.76-4.57-2.47-9.66-4.81-14.72-5.34-8.46-.89-17.2-1.19-25.6-.05-9.64,1.31-19.33,3.63-28.45,7-16.59,6.13-29.95,17.38-40.12,31.51-13.94,19.37-27.2,39.3-39.64,59.67-14.9,24.39-28.78,49.41-42.84,74.3-7.14,12.64-13.78,25.56-20.38,38.49-.82,1.61-.57,4.4,.28,6.1,3.58,7.14,7.54,14.1,11.43,21.09,12.86,23.08,25.77,46.13,38.61,69.22,4.55,8.18,8.95,16.44,13.44,24.65,.65,1.2,1.42,2.33,2.56,4.19,1.15-4.94,2.18-8.87,2.98-12.85,8.11-40.42,19.01-79.97,35.47-117.92,15.07-34.76,30.71-69.14,54.39-99.12,20.1-25.45,42.45-48.18,74.14-59.02,13.12-4.49,26.32-5.39,39.18,1.25,6.94,3.58,13.92,7.07,20.78,10.81,3.97,2.16,7.83,4.57,11.52,7.17,2.69,1.9,5.02,4.29,7.52,6.46,.31-.21,.61-.43,.92-.64-6.26-17.18-12.51-34.35-19.41-53.29h.01Zm-140.58-122.46c-.98-.23-1.95-.47-2.93-.7,4.99,10.28,10.03,20.54,14.94,30.85,2.93,6.14,8.31,9.34,14.07,12.07,12.98,6.17,25.9,12.47,39.03,18.31,16.01,7.12,32.22,13.79,48.31,20.76,2.6,1.13,4.44,.71,6.33-1.35,3.16-3.43,6.51-6.69,9.82-9.98,10.07-10.01,18.15-21.6,24.42-34.17,8.41-16.86,5.14-35.36,6.11-53.08-10.13,.71-19.77,1.12-29.35,2.14-5.88,.63-7.96,.1-10.61-5-1.04-2.01-1.84-4.14-2.77-6.21-1.87-4.17-3.74-8.34-5.89-13.1-4.09,7.3-7.57,13.82-11.39,20.14-1.18,1.94-3.07,4.22-5.06,4.75-4.73,1.26-9.69,1.92-14.59,2.19-9.04,.5-18.13,.25-27.16,.9-4.98,.36-8.02-1.35-10.25-5.59-4.49-8.54-9.13-17.01-13.79-25.46-.6-1.08-1.59-2.34-2.67-2.68-2.67-.84-4.94-.65-5.51,3.09-1.45,9.55-2.96,19.11-4.94,28.56-.44,2.09-2.7,4.92-4.53,5.26-1.69,.32-4.66-1.79-5.77-3.62-5.7-9.41-10.68-19.25-16.59-28.52-1.66-2.61-5.49-4.97-8.51-5.23-2.32-.2-5.49,2.63-7.32,4.89-3.5,4.32-1,9.14,.58,13.37,3.8,10.19,11.66,16.14,21.85,19.34,1.82,.57,4.32,1.17,5,2.52,.69,1.37-.47,3.68-.82,5.57v-.02Zm158.12-59.26c-.85-3.44-1.37-7.21-2.7-10.67-5.67-14.63-11.27-29.31-17.66-43.64-1.37-3.08-6.73-7.3-8.85-6.62-8.98,2.88-17.63,7.03-24.11,14.51-1.09,1.26-3.24,2.48-4.77,2.33-4.15-.4-8.3-1.3-12.32-2.45-13.14-3.74-26.52-4.02-40-3.22-4.3,.26-7.21,1.93-8.55,6.5-3.91,13.34-8.18,26.58-12.29,39.87-.43,1.38-.7,2.82-1.2,4.86,44.37,2.76,88.25,3.52,132.45-1.48h0Zm3.79,335.06c.41,.3,.82,.59,1.23,.89-3.23,8.03-5.45,16.68-9.95,23.92-4.8,7.73-11.73,14.14-17.77,21.09-1.66,1.9-3.79,3.44-5.16,5.52-1.53,2.33-.63,4.62,2.08,5.34,4.76,1.27,9.59,2.45,14.47,3.1,8.08,1.09,16.28,1.33,24.31,2.68,7.63,1.29,13.89-.41,19.67-5.47,8.97-7.84,18.12-15.49,27.34-23.04,8.41-6.89,11.69-16.47,13.03-26.52,.62-4.61-.42-10.45-2.92-14.29-8.75-13.45-21.02-22.02-37.76-22.18-3.74-.04-7.64,.73-11.23,1.86-13.37,4.23-22.78,14.34-33.21,22.92-2.3,1.9-4.72,3.89-2.47,7.15,2.09,3.02,4.99,2.81,8.08,1.38,3.37-1.56,6.84-2.91,10.26-4.35h0Zm-168.23-205.83c9.39,3.66,17.59,6.71,25.68,10.04,7.41,3.05,14.73,6.32,22.03,9.64,8.42,3.83,16.76,7.84,25.15,11.73,9.5,4.4,19.13,8.53,28.48,13.22,5.78,2.9,11.14,6.64,16.68,10.03,1.81,1.11,3.25,1.76,5-.48,3.57-4.56,7.06-9.32,11.37-13.11,3.59-3.16,2.74-6.14,1.21-9.2-1.98-3.96-4.59-7.6-7.25-11.89-1.47,.94-2.83,1.72-4.09,2.62-2.23,1.59-4.38,3.44-7.41,2.32-9.35-3.44-18.76-6.75-28-10.46-5.28-2.12-10.28-4.95-15.42-7.42-10.78-5.17-21.63-10.18-32.33-15.49-7.54-3.74-14.83-7.96-22.37-11.69-1.12-.55-3.67-.19-4.36,.68-4.87,6.23-9.44,12.71-14.36,19.46h-.01ZM375.07,107.67c.49-.42,.98-.84,1.47-1.26-1.94-2.32-3.6-4.97-5.89-6.88-6.15-5.13-12.35-10.26-18.92-14.81-9.79-6.78-19.6-13.27-31.91-15.53-8.89-1.63-17.42-1.86-26.27-.74-10.75,1.36-21.29,3.81-30.25,9.72-12.42,8.2-24.68,16.88-35.86,26.67-15.45,13.52-25.52,30.94-31.27,50.69-.86,2.95-.7,6.25-.66,9.38,.01,.86,1.29,1.7,2.23,2.83,2.57-4.73,4.91-8.62,6.86-12.69,14.4-30.05,39.87-47.85,68.7-61.73,13.15-6.33,27.25-8.07,41.91-8.03,15.19,.04,29.45,2.25,42.38,10.5,5.94,3.79,11.66,7.91,17.48,11.87h0Zm-91.26,107.53c2.86,6.13,5.31,11.74,8.15,17.15,.67,1.27,2.68,2.58,4.08,2.58,10.25,.05,20.51-.19,30.75-.46,.99-.03,2.38-.69,2.86-1.49,3.07-5.16,5.94-10.45,9.22-16.31-18.54-.5-36.51-.98-55.06-1.47h0Zm78.71,.79c2.21,5.85,3.94,10.84,6.02,15.68,.52,1.21,2.27,2.84,3.3,2.73,9.58-.96,19.12-2.25,29.24-3.52-.21-6.13-.4-11.92-.61-18.24-13.02,1.15-25.16,2.22-37.95,3.35h0Zm-104.78,135.34l-.08-1.5c-.92-.62-1.78-1.4-2.78-1.84-6.36-2.85-12.74-5.68-19.15-8.41-9.48-4.04-8.08-4.59-14.01,3.08-.83,1.07-1.92,1.94-2.69,3.04-4.45,6.3-8.85,12.65-13.26,18.98,.27,.41,.54,.82,.81,1.24,16.37-7.22,32.71-14.56,51.17-14.59h0Zm-23.1-151.3c5.78,.19,11.92,.51,18.05,.44,.92,0,2.32-1.71,2.65-2.87,2.02-7.09,3.87-14.23,5.63-21.39,.86-3.49,1.4-7.06,2.09-10.59-8.17,5.67-15.08,11.98-22.53,17.57-5.75,4.31-8.08,9.31-5.89,16.84h0Zm12.87,32.47c1.14-7.04,2.11-13.01,3.14-19.35-4.89-.16-9.4-.31-14.85-.48,4.07,6.9,7.62,12.9,11.71,19.83Z"/><path class="cls-3" d="M398.49,132.82c5.63-3.25,11.27-6.5,16.9-9.76,2.87,14.22,6.06,28.39,8.52,42.68,3.18,18.45,6.42,36.94,8.48,55.53,2.5,22.51,3.95,45.14,5.58,67.74,.88,12.14,3.59,23.86,6.67,35.56,2.3,8.74-6.21,17.98-15.05,16.52-2.44-.4-4.65-1.04-4.28-4.56,1.63-15.52,.84-30.99-.67-46.5-1.09-11.24-.81-22.62-1.9-33.86-1.12-11.56-3.13-23.03-4.8-34.54-1.3-8.97-2.3-18-4.11-26.87-2.2-10.8-5.06-21.47-7.72-32.17-2.48-9.94-5.08-19.86-7.63-29.78h0Z"/><path class="cls-4" d="M380.23,381.75c6.9,18.93,13.15,36.11,19.41,53.29-.31,.21-.61,.43-.92,.64-2.49-2.17-4.83-4.57-7.52-6.46-3.69-2.6-7.55-5.01-11.52-7.17-6.85-3.74-13.84-7.23-20.78-10.81-12.86-6.64-26.06-5.74-39.18-1.25-31.69,10.84-54.04,33.58-74.14,59.02-23.69,29.98-39.32,64.36-54.39,99.12-16.46,37.96-27.36,77.5-35.47,117.92-.8,3.98-1.82,7.91-2.98,12.85-1.14-1.87-1.91-3-2.56-4.19-4.49-8.21-8.89-16.47-13.44-24.65-12.84-23.09-25.75-46.14-38.61-69.22-3.89-6.99-7.85-13.95-11.43-21.09-.85-1.7-1.1-4.5-.28-6.1,6.59-12.93,13.24-25.85,20.38-38.49,14.06-24.9,27.93-49.92,42.84-74.3,12.45-20.37,25.7-40.3,39.64-59.67,10.17-14.13,23.53-25.38,40.12-31.51,9.12-3.37,18.81-5.69,28.45-7,8.39-1.14,17.14-.84,25.6,.05,5.05,.53,10.15,2.88,14.72,5.34,16.1,8.69,32.01,17.75,47.94,26.76,3.15,1.78,6.03,4.03,9.1,5.96,3.12,1.96,5.22,.99,7.71-1.78,5.17-5.76,10.94-10.97,17.32-17.25h-.01Z"/><path class="cls-2" d="M239.65,259.28c.35-1.9,1.52-4.21,.82-5.57-.68-1.35-3.18-1.95-5-2.52-10.19-3.2-18.05-9.15-21.85-19.34-1.58-4.23-4.08-9.05-.58-13.37,1.83-2.26,5-5.09,7.32-4.89,3.02,.26,6.85,2.62,8.51,5.23,5.9,9.27,10.89,19.11,16.59,28.52,1.11,1.83,4.09,3.94,5.77,3.62,1.83-.34,4.09-3.17,4.53-5.26,1.98-9.45,3.49-19.01,4.94-28.56,.57-3.74,2.83-3.93,5.51-3.09,1.08,.34,2.07,1.6,2.67,2.68,4.67,8.45,9.3,16.92,13.79,25.46,2.23,4.24,5.27,5.95,10.25,5.59,9.03-.65,18.12-.4,27.16-.9,4.9-.27,9.87-.93,14.59-2.19,1.99-.53,3.88-2.8,5.06-4.75,3.83-6.31,7.3-12.84,11.39-20.14,2.14,4.77,4.02,8.93,5.89,13.1,.93,2.07,1.72,4.2,2.77,6.21,2.64,5.1,4.73,5.62,10.61,5,9.58-1.02,19.23-1.44,29.35-2.14-.96,17.72,2.31,36.22-6.11,53.08-6.27,12.57-14.35,24.16-24.42,34.17-3.31,3.29-6.66,6.55-9.82,9.98-1.9,2.06-3.73,2.47-6.33,1.35-16.08-6.96-32.3-13.63-48.31-20.76-13.13-5.84-26.05-12.14-39.03-18.31-5.76-2.74-11.15-5.93-14.07-12.07-4.91-10.32-9.95-20.57-14.94-30.85,.98,.23,1.95,.47,2.93,.7v.02Zm123.5,18.32c6.95-3.12,10.99-8.03,13.3-14.25,.47-1.26-.74-3.87-1.97-4.8-.87-.65-3.51-.02-4.62,.92-4.34,3.66-8.36,7.71-12.57,11.54-2.23,2.03-1.55,3.93,.52,5.12,1.68,.97,3.85,1.09,5.35,1.47h0Z"/><path class="cls-2" d="M397.78,200.02c-44.2,5-88.08,4.24-132.45,1.48,.5-2.05,.77-3.48,1.2-4.86,4.11-13.29,8.38-26.53,12.29-39.87,1.34-4.58,4.25-6.24,8.55-6.5,13.48-.81,26.86-.52,40,3.22,4.02,1.14,8.17,2.04,12.32,2.45,1.53,.15,3.67-1.07,4.77-2.33,6.48-7.48,15.13-11.62,24.11-14.51,2.12-.68,7.48,3.54,8.85,6.62,6.39,14.32,11.99,29,17.66,43.64,1.34,3.46,1.86,7.23,2.7,10.67h0Z"/><path class="cls-2" d="M401.57,535.07c-3.42,1.44-6.89,2.8-10.26,4.35-3.09,1.43-5.99,1.64-8.08-1.38-2.25-3.26,.17-5.25,2.47-7.15,10.42-8.59,19.83-18.69,33.21-22.92,3.59-1.14,7.48-1.9,11.23-1.86,16.73,.17,29,8.73,37.76,22.18,2.5,3.84,3.53,9.68,2.92,14.29-1.34,10.05-4.62,19.63-13.03,26.52-9.22,7.55-18.37,15.2-27.34,23.04-5.78,5.05-12.04,6.75-19.67,5.47-8.02-1.36-16.23-1.59-24.31-2.68-4.88-.66-9.7-1.84-14.47-3.1-2.7-.72-3.61-3.01-2.08-5.34,1.36-2.07,3.5-3.62,5.16-5.52,6.05-6.94,12.97-13.36,17.77-21.09,4.5-7.24,6.72-15.89,9.95-23.92-.41-.3-.82-.59-1.23-.89h0Z"/><path class="cls-3" d="M233.34,329.24c4.92-6.75,9.48-13.23,14.36-19.46,.69-.88,3.24-1.24,4.36-.68,7.54,3.74,14.83,7.96,22.37,11.69,10.71,5.31,21.56,10.33,32.33,15.49,5.15,2.47,10.14,5.3,15.42,7.42,9.24,3.71,18.65,7.02,28,10.46,3.03,1.12,5.18-.73,7.41-2.32,1.27-.9,2.62-1.69,4.09-2.62,2.66,4.29,5.27,7.93,7.25,11.89,1.53,3.06,2.38,6.04-1.21,9.2-4.31,3.78-7.8,8.55-11.37,13.11-1.75,2.23-3.19,1.58-5,.48-5.53-3.39-10.9-7.12-16.68-10.03-9.35-4.7-18.98-8.82-28.48-13.22-8.39-3.89-16.73-7.9-25.15-11.73-7.29-3.32-14.62-6.59-22.03-9.64-8.09-3.33-16.29-6.38-25.68-10.04h0Z"/><path class="cls-1" d="M375.07,107.67c-5.82-3.97-11.55-8.09-17.48-11.87-12.93-8.25-27.19-10.46-42.38-10.5-14.66-.04-28.76,1.71-41.91,8.03-28.83,13.87-54.3,31.68-68.7,61.73-1.95,4.07-4.29,7.96-6.86,12.69-.94-1.13-2.22-1.97-2.23-2.83-.04-3.13-.2-6.43,.66-9.38,5.75-19.75,15.82-37.16,31.27-50.69,11.18-9.79,23.44-18.46,35.86-26.67,8.96-5.92,19.5-8.36,30.25-9.72,8.85-1.12,17.38-.89,26.27,.74,12.31,2.26,22.12,8.74,31.91,15.53,6.58,4.55,12.77,9.68,18.92,14.81,2.28,1.91,3.94,4.57,5.89,6.88-.49,.42-.98,.84-1.47,1.26h0Z"/><path class="cls-1" d="M283.81,215.19c18.56,.5,36.53,.98,55.06,1.47-3.28,5.86-6.15,11.15-9.22,16.31-.48,.8-1.87,1.46-2.86,1.49-10.25,.28-20.5,.51-30.75,.46-1.4,0-3.42-1.32-4.08-2.58-2.84-5.41-5.29-11.02-8.15-17.15h0Z"/><path class="cls-1" d="M362.52,215.98c12.79-1.13,24.92-2.2,37.95-3.35,.21,6.32,.41,12.11,.61,18.24-10.12,1.27-19.67,2.56-29.24,3.52-1.03,.1-2.78-1.52-3.3-2.73-2.08-4.84-3.81-9.83-6.02-15.68h0Z"/><path class="cls-3" d="M257.74,351.32c-18.46,.03-34.8,7.37-51.17,14.59-.27-.41-.54-.82-.81-1.24,4.41-6.33,8.81-12.67,13.26-18.98,.78-1.1,1.86-1.98,2.69-3.04,5.94-7.67,4.53-7.12,14.01-3.08,6.41,2.73,12.79,5.56,19.15,8.41,1,.45,1.86,1.22,2.78,1.84l.08,1.5h0Z"/><path class="cls-1" d="M234.64,200.02c-2.19-7.53,.14-12.53,5.89-16.84,7.45-5.59,14.36-11.9,22.53-17.57-.69,3.53-1.23,7.1-2.09,10.59-1.76,7.16-3.61,14.3-5.63,21.39-.33,1.16-1.73,2.86-2.65,2.87-6.13,.07-12.27-.26-18.05-.44h0Z"/><path class="cls-1" d="M247.51,232.49c-4.09-6.93-7.64-12.94-11.71-19.83,5.45,.18,9.95,.32,14.85,.48-1.03,6.34-1.99,12.31-3.14,19.35Z"/><path class="cls-6" d="M363.14,277.6c-1.51-.38-3.67-.51-5.35-1.47-2.07-1.19-2.74-3.09-.52-5.12,4.21-3.83,8.22-7.88,12.57-11.54,1.11-.94,3.76-1.57,4.62-.92,1.23,.93,2.44,3.53,1.97,4.8-2.3,6.22-6.35,11.13-13.3,14.25h0Z"/></g></svg>