<?xml version="1.0" encoding="utf-8"?>
<!-- Generator: Adobe Illustrator 27.0.1, SVG Export Plug-In . SVG Version: 6.00 Build 0)  -->
<svg version="1.1" id="Layer_1" xmlns="http://www.w3.org/2000/svg" xmlns:xlink="http://www.w3.org/1999/xlink" x="0px" y="0px"
	 viewBox="0 0 225 225" style="enable-background:new 0 0 225 225;" xml:space="preserve">
<style type="text/css">
	.st0{fill:#828A43;}
	.st1{fill:#FFFFFF;}
	.st2{fill:#A5A49F;}
	.st3{fill:#524C4C;}
	.st4{fill:#B3BD80;}
	.st5{fill:#677432;}
	.st6{fill:#7F7474;}
	.st7{enable-background:new    ;}
</style>
<polygon class="st2" points="203.6,165.1 112.5,217.7 21.4,165.1 21.4,59.9 112.5,7.3 203.6,59.9 "/>
<g>
	<path class="st3" d="M134.3,43.3c-1,0.8-2,1.6-3.1,2.4c1.2,2,2.5,4,3.4,6.1c3.4,7.6,5.3,15.6,4.2,24c-0.4,3-0.5,6-1,9
		c-0.9,5.8-3.9,10.4-7.8,14.6c-1.2,1.3-2.5,2.6-3.7,3.9c-1.3,1.4-1.2,2.3-0.1,3.8c1.1,1.5,2.2,3,2.9,4.6c3.7,8.1,7.3,16.2,11,24.3
		c2,4.5,4,9.1,6,13.7c0.2,0.5,0.8,0.9,1.3,1.1c3.7,1.1,6.7,3.3,9.2,6.2c0.5,0.5,1,1.1,1.1,1.8c0.4,2.1,1.9,2.5,3.6,2.6
		c1.5,0.1,3.1,0.5,4.6,0.7c1.6,0.3,2.6,1.5,2.2,3.1c-0.3,1.4-0.8,2.8-1.4,4.1c-2.4,5.1-4.9,10.1-8.1,14.9c-4.6,6.9-9.7,13-16.5,17.8
		c-3.5,2.5-6.9,5.2-10.3,7.8c-3.6,2.8-7.6,4.8-12,5.9c-3.7,1-7.4,2.1-11.1,3.4c-3.7,1.2-7.3,1.1-10.9-0.1
		c-8.3-2.7-16.3-6.3-23.8-10.8c-2-1.2-3.8-2.8-5.7-4.3c-0.7,1.8-1.3,3.6-2.1,5.3c-0.7,1.7-1.5,3.4-2.4,5.1c-1.5,2.6-3.8,2.7-5.3,0.1
		c-1.8-3.1-3.4-6.5-5.1-9.7c-4.5-8.5-8.9-16.9-13.4-25.4c-0.6-1.1-1.1-2.2-1.4-3.3c-0.5-1.5-0.4-3,0.4-4.4
		c4.3-7.7,8.6-15.3,12.8-22.9c1.1-2,2.1-4,3.1-6.1c3.7-7.8,8.1-15.3,13.1-22.3c1.3-1.9,3.2-3.3,4.8-5c0.6-0.6,1.2-1.3,1.5-2.1
		c1.9-4.1,4.3-8,7.5-11.3c0.1-0.1,0.3-0.3,0.3-0.4c0.4-3.3,2.6-5.6,4.5-8c1.2-1.5,1.7-2.8,0.6-4.7c-1.1-1.8-1.8-3.9-2.3-5.9
		c-0.4-1.5-1.3-2.4-2.6-3.1c-3.2-1.9-5.2-4.8-6.4-8.2c-0.4-1.2-0.4-2.4,0.3-3.6c0.9-1.6,1.6-3.4,3.7-3.9c0.6-0.2,1.2-0.2,1.8-0.4
		c0.4-0.1,0.7-0.4,1-0.6c-1.8-1.1-3.3-2-4.8-3c-9.3-5.8-18.6-11.7-28-17.5c-1.9-1.2-2-2,0-3.3c4-2.6,8.1-5.1,12.3-7.6
		c15.4-9.1,30.9-18.1,46.3-27.1c0.9-0.5,1.6-0.5,2.5,0.2c11.7,10.1,22.7,20.9,33.2,32.1c0.2,0.2,0.3,0.4,0.6,0.8
		c-1.9,1-3.8,1.9-5.6,2.8C137.6,41.4,136,42.3,134.3,43.3L134.3,43.3z M128.9,116.5c-1.9,1.8-3.6,3.4-5.1,5.1
		c-0.7,0.8-1.4,1.1-2.3,0.5c-0.9-0.6-1.8-1.2-2.7-1.8c-4.7-2.7-9.4-5.3-14.1-7.9c-1.3-0.7-2.8-1.4-4.3-1.6c-2.5-0.3-5.1-0.4-7.5,0
		c-2.8,0.4-5.7,1.1-8.4,2.1c-4.9,1.8-8.8,5.1-11.8,9.3c-4.1,5.7-8,11.6-11.7,17.6c-4.4,7.2-8.5,14.5-12.6,21.9
		c-2.1,3.7-4.1,7.5-6,11.3c-0.2,0.5-0.2,1.3,0.1,1.8c1.1,2.1,2.2,4.1,3.4,6.2c3.8,6.8,7.6,13.6,11.4,20.4c1.3,2.4,2.6,4.8,4,7.3
		c0.2,0.4,0.4,0.7,0.8,1.2c0.3-1.5,0.6-2.6,0.9-3.8c2.4-11.9,5.6-23.5,10.4-34.7c4.4-10.2,9-20.3,16-29.2
		c5.9-7.5,12.5-14.2,21.8-17.4c3.9-1.3,7.7-1.6,11.5,0.4c2,1.1,4.1,2.1,6.1,3.2c1.2,0.6,2.3,1.3,3.4,2.1c0.8,0.6,1.5,1.3,2.2,1.9
		c0.1-0.1,0.2-0.1,0.3-0.2C132.8,127.2,131,122.1,128.9,116.5L128.9,116.5z M87.6,80.5c-0.3-0.1-0.6-0.1-0.9-0.2c1.5,3,3,6,4.4,9.1
		c0.9,1.8,2.4,2.7,4.1,3.6c3.8,1.8,7.6,3.7,11.5,5.4c4.7,2.1,9.5,4.1,14.2,6.1c0.8,0.3,1.3,0.2,1.9-0.4c0.9-1,1.9-2,2.9-2.9
		c3-2.9,5.3-6.4,7.2-10.1c2.5-5,1.5-10.4,1.8-15.6c-3,0.2-5.8,0.3-8.6,0.6c-1.7,0.2-2.3,0-3.1-1.5c-0.3-0.6-0.5-1.2-0.8-1.8
		c-0.6-1.2-1.1-2.5-1.7-3.9c-1.2,2.1-2.2,4.1-3.4,5.9c-0.3,0.6-0.9,1.2-1.5,1.4c-1.4,0.4-2.9,0.6-4.3,0.6c-2.7,0.1-5.3,0.1-8,0.3
		c-1.5,0.1-2.4-0.4-3-1.6c-1.3-2.5-2.7-5-4.1-7.5c-0.2-0.3-0.5-0.7-0.8-0.8c-0.8-0.2-1.5-0.2-1.6,0.9c-0.4,2.8-0.9,5.6-1.5,8.4
		c-0.1,0.6-0.8,1.4-1.3,1.5c-0.5,0.1-1.4-0.5-1.7-1.1c-1.7-2.8-3.1-5.7-4.9-8.4c-0.5-0.8-1.6-1.5-2.5-1.5c-0.7-0.1-1.6,0.8-2.2,1.4
		c-1,1.3-0.3,2.7,0.2,3.9c1.1,3,3.4,4.7,6.4,5.7c0.5,0.2,1.3,0.3,1.5,0.7C88,79.3,87.7,79.9,87.6,80.5L87.6,80.5z M134.1,63.1
		c-0.3-1-0.4-2.1-0.8-3.1c-1.7-4.3-3.3-8.6-5.2-12.8c-0.4-0.9-2-2.1-2.6-1.9c-2.6,0.8-5.2,2.1-7.1,4.3c-0.3,0.4-1,0.7-1.4,0.7
		c-1.2-0.1-2.4-0.4-3.6-0.7c-3.9-1.1-7.8-1.2-11.8-0.9c-1.3,0.1-2.1,0.6-2.5,1.9c-1.2,3.9-2.4,7.8-3.6,11.7
		c-0.1,0.4-0.2,0.8-0.4,1.4C108.2,64.3,121.1,64.5,134.1,63.1L134.1,63.1z M135.2,161.6c0.1,0.1,0.2,0.2,0.4,0.3
		c-1,2.4-1.6,4.9-2.9,7c-1.4,2.3-3.5,4.2-5.2,6.2c-0.5,0.6-1.1,1-1.5,1.6c-0.5,0.7-0.2,1.4,0.6,1.6c1.4,0.4,2.8,0.7,4.3,0.9
		c2.4,0.3,4.8,0.4,7.2,0.8c2.2,0.4,4.1-0.1,5.8-1.6c2.6-2.3,5.3-4.6,8-6.8c2.5-2,3.4-4.8,3.8-7.8c0.2-1.4-0.1-3.1-0.9-4.2
		c-2.6-4-6.2-6.5-11.1-6.5c-1.1,0-2.2,0.2-3.3,0.5c-3.9,1.2-6.7,4.2-9.8,6.7c-0.7,0.6-1.4,1.1-0.7,2.1c0.6,0.9,1.5,0.8,2.4,0.4
		C133.2,162.5,134.2,162.1,135.2,161.6L135.2,161.6z M85.7,101.1c2.8,1.1,5.2,2,7.6,3c2.2,0.9,4.3,1.9,6.5,2.8
		c2.5,1.1,4.9,2.3,7.4,3.5c2.8,1.3,5.6,2.5,8.4,3.9c1.7,0.9,3.3,2,4.9,3c0.5,0.3,1,0.5,1.5-0.1c1.1-1.3,2.1-2.7,3.3-3.9
		c1.1-0.9,0.8-1.8,0.4-2.7c-0.6-1.2-1.4-2.2-2.1-3.5c-0.4,0.3-0.8,0.5-1.2,0.8c-0.7,0.5-1.3,1-2.2,0.7c-2.8-1-5.5-2-8.2-3.1
		c-1.6-0.6-3-1.5-4.5-2.2c-3.2-1.5-6.4-3-9.5-4.6c-2.2-1.1-4.4-2.3-6.6-3.4c-0.3-0.2-1.1-0.1-1.3,0.2
		C88.5,97.2,87.2,99.1,85.7,101.1L85.7,101.1z M127.4,35.9c0.1-0.1,0.3-0.2,0.4-0.4c-0.6-0.7-1.1-1.5-1.7-2c-1.8-1.5-3.6-3-5.6-4.4
		c-2.9-2-5.8-3.9-9.4-4.6c-2.6-0.5-5.1-0.5-7.7-0.2c-3.2,0.4-6.3,1.1-8.9,2.9c-3.7,2.4-7.3,5-10.6,7.8c-4.5,4-7.5,9.1-9.2,14.9
		c-0.3,0.9-0.2,1.8-0.2,2.8c0,0.3,0.4,0.5,0.7,0.8c0.8-1.4,1.4-2.5,2-3.7C81.5,41,89,35.8,97.5,31.7c3.9-1.9,8-2.4,12.3-2.4
		c4.5,0,8.7,0.7,12.5,3.1C124,33.5,125.7,34.7,127.4,35.9L127.4,35.9z M100.6,67.5c0.8,1.8,1.6,3.5,2.4,5c0.2,0.4,0.8,0.8,1.2,0.8
		c3,0,6-0.1,9-0.1c0.3,0,0.7-0.2,0.8-0.4c0.9-1.5,1.7-3.1,2.7-4.8C111.3,67.8,106,67.7,100.6,67.5L100.6,67.5z M123.7,67.8
		c0.7,1.7,1.2,3.2,1.8,4.6c0.2,0.4,0.7,0.8,1,0.8c2.8-0.3,5.6-0.7,8.6-1c-0.1-1.8-0.1-3.5-0.2-5.4C131.1,67.1,127.5,67.4,123.7,67.8
		L123.7,67.8z M92.9,107.6l0-0.4c-0.3-0.2-0.5-0.4-0.8-0.5c-1.9-0.8-3.7-1.7-5.6-2.5c-2.8-1.2-2.4-1.4-4.1,0.9
		c-0.2,0.3-0.6,0.6-0.8,0.9c-1.3,1.9-2.6,3.7-3.9,5.6c0.1,0.1,0.2,0.2,0.2,0.4C82.7,109.7,87.5,107.6,92.9,107.6L92.9,107.6z
		 M86.1,63.1c1.7,0.1,3.5,0.2,5.3,0.1c0.3,0,0.7-0.5,0.8-0.8c0.6-2.1,1.1-4.2,1.7-6.3c0.3-1,0.4-2.1,0.6-3.1
		c-2.4,1.7-4.4,3.5-6.6,5.2C86.2,59.4,85.5,60.8,86.1,63.1L86.1,63.1z M89.9,72.6c0.3-2.1,0.6-3.8,0.9-5.7c-1.4,0-2.8-0.1-4.4-0.1
		C87.6,68.8,88.7,70.6,89.9,72.6z"/>
	<path class="st5" d="M134.3,43.3c1.7-1,3.3-1.9,5-2.9c0.8,4.2,1.8,8.4,2.5,12.6c0.9,5.4,1.9,10.9,2.5,16.3
		c0.7,6.6,1.2,13.3,1.6,19.9c0.3,3.6,1.1,7,2,10.5c0.7,2.6-1.8,5.3-4.4,4.9c-0.7-0.1-1.4-0.3-1.3-1.3c0.5-4.6,0.2-9.1-0.2-13.7
		c-0.3-3.3-0.2-6.7-0.6-10c-0.3-3.4-0.9-6.8-1.4-10.2c-0.4-2.6-0.7-5.3-1.2-7.9c-0.6-3.2-1.5-6.3-2.3-9.5
		C135.8,49.1,135.1,46.2,134.3,43.3L134.3,43.3z"/>
	<path class="st4" d="M128.9,116.5c2,5.6,3.9,10.6,5.7,15.7c-0.1,0.1-0.2,0.1-0.3,0.2c-0.7-0.6-1.4-1.3-2.2-1.9
		c-1.1-0.8-2.2-1.5-3.4-2.1c-2-1.1-4.1-2.1-6.1-3.2c-3.8-2-7.7-1.7-11.5-0.4c-9.3,3.2-15.9,9.9-21.8,17.4c-7,8.8-11.6,18.9-16,29.2
		c-4.8,11.2-8,22.8-10.4,34.7c-0.2,1.2-0.5,2.3-0.9,3.8c-0.3-0.6-0.6-0.9-0.8-1.2c-1.3-2.4-2.6-4.8-4-7.3
		c-3.8-6.8-7.6-13.6-11.4-20.4c-1.1-2.1-2.3-4.1-3.4-6.2c-0.3-0.5-0.3-1.3-0.1-1.8c1.9-3.8,3.9-7.6,6-11.3
		c4.1-7.3,8.2-14.7,12.6-21.9c3.7-6,7.6-11.9,11.7-17.6c3-4.2,6.9-7.5,11.8-9.3c2.7-1,5.5-1.7,8.4-2.1c2.5-0.3,5-0.2,7.5,0
		c1.5,0.2,3,0.8,4.3,1.6c4.7,2.6,9.4,5.2,14.1,7.9c0.9,0.5,1.8,1.2,2.7,1.8c0.9,0.6,1.5,0.3,2.3-0.5
		C125.4,119.9,127.1,118.4,128.9,116.5L128.9,116.5z"/>
	<path class="st6" d="M87.6,80.5c0.1-0.6,0.4-1.2,0.2-1.6c-0.2-0.4-0.9-0.6-1.5-0.7c-3-0.9-5.3-2.7-6.4-5.7
		c-0.5-1.2-1.2-2.7-0.2-3.9c0.5-0.7,1.5-1.5,2.2-1.4c0.9,0.1,2,0.8,2.5,1.5c1.7,2.7,3.2,5.6,4.9,8.4c0.3,0.5,1.2,1.2,1.7,1.1
		c0.5-0.1,1.2-0.9,1.3-1.5c0.6-2.8,1-5.6,1.5-8.4c0.2-1.1,0.8-1.2,1.6-0.9c0.3,0.1,0.6,0.5,0.8,0.8c1.4,2.5,2.7,5,4.1,7.5
		c0.7,1.2,1.6,1.8,3,1.6c2.7-0.2,5.3-0.1,8-0.3c1.4-0.1,2.9-0.3,4.3-0.6c0.6-0.2,1.1-0.8,1.5-1.4c1.1-1.9,2.1-3.8,3.4-5.9
		c0.6,1.4,1.2,2.6,1.7,3.9c0.3,0.6,0.5,1.2,0.8,1.8c0.8,1.5,1.4,1.7,3.1,1.5c2.8-0.3,5.7-0.4,8.6-0.6c-0.3,5.2,0.7,10.7-1.8,15.6
		c-1.8,3.7-4.2,7.1-7.2,10.1c-1,1-2,1.9-2.9,2.9c-0.6,0.6-1.1,0.7-1.9,0.4c-4.7-2-9.5-4-14.2-6.1c-3.9-1.7-7.7-3.6-11.5-5.4
		c-1.7-0.8-3.3-1.7-4.1-3.6c-1.4-3-2.9-6.1-4.4-9.1C87,80.4,87.3,80.4,87.6,80.5L87.6,80.5z M123.9,85.9c2-0.9,3.2-2.4,3.9-4.2
		c0.1-0.4-0.2-1.1-0.6-1.4c-0.3-0.2-1,0-1.4,0.3c-1.3,1.1-2.5,2.3-3.7,3.4c-0.7,0.6-0.5,1.2,0.2,1.5
		C122.8,85.7,123.5,85.8,123.9,85.9L123.9,85.9z"/>
	<path class="st6" d="M134.1,63.1c-13,1.5-25.9,1.2-39,0.4c0.1-0.6,0.2-1,0.4-1.4c1.2-3.9,2.5-7.8,3.6-11.7c0.4-1.3,1.3-1.8,2.5-1.9
		c4-0.2,7.9-0.2,11.8,0.9c1.2,0.3,2.4,0.6,3.6,0.7c0.5,0,1.1-0.3,1.4-0.7c1.9-2.2,4.5-3.4,7.1-4.3c0.6-0.2,2.2,1,2.6,1.9
		c1.9,4.2,3.5,8.5,5.2,12.8C133.7,60.9,133.9,62.1,134.1,63.1L134.1,63.1z"/>
	<path class="st6" d="M135.2,161.6c-1,0.4-2,0.8-3,1.3c-0.9,0.4-1.8,0.5-2.4-0.4c-0.7-1,0.1-1.5,0.7-2.1c3.1-2.5,5.8-5.5,9.8-6.7
		c1.1-0.3,2.2-0.6,3.3-0.5c4.9,0.1,8.5,2.6,11.1,6.5c0.7,1.1,1,2.8,0.9,4.2c-0.4,3-1.4,5.8-3.8,7.8c-2.7,2.2-5.4,4.5-8,6.8
		c-1.7,1.5-3.5,2-5.8,1.6c-2.4-0.4-4.8-0.5-7.2-0.8c-1.4-0.2-2.9-0.5-4.3-0.9c-0.8-0.2-1.1-0.9-0.6-1.6c0.4-0.6,1-1.1,1.5-1.6
		c1.8-2,3.8-3.9,5.2-6.2c1.3-2.1,2-4.7,2.9-7C135.5,161.8,135.3,161.7,135.2,161.6L135.2,161.6z"/>
	<path class="st5" d="M85.7,101.1c1.4-2,2.8-3.9,4.2-5.7c0.2-0.3,1-0.4,1.3-0.2c2.2,1.1,4.4,2.3,6.6,3.4c3.2,1.6,6.3,3,9.5,4.6
		c1.5,0.7,3,1.6,4.5,2.2c2.7,1.1,5.5,2.1,8.2,3.1c0.9,0.3,1.5-0.2,2.2-0.7c0.4-0.3,0.8-0.5,1.2-0.8c0.8,1.3,1.6,2.3,2.1,3.5
		c0.5,0.9,0.7,1.8-0.4,2.7c-1.3,1.1-2.3,2.5-3.3,3.9c-0.5,0.7-0.9,0.5-1.5,0.1c-1.6-1-3.2-2.1-4.9-3c-2.8-1.4-5.6-2.6-8.4-3.9
		c-2.5-1.1-4.9-2.3-7.4-3.5c-2.1-1-4.3-1.9-6.5-2.8C90.9,103.1,88.5,102.2,85.7,101.1L85.7,101.1z"/>
	<path class="st1" d="M127.4,35.9c-1.7-1.2-3.4-2.4-5.1-3.5c-3.8-2.4-8-3.1-12.5-3.1c-4.3,0-8.5,0.5-12.3,2.4
		c-8.5,4.1-16,9.3-20.2,18.2c-0.6,1.2-1.3,2.3-2,3.7c-0.3-0.3-0.7-0.6-0.7-0.8c0-0.9-0.1-1.9,0.2-2.8c1.7-5.8,4.7-10.9,9.2-14.9
		c3.3-2.9,6.9-5.4,10.6-7.8c2.6-1.7,5.7-2.5,8.9-2.9c2.6-0.3,5.1-0.3,7.7,0.2c3.6,0.7,6.5,2.6,9.4,4.6c1.9,1.3,3.8,2.8,5.6,4.4
		c0.7,0.6,1.2,1.3,1.7,2C127.7,35.7,127.6,35.8,127.4,35.9L127.4,35.9z"/>
	<path class="st1" d="M100.6,67.5c5.5,0.1,10.7,0.3,16.2,0.4c-1,1.7-1.8,3.3-2.7,4.8c-0.1,0.2-0.6,0.4-0.8,0.4c-3,0.1-6,0.2-9,0.1
		c-0.4,0-1-0.4-1.2-0.8C102.1,71,101.4,69.3,100.6,67.5L100.6,67.5z"/>
	<path class="st1" d="M123.7,67.8c3.8-0.3,7.3-0.6,11.2-1c0.1,1.9,0.1,3.6,0.2,5.4c-3,0.4-5.8,0.8-8.6,1c-0.3,0-0.8-0.4-1-0.8
		C124.9,70.9,124.4,69.5,123.7,67.8L123.7,67.8z"/>
	<path class="st5" d="M92.9,107.6c-5.4,0-10.2,2.2-15.1,4.3c-0.1-0.1-0.2-0.2-0.2-0.4c1.3-1.9,2.6-3.7,3.9-5.6
		c0.2-0.3,0.5-0.6,0.8-0.9c1.7-2.3,1.3-2.1,4.1-0.9c1.9,0.8,3.8,1.6,5.6,2.5c0.3,0.1,0.5,0.4,0.8,0.5L92.9,107.6L92.9,107.6z"/>
	<path class="st1" d="M86.1,63.1c-0.6-2.2,0-3.7,1.7-5c2.2-1.6,4.2-3.5,6.6-5.2c-0.2,1-0.4,2.1-0.6,3.1c-0.5,2.1-1.1,4.2-1.7,6.3
		c-0.1,0.3-0.5,0.8-0.8,0.8C89.6,63.2,87.8,63.1,86.1,63.1L86.1,63.1z"/>
	<path class="st1" d="M89.9,72.6c-1.2-2-2.2-3.8-3.4-5.8c1.6,0.1,2.9,0.1,4.4,0.1C90.5,68.8,90.2,70.5,89.9,72.6z"/>
	<path class="st3" d="M123.9,85.9c-0.4-0.1-1.1-0.2-1.6-0.4c-0.6-0.4-0.8-0.9-0.2-1.5c1.2-1.1,2.4-2.3,3.7-3.4
		c0.3-0.3,1.1-0.5,1.4-0.3c0.4,0.3,0.7,1,0.6,1.4C127.1,83.5,126,85,123.9,85.9L123.9,85.9z"/>
</g>
</svg>
