<?xml version="1.0" encoding="utf-8"?>
<!-- Generator: Adobe Illustrator 27.0.1, SVG Export Plug-In . SVG Version: 6.00 Build 0)  -->
<svg version="1.1" id="Layer_2_00000180356157776831481380000011088517605255662515_"
	 xmlns="http://www.w3.org/2000/svg" xmlns:xlink="http://www.w3.org/1999/xlink" x="0px" y="0px" viewBox="0 0 1763.7 979.2"
	 style="enable-background:new 0 0 1763.7 979.2;" xml:space="preserve">
<style type="text/css">
	.st0{fill:#A5A5A0;}
	.st1{fill:#812521;}
	.st2{fill:#1F4257;}
	.st3{fill:#FFFFFF;}
	.st4{font-family:'RobotoCondensed-Bold';}
	.st5{font-size:97.44px;}
	.st6{font-family:'RobotoCondensed-Regular';}
	.st7{font-size:45px;}
	.st8{letter-spacing:-0.9;}
	.st9{fill:#514B4B;}
	.st10{fill:#667323;}
	.st11{fill:#B2BC7F;}
	.st12{fill:#7F7474;}
	.st13{fill:#FEFEFE;}
	.st14{fill:#818943;}
	.st15{letter-spacing:-1.9;}
</style>
<g id="Layer_1-2">
	<polygon class="st0" points="1054.5,864.1 881.9,958.3 709.2,864.1 709.2,675.5 881.9,581.3 1054.5,675.5 	"/>
	<polygon class="st1" points="699.9,864.1 527.3,958.3 354.6,864.1 354.6,675.5 527.3,581.3 699.9,675.5 	"/>
	<polygon class="st2" points="1409.1,864.1 1236.5,958.3 1063.8,864.1 1063.8,675.5 1236.5,581.3 1409.1,675.5 	"/>
	<polygon class="st2" points="345.3,864.1 172.7,958.3 0,864.1 0,675.5 172.7,581.3 345.3,675.5 	"/>
	<polygon class="st1" points="1763.7,864.1 1591.1,958.3 1418.4,864.1 1418.4,675.5 1591.1,581.3 1763.7,675.5 	"/>
	<g>
		<polygon class="st1" points="1236.5,573.4 1063.8,667.7 891.2,573.4 891.2,384.9 1063.8,290.6 1236.5,384.9 		"/>
		<polygon class="st2" points="881.9,573.4 709.2,667.7 536.5,573.4 536.5,384.9 709.2,290.6 881.9,384.9 		"/>
		<polygon class="st0" points="1591.1,573.4 1418.4,667.7 1245.8,573.4 1245.8,384.9 1418.4,290.6 1591.1,384.9 		"/>
		<polygon class="st0" points="527.3,573.4 354.6,667.7 181.9,573.4 181.9,384.9 354.6,290.6 527.3,384.9 		"/>
	</g>
	<g>
		<polygon class="st2" points="1413.8,282.8 1241.1,377.1 1068.4,282.8 1068.4,94.3 1241.1,0 1413.8,94.3 		"/>
		<polygon class="st0" points="1059.2,282.8 886.5,377.1 713.8,282.8 713.8,94.3 886.5,0 1059.2,94.3 		"/>
		<polygon class="st1" points="704.6,282.8 531.9,377.1 359.2,282.8 359.2,94.3 531.9,0 704.6,94.3 		"/>
	</g>
	<text transform="matrix(1.06 0 0 1 114.1699 734.1602)" class="st3 st4 st5">DC</text>
	<text transform="matrix(1.06 0 0 1 76.8154 782.1602)" class="st3 st6 st7">P</text>
	<text transform="matrix(1.06 0 0 1 102.2979 782.1602)" class="st3 st6 st7 st8">r</text>
	<text transform="matrix(1.06 0 0 1 115.3892 782.1602)" class="st3 st6 st7">o-choice</text>
	<text transform="matrix(1.06 0 0 1 104.7681 830.1602)" class="st3 st6 st7">spends </text>
	<text transform="matrix(1.06 0 0 1 68.5796 878.1602)" class="st3 st6 st7">147% more</text>
	<text transform="matrix(1.06 0 0 1 489.5103 158.5303)" class="st3 st4 st5">ID</text>
	<text transform="matrix(1.06 0 0 1 464.8862 206.5303)" class="st3 st6 st7">P</text>
	<text transform="matrix(1.06 0 0 1 491.3228 206.5303)" class="st3 st6 st7">r</text>
	<text transform="matrix(1.06 0 0 1 505.3677 206.5303)" class="st3 st6 st7">o-life </text>
	<text transform="matrix(1.06 0 0 1 464.6211 254.5303)" class="st3 st6 st7">spends</text>
	<text transform="matrix(1.06 0 0 1 450.1948 302.5303)" class="st3 st6 st7">36% less</text>
	<g>
		<path class="st9" d="M409.4,343.4c-2,1.4-3.9,2.9-6,4.4c2.2,3.7,4.8,7.2,6.6,11c6.5,13.9,10.1,28.3,8.1,43.7
			c-0.7,5.4-1,11-1.9,16.4c-1.7,10.5-7.4,19-15,26.5c-2.4,2.3-4.7,4.7-7,7.1c-2.4,2.6-2.3,4.2-0.2,6.8c2.1,2.7,4.2,5.5,5.7,8.5
			c7.1,14.7,14.1,29.4,21.1,44.2c3.9,8.3,7.6,16.6,11.5,24.9c0.4,0.8,1.6,1.7,2.5,2c7.2,1.9,12.8,6,17.6,11.2c0.9,1,1.9,2.1,2.2,3.2
			c0.8,3.8,3.6,4.5,7,4.8c3,0.3,5.9,0.9,8.8,1.3c3,0.5,5,2.7,4.3,5.5c-0.6,2.6-1.5,5.2-2.7,7.5c-4.6,9.3-9.5,18.5-15.5,27.1
			c-8.8,12.5-18.7,23.7-31.8,32.4c-6.8,4.5-13.3,9.4-19.9,14.2c-7,5-14.6,8.7-23.1,10.8c-7.2,1.8-14.3,3.9-21.4,6.1
			c-7,2.2-14,2-20.9-0.1c-16-4.9-31.3-11.5-45.8-19.6c-3.9-2.2-7.3-5.1-11-7.7c-1.4,3.3-2.6,6.5-4,9.7c-1.4,3.1-2.9,6.3-4.7,9.2
			c-2.9,4.7-7.3,4.8-10.2,0.1c-3.5-5.7-6.5-11.7-9.8-17.6c-8.6-15.4-17.2-30.7-25.7-46.1c-1.1-1.9-2.1-3.9-2.8-6
			c-0.9-2.7-0.8-5.5,0.7-8c8.2-13.9,16.5-27.8,24.7-41.7c2.1-3.6,4.1-7.3,6-11c7.1-14.3,15.6-27.7,25.2-40.6
			c2.5-3.4,6.1-6.1,9.1-9.1c1.1-1.2,2.3-2.5,3-3.9c3.7-7.5,8.3-14.5,14.4-20.6c0.2-0.2,0.6-0.5,0.6-0.7c0.9-6,5.1-10.2,8.7-14.6
			c2.3-2.8,3.3-5.1,1.1-8.5c-2-3.3-3.4-7.1-4.5-10.8c-0.8-2.7-2.6-4.3-5-5.7c-6.1-3.5-10-8.7-12.3-15c-0.8-2.2-0.7-4.4,0.6-6.5
			c1.8-3,3.1-6.2,7.1-7.1c1.1-0.3,2.3-0.4,3.4-0.7c0.7-0.2,1.4-0.7,1.9-1c-3.4-2-6.4-3.6-9.3-5.4c-17.9-10.6-35.8-21.2-53.7-31.9
			c-3.7-2.2-3.8-3.7-0.1-6c7.8-4.7,15.6-9.3,23.6-13.7c29.6-16.5,59.3-32.8,89-49.3c1.8-1,3.1-1,4.8,0.4
			c22.4,18.4,43.6,37.9,63.9,58.3c0.4,0.4,0.7,0.7,1.2,1.4c-3.7,1.7-7.3,3.4-10.9,5C415.7,339.9,412.5,341.6,409.4,343.4
			L409.4,343.4z M399,476.6c-3.6,3.4-6.9,6.1-9.8,9.2c-1.4,1.5-2.6,2-4.4,1c-1.7-1-3.4-2.2-5.1-3.2c-9-4.8-18-9.7-27.1-14.3
			c-2.6-1.3-5.5-2.6-8.3-2.9c-4.8-0.5-9.7-0.6-14.5,0c-5.5,0.7-10.9,1.9-16.1,3.7c-9.4,3.3-16.9,9.3-22.7,16.9
			c-7.9,10.4-15.4,21-22.4,31.9c-8.4,13-16.3,26.4-24.2,39.8c-4,6.8-7.8,13.7-11.5,20.6c-0.5,0.9-0.3,2.4,0.2,3.3
			c2,3.8,4.3,7.5,6.5,11.3c7.3,12.3,14.6,24.7,21.8,37c2.6,4.4,5.1,8.8,7.6,13.2c0.4,0.6,0.8,1.2,1.5,2.2c0.6-2.6,1.2-4.7,1.7-6.9
			c4.6-21.6,10.8-42.8,20.1-63.1c8.5-18.6,17.4-37,30.8-53c11.4-13.6,24-25.8,41.9-31.6c7.4-2.4,14.9-2.9,22.2,0.7
			c3.9,1.9,7.9,3.8,11.8,5.8c2.2,1.2,4.4,2.4,6.5,3.8c1.5,1,2.8,2.3,4.2,3.5c0.2-0.1,0.4-0.2,0.5-0.3
			C406.5,495.9,402.9,486.7,399,476.6L399,476.6z M319.5,411c-0.5-0.1-1.1-0.2-1.7-0.4c2.8,5.5,5.7,11,8.5,16.5c1.7,3.3,4.7,5,8,6.5
			c7.3,3.3,14.6,6.7,22.1,9.8c9.1,3.8,18.2,7.4,27.3,11.1c1.5,0.6,2.5,0.4,3.6-0.7c1.8-1.8,3.7-3.6,5.5-5.3
			c5.7-5.4,10.3-11.5,13.8-18.3c4.8-9,2.9-18.9,3.5-28.4c-5.7,0.4-11.2,0.6-16.6,1.1c-3.3,0.3-4.5,0.1-6-2.7c-0.6-1.1-1-2.2-1.6-3.3
			c-1.1-2.2-2.1-4.5-3.3-7c-2.3,3.9-4.3,7.4-6.4,10.8c-0.7,1-1.7,2.3-2.9,2.5c-2.7,0.7-5.5,1-8.3,1.2c-5.1,0.3-10.3,0.1-15.4,0.5
			c-2.8,0.2-4.5-0.7-5.8-3c-2.5-4.6-5.2-9.1-7.8-13.6c-0.3-0.6-0.9-1.2-1.5-1.4c-1.5-0.5-2.8-0.4-3.1,1.6
			c-0.8,5.1-1.7,10.2-2.8,15.3c-0.2,1.1-1.5,2.6-2.6,2.8c-1,0.2-2.6-1-3.3-1.9c-3.2-5-6-10.3-9.4-15.3c-0.9-1.4-3.1-2.7-4.8-2.8
			c-1.3-0.1-3.1,1.4-4.1,2.6c-2,2.3-0.6,4.9,0.3,7.1c2.1,5.5,6.6,8.6,12.4,10.3c1,0.3,2.4,0.6,2.8,1.4
			C320.4,408.8,319.7,410,319.5,411L319.5,411z M409,379.3c-0.5-1.8-0.8-3.9-1.5-5.7c-3.2-7.8-6.4-15.7-10-23.3
			c-0.8-1.6-3.8-3.9-5-3.5c-5.1,1.5-10,3.8-13.6,7.8c-0.6,0.7-1.8,1.3-2.7,1.2c-2.4-0.2-4.7-0.7-7-1.3c-7.4-2-15-2.1-22.6-1.7
			c-2.4,0.1-4.1,1-4.8,3.5c-2.2,7.1-4.6,14.2-7,21.3c-0.2,0.7-0.4,1.5-0.7,2.6C359.1,381.6,384,382,409,379.3L409,379.3z
			 M411.1,558.6c0.2,0.2,0.5,0.3,0.7,0.5c-1.8,4.3-3.1,8.9-5.6,12.8c-2.7,4.1-6.6,7.6-10,11.3c-0.9,1-2.1,1.8-2.9,3
			c-0.9,1.2-0.4,2.5,1.2,2.9c2.7,0.7,5.4,1.3,8.2,1.7c4.6,0.6,9.2,0.7,13.8,1.4c4.3,0.7,7.9-0.2,11.1-2.9
			c5.1-4.2,10.2-8.3,15.5-12.3c4.8-3.7,6.6-8.8,7.4-14.2c0.4-2.5-0.2-5.6-1.6-7.7c-5-7.2-11.9-11.8-21.4-11.9c-2.1,0-4.3,0.4-6.4,1
			c-7.6,2.3-12.9,7.7-18.8,12.3c-1.3,1-2.7,2.1-1.4,3.8c1.2,1.6,2.8,1.5,4.6,0.7C407.2,560.1,409.2,559.3,411.1,558.6L411.1,558.6z
			 M316,448.5c5.3,2,10,3.6,14.5,5.4c4.2,1.6,8.3,3.4,12.5,5.2c4.8,2,9.5,4.2,14.2,6.3c5.4,2.4,10.8,4.6,16.1,7.1
			c3.3,1.5,6.3,3.5,9.4,5.4c1,0.6,1.8,0.9,2.8-0.2c2-2.4,4-5,6.4-7c2-1.7,1.5-3.3,0.7-4.9c-1.1-2.1-2.6-4.1-4.1-6.4
			c-0.8,0.5-1.6,0.9-2.3,1.4c-1.3,0.9-2.5,1.8-4.2,1.2c-5.3-1.8-10.6-3.6-15.8-5.6c-3-1.1-5.8-2.6-8.7-4c-6.1-2.8-12.2-5.5-18.3-8.3
			c-4.3-2-8.4-4.3-12.6-6.3c-0.6-0.3-2.1-0.1-2.5,0.4C321.3,441.4,318.7,444.8,316,448.5L316,448.5z M396.1,329.9
			c0.3-0.2,0.6-0.5,0.8-0.7c-1.1-1.2-2-2.7-3.3-3.7c-3.5-2.8-7-5.5-10.7-7.9c-5.5-3.6-11.1-7.1-18-8.3c-5-0.9-9.9-1-14.9-0.4
			c-6.1,0.7-12,2-17.1,5.2c-7,4.4-14,9-20.3,14.3c-8.7,7.2-14.4,16.5-17.7,27.1c-0.5,1.6-0.4,3.3-0.4,5c0,0.5,0.7,0.9,1.3,1.5
			c1.5-2.5,2.8-4.6,3.9-6.8c8.1-16.1,22.5-25.6,38.9-33c7.4-3.4,15.4-4.3,23.7-4.3c8.6,0,16.7,1.2,24,5.6
			C389.6,325.6,392.8,327.8,396.1,329.9L396.1,329.9z M344.5,387.5c1.6,3.3,3,6.3,4.6,9.2c0.4,0.7,1.5,1.4,2.3,1.4
			c5.8,0,11.6-0.1,17.4-0.2c0.6,0,1.4-0.4,1.6-0.8c1.7-2.8,3.4-5.6,5.2-8.7C365.2,388,355,387.7,344.5,387.5L344.5,387.5z
			 M389,387.9c1.2,3.1,2.2,5.8,3.4,8.4c0.3,0.6,1.3,1.5,1.9,1.5c5.4-0.5,10.8-1.2,16.5-1.9c-0.1-3.3-0.2-6.4-0.4-9.8
			C403.1,386.7,396.2,387.3,389,387.9L389,387.9z M329.8,460.3l0-0.8c-0.5-0.3-1-0.8-1.6-1c-3.6-1.5-7.2-3-10.8-4.5
			c-5.4-2.2-4.6-2.5-7.9,1.6c-0.5,0.6-1.1,1-1.5,1.6c-2.5,3.4-5,6.8-7.5,10.1c0.1,0.2,0.3,0.4,0.5,0.7
			C310.1,464.2,319.3,460.3,329.8,460.3L329.8,460.3z M316.7,379.3c3.3,0.1,6.7,0.3,10.2,0.2c0.5,0,1.3-0.9,1.5-1.5
			c1.1-3.8,2.2-7.6,3.2-11.4c0.5-1.9,0.8-3.8,1.2-5.7c-4.6,3-8.5,6.4-12.7,9.4C316.8,372.6,315.4,375.3,316.7,379.3L316.7,379.3z
			 M324,396.7c0.6-3.8,1.2-7,1.8-10.4c-2.8-0.1-5.3-0.2-8.4-0.3C319.6,389.8,321.6,393,324,396.7L324,396.7z"/>
		<path class="st10" d="M409.4,343.4c3.2-1.7,6.4-3.5,9.6-5.2c1.6,7.6,3.4,15.2,4.8,22.8c1.8,9.9,3.6,19.8,4.8,29.7
			c1.4,12,2.2,24.1,3.2,36.2c0.5,6.5,2,12.8,3.8,19c1.3,4.7-3.5,9.6-8.5,8.8c-1.4-0.2-2.6-0.6-2.4-2.4c0.9-8.3,0.5-16.6-0.4-24.9
			c-0.6-6-0.5-12.1-1.1-18.1c-0.6-6.2-1.8-12.3-2.7-18.5c-0.7-4.8-1.3-9.6-2.3-14.4c-1.2-5.8-2.9-11.5-4.4-17.2
			C412.3,354,410.8,348.7,409.4,343.4L409.4,343.4z"/>
		<path class="st11" d="M399,476.6c3.9,10.1,7.4,19.3,11,28.5c-0.2,0.1-0.4,0.2-0.5,0.3c-1.4-1.2-2.7-2.4-4.2-3.5
			c-2.1-1.4-4.3-2.7-6.5-3.8c-3.9-2-7.8-3.9-11.8-5.8c-7.3-3.5-14.7-3.1-22.2-0.7c-17.9,5.8-30.6,18-41.9,31.6
			c-13.4,16-22.2,34.4-30.8,53c-9.3,20.3-15.5,41.5-20.1,63.1c-0.5,2.1-1,4.2-1.7,6.9c-0.6-1-1.1-1.6-1.5-2.2
			c-2.5-4.4-5-8.8-7.6-13.2c-7.3-12.3-14.6-24.7-21.8-37c-2.2-3.7-4.4-7.5-6.5-11.3c-0.5-0.9-0.6-2.4-0.2-3.3
			c3.7-6.9,7.5-13.8,11.5-20.6c7.9-13.3,15.8-26.7,24.2-39.8c7-10.9,14.5-21.6,22.4-31.9c5.8-7.6,13.3-13.6,22.7-16.9
			c5.2-1.8,10.6-3,16.1-3.7c4.8-0.6,9.7-0.5,14.5,0c2.9,0.3,5.7,1.5,8.3,2.9c9.1,4.6,18.1,9.5,27.1,14.3c1.8,1,3.4,2.2,5.1,3.2
			c1.8,1,3,0.5,4.4-1C392.2,482.7,395.4,479.9,399,476.6L399,476.6z"/>
		<path class="st12" d="M319.5,411c0.2-1,0.9-2.2,0.5-3c-0.4-0.7-1.8-1-2.8-1.4c-5.8-1.7-10.2-4.9-12.4-10.3
			c-0.9-2.3-2.3-4.8-0.3-7.1c1-1.2,2.8-2.7,4.1-2.6c1.7,0.1,3.9,1.4,4.8,2.8c3.3,5,6.2,10.2,9.4,15.3c0.6,1,2.3,2.1,3.3,1.9
			c1-0.2,2.3-1.7,2.6-2.8c1.1-5.1,2-10.2,2.8-15.3c0.3-2,1.6-2.1,3.1-1.6c0.6,0.2,1.2,0.9,1.5,1.4c2.6,4.5,5.3,9,7.8,13.6
			c1.3,2.3,3,3.2,5.8,3c5.1-0.4,10.2-0.2,15.4-0.5c2.8-0.1,5.6-0.5,8.3-1.2c1.1-0.3,2.2-1.5,2.9-2.5c2.2-3.4,4.1-6.9,6.4-10.8
			c1.2,2.5,2.3,4.8,3.3,7c0.5,1.1,1,2.2,1.6,3.3c1.5,2.7,2.7,3,6,2.7c5.4-0.5,10.9-0.8,16.6-1.1c-0.5,9.5,1.3,19.4-3.5,28.4
			c-3.5,6.7-8.1,12.9-13.8,18.3c-1.9,1.8-3.8,3.5-5.5,5.3c-1.1,1.1-2.1,1.3-3.6,0.7c-9.1-3.7-18.3-7.3-27.3-11.1
			c-7.4-3.1-14.7-6.5-22.1-9.8c-3.3-1.5-6.3-3.2-8-6.5c-2.8-5.5-5.6-11-8.5-16.5C318.4,410.8,319,410.9,319.5,411L319.5,411z
			 M389.4,420.8c3.9-1.7,6.2-4.3,7.5-7.6c0.3-0.7-0.4-2.1-1.1-2.6c-0.5-0.4-2,0-2.6,0.5c-2.5,2-4.7,4.1-7.1,6.2
			c-1.3,1.1-0.9,2.1,0.3,2.7C387.3,420.6,388.5,420.6,389.4,420.8L389.4,420.8z"/>
		<path class="st12" d="M409,379.3c-25,2.7-49.8,2.3-74.9,0.8c0.3-1.1,0.4-1.9,0.7-2.6c2.3-7.1,4.7-14.2,7-21.3
			c0.8-2.5,2.4-3.3,4.8-3.5c7.6-0.4,15.2-0.3,22.6,1.7c2.3,0.6,4.6,1.1,7,1.3c0.9,0.1,2.1-0.6,2.7-1.2c3.7-4,8.6-6.2,13.6-7.8
			c1.2-0.4,4.2,1.9,5,3.5c3.6,7.7,6.8,15.5,10,23.3C408.2,375.5,408.5,377.5,409,379.3L409,379.3z"/>
		<path class="st12" d="M411.1,558.6c-1.9,0.8-3.9,1.5-5.8,2.3c-1.8,0.8-3.4,0.9-4.6-0.7c-1.3-1.7,0.1-2.8,1.4-3.8
			c5.9-4.6,11.2-10,18.8-12.3c2-0.6,4.2-1,6.4-1c9.5,0.1,16.4,4.7,21.4,11.9c1.4,2,2,5.2,1.6,7.7c-0.8,5.4-2.6,10.5-7.4,14.2
			c-5.2,4-10.4,8.1-15.5,12.3c-3.3,2.7-6.8,3.6-11.1,2.9c-4.5-0.7-9.2-0.8-13.8-1.4c-2.8-0.3-5.5-1-8.2-1.7c-1.5-0.4-2-1.6-1.2-2.9
			c0.8-1.1,2-1.9,2.9-3c3.4-3.7,7.3-7.2,10-11.3c2.5-3.9,3.8-8.5,5.6-12.8C411.6,558.9,411.3,558.7,411.1,558.6L411.1,558.6z"/>
		<path class="st10" d="M315.9,448.5c2.8-3.6,5.4-7.1,8.1-10.4c0.4-0.5,1.8-0.7,2.5-0.4c4.3,2,8.4,4.3,12.6,6.3
			c6.1,2.8,12.2,5.5,18.3,8.3c2.9,1.3,5.7,2.8,8.7,4c5.2,2,10.5,3.8,15.8,5.6c1.7,0.6,2.9-0.4,4.2-1.2c0.7-0.5,1.5-0.9,2.3-1.4
			c1.5,2.3,3,4.2,4.1,6.4c0.9,1.6,1.4,3.2-0.7,4.9c-2.4,2-4.4,4.6-6.4,7c-1,1.2-1.8,0.9-2.8,0.2c-3.1-1.8-6.2-3.8-9.4-5.4
			c-5.3-2.5-10.7-4.7-16.1-7.1c-4.8-2.1-9.5-4.2-14.2-6.3c-4.1-1.8-8.3-3.5-12.5-5.2C325.9,452.1,321.3,450.4,315.9,448.5
			L315.9,448.5z"/>
		<path class="st13" d="M396.1,329.9c-3.3-2.1-6.5-4.3-9.9-6.4c-7.3-4.4-15.4-5.6-24-5.6c-8.3,0-16.3,0.9-23.7,4.3
			c-16.3,7.4-30.7,17-38.9,33c-1.1,2.2-2.4,4.3-3.9,6.8c-0.5-0.6-1.3-1.1-1.3-1.5c0-1.7-0.1-3.4,0.4-5c3.2-10.6,9-19.9,17.7-27.1
			c6.3-5.2,13.3-9.9,20.3-14.3c5.1-3.2,11-4.5,17.1-5.2c5-0.6,9.8-0.5,14.9,0.4c7,1.2,12.5,4.7,18,8.3c3.7,2.4,7.2,5.2,10.7,7.9
			c1.3,1,2.2,2.4,3.3,3.7C396.7,329.5,396.4,329.7,396.1,329.9L396.1,329.9z"/>
		<path class="st13" d="M344.5,387.5c10.5,0.3,20.7,0.5,31.1,0.8c-1.9,3.1-3.5,6-5.2,8.7c-0.3,0.4-1.1,0.8-1.6,0.8
			c-5.8,0.1-11.6,0.3-17.4,0.2c-0.8,0-1.9-0.7-2.3-1.4C347.5,393.8,346.1,390.7,344.5,387.5L344.5,387.5z"/>
		<path class="st13" d="M389,387.9c7.2-0.6,14.1-1.2,21.5-1.8c0.1,3.4,0.2,6.5,0.4,9.8c-5.7,0.7-11.1,1.4-16.5,1.9
			c-0.6,0.1-1.6-0.8-1.9-1.5C391.3,393.7,390.3,391,389,387.9L389,387.9z"/>
		<path class="st10" d="M329.7,460.3c-10.4,0-19.7,3.9-28.9,7.8c-0.1-0.2-0.3-0.4-0.5-0.7c2.5-3.4,5-6.8,7.5-10.1
			c0.4-0.6,1-1.1,1.5-1.6c3.4-4.1,2.6-3.8,7.9-1.6c3.6,1.5,7.2,3,10.8,4.5c0.6,0.2,1,0.6,1.6,1L329.7,460.3L329.7,460.3z"/>
		<path class="st13" d="M316.7,379.4c-1.2-4,0.1-6.7,3.3-9c4.2-3,8.1-6.4,12.7-9.4c-0.4,1.9-0.7,3.8-1.2,5.7c-1,3.8-2,7.6-3.2,11.4
			c-0.2,0.6-1,1.5-1.5,1.5C323.4,379.6,319.9,379.5,316.7,379.4L316.7,379.4z"/>
		<path class="st13" d="M324,396.7c-2.3-3.7-4.3-6.9-6.6-10.6c3.1,0.1,5.6,0.2,8.4,0.3C325.2,389.8,324.6,392.9,324,396.7L324,396.7
			z"/>
		<path class="st9" d="M389.4,420.8c-0.9-0.2-2.1-0.3-3-0.8c-1.2-0.6-1.5-1.6-0.3-2.7c2.4-2,4.6-4.2,7.1-6.2
			c0.6-0.5,2.1-0.8,2.6-0.5c0.7,0.5,1.4,1.9,1.1,2.6C395.6,416.5,393.3,419.2,389.4,420.8L389.4,420.8z"/>
	</g>
	<text transform="matrix(1.06 0 0 1 1007 439.04)" class="st3 st4 st5">TX</text>
	<text transform="matrix(1.06 0 0 1 999.5166 487.04)" class="st3 st6 st7">P</text>
	<text transform="matrix(1.06 0 0 1 1024.999 487.04)" class="st3 st6 st7 st8">r</text>
	<text transform="matrix(1.06 0 0 1 1038.0898 487.04)" class="st3 st6 st7">o-life </text>
	<text transform="matrix(1.06 0 0 1 995.9121 535.04)" class="st3 st6 st7">spends</text>
	<text transform="matrix(1.06 0 0 1 976.0166 583.04)" class="st3 st6 st7"> 25% less </text>
	<text transform="matrix(1.06 0 0 1 650.6201 439.04)" class="st3 st4 st5 st8">OR</text>
	<text transform="matrix(1.06 0 0 1 609.0679 487.04)" class="st3 st6 st7">P</text>
	<text transform="matrix(1.06 0 0 1 635.5044 487.04)" class="st3 st6 st7">r</text>
	<text transform="matrix(1.06 0 0 1 649.5498 487.04)" class="st3 st6 st7">o-choice</text>
	<text transform="matrix(1.06 0 0 1 641.3242 535.04)" class="st3 st6 st7">spends </text>
	<text transform="matrix(1.06 0 0 1 616.9121 583.04)" class="st3 st6 st7">13% more</text>
	<g>
		<path class="st9" d="M875.1,269.3c-0.6,1.9-0.8,3.7-1.6,5.3c-2.9,5.7-11.6,7.7-17.4,4c-2.7-1.7-5-3.9-7.2-5.6
			c-2,0.7-3.8,1.9-5.7,2c-1.8,0-3.7-1.2-5.9-1.9c-4.1,4.9-9.9,6.4-16.9,5.4c-7.3-1-11-5.4-13.3-11.4c-0.3,0-0.5-0.1-0.5,0
			c-5.1,4.1-11,5-17.3,3.5c-2.5-0.6-5-1.5-7-3c-4.1-3-7.8-6.5-11.6-9.8c-1.6,1.3-3.2,2.9-5.1,4.2c-5.3,3.7-11.3,3.8-16.8,1
			c-5.4-2.8-10.8-6.1-13.2-11.9c-0.8-1.9-1.2-4.1-1.2-6.1c0-3.1,0.6-6.3,0.9-9.4c0.3-2.6,1.5-4.7,3.9-6.3c-1.7-0.6-3.1-1.2-4.6-1.6
			c-13.7-4.6-23.8-13.2-31.1-25c-3-4.8-3.9-10.2-4.6-15.5c-1.6-12.1-0.3-23.9,4-35.3c0.1-0.3,0.3-0.6,0.5-0.9
			c1.8-3.8,3.8-4.7,8.1-4.1c4.2,0.6,8.4,1.2,12.7,1.6c1.2,0.1,2.6-0.4,3.8-0.9c1.6-0.8,3-1.8,4.5-2.8c4.3-2.7,8.7-5.4,13-8.2
			c6.1-3.9,13-5.4,20.1-5.9c14.3-0.9,28.2,1.4,41.3,6.8c8.4,3.4,15.6,8.3,21,15.4c0.2,0.3,0.8,0.6,1.2,0.6
			c8.3,0.5,16.6,0.9,24.9,1.3c1.3,0.1,2.6,0,3.4,0c3.8-9.2,7.5-18.1,11.3-27c1.3-3.1,3.3-5.9,5-8.8c1.3-2.2,3-4.2,4-6.6
			c2.5-5.6,7.3-7.5,13.1-7.3c10.6,0.3,21.1,1.7,30.9,5.7c18.9,7.7,38.5,12.5,58.9,14.8c18.9,2.1,37.9,2.2,56.8,1.9
			c8.5-0.1,17-1.5,25.5-2.2c6.7-0.6,13.1,0.3,19.2,3.1c1.7,0.8,2.2,1.8,1.8,3.6c-2.8,13.8-5.5,27.5-8.1,41.3
			c-0.3,1.7-0.2,3.5-0.2,5.3c0.3,7.5,0.9,15.1-2.5,22.2c-0.9,1.9-1.8,3.8-3.1,5.4c-5.7,6.7-11.2,13.6-17.6,19.8
			c-7.5,7.3-15.6,14.1-23.9,20.6c-11.5,8.9-23.4,17.3-35.3,25.6c-3.8,2.6-8.3,4.5-12.6,6.3c-7.2,2.9-14.4,5.6-21.8,8.1
			c-7.1,2.4-14.2,3.9-22,2.2c-7.6-1.7-15.6-1.7-23.1-3.5c-8.8-2.1-17.2-5.4-25.8-8.1c-1.5-0.5-3-0.7-4.3-1.5
			c-2.2-1.2-4.3-2.7-6.4-4.1C876.4,270.9,875.8,270.1,875.1,269.3L875.1,269.3z M918.2,235.3c0.5-0.2,1-0.5,1.5-0.7
			c9.9-5.2,19.8-10.6,29.8-15.6c17.7-8.9,36.7-15.6,53.1-26.9c0.7-0.5,2.6-0.2,3.5,0.3c1.3,0.9,1.1,2.4,0.1,3.5
			c-1.3,1.3-2.9,2.5-4.5,3.6c-10.1,6.5-20.6,12.2-31.7,17c-11.5,5-23.2,9.7-34.3,15.3c-8.1,4.1-15.4,9.4-23.1,14.1
			c5.4,9.3-0.3,22.6-13.2,29.7c5,1,9.7,2,14.5,2.9c9.8,1.9,19.9,2.8,29.4,6.1c0.7,0.2,1.7,0.1,2.5-0.2c10.5-3.9,21-7.8,31.4-11.9
			c4-1.6,8.2-3.4,11.7-5.8c12-8.5,23.9-17.1,35.4-26.2c8.1-6.3,15.8-13.1,23.2-20.1c6-5.8,11.3-12.3,16.8-18.6
			c1-1.2,1.7-2.7,2.4-4.1c2.6-5.6,2.2-11.6,2.4-17.6c0.1-3.3,0.3-6.6,1-9.8c0.8-4.2,2-8.3,3.1-12.4c1.1-4.2,2-8.5,3.6-12.6
			c1-2.5,2.2-4.8,2.2-7.6c0-4.1,0-4.2-4.3-5.2c-0.2-0.1-0.4-0.1-0.6-0.1c-6.6-1.6-13.1-0.1-19.7,0.3c-7.4,0.4-14.8,1.5-22.3,1.7
			c-7.7,0.2-15.3-0.5-23-0.4c-12.4,0.1-24.7-1.5-36.9-3.5c-13.6-2.2-27.2-4.5-39.8-10.2c-4-1.8-8.3-3-12.7-4.5
			c-3.8,8.6-7.5,17.2-11.2,25.7c-1.3,3-2.4,6-3.8,8.9c-0.7,1.4-1.7,2.7-2.8,3.8c-0.4,0.4-1.6,0.6-2.2,0.4c-0.4-0.1-0.6-1.2-0.6-1.9
			c0-0.8,0.3-1.6,0.5-2.4c2-10.7,4.8-21.2,9.2-31.3c0.9-2,1.5-4.1,2.5-6.7c-7.2-0.8-14-1.6-20.7-2.1c-3.4-0.3-6.1,1-7.5,4.3
			c-0.9,2.2-2.5,4.2-3.7,6.2c-2.1,3.6-4.4,7.1-6.1,10.8c-3.5,7.4-6.5,15.1-9.9,22.6c-0.7,1.5-0.3,2.1,1.2,2.8
			c8.1,3.8,14.9,9.1,20.3,16c1.6,2.1,3.5,4,5.1,5.7c0.8-2.1,1.2-4.2,2.4-6c3.2-4.8,7.4-8.6,12.8-11.1c3-1.4,6.4-0.7,8.7,1.5
			c0.4,0.4,0.8,0.9,1.4,1.5c4.5-3.5,8.9-7,13.3-10.4c4.8-3.7,9.9-7.1,16.2-7.2c12-0.3,22.9,3.5,32.9,9.5c0.4,0.2,0.7,0.5,1,0.8
			c3.8,2.9,5.9,6.7,6.2,11.3c0.2,2.8,0,5.6,0,8.6c3.3-1.8,6.4-3.3,9.4-5.1c2.8-1.7,5.5-3.5,8-5.6c1.8-1.5,3.5-3.1,6.2-2.7
			c0.7,0.1,1.7,0.2,2,0.7c0.3,0.5,0.2,1.5-0.2,2c-0.9,1.4-2,2.6-3.1,3.9c-6.3,7.5-15.6,11-23.9,15.7c-9.4,5.3-19.5,9.6-27.4,17.2
			c-2,1.9-3.8,3.9-6,5.7c-4.7,3.8-9.5,7.4-14.2,11.2c-5.9,4.8-11.8,9.7-17.6,14.6c-0.1,0.1-0.2,0.3-0.2,0.5
			C917.8,235.4,918,235.3,918.2,235.3L918.2,235.3z M818.1,155.6c-2.5-3.9-5.3-6.7-9.3-8.4c-1-0.4-1.9-1-2.8-1.6
			c-8.9-5.7-19-8-29.5-8.7c-9.1-0.6-17.8,1.3-26,5.1c-8.5,4-17.2,7.8-20.4,17.4c-0.5,1.4-2.1,1.5-3.1,0.2c-0.7-0.9-1.3-2-1.9-3
			c-0.9-1.4-1.9-2.3-3.8-2.7c-4.1-0.7-8.2-1.7-12.2-2.8c-1.7-0.4-2.3-0.1-2.8,1.4c-3.4,10.6-4.5,21.4-3.4,32.4
			c1.2,11.9,7.7,20.8,16.8,28.5c6.3,5.3,14,8.2,21.9,10.5c2.1,0.6,4.3,1.4,6.5,1.6c3,0.3,6,0.1,9,0.1c0.8,0,1.6-0.3,2.3-0.7
			c2.3-1.1,4.6-2.5,7-3.5c1.5-0.6,3.3-0.8,5.1-1.3c-0.7-0.8-1.3-1.5-1.9-2.2c-3.2-3.6-3-7.4-0.8-11.3c0.9-1.5,2.4-2.8,3.7-4
			c1.2-1.2,2.6-2.1,1.8-4.2c-0.3-0.8,0.3-1.8,0.7-2.7c0.5-1.4,1.4-2.7,1.8-4.2c1-3.3,2.2-6.5,2.8-9.9c1-5.5,5-9.3,8.4-13.4
			c4.2-5.1,9.9-8.4,16-10.9C808.4,155.8,813,154.9,818.1,155.6L818.1,155.6z M883.8,194.7c0.9-2.6,1.9-5.1,2.6-7.6
			c0.2-0.7-0.3-1.7-0.8-2.4c-0.5-0.9-1.3-1.6-1.8-2.4c-2.7-4.6-5.4-9.2-9.8-12.7c-2.5-2-5.2-3.8-7.7-5.7c-3-2.2-6.5-3.4-10.2-3.4
			c-12.5,0.1-25,0.5-37.4,0.8c-0.4,0-0.7,0.1-1.1,0.1c-3.1,0.5-6.1,1.3-9.2,1.4c-5.4,0.2-9.6,2.7-13.5,5.8
			c-6.7,5.4-8.9,12.9-11,20.5c-0.6,2.1-1.3,4.3-1.6,6.4c-0.2,1.6-0.4,3.6,0.3,5c1,1.9,2.8,3.6,4.4,5.2c2.3,2.3,4.6,4.6,7.1,6.6
			c2.5,2.1,5.2,4,7.8,5.9c0.8,0.6,1.6,1.2,2.5,1.4c2.8,0.4,5.6,0.7,8.5,0.9c3.5,0.2,6.5,1.2,9.2,3.5c2.8,2.4,6.1,4.4,9.2,6.4
			c2.2,1.4,4.5,2.7,6.9,3.8c0.7,0.3,1.5,1.6,3,0.4c2.4-2,5.3-3.4,8-5.1c1.4-0.9,2.9-1.8,4.1-2.5c-2.8-3.2-5.6-5.7-7.5-8.7
			c-2.5-4-4.2-8.5-6.4-12.7c-0.3-0.6-0.8-1.2-1.4-1.4c-3.9-1.7-7.8-3.5-12.3-3.5c-1.2,0-2.4-1.1-3.6-1.6c0.1-0.3,0.2-0.6,0.3-0.9
			c4.5-2,8.9,0.2,13.4,0.6c-1.7-1.8-3.3-3.4-5.2-4.9c-0.8-0.6-2-1-3.1-1.3c-2.3-0.6-4.7-1.2-7.6-1.9c1.4-1,2.2-2,3.1-2.1
			c5.5-0.7,10.5,0.7,14.4,4.9c0.2-0.5,0.3-0.8,0.2-0.9c-1.1-2.9-2.3-5.7-3.2-8.6c-0.4-1.2-0.6-2.8,1.7-3.6
			c2.9,6.3,5.8,12.6,8.7,19.1c0.7-0.3,1-0.4,1.3-0.6c5-3.1,10.4-3.8,16-1.7c1.7,0.6,2.7,0.3,3.4-1c1-2.1,2.8-3.1,5-3.9
			c3.1-1.2,6.1-1.9,9.1,0.2C880.9,193,882.2,193.8,883.8,194.7L883.8,194.7z M949.7,180.7c-1.3-0.7-2.2-1.4-3.3-1.6
			c-2.9-0.6-5.9-1.1-8.9-1.4c-4.1-0.4-4.6-1-3.5-4.7c0.4-1.3,0-2-1.5-2c-1,0-2.1-0.1-3,0.2c-7,2.1-13.9,4.4-20.9,6.6
			c-0.6,0.2-1.6,0-2.1-0.3c-0.4-0.3-0.4-1.3-0.2-1.8c0.3-0.6,1-1.1,1.4-1.7c1-1.4,2.3-2.8,2.9-4.4c1-2.8-1.5-5.1-4.6-4.4
			c-1.1,0.3-2.3,0.9-3.1,1.7c-2.3,2.3-4.6,4.7-6.7,7.3c-3.7,4.7-4.5,10.5-6.3,15.9c-1.8,5.4-1.2,11-0.2,16.5
			c1.3,7.6,5.2,14.1,9.1,20.7c0.3,0.6,0.9,1.1,1.5,1.4c3.9,1.9,8,2.4,12.3,2.5c0.6,0,1.3-0.3,1.7-0.6c5.2-4.8,10.5-9.6,15.7-14.5
			c0.4-0.4,0.3-1.2,0.4-1.9c0.1-0.8,0-1.9,0.5-2.2c0.6-0.4,1.7-0.2,2.6-0.2c0.3,0,0.6,0.3,0.6,0.4c6.5-5.1,13-10.1,19.3-15.2
			c0.6-0.5,1-1.9,0.7-2.3c-1.3-1.8-1.6-3.6-0.5-5.5c-2.8-0.3-5.8,0.6-7-2.4C945.5,183.9,947.7,182.6,949.7,180.7L949.7,180.7z
			 M868.1,204.7c-0.8-0.5-1.4-0.6-1.7-1c-4.1-4.5-10.5-4-15.2-2.2c-2.5,1-3.6,2.8-2.9,5.1c1.4,4.6,2.2,9.4,5.7,13.2
			c2,2.1,2.8,5.2,4.8,7.3c2.1,2.1,5,3.4,7.5,5.2c1,0.7,1.7,1.9,2.7,2.5c3.5,2.1,7.1,4.2,10.8,6c1.5,0.8,3.4,1.4,5.1,1.2
			c5.8-0.5,11.5-1.3,17.4-2.1c0.3-2.7-0.7-5.1-3.3-6.8c-1.5-1-3.1-2.1-4.1-3.5c-2.1-3-4.1-6.1-5.8-9.3c-3.5-6.5-7.1-12.9-7.9-20.3
			c-0.3-2.8-4-5.1-6.8-4.3C869.8,196.8,868.2,200,868.1,204.7L868.1,204.7z M846.5,269.7c-2-3.3-1.9-6.4-0.3-9.6
			c1.6-3.2,3.1-6.5,4.6-9.6c-1.6-1.2-3.4-2.6-5.3-3.8c-5.7-3.9-11.4-7.7-17-11.6c-3.2-2.2-6.3-4.4-9.4-6.6c-1.6-1.1-3.3-1.5-5.4-1.6
			c-5.9-0.3-11.5-2-17.1-4.4c-0.9,0.6-2.1,1.4-3.2,2.2c-0.3,0.2-0.7,0.8-0.6,1.1c0.4,1.4,0.8,2.9,1.6,4.1c1.3,2.1,2.8,4,4.3,5.9
			c0.8,1.1,1.6,2.5,2.8,3.1c4.8,2.4,8.6,5.8,11.2,10.1c5.8-1.5,11.4-2.2,16.9,0.4c7.8,3.7,11.8,10,10.6,16.9
			c-0.2,1.4-0.4,2.7,1.3,3.5C843,270.7,844.7,271.1,846.5,269.7L846.5,269.7z M854.4,247.4c0.1,0.2,0.2,0.5,0.3,0.7
			c4.9-3.2,9.7-2.2,14.5-0.2c4.1,1.8,6.5,4.7,6.3,9c-0.2,5.5,2.7,9.2,7,12.2c1.7,1.1,3.9,1.9,6,2c6.5,0.5,12.2-1.1,16.1-6.5
			c0.6-0.9,1.5-1.7,2.1-2.6c3.1-4.6,4.8-9.4,1.6-14.7c-0.8-1.4-1.8-2.3-3.5-2.3c-4.1,0.1-8.3-0.3-12.3,0.3
			c-6.4,1.1-12.3,0.5-17.9-2.8c-2.6-1.6-5.3-3-7.8-4.4C862.6,241.3,858.5,244.4,854.4,247.4L854.4,247.4z M772.6,240
			c-2.2-2.5-4.2-4.8-6.3-6.9c-5-5-13.8-7.8-21-1.7c-0.7,0.6-1.5,1-2.3,1.4c-1.4,0.7-2.1,1.8-2.2,3.3c-0.2,2.5-0.6,5-0.7,7.6
			c-0.1,1.3-0.3,2.9,0.3,4c3.1,6.2,8.1,10.4,15.4,11.7c5,0.9,11.1-3.7,11.5-8.5C767.5,246.7,768.4,242.8,772.6,240L772.6,240z
			 M794.7,265.5c6.3,0.1,11.1-3.2,13-8.8c0.3-0.9,0.5-1.7,0.9-2.5c0.6-1.3,0.3-2.4-0.5-3.6c-4.7-6.8-11.5-9.9-19.8-9.9
			c-4.5,0-8.9,1.3-12.3,4.8c-1.6,1.7-1.3,3.6-1.8,5.5c-0.4,1.6,0,2.8,1.3,3.8c3,2.5,6,5,9,7.5C787.4,264.6,790.9,265.5,794.7,265.5
			L794.7,265.5z M810,264.9c5.4,6.9,6.2,7.4,14.1,8.2c4.3,0.4,8.9-1.6,10.3-5c1.9-4.6,1.1-7.9-2.2-11.1c-5.2-5.1-11.5-5.4-18-4.4
			C812.8,256.5,811.5,260.5,810,264.9L810,264.9z M860.6,250.2c-1,0.4-2.8,0.6-4.1,1.6c-3.2,2.2-5.3,5-5.7,9.2
			c-0.4,5.4,4.3,12.2,10,13.3c0.3,0,0.6,0,0.9,0.1c3.9,0.6,8-3.3,8.8-6.3c0.8-2.8,1.3-5.6,1.6-8.4c0.1-1.1,0-2.8-0.7-3.5
			C868.8,253.2,865.7,250.7,860.6,250.2L860.6,250.2z M765.1,227.9c2.2,1.5,4.4,2.7,6.2,4.2c1.8,1.5,3.2,3.5,4.9,5.2
			c0.3,0.3,1.2,0.3,1.7,0.2c2.1-0.4,4.1-1.1,6.1-1.2c3.4-0.2,6.8-0.1,10-0.1c-1.5-2.5-2.9-5.1-4.6-7.4c-0.8-1.1-2-2.4-3.2-2.8
			C779,223.8,772,224.3,765.1,227.9L765.1,227.9z M793.1,218.8c-6.4-4.5-12-9.3-15.6-16c-0.9,1.1-1.5,1.8-2.2,2.5
			c-4.5,5.6-4.3,8.6-0.4,13.2c0.5,0.6,1.5,0.9,2.3,1c2.5,0.4,5.1,0.3,7.4,1.2c3,1.2,5.3,1.7,7.3-1.2
			C792.1,219.3,792.5,219.1,793.1,218.8L793.1,218.8z M917.1,235.9l0.1-0.1H917L917.1,235.9z"/>
		<path class="st13" d="M917.8,235c5.9-4.9,11.7-9.8,17.6-14.6c4.7-3.8,9.5-7.4,14.2-11.2c2.1-1.7,4-3.8,6-5.7
			c7.8-7.6,18-11.9,27.4-17.2c8.3-4.7,17.6-8.2,23.9-15.7c1.1-1.3,2.2-2.6,3.1-3.9c0.4-0.5,0.5-1.5,0.2-2c-0.3-0.4-1.3-0.5-2-0.7
			c-2.7-0.5-4.3,1.1-6.2,2.7c-2.5,2.1-5.2,3.9-8,5.6c-3,1.8-6.1,3.3-9.4,5.1c0-3.1,0.2-5.8,0-8.6c-0.3-4.6-2.4-8.4-6.2-11.3
			c-0.3-0.3-0.7-0.5-1-0.8c-10.1-6-20.9-9.8-32.9-9.5c-6.3,0.2-11.4,3.6-16.2,7.2c-4.4,3.4-8.8,6.9-13.3,10.4
			c-0.6-0.6-1-1.1-1.4-1.5c-2.3-2.2-5.7-2.9-8.7-1.5c-5.4,2.5-9.7,6.3-12.8,11.1c-1.1,1.7-1.6,3.9-2.4,6c-1.5-1.7-3.4-3.6-5.1-5.7
			c-5.4-6.9-12.2-12.2-20.3-16c-1.5-0.7-1.9-1.3-1.2-2.8c3.3-7.5,6.4-15.1,9.9-22.6c1.7-3.7,4-7.2,6.1-10.8c1.2-2.1,2.8-4.1,3.7-6.2
			c1.4-3.3,4.2-4.6,7.5-4.3c6.8,0.5,13.5,1.3,20.7,2.1c-1,2.7-1.6,4.7-2.5,6.7c-4.4,10.1-7.1,20.6-9.2,31.3
			c-0.2,0.8-0.5,1.6-0.5,2.4c0,0.7,0.2,1.8,0.6,1.9c0.6,0.2,1.8,0,2.2-0.4c1.1-1.1,2.1-2.4,2.8-3.8c1.4-2.9,2.5-6,3.8-8.9
			c3.7-8.5,7.4-17.1,11.2-25.7c4.3,1.5,8.6,2.7,12.7,4.5c12.7,5.7,26.2,8,39.8,10.2c12.2,2,24.5,3.6,36.9,3.5c7.7,0,15.4,0.6,23,0.4
			c7.4-0.2,14.8-1.3,22.3-1.7c6.5-0.4,13.1-1.9,19.7-0.3c0.2,0.1,0.4,0.1,0.6,0.1c4.3,1,4.3,1.1,4.3,5.2c0,2.8-1.2,5.1-2.2,7.6
			c-1.6,4.1-2.5,8.4-3.6,12.6c-1.1,4.1-2.3,8.2-3.1,12.4c-0.6,3.2-0.9,6.5-1,9.8c-0.2,5.9,0.2,11.9-2.4,17.6
			c-0.7,1.4-1.3,2.9-2.4,4.1c-5.5,6.3-10.8,12.8-16.8,18.6c-7.3,7.1-15.1,13.8-23.2,20.1c-11.5,9-23.5,17.6-35.4,26.2
			c-3.5,2.5-7.6,4.2-11.7,5.8c-10.4,4.1-20.9,8-31.4,11.9c-0.8,0.3-1.8,0.5-2.5,0.2c-9.5-3.3-19.6-4.1-29.4-6.1
			c-4.8-0.9-9.5-1.9-14.5-2.9c12.9-7.1,18.6-20.4,13.2-29.7c7.6-4.7,15-10,23.1-14.1c11.2-5.6,22.8-10.3,34.3-15.3
			c11.1-4.8,21.6-10.5,31.7-17c1.6-1,3.1-2.2,4.5-3.6c1-1,1.2-2.6-0.1-3.5c-0.8-0.6-2.7-0.8-3.5-0.3c-16.3,11.4-35.3,18.1-53.1,26.9
			c-10,5-19.9,10.4-29.8,15.6c-0.5,0.3-1,0.5-1.5,0.7C918.1,235.2,918,235.1,917.8,235L917.8,235z"/>
		<path class="st11" d="M818.1,155.6c-5.1-0.7-9.7,0.2-14.1,1.9c-6.2,2.5-11.8,5.9-16,10.9c-3.4,4.1-7.4,7.9-8.4,13.4
			c-0.6,3.3-1.8,6.6-2.8,9.9c-0.5,1.4-1.3,2.8-1.8,4.2c-0.3,0.9-0.9,2-0.7,2.7c0.7,2.1-0.6,3-1.8,4.2c-1.3,1.3-2.8,2.5-3.7,4
			c-2.2,3.8-2.3,7.7,0.8,11.3c0.6,0.7,1.2,1.4,1.9,2.2c-1.8,0.4-3.5,0.6-5.1,1.3c-2.4,1-4.7,2.4-7,3.5c-0.7,0.4-1.6,0.6-2.3,0.7
			c-3,0.1-6.1,0.2-9-0.1c-2.2-0.2-4.3-1-6.5-1.6c-7.9-2.3-15.6-5.2-21.9-10.5c-9.1-7.6-15.6-16.6-16.8-28.5c-1.1-11,0-21.8,3.4-32.4
			c0.5-1.5,1.1-1.9,2.8-1.4c4,1.1,8.1,2.1,12.2,2.8c1.9,0.3,2.9,1.3,3.8,2.7c0.7,1,1.2,2,1.9,3c1,1.3,2.6,1.2,3.1-0.2
			c3.2-9.6,11.9-13.4,20.4-17.4c8.2-3.9,16.9-5.8,26-5.1c10.5,0.7,20.6,3,29.5,8.7c0.9,0.6,1.8,1.2,2.8,1.6
			C812.9,148.9,815.7,151.7,818.1,155.6L818.1,155.6z"/>
		<path class="st10" d="M883.8,194.7c-1.5-0.9-2.9-1.6-4.1-2.5c-3-2.2-6-1.4-9.1-0.2c-2.1,0.8-3.9,1.9-5,3.9c-0.7,1.3-1.7,1.6-3.4,1
			c-5.6-2.1-11-1.4-16,1.7c-0.3,0.2-0.6,0.3-1.3,0.6c-2.9-6.4-5.8-12.7-8.7-19.1c-2.3,0.9-2.1,2.4-1.7,3.6c1,2.9,2.2,5.7,3.2,8.6
			c0.1,0.1-0.1,0.4-0.2,0.9c-4-4.2-8.9-5.6-14.4-4.9c-0.9,0.1-1.7,1.1-3.1,2.1c3,0.7,5.3,1.2,7.6,1.9c1.1,0.3,2.2,0.6,3.1,1.3
			c1.9,1.4,3.5,3.1,5.2,4.9c-4.5-0.4-8.9-2.5-13.4-0.6c-0.1,0.3-0.2,0.6-0.3,0.9c1.2,0.6,2.4,1.6,3.6,1.6c4.5,0,8.4,1.8,12.3,3.5
			c0.6,0.2,1.1,0.9,1.4,1.4c2.1,4.2,3.9,8.7,6.4,12.7c1.9,3.1,4.7,5.6,7.5,8.7c-1.3,0.8-2.7,1.6-4.1,2.5c-2.7,1.7-5.5,3.1-8,5.1
			c-1.5,1.2-2.2-0.1-3-0.4c-2.4-1.1-4.7-2.4-6.9-3.8c-3.2-2-6.4-4-9.2-6.4c-2.7-2.3-5.8-3.3-9.2-3.5c-2.8-0.2-5.7-0.4-8.5-0.9
			c-0.9-0.1-1.7-0.8-2.5-1.4c-2.7-1.9-5.3-3.8-7.8-5.9c-2.5-2.1-4.8-4.4-7.1-6.6c-1.6-1.6-3.4-3.2-4.4-5.2c-0.7-1.4-0.5-3.3-0.3-5
			c0.3-2.2,1-4.3,1.6-6.4c2.1-7.6,4.3-15.1,11-20.5c3.9-3.1,8.1-5.6,13.5-5.8c3.1-0.1,6.1-0.9,9.2-1.4c0.3-0.1,0.7-0.1,1.1-0.1
			c12.5-0.3,25-0.7,37.4-0.8c3.7,0,7.2,1.2,10.2,3.4c2.6,1.9,5.2,3.7,7.7,5.7c4.3,3.5,7,8.1,9.8,12.7c0.5,0.9,1.3,1.6,1.8,2.4
			c0.4,0.7,1,1.7,0.8,2.4C885.6,189.7,884.7,192.2,883.8,194.7L883.8,194.7z"/>
		<path class="st13" d="M949.7,180.7c-2,1.9-4.2,3.2-3.1,5.9c1.2,3,4.2,2.1,7,2.4c-1.2,2-0.9,3.8,0.5,5.5c0.3,0.4-0.2,1.9-0.7,2.3
			c-6.3,5.1-12.7,10.1-19.3,15.2c0,0-0.3-0.4-0.6-0.4c-0.9,0-2-0.2-2.6,0.2c-0.5,0.3-0.3,1.4-0.5,2.2c-0.1,0.6,0,1.5-0.4,1.9
			c-5.2,4.9-10.4,9.7-15.7,14.5c-0.4,0.4-1.1,0.6-1.7,0.6c-4.3-0.1-8.5-0.6-12.3-2.5c-0.6-0.3-1.1-0.9-1.5-1.4
			c-3.8-6.6-7.8-13.1-9.1-20.7c-1-5.5-1.5-11.1,0.2-16.5c1.8-5.4,2.6-11.2,6.3-15.9c2-2.6,4.3-5,6.7-7.3c0.8-0.8,2-1.4,3.1-1.7
			c3.1-0.7,5.5,1.5,4.6,4.4c-0.5,1.6-1.8,3-2.9,4.4c-0.4,0.6-1.2,1.1-1.4,1.7c-0.2,0.5-0.2,1.5,0.2,1.8c0.5,0.4,1.5,0.5,2.1,0.3
			c7-2.1,13.9-4.4,20.9-6.6c0.9-0.3,2-0.2,3-0.2c1.5,0,1.9,0.7,1.5,2c-1,3.7-0.5,4.3,3.5,4.7c3,0.3,6,0.8,8.9,1.4
			C947.5,179.3,948.4,180,949.7,180.7L949.7,180.7z M921.7,188.1c-0.5,1.2-1.3,2.1-1.1,2.7c0.9,2.7,1.9,5.4,3,8.1
			c0.5,1.2,1.5,1.3,2.7,0.8s1.7-1.3,1.2-2.4c-1.1-2.4-2.3-4.7-3.6-7C923.6,189.5,922.8,189.1,921.7,188.1L921.7,188.1z"/>
		<path class="st13" d="M868.1,204.7c0.2-4.6,1.7-7.8,6.3-9c2.9-0.7,6.5,1.6,6.8,4.3c0.8,7.4,4.4,13.9,7.9,20.3
			c1.7,3.2,3.7,6.3,5.8,9.3c1,1.4,2.6,2.5,4.1,3.5c2.6,1.8,3.6,4.1,3.3,6.8c-5.9,0.7-11.6,1.6-17.4,2.1c-1.7,0.1-3.5-0.5-5.1-1.2
			c-3.7-1.8-7.3-3.9-10.8-6c-1-0.6-1.7-1.8-2.7-2.5c-2.5-1.8-5.4-3.1-7.5-5.2c-2-2.1-2.9-5.2-4.8-7.3c-3.6-3.9-4.3-8.7-5.7-13.2
			c-0.7-2.3,0.4-4.1,2.9-5.1c4.7-1.8,11-2.3,15.2,2.2C866.7,204.1,867.3,204.3,868.1,204.7L868.1,204.7z M866.8,225.6
			c0.5,1.5,3,3.6,4.1,3.2c0.8-0.2,1.7-1.1,1.8-1.9c0.3-1.6-2.2-4.6-3.3-4.1C868.3,223.4,867.6,224.7,866.8,225.6L866.8,225.6z
			 M882.7,228.5c-0.3,0-0.7,0-1,0c-0.6,0.9-1.7,1.7-1.7,2.6c0,0.7,1.3,1.4,2.1,2.1c0.7-0.7,1.9-1.4,2-2.1
			C884.2,230.2,883.2,229.3,882.7,228.5L882.7,228.5z M871.4,210c-0.9,1.1-1.9,1.8-1.9,2.4c0,0.7,1.2,1.8,1.7,1.8
			c0.8-0.1,1.8-1,2-1.7C873.3,211.9,872.3,211.2,871.4,210L871.4,210z"/>
		<path class="st13" d="M846.5,269.7c-1.8,1.4-3.5,1-5.2,0.2c-1.7-0.8-1.5-2.1-1.3-3.5c1.2-6.9-2.8-13.2-10.6-16.9
			c-5.5-2.6-11.1-1.9-16.9-0.4c-2.6-4.4-6.4-7.7-11.2-10.1c-1.2-0.6-1.9-2-2.8-3.1c-1.5-1.9-3-3.8-4.3-5.9c-0.8-1.2-1.2-2.7-1.6-4.1
			c-0.1-0.3,0.3-0.9,0.6-1.1c1.1-0.9,2.3-1.6,3.2-2.2c5.6,2.4,11.2,4.2,17.1,4.4c2.1,0.1,3.8,0.5,5.4,1.6c3.1,2.2,6.2,4.4,9.4,6.6
			c5.7,3.9,11.4,7.7,17,11.6c1.9,1.3,3.7,2.6,5.3,3.8c-1.5,3.1-3,6.3-4.6,9.5C844.6,263.3,844.5,266.4,846.5,269.7L846.5,269.7z"/>
		<path class="st13" d="M854.4,247.4c4.1-3.1,8.1-6.1,12.3-9.3c2.5,1.4,5.2,2.9,7.8,4.4c5.5,3.3,11.4,3.9,17.9,2.8
			c4-0.7,8.2-0.3,12.3-0.3c1.7,0,2.6,0.9,3.5,2.3c3.2,5.3,1.5,10-1.6,14.7c-0.6,0.9-1.5,1.7-2.1,2.6c-3.9,5.5-9.6,7-16.1,6.5
			c-2-0.1-4.3-0.9-6-2c-4.3-2.9-7.2-6.7-7-12.2c0.2-4.3-2.2-7.2-6.3-9c-4.8-2.1-9.6-3.1-14.5,0.2
			C854.6,247.9,854.5,247.7,854.4,247.4L854.4,247.4z"/>
		<path class="st13" d="M772.6,240.1c-4.2,2.8-5.1,6.7-5.4,10.9c-0.3,4.8-6.5,9.3-11.5,8.5c-7.3-1.3-12.3-5.5-15.4-11.7
			c-0.6-1.1-0.4-2.7-0.3-4c0.2-2.5,0.5-5,0.7-7.6c0.1-1.5,0.8-2.6,2.2-3.3c0.8-0.4,1.7-0.9,2.3-1.4c7.1-6.1,16-3.3,21,1.7
			C768.4,235.3,770.3,237.6,772.6,240.1L772.6,240.1z"/>
		<path class="st13" d="M794.6,265.5c-3.8,0-7.3-0.9-10.2-3.4c-3-2.5-6-5-9-7.5c-1.3-1.1-1.6-2.2-1.3-3.8c0.4-1.9,0.1-3.8,1.8-5.5
			c3.3-3.4,7.7-4.8,12.3-4.8c8.3,0,15.2,3.1,19.8,9.9c0.8,1.2,1.2,2.3,0.5,3.6c-0.4,0.8-0.6,1.7-0.9,2.5
			C805.7,262.3,800.9,265.6,794.6,265.5L794.6,265.5z"/>
		<path class="st13" d="M810,264.9c1.5-4.4,2.8-8.4,4.2-12.4c6.5-0.9,12.8-0.6,18,4.4c3.3,3.2,4,6.5,2.2,11.1
			c-1.4,3.4-5.9,5.5-10.3,5C816.2,272.3,815.3,271.8,810,264.9L810,264.9z"/>
		<path class="st13" d="M860.6,250.2c5.1,0.5,8.2,3,10.9,5.8c0.7,0.8,0.9,2.4,0.7,3.5c-0.3,2.8-0.8,5.7-1.6,8.4
			c-0.8,2.9-5,6.9-8.8,6.3c-0.3,0-0.6,0-0.9-0.1c-5.7-1.1-10.5-7.8-10-13.3c0.3-4.1,2.4-6.9,5.7-9.2
			C857.9,250.9,859.6,250.6,860.6,250.2L860.6,250.2z"/>
		<path class="st13" d="M765,227.9c6.9-3.6,13.9-4.1,21.1-1.8c1.3,0.4,2.4,1.7,3.2,2.8c1.7,2.4,3,4.9,4.6,7.4c-3.2,0-6.6-0.1-10,0.1
			c-2.1,0.1-4.1,0.8-6.1,1.2c-0.5,0.1-1.4,0.1-1.7-0.2c-1.7-1.7-3.1-3.6-4.9-5.2C769.4,230.6,767.3,229.4,765,227.9L765,227.9z"/>
		<path class="st13" d="M793.1,218.8c-0.6,0.4-1,0.5-1.2,0.8c-2,2.9-4.3,2.4-7.3,1.2c-2.2-0.9-4.9-0.8-7.4-1.2
			c-0.8-0.1-1.8-0.5-2.3-1c-3.9-4.6-4.1-7.6,0.4-13.2c0.6-0.8,1.2-1.5,2.2-2.5C781.1,209.5,786.7,214.3,793.1,218.8L793.1,218.8z"/>
		<polygon class="st13" points="917.1,235.9 917,235.8 917.2,235.8 		"/>
		<path class="st13" d="M918.2,235.3c-0.2,0-0.4,0.1-0.6,0.1c0.1-0.1,0.2-0.3,0.2-0.5C918,235.1,918.1,235.2,918.2,235.3
			L918.2,235.3z"/>
		<path class="st9" d="M921.7,188.1c1.1,1,1.9,1.4,2.3,2.1c1.3,2.3,2.4,4.6,3.6,7c0.5,1.2,0,1.9-1.2,2.4c-1.2,0.5-2.2,0.4-2.7-0.8
			c-1.1-2.7-2.2-5.3-3-8.1C920.4,190.1,921.1,189.3,921.7,188.1L921.7,188.1z"/>
		<path class="st9" d="M866.8,225.6c0.8-0.9,1.5-2.2,2.5-2.7c1.1-0.5,3.6,2.4,3.3,4.1c-0.1,0.7-1,1.6-1.8,1.9
			C869.8,229.2,867.3,227.1,866.8,225.6L866.8,225.6z"/>
		<path class="st9" d="M882.7,228.5c0.5,0.8,1.5,1.7,1.4,2.5c-0.1,0.8-1.3,1.4-2,2.1c-0.7-0.7-2.1-1.4-2.1-2.1
			c0-0.9,1.1-1.7,1.7-2.6C882,228.5,882.4,228.5,882.7,228.5L882.7,228.5z"/>
		<path class="st9" d="M871.4,210c0.9,1.1,2,1.9,1.8,2.5c-0.2,0.7-1.2,1.6-2,1.7c-0.5,0.1-1.7-1.1-1.7-1.8
			C869.5,211.8,870.5,211.1,871.4,210L871.4,210z"/>
	</g>
	<text transform="matrix(1.06 0 0 1 1182.8701 158.5303)" class="st3 st4 st5 st8">AK</text>
	<text transform="matrix(1.06 0 0 1 1140.9688 206.5303)" class="st3 st6 st7">P</text>
	<text transform="matrix(1.06 0 0 1 1167.4043 206.5303)" class="st3 st6 st7">r</text>
	<text transform="matrix(1.06 0 0 1 1181.4492 206.5303)" class="st3 st6 st7">o-choice </text>
	<text transform="matrix(1.06 0 0 1 1173.2139 254.5303)" class="st3 st6 st7">spends </text>
	<text transform="matrix(1.06 0 0 1 1148.8018 302.5303)" class="st3 st6 st7">28% more</text>
	<g>
		<path class="st9" d="M1300,560.6c-0.2-0.6-0.4-1.2-0.7-1.8c-2.2-3.6-1.4-6.7,1.7-9.5c1.4-1.3,2.8-1.6,4.5-0.2
			c3.3,2.6,6.6,5.4,9.9,8c2.3,1.8,4.8,3.4,7.2,5.1c1.6,1.1,3.1,2.3,4.5,3.6c3.3,3.2,7.6,4.1,11.9,5.1c0.6,0.1,1.3-0.3,1.9-0.5
			c27-12.4,54.1-24.8,81-37.2c3.2-1.5,6-3.5,8.9-5.3c0.4-0.2,0.7-0.9,0.6-1.3c-0.4-3.3,0-6.5,0.7-9.7c1.4-5.8,2.3-11.8,3.4-17.6
			c0-0.2,0-0.4,0.1-0.6c1.7-3.2,0-5.5-1.9-8c-2.3-3-4.3-6.1-6.3-9.2c-0.5-0.8-0.7-1.9-1-2.9c-2.9-1.2-6.1-2.2-9-3.7
			c-3.3-1.7-6.2-3.9-8-7.2c-1.1-2.1-1.3-4.3-0.3-6.6c-7-5.7-14-11.5-21.1-17c-21.1-16.3-41.5-33.2-61.9-50.3
			c-14.1-11.8-28.7-23-43.1-34.6c-2.8-2.2-5.3-4.8-7.8-7.3c-0.7-0.7-1.2-1.8-1.3-2.7c-0.1-1.7,1.9-2.7,3.7-1.9
			c0.6,0.3,1.1,0.7,1.6,1.1c15.2,14,31.4,26.8,47.8,39.4c10,7.6,19.2,16.2,29,24c13.5,10.8,27.3,21.3,40.8,32
			c5.4,4.3,10.4,8.9,15.7,13.3c0.4,0.3,1.1,0.6,1.5,0.5c3.7-1,7,0.2,10.4,1.1c2.8,0.8,5.4,1.8,8.4,2.8c-0.4-0.7-0.8-1.3-1.3-2
			c-2.1-3-4.7-5.9-5-9.8c-0.1-1.5,0.2-3-0.1-4.4c-0.2-1.1-1-2.2-1.9-3c-3.6-3.3-7.4-6.4-11-9.8c-28.2-26.7-56.3-53.5-84.5-80.1
			c-10.1-9.5-20.5-18.6-30.7-28.1c-2.5-2.3-4.5-5-6.7-7.5c-0.5-0.6-0.7-1.4-0.7-2.4c3.5,2.6,6.9,5.2,10.4,7.7
			c13.7,9.9,25.6,21.5,37.8,33c28.2,26.5,56.2,53.2,84.2,79.8c2.5,2.4,5.1,4.7,7.6,7c8.1-1.1,15.7-0.2,21.3,5.5
			c1.7-0.3,3.1-0.8,4.5-0.8c9.8,0.4,19.6,1.2,29.1,3.5c1.8,0.4,3.4,0.2,4.6-1.3c0.3-0.4,0.8-0.7,1.2-1c4.4-3.2,8.8-6.5,13.1-9.8
			c0.4-0.3,0.8-0.9,0.7-1.2c-0.2-0.5-0.7-1-1.2-1.1c-1.1-0.2-2.3-0.3-3.4-0.3c-3.6,0.1-6.3-1.4-8.8-3.8c-3.2-3.2-4.7-6.9-5.4-11.2
			c-1-6-1.1-6,4-9.6c1.5-1.1,2.5-2.1,2.5-4.1c0.1-5.5,2.4-9.8,7.3-13.1c2.2-1.5,4-3.7,5.3-5.9c3-4.9,7.7-7.5,13.1-8.9
			c4.9-1.3,9.9-2,15.1-1.8c12,0.4,23.8-1.3,35.5-4.2c3.7-0.9,7.3-1.8,10.5-4c0.7-0.5,2-0.1,3.1-0.2c-1,4.3,1.2,6.7,5.6,7
			c5.8,0.5,10.8-2.2,16-3.8c1-0.3,1.9-0.7,2.9-0.9c0.6-0.1,1.6-0.1,1.9,0.2c3.9,3.6,9.1,4,14,5c4.6,1,9.2,0.3,13.8-0.2
			c1.4-0.2,3-0.4,3.8,1.1c0.8,1.6-0.4,2.6-1.4,3.6c-2.9,2.9-6,5.8-8.6,9c-2.9,3.7-2.8,8.1-1.3,12.4c0.8,2.1,1.9,4.1,2.8,6.2
			c1.9,4.4,1.1,8.5-2.3,11.8c-2.8,2.8-6.2,5-9.1,7.7c-1.6,1.5-2.7,3.3-3.9,5.1c-1.8,2.7-3.5,2.8-5.6,0.3c-2-2.3-4.9-3.1-7.8-3.8
			c-8.1-2.1-16.3-2-24.5-0.9c-8.1,1.1-16,2.7-24,4.1c-7,1.3-13.9,2.1-21.4,0.3c0.7,2,1.1,3.9,1.8,5.7c3.3,7.5,4.1,15.4,3.6,23.4
			c-0.2,4.2-2.5,7.5-4.2,11.2c-3.8,8.1-7.3,16.2-11,24.3c-3,6.7-6,13.4-8.9,20.1c-2.1,4.7-3.3,9.6-3.1,14.8c0.2,5.3-1.5,9.8-6,13.1
			c-1.2,0.9-2.5,1.8-3.7,2.7c-0.3,0.2-0.6,0.6-0.7,0.9c-0.2,3.1-2.4,4.8-5,5.8c-4.1,1.7-8.3,3.2-12.6,4.5
			c-7.2,2.3-14.4,4.3-21.6,6.5c-1.1,0.3-2.2,0.7-3.3,0.8c-3.3,0.5-4.5-0.3-5.3-3.7c-3.4,0.9-6.8,1.6-10,2.7c-21,7-42,14-62.9,21.1
			c-10.7,3.6-21.3,7.5-32,11.2c-0.8,0.3-1.5,0.9-2.3,1.3c-3.9,2-7.6,4.3-11.6,5.9c-5.6,2.2-10.8,0.3-15.5-2.8
			c-0.5-0.4-0.9-1.1-1.1-1.8c-1.8-7.5-6.2-13-12.3-18.1c-6.2-5.2-11-12-16.3-18.2c-1.6-1.9-1.3-3.7,0.2-5.1c1.8-1.6,3.9-1.7,6.1-0.4
			C1297.6,559.4,1298.8,560,1300,560.6c0,0.1,0,0.2,0,0.3c0.1,0,0.1,0,0.2,0C1300.1,560.8,1300,560.7,1300,560.6L1300,560.6z
			 M1613,427c3.4-2.7,6.4-5.2,9.6-7.7c6.1-4.7,6.4-5.9,3.2-12.6c-1.5-3-2.5-6.1-2.5-9.5c0-4.7,1.1-8.9,5.6-11.7
			c1.1-0.7,2.3-1.5,3.1-2.5c0.5-0.6,0.9-1.7,0.6-2.4c-0.2-0.6-1.3-1.1-2.1-1.2c-5.2-0.4-10.4-1.3-15.3-3c-2.3-0.8-4.5-1.7-6.8-2.4
			c-0.8-0.2-1.7-0.3-2.5-0.1c-1.1,0.2-2,0.7-3,1.2c-5.9,2.5-12,3.9-18.5,3.6c-4-0.2-5.8-1.4-6.6-4.2c-4.4,1-8.8,2.5-13.2,3
			c-6.6,0.8-13.3,0.8-20,1.2c-4.6,0.3-9.3,0.6-13.9,1.3c-3.4,0.5-6.8,1.7-10.2,2.6c-5.6,1.4-9.1,5-12.2,9.4c8.7,4.6,8.8,12.1,8,20.1
			c1-0.4,1.8-0.9,2.6-0.9c1,0,2.4,0.1,2.9,0.8c1.5,2,1.1,4.4,0.4,6.5c-0.3,1-1.7,1.7-2.7,2.6c0.4,0.6,0.9,1.6,1.7,2.5
			c4.9,5.8,11.7,8,19.2,7.7c5.4-0.2,10.8-1.5,15.9-3c13.5-3.9,27.2-5.3,41.3-4.4C1602.9,424.2,1608.5,424.3,1613,427L1613,427z
			 M1508.4,523.2c0.7-2.4,1.1-4.8,2-7c2.6-6.5,5.3-12.9,8-19.4c2.9-6.9,5.7-13.7,8.8-20.5c2.6-5.6,5.6-10.9,5.8-17.3
			c0.3-8.1,0.1-16.1-2.9-23.8c-0.2-0.6-1-1.3-1.5-1.3c-5.5,0-11,0.4-16.3,2.2c-0.5,0.2-1,0.6-1.4,1c-1.3,1.1-2.4,2.4-3.8,3.4
			c-4.2,3-8.5,6-12.7,8.9c1.7,1.8,3.2,3.3,4.5,4.9c0.6,0.8,0.7,1.9,1,2.9c-1.1-0.2-2.3-0.3-3.3-0.7c-1-0.4-1.9-1.2-3.1-1.9
			c0.6,2.4,1.2,4.4,1.7,6.5c0.1,0.5-0.4,1.1-0.6,1.6c-0.6-0.2-1.4-0.3-1.7-0.7c-0.7-0.8-1.1-1.8-1.5-2.7c-0.7-1.4-1.4-2.8-2.2-4.3
			c-1.7,1.2-3.2,2.3-4.7,3.2c-0.4,0.3-1.2,0.1-1.8,0.2c0.1-0.5,0.1-1.1,0.3-1.5c0.8-1.4,1.8-2.7,3.1-4.5c-9.8-0.6-19.1-1.2-28.5-1.8
			c-0.4,5.1-0.7,9.9-1.1,14.9c1.1,0.2,2.1,0.4,3.1,0.5c12.2,0.8,24.3,1.7,36.5,2.3c1.9,0.1,4-0.2,5.7-1c4.1-2,7.8-4.5,11.8-6.4
			c2.6-1.3,4.7-3,6.3-5.3c1-1.4,2.2-2.8,3.5-4c0.5-0.5,1.4-0.5,2.1-0.7c0,0.7,0.2,1.5-0.2,2.1c-1.1,2-2.4,3.9-3.8,6
			c1.8-0.7,3.3-1.4,4.9-1.9c0.5-0.1,1.6,0.2,1.8,0.6c0.2,0.5-0.1,1.3-0.5,1.8s-1.1,0.8-1.7,1c-2.2,0.9-4.5,1.5-6.6,2.5
			c-6.2,2.9-12.3,6-18.5,9c-1.1,0.5-2.6,0.7-3.9,0.7c-3.6-0.1-7.2-0.5-10.8-0.6c-0.6,0-1.4,0.4-1.7,0.9c-2.6,3.6-5.1,7.3-7.6,10.9
			c-1.6,2.4-3.3,4.7-5.2,7.3c2.3-0.2,4.2-0.4,5.3,1.2c1.3,1.9,2.5,3.8,3.4,5.9c2.1,4.5,4.1,9,6.1,13.5c0.9,2.2,1.9,4.1,4.8,4.2
			c0.3,0,0.6,0.2,0.9,0.4C1497.5,518.5,1502.7,520.7,1508.4,523.2L1508.4,523.2z M1348.4,596.5c2-1.3,3.2-2.3,4.7-2.9
			c3.6-1.5,7.3-2.8,10.9-4.3c5.3-2.1,10.6-4.2,15.9-6.3c5.1-2,10.1-4,15.2-5.9c4.7-1.8,9.3-3.6,14-5.3c5.4-2,10.8-4,16.3-5.9
			c3.2-1.1,6.4-2.3,9.7-3.3c5.7-1.8,11.5-3.5,17.2-5.3c0.5-0.2,1.1-1,1.1-1.5c0-2.2,0-4.5-0.4-6.8c-0.8-4.7-1.9-9.3-2.9-13.9
			c-0.6-2.5-1.2-4.9-1.9-7.4c-0.3-0.8-0.7-1.8-2.2-1.1c-3.5,1.6-7.1,3.1-10.6,4.7c-3.8,1.7-7.5,3.4-11.3,5.2
			c-6.5,3-13.1,5.9-19.6,8.9c-6.4,2.9-12.9,5.8-19.2,8.8c-4.2,2-8.4,4.2-12.6,6.3c-0.4,0.2-0.7,0.4-1.1,0.6
			c-5.9,2.7-11.8,5.3-17.7,8c-1,0.5-2.1,0.8-3.2,1.2c-2.3,0.9-4.6,1.7-6.9,2.6c-0.4,0.2-0.7,0.5-1,0.9c-1.6,2.3-2.2,4.6-2.2,7.4
			c-0.1,3.7,1.2,6.9,2.9,10C1344.7,593.2,1346.8,594.9,1348.4,596.5L1348.4,596.5z M1521.9,429.5c-1.4-1.8-3.1-3.7-4.5-5.8
			c-0.8-1.1-1.2-2.4-1.6-3.6c-0.4-1,0.1-1.7,1.3-1.9c3-0.5,3.6-1.5,2.8-4.8c-0.6,0.3-1.3,0.5-1.8,0.9c-1.3,1.1-2.5,0.2-3.5-0.2
			c-0.4-0.2-0.3-1.6-0.2-2.4c0-1,0.3-2,0.4-3c0.5-6-2.5-11.2-7.7-13.7c-1.2-0.6-2-0.4-3.1,0.4c-4.3,3.1-6.4,7.3-7.4,12.2
			c-0.2,1.2-1,2.5-1.9,3.4c-1.9,1.8-4,3.4-6.3,5.3c1.3,3.6,2.1,7.5,4,11c1.9,3.4,5,6.1,9.6,6.1c1.9,0,3.8,0.1,5.7,0.4
			c1.6,0.2,3.4-1.6,5.3-2.2C1515.9,430.7,1519.1,430.1,1521.9,429.5L1521.9,429.5z M1478.4,471.4c-0.5-0.1-0.9-0.3-1.3-0.3
			c-5.4-0.5-10.8-0.8-16.2-1.4c-2-0.2-4-0.9-5.9-1.5c-1.4-0.4-2.7-1.5-4.1-1.6c-3.7-0.3-7.4-0.2-11.1-0.2c-0.8,2.3-1.7,4.9-2.7,7.6
			c1.1,0.4,2.2,0.8,3.4,1.2c5.7,1.8,11.5,3.4,17.1,5.5c3.6,1.4,7,0.9,10.5,0.5c0.3,0,0.7-0.2,0.9-0.4
			C1472.2,477.6,1475.2,474.6,1478.4,471.4L1478.4,471.4z M1451.6,462.7c0.2-3.2,0.1-6,0.6-8.7c0.4-2.1-0.2-3.6-1.8-4.8
			c-4.6-3.7-10-5-15.7-4.1c-4.6,0.7-5.7,3.1-3.4,7c1.8,2.9,3.9,5.7,6.2,8.3c1,1.1,3,1.9,4.6,2.1
			C1445.1,462.8,1448.2,462.6,1451.6,462.7L1451.6,462.7z M1436.1,464.2c-2.5-0.5-5-1-7.4-1.5c-3.7-0.9-7.3-1.9-11.1-2.7
			c-3.8-0.7-6.7,1.8-5.6,4.7c0.4,1,1.1,1.9,1.8,2.8c3,3.6,7.1,5.7,11.6,7.1c4.2,1.3,7.3-0.1,8.5-4.1
			C1434.7,468.3,1435.4,466.3,1436.1,464.2L1436.1,464.2z M1490.7,520.1c3.9,8.2,7.5,15.8,11.1,23.6c3.8-3,6.5-6.2,5.9-10.9
			c-0.3-2.1-0.1-4.4-2.4-5.7c-1.2-0.7-2.6-1.2-3.9-1.9c-1.6-0.8-3.2-1.8-4.8-2.6C1494.8,521.7,1493,521.1,1490.7,520.1L1490.7,520.1
			z M1451.5,483.7c-1.3,4.9-2.6,9.6-4,14.5c6.7-2,13-3.9,19.1-5.7c0.2-2.2,0.5-4.3,0.8-6.9C1461.6,487.6,1456.4,485.8,1451.5,483.7
			L1451.5,483.7z M1443.4,496.1c0.2-0.1,0.3-0.2,0.5-0.3c1.2-4.5,2.5-9.1,3.7-13.6c-3.4-1.5-6.8-2.8-10-4.5
			c-2.5-1.4-4.5-0.6-6.7,0.6C1435.1,484.2,1439.3,490.1,1443.4,496.1L1443.4,496.1z M1444.2,512.9c-1.2-4.5-2.3-9-3.5-13.5l-0.4,0.2
			c-1,5-2,10.1-3.1,15.3C1439.6,514.3,1441.8,513.6,1444.2,512.9L1444.2,512.9z"/>
		<path class="st13" d="M1613,427c-4.5-2.6-10-2.7-15.5-3.1c-14-0.9-27.8,0.5-41.3,4.4c-5.2,1.5-10.6,2.8-15.9,3
			c-7.4,0.4-14.2-1.9-19.2-7.7c-0.7-0.9-1.3-1.9-1.7-2.5c0.9-0.9,2.3-1.6,2.7-2.6c0.7-2.1,1.1-4.5-0.4-6.5c-0.5-0.6-1.9-0.8-2.9-0.8
			c-0.8,0-1.6,0.5-2.6,0.9c0.8-8,0.7-15.5-8-20.1c3.1-4.3,6.6-8,12.2-9.4c3.4-0.8,6.7-2,10.2-2.6c4.6-0.7,9.2-1,13.9-1.3
			c6.7-0.5,13.4-0.5,20-1.2c4.5-0.5,8.8-2,13.2-3c0.8,2.8,2.6,4,6.6,4.2c6.5,0.3,12.6-1.1,18.5-3.6c1-0.4,2-0.9,3-1.2
			c0.8-0.2,1.8-0.1,2.5,0.1c2.3,0.7,4.5,1.6,6.8,2.4c5,1.7,10.1,2.6,15.3,3c0.8,0.1,1.9,0.6,2.1,1.2c0.2,0.7-0.1,1.8-0.6,2.4
			c-0.8,1-2,1.8-3.1,2.5c-4.6,2.8-5.6,7-5.6,11.7c0,3.4,1,6.5,2.5,9.5c3.3,6.7,2.9,7.9-3.2,12.6C1619.4,421.7,1616.4,424.2,1613,427
			L1613,427z M1623.4,383.4c-0.1-0.2-0.2-0.4-0.2-0.6c-1.6-0.1-3.4-0.8-4.7-0.2c-8.4,3.8-17.3,5.4-26.4,6.2
			c-10.6,0.9-21.2,1.4-31.7,1.8c-8.7,0.3-16.6,2.5-23.9,6.8c-4.5,2.6-7.9,6-9.7,10.8c-0.4,1.1-0.9,2.3,0.6,3.2
			c2.5-5.4,7.1-8.8,12.1-11.6c6.9-3.9,14.6-4.6,22.4-4.7c12-0.1,23.9-0.3,35.8-1.9c6.2-0.9,12.3-2.1,17.9-5
			C1618.2,386.7,1620.8,385,1623.4,383.4L1623.4,383.4z M1528.2,422c0,0.2,0,0.4,0,0.5c0.2,0.1,0.4,0.3,0.7,0.3
			c0.7,0.2,1.3,0.4,2,0.5c5.7,0.6,11.4,0.4,16.9-1.3c1.8-0.6,3.6-1.2,5.4-1.6c16.8-4.1,33.8-5,51-3.8c2.6,0.2,5.3,0.3,7.9,0.4
			c0.6,0,1.1-0.5,1.7-0.8c-0.4-0.4-0.8-0.9-1.3-1.2c-5.9-2.6-12.3-3.4-18.7-3.5c-16.7-0.3-33.1,2-48.9,7.4c-1.8,0.6-3.8,1-5.7,1.4
			C1535.6,420.9,1531.9,421.4,1528.2,422L1528.2,422z M1616.9,398.4c-1.1-0.1-1.9-0.3-2.7-0.2c-2.1,0.3-4.1,1-6.2,1.2
			c-10,1-20,2-30.1,1.2c-8.8-0.7-17.7-1.4-26.3,1.3c-8,2.5-15.2,6-19.3,13.4c-0.3,0.6-0.2,1.5-0.3,2.3c0.8-0.2,1.8-0.4,2.5-0.7
			c0.4-0.2,0.6-0.8,1-1.2c1.7-1.6,3.1-3.4,5-4.8c8-5.6,17.2-7.9,27.1-7.3c9.2,0.5,18.3,1.5,27.4,0.4c5-0.6,10.1-0.9,15.1-1.6
			C1612.8,402.1,1615.1,400.9,1616.9,398.4L1616.9,398.4z M1592.9,384.2c-0.8,0-1.7,0-2.5,0c-6.9,0.6-13.8,0.2-20.7-0.7
			c-3.7-0.5-7.6-0.9-11.3-0.6c-10.1,0.8-19.6,4-28.4,8.6c-4,2.1-7.3,5.2-10.8,8c-0.5,0.4-0.3,1.8-0.4,2.7c0.8-0.2,1.8-0.1,2.4-0.6
			c10-8.6,22.1-12.5,35.2-14.7c6.9-1.1,13.7-0.3,20.5-0.1C1582.3,386.9,1587.7,385.9,1592.9,384.2L1592.9,384.2z M1516.8,395.6
			c2-1.4,3.8-2.8,5.7-4c5.1-3.2,10-6.8,16.1-8.2c0.4-0.1,0.7-0.7,1-1c-0.4-0.3-0.8-0.8-1.2-0.9c-0.8-0.1-1.8-0.1-2.6,0
			c-8.4,1.6-14.6,6.7-20.5,12.3C1515.8,394.5,1516.3,395,1516.8,395.6L1516.8,395.6z"/>
		<path class="st11" d="M1508.4,523.2c-5.7-2.4-10.9-4.6-16.1-6.8c-0.3-0.1-0.6-0.3-0.9-0.4c-2.9-0.1-3.9-2-4.8-4.2
			c-1.9-4.5-3.9-9-6.1-13.5c-1-2-2.2-4-3.4-5.9c-1.1-1.7-3-1.5-5.3-1.2c1.9-2.6,3.6-5,5.2-7.3c2.5-3.6,5-7.3,7.6-10.9
			c0.3-0.5,1.1-0.9,1.7-0.9c3.6,0.1,7.2,0.5,10.8,0.6c1.3,0,2.8-0.1,3.9-0.7c6.2-2.9,12.3-6,18.5-9c2.1-1,4.4-1.6,6.6-2.5
			c0.6-0.2,1.3-0.5,1.7-1c0.4-0.5,0.7-1.3,0.5-1.8c-0.2-0.4-1.3-0.7-1.8-0.6c-1.6,0.4-3,1.1-4.9,1.9c1.4-2.2,2.7-4.1,3.8-6
			c0.3-0.6,0.1-1.4,0.2-2.1c-0.7,0.2-1.6,0.3-2.1,0.7c-1.3,1.2-2.5,2.6-3.5,4c-1.6,2.3-3.7,4-6.3,5.3c-4,2-7.8,4.5-11.8,6.4
			c-1.7,0.8-3.8,1.1-5.7,1c-12.2-0.7-24.3-1.5-36.5-2.3c-1-0.1-2-0.3-3.1-0.5c0.4-5,0.7-9.8,1.1-14.9c9.4,0.6,18.7,1.2,28.5,1.8
			c-1.2,1.8-2.2,3.1-3.1,4.5c-0.3,0.4-0.2,1-0.3,1.5c0.6-0.1,1.3,0.1,1.8-0.2c1.5-0.9,3-2,4.7-3.2c0.7,1.5,1.4,2.9,2.2,4.3
			c0.5,0.9,0.9,1.9,1.5,2.7c0.3,0.4,1.1,0.5,1.7,0.7c0.2-0.5,0.7-1.1,0.6-1.6c-0.4-2.1-1.1-4.1-1.7-6.5c1.1,0.7,2,1.5,3.1,1.9
			c1,0.4,2.2,0.5,3.3,0.7c-0.3-1-0.4-2.1-1-2.9c-1.3-1.6-2.8-3.1-4.5-4.9c4.2-3,8.5-5.9,12.7-8.9c1.4-1,2.5-2.3,3.8-3.4
			c0.4-0.4,0.9-0.8,1.4-1c5.3-1.8,10.8-2.1,16.3-2.2c0.5,0,1.3,0.8,1.5,1.3c3,7.7,3.1,15.7,2.9,23.8c-0.2,6.4-3.2,11.7-5.8,17.3
			c-3.1,6.8-5.9,13.6-8.8,20.5c-2.7,6.4-5.4,12.9-8,19.4C1509.5,518.4,1509.1,520.8,1508.4,523.2L1508.4,523.2z"/>
		<path class="st14" d="M1348.4,596.5c-1.6-1.7-3.7-3.4-4.9-5.5c-1.6-3.1-2.9-6.2-2.9-10c0.1-2.8,0.7-5.2,2.2-7.4
			c0.2-0.3,0.6-0.7,1-0.9c2.3-0.9,4.6-1.8,6.9-2.6c1.1-0.4,2.2-0.7,3.2-1.2c5.9-2.6,11.8-5.3,17.7-8c0.4-0.2,0.7-0.4,1.1-0.6
			c4.2-2.1,8.3-4.3,12.6-6.3c6.4-3,12.8-5.9,19.2-8.8c6.5-3,13.1-5.9,19.6-8.9c3.8-1.7,7.5-3.5,11.3-5.2c3.5-1.6,7.1-3.1,10.6-4.7
			c1.5-0.7,2,0.3,2.2,1.1c0.8,2.4,1.4,4.9,1.9,7.4c1,4.6,2.1,9.3,2.9,13.9c0.4,2.2,0.4,4.5,0.4,6.8c0,0.5-0.6,1.4-1.1,1.5
			c-5.7,1.8-11.5,3.5-17.2,5.3c-3.2,1-6.5,2.2-9.7,3.3c-5.4,1.9-10.9,3.9-16.3,5.9c-4.7,1.7-9.4,3.5-14,5.3
			c-5.1,2-10.1,3.9-15.2,5.9c-5.3,2.1-10.6,4.2-15.9,6.3c-3.6,1.4-7.3,2.7-10.9,4.3C1351.6,594.2,1350.4,595.3,1348.4,596.5
			L1348.4,596.5z"/>
		<path class="st13" d="M1521.9,429.5c-2.9,0.6-6.1,1.2-9.2,2.1c-1.8,0.5-3.7,2.4-5.3,2.2c-1.9-0.3-3.8-0.4-5.7-0.4
			c-4.6,0-7.7-2.7-9.6-6.1c-1.9-3.5-2.8-7.4-4-11c2.3-1.9,4.4-3.5,6.3-5.3c0.9-0.9,1.7-2.2,1.9-3.4c0.9-4.9,3-9.1,7.4-12.2
			c1.1-0.8,1.8-1,3.1-0.4c5.2,2.5,8.2,7.7,7.7,13.7c-0.1,1-0.3,2-0.4,3c0,0.8-0.1,2.2,0.2,2.4c1,0.4,2.2,1.4,3.5,0.2
			c0.5-0.4,1.2-0.6,1.8-0.9c0.8,3.3,0.2,4.3-2.8,4.8c-1.2,0.2-1.7,0.8-1.3,1.9c0.4,1.2,0.9,2.5,1.6,3.6
			C1518.8,425.8,1520.5,427.7,1521.9,429.5L1521.9,429.5z M1504.8,409.1c-0.1-0.2-0.1-0.3-0.2-0.5c-0.9-0.8-1.7-1.6-2.6-2.2
			c-0.5-0.4-1.3-0.5-2-0.5c-0.3,0-0.9,0.7-0.8,0.9c0.2,0.6,0.5,1.6,1,1.7C1501.6,408.9,1503.2,408.9,1504.8,409.1L1504.8,409.1z"/>
		<path class="st11" d="M1478.4,471.4c-3.2,3.2-6.3,6.3-9.3,9.3c-0.2,0.2-0.6,0.4-0.9,0.4c-3.5,0.4-6.9,0.9-10.5-0.5
			c-5.6-2.1-11.4-3.7-17.1-5.5c-1.1-0.4-2.2-0.8-3.4-1.2c0.9-2.7,1.8-5.2,2.7-7.6c3.7,0,7.4,0,11.1,0.2c1.4,0.1,2.7,1.2,4.1,1.6
			c1.9,0.6,3.9,1.3,5.9,1.5c5.4,0.6,10.8,0.9,16.2,1.4C1477.5,471.1,1477.9,471.2,1478.4,471.4L1478.4,471.4z"/>
		<path class="st13" d="M1451.6,462.7c-3.4-0.1-6.5,0.1-9.6-0.3c-1.6-0.2-3.5-1-4.6-2.1c-2.3-2.5-4.5-5.3-6.2-8.3
			c-2.3-3.8-1.2-6.2,3.4-7c5.8-0.9,11.2,0.4,15.7,4.1c1.5,1.2,2.2,2.7,1.8,4.8C1451.7,456.7,1451.8,459.5,1451.6,462.7L1451.6,462.7
			z"/>
		<path class="st13" d="M1436.2,464.2c-0.7,2.1-1.5,4.1-2.1,6.2c-1.2,4-4.3,5.4-8.5,4.1c-4.6-1.4-8.6-3.5-11.6-7.1
			c-0.7-0.8-1.4-1.8-1.8-2.8c-1.1-2.9,1.8-5.4,5.6-4.7c3.7,0.7,7.4,1.8,11.1,2.7C1431.2,463.3,1433.7,463.7,1436.2,464.2
			L1436.2,464.2z"/>
		<path class="st14" d="M1490.7,520.1c2.3,1,4.2,1.6,5.9,2.5c1.7,0.8,3.2,1.8,4.8,2.6c1.3,0.7,2.7,1.2,3.9,1.9
			c2.3,1.3,2.1,3.6,2.4,5.7c0.6,4.7-2.1,8-5.9,10.9C1498.2,536,1494.6,528.3,1490.7,520.1L1490.7,520.1z"/>
		<path class="st9" d="M1623.4,383.4c-2.6,1.6-5.2,3.3-7.9,4.7c-5.6,2.9-11.6,4.2-17.9,5c-11.9,1.6-23.8,1.8-35.8,1.9
			c-7.8,0.1-15.6,0.8-22.4,4.7c-5,2.9-9.6,6.2-12.1,11.6c-1.5-1-1-2.1-0.6-3.2c1.8-4.8,5.1-8.2,9.7-10.8c7.4-4.3,15.3-6.5,23.9-6.8
			c10.6-0.4,21.2-0.9,31.7-1.8c9.1-0.8,18.1-2.4,26.4-6.2c1.2-0.6,3.1,0.1,4.7,0.2C1623.2,383,1623.3,383.2,1623.4,383.4
			L1623.4,383.4z"/>
		<path class="st9" d="M1528.2,422c3.7-0.6,7.3-1.1,11-1.7c1.9-0.3,3.9-0.7,5.7-1.4c15.8-5.4,32.1-7.6,48.9-7.4
			c6.4,0.1,12.8,0.9,18.7,3.5c0.5,0.2,0.9,0.8,1.3,1.2c-0.6,0.3-1.1,0.8-1.7,0.8c-2.6,0-5.3-0.2-7.9-0.4c-17.2-1.2-34.2-0.3-51,3.8
			c-1.8,0.5-3.6,1.1-5.4,1.6c-5.5,1.7-11.2,1.9-16.9,1.3c-0.7-0.1-1.3-0.3-2-0.5c-0.2-0.1-0.5-0.2-0.7-0.3
			C1528.2,422.3,1528.2,422.1,1528.2,422L1528.2,422z"/>
		<path class="st9" d="M1616.9,398.4c-1.8,2.4-4.1,3.7-6.5,4.1c-5,0.8-10.1,1-15.1,1.6c-9.2,1-18.3,0.1-27.4-0.4
			c-9.8-0.6-19.1,1.7-27.1,7.3c-1.9,1.3-3.4,3.1-5,4.8c-0.4,0.4-0.6,1-1,1.2c-0.8,0.4-1.7,0.5-2.5,0.7c0.1-0.8-0.1-1.6,0.3-2.3
			c4.2-7.4,11.3-11,19.3-13.4c8.6-2.6,17.5-2,26.3-1.3c10.1,0.8,20.1-0.2,30.1-1.2c2.1-0.2,4.1-0.9,6.2-1.2
			C1615,398.1,1615.8,398.3,1616.9,398.4L1616.9,398.4z"/>
		<path class="st9" d="M1592.9,384.2c-5.2,1.7-10.5,2.7-16,2.6c-6.8-0.2-13.7-1-20.5,0.1c-13,2.2-25.1,6.1-35.2,14.7
			c-0.5,0.5-1.6,0.4-2.4,0.6c0.1-0.9-0.2-2.3,0.4-2.7c3.5-2.8,6.9-6,10.8-8c8.8-4.6,18.3-7.7,28.4-8.6c3.7-0.3,7.6,0.1,11.3,0.6
			c6.9,0.9,13.8,1.4,20.7,0.7C1591.2,384.1,1592.1,384.2,1592.9,384.2L1592.9,384.2z"/>
		<path class="st9" d="M1516.8,395.6c-0.5-0.5-1-1.1-1.5-1.7c5.8-5.6,12-10.7,20.5-12.3c0.8-0.2,1.8-0.2,2.6,0
			c0.4,0.1,0.8,0.5,1.2,0.9c-0.3,0.4-0.6,0.9-1,1c-6.1,1.4-11,5-16.1,8.2C1520.6,392.7,1518.8,394.2,1516.8,395.6L1516.8,395.6z"/>
		<path class="st9" d="M1504.8,409.1c-1.6-0.2-3.2-0.3-4.7-0.6c-0.5-0.1-0.8-1.1-1-1.7c-0.1-0.2,0.5-0.9,0.8-0.9
			c0.7,0,1.4,0.2,2,0.5c0.9,0.6,1.7,1.5,2.6,2.2C1504.7,408.8,1504.7,408.9,1504.8,409.1L1504.8,409.1z"/>
	</g>
	<g>
		<path class="st13" d="M786.4,892.2c0.4,3.1,0.2,6.2-0.8,9.2c-0.5,1.5-1.5,2.6-3.2,3.2c-2.8,1-5.6,1.3-8.5,0.6
			c-2.2-0.5-3.8-2.5-3.2-4.5c0.8-2.8,1.9-5.6,3-8.4c0.1-0.4,0.9-0.8,1.4-0.8C778.8,891.7,782.6,892,786.4,892.2L786.4,892.2z"/>
		<g>
			<path class="st9" d="M831.4,743.5c0.8,0.4,2,0.8,2.9,1.5c0.9,0.7,2.1,1.8,2.1,2.6c-0.1,1-1.2,2.2-2.2,2.7
				c-1.3,0.6-2.2,1.2-2.9,2.5c-0.8,1.7-2.4,1.9-5.3,1.2c-2.2,1.8-2.7,3-1.3,5.7c1.5,3,1.5,6.1,1.8,9.3c0.2,1.9-0.6,3.5-2,5
				c-2.9,3.2-6.7,4.8-10.9,5.9c-1,0.3-2.1,0.6-3.1,0.9c-2.2,0.8-2.7,1.4-2.1,3.5c0.9,3.4,1.9,6.7,3,10.1c0.7,2.3,1.6,2.5,3.6,0.9
				c1.5-1.2,2.8-2.6,4.4-3.6c3-1.8,6.2-3.6,9.4-5.1c1.8-0.8,3.4,0.3,4.8,1.2c4.4,2.8,8.7,5.9,13.2,8.5c3.2,1.8,6.9,2.9,10.1,4.7
				c5.3,2.8,10.9,4.8,16.5,6.8c5.7,2,11.1,4.4,16.7,6.7c1.1,0.5,1.8,0.4,2.7-0.3c5.2-4.5,9.2-9.7,12.1-15.6
				c3.4-6.8,6.9-13.7,10.3-20.5c0.6-1.2,1.1-2.2-0.4-3.3c-0.5-0.4-0.6-1.7-0.5-2.5c0.5-2.6,1.1-5.2,1.7-8.1c-2.9-1.1-5.9-2.5-9-3.5
				c-7-2.2-11.5-7-14.7-13c-1.5-2.8-1.3-5.9-0.3-9c-1.2-0.8-2.3-1.6-3.6-2.3c-1.7-1-2.5-2.2-2.3-4.1c0.4-4,0.9-8.1,1.2-12.1
				c0.1-1,0-2.1-0.5-2.9c-1.3-2.2-2.8-4.4-4.4-6.4c-3-3.8-4.3-8-4.2-12.8c0.2-5.6-0.2-11.1-0.3-16.7c0-1.4,0.1-2.9,0.2-4.3
				c-3.5,0.7-4.5,0.3-6-2.8c-0.4-0.9-0.8-1.8-1.1-2.7c-0.7-1.8-0.4-3.5,0.9-5.2c6.8-8.7,13.2-17.6,20.2-26.1
				c8.6-10.3,19-18.2,33.3-20.7c8.6-1.5,16.4,0.2,23.7,4.4c2.1,1.2,4.2,2.3,6.5,3.1c6.1,2.1,10.2,6.3,13.8,10.9
				c5.1,6.5,9.4,13.6,12.5,21.3c2.2,5.3,3.1,10.9,3.8,16.5c1.2,10.5-1.1,20.5-3.9,30.6c-1.9,6.8-2.9,13.9-4.4,20.9
				c0,0.2,0,0.5,0,0.9c2.5-1.5,4.9-2.9,7.3-4.3c2.5-1.4,3.5-1,4.2,1.7c2.2,8,4.5,15.9,6.8,23.9c0.1,0.5,0.5,1.1,0.9,1.3
				c6.2,3.5,11.5,8.1,16.6,12.8c2.1,1.9,4.6,3.5,6.3,5.6c4.7,5.9,10.5,10.8,15.8,16.2c3.5,3.6,4.9,7.8,5,12.5
				c0.4,20.3,0.7,40.6,1.1,60.8c0.2,8.9,0.3,17.8,0.7,26.6c0.2,5.3,1.3,10.6,1.3,15.9c0,7.8-0.6,15.7-0.9,23.5
				c-0.1,3.1-0.2,6.2-0.3,9.5c-2.5,0.6-5.1,1.3-7.7,2c-8.5,2.1-16.9,4.2-25.4,6.2c-2.9,0.7-5.7,0.3-8.6-0.1
				c-5.1-0.7-10.2-0.8-15.4-1c-4.5-0.2-9,0.2-13.4-0.4c-4-0.5-7.9-1.8-11.6-3.2c-2.9-1.1-5.7-1.5-8.7-0.6
				c-9.9,2.8-19.9,5.6-29.8,8.4c-0.8,0.2-1.5,0.5-2.3,0.6c-5,1.2-7.4-1.7-6.8-6.1c1.9-13.3,4-26.6,6-39.9c0.7-4.4,1.2-8.8,1.7-13.3
				c-10.8-2.3-21.5-4.6-32.3-6.9c0,1.9-1,2.1-2.5,1.8c-1.7-0.4-3.5-0.6-5.2-0.9c-1.8-0.3-2.5,0.2-2.3,1.9c0.2,1.5,0.3,3,0.6,4.5
				c2.5,12.3,4.8,24.6,7.5,36.8c1.4,6.4,3.4,12.7,5.5,18.8c0.6,1.7,2.7,2.9,4.3,4.3c3.8,3.3,7.8,6.5,11.3,10c1.7,1.7,2.9,4,3.8,6.2
				c1.2,2.8-1.3,5.6-4.5,5.7c-5.8,0.3-10.6-1.8-15.2-4.7c-6.8-4.2-13.8-8-21.5-10.6c-4-1.4-4.9-3.4-3.4-6.4c0.2-0.3,0.3-0.9,0.1-1.2
				c-4.9-9.8-8-20.2-10.5-30.7c-1.4-5.8-3-11.6-4.4-17.4c-0.3-1.4-1.1-1.9-2.7-1.8c-3.8,0-7.7,0-11.5-0.2c-1.4-0.1-2.5,0.2-3.4,1.2
				c-3.7,4-8.7,4.9-14,4.8c-3.8,0-6-2.2-7.6-5.1c-6.4,0.2-12.8,0.4-19.1,0.6c-0.5,2-0.9,4.3-1.7,6.5c-2.4,6.4-11.1,8.5-16.2,8.2
				c-4.5-0.3-8-1.8-10-5.7c-0.7-1.4-1-3-1.3-4.3c-12.3-0.3-24.5-0.6-37-0.9c0.1-5.1,0.2-9.8,0.3-14.8c6.2,0,12.3,0,18.4,0
				c-0.9-7.5-0.3-14.6,1.7-21.7c4.8-16.7,9.3-33.4,14.3-50c1.9-6.4,4.5-12.7,7-18.9c1-2.4,2.5-4.6,4.1-6.8c1.1-1.4-0.1-2.3-0.7-3.2
				c-0.2-0.4-1.7-0.5-2.4-0.3c-3.2,1.1-6.3,2.4-9.4,3.5c-3.2,1.1-5-0.3-4.8-3.4c0-0.6-0.2-1.2-0.4-1.8c-0.2,0-0.4,0-0.6,0
				c-0.2,0.3-0.3,0.6-0.5,1c-1.3,2.1-2.9,2.2-4.4,0.3c-1.2-1.4-1.8-3-1.5-4.8c0.2-1,0.1-2-0.3-2.7c-0.8-0.8-2.2-1.4-2.3-2.3
				c-0.3-1.7,1-2.8,2.8-3.2c-1.5-1.9-3.1-2.2-5.5-1.1c-1.1,0.5-2.2,1.1-3.3,1.3c-2.8,0.6-4.6-1-3.9-3.6c0.3-1.4-0.2-1.7-1.5-2
				c-4.3-1-6.3-4.7-4.3-8.1c0.4-0.7,1.4-1,2.1-1.6c0.6-0.5,1-1.1,1.5-1.6c-0.5-0.3-1-0.7-1.6-0.9c-1.7-0.7-2.3-2-2.1-3.5
				c0.2-1.7,1.9-3.2,3.7-3.3c0.9,0,1.9,0.3,2.8,0.3c0.9,0,1.8-0.4,2.7-0.6c-0.3-0.8-0.5-1.7-1-2.4c-0.4-0.6-1.1-1.1-1.6-1.7
				c-0.9-1.2-1.9-2.1-3.5-2.6c-3.2-0.9-3.5-3.2-1.1-5.7c-2-3.3-1.5-4.1,2.1-5.9c1.4-0.7,3-1.8,2.8-3.9c-0.2-1.9,1-2.7,3.3-2.4
				c0.1,0.1,0.2,0.2,0.2,0.3c0.3,1.2,0.3,2.8,2.3,2.5c2.1-0.3,1.8-2,1.6-3.3c-0.1-0.7-0.3-1.4-0.8-1.9c-1.4-1.8-1.4-3.7-0.4-5.6
				c1.3-2.3,2.7-4.5,4.2-6.7c2.4-3.6,6-4.6,10.3-3.9c0.7,0.1,1.5,0.8,2,1.3c0.8,0.9,1.8,1.5,2.7,0.7c0.6-0.5,0.8-1.7,0.8-2.6
				c0-1.5-0.6-3-0.5-4.5c0-2,2-3.1,4.4-2.2c2,0.8,3.7,0.3,5.7,0c2.2-0.4,4.6-0.5,6.8-0.5c2.8,0.1,4.1,1.8,4,4.4
				c0,0.7,0.4,1.3,1.1,1.8c0.4-1.6,0.7-3.3,1.2-4.9c1-2.9,6.1-4.6,8.8-2.8c0.5,0.3,0.6,1.3,1,2.5c2.1-1.4,4.6-3.2,7-1.4
				c1.9,1.5,3.2,3.7,4.8,5.7c0.1-0.1,0.4-0.6,0.8-0.7c1.3-0.4,2.8-1.1,3.9-0.8c1.4,0.4,3.2,1.1,3.3,3c0.1,1.5,0.4,3,0.7,4.8
				c2.5-1.6,4.9-3.1,8-1.6c2.3,1.2,3.5,3.7,3,6.9c4,0.7,5.2,1.5,5.4,3.7c0.2,2.1-0.9,3.2-4.3,4.3c0,1.6,0,2.9,2.5,3
				c2.2,0.1,3.6,1.7,4.6,3.4c1.1,2,0.3,3.9-2,5.3c-0.9,0.5-1.8,1-3.2,1.8c2.1,0.8,4,1.7,3.5,3.7C833.3,740.6,832.2,742,831.4,743.5
				L831.4,743.5z M949.9,858.7c-0.5,1.9-1,3.5-1.4,5.2c-0.4,1.5-0.7,3.1-1.4,4.6c-0.3,0.7-1.4,1.5-2.1,1.5c-0.6,0-1.6-1.1-1.7-1.9
				c-0.5-2.9-0.7-5.8-0.9-8.7c-0.1-1.5-0.6-2.2-2.2-2.1c-4.5,0.2-8.9,0.2-13.4,0.5c-15.9,0.9-32,0.5-47.9,2.8
				c0.1,0.4,0.1,0.8,0.2,1.2c1.5,3.5,3.2,6.9,4.7,10.3c1,2.5,2.7,3.6,5.7,4c9.6,1.3,19,3.3,28.6,4.7c17.7,2.5,35.4,5.2,52.8,9.2
				c2,0.5,3.3-0.1,4.2-1.7c1.4-2.5,2.9-4.9,4.3-7.4c4.9-9,9.6-18.1,14.5-27c2.3-4.1,4.9-8,7.4-12c3,1.1,3.1,1.5,1.6,4
				c-2.1,3.5-4.3,6.9-6.4,10.4c-7.1,11.8-14.4,23.4-19.8,36.2c-16.5-1.4-33.2-2.8-50-4.1c-2.2,17.1-4.4,34.4-6.6,51.6
				c-0.1,0,0.3,0,0.7-0.1c11.9-3.4,23.7-6.8,35.6-10.3c3.3-1,6.1-0.4,8.6,1.8c1.2,1,2.6,2.2,4,2.5c3.9,0.7,7.9,1.2,11.9,1.1
				c6.7-0.2,13.3-0.6,20.1,0.2c3.5,0.4,7.3,0.1,10.7-0.8c8.7-2.5,17.3-5.5,26.2-8.4c-0.4-1.8-1.1-3.8-1.2-5.8
				c-0.6-9.9-1.2-19.9-1.5-29.8c-0.6-19.8-1.1-39.6-1.6-59.4c-0.3-10.5-0.7-21-0.7-31.6c0-3.7-1-6.7-3.5-9.4
				c-5.4-5.6-10.9-11.2-16.4-16.6c-3.5-3.5-7.2-6.8-10.8-10c-1.5-1.3-3.3-2.4-5.1-3.8c-1.9,2.1-3.8,3.9-5.4,6
				c-4.8,6.1-9.4,12.3-14.1,18.4c-0.3,0.5-0.8,0.9-1,1.4c-1,2.3-1.8,2.7-4.4,2.1c-1.1-0.3-2.2-0.7-3.3-1c-3.3-0.8-6.7-1.5-10.1-2.3
				c-1.8,6.1-3.6,12-5.2,17.9c-1,3.9-1.8,7.8-2.7,11.7c-0.6,2.6-2.9,3.3-5,1.5c-0.3-0.3-0.6-0.6-1.1-1.1
				c-3.7,11.9-7.5,23.5-9.4,35.7c3.7-0.1,7.2-0.5,10.8-0.3c2.1,0.1,3-0.7,3.7-2.4c3.1-7.4,6.2-14.8,9.4-22.1
				c4.5-10.2,10.1-19.8,17.8-28.3c2.3-2.5,4.7-5.3,8.6-5.7c4.8-0.5,9.5,0.1,13.8,2.1c0.9,0.4,1.5,1.2,2.1,1.7
				c-3.7,0.7-7.2,1.5-10.8,2c-2.7,0.4-4.9,1.1-6.9,3.1c-6.3,6.5-12,13.3-16.5,21c-5,8.4-9.2,17.1-13.8,25.7c-0.1,0.2,0,0.5,0,0.8
				c0.5-0.1,0.9-0.1,1.3-0.3c3.9-1.8,8.1-1.3,12.2-1.3c1.3,0,2.4,0.7,2.5,2c0.1,1.3-0.7,2.2-2,2.5c-0.8,0.2-1.7,0.3-2.6,0.5
				c-3.4,0.5-6.7,1-10.7,1.5c2.2,2.3,4,4.1,5.6,5.9c1.1,1.2,2.4,2.5,3,4c0.4,0.9,0,2.5-0.6,3.2c-0.5,0.6-2.1,0.6-3.1,0.4
				c-0.8-0.1-1.5-0.9-2.1-1.4C954.5,862.8,952.3,860.9,949.9,858.7L949.9,858.7z M883.7,706.5c0.7,1,1.5,2,2.2,3.1
				c1.9,3,3.8,6,5.5,9.1c0.4,0.7,0.3,1.8,0.2,2.7c-0.4,3-1,5.9-1.3,8.8c-0.1,0.9,0.4,2.1,1,2.9c1.6,1.9,3.9,2.1,6.3,1.7
				c3-0.6,5.9-1.4,8.9-1.7c6.2-0.6,11.9-1.8,16.3-6.3c0.5-0.5,1.1-1,1.7-1.4c7.4-5.3,12-12.6,15.6-20.3c1.4-3,1.9-6.5,2.7-9.7
				c0.1-0.5,0-1.2-0.3-1.6c-1.2-1.7-2.5-3.3-3.9-4.9c-8.9-9.7-17.9-19.4-26.8-29.1c-1.2-1.4-2.6-1.8-4.3-1.3
				c-6.3,1.7-12.3,3.8-17.3,8.1c-2.3,2-4.7,4-6.9,6.2c-0.8,0.8-1.5,2-1.5,3.1c0,7.5,0.3,14.9,0.4,22.5c0.6-0.2,1.3-0.3,1.9-0.5
				c2.8-1.1,5.7-2.1,8.5-3.2c2.7-1.1,3.2-0.9,4.3,1.8C892.7,699.9,887.2,702,883.7,706.5L883.7,706.5z M791.9,786
				c-1.6,1.4-2.9,2.6-4.2,3.7c-2,1.6-4.2,2.1-6.8,1.6c-1.8-0.4-3.7-0.6-4.8,1.3c-0.9,1.5-1.8,3-2.4,4.5c-1.8,4.6-3.5,9.1-5.1,13.8
				c-1.6,4.8-3.1,9.7-4.4,14.7c-1,3.7-1.7,7.4-2.8,11.1c-1.2,4-2.7,8-3.8,12c-1.5,5.4-2.7,10.9-3.9,16.3c-0.6,2.5-1.3,5.1-1.7,7.6
				c-0.5,3.2-0.7,6.4-1.1,9.6c-0.2,1.9,1.3,4.3,2.9,4.4c3.3,0.2,6.5,0.3,9.8,0.4c1.2,0,2.1-0.5,2-1.8s0-2.8,0-4.1
				c0-3.4,0-6.8,0.2-10.2c0.2-3.1,0.5-6.3,0.9-9.4c0.3-2.5,0.8-4.9,1.1-7.4c0.4-3.1,0.5-6.2,1-9.3c0.4-3,1.1-5.9,1.7-8.8
				c0.8-4.3,1.4-8.6,2.5-12.8c1.3-5.2,3-10.3,4.7-15.4c0.9-2.5,2-5.1,3.7-7.2c1-1.3,3.4-2.6,5-2.5c5.5,0.5,9.4,3.8,12.4,8.1
				c0.9,1.3,1.7,2.8,2.4,4.3c0.8,1.8,2,3.6,2.2,5.4c0.5,4.8,0.8,9.7,0.8,14.5c0,3.2-0.2,6.5-0.8,9.7c-0.7,4.2-1.8,8.3-2.8,12.4
				c-1.8,7-4.2,13.8-7.3,20.3c-0.7,1.5-0.9,3.1-0.3,4.7c0.5,1.2,1.7,1.6,2.5,0.9c1.3-1.1,2.5-2.2,3.7-3.3c4.8-4.3,9.7-8.6,14.6-12.8
				c2.5-2.1,5.2-3.9,7.8-5.8c1.8-1.3,2.1-2.4,1.2-4.4c-0.6-1.3-1.1-2.6-1.4-4c-1.6-7-3.2-13.9-4.6-20.9c-1.1-5.3-2.8-10.5-5-15.5
				c-0.8-1.8-1.5-1.7-2.7-0.7c-1.4,1.2-3,0.6-4-0.1c-3-2.2-3.7-5.8-2.2-9.2c0.5-1.2,2.1-1.7,3.2-1c0.5,0.3,1,0.6,1.4,1
				c0.2,0,0.5-0.1,0.7-0.2c-0.6-4.7-0.3-9.5-2.1-14.5C801.1,789.7,796.2,789.9,791.9,786L791.9,786z M786.7,885.1
				c0.8-4.5,1.5-8.4,2.3-12.3c0.9-4.1,2-8.1,3-12.1c1.6-6.6,3.4-13.1,4.8-19.8c0.8-3.7,1.1-7.4,1.5-11.2c0.2-1.5,0-3,0-4.4
				c0-2.3,0.3-4.7-0.1-6.9c-0.7-3.4-1.8-6.7-3-10c-1.2-3.3-3.2-6-7.6-6.2c-2.6-0.1-5.7,1.1-6.2,2.9c-0.8,2.8-1.1,5.7-1.6,8.6
				c-0.7,3.7-0.8,7.5-2.1,11c-1.7,4.7-2.4,9.5-3.1,14.3c-0.8,4.8-1.2,9.6-1.9,14.5c-0.6,4.2-1.5,8.3-2.1,12.4
				c-0.6,4.6-1.2,9.3-1.5,13.9c-0.1,1.7,0.1,3.6,0.9,5.1c0.4,0.7,2.3,0.8,3.6,1c0.8,0.1,1.7,0,2.6,0c1.1-0.1,2.3-0.4,3.4-0.5
				C782,885.4,784.4,885.3,786.7,885.1L786.7,885.1z M984.3,730.9c-0.2,0-0.4-0.1-0.7-0.1c-1.4,1.8-2.8,3.5-4.2,5.3
				c-3.1,4-6,8.1-9.3,12c-6.2,7.3-12.4,14.5-18.8,21.5c-5.4,5.9-10.8,11.9-18.2,15.8c-0.7,0.4-1.4,1-2.2,1.5
				c5.3,7,10.5,13.9,15.7,20.9c1-4.3,1.9-8.7,3.1-13c1.5-5.3,3.3-10.6,5-15.8c0.4-1.2,1-1.8,2.5-1.2c1.4,0.5,3.1,0.5,4.5,1
				c4.9,1.6,7.9-0.3,10.6-4c5.7-7.6,11.7-15,17.4-22.5c0.3-0.4,0.4-1.3,0.2-1.8c-1.1-3.1-2.5-6.2-3.5-9.3
				C985.7,737.9,985.1,734.4,984.3,730.9L984.3,730.9z M818.4,820c-0.1,0-0.3,0.1-0.4,0.1c0.1,0.7,0.1,1.3,0.2,2
				c1.4,9.1,4.5,17.9,7.2,26.7c0.9,3.1,2.6,5.4,6.1,6.4c3.8,1,7.5,2,11.1,3.4c2.9,1.1,5.4,1.7,8-0.3c0.6-0.4,1.4-0.6,2-0.8
				c6.2-2.2,12.6-4,19.2-4.6c1.6-0.2,3.1,0.1,4,1.7c0.2,0.4,1.1,0.8,1.7,0.7c2.1-0.2,4.2-0.4,6.2-0.8c3.7-0.7,7.4-1.5,11.2-2.1
				c1.7-0.3,3.3-0.4,5-0.6c0.1-0.2,0.1-0.4,0.2-0.6c-8.6-4.5-17.1-9-25.7-13.4c-0.5-0.3-1.4-0.2-2.1-0.1c-6.3,1-12.4,3.2-19,2.9
				c-6.8-0.2-13.7-0.8-19.3-4.7c-5.8-4.1-11.1-8.7-14.7-14.8C819,820.6,818.7,820.3,818.4,820L818.4,820z M848.9,885.4
				c1.2,0.1,2,0.1,2.7,0.2c1.7,0,2.8,0.4,3.3,2.3c1,3.7,2.6,7.2,3.6,10.9c2.9,10.7,5.5,21.4,8.4,32.1c0.8,2.9,1.6,5.7,2.7,8.5
				c1.7,4.5,6.9,7,11.8,5.3c1.6-0.5,3-1.9,4.2-3.2c0.4-0.5-0.1-1.8-0.3-2.7c-0.5-1.9-1.2-3.8-1.5-5.7c-1-6.1-1.9-12.2-3-18.2
				c-1.2-6.9-2.8-13.7-4-20.6c-0.7-4-1.3-8-1.7-12c-0.1-1-0.5-1.4-1.5-1.7c-4.1-1.1-8.3-1.8-12.6-1.2c-1.4,0.2-3.1-0.4-4.2,0.2
				C854.1,881.2,851.8,883.3,848.9,885.4L848.9,885.4z M797.8,777.7c6.3,1.5,12.2,2,17.8-1.8c3.9-2.7,7.6-5.3,6.5-10.6
				c-0.1-0.5,0.1-1.2,0-1.7c-0.4-1.7-0.4-3.7-1.4-5c-1.6-2.3-1.7-4.7-1.1-7.1c0.5-2.1,1.5-4.1,2-6.2c0.3-1.6,0.7-3.5,0.1-4.9
				c-1.3-3.3-4.2-5.7-7.6-7c-3.7-1.5-7-0.1-10,2c-0.5,0.4-1,1.1-1,1.7c-0.2,2.4-1.4,4-3.8,5c-2.5,1-3.5,2.1-3.1,4.7
				c0.3,2-0.6,3.3-2.3,4c-1.4,0.5-3,0.8-4.5,0.6c-4-0.4-5.6,1.1-5.3,4.8c0.2,2.9,2.4,4,4.6,5.1c2.6,1.3,3.2,2.4,2.4,5
				c-0.7,2.3-0.5,4.5,0.6,6.6C797.5,772,799.1,773.2,797.8,777.7L797.8,777.7z M932.2,831.3c0.1-0.3,0.2-0.7,0.3-1
				c1.9-6.8,3.7-13.6,5.9-20.3c0.7-2.2,0.5-3.9-1-5.6c-0.4-0.5-0.8-1-1.2-1.5c-3.1-4.5-6.3-8.8-9.2-13.4c-1.7-2.7-0.7-4.5,2.5-5.4
				c1.5-0.4,3-1.1,4.4-1.6c-1.5-3.8-5.1-8.3-7.4-9.4c-1.3,1.9-2,4.4-4.9,4.9c-0.2,0-0.4,0.6-0.5,1c-3.5,7.3-5.6,15.2-10.1,22.2
				c-2.8,4.2-5.3,8.5-8.1,12.7c-1,1.5-2.2,2.8-3.2,4.2C910.5,822.5,921.3,826.9,932.2,831.3L932.2,831.3z M930.8,837.3
				c-1.9-0.8-3.8-1.8-5.8-2.6c-9.4-4-18.8-7.9-28.2-11.9c-0.5-0.2-1.4-0.2-1.8,0.1c-5.2,3.9-10.3,7.9-15.5,11.9
				c0.1,0.1,0.3,0.2,0.5,0.3c9.9,5,19.9,10,29.8,14.9c0.9,0.4,2,0.8,2.9,0.7c4.9-0.6,9.8-1.4,14.7-2.2c0.3,0,0.7-0.5,0.8-0.9
				C929.2,844.2,930,840.8,930.8,837.3L930.8,837.3z M835.7,866.8l-0.1-0.2c-2.3,0.8-4.7,1.6-7.1,2.2c-3.6,1-6.1,3.1-8,6.1
				c-0.9,1.4-1.8,2.7-2.6,4.1c-2.7,4.8-3,10-1.6,15.1c1.2,4.3,2.1,4.9,7.5,4.2c4.1-0.5,6.9-2.7,9.5-5.3c4.8-4.6,9.5-9.3,15.3-13
				c1.6-1,3.3-3,3.5-4.6c0.3-2.4-0.5-5-1.4-7.3c-1.2-2.8-2.8-3.4-6-3C841.7,865.5,838.7,866.2,835.7,866.8L835.7,866.8z
				 M940.9,678.5c0.7-1.3,1.1-2.3,1.7-3.2c1.2-1.7,5-2.4,6.6-1.4c1.7,1,2,3.4,0.8,5.5c-0.6,1-1.6,1.9-2.2,2.9
				c-0.4,0.7-0.9,1.6-0.8,2.2c1.3,5.3,2.3,10.8,4.4,15.8c1.7,4-0.1,7.2-1.6,10.2c-3.7,7.3-8.2,14.2-12.2,21.3
				c-5.6,10.2-11.1,20.5-16.5,30.8c-1.3,2.5-2.5,5-3.5,7.7c-0.7,1.9,0.1,2.8,2.4,3.9c1.8,0.8,2.3-0.4,2.9-1.4c1-1.5,2-3,2.8-4.6
				c4.9-9.5,9.8-19.1,14.7-28.6c5.9-11.3,11.8-22.7,17.8-34c0.5-0.9,0.7-1.7,0-2.8c-2.3-3.9-4.3-7.9-6.6-11.7
				c-1.7-2.8-1.5-4.8,1-7.3c4.1-4.2,3.8-9.3-0.1-13.4c-3.2-3.4-10.7-3.2-13.6,0.5C937.4,672.7,937.7,674.6,940.9,678.5L940.9,678.5z
				 M846,799.7c-4.3-2.4-8.6-4.6-12.7-7c-2.3-1.4-4.5-1.2-7-0.5c-6.4,1.6-10.6,6.2-15.3,10c-0.5,0.4-0.6,1.1-0.9,1.7
				c0.8,0.2,1.7,0.6,2.3,0.5c3.1-0.8,6.1-2,9.3-2.7c2.4-0.5,5-0.9,7.3-0.7c2.6,0.3,3.4,2.6,1.5,4.3c-1.9,1.7-4,3.4-7,3.2
				c-2.8-0.1-5.7-0.2-8.5-0.2c-0.7,0-1.5,0.3-2.5,0.5c1.4,1.3,2.5,2.4,3.7,3.5c2.2,2,4.9,2.7,7.8,2.4c3.5-0.4,7-0.9,10.4-1.7
				c1.9-0.4,4.3-1.1,5.3-2.5C842.1,807.1,843.9,803.4,846,799.7L846,799.7z M971.5,739.5c-0.1-0.2-0.3-0.3-0.4-0.5
				c-0.7,0.4-1.4,0.7-2,1.2c-5.9,4-11.8,8.1-17.8,12c-6.6,4.3-13.2,8.6-19.8,12.8c-1.7,1.1-2,2.2-0.8,4c2.2,3.3,4.2,6.7,6.2,9.8
				C948.3,765.9,959.9,752.7,971.5,739.5L971.5,739.5z M856.2,823c4.5,2.2,8.8,4.4,13.1,6.5c0.4,0.2,1.2,0.1,1.6-0.1
				c5.1-3.3,10.2-6.7,15.3-10c0.2-0.2,0.4-0.4,0.7-0.8c-7.7-3.3-15.2-6.5-22.9-9.7C861.4,813.5,858.8,818.2,856.2,823L856.2,823z
				 M874.5,866.5l0.5-0.2c-0.7-2-1.4-4.1-2.2-6.1c-0.2-0.5-0.8-1.1-1.2-1.1c-2.1-0.2-4.3-0.5-6.4-0.2c-3.2,0.6-6.3,1.8-9.5,2.6
				c-1.2,0.3-1.5,0.8-1.1,1.7c1.3,3.5,2.5,7,4,10.5c0.3,0.6,1.4,1.3,2.2,1.4c4.7,0.4,9.3,0.7,14,0.8c2.5,0.1,3.2-1.1,2.3-3.3
				C876.2,870.7,875.3,868.6,874.5,866.5L874.5,866.5z M940.3,753.3c10.8-7.2,21.6-14.3,31.8-21.1c-0.3-5.4-0.5-10.3-0.8-15.4
				C959.9,728.3,949,739.9,940.3,753.3z M854.4,826.4c-1.9,3.1-2.9,3.3-6.4,1.7c-2.5-1.2-5-2.2-7.5-3.4c-1.5-0.7-3-1.5-4.3-2.5
				c-0.5-0.3-0.8-1.3-0.7-1.9c0.3-1.4,0.8-2.8,1.2-3.9c-4.4,0.8-8.9,1.7-13.3,2.6c-0.1,0.2-0.1,0.5-0.2,0.8c2.5,2.2,5,4.2,7.3,6.5
				c6.6,6.2,14.8,8.9,23.8,9.9c4,0.4,7.2-1.5,10.3-3.1C861.2,830.7,857.9,828.6,854.4,826.4L854.4,826.4z M787.1,891.2
				c-4.5,0-8.9,0-13.3,0.2c-0.5,0-1.4,0.5-1.5,1c-1,3.3-2,6.6-2.7,9.9c-0.5,2.4,1.6,4.5,4.2,4.9c3.5,0.5,6.7,0,9.8-1.4
				c1.9-0.9,2.9-2.2,3.4-4C788,898.3,787.9,894.7,787.1,891.2L787.1,891.2z M796.7,884.2c0.2,0.2,0.3,0.5,0.5,0.7
				c2.8-0.3,5.6-0.8,8.4-0.8c2.6,0,4.2-1.2,5-3.1c2.2-5.1,6-9,9.7-13c1.8-2,4.2-3.1,6.9-3.8c2.9-0.7,5.6-1.8,8.4-2.8
				c0.4-0.1,0.6-0.7,0.9-1c-0.4-0.2-0.8-0.6-1.3-0.7c-1.4-0.3-2.8-0.5-4.2-0.6c-1.8,0-4.1-0.5-5.5,0.3
				c-10.7,5.9-19.1,14.3-27.6,22.5C797.4,882.5,797.2,883.4,796.7,884.2L796.7,884.2z M850,824.3c2.9-6.2,5.6-12.1,8.3-17.9
				c-2.6-1.5-5-2.9-7.8-4.5c-3.2,5.5-6.4,11-9.6,16.5C844.2,820.5,847.1,822.4,850,824.3L850,824.3z M817.3,805.6
				c3,1.8,8.9,0,10-3.1C823.9,803.5,820.8,804.5,817.3,805.6z"/>
			<path class="st13" d="M949.9,858.7c2.5,2.2,4.7,4.1,6.9,6c0.6,0.5,1.3,1.3,2.1,1.4c1,0.2,2.6,0.2,3.1-0.4c0.7-0.8,1-2.3,0.6-3.2
				c-0.7-1.5-1.9-2.7-3-4c-1.7-1.8-3.4-3.6-5.6-5.9c3.9-0.6,7.3-1,10.7-1.5c0.9-0.1,1.8-0.2,2.6-0.5c1.3-0.4,2.1-1.2,2-2.5
				c-0.1-1.4-1.2-2-2.5-2c-4.1,0-8.3-0.5-12.2,1.3c-0.3,0.2-0.8,0.2-1.3,0.3c0-0.3-0.1-0.6,0-0.8c4.5-8.6,8.8-17.3,13.8-25.7
				c4.5-7.6,10.2-14.5,16.5-21c2-2,4.2-2.7,6.9-3.1c3.5-0.5,7-1.3,10.8-2c-0.6-0.5-1.2-1.3-2.1-1.7c-4.4-2.1-9.1-2.6-13.8-2.1
				c-3.8,0.4-6.3,3.2-8.6,5.7c-7.7,8.4-13.2,18.1-17.8,28.3c-3.3,7.3-6.3,14.7-9.4,22.1c-0.7,1.7-1.6,2.5-3.7,2.4
				c-3.5-0.1-7,0.2-10.8,0.3c1.9-12.2,5.7-23.8,9.4-35.7c0.5,0.5,0.8,0.8,1.1,1.1c2.1,1.7,4.4,1,5-1.5c0.9-3.9,1.6-7.8,2.7-11.7
				c1.6-5.9,3.4-11.7,5.2-17.9c3.4,0.8,6.7,1.5,10.1,2.3c1.1,0.3,2.2,0.7,3.3,1c2.6,0.6,3.4,0.2,4.4-2.1c0.2-0.5,0.6-1,1-1.4
				c4.7-6.2,9.3-12.3,14.1-18.4c1.6-2,3.5-3.8,5.4-6c1.9,1.3,3.6,2.4,5.1,3.8c3.7,3.3,7.3,6.6,10.8,10c5.6,5.5,11,11,16.4,16.6
				c2.6,2.6,3.5,5.7,3.5,9.4c0,10.5,0.4,21,0.7,31.6c0.5,19.8,1,39.6,1.6,59.4c0.3,10,0.9,19.9,1.5,29.8c0.1,2,0.8,4,1.2,5.8
				c-8.9,2.9-17.4,5.9-26.2,8.4c-3.3,1-7.2,1.2-10.7,0.8c-6.7-0.8-13.4-0.4-20.1-0.2c-4,0.1-8-0.4-11.9-1.1c-1.5-0.2-2.8-1.5-4-2.5
				c-2.5-2.2-5.3-2.8-8.6-1.8c-11.8,3.5-23.7,6.9-35.6,10.3c-0.4,0.1-0.8,0.2-0.7,0.1c2.2-17.2,4.4-34.5,6.6-51.6
				c16.8,1.4,33.5,2.8,50,4.1c5.4-12.8,12.7-24.5,19.8-36.2c2.1-3.5,4.3-6.9,6.4-10.4c1.5-2.5,1.4-2.8-1.6-4c-2.5,4-5.1,7.9-7.4,12
				c-5,9-9.7,18-14.5,27c-1.3,2.5-2.9,4.9-4.3,7.4c-0.9,1.6-2.2,2.2-4.2,1.7c-17.4-4.1-35-6.8-52.8-9.2c-9.6-1.3-19-3.4-28.6-4.7
				c-3-0.4-4.6-1.6-5.7-4c-1.5-3.5-3.1-6.9-4.7-10.3c-0.2-0.3-0.1-0.7-0.2-1.2c16-2.3,32-1.9,47.9-2.8c4.5-0.3,8.9-0.3,13.4-0.5
				c1.6-0.1,2.2,0.6,2.2,2.1c0.1,2.9,0.4,5.8,0.9,8.7c0.1,0.7,1.1,1.8,1.7,1.9c0.7,0,1.8-0.8,2.1-1.5c0.7-1.4,1-3,1.4-4.6
				C948.9,862.2,949.4,860.5,949.9,858.7L949.9,858.7z"/>
			<path class="st13" d="M883.7,706.5c3.5-4.5,9-6.7,13.1-10.2c-1.1-2.7-1.6-2.9-4.3-1.8c-2.8,1.1-5.6,2.2-8.5,3.2
				c-0.6,0.2-1.3,0.3-1.9,0.5c-0.2-7.6-0.4-15.1-0.4-22.5c0-1,0.7-2.3,1.5-3.1c2.2-2.2,4.6-4.1,6.9-6.2c4.9-4.3,11-6.4,17.3-8.1
				c1.7-0.5,3-0.1,4.3,1.3c8.9,9.7,17.9,19.4,26.8,29.1c1.4,1.5,2.7,3.2,3.9,4.9c0.3,0.4,0.4,1.1,0.3,1.6c-0.8,3.3-1.3,6.7-2.7,9.7
				c-3.6,7.8-8.3,15-15.6,20.3c-0.6,0.4-1.2,0.9-1.7,1.4c-4.4,4.5-10.1,5.8-16.3,6.3c-3,0.3-6,1.1-8.9,1.7c-2.4,0.5-4.7,0.2-6.3-1.7
				c-0.6-0.8-1.1-2-1-2.9c0.3-3,0.9-5.9,1.3-8.8c0.1-0.9,0.2-2-0.2-2.7c-1.7-3.1-3.6-6.1-5.5-9.1
				C885.2,708.6,884.4,707.6,883.7,706.5L883.7,706.5z"/>
			<path class="st14" d="M791.9,786c4.3,3.9,9.2,3.8,14.2,0.9c1.8,4.9,1.5,9.7,2.1,14.5c-0.2,0-0.5,0.1-0.7,0.2
				c-0.5-0.3-0.9-0.7-1.4-1c-1.2-0.7-2.7-0.2-3.2,1c-1.5,3.4-0.7,7,2.2,9.2c1,0.8,2.6,1.4,4,0.1c1.2-1,2-1.1,2.7,0.7
				c2.2,5,3.9,10.2,5,15.5c1.5,7,3,13.9,4.6,20.9c0.3,1.3,0.8,2.7,1.4,4c0.9,2,0.6,3.1-1.2,4.4c-2.6,1.9-5.4,3.7-7.8,5.8
				c-5,4.2-9.8,8.5-14.6,12.8c-1.2,1.1-2.5,2.2-3.7,3.3c-0.8,0.7-2,0.3-2.5-0.9c-0.6-1.6-0.4-3.2,0.3-4.7c3.1-6.6,5.5-13.3,7.3-20.3
				c1-4.1,2.1-8.2,2.8-12.4c0.5-3.2,0.8-6.5,0.8-9.7c0-4.8-0.3-9.7-0.8-14.5c-0.2-1.9-1.3-3.6-2.2-5.4c-0.7-1.5-1.4-2.9-2.4-4.3
				c-2.9-4.3-6.8-7.6-12.4-8.1c-1.6-0.2-4,1.2-5,2.5c-1.7,2.1-2.8,4.7-3.7,7.2c-1.8,5.1-3.4,10.2-4.7,15.4
				c-1.1,4.2-1.7,8.5-2.5,12.8c-0.6,2.9-1.2,5.8-1.7,8.8c-0.5,3.1-0.6,6.2-1,9.3c-0.3,2.5-0.8,4.9-1.1,7.4c-0.4,3.1-0.8,6.3-0.9,9.4
				c-0.2,3.4-0.2,6.8-0.2,10.2c0,1.4,0,2.8,0,4.1s-0.8,1.9-2,1.8c-3.3-0.1-6.6-0.2-9.8-0.4c-1.5-0.1-3.1-2.5-2.9-4.4
				c0.4-3.2,0.6-6.4,1.1-9.6c0.4-2.6,1.1-5.1,1.7-7.6c1.3-5.5,2.5-10.9,3.9-16.3c1.1-4,2.6-8,3.8-12c1-3.7,1.8-7.4,2.8-11.1
				c1.4-4.9,2.8-9.8,4.4-14.7c1.5-4.6,3.3-9.2,5.1-13.8c0.6-1.6,1.5-3,2.4-4.5c1.1-1.9,3-1.7,4.8-1.3c2.6,0.5,4.8,0,6.8-1.6
				C789,788.6,790.3,787.4,791.9,786L791.9,786z"/>
			<path class="st14" d="M786.7,885.1c-2.3,0.2-4.7,0.3-7.1,0.5c-1.1,0.1-2.3,0.4-3.4,0.5c-0.9,0.1-1.8,0.2-2.6,0
				c-1.3-0.2-3.3-0.3-3.6-1c-0.8-1.5-1-3.4-0.9-5.1c0.3-4.7,0.8-9.3,1.5-13.9c0.6-4.2,1.5-8.3,2.1-12.4c0.7-4.8,1.2-9.7,1.9-14.5
				c0.8-4.8,1.4-9.6,3.1-14.3c1.3-3.5,1.5-7.3,2.1-11c0.5-2.9,0.8-5.8,1.6-8.6c0.5-1.9,3.6-3,6.2-2.9c4.3,0.2,6.3,2.8,7.6,6.2
				c1.2,3.3,2.3,6.6,3,10c0.5,2.2,0.1,4.6,0.1,6.9c0,1.5,0.1,3,0,4.4c-0.4,3.7-0.7,7.5-1.5,11.2c-1.4,6.6-3.2,13.2-4.8,19.8
				c-1,4-2.1,8-3,12.1C788.2,876.7,787.6,880.6,786.7,885.1L786.7,885.1z"/>
			<path class="st13" d="M984.3,730.9c0.8,3.5,1.3,7,2.3,10.4c0.9,3.2,2.4,6.2,3.5,9.3c0.2,0.5,0.1,1.4-0.2,1.8
				c-5.8,7.5-11.8,14.9-17.4,22.5c-2.7,3.7-5.8,5.6-10.6,4c-1.5-0.5-3.1-0.4-4.5-1c-1.6-0.6-2.2,0-2.5,1.2c-1.7,5.3-3.5,10.5-5,15.8
				c-1.2,4.3-2.1,8.6-3.1,13c-5.2-6.9-10.4-13.8-15.7-20.9c0.8-0.5,1.4-1.1,2.2-1.5c7.3-4,12.8-9.9,18.2-15.8
				c6.4-7,12.7-14.2,18.8-21.5c3.3-3.9,6.2-8,9.3-12c1.4-1.8,2.8-3.5,4.2-5.3C983.9,730.8,984.1,730.9,984.3,730.9L984.3,730.9z"/>
			<path class="st11" d="M848.9,885.4c2.9-2.2,5.2-4.2,7.8-5.8c1-0.6,2.8,0,4.2-0.2c4.3-0.6,8.5,0,12.6,1.2c1,0.3,1.3,0.6,1.5,1.7
				c0.5,4,1,8.1,1.7,12c1.3,6.9,2.8,13.7,4,20.6c1.1,6.1,1.9,12.2,3,18.2c0.3,1.9,1,3.8,1.5,5.7c0.2,0.9,0.7,2.2,0.3,2.7
				c-1.1,1.3-2.5,2.6-4.2,3.2c-4.9,1.6-10.1-0.8-11.8-5.3c-1-2.8-1.9-5.7-2.7-8.5c-2.8-10.7-5.5-21.5-8.4-32.1
				c-1-3.7-2.5-7.2-3.6-10.9c-0.5-1.9-1.6-2.3-3.3-2.3C850.8,885.6,850.1,885.5,848.9,885.4L848.9,885.4z"/>
			<path class="st13" d="M797.8,777.7c1.4-4.5-0.3-5.7-6.1-4.8c-1.1-2.1-1.4-4.3-0.6-6.6c0.8-2.7,0.2-3.7-2.4-5
				c-2.2-1.1-4.3-2.2-4.6-5.1c-0.3-3.7,1.2-5.2,5.3-4.8c1.5,0.2,3.1-0.1,4.5-0.6c1.8-0.7,2.6-2,2.3-4c-0.3-2.6,0.5-3.7,3.1-4.7
				c2.3-0.9,3.5-2.6,3.8-5c0.1-0.6,0.5-1.4,1-1.7c3-2.1,6.3-3.5,10-2c3.4,1.4,6.3,3.7,7.6,7c0.6,1.4,0.2,3.3-0.1,4.9
				c-0.5,2.1-1.5,4.1-2,6.2c-0.6,2.4-0.5,4.8,1.1,7.1c1,1.4,1,3.3,1.4,5c0.1,0.5-0.1,1.2,0,1.7c1.1,5.3-2.6,7.9-6.5,10.6
				C810,779.7,804.1,779.3,797.8,777.7L797.8,777.7z M808.2,748.8c-0.1,2.3,1.1,3.4,3.3,3.7c0.9,0.1,1.8,0.2,2.8,0.3
				c2.4,0.4,3.6-1,2.8-3.2c-0.2-0.5-0.4-0.9-0.6-1.3c-0.1,0.2-0.1,0.3-0.2,0.5c-1.3-0.2-2.6-0.3-3.9-0.5c-0.5-0.1-1.4-0.2-1.4-0.1
				C810.4,750,809.3,749.1,808.2,748.8L808.2,748.8z M806.8,744.9c3.5,2.1,7.3,1.7,11,1.2c1-0.2,1.1-1.2,0.2-1.9
				c-0.3-0.2-0.7-0.4-1.1-0.5C813.4,743.4,810,743.4,806.8,744.9L806.8,744.9z"/>
			<path class="st13" d="M930.8,837.3c-0.9,3.5-1.7,6.9-2.6,10.4c-0.1,0.3-0.5,0.8-0.8,0.9c-4.9,0.8-9.8,1.5-14.7,2.2
				c-0.9,0.1-2-0.2-2.9-0.7c-10-4.9-19.9-9.9-29.8-14.9c-0.2-0.1-0.4-0.3-0.5-0.3c5.2-4,10.3-8,15.5-11.9c0.4-0.3,1.3-0.3,1.8-0.1
				c9.4,3.9,18.8,7.9,28.2,11.9C927,835.5,928.9,836.4,930.8,837.3L930.8,837.3z"/>
			<path class="st13" d="M835.7,866.8c3-0.6,6-1.3,9.1-1.7c3.2-0.5,4.8,0.1,6,3c1,2.3,1.7,5,1.4,7.3c-0.2,1.7-1.9,3.6-3.5,4.6
				c-5.8,3.6-10.5,8.3-15.3,13c-2.7,2.6-5.5,4.8-9.5,5.3c-5.4,0.7-6.3,0-7.5-4.2c-1.4-5.1-1.1-10.3,1.6-15.1
				c0.8-1.4,1.8-2.7,2.6-4.1c1.9-2.9,4.3-5.1,8-6.1c2.4-0.6,4.7-1.5,7.1-2.2L835.7,866.8L835.7,866.8z"/>
			<path class="st13" d="M940.9,678.5c-3.1-3.9-3.5-5.8-2-7.8c2.9-3.7,10.3-4,13.6-0.5c3.9,4.1,4.2,9.2,0.1,13.4
				c-2.5,2.5-2.7,4.5-1,7.3c2.3,3.8,4.3,7.9,6.6,11.7c0.7,1.1,0.4,1.8,0,2.8c-5.9,11.3-11.9,22.7-17.8,34
				c-4.9,9.5-9.8,19.1-14.7,28.6c-0.8,1.6-1.8,3.1-2.8,4.6c-0.7,1-1.2,2.2-2.9,1.4c-2.3-1.1-3.1-2-2.4-3.9c1-2.6,2.2-5.2,3.5-7.7
				c5.5-10.3,10.9-20.6,16.5-30.8c4-7.2,8.5-14,12.2-21.3c1.5-3,3.3-6.2,1.6-10.2c-2.1-5-3.1-10.5-4.4-15.8
				c-0.2-0.7,0.3-1.6,0.8-2.2c0.7-1,1.6-1.9,2.2-2.9c1.3-2.1,0.9-4.4-0.8-5.5c-1.6-1-5.4-0.3-6.6,1.4
				C941.9,676.2,941.5,677.2,940.9,678.5L940.9,678.5z"/>
			<path class="st13" d="M846,799.8c-2.1,3.7-3.9,7.4-6.3,10.6c-1,1.3-3.4,2-5.3,2.5c-3.4,0.8-6.9,1.3-10.4,1.7
				c-3,0.4-5.7-0.3-7.8-2.4c-1.1-1.1-2.3-2.1-3.7-3.5c1-0.2,1.8-0.5,2.5-0.5c2.8,0,5.7,0.1,8.5,0.2c3,0.1,5.2-1.5,7-3.2
				c1.9-1.8,1.2-4-1.5-4.3c-2.4-0.3-5,0.1-7.3,0.7c-3.1,0.7-6.2,1.9-9.3,2.7c-0.7,0.2-1.6-0.3-2.3-0.5c0.3-0.6,0.4-1.3,0.9-1.7
				c4.7-3.8,8.9-8.4,15.3-10c2.5-0.6,4.7-0.8,7,0.5C837.5,795.1,841.7,797.4,846,799.8L846,799.8z"/>
			<path class="st13" d="M971.5,739.5c-11.6,13.2-23.2,26.3-34.7,39.3c-1.9-3.1-3.9-6.5-6.2-9.8c-1.2-1.7-0.9-2.9,0.8-4
				c6.6-4.3,13.3-8.5,19.8-12.8c6-4,11.8-8,17.8-12c0.6-0.4,1.3-0.8,2-1.2C971.3,739.2,971.4,739.4,971.5,739.5L971.5,739.5z"/>
			<path class="st13" d="M856.2,823c2.6-4.8,5.2-9.4,7.8-14.2c7.7,3.3,15.2,6.5,22.9,9.7c-0.3,0.4-0.5,0.7-0.7,0.8
				c-5.1,3.4-10.2,6.7-15.3,10c-0.4,0.2-1.2,0.3-1.6,0.1C864.9,827.4,860.6,825.2,856.2,823L856.2,823z"/>
			<path class="st13" d="M874.5,866.5c0.8,2.1,1.7,4.1,2.5,6.2c0.9,2.2,0.2,3.4-2.3,3.3c-4.7-0.2-9.3-0.5-14-0.8
				c-0.8-0.1-2-0.7-2.2-1.4c-1.5-3.5-2.7-7-4-10.5c-0.3-1,0-1.4,1.1-1.7c3.2-0.8,6.3-2,9.5-2.6c2-0.4,4.3,0,6.4,0.2
				c0.5,0,1.1,0.6,1.2,1.1c0.8,2,1.5,4.1,2.2,6.1L874.5,866.5L874.5,866.5z"/>
			<path class="st13" d="M940.3,753.3c8.7-13.4,19.6-25,31-36.5c0.3,5.1,0.5,10,0.8,15.4C961.9,739,951.1,746.2,940.3,753.3z"/>
			<path class="st11" d="M796.7,884.2c0.4-0.8,0.7-1.7,1.3-2.3c8.5-8.3,17-16.6,27.6-22.5c1.4-0.8,3.6-0.3,5.5-0.3
				c1.4,0,2.8,0.3,4.2,0.6c0.5,0.1,0.8,0.5,1.3,0.7c-0.3,0.4-0.5,0.9-0.9,1c-2.8,1-5.5,2-8.4,2.8c-2.7,0.7-5,1.8-6.9,3.8
				c-3.7,4-7.5,8-9.7,13c-0.8,2-2.4,3.2-5,3.1c-2.8,0-5.6,0.5-8.4,0.8C797.1,884.6,796.9,884.4,796.7,884.2L796.7,884.2z"/>
			<path class="st13" d="M850,824.3c-3-1.9-5.8-3.8-9.1-5.9c3.2-5.5,6.4-11,9.6-16.5c2.7,1.6,5.2,3,7.8,4.5
				C855.7,812.2,852.9,818.1,850,824.3L850,824.3z"/>
			<path class="st9" d="M808.1,748.8c1.2,0.3,2.3,1.1,2.8-0.5c0-0.1,0.9,0.1,1.4,0.1c1.3,0.2,2.6,0.3,3.9,0.5
				c0.1-0.2,0.1-0.3,0.2-0.5c0.2,0.4,0.4,0.9,0.6,1.3c0.8,2.2-0.3,3.6-2.8,3.2c-0.9-0.2-1.8-0.2-2.8-0.3
				C809.2,752.2,808.1,751.1,808.1,748.8L808.1,748.8z"/>
			<path class="st9" d="M806.8,744.9c3.2-1.5,6.6-1.5,10-1.2c0.4,0,0.8,0.3,1.1,0.5c1,0.7,0.9,1.7-0.2,1.9
				C814.1,746.6,810.3,747,806.8,744.9L806.8,744.9z"/>
		</g>
	</g>
	<text transform="matrix(1.06 0 0 1 1185.9902 734.1602)" class="st3 st4 st5">C</text>
	<text transform="matrix(1.06 0 0 1 1243.4316 734.1602)" class="st3 st4 st5 st15">T</text>
	<text transform="matrix(1.06 0 0 1 1140.9609 782.1602)" class="st3 st6 st7">P</text>
	<text transform="matrix(1.06 0 0 1 1167.3975 782.1602)" class="st3 st6 st7">r</text>
	<text transform="matrix(1.06 0 0 1 1181.4424 782.1602)" class="st3 st6 st7">o-choice</text>
	<text transform="matrix(1.06 0 0 1 1173.2061 830.1602)" class="st3 st6 st7">spends </text>
	<text transform="matrix(1.06 0 0 1 1148.7949 878.1602)" class="st3 st6 st7">17% more</text>
	<text transform="matrix(1.06 0 0 1 471.0103 734.1602)" class="st3 st4 st5">U</text>
	<text transform="matrix(1.06 0 0 1 530.0205 734.1602)" class="st3 st4 st5 st15">T</text>
	<text transform="matrix(1.06 0 0 1 462.6147 782.1602)" class="st3 st6 st7">P</text>
	<text transform="matrix(1.06 0 0 1 488.0972 782.1602)" class="st3 st6 st7 st8">r</text>
	<text transform="matrix(1.06 0 0 1 501.1885 782.1602)" class="st3 st6 st7">o-life</text>
	<text transform="matrix(1.06 0 0 1 459.0107 830.1602)" class="st3 st6 st7">spends </text>
	<text transform="matrix(1.06 0 0 1 444.5845 878.1602)" class="st3 st6 st7">39% less</text>
	<text transform="matrix(1.06 0 0 1 1532.8105 734.1602)" class="st3 st4 st5">TN</text>
	<text transform="matrix(1.06 0 0 1 1518.8398 782.1602)" class="st3 st6 st7">P</text>
	<text transform="matrix(1.06 0 0 1 1545.2754 782.1602)" class="st3 st6 st7">r</text>
	<text transform="matrix(1.06 0 0 1 1559.3203 782.1602)" class="st3 st6 st7">o-Life</text>
	<text transform="matrix(1.06 0 0 1 1524.4365 830.1602)" class="st3 st6 st7">spends </text>
	<text transform="matrix(1.06 0 0 1 1510.0098 878.1602)" class="st3 st6 st7">21% less</text>
</g>
</svg>
