<?xml version="1.0" encoding="UTF-8"?><svg id="Layer_1" xmlns="http://www.w3.org/2000/svg" viewBox="0 0 3608.3 1157.72"><defs><style>.cls-1{fill:#fefefe;}.cls-2{fill:#818943;}.cls-3{fill:#7f7474;}.cls-4{fill:#812521;}.cls-5{fill:#667323;}.cls-6{fill:#b2bc7f;}.cls-7{fill:#a5a5a0;}.cls-8{fill:#1f4257;}.cls-9{fill:#514b4b;}</style></defs><path class="cls-1" d="M1901.25,181.76l.17,.2h-.14v-.23l-.03,.02h0Z"/><polygon class="cls-7" points="2899.09 864.08 2726.44 958.35 2553.78 864.08 2553.78 675.54 2726.44 581.27 2899.09 675.54 2899.09 864.08"/><polygon class="cls-4" points="2544.49 864.08 2371.84 958.35 2199.18 864.08 2199.18 675.54 2371.84 581.27 2544.49 675.54 2544.49 864.08"/><polygon class="cls-8" points="3253.69 864.08 3081.04 958.35 2908.38 864.08 2908.38 675.54 3081.04 581.27 3253.69 675.54 3253.69 864.08"/><polygon class="cls-8" points="2189.89 864.08 2017.23 958.35 1844.58 864.08 1844.58 675.54 2017.23 581.27 2189.89 675.54 2189.89 864.08"/><polygon class="cls-4" points="3608.3 864.08 3435.64 958.35 3262.99 864.08 3262.99 675.54 3435.64 581.27 3608.3 675.54 3608.3 864.08"/><g><polygon class="cls-4" points="3081.04 573.44 2908.38 667.71 2735.73 573.44 2735.73 384.9 2908.38 290.63 3081.04 384.9 3081.04 573.44"/><polygon class="cls-8" points="2726.44 573.44 2553.78 667.71 2381.13 573.44 2381.13 384.9 2553.78 290.63 2726.44 384.9 2726.44 573.44"/><polygon class="cls-7" points="3435.64 573.44 3262.99 667.71 3090.33 573.44 3090.33 384.9 3262.99 290.63 3435.64 384.9 3435.64 573.44"/><polygon class="cls-7" points="2371.84 573.44 2199.18 667.71 2026.52 573.44 2026.52 384.9 2199.18 290.63 2371.84 384.9 2371.84 573.44"/></g><g><polygon class="cls-8" points="3258.34 282.81 3085.68 377.08 2913.03 282.81 2913.03 94.27 3085.68 0 3258.34 94.27 3258.34 282.81"/><polygon class="cls-7" points="2903.74 282.81 2731.08 377.08 2558.43 282.81 2558.43 94.27 2731.08 0 2903.74 94.27 2903.74 282.81"/><polygon class="cls-4" points="2549.14 282.81 2376.48 377.08 2203.83 282.81 2203.83 94.27 2376.48 0 2549.14 94.27 2549.14 282.81"/></g><g><path class="cls-9" d="M2253.94,343.4c-1.95,1.43-3.9,2.86-5.96,4.38,2.23,3.7,4.77,7.22,6.57,11.04,6.53,13.89,10.15,28.31,8.11,43.66-.72,5.44-.97,10.95-1.85,16.37-1.7,10.46-7.41,18.98-15.01,26.5-2.36,2.34-4.74,4.67-7.03,7.07-2.43,2.56-2.28,4.16-.2,6.84,2.08,2.69,4.2,5.45,5.67,8.45,7.15,14.68,14.12,29.44,21.08,44.2,3.9,8.27,7.62,16.61,11.54,24.87,.41,.85,1.56,1.69,2.53,1.95,7.2,1.92,12.84,5.96,17.64,11.19,.89,.97,1.94,2.07,2.18,3.24,.77,3.83,3.59,4.49,7.01,4.8,2.96,.27,5.89,.88,8.83,1.35,3.05,.49,4.95,2.67,4.29,5.55-.6,2.58-1.54,5.15-2.74,7.54-4.64,9.29-9.46,18.45-15.51,27.07-8.75,12.48-18.7,23.7-31.75,32.38-6.79,4.51-13.28,9.42-19.89,14.17-6.96,5-14.57,8.68-23.08,10.81-7.2,1.8-14.32,3.89-21.38,6.14-7.04,2.24-14.01,1.97-20.9-.12-16.04-4.86-31.28-11.46-45.77-19.56-3.87-2.16-7.28-5.06-11.05-7.74-1.35,3.29-2.57,6.55-4.01,9.73-1.42,3.12-2.85,6.27-4.66,9.19-2.92,4.7-7.26,4.83-10.16,.14-3.52-5.71-6.48-11.73-9.75-17.59-8.56-15.38-17.17-30.73-25.71-46.12-1.07-1.93-2.05-3.94-2.75-6-.92-2.7-.77-5.46,.73-7.99,8.22-13.92,16.51-27.8,24.7-41.73,2.12-3.6,4.11-7.28,5.95-11.01,7.06-14.27,15.58-27.74,25.2-40.57,2.54-3.39,6.12-6.07,9.13-9.15,1.14-1.17,2.27-2.45,2.97-3.87,3.74-7.53,8.33-14.5,14.39-20.57,.23-.23,.61-.46,.64-.72,.85-5.96,5.07-10.17,8.69-14.61,2.29-2.81,3.3-5.08,1.14-8.55-2.05-3.3-3.38-7.09-4.52-10.8-.83-2.73-2.59-4.33-4.96-5.68-6.13-3.49-9.98-8.67-12.3-14.96-.83-2.25-.68-4.37,.59-6.52,1.75-2.96,3.14-6.17,7.08-7.14,1.12-.28,2.31-.36,3.41-.7,.72-.22,1.35-.73,1.91-1.05-3.42-1.97-6.38-3.65-9.29-5.38-17.92-10.62-35.84-21.24-53.74-31.87-3.67-2.18-3.81-3.7-.08-5.98,7.76-4.72,15.62-9.32,23.57-13.74,29.63-16.47,59.32-32.84,88.97-49.29,1.79-.99,3.09-.96,4.76,.41,22.41,18.36,43.58,37.91,63.91,58.31,.35,.35,.67,.73,1.25,1.36-3.71,1.73-7.28,3.39-10.85,5.05-3.19,1.74-6.37,3.48-9.56,5.22l.02,.03Zm-10.33,133.16c-3.61,3.36-6.87,6.15-9.8,9.23-1.41,1.48-2.6,2-4.36,.95-1.74-1.03-3.36-2.24-5.15-3.19-9.01-4.82-18.01-9.67-27.12-14.31-2.59-1.32-5.47-2.58-8.32-2.86-4.79-.48-9.73-.64-14.48-.03-5.45,.7-10.93,1.94-16.09,3.74-9.38,3.28-16.94,9.3-22.69,16.86-7.89,10.36-15.38,21.03-22.42,31.92-8.43,13.05-16.28,26.43-24.23,39.75-4.04,6.76-7.8,13.67-11.53,20.59-.46,.86-.32,2.36,.16,3.26,2.03,3.82,4.27,7.54,6.47,11.28,7.27,12.35,14.57,24.68,21.84,37.03,2.57,4.37,5.06,8.79,7.6,13.19,.37,.64,.8,1.25,1.45,2.24,.65-2.64,1.23-4.74,1.68-6.87,4.59-21.62,10.75-42.78,20.06-63.08,8.53-18.59,17.37-36.98,30.77-53.02,11.37-13.61,24.01-25.77,41.94-31.57,7.42-2.4,14.89-2.88,22.16,.67,3.92,1.92,7.88,3.78,11.75,5.78,2.24,1.16,4.43,2.44,6.51,3.84,1.52,1.01,2.84,2.3,4.25,3.46,.17-.11,.35-.23,.52-.34-3.54-9.19-7.08-18.38-10.98-28.51h.01Zm-79.52-65.52c-.55-.13-1.11-.25-1.66-.38,2.82,5.5,5.67,10.99,8.45,16.5,1.66,3.29,4.7,4.99,7.96,6.46,7.34,3.3,14.65,6.67,22.07,9.79,9.06,3.81,18.23,7.38,27.33,11.1,1.47,.6,2.51,.38,3.58-.72,1.79-1.84,3.68-3.58,5.55-5.34,5.7-5.35,10.27-11.55,13.81-18.28,4.76-9.02,2.91-18.92,3.45-28.39-5.73,.38-11.18,.6-16.6,1.15-3.32,.34-4.51,.06-6-2.67-.59-1.07-1.04-2.22-1.56-3.32-1.06-2.23-2.12-4.46-3.33-7.01-2.31,3.9-4.28,7.4-6.44,10.77-.67,1.04-1.74,2.26-2.86,2.54-2.67,.67-5.48,1.02-8.26,1.17-5.12,.27-10.26,.13-15.36,.48-2.82,.19-4.54-.72-5.8-2.99-2.54-4.57-5.16-9.1-7.8-13.62-.34-.58-.9-1.25-1.51-1.43-1.51-.45-2.79-.35-3.11,1.65-.82,5.11-1.68,10.22-2.8,15.28-.25,1.12-1.53,2.63-2.56,2.81-.95,.17-2.64-.96-3.27-1.94-3.22-5.03-6.04-10.3-9.38-15.26-.94-1.4-3.1-2.66-4.81-2.8-1.31-.11-3.1,1.41-4.14,2.62-1.98,2.31-.57,4.89,.33,7.15,2.15,5.45,6.59,8.63,12.36,10.34,1.03,.3,2.44,.63,2.83,1.35,.39,.73-.27,1.97-.47,2.98h0Zm89.45-31.69c-.48-1.84-.77-3.86-1.53-5.71-3.21-7.83-6.38-15.68-9.99-23.34-.78-1.65-3.81-3.9-5-3.54-5.08,1.54-9.97,3.76-13.64,7.76-.62,.68-1.83,1.33-2.7,1.25-2.35-.22-4.69-.7-6.97-1.31-7.43-2-15-2.15-22.63-1.72-2.43,.14-4.08,1.03-4.84,3.48-2.21,7.14-4.63,14.22-6.95,21.33-.24,.74-.39,1.51-.68,2.6,25.1,1.48,49.92,1.88,74.92-.79h.01Zm2.15,179.22c.23,.16,.46,.32,.69,.48-1.82,4.3-3.08,8.92-5.63,12.8-2.72,4.13-6.63,7.57-10.05,11.28-.94,1.02-2.15,1.84-2.92,2.95-.87,1.25-.36,2.47,1.17,2.86,2.69,.68,5.42,1.31,8.18,1.66,4.57,.58,9.21,.71,13.75,1.44,4.31,.69,7.85-.22,11.13-2.92,5.08-4.2,10.25-8.29,15.47-12.33,4.76-3.69,6.61-8.81,7.37-14.19,.35-2.47-.24-5.59-1.65-7.65-4.95-7.19-11.89-11.78-21.36-11.87-2.12-.02-4.32,.39-6.35,1-7.56,2.26-12.89,7.67-18.78,12.26-1.3,1.01-2.67,2.08-1.4,3.82,1.18,1.62,2.82,1.5,4.57,.74,1.91-.83,3.87-1.56,5.81-2.33h0Zm-95.16-110.11c5.31,1.96,9.95,3.59,14.53,5.37,4.19,1.63,8.33,3.38,12.46,5.16,4.76,2.05,9.48,4.19,14.23,6.27,5.37,2.36,10.82,4.56,16.11,7.07,3.27,1.55,6.3,3.55,9.43,5.36,1.02,.59,1.84,.94,2.83-.25,2.02-2.44,3.99-4.99,6.43-7.01,2.03-1.69,1.55-3.29,.69-4.92-1.12-2.12-2.6-4.07-4.1-6.36-.83,.5-1.6,.92-2.32,1.4-1.26,.85-2.48,1.84-4.19,1.24-5.29-1.84-10.61-3.61-15.84-5.6-2.99-1.13-5.81-2.65-8.72-3.97-6.1-2.76-12.23-5.45-18.29-8.29-4.26-2-8.39-4.26-12.65-6.26-.63-.3-2.08-.1-2.47,.37-2.76,3.33-5.34,6.8-8.12,10.41h0Zm80.17-118.52c.28-.22,.56-.45,.83-.67-1.1-1.24-2.04-2.66-3.33-3.68-3.48-2.75-6.98-5.49-10.7-7.92-5.54-3.63-11.09-7.1-18.05-8.31-5.03-.87-9.85-1-14.86-.39-6.08,.73-12.04,2.04-17.11,5.2-7.03,4.39-13.96,9.03-20.29,14.27-8.74,7.23-14.44,16.55-17.69,27.12-.49,1.58-.4,3.34-.37,5.02,0,.46,.73,.91,1.26,1.51,1.45-2.53,2.77-4.61,3.88-6.79,8.15-16.07,22.55-25.6,38.86-33.02,7.44-3.38,15.41-4.32,23.71-4.3,8.59,.02,16.66,1.21,23.97,5.62,3.36,2.03,6.6,4.23,9.89,6.35h0Zm-51.62,57.51c1.62,3.28,3,6.28,4.61,9.17,.38,.68,1.52,1.38,2.31,1.38,5.8,.03,11.6-.1,17.4-.25,.56-.01,1.35-.37,1.62-.79,1.74-2.76,3.36-5.59,5.22-8.73-10.49-.27-20.65-.52-31.15-.79h0Zm44.52,.43c1.25,3.13,2.23,5.8,3.41,8.39,.29,.65,1.28,1.52,1.86,1.46,5.42-.51,10.82-1.21,16.54-1.89-.12-3.28-.23-6.38-.35-9.76-7.37,.62-14.23,1.19-21.47,1.79h.01Zm-59.27,72.41l-.04-.8c-.52-.33-1.01-.75-1.57-.99-3.6-1.52-7.2-3.04-10.83-4.5-5.36-2.16-4.57-2.46-7.93,1.65-.47,.57-1.08,1.04-1.52,1.63-2.52,3.37-5,6.76-7.5,10.15,.15,.22,.3,.44,.46,.66,9.26-3.86,18.5-7.79,28.94-7.8h-.01Zm-13.06-80.93c3.27,.1,6.74,.27,10.21,.24,.52,0,1.31-.92,1.5-1.54,1.14-3.79,2.19-7.61,3.18-11.44,.49-1.87,.79-3.78,1.18-5.67-4.62,3.03-8.53,6.41-12.74,9.4-3.25,2.3-4.57,4.98-3.33,9.01h0Zm7.28,17.37c.65-3.77,1.19-6.96,1.77-10.35-2.77-.09-5.32-.16-8.4-.26,2.3,3.69,4.31,6.9,6.62,10.61h.01Z"/><path class="cls-5" d="M2253.94,343.4c3.19-1.74,6.37-3.48,9.56-5.22,1.62,7.61,3.43,15.19,4.82,22.83,1.8,9.87,3.63,19.76,4.8,29.71,1.42,12.04,2.24,24.15,3.16,36.24,.5,6.49,2.03,12.76,3.78,19.02,1.3,4.68-3.51,9.62-8.52,8.84-1.38-.21-2.63-.56-2.42-2.44,.92-8.3,.47-16.58-.38-24.87-.62-6.01-.46-12.1-1.07-18.12-.63-6.18-1.77-12.32-2.72-18.48-.74-4.8-1.3-9.63-2.33-14.37-1.25-5.78-2.86-11.48-4.37-17.21-1.4-5.32-2.87-10.62-4.31-15.93h0Z"/><path class="cls-6" d="M2243.6,476.56c3.9,10.13,7.44,19.32,10.98,28.51-.17,.11-.35,.23-.52,.34-1.41-1.16-2.73-2.44-4.25-3.46-2.09-1.39-4.27-2.68-6.51-3.84-3.88-2-7.83-3.87-11.75-5.78-7.27-3.55-14.74-3.07-22.16-.67-17.93,5.8-30.57,17.96-41.94,31.57-13.4,16.04-22.24,34.43-30.77,53.02-9.31,20.3-15.48,41.46-20.06,63.08-.45,2.13-1.03,4.23-1.68,6.87-.65-1-1.08-1.6-1.45-2.24-2.54-4.39-5.03-8.81-7.6-13.19-7.26-12.35-14.57-24.68-21.84-37.03-2.2-3.74-4.44-7.46-6.47-11.28-.48-.91-.62-2.4-.16-3.26,3.73-6.92,7.49-13.83,11.53-20.59,7.95-13.32,15.8-26.7,24.23-39.75,7.04-10.89,14.54-21.56,22.42-31.92,5.75-7.56,13.31-13.58,22.69-16.86,5.16-1.8,10.64-3.04,16.09-3.74,4.75-.61,9.69-.45,14.48,.03,2.86,.28,5.74,1.54,8.32,2.86,9.11,4.65,18.11,9.49,27.12,14.31,1.78,.95,3.41,2.16,5.15,3.19,1.77,1.05,2.95,.53,4.36-.95,2.93-3.08,6.19-5.87,9.8-9.23h-.01Z"/><path class="cls-3" d="M2164.09,411.05c.2-1.01,.86-2.25,.47-2.98-.39-.72-1.8-1.04-2.83-1.35-5.76-1.71-10.21-4.89-12.36-10.34-.89-2.26-2.31-4.84-.33-7.15,1.03-1.21,2.83-2.72,4.14-2.62,1.71,.14,3.87,1.4,4.81,2.8,3.34,4.96,6.16,10.23,9.38,15.26,.63,.98,2.31,2.11,3.27,1.94,1.03-.18,2.31-1.7,2.56-2.81,1.12-5.06,1.97-10.17,2.8-15.28,.32-2,1.6-2.1,3.11-1.65,.61,.18,1.17,.86,1.51,1.43,2.64,4.52,5.26,9.05,7.8,13.62,1.26,2.27,2.98,3.18,5.8,2.99,5.11-.35,10.25-.21,15.36-.48,2.77-.14,5.58-.5,8.26-1.17,1.13-.28,2.2-1.5,2.86-2.54,2.16-3.38,4.13-6.87,6.44-10.77,1.21,2.55,2.27,4.78,3.33,7.01,.52,1.11,.98,2.25,1.56,3.32,1.5,2.73,2.68,3.01,6,2.67,5.42-.55,10.88-.77,16.6-1.15-.55,9.48,1.31,19.37-3.45,28.39-3.55,6.72-8.12,12.92-13.81,18.28-1.87,1.76-3.77,3.5-5.55,5.34-1.07,1.1-2.11,1.32-3.58,.72-9.1-3.72-18.27-7.29-27.33-11.1-7.42-3.12-14.73-6.49-22.07-9.79-3.26-1.46-6.3-3.17-7.96-6.46-2.78-5.52-5.63-11-8.45-16.5,.55,.13,1.11,.25,1.66,.38h0Zm69.85,9.79c3.93-1.67,6.22-4.29,7.52-7.62,.26-.68-.42-2.07-1.12-2.57-.49-.35-1.99-.01-2.61,.49-2.46,1.96-4.73,4.12-7.11,6.17-1.26,1.08-.88,2.1,.29,2.74,.95,.52,2.18,.58,3.03,.79h0Z"/><path class="cls-3" d="M2253.53,379.35c-25,2.68-49.82,2.27-74.92,.79,.28-1.09,.43-1.86,.68-2.6,2.32-7.11,4.74-14.19,6.95-21.33,.76-2.45,2.4-3.34,4.84-3.48,7.63-.43,15.19-.28,22.63,1.72,2.28,.61,4.62,1.09,6.97,1.31,.86,.08,2.08-.57,2.7-1.25,3.67-4,8.56-6.22,13.64-7.76,1.2-.36,4.23,1.89,5,3.54,3.61,7.66,6.78,15.52,9.99,23.34,.76,1.85,1.05,3.87,1.53,5.71h-.01Z"/><path class="cls-3" d="M2255.68,558.58c-1.94,.77-3.9,1.5-5.81,2.33-1.75,.76-3.39,.88-4.57-.74-1.27-1.74,.09-2.81,1.4-3.82,5.9-4.59,11.22-10,18.78-12.26,2.03-.61,4.23-1.02,6.35-1,9.47,.09,16.41,4.67,21.36,11.87,1.41,2.05,2,5.18,1.65,7.65-.76,5.38-2.61,10.5-7.37,14.19-5.21,4.04-10.39,8.13-15.47,12.33-3.27,2.7-6.81,3.61-11.13,2.92-4.54-.73-9.18-.85-13.75-1.44-2.76-.35-5.49-.98-8.18-1.66-1.53-.38-2.04-1.61-1.17-2.86,.77-1.11,1.98-1.93,2.92-2.95,3.42-3.72,7.34-7.15,10.05-11.28,2.54-3.87,3.8-8.5,5.63-12.8-.23-.16-.46-.32-.69-.48h0Z"/><path class="cls-5" d="M2160.52,448.47c2.78-3.61,5.36-7.08,8.12-10.41,.39-.47,1.83-.66,2.47-.37,4.26,2,8.39,4.26,12.65,6.26,6.06,2.84,12.19,5.52,18.29,8.29,2.91,1.32,5.74,2.84,8.72,3.97,5.23,1.99,10.55,3.75,15.84,5.6,1.72,.6,2.93-.39,4.19-1.24,.72-.48,1.48-.9,2.32-1.4,1.5,2.3,2.98,4.24,4.1,6.36,.86,1.64,1.35,3.23-.69,4.92-2.44,2.02-4.41,4.57-6.43,7.01-.99,1.2-1.81,.85-2.83,.25-3.13-1.81-6.16-3.81-9.43-5.36-5.29-2.51-10.74-4.72-16.11-7.07-4.75-2.08-9.46-4.23-14.23-6.27-4.13-1.77-8.27-3.52-12.46-5.16-4.57-1.78-9.21-3.41-14.53-5.37h0Z"/><path class="cls-1" d="M2240.69,329.94c-3.29-2.12-6.53-4.33-9.89-6.35-7.31-4.41-15.38-5.6-23.97-5.62-8.29-.02-16.27,.91-23.71,4.3-16.31,7.42-30.71,16.95-38.86,33.02-1.1,2.18-2.43,4.26-3.88,6.79-.53-.61-1.26-1.06-1.26-1.51-.02-1.68-.11-3.44,.37-5.02,3.25-10.56,8.95-19.88,17.69-27.12,6.32-5.24,13.26-9.88,20.29-14.27,5.07-3.16,11.03-4.47,17.11-5.2,5.01-.6,9.83-.48,14.86,.39,6.96,1.21,12.51,4.68,18.05,8.31,3.72,2.44,7.23,5.18,10.7,7.92,1.29,1.02,2.23,2.44,3.33,3.68-.28,.22-.56,.45-.83,.67h0Z"/><path class="cls-1" d="M2189.07,387.46c10.5,.27,20.66,.52,31.15,.79-1.86,3.14-3.48,5.96-5.22,8.73-.27,.43-1.06,.78-1.62,.79-5.8,.15-11.6,.27-17.4,.25-.79,0-1.93-.7-2.31-1.38-1.61-2.89-2.99-5.9-4.61-9.17h0Z"/><path class="cls-1" d="M2233.59,387.88c7.23-.6,14.1-1.18,21.47-1.79,.12,3.38,.23,6.48,.35,9.76-5.73,.68-11.12,1.37-16.54,1.89-.58,.06-1.57-.82-1.86-1.46-1.18-2.59-2.16-5.26-3.41-8.39h-.01Z"/><path class="cls-5" d="M2174.32,460.28c-10.44,.02-19.68,3.94-28.94,7.8-.15-.22-.3-.44-.46-.66,2.5-3.39,4.98-6.78,7.5-10.15,.44-.59,1.05-1.06,1.52-1.63,3.36-4.1,2.56-3.81,7.93-1.65,3.63,1.46,7.23,2.97,10.83,4.5,.57,.24,1.05,.65,1.57,.99l.04,.8h.01Z"/><path class="cls-1" d="M2161.25,379.35c-1.24-4.03,.08-6.7,3.33-9.01,4.21-2.99,8.12-6.36,12.74-9.4-.39,1.89-.7,3.8-1.18,5.67-1,3.83-2.04,7.65-3.18,11.44-.19,.62-.98,1.53-1.5,1.54-3.47,.04-6.94-.14-10.21-.24h0Z"/><path class="cls-1" d="M2168.53,396.72c-2.32-3.71-4.32-6.92-6.62-10.61,3.08,.09,5.63,.17,8.4,.26-.58,3.39-1.13,6.58-1.77,10.35h-.01Z"/><path class="cls-9" d="M2233.94,420.85c-.85-.21-2.08-.27-3.03-.79-1.17-.64-1.55-1.65-.29-2.74,2.38-2.05,4.65-4.21,7.11-6.17,.63-.5,2.12-.84,2.61-.49,.7,.5,1.38,1.89,1.12,2.57-1.3,3.33-3.59,5.96-7.52,7.62h0Z"/></g><g><path class="cls-9" d="M2719.65,269.29c-.56,1.93-.78,3.74-1.57,5.28-2.94,5.74-11.6,7.73-17.44,3.95-2.67-1.72-5.01-3.89-7.17-5.59-1.96,.73-3.82,1.94-5.7,1.97-1.85,.02-3.71-1.16-5.93-1.93-4.13,4.93-9.91,6.39-16.87,5.39-7.28-1.05-11.05-5.38-13.34-11.36-.26-.02-.45-.09-.52-.04-5.11,4.12-11.05,4.96-17.34,3.52-2.46-.56-5.03-1.55-7-3.01-4.07-3.03-7.78-6.51-11.57-9.75-1.56,1.28-3.24,2.85-5.12,4.16-5.35,3.72-11.27,3.8-16.81,.96-5.43-2.79-10.79-6.1-13.25-11.94-.8-1.9-1.24-4.07-1.23-6.11,.02-3.13,.56-6.27,.92-9.4,.29-2.57,1.53-4.66,3.94-6.34-1.68-.6-3.14-1.16-4.63-1.65-13.72-4.59-23.82-13.17-31.07-24.98-2.95-4.82-3.86-10.16-4.56-15.51-1.57-12.06-.33-23.87,4.05-35.34,.12-.32,.3-.62,.45-.93,1.84-3.81,3.77-4.72,8.08-4.07,4.21,.64,8.43,1.23,12.67,1.62,1.22,.11,2.61-.37,3.75-.92,1.6-.77,3.04-1.84,4.55-2.79,4.33-2.72,8.69-5.41,13-8.16,6.07-3.89,12.95-5.44,20.08-5.87,14.33-.87,28.17,1.42,41.35,6.77,8.36,3.39,15.63,8.3,21.02,15.41,.25,.33,.77,.63,1.19,.65,8.3,.46,16.6,.88,24.91,1.28,1.29,.06,2.59,0,3.39,0,3.85-9.22,7.45-18.15,11.32-26.97,1.35-3.07,3.31-5.91,5.05-8.82,1.32-2.2,3.03-4.23,4.04-6.55,2.46-5.63,7.29-7.47,13.07-7.32,10.62,.28,21.13,1.74,30.94,5.71,18.9,7.65,38.46,12.54,58.9,14.83,18.92,2.12,37.86,2.17,56.81,1.93,8.51-.11,17-1.46,25.5-2.22,6.7-.6,13.13,.28,19.21,3.13,1.69,.79,2.21,1.81,1.85,3.6-2.77,13.76-5.48,27.53-8.12,41.32-.33,1.72-.22,3.53-.15,5.3,.29,7.53,.89,15.1-2.5,22.24-.88,1.86-1.8,3.79-3.14,5.36-5.74,6.69-11.24,13.63-17.6,19.77-7.53,7.27-15.55,14.15-23.89,20.59-11.49,8.87-23.36,17.32-35.31,25.63-3.8,2.64-8.27,4.52-12.63,6.3-7.17,2.92-14.44,5.64-21.8,8.13-7.08,2.39-14.21,3.91-21.98,2.18-7.58-1.68-15.59-1.7-23.12-3.5-8.76-2.1-17.22-5.35-25.8-8.1-1.46-.47-3.04-.74-4.35-1.46-2.22-1.22-4.3-2.69-6.37-4.14-.79-.56-1.38-1.38-2.17-2.2h.01Zm43.16-34.01c.51-.24,1.04-.47,1.54-.73,9.92-5.23,19.75-10.62,29.78-15.65,17.74-8.89,36.73-15.57,53.08-26.94,.73-.51,2.62-.25,3.47,.31,1.28,.85,1.1,2.43,.06,3.46-1.34,1.32-2.86,2.52-4.47,3.56-10.06,6.49-20.58,12.2-31.67,16.98-11.51,4.97-23.17,9.68-34.33,15.28-8.07,4.05-15.43,9.36-23.07,14.09,5.4,9.32-.26,22.64-13.18,29.72,4.95,.99,9.71,1.96,14.47,2.9,9.83,1.94,19.91,2.77,29.42,6.09,.71,.25,1.74,.06,2.5-.22,10.5-3.92,21.02-7.78,31.42-11.9,4.05-1.6,8.19-3.37,11.67-5.84,11.98-8.51,23.88-17.14,35.43-26.16,8.08-6.31,15.83-13.05,23.18-20.11,6.02-5.78,11.27-12.29,16.77-18.56,1.04-1.18,1.72-2.69,2.37-4.12,2.59-5.64,2.21-11.64,2.39-17.59,.1-3.26,.35-6.55,.97-9.75,.81-4.16,2.03-8.26,3.12-12.37,1.13-4.22,2.01-8.53,3.59-12.6,.97-2.49,2.19-4.79,2.16-7.55-.04-4.13-.04-4.25-4.34-5.21-.21-.05-.43-.05-.64-.1-6.58-1.57-13.12-.05-19.66,.34-7.43,.44-14.84,1.51-22.27,1.71-7.66,.21-15.35-.46-23.02-.43-12.44,.05-24.7-1.51-36.89-3.52-13.6-2.23-27.19-4.54-39.85-10.2-4.01-1.79-8.32-2.97-12.65-4.48-3.75,8.63-7.47,17.16-11.16,25.69-1.29,2.97-2.39,6.02-3.79,8.95-.67,1.4-1.71,2.7-2.81,3.84-.44,.45-1.61,.63-2.25,.42-.41-.14-.63-1.23-.63-1.89,0-.8,.32-1.6,.47-2.41,2.03-10.7,4.76-21.22,9.17-31.3,.87-1.98,1.51-4.05,2.48-6.71-7.23-.75-13.95-1.59-20.7-2.1-3.39-.26-6.1,1-7.54,4.34-.94,2.2-2.51,4.15-3.73,6.24-2.09,3.59-4.38,7.09-6.11,10.83-3.45,7.45-6.54,15.06-9.87,22.57-.66,1.5-.31,2.05,1.23,2.76,8.11,3.77,14.89,9.1,20.31,15.98,1.64,2.08,3.52,3.98,5.06,5.7,.8-2.1,1.23-4.24,2.36-5.96,3.15-4.78,7.43-8.55,12.81-11.05,3.02-1.41,6.4-.74,8.74,1.5,.44,.43,.83,.91,1.39,1.53,4.48-3.49,8.86-6.96,13.29-10.36,4.77-3.66,9.89-7.06,16.2-7.21,12-.3,22.86,3.46,32.92,9.46,.37,.22,.69,.5,1.02,.76,3.83,2.91,5.88,6.74,6.18,11.33,.18,2.77,.03,5.55,.03,8.61,3.29-1.76,6.44-3.27,9.4-5.07,2.77-1.68,5.49-3.5,7.96-5.55,1.85-1.54,3.47-3.14,6.18-2.66,.7,.13,1.71,.22,1.96,.66,.3,.5,.15,1.5-.2,2.04-.92,1.38-2.05,2.65-3.13,3.93-6.32,7.47-15.57,10.98-23.91,15.7-9.41,5.33-19.53,9.61-27.36,17.17-1.97,1.9-3.83,3.93-5.95,5.67-4.65,3.81-9.48,7.43-14.15,11.22-5.93,4.82-11.76,9.73-17.63,14.61-.08,.15-.16,.31-.25,.46,.21-.04,.42-.09,.63-.13l.03,.02Zm-100.09-79.67c-2.46-3.91-5.28-6.74-9.31-8.37-.99-.4-1.91-.98-2.8-1.56-8.9-5.7-18.99-7.97-29.48-8.72-9.12-.65-17.82,1.26-26.03,5.12-8.54,4.01-17.19,7.84-20.42,17.44-.48,1.42-2.11,1.46-3.06,.19-.71-.95-1.26-2-1.91-2.99-.9-1.36-1.94-2.33-3.82-2.67-4.1-.74-8.17-1.72-12.19-2.81-1.66-.45-2.29-.11-2.77,1.4-3.37,10.61-4.51,21.39-3.38,32.44,1.21,11.85,7.71,20.83,16.8,28.47,6.32,5.31,13.95,8.21,21.87,10.53,2.13,.62,4.27,1.38,6.46,1.59,2.99,.28,6.03,.12,9.05,.05,.79-.02,1.63-.31,2.35-.66,2.35-1.13,4.6-2.47,7.01-3.48,1.54-.64,3.28-.83,5.08-1.26-.72-.82-1.31-1.5-1.9-2.18-3.15-3.58-3.02-7.45-.82-11.29,.87-1.52,2.36-2.75,3.66-4.03,1.2-1.18,2.56-2.14,1.83-4.19-.27-.76,.3-1.84,.65-2.72,.55-1.41,1.36-2.74,1.81-4.17,1.03-3.26,2.15-6.52,2.78-9.86,1.05-5.52,4.98-9.33,8.41-13.44,4.23-5.06,9.87-8.41,16.04-10.91,4.34-1.76,8.95-2.67,14.08-1.93h.01Zm65.61,39.1c.89-2.57,1.87-5.06,2.57-7.63,.19-.7-.34-1.66-.76-2.39-.5-.87-1.33-1.56-1.84-2.42-2.72-4.6-5.44-9.22-9.78-12.69-2.5-2-5.17-3.81-7.74-5.74-3-2.24-6.52-3.44-10.21-3.41-12.48,.1-24.95,.49-37.43,.77-.36,0-.72,.07-1.07,.13-3.07,.49-6.12,1.31-9.21,1.41-5.41,.18-9.59,2.66-13.48,5.77-6.69,5.35-8.89,12.9-11,20.48-.59,2.13-1.27,4.26-1.58,6.44-.23,1.65-.44,3.61,.28,4.99,1.01,1.94,2.8,3.55,4.41,5.17,2.27,2.29,4.58,4.57,7.06,6.65,2.49,2.09,5.2,3.96,7.84,5.88,.77,.56,1.61,1.25,2.5,1.38,2.8,.42,5.63,.66,8.45,.87,3.5,.25,6.53,1.2,9.25,3.54,2.81,2.42,6.06,4.4,9.22,6.43,2.21,1.42,4.52,2.74,6.94,3.79,.74,.32,1.46,1.61,2.97,.39,2.41-1.96,5.28-3.43,7.96-5.09,1.42-.88,2.86-1.75,4.14-2.53-2.77-3.16-5.61-5.69-7.5-8.74-2.5-4.03-4.23-8.49-6.36-12.74-.28-.57-.84-1.17-1.42-1.42-3.93-1.66-7.78-3.47-12.29-3.48-1.2,0-2.4-1.05-3.59-1.62,.09-.29,.19-.58,.28-.87,4.47-1.97,8.87,.2,13.4,.56-1.66-1.77-3.34-3.43-5.21-4.88-.83-.65-1.99-1-3.06-1.29-2.31-.64-4.66-1.16-7.64-1.88,1.43-1.03,2.2-2.04,3.1-2.15,5.55-.69,10.48,.68,14.43,4.88,.15-.54,.3-.76,.25-.92-1.08-2.87-2.28-5.71-3.24-8.61-.41-1.25-.61-2.75,1.72-3.65,2.9,6.33,5.8,12.64,8.74,19.06,.69-.31,1.03-.42,1.31-.6,5.05-3.12,10.44-3.78,16.03-1.69,1.67,.63,2.71,.34,3.38-.98,1.04-2.08,2.85-3.11,4.97-3.94,3.09-1.22,6.1-1.95,9.11,.21,1.24,.89,2.6,1.61,4.09,2.53v.03Zm65.98-14.04c-1.29-.66-2.22-1.4-3.27-1.61-2.94-.58-5.92-1.06-8.9-1.35-4.06-.4-4.61-1-3.55-4.68,.37-1.3-.03-2.02-1.49-2.02-1.01,0-2.08-.1-3.01,.18-6.97,2.15-13.9,4.4-20.87,6.55-.62,.19-1.63,.04-2.1-.34-.37-.3-.39-1.28-.18-1.82,.26-.65,.98-1.13,1.41-1.74,1.01-1.44,2.32-2.82,2.86-4.41,.95-2.82-1.48-5.07-4.56-4.36-1.13,.26-2.35,.88-3.14,1.68-2.33,2.33-4.62,4.73-6.65,7.3-3.7,4.7-4.52,10.53-6.28,15.93-1.75,5.35-1.19,10.97-.24,16.46,1.31,7.55,5.25,14.1,9.1,20.66,.33,.57,.87,1.15,1.47,1.44,3.86,1.89,8.05,2.45,12.33,2.51,.57,0,1.28-.27,1.69-.65,5.25-4.8,10.48-9.63,15.65-14.52,.39-.37,.27-1.23,.39-1.86,.14-.76,0-1.88,.47-2.2,.6-.41,1.69-.22,2.57-.19,.3,0,.58,.33,.63,.37,6.53-5.14,12.95-10.14,19.27-15.23,.57-.46,1.05-1.89,.74-2.31-1.33-1.78-1.62-3.55-.45-5.54-2.8-.34-5.78,.58-7-2.39-1.07-2.6,1.12-3.97,3.14-5.85h-.03Zm-81.63,23.99c-.8-.46-1.36-.63-1.7-.99-4.13-4.54-10.52-4.03-15.19-2.21-2.5,.98-3.64,2.75-2.94,5.08,1.39,4.59,2.15,9.39,5.73,13.25,1.98,2.13,2.81,5.23,4.84,7.29,2.07,2.1,5,3.43,7.48,5.19,1.01,.72,1.68,1.89,2.73,2.51,3.55,2.1,7.14,4.17,10.85,6.01,1.52,.76,3.42,1.39,5.06,1.25,5.79-.49,11.55-1.34,17.43-2.07,.33-2.72-.71-5.05-3.31-6.84-1.49-1.03-3.1-2.09-4.11-3.49-2.14-2.98-4.09-6.11-5.81-9.32-3.46-6.47-7.11-12.9-7.89-20.31-.3-2.78-3.96-5.06-6.84-4.34-4.6,1.15-6.19,4.33-6.34,8.97v.02Zm-21.6,65.01c-1.96-3.27-1.88-6.42-.32-9.61,1.59-3.23,3.13-6.48,4.61-9.55-1.64-1.19-3.43-2.55-5.29-3.82-5.67-3.87-11.38-7.69-17.05-11.57-3.16-2.17-6.26-4.42-9.4-6.62-1.6-1.12-3.34-1.52-5.42-1.62-5.92-.29-11.51-2.01-17.1-4.45-.92,.62-2.12,1.38-3.24,2.24-.33,.25-.69,.83-.6,1.14,.44,1.41,.85,2.89,1.63,4.15,1.28,2.05,2.8,3.96,4.28,5.89,.85,1.1,1.6,2.49,2.78,3.1,4.76,2.45,8.56,5.77,11.18,10.13,5.84-1.51,11.39-2.25,16.9,.39,7.76,3.73,11.75,10.02,10.6,16.93-.24,1.42-.42,2.66,1.26,3.47,1.72,.84,3.35,1.19,5.17-.2h0Zm7.94-22.25c.09,.24,.19,.47,.28,.71,4.88-3.25,9.69-2.23,14.47-.16,4.06,1.76,6.5,4.72,6.3,9-.25,5.49,2.69,9.24,7,12.18,1.66,1.13,3.93,1.86,5.98,2.01,6.47,.47,12.21-1.06,16.07-6.54,.64-.91,1.51-1.67,2.13-2.59,3.12-4.62,4.78-9.36,1.58-14.66-.84-1.39-1.75-2.33-3.46-2.31-4.1,.05-8.29-.32-12.29,.34-6.43,1.06-12.32,.48-17.87-2.84-2.61-1.56-5.29-3.01-7.84-4.45-4.2,3.17-8.27,6.25-12.33,9.32h-.02Zm-81.85-7.4c-2.25-2.47-4.17-4.76-6.3-6.88-5.01-4.98-13.83-7.76-20.97-1.68-.69,.59-1.52,1.04-2.35,1.45-1.42,.7-2.08,1.75-2.19,3.27-.18,2.52-.57,5.04-.72,7.56-.08,1.34-.26,2.88,.31,4.01,3.1,6.21,8.09,10.4,15.38,11.67,4.98,.87,11.1-3.7,11.45-8.48,.31-4.24,1.23-8.14,5.39-10.93h0Zm22.09,25.48c6.28,.1,11.11-3.19,13.01-8.83,.28-.85,.52-1.72,.91-2.52,.64-1.34,.29-2.44-.52-3.64-4.65-6.83-11.54-9.91-19.81-9.93-4.54-.01-8.92,1.31-12.27,4.75-1.62,1.66-1.33,3.62-1.76,5.5-.37,1.61-.01,2.79,1.27,3.84,3,2.48,5.96,4.99,8.96,7.48,2.92,2.43,6.42,3.32,10.23,3.35h-.02Zm15.3-.6c5.38,6.89,6.21,7.39,14.1,8.19,4.34,.44,8.87-1.61,10.26-5.05,1.87-4.63,1.13-7.89-2.17-11.12-5.18-5.05-11.52-5.38-18.03-4.44-1.35,4.04-2.67,7.98-4.15,12.42h0Zm50.66-14.69c-.98,.36-2.77,.65-4.09,1.56-3.23,2.23-5.34,5.01-5.65,9.16-.4,5.44,4.33,12.18,10.05,13.26,.28,.05,.58,.01,.86,.06,3.88,.63,8.02-3.34,8.84-6.26,.78-2.75,1.26-5.6,1.6-8.44,.14-1.15,.01-2.75-.73-3.51-2.74-2.81-5.79-5.33-10.9-5.81l.02-.02Zm-95.55-22.35c2.24,1.51,4.38,2.71,6.18,4.25,1.79,1.54,3.2,3.49,4.88,5.16,.32,.32,1.16,.34,1.71,.25,2.06-.35,4.08-1.05,6.14-1.18,3.38-.2,6.79-.05,10-.05-1.55-2.53-2.94-5.05-4.61-7.4-.8-1.14-1.95-2.43-3.23-2.83-7.17-2.27-14.17-1.81-21.07,1.8h0Zm28.02-9.1c-6.36-4.48-11.99-9.33-15.63-15.96-.91,1.07-1.55,1.79-2.15,2.53-4.51,5.62-4.27,8.61-.39,13.22,.48,.57,1.47,.89,2.28,1.03,2.46,.44,5.14,.31,7.39,1.2,2.95,1.16,5.32,1.7,7.3-1.25,.18-.26,.59-.39,1.2-.78h0Zm124.01,17.13l.08-.12h-.15l.07,.12Z"/><path class="cls-1" d="M2762.42,234.97c5.87-4.87,11.71-9.79,17.64-14.61,4.67-3.79,9.5-7.41,14.15-11.22,2.12-1.74,3.98-3.77,5.95-5.67,7.83-7.57,17.95-11.85,27.36-17.17,8.33-4.72,17.59-8.23,23.91-15.7,1.08-1.28,2.21-2.55,3.13-3.93,.36-.54,.5-1.53,.2-2.04-.26-.43-1.26-.53-1.96-.66-2.72-.49-4.34,1.12-6.18,2.66-2.47,2.05-5.19,3.87-7.96,5.55-2.96,1.79-6.11,3.31-9.4,5.07,0-3.06,.15-5.84-.03-8.61-.3-4.59-2.36-8.41-6.18-11.33-.34-.26-.66-.54-1.02-.76-10.06-6-20.93-9.76-32.92-9.46-6.31,.16-11.43,3.56-16.2,7.21-4.44,3.4-8.81,6.86-13.29,10.36-.56-.62-.95-1.1-1.39-1.53-2.34-2.24-5.71-2.91-8.74-1.5-5.38,2.51-9.66,6.27-12.81,11.05-1.13,1.72-1.56,3.86-2.36,5.96-1.54-1.72-3.42-3.62-5.06-5.7-5.42-6.88-12.2-12.21-20.31-15.98-1.53-.71-1.89-1.26-1.23-2.76,3.32-7.51,6.42-15.11,9.87-22.57,1.73-3.74,4.03-7.24,6.11-10.83,1.22-2.1,2.79-4.05,3.73-6.24,1.44-3.34,4.15-4.59,7.54-4.34,6.75,.51,13.48,1.35,20.7,2.1-.98,2.66-1.62,4.73-2.48,6.71-4.41,10.08-7.14,20.6-9.17,31.3-.15,.81-.48,1.61-.47,2.41,0,.66,.22,1.76,.63,1.89,.64,.21,1.81,.03,2.25-.42,1.1-1.14,2.14-2.44,2.81-3.84,1.4-2.93,2.5-5.97,3.79-8.95,3.69-8.53,7.41-17.06,11.16-25.69,4.33,1.52,8.64,2.69,12.65,4.48,12.66,5.65,26.25,7.96,39.85,10.2,12.2,2,24.45,3.57,36.89,3.52,7.67-.03,15.36,.64,23.02,.43,7.44-.21,14.84-1.27,22.27-1.71,6.54-.39,13.07-1.91,19.66-.34,.21,.05,.43,.05,.64,.1,4.3,.96,4.29,1.08,4.34,5.21,.03,2.76-1.19,5.06-2.16,7.55-1.58,4.06-2.47,8.38-3.59,12.6-1.1,4.11-2.31,8.21-3.12,12.37-.62,3.2-.87,6.49-.97,9.75-.18,5.95,.2,11.95-2.39,17.59-.66,1.43-1.34,2.94-2.37,4.12-5.49,6.26-10.75,12.77-16.77,18.56-7.35,7.06-15.1,13.8-23.18,20.11-11.55,9.02-23.45,17.65-35.43,26.16-3.48,2.47-7.62,4.23-11.67,5.84-10.41,4.12-20.93,7.98-31.42,11.9-.76,.28-1.79,.47-2.5,.22-9.51-3.33-19.59-4.15-29.42-6.09-4.77-.94-9.53-1.91-14.47-2.9,12.91-7.09,18.57-20.4,13.18-29.72,7.64-4.72,15-10.04,23.07-14.09,11.16-5.6,22.82-10.32,34.33-15.28,11.09-4.78,21.61-10.49,31.67-16.98,1.6-1.03,3.12-2.24,4.47-3.56,1.05-1.03,1.22-2.61-.06-3.46-.85-.57-2.74-.82-3.47-.31-16.35,11.36-35.34,18.05-53.08,26.94-10.03,5.02-19.86,10.42-29.78,15.65-.5,.26-1.03,.49-1.54,.73-.13-.11-.26-.22-.38-.33l-.04-.02Z"/><path class="cls-6" d="M2662.72,155.63c-5.13-.74-9.74,.17-14.08,1.93-6.16,2.5-11.81,5.85-16.04,10.91-3.43,4.11-7.36,7.92-8.41,13.44-.64,3.34-1.76,6.6-2.78,9.86-.45,1.43-1.27,2.76-1.81,4.17-.34,.88-.92,1.97-.65,2.72,.73,2.05-.63,3-1.83,4.19-1.3,1.28-2.78,2.5-3.66,4.03-2.2,3.84-2.34,7.72,.82,11.29,.59,.68,1.18,1.36,1.9,2.18-1.79,.43-3.54,.62-5.08,1.26-2.41,1.01-4.66,2.35-7.01,3.48-.72,.35-1.56,.64-2.35,.66-3.02,.07-6.06,.22-9.05-.05-2.19-.2-4.34-.96-6.46-1.59-7.93-2.32-15.56-5.22-21.87-10.53-9.09-7.64-15.59-16.62-16.8-28.47-1.13-11.04,.01-21.83,3.38-32.44,.48-1.51,1.11-1.85,2.77-1.4,4.02,1.09,8.08,2.07,12.19,2.81,1.89,.34,2.93,1.31,3.82,2.67,.65,.99,1.2,2.04,1.91,2.99,.95,1.27,2.58,1.24,3.06-.19,3.23-9.6,11.88-13.43,20.42-17.44,8.21-3.86,16.91-5.77,26.03-5.12,10.49,.74,20.58,3.01,29.48,8.72,.9,.57,1.82,1.16,2.8,1.56,4.03,1.63,6.85,4.46,9.31,8.37h-.01Z"/><path class="cls-5" d="M2728.32,194.72c-1.49-.92-2.86-1.64-4.09-2.53-3.01-2.16-6.02-1.43-9.11-.21-2.12,.83-3.93,1.86-4.97,3.94-.66,1.33-1.7,1.61-3.38,.98-5.6-2.1-10.99-1.43-16.03,1.69-.29,.18-.62,.28-1.31,.6-2.94-6.42-5.84-12.73-8.74-19.06-2.33,.91-2.13,2.4-1.72,3.65,.96,2.91,2.16,5.74,3.24,8.61,.06,.15-.09,.37-.25,.92-3.96-4.2-8.88-5.57-14.43-4.88-.9,.11-1.67,1.12-3.1,2.15,2.98,.73,5.33,1.24,7.64,1.88,1.07,.3,2.23,.64,3.06,1.29,1.87,1.45,3.55,3.11,5.21,4.88-4.53-.36-8.93-2.53-13.4-.56-.09,.29-.19,.58-.28,.87,1.2,.57,2.39,1.61,3.59,1.62,4.5,0,8.36,1.82,12.29,3.48,.59,.25,1.14,.85,1.42,1.42,2.12,4.25,3.86,8.7,6.36,12.74,1.89,3.05,4.73,5.57,7.5,8.74-1.28,.78-2.72,1.64-4.14,2.53-2.68,1.66-5.54,3.13-7.96,5.09-1.51,1.22-2.23-.07-2.97-.39-2.42-1.06-4.73-2.38-6.94-3.79-3.16-2.03-6.41-4.01-9.22-6.43-2.72-2.34-5.75-3.28-9.25-3.54-2.83-.21-5.66-.45-8.45-.87-.89-.13-1.74-.82-2.5-1.38-2.65-1.92-5.35-3.79-7.84-5.88-2.48-2.08-4.79-4.36-7.06-6.65-1.61-1.62-3.4-3.23-4.41-5.17-.72-1.39-.51-3.34-.28-4.99,.3-2.17,.98-4.31,1.58-6.44,2.11-7.57,4.31-15.13,11-20.48,3.89-3.11,8.07-5.59,13.48-5.77,3.08-.1,6.14-.92,9.21-1.41,.35-.06,.71-.12,1.07-.13,12.48-.28,24.95-.66,37.43-.77,3.69-.03,7.21,1.16,10.21,3.41,2.57,1.92,5.24,3.74,7.74,5.74,4.34,3.46,7.05,8.08,9.78,12.69,.51,.86,1.35,1.55,1.84,2.42,.42,.73,.95,1.69,.76,2.39-.7,2.56-1.68,5.06-2.57,7.63v-.03Z"/><path class="cls-1" d="M2794.3,180.68c-2.02,1.88-4.21,3.25-3.14,5.85,1.22,2.96,4.19,2.05,7,2.39-1.17,1.99-.87,3.77,.45,5.54,.31,.42-.17,1.85-.74,2.31-6.33,5.1-12.74,10.1-19.27,15.23-.05-.03-.34-.36-.63-.37-.88-.03-1.97-.22-2.57,.19-.47,.32-.33,1.43-.47,2.2-.11,.63,0,1.49-.39,1.86-5.17,4.89-10.39,9.71-15.65,14.52-.41,.38-1.12,.65-1.69,.65-4.28-.05-8.47-.62-12.33-2.51-.6-.29-1.13-.87-1.47-1.44-3.85-6.56-7.79-13.11-9.1-20.66-.95-5.49-1.51-11.11,.24-16.46,1.77-5.4,2.58-11.23,6.28-15.93,2.02-2.57,4.32-4.97,6.65-7.3,.79-.8,2.01-1.41,3.14-1.68,3.08-.71,5.51,1.54,4.56,4.36-.54,1.6-1.85,2.97-2.86,4.41-.43,.61-1.15,1.09-1.41,1.74-.21,.54-.19,1.53,.18,1.82,.47,.38,1.48,.53,2.1,.34,6.97-2.14,13.9-4.4,20.87-6.55,.93-.29,2-.18,3.01-.18,1.46,0,1.87,.72,1.49,2.02-1.05,3.68-.5,4.28,3.55,4.68,2.99,.3,5.96,.77,8.9,1.35,1.05,.21,1.98,.96,3.27,1.61h.03Zm-28.05,7.41c-.54,1.2-1.31,2.07-1.13,2.66,.86,2.74,1.93,5.42,3.05,8.08,.49,1.17,1.54,1.29,2.72,.79s1.74-1.29,1.19-2.45c-1.13-2.36-2.29-4.71-3.56-7-.36-.65-1.16-1.09-2.27-2.08h0Z"/><path class="cls-1" d="M2712.66,204.68c.15-4.64,1.74-7.82,6.34-8.97,2.88-.72,6.54,1.56,6.84,4.34,.79,7.42,4.43,13.85,7.89,20.31,1.72,3.21,3.67,6.34,5.81,9.32,1.01,1.4,2.62,2.47,4.11,3.49,2.6,1.79,3.64,4.12,3.31,6.84-5.88,.73-11.63,1.58-17.43,2.07-1.65,.14-3.54-.5-5.06-1.25-3.71-1.84-7.3-3.91-10.85-6.01-1.05-.62-1.72-1.8-2.73-2.51-2.48-1.76-5.41-3.09-7.48-5.19-2.03-2.07-2.87-5.16-4.84-7.29-3.58-3.86-4.34-8.66-5.73-13.25-.71-2.33,.44-4.1,2.94-5.08,4.67-1.83,11.05-2.33,15.19,2.21,.33,.36,.9,.54,1.7,.99v-.02Zm-1.28,20.92c.52,1.48,2.96,3.62,4.07,3.25,.76-.25,1.67-1.15,1.78-1.86,.26-1.65-2.19-4.57-3.33-4.07-1.05,.45-1.7,1.75-2.52,2.68h0Zm15.88,2.89c-.33,0-.66-.03-.98-.04-.61,.86-1.71,1.74-1.69,2.58,.02,.72,1.34,1.4,2.08,2.1,.72-.71,1.92-1.36,2.03-2.14,.1-.76-.91-1.66-1.44-2.5h0Zm-11.32-18.46c-.9,1.1-1.91,1.8-1.87,2.43,.05,.67,1.2,1.83,1.7,1.76,.79-.11,1.83-1,2.01-1.73,.13-.54-.95-1.33-1.84-2.47h0Z"/><path class="cls-1" d="M2691.05,269.7c-1.83,1.39-3.45,1.03-5.17,.2-1.68-.81-1.5-2.06-1.26-3.47,1.15-6.92-2.84-13.2-10.6-16.93-5.5-2.64-11.06-1.9-16.9-.39-2.61-4.36-6.41-7.68-11.18-10.13-1.18-.6-1.93-2-2.78-3.1-1.48-1.93-3.01-3.84-4.28-5.89-.78-1.25-1.18-2.73-1.63-4.15-.1-.31,.27-.89,.6-1.14,1.12-.85,2.32-1.61,3.24-2.24,5.59,2.44,11.17,4.16,17.1,4.45,2.07,.1,3.81,.5,5.42,1.62,3.14,2.2,6.24,4.45,9.4,6.62,5.67,3.88,11.38,7.7,17.05,11.57,1.86,1.27,3.65,2.63,5.29,3.82-1.48,3.07-3.02,6.32-4.61,9.55-1.57,3.19-1.65,6.33,.32,9.61h0Z"/><path class="cls-1" d="M2698.98,247.45c4.07-3.07,8.14-6.15,12.33-9.32,2.55,1.44,5.23,2.89,7.84,4.45,5.55,3.32,11.44,3.89,17.87,2.84,4-.66,8.19-.29,12.29-.34,1.7-.02,2.62,.92,3.46,2.31,3.2,5.29,1.54,10.04-1.58,14.66-.62,.92-1.49,1.68-2.13,2.59-3.86,5.48-9.6,7.01-16.07,6.54-2.05-.15-4.32-.88-5.98-2.01-4.3-2.94-7.25-6.69-7-12.18,.2-4.27-2.24-7.24-6.3-9-4.78-2.07-9.59-3.09-14.47,.16-.09-.24-.19-.47-.28-.71h.02Z"/><path class="cls-1" d="M2617.13,240.06c-4.16,2.79-5.09,6.69-5.39,10.93-.34,4.78-6.47,9.34-11.45,8.48-7.28-1.27-12.28-5.47-15.38-11.67-.57-1.14-.39-2.67-.31-4.01,.15-2.53,.55-5.04,.72-7.56,.11-1.52,.77-2.57,2.19-3.27,.83-.41,1.66-.86,2.35-1.45,7.14-6.07,15.96-3.3,20.97,1.68,2.13,2.12,4.06,4.42,6.3,6.88h0Z"/><path class="cls-1" d="M2639.22,265.53c-3.81-.03-7.31-.93-10.23-3.35-2.99-2.49-5.96-5-8.96-7.48-1.28-1.05-1.63-2.23-1.27-3.84,.43-1.89,.14-3.84,1.76-5.5,3.34-3.44,7.73-4.76,12.27-4.75,8.27,.03,15.17,3.1,19.81,9.93,.81,1.19,1.16,2.29,.52,3.64-.38,.81-.62,1.68-.91,2.52-1.89,5.64-6.73,8.93-13.01,8.83h.02Z"/><path class="cls-1" d="M2654.52,264.93c1.48-4.44,2.8-8.38,4.15-12.42,6.52-.94,12.85-.62,18.03,4.44,3.31,3.23,4.05,6.49,2.17,11.12-1.39,3.43-5.92,5.49-10.26,5.05-7.89-.8-8.71-1.29-14.1-8.19h0Z"/><path class="cls-1" d="M2705.18,250.23c5.1,.48,8.16,3.01,10.9,5.81,.74,.76,.87,2.35,.73,3.51-.35,2.84-.82,5.68-1.6,8.44-.83,2.92-4.96,6.89-8.84,6.26-.28-.05-.58,0-.86-.06-5.72-1.07-10.45-7.82-10.05-13.26,.3-4.15,2.41-6.93,5.65-9.16,1.32-.91,3.11-1.2,4.09-1.56l-.02,.02Z"/><path class="cls-1" d="M2609.63,227.88c6.9-3.61,13.9-4.07,21.07-1.8,1.28,.4,2.42,1.7,3.23,2.83,1.66,2.35,3.05,4.87,4.61,7.4-3.21,0-6.61-.15-10,.05-2.06,.12-4.08,.82-6.14,1.18-.55,.09-1.39,.07-1.71-.25-1.68-1.67-3.09-3.61-4.88-5.16-1.8-1.55-3.94-2.74-6.18-4.25h0Z"/><path class="cls-1" d="M2637.64,218.78c-.62,.39-1.03,.51-1.2,.78-1.98,2.95-4.34,2.41-7.3,1.25-2.25-.89-4.92-.76-7.39-1.2-.81-.15-1.8-.47-2.28-1.03-3.88-4.61-4.12-7.6,.39-13.22,.6-.75,1.24-1.47,2.15-2.53,3.64,6.63,9.26,11.49,15.63,15.96h0Z"/><polygon class="cls-1" points="2761.66 235.9 2761.58 235.77 2761.74 235.78 2761.66 235.9"/><path class="cls-1" d="M2762.8,235.3c-.21,.04-.42,.09-.63,.13,.08-.15,.16-.31,.24-.46,.13,.11,.26,.22,.38,.33h.01Z"/><path class="cls-9" d="M2766.25,188.08c1.11,.99,1.91,1.43,2.27,2.08,1.27,2.29,2.43,4.64,3.56,7,.55,1.16,0,1.95-1.19,2.45-1.18,.5-2.23,.38-2.72-.79-1.12-2.66-2.19-5.34-3.05-8.08-.19-.6,.59-1.47,1.13-2.66h0Z"/><path class="cls-9" d="M2711.39,225.6c.82-.93,1.47-2.22,2.52-2.68,1.14-.49,3.6,2.42,3.33,4.07-.11,.71-1.02,1.6-1.78,1.86-1.11,.37-3.55-1.77-4.07-3.25h0Z"/><path class="cls-9" d="M2727.27,228.49c.53,.84,1.54,1.74,1.44,2.5-.11,.78-1.31,1.43-2.03,2.14-.74-.7-2.06-1.38-2.08-2.1-.02-.85,1.08-1.72,1.69-2.58,.33,0,.66,.03,.98,.04h0Z"/><path class="cls-9" d="M2715.96,210.03c.9,1.13,1.98,1.93,1.84,2.47-.18,.73-1.22,1.61-2.01,1.73-.5,.07-1.65-1.09-1.7-1.76-.05-.63,.96-1.33,1.87-2.43h0Z"/></g><g><path class="cls-9" d="M3149.9,552.15c-.24-.6-.39-1.23-.72-1.78-2.18-3.62-1.36-6.72,1.67-9.53,1.41-1.32,2.83-1.56,4.51-.25,3.35,2.61,6.55,5.4,9.91,8,2.31,1.79,4.81,3.36,7.17,5.09,1.55,1.14,3.09,2.31,4.46,3.62,3.29,3.17,7.6,4.13,11.92,5.07,.57,.12,1.31-.27,1.91-.54,27.02-12.38,54.06-24.75,81.03-37.22,3.15-1.46,6-3.5,8.95-5.34,.37-.23,.69-.89,.64-1.31-.38-3.29-.04-6.46,.74-9.72,1.39-5.82,2.28-11.76,3.37-17.65,.04-.19-.01-.41,.07-.57,1.73-3.17-.01-5.52-1.89-7.99-2.26-2.98-4.28-6.12-6.3-9.25-.54-.84-.69-1.89-1.03-2.86-2.89-1.17-6.05-2.21-8.97-3.69-3.3-1.68-6.24-3.87-7.99-7.18-1.13-2.14-1.28-4.31-.33-6.59-7.04-5.68-13.97-11.46-21.12-16.99-21.08-16.28-41.53-33.25-61.88-50.34-14.08-11.83-28.73-23.05-43.06-34.62-2.79-2.25-5.32-4.79-7.85-7.31-.69-.69-1.24-1.77-1.29-2.7-.09-1.74,1.91-2.7,3.72-1.88,.6,.27,1.13,.71,1.61,1.15,15.18,13.96,31.36,26.84,47.82,39.43,9.99,7.64,19.2,16.17,29.01,24.02,13.49,10.81,27.27,21.3,40.81,32.05,5.36,4.26,10.42,8.85,15.65,13.26,.38,.32,1.1,.63,1.52,.51,3.65-1.05,7.01,.18,10.38,1.1,2.75,.76,5.42,1.78,8.38,2.77-.43-.68-.82-1.34-1.26-1.98-2.1-3.05-4.65-5.91-4.98-9.75-.13-1.48,.22-3.02-.1-4.44-.25-1.08-1.04-2.18-1.9-2.96-3.6-3.31-7.42-6.41-10.97-9.77-28.19-26.69-56.28-53.46-84.51-80.11-10.07-9.5-20.5-18.64-30.66-28.06-2.46-2.28-4.5-4.98-6.66-7.54-.5-.59-.7-1.41-.65-2.37,3.46,2.56,6.88,5.16,10.38,7.68,13.7,9.85,25.63,21.53,37.78,32.95,28.18,26.51,56.15,53.22,84.22,79.83,2.5,2.37,5.07,4.66,7.56,6.95,8.14-1.1,15.67-.16,21.28,5.45,1.72-.31,3.14-.82,4.52-.76,9.79,.43,19.55,1.22,29.11,3.47,1.78,.42,3.37,.18,4.55-1.34,.31-.41,.78-.71,1.21-1.03,4.37-3.25,8.76-6.49,13.11-9.76,.37-.28,.82-.89,.72-1.2-.15-.46-.71-1.01-1.19-1.11-1.11-.22-2.29-.28-3.43-.26-3.59,.07-6.34-1.38-8.76-3.81-3.16-3.17-4.68-6.94-5.41-11.16-1.03-5.95-1.13-5.97,3.96-9.56,1.53-1.08,2.48-2.1,2.51-4.15,.08-5.45,2.44-9.82,7.26-13.14,2.16-1.49,3.97-3.7,5.34-5.91,3.02-4.86,7.65-7.46,13.08-8.9,4.91-1.3,9.9-1.99,15.1-1.82,12.04,.39,23.84-1.3,35.49-4.2,3.73-.93,7.32-1.8,10.46-4.05,.67-.48,2-.14,3.11-.18-.97,4.26,1.24,6.66,5.59,6.99,5.85,.45,10.78-2.19,16.03-3.81,.97-.3,1.91-.71,2.9-.89,.62-.11,1.55-.13,1.93,.21,3.92,3.63,9.09,4.01,14.04,5.03,4.63,.95,9.21,.32,13.8-.18,1.44-.16,3-.42,3.77,1.13,.79,1.59-.38,2.58-1.45,3.65-2.93,2.94-6.03,5.79-8.58,9.01-2.95,3.73-2.81,8.08-1.26,12.35,.77,2.13,1.91,4.13,2.8,6.22,1.87,4.37,1.14,8.46-2.29,11.79-2.83,2.75-6.22,4.98-9.12,7.67-1.57,1.45-2.73,3.33-3.93,5.1-1.83,2.69-3.48,2.76-5.62,.3-2-2.31-4.92-3.07-7.84-3.81-8.09-2.06-16.31-2.05-24.48-.93-8.05,1.11-16.03,2.7-24.03,4.15-6.98,1.26-13.95,2.12-21.38,.32,.65,2.03,1.07,3.94,1.85,5.71,3.33,7.53,4.07,15.37,3.59,23.43-.25,4.17-2.51,7.53-4.21,11.16-3.75,8.06-7.34,16.2-10.96,24.32-2.99,6.69-5.96,13.39-8.88,20.11-2.06,4.74-3.35,9.64-3.1,14.82,.25,5.28-1.5,9.75-5.97,13.1-1.22,.92-2.46,1.81-3.67,2.74-.29,.22-.63,.57-.65,.88-.2,3.09-2.41,4.78-4.99,5.85-4.1,1.71-8.32,3.19-12.57,4.52-7.17,2.26-14.4,4.33-21.61,6.47-1.1,.33-2.21,.67-3.35,.85-3.27,.51-4.49-.29-5.29-3.72-3.36,.9-6.76,1.64-10.02,2.73-21,6.97-42,13.97-62.95,21.07-10.7,3.62-21.32,7.46-31.96,11.24-.81,.29-1.5,.86-2.27,1.27-3.86,2.01-7.59,4.34-11.64,5.92-5.63,2.19-10.8,.33-15.5-2.82-.54-.36-.91-1.14-1.07-1.79-1.81-7.47-6.15-13.01-12.33-18.14-6.25-5.19-11-12.03-16.26-18.25-1.58-1.87-1.27-3.72,.23-5.06,1.84-1.63,3.95-1.73,6.06-.4,1.15,.72,2.41,1.28,3.62,1.92-.03,.09-.06,.18-.09,.27,.06,.01,.13,.02,.19,.04-.05-.1-.1-.2-.15-.29l-.02-.02Zm313.01-133.68c3.39-2.72,6.43-5.25,9.56-7.67,6.09-4.71,6.44-5.88,3.17-12.56-1.48-3.02-2.47-6.11-2.48-9.47-.02-4.73,1.06-8.93,5.62-11.7,1.14-.69,2.26-1.51,3.11-2.48,.52-.6,.86-1.71,.63-2.4-.18-.56-1.31-1.12-2.07-1.17-5.25-.39-10.36-1.31-15.32-2.97-2.29-.77-4.53-1.68-6.84-2.41-.78-.24-1.74-.27-2.54-.09-1.05,.23-2.03,.74-3.02,1.16-5.89,2.54-12.03,3.92-18.52,3.63-4.03-.19-5.8-1.37-6.61-4.2-4.4,1.03-8.75,2.5-13.22,3-6.63,.75-13.35,.75-20.03,1.2-4.64,.31-9.29,.63-13.87,1.34-3.45,.53-6.78,1.72-10.19,2.56-5.56,1.37-9.09,5.05-12.2,9.36,8.71,4.56,8.76,12.15,7.97,20.1,.98-.36,1.78-.88,2.59-.88,.98,0,2.39,.15,2.86,.75,1.53,1.96,1.12,4.35,.44,6.46-.33,1.02-1.73,1.74-2.65,2.6,.39,.58,.95,1.58,1.69,2.45,4.93,5.78,11.73,8.04,19.17,7.69,5.36-.25,10.78-1.52,15.95-3.03,13.5-3.93,27.25-5.28,41.28-4.37,5.48,.35,11.05,.44,15.52,3.09h0Zm-104.56,96.26c.67-2.44,1.09-4.8,1.96-7.01,2.56-6.49,5.26-12.94,7.98-19.38,2.89-6.86,5.74-13.73,8.84-20.5,2.56-5.59,5.6-10.9,5.81-17.28,.27-8.1,.11-16.07-2.86-23.78-.22-.56-.99-1.34-1.5-1.34-5.52,.02-11.02,.38-16.28,2.17-.52,.18-.96,.63-1.38,1.01-1.26,1.14-2.38,2.44-3.76,3.44-4.2,3.03-8.49,5.95-12.72,8.9,1.7,1.84,3.24,3.3,4.5,4.94,.6,.78,.68,1.93,.99,2.9-1.1-.22-2.27-.28-3.28-.69-1.03-.42-1.92-1.17-3.06-1.9,.63,2.38,1.24,4.42,1.68,6.49,.1,.48-.4,1.07-.63,1.6-.58-.24-1.36-.33-1.69-.74-.65-.81-1.06-1.79-1.54-2.71-.73-1.4-1.44-2.81-2.18-4.26-1.73,1.2-3.16,2.28-4.7,3.22-.45,.28-1.18,.15-1.78,.21,.11-.52,.08-1.11,.35-1.53,.85-1.36,1.81-2.66,3.06-4.47-9.75-.61-19.11-1.2-28.47-1.79-.38,5.1-.74,9.89-1.11,14.85,1.09,.17,2.07,.4,3.06,.46,12.17,.81,24.34,1.66,36.53,2.33,1.89,.1,4.04-.24,5.71-1.04,4.05-1.95,7.81-4.45,11.85-6.43,2.63-1.29,4.68-2.96,6.31-5.26,1.02-1.43,2.22-2.77,3.49-4,.46-.45,1.36-.49,2.06-.71-.04,.7,.15,1.52-.17,2.08-1.13,1.97-2.43,3.85-3.85,6.04,1.85-.73,3.32-1.43,4.87-1.87,.52-.15,1.61,.2,1.78,.58,.21,.46-.13,1.32-.52,1.79s-1.1,.76-1.72,1c-2.2,.85-4.5,1.5-6.61,2.5-6.21,2.93-12.32,6.05-18.53,8.97-1.14,.54-2.61,.7-3.91,.66-3.59-.11-7.18-.47-10.77-.62-.56-.02-1.36,.4-1.69,.86-2.58,3.62-5.05,7.3-7.58,10.94-1.64,2.36-3.33,4.7-5.19,7.31,2.31-.24,4.19-.43,5.32,1.25,1.26,1.89,2.47,3.83,3.44,5.86,2.12,4.46,4.12,8.97,6.06,13.5,.93,2.17,1.9,4.12,4.81,4.2,.32,0,.63,.23,.94,.36,5.19,2.21,10.39,4.42,16.1,6.85l-.02,.04Zm-160.01,73.35c1.98-1.27,3.22-2.33,4.67-2.94,3.59-1.53,7.28-2.84,10.91-4.27,5.32-2.1,10.62-4.24,15.94-6.33,5.05-1.99,10.11-3.97,15.19-5.92,4.67-1.79,9.35-3.56,14.04-5.28,5.42-1.99,10.85-3.95,16.29-5.88,3.21-1.14,6.43-2.27,9.68-3.3,5.71-1.81,11.47-3.51,17.17-5.34,.52-.17,1.14-1.01,1.14-1.54,0-2.25,0-4.54-.4-6.75-.83-4.66-1.88-9.29-2.91-13.92-.55-2.47-1.18-4.93-1.94-7.36-.27-.85-.74-1.83-2.22-1.14-3.5,1.63-7.09,3.11-10.61,4.69-3.77,1.69-7.51,3.44-11.28,5.15-6.54,2.97-13.1,5.93-19.64,8.91-6.42,2.93-12.87,5.82-19.25,8.84-4.23,2-8.37,4.18-12.55,6.29-.36,.18-.7,.4-1.07,.57-5.89,2.66-11.77,5.32-17.67,7.96-1.02,.46-2.11,.76-3.17,1.15-2.29,.86-4.59,1.7-6.86,2.6-.39,.16-.73,.55-.97,.9-1.55,2.26-2.19,4.62-2.25,7.44-.07,3.71,1.25,6.91,2.87,9.96,1.14,2.15,3.31,3.81,4.88,5.53v-.02Zm173.53-167.07c-1.45-1.83-3.1-3.73-4.53-5.77-.75-1.07-1.2-2.37-1.64-3.6-.37-1.04,.06-1.68,1.31-1.88,2.99-.46,3.58-1.49,2.75-4.76-.63,.3-1.32,.47-1.79,.88-1.28,1.12-2.48,.2-3.51-.23-.39-.16-.28-1.57-.25-2.4,.04-1.02,.28-2.03,.36-3.05,.48-6-2.49-11.16-7.72-13.68-1.23-.59-2.01-.39-3.08,.37-4.34,3.08-6.43,7.27-7.37,12.19-.23,1.21-1.01,2.5-1.93,3.39-1.88,1.82-4.03,3.4-6.32,5.29,1.26,3.56,2.14,7.52,4.04,10.98,1.88,3.42,5,6.1,9.59,6.1,1.93,0,3.76,.12,5.68,.42,1.57,.25,3.41-1.65,5.26-2.18,3.1-.89,6.3-1.45,9.16-2.08h-.01Zm-43.47,41.9c-.52-.13-.89-.27-1.27-.3-5.4-.46-10.81-.82-16.19-1.4-2.01-.22-3.99-.89-5.93-1.51-1.4-.44-2.69-1.53-4.08-1.64-3.69-.28-7.41-.18-11.1-.23-.82,2.34-1.71,4.92-2.65,7.6,1.11,.4,2.22,.84,3.36,1.2,5.71,1.82,11.54,3.39,17.12,5.52,3.59,1.38,7,.89,10.53,.51,.31-.03,.66-.21,.87-.43,3.08-3.05,6.14-6.12,9.35-9.32h-.01Zm-26.86-8.66c.18-3.2,.07-6,.57-8.69,.39-2.1-.24-3.57-1.77-4.81-4.56-3.66-9.96-5-15.73-4.1-4.58,.71-5.7,3.11-3.42,6.95,1.75,2.94,3.87,5.73,6.21,8.28,1.04,1.13,2.96,1.91,4.58,2.11,3.05,.37,6.18,.2,9.56,.26h0Zm-15.45,1.51c-2.48-.51-4.96-.97-7.42-1.54-3.7-.86-7.35-1.93-11.07-2.66-3.79-.73-6.69,1.78-5.59,4.66,.38,1,1.08,1.92,1.8,2.76,3.04,3.58,7.06,5.7,11.63,7.09,4.2,1.28,7.26-.13,8.52-4.11,.66-2.08,1.42-4.13,2.14-6.22v.02Zm54.53,55.88c3.86,8.2,7.47,15.85,11.1,23.57,3.79-2.96,6.51-6.19,5.92-10.93-.26-2.07-.08-4.38-2.39-5.67-1.25-.7-2.62-1.21-3.9-1.87-1.63-.85-3.18-1.83-4.84-2.62-1.75-.84-3.58-1.51-5.9-2.48h.01Zm-39.22-36.38c-1.34,4.91-2.62,9.58-3.96,14.49,6.74-2,13.02-3.86,19.14-5.68,.25-2.24,.49-4.31,.78-6.87-5.79,1.9-11.02,.12-15.96-1.95h0Zm-8.06,12.36c.17-.1,.35-.19,.52-.29,1.24-4.54,2.48-9.07,3.73-13.64-3.41-1.5-6.84-2.78-10.02-4.48-2.54-1.36-4.53-.64-6.71,.58,4.19,5.98,8.34,11.91,12.48,17.83h0Zm.81,16.88c-1.18-4.53-2.35-9-3.52-13.46l-.42,.17c-1.01,5.05-2.02,10.1-3.07,15.31,2.35-.68,4.59-1.32,7-2.01h.01Z"/><path class="cls-1" d="M3462.9,418.47c-4.47-2.65-10.04-2.73-15.52-3.09-14.03-.9-27.78,.45-41.28,4.37-5.17,1.5-10.59,2.77-15.95,3.03-7.44,.35-14.24-1.91-19.17-7.69-.74-.87-1.29-1.87-1.69-2.45,.92-.86,2.31-1.58,2.65-2.6,.69-2.12,1.09-4.5-.44-6.46-.47-.61-1.88-.75-2.86-.75-.81,0-1.61,.53-2.59,.88,.79-7.95,.74-15.54-7.97-20.1,3.11-4.31,6.64-7.99,12.2-9.36,3.4-.84,6.74-2.03,10.19-2.56,4.58-.71,9.23-1.03,13.87-1.34,6.67-.45,13.4-.45,20.03-1.2,4.47-.5,8.82-1.97,13.22-3,.81,2.83,2.58,4.02,6.61,4.2,6.49,.3,12.64-1.09,18.52-3.63,.99-.43,1.97-.93,3.02-1.16,.8-.18,1.76-.15,2.54,.09,2.31,.72,4.54,1.64,6.84,2.41,4.96,1.66,10.08,2.58,15.32,2.97,.75,.06,1.88,.62,2.07,1.17,.23,.69-.11,1.8-.63,2.4-.85,.98-1.97,1.79-3.11,2.48-4.55,2.77-5.64,6.97-5.62,11.7,.02,3.36,1.01,6.45,2.48,9.47,3.27,6.68,2.92,7.85-3.17,12.56-3.13,2.42-6.17,4.94-9.56,7.67h0Zm10.41-43.54c-.08-.2-.16-.41-.24-.61-1.58-.1-3.45-.79-4.69-.22-8.37,3.83-17.33,5.39-26.41,6.18-10.55,.92-21.15,1.43-31.74,1.81-8.66,.31-16.56,2.54-23.93,6.8-4.52,2.62-7.91,6.01-9.66,10.78-.42,1.13-.94,2.29,.57,3.24,2.47-5.41,7.1-8.75,12.1-11.61,6.87-3.94,14.59-4.63,22.42-4.7,11.96-.11,23.93-.27,35.8-1.91,6.23-.86,12.32-2.12,17.87-5.05,2.71-1.43,5.28-3.12,7.91-4.69v-.02Zm-95.17,38.53v.54c.23,.11,.44,.26,.68,.32,.65,.18,1.31,.41,1.98,.48,5.72,.58,11.38,.42,16.91-1.29,1.81-.56,3.6-1.2,5.44-1.65,16.76-4.09,33.79-5,50.99-3.82,2.63,.18,5.27,.34,7.91,.39,.55,.01,1.12-.5,1.68-.76-.44-.4-.81-.94-1.33-1.17-5.92-2.6-12.27-3.39-18.68-3.48-16.73-.26-33.06,2.02-48.87,7.36-1.84,.62-3.79,1.01-5.72,1.35-3.65,.64-7.32,1.16-10.99,1.73h0Zm88.71-23.51c-1.12-.1-1.93-.34-2.68-.22-2.07,.33-4.08,1-6.16,1.21-9.99,.98-19.97,1.95-30.05,1.18-8.8-.67-17.65-1.35-26.26,1.3-7.99,2.46-15.18,6.03-19.33,13.44-.35,.63-.19,1.51-.27,2.27,.85-.22,1.75-.35,2.52-.71,.43-.2,.6-.84,.97-1.2,1.65-1.61,3.13-3.44,5.02-4.75,8.04-5.6,17.25-7.85,27.1-7.27,9.15,.54,18.27,1.49,27.45,.44,5.04-.57,10.13-.85,15.13-1.62,2.49-.38,4.78-1.64,6.54-4.07h.02Zm-24.04-14.25c-.82,.01-1.65-.03-2.46,.04-6.94,.65-13.82,.2-20.72-.74-3.73-.51-7.57-.92-11.3-.61-10.1,.84-19.57,4-28.38,8.58-3.98,2.07-7.34,5.22-10.83,8.05-.54,.44-.26,1.79-.36,2.72,.8-.19,1.83-.15,2.38-.62,10.02-8.56,22.14-12.54,35.15-14.69,6.86-1.14,13.69-.32,20.54-.15,5.45,.13,10.76-.84,15.97-2.57h0Zm-76.06,11.36c1.98-1.42,3.75-2.83,5.68-4.03,5.09-3.18,9.96-6.79,16.09-8.16,.4-.09,.67-.67,1-1.02-.4-.3-.78-.79-1.22-.85-.85-.12-1.77-.11-2.62,.05-8.45,1.64-14.62,6.68-20.46,12.3,.55,.62,1.03,1.15,1.52,1.7h0Z"/><path class="cls-6" d="M3358.35,514.72c-5.71-2.43-10.9-4.64-16.1-6.85-.31-.13-.62-.35-.94-.36-2.91-.08-3.89-2.03-4.81-4.2-1.94-4.53-3.94-9.04-6.06-13.5-.97-2.03-2.17-3.98-3.44-5.86-1.13-1.68-3.01-1.5-5.32-1.25,1.86-2.62,3.55-4.95,5.19-7.31,2.53-3.64,5-7.32,7.58-10.94,.32-.45,1.13-.88,1.69-.86,3.59,.15,7.18,.5,10.77,.62,1.3,.04,2.77-.12,3.91-.66,6.21-2.92,12.33-6.03,18.53-8.97,2.12-1,4.42-1.65,6.61-2.5,.62-.24,1.33-.53,1.72-1,.39-.48,.73-1.33,.52-1.79-.17-.38-1.26-.73-1.78-.58-1.55,.44-3.02,1.13-4.87,1.87,1.42-2.19,2.72-4.07,3.85-6.04,.32-.56,.13-1.38,.17-2.08-.7,.23-1.6,.27-2.06,.71-1.27,1.24-2.47,2.57-3.49,4-1.63,2.3-3.67,3.97-6.31,5.26-4.04,1.98-7.8,4.47-11.85,6.43-1.67,.8-3.82,1.15-5.71,1.04-12.18-.67-24.35-1.52-36.53-2.33-.99-.07-1.98-.29-3.06-.46,.37-4.97,.73-9.75,1.11-14.85,9.36,.59,18.73,1.18,28.47,1.79-1.25,1.81-2.21,3.11-3.06,4.47-.27,.43-.24,1.02-.35,1.53,.6-.06,1.33,.07,1.78-.21,1.53-.94,2.97-2.02,4.7-3.22,.74,1.45,1.45,2.86,2.18,4.26,.48,.92,.89,1.9,1.54,2.71,.33,.41,1.11,.51,1.69,.74,.22-.54,.73-1.13,.63-1.6-.43-2.07-1.05-4.11-1.68-6.49,1.14,.73,2.03,1.48,3.06,1.9,1.01,.41,2.18,.48,3.28,.69-.31-.98-.39-2.12-.99-2.9-1.26-1.65-2.8-3.1-4.5-4.94,4.24-2.95,8.53-5.87,12.72-8.9,1.37-.99,2.5-2.3,3.76-3.44,.42-.38,.86-.84,1.38-1.01,5.26-1.79,10.75-2.15,16.28-2.17,.51,0,1.29,.77,1.5,1.34,2.97,7.7,3.13,15.68,2.86,23.78-.22,6.38-3.25,11.69-5.81,17.28-3.1,6.77-5.95,13.65-8.84,20.5-2.72,6.44-5.42,12.88-7.98,19.38-.87,2.21-1.29,4.57-1.96,7.01l.02-.04Z"/><path class="cls-2" d="M3198.34,588.07c-1.57-1.72-3.74-3.38-4.88-5.53-1.62-3.06-2.94-6.25-2.87-9.96,.05-2.82,.7-5.18,2.25-7.44,.24-.35,.58-.74,.97-.9,2.27-.9,4.57-1.75,6.86-2.6,1.05-.39,2.15-.7,3.17-1.15,5.9-2.63,11.78-5.3,17.67-7.96,.37-.17,.71-.38,1.07-.57,4.18-2.1,8.31-4.29,12.55-6.29,6.38-3.01,12.82-5.91,19.25-8.84,6.54-2.98,13.1-5.93,19.64-8.91,3.76-1.71,7.51-3.46,11.28-5.15,3.53-1.58,7.11-3.06,10.61-4.69,1.49-.69,1.96,.3,2.22,1.14,.76,2.42,1.39,4.88,1.94,7.36,1.03,4.63,2.08,9.26,2.91,13.92,.4,2.21,.4,4.5,.4,6.75,0,.53-.61,1.37-1.14,1.54-5.7,1.84-11.46,3.53-17.17,5.34-3.25,1.03-6.47,2.16-9.68,3.3-5.44,1.93-10.87,3.89-16.29,5.88-4.69,1.73-9.37,3.49-14.04,5.28-5.07,1.95-10.13,3.93-15.19,5.92-5.32,2.1-10.62,4.24-15.94,6.33-3.63,1.43-7.32,2.74-10.91,4.27-1.45,.62-2.69,1.67-4.67,2.94v.02Z"/><path class="cls-1" d="M3371.86,421c-2.86,.63-6.06,1.19-9.16,2.08-1.85,.53-3.69,2.43-5.26,2.18-1.92-.31-3.75-.42-5.68-.42-4.58,0-7.71-2.67-9.59-6.1-1.9-3.46-2.78-7.43-4.04-10.98,2.3-1.89,4.44-3.47,6.32-5.29,.92-.89,1.7-2.18,1.93-3.39,.94-4.92,3.03-9.11,7.37-12.19,1.07-.76,1.85-.96,3.08-.37,5.23,2.52,8.2,7.68,7.72,13.68-.08,1.02-.32,2.03-.36,3.05-.03,.83-.14,2.23,.25,2.4,1.02,.43,2.23,1.35,3.51,.23,.47-.41,1.17-.59,1.79-.88,.83,3.26,.24,4.3-2.75,4.76-1.25,.19-1.68,.84-1.31,1.88,.44,1.24,.89,2.53,1.64,3.6,1.43,2.04,3.08,3.94,4.53,5.77h.01Zm-17.11-20.38c-.07-.17-.14-.34-.21-.51-.86-.75-1.66-1.58-2.6-2.22-.54-.36-1.32-.51-1.99-.52-.29,0-.9,.66-.84,.9,.16,.63,.49,1.59,.96,1.71,1.51,.39,3.11,.45,4.68,.64h0Z"/><path class="cls-6" d="M3328.39,462.89c-3.21,3.2-6.27,6.27-9.35,9.32-.22,.21-.57,.4-.87,.43-3.53,.38-6.94,.87-10.53-.51-5.58-2.14-11.4-3.7-17.12-5.52-1.14-.36-2.24-.8-3.36-1.2,.93-2.68,1.83-5.25,2.65-7.6,3.69,.05,7.41-.05,11.1,.23,1.4,.11,2.68,1.19,4.08,1.64,1.94,.62,3.92,1.29,5.93,1.51,5.38,.59,10.8,.94,16.19,1.4,.38,.03,.75,.18,1.27,.3h.01Z"/><path class="cls-1" d="M3301.53,454.23c-3.38-.06-6.51,.11-9.56-.26-1.62-.2-3.54-.98-4.58-2.11-2.34-2.55-4.47-5.34-6.21-8.28-2.28-3.83-1.16-6.24,3.42-6.95,5.77-.89,11.18,.44,15.73,4.1,1.53,1.23,2.17,2.7,1.77,4.81-.51,2.69-.39,5.49-.57,8.69h0Z"/><path class="cls-1" d="M3286.08,455.75c-.72,2.08-1.48,4.14-2.14,6.22-1.25,3.97-4.32,5.39-8.52,4.11-4.57-1.39-8.59-3.51-11.63-7.09-.71-.84-1.41-1.76-1.8-2.76-1.11-2.88,1.8-5.39,5.59-4.66,3.73,.72,7.37,1.8,11.07,2.66,2.46,.57,4.94,1.03,7.42,1.54v-.02Z"/><path class="cls-2" d="M3340.62,511.63c2.31,.96,4.15,1.64,5.9,2.48,1.66,.79,3.21,1.78,4.84,2.62,1.28,.66,2.65,1.17,3.9,1.87,2.31,1.29,2.13,3.6,2.39,5.67,.59,4.74-2.13,7.97-5.92,10.93-3.63-7.71-7.24-15.36-11.1-23.57h-.01Z"/><path class="cls-9" d="M3473.31,374.94c-2.63,1.57-5.19,3.26-7.91,4.69-5.55,2.93-11.64,4.19-17.87,5.05-11.88,1.65-23.84,1.8-35.8,1.91-7.83,.07-15.55,.76-22.42,4.7-4.99,2.87-9.63,6.2-12.1,11.61-1.51-.95-.99-2.1-.57-3.24,1.75-4.77,5.14-8.16,9.66-10.78,7.37-4.26,15.27-6.49,23.93-6.8,10.59-.38,21.19-.88,31.74-1.81,9.08-.79,18.05-2.35,26.41-6.18,1.23-.57,3.11,.12,4.69,.22,.08,.2,.16,.41,.24,.61v.02Z"/><path class="cls-9" d="M3378.14,413.47c3.66-.57,7.34-1.09,10.99-1.73,1.93-.34,3.88-.73,5.72-1.35,15.81-5.35,32.14-7.62,48.87-7.36,6.41,.1,12.76,.89,18.68,3.48,.52,.23,.89,.77,1.33,1.17-.56,.27-1.12,.78-1.68,.76-2.64-.05-5.28-.21-7.91-.39-17.2-1.18-34.23-.27-50.99,3.82-1.84,.45-3.63,1.09-5.44,1.65-5.53,1.71-11.19,1.87-16.91,1.29-.67-.07-1.32-.29-1.98-.48-.24-.07-.46-.21-.68-.32v-.54h0Z"/><path class="cls-9" d="M3466.85,389.96c-1.76,2.43-4.06,3.68-6.54,4.07-5,.77-10.09,1.04-15.13,1.62-9.18,1.05-18.3,.09-27.45-.44-9.85-.58-19.05,1.67-27.1,7.27-1.88,1.31-3.37,3.14-5.02,4.75-.37,.36-.55,1-.97,1.2-.78,.36-1.67,.49-2.52,.71,.08-.76-.08-1.64,.27-2.27,4.15-7.41,11.34-10.98,19.33-13.44,8.61-2.65,17.46-1.97,26.26-1.3,10.08,.77,20.06-.2,30.05-1.18,2.07-.2,4.09-.87,6.16-1.21,.74-.12,1.55,.11,2.68,.22h-.02Z"/><path class="cls-9" d="M3442.82,375.71c-5.21,1.73-10.52,2.7-15.97,2.57-6.85-.17-13.68-.98-20.54,.15-13.01,2.16-25.13,6.14-35.15,14.69-.54,.47-1.57,.42-2.38,.62,.1-.93-.18-2.28,.36-2.72,3.49-2.83,6.86-5.98,10.83-8.05,8.81-4.58,18.28-7.74,28.38-8.58,3.72-.31,7.57,.1,11.3,.61,6.89,.94,13.77,1.39,20.72,.74,.81-.08,1.64-.03,2.46-.04h0Z"/><path class="cls-9" d="M3366.76,387.08c-.5-.55-.97-1.08-1.52-1.7,5.84-5.62,12.01-10.66,20.46-12.3,.85-.16,1.76-.17,2.62-.05,.44,.06,.81,.55,1.22,.85-.33,.35-.61,.93-1,1.02-6.14,1.37-11,4.97-16.09,8.16-1.92,1.2-3.7,2.62-5.68,4.03h0Z"/><path class="cls-9" d="M3354.75,400.63c-1.57-.19-3.17-.26-4.68-.64-.47-.12-.8-1.08-.96-1.71-.06-.24,.54-.91,.84-.9,.67,0,1.45,.16,1.99,.52,.95,.64,1.74,1.47,2.6,2.22,.07,.17,.14,.34,.21,.51h0Z"/></g><path class="cls-1" d="M2758.12,906.99c.42,3.07,.25,6.15-.8,9.15-.53,1.52-1.51,2.58-3.17,3.21-2.79,1.05-5.57,1.28-8.49,.59-2.18-.52-3.81-2.47-3.22-4.51,.82-2.84,1.88-5.61,2.95-8.38,.14-.37,.92-.78,1.38-.76,3.74,.18,7.47,.45,11.34,.7h0Z"/><g><path class="cls-9" d="M2675.97,743.54c.8,.4,1.99,.79,2.88,1.5,.9,.72,2.14,1.8,2.07,2.64-.08,.99-1.21,2.22-2.24,2.74-1.26,.64-2.24,1.16-2.86,2.5-.8,1.72-2.37,1.92-5.33,1.16-2.18,1.78-2.66,3.03-1.29,5.66,1.55,2.98,1.54,6.13,1.79,9.27,.15,1.91-.59,3.55-1.95,5.04-2.9,3.19-6.71,4.83-10.89,5.92-1.04,.27-2.07,.6-3.09,.93-2.25,.75-2.69,1.38-2.09,3.54,.93,3.37,1.94,6.72,2.99,10.06,.72,2.3,1.56,2.5,3.58,.9,1.5-1.19,2.8-2.64,4.42-3.63,3.04-1.85,6.18-3.57,9.43-5.08,1.75-.82,3.39,.28,4.85,1.23,4.39,2.85,8.66,5.89,13.2,8.5,3.19,1.83,6.87,2.89,10.11,4.65,5.26,2.84,10.89,4.8,16.55,6.77,5.65,1.97,11.13,4.37,16.65,6.66,1.08,.45,1.8,.42,2.69-.35,5.15-4.45,9.16-9.67,12.14-15.6,3.43-6.84,6.89-13.66,10.33-20.49,.59-1.16,1.13-2.19-.36-3.31-.54-.4-.63-1.66-.49-2.46,.45-2.62,1.1-5.2,1.74-8.09-2.88-1.14-5.86-2.5-8.97-3.49-7.04-2.25-11.5-7.04-14.65-12.99-1.47-2.78-1.32-5.89-.35-9.01-1.15-.76-2.31-1.64-3.58-2.35-1.71-.95-2.48-2.25-2.28-4.1,.44-4.03,.9-8.06,1.24-12.1,.08-.95-.03-2.07-.51-2.87-1.31-2.21-2.75-4.37-4.36-6.39-3.05-3.83-4.3-8.01-4.15-12.81,.18-5.56-.21-11.13-.31-16.7-.03-1.44,.1-2.88,.15-4.33-3.55,.7-4.49,.27-6.05-2.82-.43-.86-.81-1.75-1.13-2.65-.65-1.85-.43-3.45,.91-5.15,6.79-8.65,13.15-17.6,20.19-26.06,8.56-10.28,19.03-18.18,33.29-20.69,8.6-1.52,16.38,.24,23.72,4.43,2.08,1.18,4.24,2.31,6.52,3.08,6.07,2.06,10.19,6.35,13.77,10.93,5.12,6.54,9.36,13.64,12.5,21.26,2.19,5.32,3.14,10.87,3.76,16.51,1.15,10.48-1.1,20.52-3.9,30.58-1.91,6.84-2.94,13.9-4.36,20.86-.05,.22,.02,.46,.05,.86,2.55-1.49,4.93-2.91,7.34-4.27,2.51-1.41,3.49-.95,4.23,1.68,2.23,7.97,4.5,15.93,6.8,23.88,.14,.5,.49,1.1,.93,1.35,6.19,3.53,11.49,8.06,16.64,12.76,2.09,1.9,4.61,3.48,6.32,5.63,4.71,5.89,10.54,10.78,15.8,16.18,3.48,3.57,4.93,7.82,5.02,12.51,.39,20.28,.69,40.56,1.07,60.84,.16,8.87,.3,17.75,.69,26.61,.23,5.32,1.31,10.62,1.32,15.93,0,7.84-.61,15.68-.95,23.53-.13,3.1-.23,6.2-.35,9.55-2.51,.64-5.11,1.31-7.71,1.95-8.46,2.09-16.92,4.2-25.4,6.25-2.87,.69-5.71,.32-8.64-.06-5.08-.65-10.24-.78-15.38-.99-4.47-.18-9,.21-13.39-.38-3.97-.53-7.9-1.8-11.63-3.23-2.94-1.13-5.66-1.46-8.66-.61-9.93,2.82-19.88,5.6-29.82,8.39-.78,.22-1.55,.46-2.34,.64-4.95,1.19-7.36-1.73-6.76-6.06,1.87-13.32,4.02-26.6,6.01-39.91,.66-4.39,1.15-8.79,1.74-13.35-10.82-2.32-21.48-4.6-32.31-6.91-.02,1.88-.99,2.09-2.45,1.76-1.7-.38-3.45-.59-5.17-.93-1.79-.35-2.52,.19-2.35,1.92,.15,1.51,.33,3.03,.63,4.53,2.47,12.29,4.81,24.61,7.54,36.84,1.42,6.37,3.36,12.66,5.51,18.85,.58,1.68,2.73,2.93,4.26,4.28,3.77,3.35,7.76,6.51,11.32,10.05,1.71,1.7,2.87,4,3.84,6.19,1.21,2.75-1.28,5.56-4.48,5.74-5.76,.33-10.59-1.82-15.19-4.65-6.81-4.19-13.83-7.96-21.55-10.59-4.02-1.37-4.94-3.41-3.42-6.41,.18-.35,.26-.9,.1-1.23-4.94-9.81-7.95-20.2-10.5-30.72-1.41-5.82-2.96-11.61-4.37-17.43-.35-1.43-1.09-1.86-2.65-1.85-3.85,.04-7.7-.05-11.55-.25-1.43-.08-2.48,.2-3.41,1.2-3.72,3.99-8.73,4.87-14.02,4.85-3.77-.02-6.05-2.2-7.64-5.06-6.43,.21-12.78,.42-19.14,.62-.52,2-.91,4.33-1.72,6.52-2.37,6.37-11.08,8.53-16.24,8.22-4.5-.28-8.05-1.79-10-5.72-.7-1.41-.95-3-1.35-4.33-12.26-.3-24.53-.6-36.98-.9,.11-5.07,.22-9.81,.33-14.81,6.2,.01,12.33,.02,18.41,.04-.86-7.45-.29-14.63,1.73-21.73,4.76-16.66,9.34-33.37,14.28-49.98,1.9-6.4,4.46-12.65,6.98-18.87,.97-2.4,2.55-4.62,4.12-6.75,1.06-1.43-.12-2.28-.65-3.17-.24-.4-1.7-.51-2.43-.26-3.18,1.07-6.26,2.39-9.43,3.47-3.21,1.1-5-.26-4.77-3.42,.04-.6-.24-1.21-.38-1.82-.2,.01-.41,.02-.61,.04-.17,.32-.34,.64-.53,.95-1.28,2.07-2.89,2.18-4.43,.31-1.16-1.41-1.76-2.95-1.48-4.78,.15-.99,.08-2.01-.31-2.7-.82-.76-2.18-1.43-2.33-2.29-.3-1.68,.98-2.78,2.82-3.15-1.48-1.94-3.13-2.21-5.55-1.07-1.08,.51-2.16,1.1-3.31,1.35-2.8,.6-4.58-1.02-3.93-3.64,.35-1.4-.17-1.74-1.45-2.03-4.32-.96-6.29-4.67-4.28-8.12,.4-.68,1.42-1.02,2.08-1.6,.56-.49,1.02-1.08,1.53-1.63-.54-.31-1.05-.71-1.64-.93-1.74-.65-2.27-1.96-2.12-3.51,.16-1.74,1.86-3.24,3.65-3.29,.93-.03,1.88,.31,2.81,.26,.91-.05,1.8-.38,2.7-.59-.32-.81-.53-1.67-.98-2.41-.4-.64-1.14-1.09-1.6-1.7-.9-1.2-1.88-2.08-3.52-2.57-3.16-.94-3.5-3.24-1.1-5.72-1.98-3.3-1.54-4.1,2.1-5.91,1.43-.71,3.04-1.78,2.85-3.91-.17-1.93,.98-2.66,3.28-2.44,.06,.11,.15,.22,.18,.33,.31,1.21,.34,2.78,2.32,2.46,2.07-.34,1.76-1.98,1.64-3.34-.06-.66-.35-1.38-.76-1.93-1.36-1.82-1.38-3.74-.37-5.58,1.26-2.31,2.71-4.53,4.2-6.72,2.43-3.59,6.05-4.64,10.34-3.88,.74,.13,1.49,.76,2,1.34,.81,.92,1.81,1.48,2.74,.65,.6-.54,.8-1.71,.78-2.59-.03-1.49-.57-2.98-.55-4.46,.03-1.96,2.04-3.08,4.37-2.22,2.01,.75,3.72,.35,5.66-.02,2.23-.43,4.57-.55,6.85-.45,2.84,.13,4.09,1.78,4.01,4.42-.02,.65,.44,1.31,1.11,1.81,.4-1.63,.68-3.29,1.21-4.87,.97-2.91,6.11-4.59,8.81-2.85,.53,.34,.57,1.35,1,2.48,2.06-1.42,4.56-3.24,7.01-1.38,1.92,1.46,3.16,3.7,4.81,5.72,.14-.13,.41-.56,.77-.66,1.3-.37,2.79-1.12,3.9-.8,1.41,.41,3.18,1.07,3.34,3.05,.12,1.5,.42,2.99,.69,4.78,2.46-1.56,4.89-3.13,7.96-1.61,2.32,1.15,3.48,3.73,2.99,6.91,4.03,.73,5.24,1.55,5.43,3.66,.18,2.1-.86,3.15-4.32,4.29-.01,1.59,.05,2.9,2.45,3.05,2.18,.14,3.63,1.66,4.62,3.4,1.11,1.97,.33,3.92-2,5.34-.88,.53-1.8,1-3.19,1.76,2.12,.85,4.02,1.7,3.5,3.74-.39,1.53-1.43,2.92-2.25,4.5v-.02Zm118.47,115.15c-.52,1.86-.98,3.51-1.44,5.15-.43,1.53-.71,3.13-1.38,4.57-.33,.7-1.42,1.55-2.12,1.52-.62-.03-1.58-1.13-1.69-1.86-.45-2.88-.73-5.79-.87-8.69-.07-1.51-.61-2.19-2.25-2.13-4.46,.18-8.93,.23-13.39,.49-15.93,.92-31.95,.52-47.92,2.83,.07,.43,.06,.83,.21,1.15,1.54,3.45,3.17,6.86,4.65,10.33,1.05,2.48,2.65,3.63,5.69,4.05,9.56,1.32,19,3.35,28.56,4.68,17.72,2.46,35.38,5.16,52.76,9.24,1.98,.46,3.28-.08,4.21-1.71,1.41-2.46,2.93-4.87,4.27-7.36,4.87-9,9.6-18.07,14.55-27.03,2.26-4.1,4.91-8.01,7.37-11.97,3.01,1.12,3.14,1.47,1.61,3.95-2.14,3.47-4.34,6.9-6.43,10.39-7.06,11.79-14.41,23.43-19.78,36.24-16.54-1.37-33.22-2.75-50.01-4.14-2.19,17.09-4.4,34.38-6.6,51.57-.07,.01,.33-.03,.71-.14,11.87-3.41,23.74-6.79,35.58-10.28,3.33-.98,6.07-.44,8.62,1.77,1.17,1.02,2.56,2.23,4.02,2.47,3.92,.65,7.94,1.2,11.9,1.09,6.71-.18,13.35-.63,20.09,.21,3.47,.43,7.3,.14,10.65-.8,8.74-2.47,17.31-5.48,26.18-8.36-.4-1.81-1.1-3.77-1.22-5.76-.6-9.94-1.2-19.88-1.52-29.82-.63-19.78-1.09-39.57-1.61-59.36-.28-10.52-.73-21.05-.73-31.57,0-3.69-.98-6.74-3.54-9.37-5.43-5.58-10.87-11.16-16.43-16.63-3.5-3.45-7.16-6.76-10.85-10.03-1.5-1.33-3.27-2.4-5.14-3.75-1.92,2.1-3.81,3.91-5.4,5.95-4.76,6.1-9.41,12.29-14.09,18.44-.35,.46-.76,.91-.99,1.43-1.05,2.32-1.83,2.74-4.44,2.13-1.12-.26-2.18-.71-3.29-.98-3.32-.79-6.65-1.53-10.06-2.3-1.8,6.13-3.61,11.98-5.21,17.87-1.05,3.87-1.79,7.81-2.69,11.72-.59,2.56-2.9,3.27-5,1.54-.32-.27-.6-.59-1.12-1.11-3.72,11.89-7.52,23.48-9.44,35.71,3.73-.14,7.25-.45,10.76-.34,2.11,.07,3.01-.7,3.72-2.39,3.07-7.39,6.15-14.77,9.41-22.09,4.54-10.18,10.09-19.85,17.77-28.28,2.28-2.5,4.74-5.34,8.59-5.72,4.77-.47,9.49,.08,13.85,2.14,.86,.41,1.52,1.21,2.12,1.7-3.74,.72-7.23,1.5-10.76,2.04-2.66,.41-4.9,1.06-6.88,3.1-6.28,6.47-12,13.35-16.51,20.96-4.96,8.37-9.21,17.1-13.75,25.69-.1,.19-.01,.46-.02,.75,.5-.1,.93-.1,1.28-.26,3.91-1.76,8.1-1.28,12.21-1.27,1.32,0,2.37,.66,2.52,2.04,.14,1.35-.69,2.16-1.97,2.55-.83,.25-1.72,.32-2.59,.45-3.36,.49-6.73,.97-10.67,1.54,2.24,2.34,3.99,4.09,5.64,5.93,1.13,1.25,2.41,2.51,3.05,3.98,.39,.88,.04,2.45-.63,3.21-.51,.58-2.08,.59-3.1,.43-.77-.12-1.47-.86-2.11-1.41-2.25-1.93-4.46-3.89-6.93-6.05l.02-.04Zm-66.17-152.14c.71,1.01,1.49,2.04,2.16,3.12,1.86,3,3.75,6,5.46,9.08,.41,.74,.35,1.81,.24,2.69-.4,2.95-1.04,5.87-1.33,8.83-.09,.94,.36,2.14,1,2.9,1.6,1.88,3.87,2.12,6.28,1.65,2.97-.58,5.93-1.37,8.94-1.66,6.16-.59,11.92-1.85,16.29-6.35,.5-.51,1.09-.96,1.68-1.38,7.36-5.33,12-12.56,15.63-20.35,1.41-3.03,1.88-6.45,2.7-9.71,.13-.5,.02-1.2-.28-1.61-1.22-1.67-2.48-3.33-3.88-4.86-8.93-9.72-17.92-19.38-26.83-29.12-1.24-1.36-2.58-1.75-4.29-1.29-6.3,1.68-12.35,3.84-17.26,8.11-2.34,2.03-4.74,4-6.94,6.15-.8,.78-1.54,2.03-1.53,3.06,.03,7.46,.27,14.92,.44,22.54,.61-.16,1.27-.28,1.87-.5,2.83-1.06,5.65-2.14,8.46-3.25,2.71-1.07,3.2-.89,4.33,1.79-4.18,3.51-9.59,5.64-13.14,10.16h0Zm-91.82,79.41c-1.6,1.39-2.88,2.58-4.25,3.66-1.96,1.56-4.2,2.13-6.77,1.59-1.81-.38-3.71-.56-4.82,1.33-.87,1.48-1.79,2.96-2.4,4.53-1.78,4.56-3.53,9.13-5.08,13.75-1.62,4.84-3.06,9.74-4.44,14.65-1.03,3.66-1.74,7.41-2.78,11.06-1.15,4.04-2.68,7.98-3.77,12.03-1.45,5.41-2.65,10.87-3.93,16.32-.6,2.53-1.27,5.06-1.66,7.62-.49,3.18-.71,6.39-1.08,9.59-.21,1.86,1.35,4.31,2.9,4.4,3.28,.18,6.55,.33,9.83,.43,1.24,.04,2.06-.46,1.99-1.83s-.04-2.75-.02-4.13c.05-3.4,.02-6.8,.21-10.19,.18-3.14,.55-6.28,.94-9.4,.3-2.46,.82-4.91,1.13-7.37,.38-3.11,.54-6.25,.99-9.35,.43-2.95,1.1-5.87,1.67-8.8,.83-4.26,1.44-8.58,2.53-12.78,1.35-5.2,2.97-10.34,4.74-15.43,.88-2.53,2.01-5.11,3.68-7.21,1.05-1.32,3.4-2.64,5.01-2.48,5.55,.53,9.44,3.82,12.36,8.1,.92,1.35,1.68,2.82,2.37,4.29,.84,1.77,1.98,3.56,2.19,5.41,.53,4.8,.77,9.65,.81,14.48,.03,3.23-.22,6.5-.78,9.68-.72,4.16-1.8,8.27-2.84,12.37-1.77,6.97-4.17,13.76-7.27,20.32-.73,1.55-.93,3.12-.31,4.74,.46,1.19,1.66,1.62,2.51,.88,1.26-1.1,2.47-2.24,3.72-3.35,4.85-4.28,9.65-8.62,14.6-12.81,2.46-2.08,5.2-3.87,7.83-5.78,1.82-1.32,2.07-2.43,1.19-4.4-.57-1.27-1.07-2.6-1.38-3.95-1.59-6.95-3.18-13.91-4.63-20.89-1.11-5.34-2.76-10.49-5-15.51-.79-1.76-1.55-1.7-2.74-.66-1.43,1.25-3,.62-4.01-.14-2.98-2.23-3.7-5.81-2.24-9.23,.52-1.21,2.09-1.72,3.25-1.04,.5,.29,.96,.64,1.43,.96,.23-.05,.45-.1,.68-.15-.59-4.72-.33-9.52-2.11-14.45-5.06,2.89-9.9,3.05-14.25-.89v.03Zm-5.16,99.14c.83-4.47,1.46-8.38,2.31-12.26,.89-4.06,2.01-8.07,3.02-12.11,1.64-6.58,3.4-13.14,4.83-19.76,.79-3.66,1.06-7.43,1.45-11.16,.15-1.47,.02-2.96,.01-4.44,0-2.29,.35-4.65-.1-6.86-.69-3.38-1.79-6.71-2.99-9.97-1.23-3.31-3.24-5.96-7.56-6.15-2.63-.11-5.72,1.07-6.23,2.93-.76,2.8-1.08,5.71-1.6,8.57-.66,3.67-.85,7.49-2.12,10.97-1.71,4.69-2.39,9.49-3.14,14.31-.75,4.8-1.21,9.64-1.91,14.45-.61,4.16-1.49,8.28-2.06,12.44-.63,4.63-1.15,9.28-1.48,13.93-.12,1.71,.1,3.63,.86,5.14,.36,.72,2.35,.79,3.63,1,.84,.13,1.74,.04,2.6-.05,1.14-.12,2.26-.4,3.41-.49,2.39-.2,4.78-.33,7.07-.48h0Zm197.61-154.21c-.22-.03-.43-.07-.65-.1-1.39,1.78-2.79,3.55-4.16,5.33-3.09,4.01-6.02,8.14-9.3,12.01-6.15,7.26-12.38,14.46-18.81,21.5-5.4,5.92-10.83,11.86-18.18,15.85-.74,.4-1.39,.96-2.17,1.51,5.28,7.03,10.47,13.93,15.68,20.86,1.04-4.35,1.92-8.69,3.13-12.95,1.51-5.31,3.26-10.56,4.95-15.82,.37-1.15,.98-1.8,2.55-1.18,1.4,.55,3.07,.48,4.52,.97,4.86,1.63,7.89-.35,10.62-3.99,5.67-7.59,11.65-14.97,17.44-22.48,.34-.44,.4-1.28,.21-1.81-1.12-3.12-2.55-6.15-3.49-9.31-1.01-3.4-1.58-6.91-2.35-10.38h.01Zm-165.9,89.09c-.14,.04-.28,.07-.41,.11,.07,.65,.1,1.3,.2,1.95,1.41,9.13,4.53,17.86,7.18,26.7,.94,3.14,2.61,5.4,6.11,6.36,3.75,1.03,7.54,2.01,11.13,3.43,2.87,1.14,5.4,1.67,8.03-.31,.56-.42,1.36-.56,2.05-.81,6.21-2.25,12.57-4.01,19.22-4.64,1.64-.16,3.06,.13,3.96,1.68,.24,.41,1.11,.75,1.65,.7,2.08-.17,4.16-.44,6.21-.8,3.73-.67,7.42-1.47,11.15-2.14,1.65-.3,3.34-.42,5.01-.62,.06-.2,.12-.4,.17-.59-8.57-4.48-17.14-8.98-25.74-13.41-.55-.28-1.41-.2-2.09-.09-6.32,1.02-12.43,3.16-19,2.92-6.85-.25-13.74-.77-19.35-4.74-5.76-4.07-11.14-8.66-14.68-14.75-.2-.35-.54-.64-.81-.96h0Zm30.46,65.44c1.24,.07,1.97,.14,2.71,.15,1.71,0,2.83,.41,3.34,2.27,1.01,3.67,2.57,7.21,3.56,10.88,2.88,10.69,5.55,21.43,8.38,32.14,.76,2.88,1.63,5.74,2.68,8.53,1.7,4.51,6.91,6.95,11.77,5.32,1.6-.54,3.02-1.9,4.15-3.17,.43-.48-.08-1.79-.3-2.68-.47-1.91-1.19-3.78-1.52-5.71-1.05-6.07-1.87-12.17-2.96-18.23-1.24-6.88-2.75-13.72-4-20.6-.73-3.99-1.27-8.02-1.72-12.05-.12-1.04-.47-1.39-1.45-1.66-4.14-1.14-8.3-1.76-12.63-1.16-1.38,.19-3.14-.39-4.16,.21-2.65,1.57-4.98,3.61-7.84,5.76h-.01Zm-51.14-107.74c6.32,1.54,12.23,2.03,17.79-1.82,3.87-2.68,7.58-5.28,6.49-10.57-.11-.55,.14-1.16,.03-1.7-.37-1.71-.41-3.66-1.37-5.04-1.61-2.32-1.7-4.66-1.14-7.09,.48-2.09,1.55-4.07,2.01-6.16,.35-1.6,.69-3.48,.12-4.93-1.32-3.34-4.19-5.65-7.63-7.01-3.69-1.46-7.04-.09-10.03,2.01-.53,.37-.97,1.12-1.04,1.73-.25,2.37-1.43,4.05-3.78,4.97-2.54,1-3.45,2.12-3.1,4.71,.27,1.98-.56,3.32-2.31,3.98-1.36,.51-2.99,.75-4.45,.6-4.05-.4-5.61,1.1-5.29,4.8,.25,2.9,2.4,3.95,4.56,5.07,2.63,1.35,3.23,2.37,2.38,5.05-.73,2.3-.45,4.47,.64,6.57,5.86-.85,7.49,.37,6.11,4.82h.01Zm134.46,53.67c.11-.33,.24-.67,.34-1.02,1.94-6.78,3.74-13.6,5.88-20.33,.7-2.21,.51-3.91-1.01-5.6-.44-.48-.83-1-1.2-1.53-3.09-4.46-6.31-8.84-9.22-13.41-1.74-2.74-.72-4.49,2.52-5.42,1.51-.43,2.95-1.07,4.42-1.61-1.55-3.82-5.13-8.28-7.44-9.36-1.35,1.88-1.96,4.43-4.92,4.94-.23,.04-.37,.63-.53,.97-3.53,7.32-5.61,15.22-10.14,22.15-2.75,4.21-5.33,8.52-8.06,12.74-.96,1.49-2.18,2.83-3.25,4.21,10.92,4.45,21.72,8.85,32.61,13.29v-.02Zm-1.38,5.93c-1.9-.85-3.84-1.77-5.81-2.6-9.39-3.98-18.78-7.94-28.19-11.86-.51-.21-1.42-.22-1.81,.08-5.19,3.93-10.31,7.93-15.49,11.93,.1,.07,.3,.23,.53,.35,9.93,4.97,19.86,9.95,29.82,14.87,.86,.43,1.98,.77,2.91,.65,4.9-.63,9.78-1.4,14.66-2.18,.33-.05,.74-.53,.82-.87,.88-3.42,1.7-6.85,2.56-10.36h0Zm-95.13,29.54l-.09-.19c-2.35,.75-4.68,1.58-7.07,2.22-3.61,.96-6.09,3.14-7.96,6.06-.87,1.36-1.83,2.68-2.61,4.08-2.71,4.81-2.99,9.95-1.6,15.07,1.17,4.28,2.08,4.91,7.51,4.22,4.1-.52,6.88-2.7,9.55-5.29,4.78-4.64,9.48-9.34,15.29-12.98,1.6-1,3.29-2.96,3.48-4.62,.26-2.39-.45-5.05-1.42-7.34-1.2-2.83-2.76-3.43-5.98-2.96-3.06,.45-6.07,1.14-9.1,1.73h0Zm105.17-188.37c.68-1.29,1.08-2.33,1.72-3.21,1.23-1.69,4.96-2.4,6.6-1.36,1.65,1.04,2.04,3.42,.75,5.48-.64,1.03-1.59,1.89-2.25,2.92-.42,.66-.94,1.57-.78,2.22,1.34,5.3,2.32,10.76,4.43,15.79,1.68,4.03-.06,7.21-1.6,10.23-3.7,7.26-8.22,14.15-12.16,21.3-5.63,10.2-11.07,20.48-16.53,30.76-1.32,2.49-2.5,5.05-3.52,7.66-.74,1.88,.07,2.79,2.4,3.86,1.78,.82,2.29-.36,2.94-1.37,.98-1.52,1.99-3.03,2.82-4.62,4.93-9.53,9.78-19.1,14.72-28.63,5.89-11.35,11.85-22.68,17.79-34.01,.49-.94,.71-1.69,.05-2.79-2.32-3.86-4.3-7.89-6.63-11.74-1.69-2.8-1.52-4.79,.99-7.34,4.12-4.18,3.76-9.31-.12-13.43-3.24-3.44-10.69-3.16-13.57,.51-1.56,1.99-1.18,3.87,1.96,7.76h0Zm-94.85,121.29c-4.31-2.38-8.56-4.62-12.68-7.04-2.31-1.36-4.53-1.15-6.99-.55-6.43,1.59-10.57,6.18-15.29,10.01-.47,.38-.61,1.1-.91,1.67,.79,.17,1.66,.63,2.35,.45,3.12-.83,6.13-2.01,9.28-2.72,2.38-.53,4.95-.92,7.34-.65,2.64,.3,3.38,2.58,1.48,4.34-1.88,1.74-4.04,3.36-7.04,3.22-2.84-.13-5.68-.19-8.53-.21-.72,0-1.45,.26-2.5,.46,1.41,1.32,2.54,2.38,3.68,3.45,2.18,2.04,4.87,2.74,7.82,2.37,3.49-.44,6.99-.92,10.39-1.71,1.89-.44,4.26-1.13,5.26-2.47,2.43-3.24,4.19-6.93,6.33-10.62h0Zm125.5-60.21c-.13-.16-.26-.32-.39-.47-.66,.38-1.36,.72-1.99,1.15-5.92,4-11.79,8.08-17.76,12.02-6.57,4.35-13.22,8.59-19.85,12.85-1.7,1.09-2,2.22-.83,3.95,2.23,3.28,4.22,6.69,6.15,9.79,11.41-12.94,23.04-26.11,34.66-39.29h.01Zm-115.34,83.43c4.46,2.24,8.75,4.41,13.08,6.52,.41,.2,1.21,.12,1.61-.14,5.13-3.3,10.22-6.66,15.31-10.02,.23-.15,.37-.42,.71-.82-7.7-3.27-15.21-6.46-22.9-9.72-2.63,4.76-5.2,9.43-7.82,14.18h.01Zm18.33,43.56l.47-.16c-.72-2.04-1.4-4.1-2.2-6.11-.19-.46-.79-1.06-1.25-1.1-2.13-.18-4.35-.55-6.39-.17-3.23,.6-6.33,1.82-9.52,2.63-1.15,.29-1.49,.75-1.13,1.71,1.3,3.51,2.55,7.05,4.01,10.5,.27,.64,1.42,1.29,2.22,1.36,4.65,.39,9.32,.66,13.98,.84,2.48,.1,3.25-1.14,2.33-3.31-.87-2.05-1.69-4.13-2.52-6.19h0Zm65.81-113.18c10.78-7.15,21.56-14.3,31.78-21.08-.29-5.39-.55-10.29-.82-15.38-11.37,11.45-22.28,23.07-30.96,36.46h0Zm-85.96,73.04c-1.93,3.08-2.94,3.31-6.38,1.66-2.47-1.19-5.04-2.19-7.51-3.38-1.5-.72-2.96-1.55-4.28-2.53-.48-.35-.77-1.31-.65-1.91,.27-1.4,.84-2.75,1.21-3.87-4.43,.85-8.88,1.71-13.32,2.57-.07,.25-.14,.51-.21,.76,2.45,2.15,4.97,4.22,7.33,6.45,6.58,6.23,14.83,8.9,23.85,9.88,3.95,.43,7.17-1.54,10.33-3.13-3.5-2.19-6.87-4.3-10.36-6.49h0Zm-67.24,64.83c-4.54,.04-8.92,.04-13.3,.16-.54,.01-1.41,.55-1.54,.99-.99,3.29-1.97,6.59-2.66,9.94-.49,2.41,1.58,4.53,4.18,4.94,3.47,.55,6.69,.05,9.85-1.4,1.88-.87,2.92-2.18,3.4-3.98,.95-3.56,.86-7.13,.08-10.65h-.01Zm9.61-7.05c.18,.22,.35,.45,.53,.67,2.8-.29,5.61-.82,8.41-.81,2.62,0,4.2-1.19,5.04-3.14,2.19-5.06,6.02-8.99,9.74-13.02,1.83-1.98,4.16-3.09,6.86-3.77,2.86-.73,5.63-1.77,8.41-2.75,.4-.14,.63-.69,.93-1.05-.42-.25-.82-.63-1.27-.71-1.38-.26-2.78-.53-4.18-.57-1.85-.05-4.09-.48-5.49,.3-10.65,5.92-19.12,14.27-27.63,22.53-.63,.61-.91,1.54-1.35,2.32h0Zm53.31-59.88c2.9-6.24,5.64-12.14,8.32-17.91-2.6-1.5-5.05-2.91-7.78-4.49-3.2,5.49-6.44,11.05-9.63,16.52,3.29,2.13,6.13,3.96,9.09,5.88h0Zm-32.7-18.7c2.96,1.77,8.86-.05,9.98-3.1-3.42,1.06-6.55,2.03-9.98,3.1Z"/><path class="cls-1" d="M2794.45,858.69c2.47,2.16,4.68,4.13,6.93,6.05,.64,.55,1.34,1.29,2.11,1.41,1.02,.16,2.6,.15,3.1-.43,.67-.76,1.02-2.32,.63-3.21-.65-1.47-1.92-2.72-3.05-3.98-1.65-1.83-3.4-3.59-5.64-5.93,3.94-.57,7.31-1.05,10.67-1.54,.87-.13,1.76-.2,2.59-.45,1.28-.38,2.11-1.2,1.97-2.55-.14-1.38-1.2-2.04-2.52-2.04-4.12-.01-8.3-.49-12.21,1.27-.35,.16-.78,.16-1.28,.26,0-.29-.08-.56,.02-.75,4.54-8.58,8.78-17.32,13.75-25.69,4.51-7.6,10.23-14.48,16.51-20.96,1.98-2.04,4.22-2.69,6.88-3.1,3.53-.54,7.01-1.32,10.76-2.04-.6-.5-1.25-1.29-2.12-1.7-4.36-2.06-9.09-2.61-13.85-2.14-3.85,.38-6.31,3.22-8.59,5.72-7.68,8.43-13.23,18.1-17.77,28.28-3.26,7.31-6.34,14.7-9.41,22.09-.7,1.69-1.6,2.46-3.72,2.39-3.51-.11-7.03,.2-10.76,.34,1.91-12.23,5.72-23.81,9.44-35.71,.52,.52,.8,.84,1.12,1.11,2.1,1.74,4.42,1.02,5-1.54,.89-3.91,1.64-7.85,2.69-11.72,1.6-5.89,3.41-11.74,5.21-17.87,3.41,.78,6.74,1.51,10.06,2.3,1.11,.26,2.18,.72,3.29,.98,2.61,.61,3.4,.19,4.44-2.13,.23-.52,.64-.97,.99-1.43,4.69-6.15,9.33-12.34,14.09-18.44,1.59-2.03,3.48-3.85,5.4-5.95,1.86,1.34,3.63,2.41,5.14,3.75,3.69,3.27,7.35,6.58,10.85,10.03,5.56,5.47,11,11.05,16.43,16.63,2.56,2.63,3.54,5.69,3.54,9.37,0,10.52,.45,21.05,.73,31.57,.53,19.79,.98,39.57,1.61,59.36,.32,9.95,.92,19.89,1.52,29.82,.12,1.99,.82,3.95,1.22,5.76-8.87,2.87-17.44,5.89-26.18,8.36-3.35,.95-7.19,1.24-10.65,.8-6.73-.84-13.38-.39-20.09-.21-3.96,.11-7.98-.44-11.9-1.09-1.46-.24-2.85-1.45-4.02-2.47-2.55-2.21-5.29-2.75-8.62-1.77-11.84,3.49-23.72,6.87-35.58,10.28-.38,.11-.78,.15-.71,.14,2.2-17.19,4.41-34.48,6.6-51.57,16.79,1.39,33.47,2.77,50.01,4.14,5.37-12.8,12.72-24.45,19.78-36.24,2.09-3.49,4.29-6.92,6.43-10.39,1.53-2.48,1.4-2.83-1.61-3.95-2.45,3.96-5.1,7.88-7.37,11.97-4.95,8.96-9.69,18.03-14.55,27.03-1.35,2.49-2.87,4.9-4.27,7.36-.93,1.63-2.23,2.17-4.21,1.71-17.39-4.08-35.04-6.78-52.76-9.24-9.56-1.33-19-3.36-28.56-4.68-3.04-.42-4.64-1.58-5.69-4.05-1.48-3.47-3.11-6.88-4.65-10.33-.15-.33-.13-.72-.21-1.15,15.96-2.31,31.98-1.91,47.92-2.83,4.46-.26,8.93-.31,13.39-.49,1.64-.07,2.17,.62,2.25,2.13,.14,2.91,.42,5.82,.87,8.69,.11,.73,1.07,1.83,1.69,1.86,.7,.03,1.79-.81,2.12-1.52,.67-1.44,.95-3.03,1.38-4.57,.46-1.64,.92-3.29,1.44-5.15l-.02,.04Z"/><path class="cls-1" d="M2728.29,706.55c3.55-4.52,8.96-6.65,13.14-10.16-1.14-2.68-1.63-2.86-4.33-1.79-2.81,1.11-5.63,2.19-8.46,3.25-.61,.23-1.26,.34-1.87,.5-.17-7.62-.41-15.08-.44-22.54,0-1.03,.73-2.28,1.53-3.06,2.2-2.15,4.6-4.12,6.94-6.15,4.91-4.27,10.96-6.43,17.26-8.11,1.72-.46,3.05-.07,4.29,1.29,8.91,9.74,17.9,19.4,26.83,29.12,1.41,1.53,2.66,3.19,3.88,4.86,.3,.41,.41,1.12,.28,1.61-.82,3.26-1.28,6.68-2.7,9.71-3.63,7.79-8.27,15.01-15.63,20.35-.59,.43-1.18,.87-1.68,1.38-4.38,4.51-10.14,5.77-16.29,6.35-3.01,.29-5.96,1.07-8.94,1.66-2.41,.47-4.68,.23-6.28-1.65-.64-.76-1.1-1.95-1-2.9,.29-2.95,.93-5.88,1.33-8.83,.12-.88,.18-1.95-.24-2.69-1.71-3.08-3.6-6.07-5.46-9.08-.67-1.08-1.46-2.11-2.16-3.12h0Z"/><path class="cls-2" d="M2636.46,785.96c4.35,3.93,9.19,3.78,14.25,.89,1.78,4.92,1.53,9.73,2.11,14.45-.23,.05-.45,.1-.68,.15-.48-.32-.94-.67-1.43-.96-1.16-.69-2.73-.18-3.25,1.04-1.46,3.42-.74,7,2.24,9.23,1.01,.76,2.58,1.39,4.01,.14,1.19-1.04,1.96-1.1,2.74,.66,2.25,5.02,3.9,10.17,5,15.51,1.45,6.98,3.04,13.94,4.63,20.89,.31,1.35,.8,2.68,1.38,3.95,.89,1.96,.63,3.08-1.19,4.4-2.63,1.91-5.37,3.7-7.83,5.78-4.95,4.18-9.75,8.52-14.6,12.81-1.25,1.1-2.46,2.25-3.72,3.35-.85,.74-2.05,.31-2.51-.88-.62-1.62-.43-3.19,.31-4.74,3.1-6.56,5.5-13.35,7.27-20.32,1.04-4.1,2.12-8.21,2.84-12.37,.55-3.19,.81-6.46,.78-9.68-.05-4.83-.29-9.67-.81-14.48-.2-1.86-1.35-3.64-2.19-5.41-.69-1.47-1.44-2.94-2.37-4.29-2.93-4.27-6.81-7.57-12.36-8.1-1.61-.15-3.97,1.17-5.01,2.48-1.67,2.1-2.8,4.69-3.68,7.21-1.77,5.09-3.39,10.23-4.74,15.43-1.09,4.2-1.71,8.52-2.53,12.78-.57,2.93-1.24,5.85-1.67,8.8-.45,3.1-.6,6.24-.99,9.35-.3,2.46-.82,4.91-1.13,7.37-.39,3.13-.76,6.26-.94,9.4-.19,3.39-.16,6.79-.21,10.19-.02,1.38-.05,2.76,.02,4.13s-.75,1.86-1.99,1.83c-3.28-.1-6.56-.25-9.83-.43-1.55-.08-3.11-2.54-2.9-4.4,.36-3.2,.59-6.41,1.08-9.59,.39-2.56,1.07-5.09,1.66-7.62,1.28-5.45,2.48-10.91,3.93-16.32,1.09-4.05,2.61-7.99,3.77-12.03,1.04-3.66,1.75-7.4,2.78-11.06,1.38-4.91,2.82-9.81,4.44-14.65,1.55-4.63,3.3-9.2,5.08-13.75,.62-1.57,1.53-3.05,2.4-4.53,1.11-1.88,3-1.71,4.82-1.33,2.58,.54,4.82-.03,6.77-1.59,1.37-1.09,2.65-2.28,4.25-3.66v-.03Z"/><path class="cls-2" d="M2631.31,885.1c-2.29,.15-4.68,.28-7.07,.48-1.14,.1-2.26,.37-3.41,.49-.86,.09-1.76,.19-2.6,.05-1.28-.21-3.27-.28-3.63-1-.76-1.51-.98-3.43-.86-5.14,.33-4.65,.85-9.3,1.48-13.93,.57-4.16,1.45-8.28,2.06-12.44,.71-4.81,1.17-9.65,1.91-14.45,.75-4.82,1.43-9.62,3.14-14.31,1.27-3.48,1.46-7.3,2.12-10.97,.52-2.86,.84-5.77,1.6-8.57,.5-1.87,3.6-3.04,6.23-2.93,4.32,.19,6.33,2.84,7.56,6.15,1.21,3.26,2.3,6.59,2.99,9.97,.45,2.21,.1,4.57,.1,6.86,0,1.48,.14,2.97-.01,4.44-.39,3.73-.66,7.5-1.45,11.16-1.43,6.62-3.19,13.18-4.83,19.76-1,4.04-2.12,8.05-3.02,12.11-.85,3.87-1.48,7.79-2.31,12.26h0Z"/><path class="cls-1" d="M2828.92,730.91c.76,3.46,1.34,6.98,2.35,10.38,.94,3.16,2.37,6.19,3.49,9.31,.19,.53,.13,1.38-.21,1.81-5.8,7.51-11.77,14.9-17.44,22.48-2.73,3.65-5.76,5.62-10.62,3.99-1.45-.48-3.12-.42-4.52-.97-1.57-.62-2.18,.02-2.55,1.18-1.69,5.26-3.45,10.51-4.95,15.82-1.21,4.26-2.09,8.61-3.13,12.95-5.21-6.93-10.4-13.84-15.68-20.86,.78-.55,1.42-1.1,2.17-1.51,7.35-3.99,12.78-9.93,18.18-15.85,6.43-7.04,12.66-14.24,18.81-21.5,3.28-3.87,6.21-8,9.3-12.01,1.38-1.78,2.78-3.55,4.16-5.33,.22,.03,.43,.07,.65,.1h-.01Z"/><path class="cls-6" d="M2693.47,885.44c2.86-2.15,5.19-4.19,7.84-5.76,1.02-.61,2.78-.02,4.16-.21,4.33-.59,8.49,.02,12.63,1.16,.98,.27,1.33,.62,1.45,1.66,.45,4.03,.99,8.06,1.72,12.05,1.26,6.88,2.76,13.72,4,20.6,1.09,6.06,1.91,12.16,2.96,18.23,.33,1.93,1.05,3.8,1.52,5.71,.22,.9,.73,2.2,.3,2.68-1.14,1.27-2.55,2.63-4.15,3.17-4.86,1.62-10.08-.81-11.77-5.32-1.05-2.79-1.92-5.66-2.68-8.53-2.82-10.71-5.5-21.45-8.38-32.14-.99-3.67-2.55-7.21-3.56-10.88-.51-1.86-1.64-2.27-3.34-2.27-.74,0-1.47-.08-2.71-.15h.01Z"/><path class="cls-1" d="M2642.33,777.7c1.37-4.45-.26-5.67-6.11-4.82-1.09-2.11-1.36-4.27-.64-6.57,.85-2.69,.25-3.7-2.38-5.05-2.17-1.11-4.32-2.17-4.56-5.07-.31-3.7,1.25-5.2,5.29-4.8,1.45,.15,3.09-.09,4.45-.6,1.75-.66,2.58-2,2.31-3.98-.35-2.58,.55-3.71,3.1-4.71,2.34-.92,3.52-2.6,3.78-4.97,.07-.61,.51-1.37,1.04-1.73,3-2.1,6.34-3.47,10.03-2.01,3.44,1.36,6.32,3.66,7.63,7.01,.57,1.44,.23,3.33-.12,4.93-.46,2.09-1.53,4.07-2.01,6.16-.56,2.43-.47,4.77,1.14,7.09,.96,1.38,1,3.33,1.37,5.04,.12,.54-.14,1.16-.03,1.7,1.09,5.29-2.62,7.9-6.49,10.57-5.56,3.85-11.47,3.36-17.79,1.82h-.01Zm10.4-28.9c-.07,2.28,1.12,3.44,3.35,3.74,.92,.12,1.85,.2,2.77,.35,2.41,.39,3.61-.97,2.76-3.18-.17-.45-.41-.88-.61-1.31-.06,.17-.11,.33-.17,.5-1.29-.15-2.58-.31-3.86-.45-.49-.06-1.37-.21-1.41-.12-.56,1.62-1.67,.74-2.82,.48h-.01Zm-1.35-3.91c3.5,2.1,7.26,1.73,10.96,1.16,1.04-.16,1.11-1.18,.15-1.86-.32-.22-.71-.44-1.09-.48-3.42-.35-6.8-.3-10.02,1.19h0Z"/><path class="cls-1" d="M2775.4,837.29c-.86,3.51-1.68,6.94-2.56,10.36-.09,.34-.5,.82-.82,.87-4.88,.78-9.76,1.55-14.66,2.18-.93,.12-2.04-.23-2.91-.65-9.96-4.92-19.88-9.9-29.82-14.87-.23-.11-.42-.28-.53-.35,5.17-4,10.3-8,15.49-11.93,.39-.29,1.3-.29,1.81-.08,9.41,3.92,18.81,7.89,28.19,11.86,1.97,.83,3.91,1.75,5.81,2.6h0Z"/><path class="cls-1" d="M2680.27,866.84c3.03-.59,6.05-1.28,9.1-1.73,3.22-.47,4.78,.12,5.98,2.96,.97,2.29,1.68,4.95,1.42,7.34-.18,1.66-1.87,3.61-3.48,4.62-5.8,3.64-10.5,8.34-15.29,12.98-2.67,2.59-5.45,4.77-9.55,5.29-5.42,.69-6.34,.05-7.51-4.22-1.4-5.11-1.11-10.26,1.6-15.07,.79-1.4,1.75-2.71,2.61-4.08,1.87-2.93,4.35-5.1,7.96-6.06,2.39-.64,4.71-1.47,7.07-2.22l.09,.19h0Z"/><path class="cls-1" d="M2785.44,678.47c-3.14-3.89-3.52-5.77-1.96-7.76,2.88-3.67,10.34-3.95,13.57-.51,3.88,4.12,4.23,9.25,.12,13.43-2.5,2.54-2.68,4.54-.99,7.34,2.33,3.85,4.31,7.88,6.63,11.74,.66,1.1,.44,1.84-.05,2.79-5.94,11.33-11.9,22.65-17.79,34.01-4.94,9.53-9.79,19.1-14.72,28.63-.82,1.59-1.84,3.1-2.82,4.62-.65,1.01-1.16,2.19-2.94,1.37-2.33-1.07-3.13-1.98-2.4-3.86,1.02-2.6,2.2-5.17,3.52-7.66,5.46-10.28,10.9-20.56,16.53-30.76,3.95-7.15,8.46-14.04,12.16-21.3,1.54-3.02,3.29-6.21,1.6-10.23-2.1-5.04-3.09-10.49-4.43-15.79-.16-.65,.35-1.56,.78-2.22,.65-1.03,1.6-1.89,2.25-2.92,1.29-2.06,.91-4.44-.75-5.48-1.64-1.04-5.37-.33-6.6,1.36-.64,.88-1.04,1.92-1.72,3.21h0Z"/><path class="cls-1" d="M2690.59,799.75c-2.14,3.69-3.9,7.38-6.33,10.62-1,1.33-3.37,2.02-5.26,2.47-3.41,.79-6.91,1.27-10.39,1.71-2.95,.37-5.65-.32-7.82-2.37-1.14-1.07-2.28-2.13-3.68-3.45,1.05-.2,1.78-.47,2.5-.46,2.84,.02,5.69,.08,8.53,.21,3,.14,5.16-1.48,7.04-3.22,1.9-1.76,1.16-4.05-1.48-4.34-2.39-.27-4.96,.12-7.34,.65-3.14,.7-6.16,1.89-9.28,2.72-.68,.18-1.56-.28-2.35-.45,.3-.56,.44-1.29,.91-1.67,4.72-3.83,8.86-8.42,15.29-10.01,2.45-.61,4.68-.81,6.99,.55,4.13,2.42,8.38,4.66,12.68,7.04h0Z"/><path class="cls-1" d="M2816.09,739.54c-11.62,13.17-23.25,26.35-34.66,39.29-1.93-3.1-3.93-6.51-6.15-9.79-1.18-1.73-.87-2.86,.83-3.95,6.63-4.26,13.28-8.51,19.85-12.85,5.97-3.95,11.84-8.02,17.76-12.02,.63-.43,1.32-.77,1.99-1.15,.13,.16,.26,.32,.39,.47h-.01Z"/><path class="cls-1" d="M2700.75,822.97c2.62-4.75,5.19-9.41,7.82-14.18,7.69,3.27,15.2,6.45,22.9,9.72-.34,.39-.48,.67-.71,.82-5.09,3.36-10.18,6.71-15.31,10.02-.4,.25-1.2,.34-1.61,.14-4.33-2.1-8.62-4.28-13.08-6.52h-.01Z"/><path class="cls-1" d="M2719.08,866.54c.84,2.06,1.65,4.14,2.52,6.19,.92,2.17,.15,3.4-2.33,3.31-4.67-.18-9.33-.46-13.98-.84-.8-.07-1.95-.71-2.22-1.36-1.46-3.45-2.71-6.99-4.01-10.5-.35-.96-.02-1.42,1.13-1.71,3.2-.81,6.29-2.03,9.52-2.63,2.04-.38,4.26,0,6.39,.17,.46,.04,1.06,.64,1.25,1.1,.8,2.01,1.48,4.07,2.2,6.11l-.47,.16h0Z"/><path class="cls-1" d="M2784.89,753.36c8.68-13.39,19.59-25.01,30.96-36.46,.27,5.1,.53,9.99,.82,15.38-10.22,6.78-21,13.93-31.78,21.08h0Z"/><path class="cls-6" d="M2641.31,884.19c.44-.78,.72-1.71,1.35-2.32,8.51-8.27,16.98-16.61,27.63-22.53,1.4-.78,3.64-.35,5.49-.3,1.4,.04,2.8,.31,4.18,.57,.46,.09,.85,.47,1.27,.71-.31,.36-.54,.91-.93,1.05-2.78,.98-5.55,2.03-8.41,2.75-2.71,.69-5.04,1.8-6.86,3.77-3.72,4.03-7.55,7.96-9.74,13.02-.84,1.95-2.43,3.15-5.04,3.14-2.8,0-5.6,.52-8.41,.81-.18-.22-.35-.45-.53-.67h0Z"/><path class="cls-1" d="M2694.61,824.31c-2.96-1.92-5.8-3.75-9.09-5.88,3.18-5.46,6.43-11.02,9.63-16.52,2.74,1.58,5.18,2.99,7.78,4.49-2.68,5.77-5.42,11.67-8.32,17.91h0Z"/><path class="cls-9" d="M2652.72,748.81c1.15,.26,2.26,1.14,2.82-.48,.03-.09,.92,.06,1.41,.12,1.29,.15,2.58,.3,3.86,.45,.06-.17,.11-.33,.17-.5,.21,.44,.44,.87,.61,1.31,.85,2.21-.35,3.58-2.76,3.18-.92-.15-1.85-.23-2.77-.35-2.23-.3-3.42-1.45-3.35-3.74h.01Z"/><path class="cls-9" d="M2651.38,744.91c3.22-1.48,6.6-1.54,10.02-1.19,.38,.04,.77,.26,1.09,.48,.97,.68,.89,1.7-.15,1.86-3.7,.57-7.46,.95-10.96-1.16h0Z"/></g></svg>