<?xml version="1.0" encoding="utf-8"?>
<!-- Generator: Adobe Illustrator 27.0.1, SVG Export Plug-In . SVG Version: 6.00 Build 0)  -->
<svg version="1.1" id="Layer_1" xmlns="http://www.w3.org/2000/svg" xmlns:xlink="http://www.w3.org/1999/xlink" x="0px" y="0px"
	 viewBox="0 0 1920 1080" style="enable-background:new 0 0 1920 1080;" xml:space="preserve">
<style type="text/css">
	.st0{fill:#FEFEFE;}
	.st1{fill:#A5A5A0;}
	.st2{fill:#812521;}
	.st3{fill:#1F4257;}
	.st4{fill:#FFFFFF;}
	.st5{font-family:'RobotoCondensed-Bold';}
	.st6{font-size:97.44px;}
	.st7{font-family:'RobotoCondensed-Regular';}
	.st8{font-size:45px;}
	.st9{letter-spacing:-0.9;}
	.st10{fill:#514B4B;}
	.st11{fill:#667323;}
	.st12{fill:#B2BC7F;}
	.st13{fill:#7F7474;}
	.st14{fill:#818943;}
	.st15{letter-spacing:-1.9;}
</style>
<path class="st0" d="M116.4,203.6l0.2,0.2c0,0-0.1,0-0.1,0C116.4,203.7,116.4,203.7,116.4,203.6L116.4,203.6L116.4,203.6z"/>
<polygon class="st1" points="1114.2,885.9 941.6,980.2 768.9,885.9 768.9,697.4 941.6,603.1 1114.2,697.4 "/>
<polygon class="st2" points="759.6,885.9 587,980.2 414.3,885.9 414.3,697.4 587,603.1 759.6,697.4 "/>
<polygon class="st3" points="1468.8,885.9 1296.2,980.2 1123.5,885.9 1123.5,697.4 1296.2,603.1 1468.8,697.4 "/>
<polygon class="st3" points="405,885.9 232.4,980.2 59.7,885.9 59.7,697.4 232.4,603.1 405,697.4 "/>
<polygon class="st2" points="1823.4,885.9 1650.8,980.2 1478.1,885.9 1478.1,697.4 1650.8,603.1 1823.4,697.4 "/>
<g>
	<polygon class="st2" points="1296.2,595.3 1123.5,689.6 950.8,595.3 950.8,406.8 1123.5,312.5 1296.2,406.8 	"/>
	<polygon class="st3" points="941.6,595.3 768.9,689.6 596.2,595.3 596.2,406.8 768.9,312.5 941.6,406.8 	"/>
	<polygon class="st1" points="1650.8,595.3 1478.1,689.6 1305.4,595.3 1305.4,406.8 1478.1,312.5 1650.8,406.8 	"/>
	<polygon class="st1" points="587,595.3 414.3,689.6 241.6,595.3 241.6,406.8 414.3,312.5 587,406.8 	"/>
</g>
<g>
	<polygon class="st3" points="1473.5,304.7 1300.8,398.9 1128.2,304.7 1128.2,116.1 1300.8,21.9 1473.5,116.1 	"/>
	<polygon class="st1" points="1118.9,304.7 946.2,398.9 773.5,304.7 773.5,116.1 946.2,21.9 1118.9,116.1 	"/>
	<polygon class="st2" points="764.3,304.7 591.6,398.9 419,304.7 419,116.1 591.6,21.9 764.3,116.1 	"/>
</g>
<text transform="matrix(1.06 0 0 1 173.8701 756.0195)" class="st4 st5 st6">DC</text>
<text transform="matrix(1.06 0 0 1 136.5156 804.0195)" class="st4 st7 st8">P</text>
<text transform="matrix(1.06 0 0 1 161.998 804.0195)" class="st4 st7 st8 st9">r</text>
<text transform="matrix(1.06 0 0 1 175.0894 804.0195)" class="st4 st7 st8">o-choice</text>
<text transform="matrix(1.06 0 0 1 164.4678 852.0195)" class="st4 st7 st8">spends </text>
<text transform="matrix(1.06 0 0 1 128.2798 900.0195)" class="st4 st7 st8">147% more</text>
<text transform="matrix(1.06 0 0 1 549.21 180.3901)" class="st4 st5 st6">ID</text>
<text transform="matrix(1.06 0 0 1 524.5869 228.3901)" class="st4 st7 st8">P</text>
<text transform="matrix(1.06 0 0 1 551.0225 228.3901)" class="st4 st7 st8">r</text>
<text transform="matrix(1.06 0 0 1 565.0674 228.3901)" class="st4 st7 st8">o-life </text>
<text transform="matrix(1.06 0 0 1 524.3213 276.3901)" class="st4 st7 st8">spends</text>
<text transform="matrix(1.06 0 0 1 509.8945 324.3896)" class="st4 st7 st8">36% less</text>
<g>
	<path class="st10" d="M469.1,365.3c-2,1.4-3.9,2.9-6,4.4c2.2,3.7,4.8,7.2,6.6,11c6.5,13.9,10.1,28.3,8.1,43.7
		c-0.7,5.4-1,11-1.9,16.4c-1.7,10.5-7.4,19-15,26.5c-2.4,2.3-4.7,4.7-7,7.1c-2.4,2.6-2.3,4.2-0.2,6.8c2.1,2.7,4.2,5.5,5.7,8.5
		c7.1,14.7,14.1,29.4,21.1,44.2c3.9,8.3,7.6,16.6,11.5,24.9c0.4,0.8,1.6,1.7,2.5,2c7.2,1.9,12.8,6,17.6,11.2c0.9,1,1.9,2.1,2.2,3.2
		c0.8,3.8,3.6,4.5,7,4.8c3,0.3,5.9,0.9,8.8,1.3c3,0.5,5,2.7,4.3,5.5c-0.6,2.6-1.5,5.2-2.7,7.5c-4.6,9.3-9.5,18.5-15.5,27.1
		c-8.8,12.5-18.7,23.7-31.8,32.4c-6.8,4.5-13.3,9.4-19.9,14.2c-7,5-14.6,8.7-23.1,10.8c-7.2,1.8-14.3,3.9-21.4,6.1
		c-7,2.2-14,2-20.9-0.1c-16-4.9-31.3-11.5-45.8-19.6c-3.9-2.2-7.3-5.1-11-7.7c-1.4,3.3-2.6,6.5-4,9.7c-1.4,3.1-2.9,6.3-4.7,9.2
		c-2.9,4.7-7.3,4.8-10.2,0.1c-3.5-5.7-6.5-11.7-9.8-17.6c-8.6-15.4-17.2-30.7-25.7-46.1c-1.1-1.9-2-3.9-2.8-6
		c-0.9-2.7-0.8-5.5,0.7-8c8.2-13.9,16.5-27.8,24.7-41.7c2.1-3.6,4.1-7.3,6-11c7.1-14.3,15.6-27.7,25.2-40.6c2.5-3.4,6.1-6.1,9.1-9.1
		c1.1-1.2,2.3-2.5,3-3.9c3.7-7.5,8.3-14.5,14.4-20.6c0.2-0.2,0.6-0.5,0.6-0.7c0.9-6,5.1-10.2,8.7-14.6c2.3-2.8,3.3-5.1,1.1-8.5
		c-2-3.3-3.4-7.1-4.5-10.8c-0.8-2.7-2.6-4.3-5-5.7c-6.1-3.5-10-8.7-12.3-15c-0.8-2.2-0.7-4.4,0.6-6.5c1.8-3,3.1-6.2,7.1-7.1
		c1.1-0.3,2.3-0.4,3.4-0.7c0.7-0.2,1.4-0.7,1.9-1c-3.4-2-6.4-3.6-9.3-5.4c-17.9-10.6-35.8-21.2-53.7-31.9c-3.7-2.2-3.8-3.7-0.1-6
		c7.8-4.7,15.6-9.3,23.6-13.7c29.6-16.5,59.3-32.8,89-49.3c1.8-1,3.1-1,4.8,0.4c22.4,18.4,43.6,37.9,63.9,58.3
		c0.4,0.4,0.7,0.7,1.2,1.4c-3.7,1.7-7.3,3.4-10.9,5C475.4,361.7,472.2,363.5,469.1,365.3L469.1,365.3z M458.7,498.4
		c-3.6,3.4-6.9,6.1-9.8,9.2c-1.4,1.5-2.6,2-4.4,1c-1.7-1-3.4-2.2-5.1-3.2c-9-4.8-18-9.7-27.1-14.3c-2.6-1.3-5.5-2.6-8.3-2.9
		c-4.8-0.5-9.7-0.6-14.5,0c-5.5,0.7-10.9,1.9-16.1,3.7c-9.4,3.3-16.9,9.3-22.7,16.9c-7.9,10.4-15.4,21-22.4,31.9
		c-8.4,13-16.3,26.4-24.2,39.8c-4,6.8-7.8,13.7-11.5,20.6c-0.5,0.9-0.3,2.4,0.2,3.3c2,3.8,4.3,7.5,6.5,11.3
		c7.3,12.3,14.6,24.7,21.8,37c2.6,4.4,5.1,8.8,7.6,13.2c0.4,0.6,0.8,1.2,1.5,2.2c0.6-2.6,1.2-4.7,1.7-6.9
		c4.6-21.6,10.8-42.8,20.1-63.1c8.5-18.6,17.4-37,30.8-53c11.4-13.6,24-25.8,41.9-31.6c7.4-2.4,14.9-2.9,22.2,0.7
		c3.9,1.9,7.9,3.8,11.8,5.8c2.2,1.2,4.4,2.4,6.5,3.8c1.5,1,2.8,2.3,4.2,3.5c0.2-0.1,0.4-0.2,0.5-0.3
		C466.2,517.8,462.6,508.6,458.7,498.4L458.7,498.4z M379.2,432.9c-0.5-0.1-1.1-0.2-1.7-0.4c2.8,5.5,5.7,11,8.5,16.5
		c1.7,3.3,4.7,5,8,6.5c7.3,3.3,14.6,6.7,22.1,9.8c9.1,3.8,18.2,7.4,27.3,11.1c1.5,0.6,2.5,0.4,3.6-0.7c1.8-1.8,3.7-3.6,5.5-5.3
		c5.7-5.4,10.3-11.5,13.8-18.3c4.8-9,2.9-18.9,3.5-28.4c-5.7,0.4-11.2,0.6-16.6,1.1c-3.3,0.3-4.5,0.1-6-2.7c-0.6-1.1-1-2.2-1.6-3.3
		c-1.1-2.2-2.1-4.5-3.3-7c-2.3,3.9-4.3,7.4-6.4,10.8c-0.7,1-1.7,2.3-2.9,2.5c-2.7,0.7-5.5,1-8.3,1.2c-5.1,0.3-10.3,0.1-15.4,0.5
		c-2.8,0.2-4.5-0.7-5.8-3c-2.5-4.6-5.2-9.1-7.8-13.6c-0.3-0.6-0.9-1.2-1.5-1.4c-1.5-0.5-2.8-0.4-3.1,1.6c-0.8,5.1-1.7,10.2-2.8,15.3
		c-0.2,1.1-1.5,2.6-2.6,2.8c-1,0.2-2.6-1-3.3-1.9c-3.2-5-6-10.3-9.4-15.3c-0.9-1.4-3.1-2.7-4.8-2.8c-1.3-0.1-3.1,1.4-4.1,2.6
		c-2,2.3-0.6,4.9,0.3,7.1c2.1,5.5,6.6,8.6,12.4,10.3c1,0.3,2.4,0.6,2.8,1.4C380.1,430.7,379.4,431.9,379.2,432.9L379.2,432.9z
		 M468.7,401.2c-0.5-1.8-0.8-3.9-1.5-5.7c-3.2-7.8-6.4-15.7-10-23.3c-0.8-1.6-3.8-3.9-5-3.5c-5.1,1.5-10,3.8-13.6,7.8
		c-0.6,0.7-1.8,1.3-2.7,1.2c-2.4-0.2-4.7-0.7-7-1.3c-7.4-2-15-2.1-22.6-1.7c-2.4,0.1-4.1,1-4.8,3.5c-2.2,7.1-4.6,14.2-7,21.3
		c-0.2,0.7-0.4,1.5-0.7,2.6C418.8,403.5,443.7,403.9,468.7,401.2L468.7,401.2z M470.8,580.4c0.2,0.2,0.5,0.3,0.7,0.5
		c-1.8,4.3-3.1,8.9-5.6,12.8c-2.7,4.1-6.6,7.6-10,11.3c-0.9,1-2.1,1.8-2.9,3c-0.9,1.2-0.4,2.5,1.2,2.9c2.7,0.7,5.4,1.3,8.2,1.7
		c4.6,0.6,9.2,0.7,13.8,1.4c4.3,0.7,7.9-0.2,11.1-2.9c5.1-4.2,10.2-8.3,15.5-12.3c4.8-3.7,6.6-8.8,7.4-14.2c0.4-2.5-0.2-5.6-1.6-7.7
		c-5-7.2-11.9-11.8-21.4-11.9c-2.1,0-4.3,0.4-6.4,1c-7.6,2.3-12.9,7.7-18.8,12.3c-1.3,1-2.7,2.1-1.4,3.8c1.2,1.6,2.8,1.5,4.6,0.7
		C466.9,581.9,468.9,581.2,470.8,580.4L470.8,580.4z M375.7,470.3c5.3,2,10,3.6,14.5,5.4c4.2,1.6,8.3,3.4,12.5,5.2
		c4.8,2,9.5,4.2,14.2,6.3c5.4,2.4,10.8,4.6,16.1,7.1c3.3,1.5,6.3,3.5,9.4,5.4c1,0.6,1.8,0.9,2.8-0.2c2-2.4,4-5,6.4-7
		c2-1.7,1.5-3.3,0.7-4.9c-1.1-2.1-2.6-4.1-4.1-6.4c-0.8,0.5-1.6,0.9-2.3,1.4c-1.3,0.9-2.5,1.8-4.2,1.2c-5.3-1.8-10.6-3.6-15.8-5.6
		c-3-1.1-5.8-2.6-8.7-4c-6.1-2.8-12.2-5.5-18.3-8.3c-4.3-2-8.4-4.3-12.6-6.3c-0.6-0.3-2.1-0.1-2.5,0.4
		C381,463.2,378.4,466.7,375.7,470.3L375.7,470.3z M455.8,351.8c0.3-0.2,0.6-0.5,0.8-0.7c-1.1-1.2-2-2.7-3.3-3.7
		c-3.5-2.8-7-5.5-10.7-7.9c-5.5-3.6-11.1-7.1-18-8.3c-5-0.9-9.9-1-14.9-0.4c-6.1,0.7-12,2-17.1,5.2c-7,4.4-14,9-20.3,14.3
		c-8.7,7.2-14.4,16.5-17.7,27.1c-0.5,1.6-0.4,3.3-0.4,5c0,0.5,0.7,0.9,1.3,1.5c1.5-2.5,2.8-4.6,3.9-6.8c8.1-16.1,22.5-25.6,38.9-33
		c7.4-3.4,15.4-4.3,23.7-4.3c8.6,0,16.7,1.2,24,5.6C449.3,347.5,452.5,349.7,455.8,351.8L455.8,351.8z M404.2,409.3
		c1.6,3.3,3,6.3,4.6,9.2c0.4,0.7,1.5,1.4,2.3,1.4c5.8,0,11.6-0.1,17.4-0.2c0.6,0,1.4-0.4,1.6-0.8c1.7-2.8,3.4-5.6,5.2-8.7
		C424.9,409.8,414.7,409.6,404.2,409.3L404.2,409.3z M448.7,409.7c1.2,3.1,2.2,5.8,3.4,8.4c0.3,0.6,1.3,1.5,1.9,1.5
		c5.4-0.5,10.8-1.2,16.5-1.9c-0.1-3.3-0.2-6.4-0.4-9.8C462.8,408.6,455.9,409.1,448.7,409.7L448.7,409.7z M389.5,482.1l0-0.8
		c-0.5-0.3-1-0.8-1.6-1c-3.6-1.5-7.2-3-10.8-4.5c-5.4-2.2-4.6-2.5-7.9,1.6c-0.5,0.6-1.1,1-1.5,1.6c-2.5,3.4-5,6.8-7.5,10.1
		c0.1,0.2,0.3,0.4,0.5,0.7C369.8,486.1,379,482.2,389.5,482.1L389.5,482.1z M376.4,401.2c3.3,0.1,6.7,0.3,10.2,0.2
		c0.5,0,1.3-0.9,1.5-1.5c1.1-3.8,2.2-7.6,3.2-11.4c0.5-1.9,0.8-3.8,1.2-5.7c-4.6,3-8.5,6.4-12.7,9.4
		C376.5,394.5,375.1,397.2,376.4,401.2L376.4,401.2z M383.7,418.6c0.6-3.8,1.2-7,1.8-10.4c-2.8-0.1-5.3-0.2-8.4-0.3
		C379.3,411.7,381.4,414.9,383.7,418.6L383.7,418.6z"/>
	<path class="st11" d="M469.1,365.3c3.2-1.7,6.4-3.5,9.6-5.2c1.6,7.6,3.4,15.2,4.8,22.8c1.8,9.9,3.6,19.8,4.8,29.7
		c1.4,12,2.2,24.1,3.2,36.2c0.5,6.5,2,12.8,3.8,19c1.3,4.7-3.5,9.6-8.5,8.8c-1.4-0.2-2.6-0.6-2.4-2.4c0.9-8.3,0.5-16.6-0.4-24.9
		c-0.6-6-0.5-12.1-1.1-18.1c-0.6-6.2-1.8-12.3-2.7-18.5c-0.7-4.8-1.3-9.6-2.3-14.4c-1.2-5.8-2.9-11.5-4.4-17.2
		C472,375.9,470.5,370.6,469.1,365.3L469.1,365.3z"/>
	<path class="st12" d="M458.7,498.4c3.9,10.1,7.4,19.3,11,28.5c-0.2,0.1-0.4,0.2-0.5,0.3c-1.4-1.2-2.7-2.4-4.2-3.5
		c-2.1-1.4-4.3-2.7-6.5-3.8c-3.9-2-7.8-3.9-11.8-5.8c-7.3-3.5-14.7-3.1-22.2-0.7c-17.9,5.8-30.6,18-41.9,31.6
		c-13.4,16-22.2,34.4-30.8,53c-9.3,20.3-15.5,41.5-20.1,63.1c-0.5,2.1-1,4.2-1.7,6.9c-0.6-1-1.1-1.6-1.5-2.2
		c-2.5-4.4-5-8.8-7.6-13.2c-7.3-12.3-14.6-24.7-21.8-37c-2.2-3.7-4.4-7.5-6.5-11.3c-0.5-0.9-0.6-2.4-0.2-3.3
		c3.7-6.9,7.5-13.8,11.5-20.6c8-13.3,15.8-26.7,24.2-39.8c7-10.9,14.5-21.6,22.4-31.9c5.8-7.6,13.3-13.6,22.7-16.9
		c5.2-1.8,10.6-3,16.1-3.7c4.8-0.6,9.7-0.5,14.5,0c2.9,0.3,5.7,1.5,8.3,2.9c9.1,4.6,18.1,9.5,27.1,14.3c1.8,1,3.4,2.2,5.1,3.2
		c1.8,1,3,0.5,4.4-1C451.9,504.6,455.1,501.8,458.7,498.4L458.7,498.4z"/>
	<path class="st13" d="M379.2,432.9c0.2-1,0.9-2.2,0.5-3c-0.4-0.7-1.8-1-2.8-1.4c-5.8-1.7-10.2-4.9-12.4-10.3
		c-0.9-2.3-2.3-4.8-0.3-7.1c1-1.2,2.8-2.7,4.1-2.6c1.7,0.1,3.9,1.4,4.8,2.8c3.3,5,6.2,10.2,9.4,15.3c0.6,1,2.3,2.1,3.3,1.9
		c1-0.2,2.3-1.7,2.6-2.8c1.1-5.1,2-10.2,2.8-15.3c0.3-2,1.6-2.1,3.1-1.6c0.6,0.2,1.2,0.9,1.5,1.4c2.6,4.5,5.3,9,7.8,13.6
		c1.3,2.3,3,3.2,5.8,3c5.1-0.4,10.2-0.2,15.4-0.5c2.8-0.1,5.6-0.5,8.3-1.2c1.1-0.3,2.2-1.5,2.9-2.5c2.2-3.4,4.1-6.9,6.4-10.8
		c1.2,2.5,2.3,4.8,3.3,7c0.5,1.1,1,2.2,1.6,3.3c1.5,2.7,2.7,3,6,2.7c5.4-0.5,10.9-0.8,16.6-1.1c-0.5,9.5,1.3,19.4-3.5,28.4
		c-3.5,6.7-8.1,12.9-13.8,18.3c-1.9,1.8-3.8,3.5-5.5,5.3c-1.1,1.1-2.1,1.3-3.6,0.7c-9.1-3.7-18.3-7.3-27.3-11.1
		c-7.4-3.1-14.7-6.5-22.1-9.8c-3.3-1.5-6.3-3.2-8-6.5c-2.8-5.5-5.6-11-8.5-16.5C378.1,432.7,378.7,432.8,379.2,432.9L379.2,432.9z
		 M449.1,442.7c3.9-1.7,6.2-4.3,7.5-7.6c0.3-0.7-0.4-2.1-1.1-2.6c-0.5-0.4-2,0-2.6,0.5c-2.5,2-4.7,4.1-7.1,6.2
		c-1.3,1.1-0.9,2.1,0.3,2.7C447,442.4,448.2,442.5,449.1,442.7L449.1,442.7z"/>
	<path class="st13" d="M468.6,401.2c-25,2.7-49.8,2.3-74.9,0.8c0.3-1.1,0.4-1.9,0.7-2.6c2.3-7.1,4.7-14.2,7-21.3
		c0.8-2.5,2.4-3.3,4.8-3.5c7.6-0.4,15.2-0.3,22.6,1.7c2.3,0.6,4.6,1.1,7,1.3c0.9,0.1,2.1-0.6,2.7-1.2c3.7-4,8.6-6.2,13.6-7.8
		c1.2-0.4,4.2,1.9,5,3.5c3.6,7.7,6.8,15.5,10,23.3C467.9,397.3,468.2,399.4,468.6,401.2L468.6,401.2z"/>
	<path class="st13" d="M470.8,580.4c-1.9,0.8-3.9,1.5-5.8,2.3c-1.8,0.8-3.4,0.9-4.6-0.7c-1.3-1.7,0.1-2.8,1.4-3.8
		c5.9-4.6,11.2-10,18.8-12.3c2-0.6,4.2-1,6.4-1c9.5,0.1,16.4,4.7,21.4,11.9c1.4,2,2,5.2,1.6,7.7c-0.8,5.4-2.6,10.5-7.4,14.2
		c-5.2,4-10.4,8.1-15.5,12.3c-3.3,2.7-6.8,3.6-11.1,2.9c-4.5-0.7-9.2-0.8-13.8-1.4c-2.8-0.3-5.5-1-8.2-1.7c-1.5-0.4-2-1.6-1.2-2.9
		c0.8-1.1,2-1.9,2.9-3c3.4-3.7,7.3-7.2,10-11.3c2.5-3.9,3.8-8.5,5.6-12.8C471.3,580.8,471,580.6,470.8,580.4L470.8,580.4z"/>
	<path class="st11" d="M375.6,470.3c2.8-3.6,5.4-7.1,8.1-10.4c0.4-0.5,1.8-0.7,2.5-0.4c4.3,2,8.4,4.3,12.6,6.3
		c6.1,2.8,12.2,5.5,18.3,8.3c2.9,1.3,5.7,2.8,8.7,4c5.2,2,10.5,3.8,15.8,5.6c1.7,0.6,2.9-0.4,4.2-1.2c0.7-0.5,1.5-0.9,2.3-1.4
		c1.5,2.3,3,4.2,4.1,6.4c0.9,1.6,1.4,3.2-0.7,4.9c-2.4,2-4.4,4.6-6.4,7c-1,1.2-1.8,0.9-2.8,0.2c-3.1-1.8-6.2-3.8-9.4-5.4
		c-5.3-2.5-10.7-4.7-16.1-7.1c-4.8-2.1-9.5-4.2-14.2-6.3c-4.1-1.8-8.3-3.5-12.5-5.2C385.6,473.9,381,472.3,375.6,470.3L375.6,470.3z
		"/>
	<path class="st0" d="M455.8,351.8c-3.3-2.1-6.5-4.3-9.9-6.4c-7.3-4.4-15.4-5.6-24-5.6c-8.3,0-16.3,0.9-23.7,4.3
		c-16.3,7.4-30.7,17-38.9,33c-1.1,2.2-2.4,4.3-3.9,6.8c-0.5-0.6-1.3-1.1-1.3-1.5c0-1.7-0.1-3.4,0.4-5c3.2-10.6,9-19.9,17.7-27.1
		c6.3-5.2,13.3-9.9,20.3-14.3c5.1-3.2,11-4.5,17.1-5.2c5-0.6,9.8-0.5,14.9,0.4c7,1.2,12.5,4.7,18,8.3c3.7,2.4,7.2,5.2,10.7,7.9
		c1.3,1,2.2,2.4,3.3,3.7C456.4,351.3,456.1,351.6,455.8,351.8L455.8,351.8z"/>
	<path class="st0" d="M404.2,409.3c10.5,0.3,20.7,0.5,31.1,0.8c-1.9,3.1-3.5,6-5.2,8.7c-0.3,0.4-1.1,0.8-1.6,0.8
		c-5.8,0.1-11.6,0.3-17.4,0.2c-0.8,0-1.9-0.7-2.3-1.4C407.2,415.6,405.8,412.6,404.2,409.3L404.2,409.3z"/>
	<path class="st0" d="M448.7,409.7c7.2-0.6,14.1-1.2,21.5-1.8c0.1,3.4,0.2,6.5,0.4,9.8c-5.7,0.7-11.1,1.4-16.5,1.9
		c-0.6,0.1-1.6-0.8-1.9-1.5C451,415.6,450,412.9,448.7,409.7L448.7,409.7z"/>
	<path class="st11" d="M389.4,482.1c-10.4,0-19.7,3.9-28.9,7.8c-0.1-0.2-0.3-0.4-0.5-0.7c2.5-3.4,5-6.8,7.5-10.1
		c0.4-0.6,1-1.1,1.5-1.6c3.4-4.1,2.6-3.8,7.9-1.6c3.6,1.5,7.2,3,10.8,4.5c0.6,0.2,1,0.6,1.6,1L389.4,482.1L389.4,482.1z"/>
	<path class="st0" d="M376.4,401.2c-1.2-4,0.1-6.7,3.3-9c4.2-3,8.1-6.4,12.7-9.4c-0.4,1.9-0.7,3.8-1.2,5.7c-1,3.8-2,7.6-3.2,11.4
		c-0.2,0.6-1,1.5-1.5,1.5C383.1,401.5,379.6,401.3,376.4,401.2L376.4,401.2z"/>
	<path class="st0" d="M383.6,418.6c-2.3-3.7-4.3-6.9-6.6-10.6c3.1,0.1,5.6,0.2,8.4,0.3C384.9,411.6,384.3,414.8,383.6,418.6
		L383.6,418.6z"/>
	<path class="st10" d="M449.1,442.7c-0.9-0.2-2.1-0.3-3-0.8c-1.2-0.6-1.5-1.6-0.3-2.7c2.4-2,4.6-4.2,7.1-6.2
		c0.6-0.5,2.1-0.8,2.6-0.5c0.7,0.5,1.4,1.9,1.1,2.6C455.3,438.4,453,441,449.1,442.7L449.1,442.7z"/>
</g>
<text transform="matrix(1.06 0 0 1 1066.7002 460.9102)" class="st4 st5 st6">TX</text>
<text transform="matrix(1.06 0 0 1 1059.2168 508.9102)" class="st4 st7 st8">P</text>
<text transform="matrix(1.06 0 0 1 1084.6992 508.9102)" class="st4 st7 st8 st9">r</text>
<text transform="matrix(1.06 0 0 1 1097.79 508.9102)" class="st4 st7 st8">o-life </text>
<text transform="matrix(1.06 0 0 1 1055.6123 556.9102)" class="st4 st7 st8">spends</text>
<text transform="matrix(1.06 0 0 1 1035.7168 604.9102)" class="st4 st7 st8"> 25% less </text>
<text transform="matrix(1.06 0 0 1 710.3105 460.9102)" class="st4 st5 st6 st9">OR</text>
<text transform="matrix(1.06 0 0 1 668.7578 508.9102)" class="st4 st7 st8">P</text>
<text transform="matrix(1.06 0 0 1 695.1943 508.9102)" class="st4 st7 st8">r</text>
<text transform="matrix(1.06 0 0 1 709.2393 508.9102)" class="st4 st7 st8">o-choice</text>
<text transform="matrix(1.06 0 0 1 701.0137 556.9102)" class="st4 st7 st8">spends </text>
<text transform="matrix(1.06 0 0 1 676.6025 604.9102)" class="st4 st7 st8">13% more</text>
<g>
	<path class="st10" d="M934.8,291.1c-0.6,1.9-0.8,3.7-1.6,5.3c-2.9,5.7-11.6,7.7-17.4,4c-2.7-1.7-5-3.9-7.2-5.6
		c-2,0.7-3.8,1.9-5.7,2c-1.8,0-3.7-1.2-5.9-1.9c-4.1,4.9-9.9,6.4-16.9,5.4c-7.3-1-11-5.4-13.3-11.4c-0.3,0-0.5-0.1-0.5,0
		c-5.1,4.1-11,5-17.3,3.5c-2.5-0.6-5-1.5-7-3c-4.1-3-7.8-6.5-11.6-9.8c-1.6,1.3-3.2,2.9-5.1,4.2c-5.3,3.7-11.3,3.8-16.8,1
		c-5.4-2.8-10.8-6.1-13.2-11.9c-0.8-1.9-1.2-4.1-1.2-6.1c0-3.1,0.6-6.3,0.9-9.4c0.3-2.6,1.5-4.7,3.9-6.3c-1.7-0.6-3.1-1.2-4.6-1.6
		c-13.7-4.6-23.8-13.2-31.1-25c-3-4.8-3.9-10.2-4.6-15.5c-1.6-12.1-0.3-23.9,4-35.3c0.1-0.3,0.3-0.6,0.5-0.9
		c1.8-3.8,3.8-4.7,8.1-4.1c4.2,0.6,8.4,1.2,12.7,1.6c1.2,0.1,2.6-0.4,3.8-0.9c1.6-0.8,3-1.8,4.5-2.8c4.3-2.7,8.7-5.4,13-8.2
		c6.1-3.9,13-5.4,20.1-5.9c14.3-0.9,28.2,1.4,41.3,6.8c8.4,3.4,15.6,8.3,21,15.4c0.2,0.3,0.8,0.6,1.2,0.6c8.3,0.5,16.6,0.9,24.9,1.3
		c1.3,0.1,2.6,0,3.4,0c3.8-9.2,7.5-18.1,11.3-27c1.3-3.1,3.3-5.9,5-8.8c1.3-2.2,3-4.2,4-6.6c2.5-5.6,7.3-7.5,13.1-7.3
		c10.6,0.3,21.1,1.7,30.9,5.7c18.9,7.6,38.5,12.5,58.9,14.8c18.9,2.1,37.9,2.2,56.8,1.9c8.5-0.1,17-1.5,25.5-2.2
		c6.7-0.6,13.1,0.3,19.2,3.1c1.7,0.8,2.2,1.8,1.8,3.6c-2.8,13.8-5.5,27.5-8.1,41.3c-0.3,1.7-0.2,3.5-0.2,5.3
		c0.3,7.5,0.9,15.1-2.5,22.2c-0.9,1.9-1.8,3.8-3.1,5.4c-5.7,6.7-11.2,13.6-17.6,19.8c-7.5,7.3-15.6,14.1-23.9,20.6
		c-11.5,8.9-23.4,17.3-35.3,25.6c-3.8,2.6-8.3,4.5-12.6,6.3c-7.2,2.9-14.4,5.6-21.8,8.1c-7.1,2.4-14.2,3.9-22,2.2
		c-7.6-1.7-15.6-1.7-23.1-3.5c-8.8-2.1-17.2-5.4-25.8-8.1c-1.5-0.5-3-0.7-4.3-1.5c-2.2-1.2-4.3-2.7-6.4-4.1
		C936.1,292.8,935.5,292,934.8,291.1L934.8,291.1z M977.9,257.1c0.5-0.2,1-0.5,1.5-0.7c9.9-5.2,19.8-10.6,29.8-15.6
		c17.7-8.9,36.7-15.6,53.1-26.9c0.7-0.5,2.6-0.2,3.5,0.3c1.3,0.9,1.1,2.4,0.1,3.5c-1.3,1.3-2.9,2.5-4.5,3.6
		c-10.1,6.5-20.6,12.2-31.7,17c-11.5,5-23.2,9.7-34.3,15.3c-8.1,4-15.4,9.4-23.1,14.1c5.4,9.3-0.3,22.6-13.2,29.7
		c5,1,9.7,2,14.5,2.9c9.8,1.9,19.9,2.8,29.4,6.1c0.7,0.2,1.7,0.1,2.5-0.2c10.5-3.9,21-7.8,31.4-11.9c4.1-1.6,8.2-3.4,11.7-5.8
		c12-8.5,23.9-17.1,35.4-26.2c8.1-6.3,15.8-13.1,23.2-20.1c6-5.8,11.3-12.3,16.8-18.6c1-1.2,1.7-2.7,2.4-4.1
		c2.6-5.6,2.2-11.6,2.4-17.6c0.1-3.3,0.3-6.6,1-9.8c0.8-4.2,2-8.3,3.1-12.4c1.1-4.2,2-8.5,3.6-12.6c1-2.5,2.2-4.8,2.2-7.6
		c0-4.1,0-4.2-4.3-5.2c-0.2-0.1-0.4-0.1-0.6-0.1c-6.6-1.6-13.1-0.1-19.7,0.3c-7.4,0.4-14.8,1.5-22.3,1.7c-7.7,0.2-15.3-0.5-23-0.4
		c-12.4,0.1-24.7-1.5-36.9-3.5c-13.6-2.2-27.2-4.5-39.8-10.2c-4-1.8-8.3-3-12.7-4.5c-3.8,8.6-7.5,17.2-11.2,25.7
		c-1.3,3-2.4,6-3.8,8.9c-0.7,1.4-1.7,2.7-2.8,3.8c-0.4,0.4-1.6,0.6-2.2,0.4c-0.4-0.1-0.6-1.2-0.6-1.9c0-0.8,0.3-1.6,0.5-2.4
		c2-10.7,4.8-21.2,9.2-31.3c0.9-2,1.5-4.1,2.5-6.7c-7.2-0.8-14-1.6-20.7-2.1c-3.4-0.3-6.1,1-7.5,4.3c-0.9,2.2-2.5,4.1-3.7,6.2
		c-2.1,3.6-4.4,7.1-6.1,10.8c-3.5,7.4-6.5,15.1-9.9,22.6c-0.7,1.5-0.3,2.1,1.2,2.8c8.1,3.8,14.9,9.1,20.3,16c1.6,2.1,3.5,4,5.1,5.7
		c0.8-2.1,1.2-4.2,2.4-6c3.2-4.8,7.4-8.6,12.8-11.1c3-1.4,6.4-0.7,8.7,1.5c0.4,0.4,0.8,0.9,1.4,1.5c4.5-3.5,8.9-7,13.3-10.4
		c4.8-3.7,9.9-7.1,16.2-7.2c12-0.3,22.9,3.5,32.9,9.5c0.4,0.2,0.7,0.5,1,0.8c3.8,2.9,5.9,6.7,6.2,11.3c0.2,2.8,0,5.6,0,8.6
		c3.3-1.8,6.4-3.3,9.4-5.1c2.8-1.7,5.5-3.5,8-5.6c1.8-1.5,3.5-3.1,6.2-2.7c0.7,0.1,1.7,0.2,2,0.7c0.3,0.5,0.2,1.5-0.2,2
		c-0.9,1.4-2.1,2.6-3.1,3.9c-6.3,7.5-15.6,11-23.9,15.7c-9.4,5.3-19.5,9.6-27.4,17.2c-2,1.9-3.8,3.9-6,5.7
		c-4.7,3.8-9.5,7.4-14.2,11.2c-5.9,4.8-11.8,9.7-17.6,14.6c-0.1,0.1-0.2,0.3-0.2,0.5C977.5,257.2,977.7,257.2,977.9,257.1
		L977.9,257.1z M877.8,177.5c-2.5-3.9-5.3-6.7-9.3-8.4c-1-0.4-1.9-1-2.8-1.6c-8.9-5.7-19-8-29.5-8.7c-9.1-0.6-17.8,1.3-26,5.1
		c-8.5,4-17.2,7.8-20.4,17.4c-0.5,1.4-2.1,1.5-3.1,0.2c-0.7-0.9-1.3-2-1.9-3c-0.9-1.4-1.9-2.3-3.8-2.7c-4.1-0.7-8.2-1.7-12.2-2.8
		c-1.7-0.4-2.3-0.1-2.8,1.4c-3.4,10.6-4.5,21.4-3.4,32.4c1.2,11.9,7.7,20.8,16.8,28.5c6.3,5.3,14,8.2,21.9,10.5
		c2.1,0.6,4.3,1.4,6.5,1.6c3,0.3,6,0.1,9,0.1c0.8,0,1.6-0.3,2.3-0.7c2.3-1.1,4.6-2.5,7-3.5c1.5-0.6,3.3-0.8,5.1-1.3
		c-0.7-0.8-1.3-1.5-1.9-2.2c-3.2-3.6-3-7.4-0.8-11.3c0.9-1.5,2.4-2.8,3.7-4c1.2-1.2,2.6-2.1,1.8-4.2c-0.3-0.8,0.3-1.8,0.7-2.7
		c0.5-1.4,1.4-2.7,1.8-4.2c1-3.3,2.2-6.5,2.8-9.9c1-5.5,5-9.3,8.4-13.4c4.2-5.1,9.9-8.4,16-10.9
		C868.1,177.6,872.7,176.7,877.8,177.5L877.8,177.5z M943.4,216.6c0.9-2.6,1.9-5.1,2.6-7.6c0.2-0.7-0.3-1.7-0.8-2.4
		c-0.5-0.9-1.3-1.6-1.8-2.4c-2.7-4.6-5.4-9.2-9.8-12.7c-2.5-2-5.2-3.8-7.7-5.7c-3-2.2-6.5-3.4-10.2-3.4c-12.5,0.1-25,0.5-37.4,0.8
		c-0.4,0-0.7,0.1-1.1,0.1c-3.1,0.5-6.1,1.3-9.2,1.4c-5.4,0.2-9.6,2.7-13.5,5.8c-6.7,5.4-8.9,12.9-11,20.5c-0.6,2.1-1.3,4.3-1.6,6.4
		c-0.2,1.6-0.4,3.6,0.3,5c1,1.9,2.8,3.6,4.4,5.2c2.3,2.3,4.6,4.6,7.1,6.6c2.5,2.1,5.2,4,7.8,5.9c0.8,0.6,1.6,1.2,2.5,1.4
		c2.8,0.4,5.6,0.7,8.5,0.9c3.5,0.2,6.5,1.2,9.2,3.5c2.8,2.4,6.1,4.4,9.2,6.4c2.2,1.4,4.5,2.7,6.9,3.8c0.7,0.3,1.5,1.6,3,0.4
		c2.4-2,5.3-3.4,8-5.1c1.4-0.9,2.9-1.8,4.1-2.5c-2.8-3.2-5.6-5.7-7.5-8.7c-2.5-4-4.2-8.5-6.4-12.7c-0.3-0.6-0.8-1.2-1.4-1.4
		c-3.9-1.7-7.8-3.5-12.3-3.5c-1.2,0-2.4-1.1-3.6-1.6c0.1-0.3,0.2-0.6,0.3-0.9c4.5-2,8.9,0.2,13.4,0.6c-1.7-1.8-3.3-3.4-5.2-4.9
		c-0.8-0.6-2-1-3.1-1.3c-2.3-0.6-4.7-1.2-7.6-1.9c1.4-1,2.2-2,3.1-2.1c5.5-0.7,10.5,0.7,14.4,4.9c0.2-0.5,0.3-0.8,0.2-0.9
		c-1.1-2.9-2.3-5.7-3.2-8.6c-0.4-1.2-0.6-2.8,1.7-3.6c2.9,6.3,5.8,12.6,8.7,19.1c0.7-0.3,1-0.4,1.3-0.6c5-3.1,10.4-3.8,16-1.7
		c1.7,0.6,2.7,0.3,3.4-1c1-2.1,2.8-3.1,5-3.9c3.1-1.2,6.1-1.9,9.1,0.2C940.6,214.9,941.9,215.6,943.4,216.6L943.4,216.6z
		 M1009.4,202.5c-1.3-0.7-2.2-1.4-3.3-1.6c-2.9-0.6-5.9-1.1-8.9-1.4c-4.1-0.4-4.6-1-3.5-4.7c0.4-1.3,0-2-1.5-2c-1,0-2.1-0.1-3,0.2
		c-7,2.1-13.9,4.4-20.9,6.6c-0.6,0.2-1.6,0-2.1-0.3c-0.4-0.3-0.4-1.3-0.2-1.8c0.3-0.6,1-1.1,1.4-1.7c1-1.4,2.3-2.8,2.9-4.4
		c1-2.8-1.5-5.1-4.6-4.4c-1.1,0.3-2.3,0.9-3.1,1.7c-2.3,2.3-4.6,4.7-6.7,7.3c-3.7,4.7-4.5,10.5-6.3,15.9c-1.8,5.4-1.2,11-0.2,16.5
		c1.3,7.6,5.2,14.1,9.1,20.7c0.3,0.6,0.9,1.1,1.5,1.4c3.9,1.9,8,2.4,12.3,2.5c0.6,0,1.3-0.3,1.7-0.6c5.2-4.8,10.5-9.6,15.7-14.5
		c0.4-0.4,0.3-1.2,0.4-1.9c0.1-0.8,0-1.9,0.5-2.2c0.6-0.4,1.7-0.2,2.6-0.2c0.3,0,0.6,0.3,0.6,0.4c6.5-5.1,13-10.1,19.3-15.2
		c0.6-0.5,1-1.9,0.7-2.3c-1.3-1.8-1.6-3.6-0.5-5.5c-2.8-0.3-5.8,0.6-7-2.4C1005.2,205.8,1007.4,204.4,1009.4,202.5L1009.4,202.5z
		 M927.8,226.5c-0.8-0.5-1.4-0.6-1.7-1c-4.1-4.5-10.5-4-15.2-2.2c-2.5,1-3.6,2.8-2.9,5.1c1.4,4.6,2.2,9.4,5.7,13.2
		c2,2.1,2.8,5.2,4.8,7.3c2.1,2.1,5,3.4,7.5,5.2c1,0.7,1.7,1.9,2.7,2.5c3.5,2.1,7.1,4.2,10.8,6c1.5,0.8,3.4,1.4,5.1,1.2
		c5.8-0.5,11.5-1.3,17.4-2.1c0.3-2.7-0.7-5-3.3-6.8c-1.5-1-3.1-2.1-4.1-3.5c-2.1-3-4.1-6.1-5.8-9.3c-3.5-6.5-7.1-12.9-7.9-20.3
		c-0.3-2.8-4-5.1-6.8-4.3C929.5,218.7,927.9,221.9,927.8,226.5L927.8,226.5z M906.2,291.5c-2-3.3-1.9-6.4-0.3-9.6
		c1.6-3.2,3.1-6.5,4.6-9.5c-1.6-1.2-3.4-2.5-5.3-3.8c-5.7-3.9-11.4-7.7-17-11.6c-3.2-2.2-6.3-4.4-9.4-6.6c-1.6-1.1-3.3-1.5-5.4-1.6
		c-5.9-0.3-11.5-2-17.1-4.4c-0.9,0.6-2.1,1.4-3.2,2.2c-0.3,0.2-0.7,0.8-0.6,1.1c0.4,1.4,0.8,2.9,1.6,4.1c1.3,2.1,2.8,4,4.3,5.9
		c0.8,1.1,1.6,2.5,2.8,3.1c4.8,2.5,8.6,5.8,11.2,10.1c5.8-1.5,11.4-2.2,16.9,0.4c7.8,3.7,11.8,10,10.6,16.9
		c-0.2,1.4-0.4,2.7,1.3,3.5C902.7,292.6,904.4,292.9,906.2,291.5L906.2,291.5z M914.1,269.3c0.1,0.2,0.2,0.5,0.3,0.7
		c4.9-3.2,9.7-2.2,14.5-0.2c4.1,1.8,6.5,4.7,6.3,9c-0.2,5.5,2.7,9.2,7,12.2c1.7,1.1,3.9,1.9,6,2c6.5,0.5,12.2-1.1,16.1-6.5
		c0.6-0.9,1.5-1.7,2.1-2.6c3.1-4.6,4.8-9.4,1.6-14.7c-0.8-1.4-1.8-2.3-3.5-2.3c-4.1,0-8.3-0.3-12.3,0.3c-6.4,1.1-12.3,0.5-17.9-2.8
		c-2.6-1.6-5.3-3-7.8-4.5C922.3,263.1,918.2,266.2,914.1,269.3L914.1,269.3z M832.3,261.9c-2.2-2.5-4.2-4.8-6.3-6.9
		c-5-5-13.8-7.8-21-1.7c-0.7,0.6-1.5,1-2.3,1.4c-1.4,0.7-2.1,1.7-2.2,3.3c-0.2,2.5-0.6,5-0.7,7.6c-0.1,1.3-0.3,2.9,0.3,4
		c3.1,6.2,8.1,10.4,15.4,11.7c5,0.9,11.1-3.7,11.5-8.5C827.2,268.6,828.1,264.7,832.3,261.9L832.3,261.9z M854.4,287.4
		c6.3,0.1,11.1-3.2,13-8.8c0.3-0.9,0.5-1.7,0.9-2.5c0.6-1.3,0.3-2.4-0.5-3.6c-4.7-6.8-11.5-9.9-19.8-9.9c-4.5,0-8.9,1.3-12.3,4.8
		c-1.6,1.7-1.3,3.6-1.8,5.5c-0.4,1.6,0,2.8,1.3,3.8c3,2.5,6,5,9,7.5C847.1,286.5,850.6,287.3,854.4,287.4L854.4,287.4z M869.7,286.8
		c5.4,6.9,6.2,7.4,14.1,8.2c4.3,0.4,8.9-1.6,10.3-5c1.9-4.6,1.1-7.9-2.2-11.1c-5.2-5-11.5-5.4-18-4.4
		C872.5,278.4,871.1,282.3,869.7,286.8L869.7,286.8z M920.3,272.1c-1,0.4-2.8,0.6-4.1,1.6c-3.2,2.2-5.3,5-5.7,9.2
		c-0.4,5.4,4.3,12.2,10,13.3c0.3,0,0.6,0,0.9,0.1c3.9,0.6,8-3.3,8.8-6.3c0.8-2.8,1.3-5.6,1.6-8.4c0.1-1.1,0-2.8-0.7-3.5
		C928.5,275.1,925.4,272.6,920.3,272.1L920.3,272.1z M824.8,249.7c2.2,1.5,4.4,2.7,6.2,4.2c1.8,1.5,3.2,3.5,4.9,5.2
		c0.3,0.3,1.2,0.3,1.7,0.2c2.1-0.4,4.1-1,6.1-1.2c3.4-0.2,6.8,0,10,0c-1.5-2.5-2.9-5.1-4.6-7.4c-0.8-1.1-2-2.4-3.2-2.8
		C838.7,245.7,831.7,246.1,824.8,249.7L824.8,249.7z M852.8,240.6c-6.4-4.5-12-9.3-15.6-16c-0.9,1.1-1.5,1.8-2.2,2.5
		c-4.5,5.6-4.3,8.6-0.4,13.2c0.5,0.6,1.5,0.9,2.3,1c2.5,0.4,5.1,0.3,7.4,1.2c3,1.2,5.3,1.7,7.3-1.2
		C851.8,241.1,852.2,241,852.8,240.6L852.8,240.6z M976.8,257.7l0.1-0.1h-0.2L976.8,257.7z"/>
	<path class="st0" d="M977.5,256.8c5.9-4.9,11.7-9.8,17.6-14.6c4.7-3.8,9.5-7.4,14.2-11.2c2.1-1.7,4-3.8,6-5.7
		c7.8-7.6,17.9-11.9,27.4-17.2c8.3-4.7,17.6-8.2,23.9-15.7c1.1-1.3,2.2-2.6,3.1-3.9c0.4-0.5,0.5-1.5,0.2-2c-0.3-0.4-1.3-0.5-2-0.7
		c-2.7-0.5-4.3,1.1-6.2,2.7c-2.5,2.1-5.2,3.9-8,5.6c-3,1.8-6.1,3.3-9.4,5.1c0-3.1,0.2-5.8,0-8.6c-0.3-4.6-2.4-8.4-6.2-11.3
		c-0.3-0.3-0.7-0.5-1-0.8c-10.1-6-20.9-9.8-32.9-9.5c-6.3,0.2-11.4,3.6-16.2,7.2c-4.4,3.4-8.8,6.9-13.3,10.4c-0.6-0.6-1-1.1-1.4-1.5
		c-2.3-2.2-5.7-2.9-8.7-1.5c-5.4,2.5-9.7,6.3-12.8,11.1c-1.1,1.7-1.6,3.9-2.4,6c-1.5-1.7-3.4-3.6-5.1-5.7
		c-5.4-6.9-12.2-12.2-20.3-16c-1.5-0.7-1.9-1.3-1.2-2.8c3.3-7.5,6.4-15.1,9.9-22.6c1.7-3.7,4-7.2,6.1-10.8c1.2-2.1,2.8-4.1,3.7-6.2
		c1.4-3.3,4.2-4.6,7.5-4.3c6.8,0.5,13.5,1.4,20.7,2.1c-1,2.7-1.6,4.7-2.5,6.7c-4.4,10.1-7.1,20.6-9.2,31.3c-0.2,0.8-0.5,1.6-0.5,2.4
		c0,0.7,0.2,1.8,0.6,1.9c0.6,0.2,1.8,0,2.2-0.4c1.1-1.1,2.1-2.4,2.8-3.8c1.4-2.9,2.5-6,3.8-8.9c3.7-8.5,7.4-17.1,11.2-25.7
		c4.3,1.5,8.6,2.7,12.7,4.5c12.7,5.6,26.2,8,39.8,10.2c12.2,2,24.4,3.6,36.9,3.5c7.7,0,15.4,0.6,23,0.4c7.4-0.2,14.8-1.3,22.3-1.7
		c6.5-0.4,13.1-1.9,19.7-0.3c0.2,0.1,0.4,0.1,0.6,0.1c4.3,1,4.3,1.1,4.3,5.2c0,2.8-1.2,5.1-2.2,7.6c-1.6,4.1-2.5,8.4-3.6,12.6
		c-1.1,4.1-2.3,8.2-3.1,12.4c-0.6,3.2-0.9,6.5-1,9.8c-0.2,5.9,0.2,11.9-2.4,17.6c-0.7,1.4-1.3,2.9-2.4,4.1
		c-5.5,6.3-10.8,12.8-16.8,18.6c-7.3,7.1-15.1,13.8-23.2,20.1c-11.6,9-23.4,17.6-35.4,26.2c-3.5,2.5-7.6,4.2-11.7,5.8
		c-10.4,4.1-20.9,8-31.4,11.9c-0.8,0.3-1.8,0.5-2.5,0.2c-9.5-3.3-19.6-4.1-29.4-6.1c-4.8-0.9-9.5-1.9-14.5-2.9
		c12.9-7.1,18.6-20.4,13.2-29.7c7.6-4.7,15-10,23.1-14.1c11.2-5.6,22.8-10.3,34.3-15.3c11.1-4.8,21.6-10.5,31.7-17
		c1.6-1,3.1-2.2,4.5-3.6c1.1-1,1.2-2.6-0.1-3.5c-0.8-0.6-2.7-0.8-3.5-0.3c-16.3,11.4-35.3,18.1-53.1,26.9c-10,5-19.9,10.4-29.8,15.6
		c-0.5,0.3-1,0.5-1.5,0.7C977.8,257.1,977.7,257,977.5,256.8L977.5,256.8z"/>
	<path class="st12" d="M877.8,177.5c-5.1-0.7-9.7,0.2-14.1,1.9c-6.2,2.5-11.8,5.9-16,10.9c-3.4,4.1-7.4,7.9-8.4,13.4
		c-0.6,3.3-1.8,6.6-2.8,9.9c-0.5,1.4-1.3,2.8-1.8,4.2c-0.3,0.9-0.9,2-0.7,2.7c0.7,2.1-0.6,3-1.8,4.2c-1.3,1.3-2.8,2.5-3.7,4
		c-2.2,3.8-2.3,7.7,0.8,11.3c0.6,0.7,1.2,1.4,1.9,2.2c-1.8,0.4-3.5,0.6-5.1,1.3c-2.4,1-4.7,2.4-7,3.5c-0.7,0.4-1.6,0.6-2.3,0.7
		c-3,0.1-6.1,0.2-9-0.1c-2.2-0.2-4.3-1-6.5-1.6c-7.9-2.3-15.6-5.2-21.9-10.5c-9.1-7.6-15.6-16.6-16.8-28.5c-1.1-11,0-21.8,3.4-32.4
		c0.5-1.5,1.1-1.9,2.8-1.4c4,1.1,8.1,2.1,12.2,2.8c1.9,0.3,2.9,1.3,3.8,2.7c0.7,1,1.2,2,1.9,3c1,1.3,2.6,1.2,3.1-0.2
		c3.2-9.6,11.9-13.4,20.4-17.4c8.2-3.9,16.9-5.8,26-5.1c10.5,0.7,20.6,3,29.5,8.7c0.9,0.6,1.8,1.2,2.8,1.6
		C872.6,170.8,875.4,173.6,877.8,177.5L877.8,177.5z"/>
	<path class="st11" d="M943.4,216.6c-1.5-0.9-2.9-1.6-4.1-2.5c-3-2.2-6-1.4-9.1-0.2c-2.1,0.8-3.9,1.9-5,3.9c-0.7,1.3-1.7,1.6-3.4,1
		c-5.6-2.1-11-1.4-16,1.7c-0.3,0.2-0.6,0.3-1.3,0.6c-2.9-6.4-5.8-12.7-8.7-19.1c-2.3,0.9-2.1,2.4-1.7,3.6c1,2.9,2.2,5.7,3.2,8.6
		c0.1,0.1-0.1,0.4-0.2,0.9c-4-4.2-8.9-5.6-14.4-4.9c-0.9,0.1-1.7,1.1-3.1,2.1c3,0.7,5.3,1.2,7.6,1.9c1.1,0.3,2.2,0.6,3.1,1.3
		c1.9,1.4,3.5,3.1,5.2,4.9c-4.5-0.4-8.9-2.5-13.4-0.6c-0.1,0.3-0.2,0.6-0.3,0.9c1.2,0.6,2.4,1.6,3.6,1.6c4.5,0,8.4,1.8,12.3,3.5
		c0.6,0.2,1.1,0.9,1.4,1.4c2.1,4.2,3.9,8.7,6.4,12.7c1.9,3.1,4.7,5.6,7.5,8.7c-1.3,0.8-2.7,1.6-4.1,2.5c-2.7,1.7-5.5,3.1-8,5.1
		c-1.5,1.2-2.2-0.1-3-0.4c-2.4-1.1-4.7-2.4-6.9-3.8c-3.2-2-6.4-4-9.2-6.4c-2.7-2.3-5.8-3.3-9.2-3.5c-2.8-0.2-5.7-0.4-8.5-0.9
		c-0.9-0.1-1.7-0.8-2.5-1.4c-2.7-1.9-5.3-3.8-7.8-5.9c-2.5-2.1-4.8-4.4-7.1-6.6c-1.6-1.6-3.4-3.2-4.4-5.2c-0.7-1.4-0.5-3.3-0.3-5
		c0.3-2.2,1-4.3,1.6-6.4c2.1-7.6,4.3-15.1,11-20.5c3.9-3.1,8.1-5.6,13.5-5.8c3.1-0.1,6.1-0.9,9.2-1.4c0.3-0.1,0.7-0.1,1.1-0.1
		c12.5-0.3,25-0.7,37.4-0.8c3.7,0,7.2,1.2,10.2,3.4c2.6,1.9,5.2,3.7,7.7,5.7c4.3,3.5,7,8.1,9.8,12.7c0.5,0.9,1.3,1.6,1.8,2.4
		c0.4,0.7,1,1.7,0.8,2.4C945.3,211.5,944.3,214,943.4,216.6L943.4,216.6z"/>
	<path class="st0" d="M1009.4,202.5c-2,1.9-4.2,3.2-3.1,5.9c1.2,3,4.2,2.1,7,2.4c-1.2,2-0.9,3.8,0.5,5.5c0.3,0.4-0.2,1.9-0.7,2.3
		c-6.3,5.1-12.7,10.1-19.3,15.2c0,0-0.3-0.4-0.6-0.4c-0.9,0-2-0.2-2.6,0.2c-0.5,0.3-0.3,1.4-0.5,2.2c-0.1,0.6,0,1.5-0.4,1.9
		c-5.2,4.9-10.4,9.7-15.7,14.5c-0.4,0.4-1.1,0.6-1.7,0.6c-4.3-0.1-8.5-0.6-12.3-2.5c-0.6-0.3-1.1-0.9-1.5-1.4
		c-3.8-6.6-7.8-13.1-9.1-20.7c-1-5.5-1.5-11.1,0.2-16.5c1.8-5.4,2.6-11.2,6.3-15.9c2-2.6,4.3-5,6.7-7.3c0.8-0.8,2-1.4,3.1-1.7
		c3.1-0.7,5.5,1.5,4.6,4.4c-0.5,1.6-1.8,3-2.9,4.4c-0.4,0.6-1.2,1.1-1.4,1.7c-0.2,0.5-0.2,1.5,0.2,1.8c0.5,0.4,1.5,0.5,2.1,0.3
		c7-2.1,13.9-4.4,20.9-6.6c0.9-0.3,2-0.2,3-0.2c1.5,0,1.9,0.7,1.5,2c-1,3.7-0.5,4.3,3.5,4.7c3,0.3,6,0.8,8.9,1.4
		C1007.2,201.1,1008.1,201.9,1009.4,202.5L1009.4,202.5z M981.4,209.9c-0.5,1.2-1.3,2.1-1.1,2.7c0.9,2.7,1.9,5.4,3,8.1
		c0.5,1.2,1.5,1.3,2.7,0.8s1.7-1.3,1.2-2.4c-1.1-2.4-2.3-4.7-3.6-7C983.3,211.4,982.5,210.9,981.4,209.9L981.4,209.9z"/>
	<path class="st0" d="M927.8,226.5c0.2-4.6,1.7-7.8,6.3-9c2.9-0.7,6.5,1.6,6.8,4.3c0.8,7.4,4.4,13.9,7.9,20.3
		c1.7,3.2,3.7,6.3,5.8,9.3c1,1.4,2.6,2.5,4.1,3.5c2.6,1.8,3.6,4.1,3.3,6.8c-5.9,0.7-11.6,1.6-17.4,2.1c-1.7,0.1-3.5-0.5-5.1-1.2
		c-3.7-1.8-7.3-3.9-10.8-6c-1-0.6-1.7-1.8-2.7-2.5c-2.5-1.8-5.4-3.1-7.5-5.2c-2-2.1-2.9-5.2-4.8-7.3c-3.6-3.9-4.3-8.7-5.7-13.2
		c-0.7-2.3,0.4-4.1,2.9-5.1c4.7-1.8,11-2.3,15.2,2.2C926.4,225.9,927,226.1,927.8,226.5L927.8,226.5z M926.5,247.5
		c0.5,1.5,3,3.6,4.1,3.2c0.8-0.2,1.7-1.1,1.8-1.9c0.3-1.6-2.2-4.6-3.3-4.1C928,245.2,927.3,246.5,926.5,247.5L926.5,247.5z
		 M942.4,250.3c-0.3,0-0.7,0-1,0c-0.6,0.9-1.7,1.7-1.7,2.6c0,0.7,1.3,1.4,2.1,2.1c0.7-0.7,1.9-1.4,2-2.1
		C943.9,252.1,942.9,251.2,942.4,250.3L942.4,250.3z M931.1,231.9c-0.9,1.1-1.9,1.8-1.9,2.4c0,0.7,1.2,1.8,1.7,1.8
		c0.8-0.1,1.8-1,2-1.7C933,233.8,932,233,931.1,231.9L931.1,231.9z"/>
	<path class="st0" d="M906.2,291.6c-1.8,1.4-3.5,1-5.2,0.2c-1.7-0.8-1.5-2.1-1.3-3.5c1.2-6.9-2.8-13.2-10.6-16.9
		c-5.5-2.6-11.1-1.9-16.9-0.4c-2.6-4.4-6.4-7.7-11.2-10.1c-1.2-0.6-1.9-2-2.8-3.1c-1.5-1.9-3-3.8-4.3-5.9c-0.8-1.2-1.2-2.7-1.6-4.1
		c-0.1-0.3,0.3-0.9,0.6-1.1c1.1-0.9,2.3-1.6,3.2-2.2c5.6,2.4,11.2,4.2,17.1,4.4c2.1,0.1,3.8,0.5,5.4,1.6c3.1,2.2,6.2,4.4,9.4,6.6
		c5.7,3.9,11.4,7.7,17,11.6c1.9,1.3,3.7,2.6,5.3,3.8c-1.5,3.1-3,6.3-4.6,9.5C904.3,285.1,904.2,288.3,906.2,291.6L906.2,291.6z"/>
	<path class="st0" d="M914.1,269.3c4.1-3.1,8.1-6.1,12.3-9.3c2.5,1.4,5.2,2.9,7.8,4.5c5.5,3.3,11.4,3.9,17.9,2.8
		c4-0.7,8.2-0.3,12.3-0.3c1.7,0,2.6,0.9,3.5,2.3c3.2,5.3,1.5,10-1.6,14.7c-0.6,0.9-1.5,1.7-2.1,2.6c-3.9,5.5-9.6,7-16.1,6.5
		c-2-0.1-4.3-0.9-6-2c-4.3-2.9-7.2-6.7-7-12.2c0.2-4.3-2.2-7.2-6.3-9c-4.8-2.1-9.6-3.1-14.5,0.2
		C914.3,269.8,914.2,269.5,914.1,269.3L914.1,269.3z"/>
	<path class="st0" d="M832.2,261.9c-4.2,2.8-5.1,6.7-5.4,10.9c-0.3,4.8-6.5,9.3-11.5,8.5c-7.3-1.3-12.3-5.5-15.4-11.7
		c-0.6-1.1-0.4-2.7-0.3-4c0.2-2.5,0.5-5,0.7-7.6c0.1-1.5,0.8-2.6,2.2-3.3c0.8-0.4,1.7-0.9,2.3-1.4c7.1-6.1,16-3.3,21,1.7
		C828.1,257.2,830,259.5,832.2,261.9L832.2,261.9z"/>
	<path class="st0" d="M854.3,287.4c-3.8,0-7.3-0.9-10.2-3.4c-3-2.5-6-5-9-7.5c-1.3-1-1.6-2.2-1.3-3.8c0.4-1.9,0.1-3.8,1.8-5.5
		c3.3-3.4,7.7-4.8,12.3-4.8c8.3,0,15.2,3.1,19.8,9.9c0.8,1.2,1.2,2.3,0.5,3.6c-0.4,0.8-0.6,1.7-0.9,2.5
		C865.4,284.2,860.6,287.5,854.3,287.4L854.3,287.4z"/>
	<path class="st0" d="M869.6,286.8c1.5-4.4,2.8-8.4,4.2-12.4c6.5-0.9,12.8-0.6,18,4.4c3.3,3.2,4,6.5,2.2,11.1
		c-1.4,3.4-5.9,5.5-10.3,5C875.8,294.2,875,293.7,869.6,286.8L869.6,286.8z"/>
	<path class="st0" d="M920.3,272.1c5.1,0.5,8.2,3,10.9,5.8c0.7,0.8,0.9,2.4,0.7,3.5c-0.3,2.8-0.8,5.7-1.6,8.4
		c-0.8,2.9-5,6.9-8.8,6.3c-0.3,0-0.6,0-0.9-0.1c-5.7-1.1-10.5-7.8-10-13.3c0.3-4.1,2.4-6.9,5.7-9.2
		C917.6,272.7,919.3,272.4,920.3,272.1L920.3,272.1z"/>
	<path class="st0" d="M824.8,249.7c6.9-3.6,13.9-4.1,21.1-1.8c1.3,0.4,2.4,1.7,3.2,2.8c1.7,2.4,3,4.9,4.6,7.4c-3.2,0-6.6-0.1-10,0
		c-2.1,0.1-4.1,0.8-6.1,1.2c-0.5,0.1-1.4,0.1-1.7-0.2c-1.7-1.7-3.1-3.6-4.9-5.2C829.1,252.4,827,251.2,824.8,249.7L824.8,249.7z"/>
	<path class="st0" d="M852.8,240.6c-0.6,0.4-1,0.5-1.2,0.8c-2,2.9-4.3,2.4-7.3,1.2c-2.2-0.9-4.9-0.8-7.4-1.2c-0.8-0.1-1.8-0.5-2.3-1
		c-3.9-4.6-4.1-7.6,0.4-13.2c0.6-0.8,1.2-1.5,2.2-2.5C840.8,231.3,846.4,236.2,852.8,240.6L852.8,240.6z"/>
	<polygon class="st0" points="976.8,257.8 976.7,257.6 976.9,257.6 	"/>
	<path class="st0" d="M977.9,257.2c-0.2,0-0.4,0.1-0.6,0.1c0.1-0.1,0.2-0.3,0.2-0.5C977.7,256.9,977.8,257.1,977.9,257.2
		L977.9,257.2z"/>
	<path class="st10" d="M981.4,209.9c1.1,1,1.9,1.4,2.3,2.1c1.3,2.3,2.4,4.6,3.6,7c0.5,1.2,0,1.9-1.2,2.4c-1.2,0.5-2.2,0.4-2.7-0.8
		c-1.1-2.7-2.2-5.3-3-8.1C980.1,212,980.8,211.1,981.4,209.9L981.4,209.9z"/>
	<path class="st10" d="M926.5,247.5c0.8-0.9,1.5-2.2,2.5-2.7c1.1-0.5,3.6,2.4,3.3,4.1c-0.1,0.7-1,1.6-1.8,1.9
		C929.5,251.1,927,248.9,926.5,247.5L926.5,247.5z"/>
	<path class="st10" d="M942.4,250.4c0.5,0.8,1.5,1.7,1.4,2.5c-0.1,0.8-1.3,1.4-2,2.1c-0.7-0.7-2.1-1.4-2.1-2.1
		c0-0.9,1.1-1.7,1.7-2.6C941.7,250.3,942.1,250.3,942.4,250.4L942.4,250.4z"/>
	<path class="st10" d="M931.1,231.9c0.9,1.1,2,1.9,1.8,2.5c-0.2,0.7-1.2,1.6-2,1.7c-0.5,0.1-1.7-1.1-1.7-1.8
		C929.2,233.7,930.2,233,931.1,231.9L931.1,231.9z"/>
</g>
<text transform="matrix(1.06 0 0 1 1242.5703 180.3901)" class="st4 st5 st6 st9">AK</text>
<text transform="matrix(1.06 0 0 1 1198.167 228.3901)" class="st4 st7 st8">P</text>
<text transform="matrix(1.06 0 0 1 1224.6035 228.3901)" class="st4 st7 st8">r</text>
<text transform="matrix(1.06 0 0 1 1238.6484 228.3901)" class="st4 st7 st8">o-Choice </text>
<text transform="matrix(1.06 0 0 1 1231.4297 276.3901)" class="st4 st7 st8">Spends </text>
<text transform="matrix(1.06 0 0 1 1208.502 324.3896)" class="st4 st7 st8">28% more</text>
<g>
	<path class="st10" d="M1359.7,582.5c-0.2-0.6-0.4-1.2-0.7-1.8c-2.2-3.6-1.4-6.7,1.7-9.5c1.4-1.3,2.8-1.6,4.5-0.2
		c3.3,2.6,6.6,5.4,9.9,8c2.3,1.8,4.8,3.4,7.2,5.1c1.6,1.1,3.1,2.3,4.5,3.6c3.3,3.2,7.6,4.1,11.9,5.1c0.6,0.1,1.3-0.3,1.9-0.5
		c27-12.4,54.1-24.8,81-37.2c3.2-1.5,6-3.5,8.9-5.3c0.4-0.2,0.7-0.9,0.6-1.3c-0.4-3.3,0-6.5,0.7-9.7c1.4-5.8,2.3-11.8,3.4-17.7
		c0-0.2,0-0.4,0.1-0.6c1.7-3.2,0-5.5-1.9-8c-2.3-3-4.3-6.1-6.3-9.2c-0.5-0.8-0.7-1.9-1-2.9c-2.9-1.2-6.1-2.2-9-3.7
		c-3.3-1.7-6.2-3.9-8-7.2c-1.1-2.1-1.3-4.3-0.3-6.6c-7-5.7-14-11.5-21.1-17c-21.1-16.3-41.5-33.2-61.9-50.3
		c-14.1-11.8-28.7-23-43.1-34.6c-2.8-2.2-5.3-4.8-7.8-7.3c-0.7-0.7-1.2-1.8-1.3-2.7c-0.1-1.7,1.9-2.7,3.7-1.9
		c0.6,0.3,1.1,0.7,1.6,1.1c15.2,14,31.4,26.8,47.8,39.4c10,7.6,19.2,16.2,29,24c13.5,10.8,27.3,21.3,40.8,32
		c5.4,4.3,10.4,8.9,15.7,13.3c0.4,0.3,1.1,0.6,1.5,0.5c3.7-1,7,0.2,10.4,1.1c2.8,0.8,5.4,1.8,8.4,2.8c-0.4-0.7-0.8-1.3-1.3-2
		c-2.1-3-4.7-5.9-5-9.8c-0.1-1.5,0.2-3-0.1-4.4c-0.2-1.1-1-2.2-1.9-3c-3.6-3.3-7.4-6.4-11-9.8c-28.2-26.7-56.3-53.5-84.5-80.1
		c-10.1-9.5-20.5-18.6-30.7-28.1c-2.5-2.3-4.5-5-6.7-7.5c-0.5-0.6-0.7-1.4-0.7-2.4c3.5,2.6,6.9,5.2,10.4,7.7
		c13.7,9.9,25.6,21.5,37.8,33c28.2,26.5,56.2,53.2,84.2,79.8c2.5,2.4,5.1,4.7,7.6,7c8.1-1.1,15.7-0.2,21.3,5.5
		c1.7-0.3,3.1-0.8,4.5-0.8c9.8,0.4,19.6,1.2,29.1,3.5c1.8,0.4,3.4,0.2,4.6-1.3c0.3-0.4,0.8-0.7,1.2-1c4.4-3.2,8.8-6.5,13.1-9.8
		c0.4-0.3,0.8-0.9,0.7-1.2c-0.2-0.5-0.7-1-1.2-1.1c-1.1-0.2-2.3-0.3-3.4-0.3c-3.6,0.1-6.3-1.4-8.8-3.8c-3.2-3.2-4.7-6.9-5.4-11.2
		c-1-6-1.1-6,4-9.6c1.5-1.1,2.5-2.1,2.5-4.1c0.1-5.5,2.4-9.8,7.3-13.1c2.2-1.5,4-3.7,5.3-5.9c3-4.9,7.7-7.5,13.1-8.9
		c4.9-1.3,9.9-2,15.1-1.8c12,0.4,23.8-1.3,35.5-4.2c3.7-0.9,7.3-1.8,10.5-4c0.7-0.5,2-0.1,3.1-0.2c-1,4.3,1.2,6.7,5.6,7
		c5.8,0.5,10.8-2.2,16-3.8c1-0.3,1.9-0.7,2.9-0.9c0.6-0.1,1.6-0.1,1.9,0.2c3.9,3.6,9.1,4,14,5c4.6,1,9.2,0.3,13.8-0.2
		c1.4-0.2,3-0.4,3.8,1.1c0.8,1.6-0.4,2.6-1.4,3.6c-2.9,2.9-6,5.8-8.6,9c-2.9,3.7-2.8,8.1-1.3,12.4c0.8,2.1,1.9,4.1,2.8,6.2
		c1.9,4.4,1.1,8.5-2.3,11.8c-2.8,2.8-6.2,5-9.1,7.7c-1.6,1.5-2.7,3.3-3.9,5.1c-1.8,2.7-3.5,2.8-5.6,0.3c-2-2.3-4.9-3.1-7.8-3.8
		c-8.1-2.1-16.3-2-24.5-0.9c-8.1,1.1-16,2.7-24,4.1c-7,1.3-13.9,2.1-21.4,0.3c0.7,2,1.1,3.9,1.8,5.7c3.3,7.5,4.1,15.4,3.6,23.4
		c-0.2,4.2-2.5,7.5-4.2,11.2c-3.8,8.1-7.3,16.2-11,24.3c-3,6.7-6,13.4-8.9,20.1c-2.1,4.7-3.3,9.6-3.1,14.8c0.2,5.3-1.5,9.8-6,13.1
		c-1.2,0.9-2.5,1.8-3.7,2.7c-0.3,0.2-0.6,0.6-0.7,0.9c-0.2,3.1-2.4,4.8-5,5.8c-4.1,1.7-8.3,3.2-12.6,4.5c-7.2,2.3-14.4,4.3-21.6,6.5
		c-1.1,0.3-2.2,0.7-3.3,0.8c-3.3,0.5-4.5-0.3-5.3-3.7c-3.4,0.9-6.8,1.6-10,2.7c-21,7-42,14-62.9,21.1c-10.7,3.6-21.3,7.5-32,11.2
		c-0.8,0.3-1.5,0.9-2.3,1.3c-3.9,2-7.6,4.3-11.6,5.9c-5.6,2.2-10.8,0.3-15.5-2.8c-0.5-0.4-0.9-1.1-1.1-1.8
		c-1.8-7.5-6.2-13-12.3-18.1c-6.2-5.2-11-12-16.3-18.2c-1.6-1.9-1.3-3.7,0.2-5.1c1.8-1.6,3.9-1.7,6.1-0.4
		C1357.3,581.3,1358.5,581.8,1359.7,582.5c0,0.1,0,0.2,0,0.3c0.1,0,0.1,0,0.2,0C1359.8,582.7,1359.7,582.6,1359.7,582.5
		L1359.7,582.5z M1672.7,448.8c3.4-2.7,6.4-5.2,9.6-7.7c6.1-4.7,6.4-5.9,3.2-12.6c-1.5-3-2.5-6.1-2.5-9.5c0-4.7,1.1-8.9,5.6-11.7
		c1.1-0.7,2.3-1.5,3.1-2.5c0.5-0.6,0.9-1.7,0.6-2.4c-0.2-0.6-1.3-1.1-2.1-1.2c-5.2-0.4-10.4-1.3-15.3-3c-2.3-0.8-4.5-1.7-6.8-2.4
		c-0.8-0.2-1.7-0.3-2.5-0.1c-1.1,0.2-2,0.7-3,1.2c-5.9,2.5-12,3.9-18.5,3.6c-4-0.2-5.8-1.4-6.6-4.2c-4.4,1-8.8,2.5-13.2,3
		c-6.6,0.8-13.3,0.8-20,1.2c-4.6,0.3-9.3,0.6-13.9,1.3c-3.4,0.5-6.8,1.7-10.2,2.6c-5.6,1.4-9.1,5-12.2,9.4c8.7,4.6,8.8,12.1,8,20.1
		c1-0.4,1.8-0.9,2.6-0.9c1,0,2.4,0.1,2.9,0.8c1.5,2,1.1,4.4,0.4,6.5c-0.3,1-1.7,1.7-2.7,2.6c0.4,0.6,0.9,1.6,1.7,2.5
		c4.9,5.8,11.7,8,19.2,7.7c5.4-0.2,10.8-1.5,15.9-3c13.5-3.9,27.2-5.3,41.3-4.4C1662.6,446.1,1668.2,446.1,1672.7,448.8
		L1672.7,448.8z M1568.1,545.1c0.7-2.4,1.1-4.8,2-7c2.6-6.5,5.3-12.9,8-19.4c2.9-6.9,5.7-13.7,8.8-20.5c2.6-5.6,5.6-10.9,5.8-17.3
		c0.3-8.1,0.1-16.1-2.9-23.8c-0.2-0.6-1-1.3-1.5-1.3c-5.5,0-11,0.4-16.3,2.2c-0.5,0.2-1,0.6-1.4,1c-1.3,1.1-2.4,2.4-3.8,3.4
		c-4.2,3-8.5,6-12.7,8.9c1.7,1.8,3.2,3.3,4.5,4.9c0.6,0.8,0.7,1.9,1,2.9c-1.1-0.2-2.3-0.3-3.3-0.7c-1-0.4-1.9-1.2-3.1-1.9
		c0.6,2.4,1.2,4.4,1.7,6.5c0.1,0.5-0.4,1.1-0.6,1.6c-0.6-0.2-1.4-0.3-1.7-0.7c-0.7-0.8-1.1-1.8-1.5-2.7c-0.7-1.4-1.4-2.8-2.2-4.3
		c-1.7,1.2-3.2,2.3-4.7,3.2c-0.4,0.3-1.2,0.1-1.8,0.2c0.1-0.5,0.1-1.1,0.3-1.5c0.8-1.4,1.8-2.7,3.1-4.5c-9.8-0.6-19.1-1.2-28.5-1.8
		c-0.4,5.1-0.7,9.9-1.1,14.9c1.1,0.2,2.1,0.4,3.1,0.5c12.2,0.8,24.3,1.7,36.5,2.3c1.9,0.1,4-0.2,5.7-1c4.1-2,7.8-4.5,11.8-6.4
		c2.6-1.3,4.7-3,6.3-5.3c1-1.4,2.2-2.8,3.5-4c0.5-0.5,1.4-0.5,2.1-0.7c0,0.7,0.2,1.5-0.2,2.1c-1.1,2-2.4,3.9-3.8,6
		c1.8-0.7,3.3-1.4,4.9-1.9c0.5-0.1,1.6,0.2,1.8,0.6c0.2,0.5-0.1,1.3-0.5,1.8s-1.1,0.8-1.7,1c-2.2,0.9-4.5,1.5-6.6,2.5
		c-6.2,2.9-12.3,6-18.5,9c-1.1,0.5-2.6,0.7-3.9,0.7c-3.6-0.1-7.2-0.5-10.8-0.6c-0.6,0-1.4,0.4-1.7,0.9c-2.6,3.6-5.1,7.3-7.6,10.9
		c-1.6,2.4-3.3,4.7-5.2,7.3c2.3-0.2,4.2-0.4,5.3,1.2c1.3,1.9,2.5,3.8,3.4,5.9c2.1,4.5,4.1,9,6.1,13.5c0.9,2.2,1.9,4.1,4.8,4.2
		c0.3,0,0.6,0.2,0.9,0.4C1557.2,540.4,1562.4,542.6,1568.1,545.1L1568.1,545.1z M1408.1,618.4c2-1.3,3.2-2.3,4.7-2.9
		c3.6-1.5,7.3-2.8,10.9-4.3c5.3-2.1,10.6-4.2,15.9-6.3c5.1-2,10.1-4,15.2-5.9c4.7-1.8,9.3-3.6,14-5.3c5.4-2,10.8-4,16.3-5.9
		c3.2-1.1,6.4-2.3,9.7-3.3c5.7-1.8,11.5-3.5,17.2-5.3c0.5-0.2,1.1-1,1.1-1.5c0-2.2,0-4.5-0.4-6.8c-0.8-4.7-1.9-9.3-2.9-13.9
		c-0.6-2.5-1.2-4.9-1.9-7.4c-0.3-0.8-0.7-1.8-2.2-1.1c-3.5,1.6-7.1,3.1-10.6,4.7c-3.8,1.7-7.5,3.4-11.3,5.2
		c-6.5,3-13.1,5.9-19.6,8.9c-6.4,2.9-12.9,5.8-19.2,8.8c-4.2,2-8.4,4.2-12.6,6.3c-0.4,0.2-0.7,0.4-1.1,0.6c-5.9,2.7-11.8,5.3-17.7,8
		c-1,0.5-2.1,0.8-3.2,1.2c-2.3,0.9-4.6,1.7-6.9,2.6c-0.4,0.2-0.7,0.5-1,0.9c-1.6,2.3-2.2,4.6-2.2,7.4c-0.1,3.7,1.2,6.9,2.9,10
		C1404.4,615.1,1406.5,616.7,1408.1,618.4L1408.1,618.4z M1581.6,451.3c-1.4-1.8-3.1-3.7-4.5-5.8c-0.8-1.1-1.2-2.4-1.6-3.6
		c-0.4-1,0.1-1.7,1.3-1.9c3-0.5,3.6-1.5,2.8-4.8c-0.6,0.3-1.3,0.5-1.8,0.9c-1.3,1.1-2.5,0.2-3.5-0.2c-0.4-0.2-0.3-1.6-0.2-2.4
		c0-1,0.3-2,0.4-3c0.5-6-2.5-11.2-7.7-13.7c-1.2-0.6-2-0.4-3.1,0.4c-4.3,3.1-6.4,7.3-7.4,12.2c-0.2,1.2-1,2.5-1.9,3.4
		c-1.9,1.8-4,3.4-6.3,5.3c1.3,3.6,2.1,7.5,4,11c1.9,3.4,5,6.1,9.6,6.1c1.9,0,3.8,0.1,5.7,0.4c1.6,0.2,3.4-1.6,5.3-2.2
		C1575.6,452.5,1578.8,452,1581.6,451.3L1581.6,451.3z M1538.2,493.2c-0.5-0.1-0.9-0.3-1.3-0.3c-5.4-0.5-10.8-0.8-16.2-1.4
		c-2-0.2-4-0.9-5.9-1.5c-1.4-0.4-2.7-1.5-4.1-1.6c-3.7-0.3-7.4-0.2-11.1-0.2c-0.8,2.3-1.7,4.9-2.7,7.6c1.1,0.4,2.2,0.8,3.4,1.2
		c5.7,1.8,11.5,3.4,17.1,5.5c3.6,1.4,7,0.9,10.5,0.5c0.3,0,0.7-0.2,0.9-0.4C1531.9,499.5,1535,496.4,1538.2,493.2L1538.2,493.2z
		 M1511.3,484.6c0.2-3.2,0.1-6,0.6-8.7c0.4-2.1-0.2-3.6-1.8-4.8c-4.6-3.7-10-5-15.7-4.1c-4.6,0.7-5.7,3.1-3.4,7
		c1.8,2.9,3.9,5.7,6.2,8.3c1,1.1,3,1.9,4.6,2.1C1504.8,484.7,1507.9,484.5,1511.3,484.6L1511.3,484.6z M1495.8,486.1
		c-2.5-0.5-5-1-7.4-1.5c-3.7-0.9-7.3-1.9-11.1-2.7c-3.8-0.7-6.7,1.8-5.6,4.7c0.4,1,1.1,1.9,1.8,2.8c3,3.6,7.1,5.7,11.6,7.1
		c4.2,1.3,7.3-0.1,8.5-4.1C1494.4,490.2,1495.1,488.1,1495.8,486.1L1495.8,486.1z M1550.4,542c3.9,8.2,7.5,15.8,11.1,23.6
		c3.8-3,6.5-6.2,5.9-10.9c-0.3-2.1-0.1-4.4-2.4-5.7c-1.2-0.7-2.6-1.2-3.9-1.9c-1.6-0.8-3.2-1.8-4.8-2.6
		C1554.5,543.6,1552.7,542.9,1550.4,542L1550.4,542z M1511.2,505.6c-1.3,4.9-2.6,9.6-4,14.5c6.7-2,13-3.9,19.1-5.7
		c0.2-2.2,0.5-4.3,0.8-6.9C1521.3,509.4,1516.1,507.6,1511.2,505.6L1511.2,505.6z M1503.1,517.9c0.2-0.1,0.3-0.2,0.5-0.3
		c1.2-4.5,2.5-9.1,3.7-13.6c-3.4-1.5-6.8-2.8-10-4.5c-2.5-1.4-4.5-0.6-6.7,0.6C1494.8,506.1,1499,512,1503.1,517.9z M1503.9,534.8
		c-1.2-4.5-2.3-9-3.5-13.5l-0.4,0.2c-1,5-2,10.1-3.1,15.3C1499.3,536.1,1501.5,535.5,1503.9,534.8L1503.9,534.8z"/>
	<path class="st0" d="M1672.7,448.8c-4.5-2.6-10-2.7-15.5-3.1c-14-0.9-27.8,0.5-41.3,4.4c-5.2,1.5-10.6,2.8-15.9,3
		c-7.4,0.4-14.2-1.9-19.2-7.7c-0.7-0.9-1.3-1.9-1.7-2.5c0.9-0.9,2.3-1.6,2.7-2.6c0.7-2.1,1.1-4.5-0.4-6.5c-0.5-0.6-1.9-0.8-2.9-0.8
		c-0.8,0-1.6,0.5-2.6,0.9c0.8-8,0.7-15.5-8-20.1c3.1-4.3,6.6-8,12.2-9.4c3.4-0.8,6.7-2,10.2-2.6c4.6-0.7,9.2-1,13.9-1.3
		c6.7-0.5,13.4-0.5,20-1.2c4.5-0.5,8.8-2,13.2-3c0.8,2.8,2.6,4,6.6,4.2c6.5,0.3,12.6-1.1,18.5-3.6c1-0.4,2-0.9,3-1.2
		c0.8-0.2,1.8-0.1,2.5,0.1c2.3,0.7,4.5,1.6,6.8,2.4c5,1.7,10.1,2.6,15.3,3c0.8,0.1,1.9,0.6,2.1,1.2c0.2,0.7-0.1,1.8-0.6,2.4
		c-0.8,1-2,1.8-3.1,2.5c-4.6,2.8-5.6,7-5.6,11.7c0,3.4,1,6.5,2.5,9.5c3.3,6.7,2.9,7.9-3.2,12.6
		C1679.1,443.6,1676.1,446.1,1672.7,448.8L1672.7,448.8z M1683.1,405.3c-0.1-0.2-0.2-0.4-0.2-0.6c-1.6-0.1-3.4-0.8-4.7-0.2
		c-8.4,3.8-17.3,5.4-26.4,6.2c-10.6,0.9-21.2,1.4-31.7,1.8c-8.7,0.3-16.6,2.5-23.9,6.8c-4.5,2.6-7.9,6-9.7,10.8
		c-0.4,1.1-0.9,2.3,0.6,3.2c2.5-5.4,7.1-8.8,12.1-11.6c6.9-3.9,14.6-4.6,22.4-4.7c12-0.1,23.9-0.3,35.8-1.9c6.2-0.9,12.3-2.1,17.9-5
		C1677.9,408.6,1680.5,406.9,1683.1,405.3L1683.1,405.3z M1587.9,443.8c0,0.2,0,0.4,0,0.5c0.2,0.1,0.4,0.3,0.7,0.3
		c0.7,0.2,1.3,0.4,2,0.5c5.7,0.6,11.4,0.4,16.9-1.3c1.8-0.6,3.6-1.2,5.4-1.6c16.8-4.1,33.8-5,51-3.8c2.6,0.2,5.3,0.3,7.9,0.4
		c0.6,0,1.1-0.5,1.7-0.8c-0.4-0.4-0.8-0.9-1.3-1.2c-5.9-2.6-12.3-3.4-18.7-3.5c-16.7-0.3-33.1,2-48.9,7.4c-1.8,0.6-3.8,1-5.7,1.4
		C1595.3,442.7,1591.6,443.2,1587.9,443.8L1587.9,443.8z M1676.6,420.3c-1.1-0.1-1.9-0.3-2.7-0.2c-2.1,0.3-4.1,1-6.2,1.2
		c-10,1-20,2-30.1,1.2c-8.8-0.7-17.7-1.4-26.3,1.3c-8,2.5-15.2,6-19.3,13.4c-0.3,0.6-0.2,1.5-0.3,2.3c0.8-0.2,1.8-0.4,2.5-0.7
		c0.4-0.2,0.6-0.8,1-1.2c1.7-1.6,3.1-3.4,5-4.8c8-5.6,17.2-7.9,27.1-7.3c9.2,0.5,18.3,1.5,27.4,0.4c5-0.6,10.1-0.9,15.1-1.6
		C1672.5,424,1674.8,422.7,1676.6,420.3L1676.6,420.3z M1652.6,406c-0.8,0-1.7,0-2.5,0c-6.9,0.6-13.8,0.2-20.7-0.7
		c-3.7-0.5-7.6-0.9-11.3-0.6c-10.1,0.8-19.6,4-28.4,8.6c-4,2.1-7.3,5.2-10.8,8c-0.5,0.4-0.3,1.8-0.4,2.7c0.8-0.2,1.8-0.1,2.4-0.6
		c10-8.6,22.1-12.5,35.2-14.7c6.9-1.1,13.7-0.3,20.5-0.1C1642.1,408.8,1647.4,407.8,1652.6,406L1652.6,406z M1576.5,417.4
		c2-1.4,3.8-2.8,5.7-4c5.1-3.2,10-6.8,16.1-8.2c0.4-0.1,0.7-0.7,1-1c-0.4-0.3-0.8-0.8-1.2-0.9c-0.8-0.1-1.8-0.1-2.6,0
		c-8.4,1.6-14.6,6.7-20.5,12.3C1575.5,416.3,1576,416.9,1576.5,417.4L1576.5,417.4z"/>
	<path class="st12" d="M1568.1,545.1c-5.7-2.4-10.9-4.6-16.1-6.8c-0.3-0.1-0.6-0.3-0.9-0.4c-2.9-0.1-3.9-2-4.8-4.2
		c-1.9-4.5-3.9-9-6.1-13.5c-1-2-2.2-4-3.4-5.9c-1.1-1.7-3-1.5-5.3-1.2c1.9-2.6,3.6-5,5.2-7.3c2.5-3.6,5-7.3,7.6-10.9
		c0.3-0.5,1.1-0.9,1.7-0.9c3.6,0.1,7.2,0.5,10.8,0.6c1.3,0,2.8-0.1,3.9-0.7c6.2-2.9,12.3-6,18.5-9c2.1-1,4.4-1.6,6.6-2.5
		c0.6-0.2,1.3-0.5,1.7-1c0.4-0.5,0.7-1.3,0.5-1.8c-0.2-0.4-1.3-0.7-1.8-0.6c-1.6,0.4-3,1.1-4.9,1.9c1.4-2.2,2.7-4.1,3.8-6
		c0.3-0.6,0.1-1.4,0.2-2.1c-0.7,0.2-1.6,0.3-2.1,0.7c-1.3,1.2-2.5,2.6-3.5,4c-1.6,2.3-3.7,4-6.3,5.3c-4,2-7.8,4.5-11.8,6.4
		c-1.7,0.8-3.8,1.1-5.7,1c-12.2-0.7-24.3-1.5-36.5-2.3c-1-0.1-2-0.3-3.1-0.5c0.4-5,0.7-9.8,1.1-14.9c9.4,0.6,18.7,1.2,28.5,1.8
		c-1.2,1.8-2.2,3.1-3.1,4.5c-0.3,0.4-0.2,1-0.3,1.5c0.6-0.1,1.3,0.1,1.8-0.2c1.5-0.9,3-2,4.7-3.2c0.7,1.5,1.4,2.9,2.2,4.3
		c0.5,0.9,0.9,1.9,1.5,2.7c0.3,0.4,1.1,0.5,1.7,0.7c0.2-0.5,0.7-1.1,0.6-1.6c-0.4-2.1-1.1-4.1-1.7-6.5c1.1,0.7,2,1.5,3.1,1.9
		c1,0.4,2.2,0.5,3.3,0.7c-0.3-1-0.4-2.1-1-2.9c-1.3-1.6-2.8-3.1-4.5-4.9c4.2-3,8.5-5.9,12.7-8.9c1.4-1,2.5-2.3,3.8-3.4
		c0.4-0.4,0.9-0.8,1.4-1c5.3-1.8,10.8-2.1,16.3-2.2c0.5,0,1.3,0.8,1.5,1.3c3,7.7,3.1,15.7,2.9,23.8c-0.2,6.4-3.2,11.7-5.8,17.3
		c-3.1,6.8-5.9,13.6-8.8,20.5c-2.7,6.4-5.4,12.9-8,19.4C1569.2,540.3,1568.8,542.7,1568.1,545.1L1568.1,545.1z"/>
	<path class="st14" d="M1408.1,618.4c-1.6-1.7-3.7-3.4-4.9-5.5c-1.6-3.1-2.9-6.2-2.9-10c0.1-2.8,0.7-5.2,2.2-7.4
		c0.2-0.3,0.6-0.7,1-0.9c2.3-0.9,4.6-1.8,6.9-2.6c1.1-0.4,2.2-0.7,3.2-1.2c5.9-2.6,11.8-5.3,17.7-8c0.4-0.2,0.7-0.4,1.1-0.6
		c4.2-2.1,8.3-4.3,12.6-6.3c6.4-3,12.8-5.9,19.2-8.8c6.5-3,13.1-5.9,19.6-8.9c3.8-1.7,7.5-3.5,11.3-5.2c3.5-1.6,7.1-3.1,10.6-4.7
		c1.5-0.7,2,0.3,2.2,1.1c0.8,2.4,1.4,4.9,1.9,7.4c1,4.6,2.1,9.3,2.9,13.9c0.4,2.2,0.4,4.5,0.4,6.8c0,0.5-0.6,1.4-1.1,1.5
		c-5.7,1.8-11.5,3.5-17.2,5.3c-3.2,1-6.5,2.2-9.7,3.3c-5.4,1.9-10.9,3.9-16.3,5.9c-4.7,1.7-9.4,3.5-14,5.3c-5.1,2-10.1,3.9-15.2,5.9
		c-5.3,2.1-10.6,4.2-15.9,6.3c-3.6,1.4-7.3,2.7-10.9,4.3C1411.3,616.1,1410.1,617.1,1408.1,618.4L1408.1,618.4z"/>
	<path class="st0" d="M1581.6,451.3c-2.9,0.6-6.1,1.2-9.2,2.1c-1.8,0.5-3.7,2.4-5.3,2.2c-1.9-0.3-3.8-0.4-5.7-0.4
		c-4.6,0-7.7-2.7-9.6-6.1c-1.9-3.5-2.8-7.4-4-11c2.3-1.9,4.4-3.5,6.3-5.3c0.9-0.9,1.7-2.2,1.9-3.4c0.9-4.9,3-9.1,7.4-12.2
		c1.1-0.8,1.8-1,3.1-0.4c5.2,2.5,8.2,7.7,7.7,13.7c-0.1,1-0.3,2-0.4,3c0,0.8-0.1,2.2,0.2,2.4c1,0.4,2.2,1.4,3.5,0.2
		c0.5-0.4,1.2-0.6,1.8-0.9c0.8,3.3,0.2,4.3-2.8,4.8c-1.2,0.2-1.7,0.8-1.3,1.9c0.4,1.2,0.9,2.5,1.6,3.6
		C1578.5,447.6,1580.2,449.5,1581.6,451.3L1581.6,451.3z M1564.5,431c-0.1-0.2-0.1-0.3-0.2-0.5c-0.9-0.8-1.7-1.6-2.6-2.2
		c-0.5-0.4-1.3-0.5-2-0.5c-0.3,0-0.9,0.7-0.8,0.9c0.2,0.6,0.5,1.6,1,1.7C1561.3,430.7,1562.9,430.8,1564.5,431L1564.5,431z"/>
	<path class="st12" d="M1538.2,493.2c-3.2,3.2-6.3,6.3-9.3,9.3c-0.2,0.2-0.6,0.4-0.9,0.4c-3.5,0.4-6.9,0.9-10.5-0.5
		c-5.6-2.1-11.4-3.7-17.1-5.5c-1.1-0.4-2.2-0.8-3.4-1.2c0.9-2.7,1.8-5.2,2.7-7.6c3.7,0,7.4,0,11.1,0.2c1.4,0.1,2.7,1.2,4.1,1.6
		c1.9,0.6,3.9,1.3,5.9,1.5c5.4,0.6,10.8,0.9,16.2,1.4C1537.2,493,1537.6,493.1,1538.2,493.2L1538.2,493.2z"/>
	<path class="st0" d="M1511.3,484.6c-3.4-0.1-6.5,0.1-9.6-0.3c-1.6-0.2-3.5-1-4.6-2.1c-2.3-2.5-4.5-5.3-6.2-8.3
		c-2.3-3.8-1.2-6.2,3.4-7c5.8-0.9,11.2,0.4,15.7,4.1c1.5,1.2,2.2,2.7,1.8,4.8C1511.4,478.6,1511.5,481.4,1511.3,484.6L1511.3,484.6z
		"/>
	<path class="st0" d="M1495.8,486.1c-0.7,2.1-1.5,4.1-2.1,6.2c-1.2,4-4.3,5.4-8.5,4.1c-4.6-1.4-8.6-3.5-11.6-7.1
		c-0.7-0.8-1.4-1.8-1.8-2.8c-1.1-2.9,1.8-5.4,5.6-4.7c3.7,0.7,7.4,1.8,11.1,2.7C1490.9,485.1,1493.4,485.6,1495.8,486.1
		L1495.8,486.1z"/>
	<path class="st14" d="M1550.4,542c2.3,1,4.2,1.6,5.9,2.5c1.7,0.8,3.2,1.8,4.8,2.6c1.3,0.7,2.7,1.2,3.9,1.9c2.3,1.3,2.1,3.6,2.4,5.7
		c0.6,4.7-2.1,8-5.9,10.9C1557.9,557.8,1554.2,550.2,1550.4,542L1550.4,542z"/>
	<path class="st10" d="M1683.1,405.3c-2.6,1.6-5.2,3.3-7.9,4.7c-5.6,2.9-11.6,4.2-17.9,5c-11.9,1.6-23.8,1.8-35.8,1.9
		c-7.8,0.1-15.6,0.8-22.4,4.7c-5,2.9-9.6,6.2-12.1,11.6c-1.5-1-1-2.1-0.6-3.2c1.8-4.8,5.1-8.2,9.7-10.8c7.4-4.3,15.3-6.5,23.9-6.8
		c10.6-0.4,21.2-0.9,31.7-1.8c9.1-0.8,18.1-2.4,26.4-6.2c1.2-0.6,3.1,0.1,4.7,0.2C1682.9,404.9,1683,405.1,1683.1,405.3
		L1683.1,405.3z"/>
	<path class="st10" d="M1587.9,443.8c3.7-0.6,7.3-1.1,11-1.7c1.9-0.3,3.9-0.7,5.7-1.4c15.8-5.4,32.1-7.6,48.9-7.4
		c6.4,0.1,12.8,0.9,18.7,3.5c0.5,0.2,0.9,0.8,1.3,1.2c-0.6,0.3-1.1,0.8-1.7,0.8c-2.6,0-5.3-0.2-7.9-0.4c-17.2-1.2-34.2-0.3-51,3.8
		c-1.8,0.5-3.6,1.1-5.4,1.6c-5.5,1.7-11.2,1.9-16.9,1.3c-0.7-0.1-1.3-0.3-2-0.5c-0.2-0.1-0.5-0.2-0.7-0.3
		C1587.9,444.2,1587.9,444,1587.9,443.8L1587.9,443.8z"/>
	<path class="st10" d="M1676.6,420.3c-1.8,2.4-4.1,3.7-6.5,4.1c-5,0.8-10.1,1-15.1,1.6c-9.2,1-18.3,0.1-27.4-0.4
		c-9.8-0.6-19.1,1.7-27.1,7.3c-1.9,1.3-3.4,3.1-5,4.8c-0.4,0.4-0.6,1-1,1.2c-0.8,0.4-1.7,0.5-2.5,0.7c0.1-0.8-0.1-1.6,0.3-2.3
		c4.2-7.4,11.3-11,19.3-13.4c8.6-2.6,17.5-2,26.3-1.3c10.1,0.8,20.1-0.2,30.1-1.2c2.1-0.2,4.1-0.9,6.2-1.2
		C1674.7,420,1675.5,420.2,1676.6,420.3L1676.6,420.3z"/>
	<path class="st10" d="M1652.6,406.1c-5.2,1.7-10.5,2.7-16,2.6c-6.8-0.2-13.7-1-20.5,0.1c-13,2.2-25.1,6.1-35.2,14.7
		c-0.5,0.5-1.6,0.4-2.4,0.6c0.1-0.9-0.2-2.3,0.4-2.7c3.5-2.8,6.9-6,10.8-8c8.8-4.6,18.3-7.7,28.4-8.6c3.7-0.3,7.6,0.1,11.3,0.6
		c6.9,0.9,13.8,1.4,20.7,0.7C1650.9,406,1651.8,406.1,1652.6,406.1L1652.6,406.1z"/>
	<path class="st10" d="M1576.5,417.4c-0.5-0.5-1-1.1-1.5-1.7c5.8-5.6,12-10.7,20.5-12.3c0.8-0.2,1.8-0.2,2.6,0
		c0.4,0.1,0.8,0.5,1.2,0.9c-0.3,0.4-0.6,0.9-1,1c-6.1,1.4-11,5-16.1,8.2C1580.3,414.6,1578.5,416,1576.5,417.4L1576.5,417.4z"/>
	<path class="st10" d="M1564.5,431c-1.6-0.2-3.2-0.3-4.7-0.6c-0.5-0.1-0.8-1.1-1-1.7c-0.1-0.2,0.5-0.9,0.8-0.9c0.7,0,1.4,0.2,2,0.5
		c0.9,0.6,1.7,1.5,2.6,2.2C1564.4,430.6,1564.4,430.8,1564.5,431L1564.5,431z"/>
</g>
<g>
	<path class="st0" d="M846.1,914.1c0.4,3.1,0.2,6.2-0.8,9.2c-0.5,1.5-1.5,2.6-3.2,3.2c-2.8,1-5.6,1.3-8.5,0.6
		c-2.2-0.5-3.8-2.5-3.2-4.5c0.8-2.8,1.9-5.6,3-8.4c0.1-0.4,0.9-0.8,1.4-0.8C838.5,913.6,842.3,913.8,846.1,914.1L846.1,914.1z"/>
	<g>
		<path class="st10" d="M891.1,765.4c0.8,0.4,2,0.8,2.9,1.5c0.9,0.7,2.1,1.8,2.1,2.6c-0.1,1-1.2,2.2-2.2,2.7
			c-1.3,0.6-2.2,1.2-2.9,2.5c-0.8,1.7-2.4,1.9-5.3,1.2c-2.2,1.8-2.7,3-1.3,5.7c1.5,3,1.5,6.1,1.8,9.3c0.2,1.9-0.6,3.5-2,5
			c-2.9,3.2-6.7,4.8-10.9,5.9c-1,0.3-2.1,0.6-3.1,0.9c-2.2,0.8-2.7,1.4-2.1,3.5c0.9,3.4,1.9,6.7,3,10.1c0.7,2.3,1.6,2.5,3.6,0.9
			c1.5-1.2,2.8-2.6,4.4-3.6c3-1.8,6.2-3.6,9.4-5.1c1.8-0.8,3.4,0.3,4.8,1.2c4.4,2.8,8.7,5.9,13.2,8.5c3.2,1.8,6.9,2.9,10.1,4.7
			c5.3,2.8,10.9,4.8,16.5,6.8c5.7,2,11.1,4.4,16.7,6.7c1.1,0.5,1.8,0.4,2.7-0.3c5.2-4.5,9.2-9.7,12.1-15.6
			c3.4-6.8,6.9-13.7,10.3-20.5c0.6-1.2,1.1-2.2-0.4-3.3c-0.5-0.4-0.6-1.7-0.5-2.5c0.5-2.6,1.1-5.2,1.7-8.1c-2.9-1.1-5.9-2.5-9-3.5
			c-7-2.2-11.5-7-14.7-13c-1.5-2.8-1.3-5.9-0.3-9c-1.2-0.8-2.3-1.6-3.6-2.3c-1.7-1-2.5-2.2-2.3-4.1c0.4-4,0.9-8.1,1.2-12.1
			c0.1-1,0-2.1-0.5-2.9c-1.3-2.2-2.8-4.4-4.4-6.4c-3-3.8-4.3-8-4.2-12.8c0.2-5.6-0.2-11.1-0.3-16.7c0-1.4,0.1-2.9,0.2-4.3
			c-3.5,0.7-4.5,0.3-6-2.8c-0.4-0.9-0.8-1.8-1.1-2.7c-0.7-1.8-0.4-3.5,0.9-5.2c6.8-8.7,13.2-17.6,20.2-26.1
			c8.6-10.3,19-18.2,33.3-20.7c8.6-1.5,16.4,0.2,23.7,4.4c2.1,1.2,4.2,2.3,6.5,3.1c6.1,2.1,10.2,6.3,13.8,10.9
			c5.1,6.5,9.4,13.6,12.5,21.3c2.2,5.3,3.1,10.9,3.8,16.5c1.2,10.5-1.1,20.5-3.9,30.6c-1.9,6.8-2.9,13.9-4.4,20.9
			c-0.1,0.2,0,0.5,0.1,0.9c2.6-1.5,4.9-2.9,7.3-4.3c2.5-1.4,3.5-1,4.2,1.7c2.2,8,4.5,15.9,6.8,23.9c0.1,0.5,0.5,1.1,0.9,1.3
			c6.2,3.5,11.5,8.1,16.6,12.8c2.1,1.9,4.6,3.5,6.3,5.6c4.7,5.9,10.5,10.8,15.8,16.2c3.5,3.6,4.9,7.8,5,12.5
			c0.4,20.3,0.7,40.6,1.1,60.8c0.2,8.9,0.3,17.8,0.7,26.6c0.2,5.3,1.3,10.6,1.3,15.9c0,7.8-0.6,15.7-0.9,23.5
			c-0.1,3.1-0.2,6.2-0.3,9.5c-2.5,0.6-5.1,1.3-7.7,2c-8.5,2.1-16.9,4.2-25.4,6.2c-2.9,0.7-5.7,0.3-8.6-0.1c-5.1-0.7-10.2-0.8-15.4-1
			c-4.5-0.2-9,0.2-13.4-0.4c-4-0.5-7.9-1.8-11.6-3.2c-2.9-1.1-5.7-1.5-8.7-0.6c-9.9,2.8-19.9,5.6-29.8,8.4c-0.8,0.2-1.5,0.5-2.3,0.6
			c-5,1.2-7.4-1.7-6.8-6.1c1.9-13.3,4-26.6,6-39.9c0.7-4.4,1.2-8.8,1.7-13.3c-10.8-2.3-21.5-4.6-32.3-6.9c0,1.9-1,2.1-2.5,1.8
			c-1.7-0.4-3.5-0.6-5.2-0.9c-1.8-0.3-2.5,0.2-2.3,1.9c0.2,1.5,0.3,3,0.6,4.5c2.5,12.3,4.8,24.6,7.5,36.8c1.4,6.4,3.4,12.7,5.5,18.8
			c0.6,1.7,2.7,2.9,4.3,4.3c3.8,3.3,7.8,6.5,11.3,10c1.7,1.7,2.9,4,3.8,6.2c1.2,2.8-1.3,5.6-4.5,5.7c-5.8,0.3-10.6-1.8-15.2-4.7
			c-6.8-4.2-13.8-8-21.5-10.6c-4-1.4-4.9-3.4-3.4-6.4c0.2-0.3,0.3-0.9,0.1-1.2c-4.9-9.8-8-20.2-10.5-30.7c-1.4-5.8-3-11.6-4.4-17.4
			c-0.3-1.4-1.1-1.9-2.7-1.8c-3.8,0-7.7,0-11.5-0.2c-1.4-0.1-2.5,0.2-3.4,1.2c-3.7,4-8.7,4.9-14,4.8c-3.8,0-6-2.2-7.6-5.1
			c-6.4,0.2-12.8,0.4-19.1,0.6c-0.5,2-0.9,4.3-1.7,6.5c-2.4,6.4-11.1,8.5-16.2,8.2c-4.5-0.3-8-1.8-10-5.7c-0.7-1.4-1-3-1.3-4.3
			c-12.3-0.3-24.5-0.6-37-0.9c0.1-5.1,0.2-9.8,0.3-14.8c6.2,0,12.3,0,18.4,0c-0.9-7.5-0.3-14.6,1.7-21.7c4.8-16.7,9.3-33.4,14.3-50
			c1.9-6.4,4.5-12.7,7-18.9c1-2.4,2.5-4.6,4.1-6.8c1.1-1.4-0.1-2.3-0.7-3.2c-0.2-0.4-1.7-0.5-2.4-0.3c-3.2,1.1-6.3,2.4-9.4,3.5
			c-3.2,1.1-5-0.3-4.8-3.4c0-0.6-0.2-1.2-0.4-1.8c-0.2,0-0.4,0-0.6,0c-0.2,0.3-0.3,0.6-0.5,1c-1.3,2.1-2.9,2.2-4.4,0.3
			c-1.2-1.4-1.8-3-1.5-4.8c0.2-1,0.1-2-0.3-2.7c-0.8-0.8-2.2-1.4-2.3-2.3c-0.3-1.7,1-2.8,2.8-3.2c-1.5-1.9-3.1-2.2-5.5-1.1
			c-1.1,0.5-2.2,1.1-3.3,1.3c-2.8,0.6-4.6-1-3.9-3.6c0.3-1.4-0.2-1.7-1.5-2c-4.3-1-6.3-4.7-4.3-8.1c0.4-0.7,1.4-1,2.1-1.6
			c0.6-0.5,1-1.1,1.5-1.6c-0.5-0.3-1-0.7-1.6-0.9c-1.7-0.7-2.3-2-2.1-3.5c0.2-1.7,1.9-3.2,3.7-3.3c0.9,0,1.9,0.3,2.8,0.3
			c0.9,0,1.8-0.4,2.7-0.6c-0.3-0.8-0.5-1.7-1-2.4c-0.4-0.6-1.1-1.1-1.6-1.7c-0.9-1.2-1.9-2.1-3.5-2.6c-3.2-0.9-3.5-3.2-1.1-5.7
			c-2-3.3-1.5-4.1,2.1-5.9c1.4-0.7,3-1.8,2.8-3.9c-0.2-1.9,1-2.7,3.3-2.4c0.1,0.1,0.2,0.2,0.2,0.3c0.3,1.2,0.3,2.8,2.3,2.5
			c2.1-0.3,1.8-2,1.6-3.3c-0.1-0.7-0.3-1.4-0.8-1.9c-1.4-1.8-1.4-3.7-0.4-5.6c1.3-2.3,2.7-4.5,4.2-6.7c2.4-3.6,6-4.6,10.3-3.9
			c0.7,0.1,1.5,0.8,2,1.3c0.8,0.9,1.8,1.5,2.7,0.7c0.6-0.5,0.8-1.7,0.8-2.6c0-1.5-0.6-3-0.5-4.5c0-2,2-3.1,4.4-2.2
			c2,0.8,3.7,0.3,5.7,0c2.2-0.4,4.6-0.5,6.8-0.5c2.8,0.1,4.1,1.8,4,4.4c0,0.7,0.4,1.3,1.1,1.8c0.4-1.6,0.7-3.3,1.2-4.9
			c1-2.9,6.1-4.6,8.8-2.8c0.5,0.3,0.6,1.3,1,2.5c2.1-1.4,4.6-3.2,7-1.4c1.9,1.5,3.2,3.7,4.8,5.7c0.1-0.1,0.4-0.6,0.8-0.7
			c1.3-0.4,2.8-1.1,3.9-0.8c1.4,0.4,3.2,1.1,3.3,3c0.1,1.5,0.4,3,0.7,4.8c2.5-1.6,4.9-3.1,8-1.6c2.3,1.2,3.5,3.7,3,6.9
			c4,0.7,5.2,1.5,5.4,3.7c0.2,2.1-0.9,3.2-4.3,4.3c0,1.6,0,2.9,2.5,3c2.2,0.1,3.6,1.7,4.6,3.4c1.1,2,0.3,3.9-2,5.3
			c-0.9,0.5-1.8,1-3.2,1.8c2.1,0.8,4,1.7,3.5,3.7C893,762.5,891.9,763.8,891.1,765.4L891.1,765.4z M1009.6,880.6
			c-0.5,1.9-1,3.5-1.4,5.2c-0.4,1.5-0.7,3.1-1.4,4.6c-0.3,0.7-1.4,1.5-2.1,1.5c-0.6,0-1.6-1.1-1.7-1.9c-0.5-2.9-0.7-5.8-0.9-8.7
			c-0.1-1.5-0.6-2.2-2.2-2.1c-4.5,0.2-8.9,0.2-13.4,0.5c-15.9,0.9-32,0.5-47.9,2.8c0.1,0.4,0.1,0.8,0.2,1.2
			c1.5,3.5,3.2,6.9,4.7,10.3c1,2.5,2.7,3.6,5.7,4c9.6,1.3,19,3.3,28.6,4.7c17.7,2.5,35.4,5.2,52.8,9.2c2,0.5,3.3-0.1,4.2-1.7
			c1.4-2.5,2.9-4.9,4.3-7.4c4.9-9,9.6-18.1,14.6-27c2.3-4.1,4.9-8,7.4-12c3,1.1,3.1,1.5,1.6,4c-2.1,3.5-4.3,6.9-6.4,10.4
			c-7.1,11.8-14.4,23.4-19.8,36.2c-16.5-1.4-33.2-2.8-50-4.1c-2.2,17.1-4.4,34.4-6.6,51.6c-0.1,0,0.3,0,0.7-0.1
			c11.9-3.4,23.7-6.8,35.6-10.3c3.3-1,6.1-0.4,8.6,1.8c1.2,1,2.6,2.2,4,2.5c3.9,0.7,7.9,1.2,11.9,1.1c6.7-0.2,13.3-0.6,20.1,0.2
			c3.5,0.4,7.3,0.1,10.7-0.8c8.7-2.5,17.3-5.5,26.2-8.4c-0.4-1.8-1.1-3.8-1.2-5.8c-0.6-9.9-1.2-19.9-1.5-29.8
			c-0.6-19.8-1.1-39.6-1.6-59.4c-0.3-10.5-0.7-21-0.7-31.6c0-3.7-1-6.7-3.5-9.4c-5.4-5.6-10.9-11.2-16.4-16.6
			c-3.5-3.5-7.2-6.8-10.8-10c-1.5-1.3-3.3-2.4-5.1-3.8c-1.9,2.1-3.8,3.9-5.4,6c-4.8,6.1-9.4,12.3-14.1,18.4c-0.3,0.5-0.8,0.9-1,1.4
			c-1.1,2.3-1.8,2.7-4.4,2.1c-1.1-0.3-2.2-0.7-3.3-1c-3.3-0.8-6.7-1.5-10.1-2.3c-1.8,6.1-3.6,12-5.2,17.9c-1,3.9-1.8,7.8-2.7,11.7
			c-0.6,2.6-2.9,3.3-5,1.5c-0.3-0.3-0.6-0.6-1.1-1.1c-3.7,11.9-7.5,23.5-9.4,35.7c3.7-0.1,7.2-0.5,10.8-0.3c2.1,0.1,3-0.7,3.7-2.4
			c3.1-7.4,6.2-14.8,9.4-22.1c4.5-10.2,10.1-19.8,17.8-28.3c2.3-2.5,4.7-5.3,8.6-5.7c4.8-0.5,9.5,0.1,13.8,2.1
			c0.9,0.4,1.5,1.2,2.1,1.7c-3.7,0.7-7.2,1.5-10.8,2c-2.7,0.4-4.9,1.1-6.9,3.1c-6.3,6.5-12,13.3-16.5,21c-5,8.4-9.2,17.1-13.8,25.7
			c-0.1,0.2,0,0.5,0,0.8c0.5-0.1,0.9-0.1,1.3-0.3c3.9-1.8,8.1-1.3,12.2-1.3c1.3,0,2.4,0.7,2.5,2c0.1,1.3-0.7,2.2-2,2.5
			c-0.8,0.2-1.7,0.3-2.6,0.5c-3.4,0.5-6.7,1-10.7,1.5c2.2,2.3,4,4.1,5.6,5.9c1.1,1.2,2.4,2.5,3,4c0.4,0.9,0,2.5-0.6,3.2
			c-0.5,0.6-2.1,0.6-3.1,0.4c-0.8-0.1-1.5-0.9-2.1-1.4C1014.2,884.7,1012,882.8,1009.6,880.6L1009.6,880.6z M943.4,728.4
			c0.7,1,1.5,2,2.2,3.1c1.9,3,3.8,6,5.5,9.1c0.4,0.7,0.3,1.8,0.2,2.7c-0.4,3-1,5.9-1.3,8.8c-0.1,0.9,0.4,2.1,1,2.9
			c1.6,1.9,3.9,2.1,6.3,1.7c3-0.6,5.9-1.4,8.9-1.7c6.2-0.6,11.9-1.8,16.3-6.3c0.5-0.5,1.1-1,1.7-1.4c7.4-5.3,12-12.6,15.6-20.3
			c1.4-3,1.9-6.5,2.7-9.7c0.1-0.5,0-1.2-0.3-1.6c-1.2-1.7-2.5-3.3-3.9-4.9c-8.9-9.7-17.9-19.4-26.8-29.1c-1.2-1.4-2.6-1.8-4.3-1.3
			c-6.3,1.7-12.3,3.8-17.3,8.1c-2.3,2-4.7,4-6.9,6.2c-0.8,0.8-1.5,2-1.5,3.1c0,7.5,0.3,14.9,0.4,22.5c0.6-0.2,1.3-0.3,1.9-0.5
			c2.8-1.1,5.7-2.1,8.5-3.2c2.7-1.1,3.2-0.9,4.3,1.8C952.4,721.8,946.9,723.9,943.4,728.4L943.4,728.4z M851.6,807.8
			c-1.6,1.4-2.9,2.6-4.2,3.7c-2,1.6-4.2,2.1-6.8,1.6c-1.8-0.4-3.7-0.6-4.8,1.3c-0.9,1.5-1.8,3-2.4,4.5c-1.8,4.6-3.5,9.1-5.1,13.8
			c-1.6,4.8-3.1,9.7-4.4,14.7c-1,3.7-1.7,7.4-2.8,11.1c-1.2,4-2.7,8-3.8,12c-1.5,5.4-2.7,10.9-3.9,16.3c-0.6,2.5-1.3,5.1-1.7,7.6
			c-0.5,3.2-0.7,6.4-1.1,9.6c-0.2,1.9,1.3,4.3,2.9,4.4c3.3,0.2,6.5,0.3,9.8,0.4c1.2,0,2.1-0.5,2-1.8s0-2.8,0-4.1
			c0-3.4,0-6.8,0.2-10.2c0.2-3.1,0.5-6.3,0.9-9.4c0.3-2.5,0.8-4.9,1.1-7.4c0.4-3.1,0.5-6.2,1-9.3c0.4-3,1.1-5.9,1.7-8.8
			c0.8-4.3,1.4-8.6,2.5-12.8c1.3-5.2,3-10.3,4.7-15.4c0.9-2.5,2-5.1,3.7-7.2c1-1.3,3.4-2.6,5-2.5c5.5,0.5,9.4,3.8,12.4,8.1
			c0.9,1.3,1.7,2.8,2.4,4.3c0.8,1.8,2,3.6,2.2,5.4c0.5,4.8,0.8,9.7,0.8,14.5c0,3.2-0.2,6.5-0.8,9.7c-0.7,4.2-1.8,8.3-2.8,12.4
			c-1.8,7-4.2,13.8-7.3,20.3c-0.7,1.5-0.9,3.1-0.3,4.7c0.5,1.2,1.7,1.6,2.5,0.9c1.3-1.1,2.5-2.2,3.7-3.3c4.8-4.3,9.7-8.6,14.6-12.8
			c2.5-2.1,5.2-3.9,7.8-5.8c1.8-1.3,2.1-2.4,1.2-4.4c-0.6-1.3-1.1-2.6-1.4-4c-1.6-7-3.2-13.9-4.6-20.9c-1.1-5.3-2.8-10.5-5-15.5
			c-0.8-1.8-1.5-1.7-2.7-0.7c-1.4,1.2-3,0.6-4-0.1c-3-2.2-3.7-5.8-2.2-9.2c0.5-1.2,2.1-1.7,3.2-1c0.5,0.3,1,0.6,1.4,1
			c0.2,0,0.5-0.1,0.7-0.2c-0.6-4.7-0.3-9.5-2.1-14.5C860.8,811.6,855.9,811.7,851.6,807.8L851.6,807.8z M846.4,907
			c0.8-4.5,1.5-8.4,2.3-12.3c0.9-4.1,2-8.1,3-12.1c1.6-6.6,3.4-13.1,4.8-19.8c0.8-3.7,1.1-7.4,1.5-11.2c0.2-1.5,0-3,0-4.4
			c0-2.3,0.3-4.7-0.1-6.9c-0.7-3.4-1.8-6.7-3-10c-1.2-3.3-3.2-6-7.6-6.2c-2.6-0.1-5.7,1.1-6.2,2.9c-0.8,2.8-1.1,5.7-1.6,8.6
			c-0.7,3.7-0.8,7.5-2.1,11c-1.7,4.7-2.4,9.5-3.1,14.3c-0.8,4.8-1.2,9.6-1.9,14.5c-0.6,4.2-1.5,8.3-2.1,12.4
			c-0.6,4.6-1.2,9.3-1.5,13.9c-0.1,1.7,0.1,3.6,0.9,5.1c0.4,0.7,2.3,0.8,3.6,1c0.8,0.1,1.7,0,2.6,0c1.1-0.1,2.3-0.4,3.4-0.5
			C841.7,907.3,844.1,907.1,846.4,907L846.4,907z M1044,752.8c-0.2,0-0.4-0.1-0.7-0.1c-1.4,1.8-2.8,3.5-4.2,5.3c-3.1,4-6,8.1-9.3,12
			c-6.2,7.3-12.4,14.5-18.8,21.5c-5.4,5.9-10.8,11.9-18.2,15.8c-0.7,0.4-1.4,1-2.2,1.5c5.3,7,10.5,13.9,15.7,20.9
			c1-4.3,1.9-8.7,3.1-13c1.5-5.3,3.3-10.6,5-15.8c0.4-1.2,1-1.8,2.5-1.2c1.4,0.5,3.1,0.5,4.5,1c4.9,1.6,7.9-0.3,10.6-4
			c5.7-7.6,11.7-15,17.4-22.5c0.3-0.4,0.4-1.3,0.2-1.8c-1.1-3.1-2.6-6.2-3.5-9.3C1045.4,759.8,1044.8,756.2,1044,752.8L1044,752.8z
			 M878.1,841.9c-0.1,0-0.3,0.1-0.4,0.1c0.1,0.7,0.1,1.3,0.2,2c1.4,9.1,4.5,17.9,7.2,26.7c0.9,3.1,2.6,5.4,6.1,6.4
			c3.8,1,7.5,2,11.1,3.4c2.9,1.1,5.4,1.7,8-0.3c0.6-0.4,1.4-0.6,2-0.8c6.2-2.2,12.6-4,19.2-4.6c1.6-0.2,3.1,0.1,4,1.7
			c0.2,0.4,1.1,0.8,1.7,0.7c2.1-0.2,4.2-0.4,6.2-0.8c3.7-0.7,7.4-1.5,11.2-2.1c1.7-0.3,3.3-0.4,5-0.6c0.1-0.2,0.1-0.4,0.2-0.6
			c-8.6-4.5-17.1-9-25.7-13.4c-0.5-0.3-1.4-0.2-2.1-0.1c-6.3,1-12.4,3.2-19,2.9c-6.8-0.2-13.7-0.8-19.3-4.7
			c-5.8-4.1-11.1-8.7-14.7-14.8C878.7,842.5,878.4,842.2,878.1,841.9L878.1,841.9z M908.6,907.3c1.2,0.1,2,0.1,2.7,0.2
			c1.7,0,2.8,0.4,3.3,2.3c1,3.7,2.6,7.2,3.6,10.9c2.9,10.7,5.5,21.4,8.4,32.1c0.8,2.9,1.6,5.7,2.7,8.5c1.7,4.5,6.9,7,11.8,5.3
			c1.6-0.5,3-1.9,4.2-3.2c0.4-0.5-0.1-1.8-0.3-2.7c-0.5-1.9-1.2-3.8-1.5-5.7c-1-6.1-1.9-12.2-3-18.2c-1.2-6.9-2.8-13.7-4-20.6
			c-0.7-4-1.3-8-1.7-12c-0.1-1-0.5-1.4-1.5-1.7c-4.1-1.1-8.3-1.8-12.6-1.2c-1.4,0.2-3.1-0.4-4.2,0.2
			C913.8,903.1,911.5,905.1,908.6,907.3L908.6,907.3z M857.5,799.6c6.3,1.5,12.2,2,17.8-1.8c3.9-2.7,7.6-5.3,6.5-10.6
			c-0.1-0.5,0.1-1.2,0-1.7c-0.4-1.7-0.4-3.7-1.4-5c-1.6-2.3-1.7-4.7-1.1-7.1c0.5-2.1,1.5-4.1,2-6.2c0.3-1.6,0.7-3.5,0.1-4.9
			c-1.3-3.3-4.2-5.7-7.6-7c-3.7-1.5-7-0.1-10,2c-0.5,0.4-1,1.1-1,1.7c-0.2,2.4-1.4,4-3.8,5c-2.5,1-3.5,2.1-3.1,4.7
			c0.3,2-0.6,3.3-2.3,4c-1.4,0.5-3,0.8-4.5,0.6c-4-0.4-5.6,1.1-5.3,4.8c0.2,2.9,2.4,4,4.6,5.1c2.6,1.3,3.2,2.4,2.4,5
			c-0.7,2.3-0.5,4.5,0.6,6.6C857.2,793.9,858.8,795.1,857.5,799.6L857.5,799.6z M991.9,853.2c0.1-0.3,0.2-0.7,0.3-1
			c1.9-6.8,3.7-13.6,5.9-20.3c0.7-2.2,0.5-3.9-1-5.6c-0.4-0.5-0.8-1-1.2-1.5c-3.1-4.5-6.3-8.8-9.2-13.4c-1.7-2.7-0.7-4.5,2.5-5.4
			c1.5-0.4,3-1.1,4.4-1.6c-1.5-3.8-5.1-8.3-7.4-9.4c-1.3,1.9-2,4.4-4.9,4.9c-0.2,0-0.4,0.6-0.5,1c-3.5,7.3-5.6,15.2-10.1,22.2
			c-2.8,4.2-5.3,8.5-8.1,12.7c-1,1.5-2.2,2.8-3.2,4.2C970.2,844.4,981,848.8,991.9,853.2L991.9,853.2z M990.5,859.1
			c-1.9-0.8-3.8-1.8-5.8-2.6c-9.4-4-18.8-7.9-28.2-11.9c-0.5-0.2-1.4-0.2-1.8,0.1c-5.2,3.9-10.3,7.9-15.5,11.9
			c0.1,0.1,0.3,0.2,0.5,0.3c9.9,5,19.9,10,29.8,14.9c0.9,0.4,2,0.8,2.9,0.7c4.9-0.6,9.8-1.4,14.7-2.2c0.3,0,0.7-0.5,0.8-0.9
			C988.9,866.1,989.7,862.7,990.5,859.1L990.5,859.1z M895.4,888.7l-0.1-0.2c-2.3,0.8-4.7,1.6-7.1,2.2c-3.6,1-6.1,3.1-8,6.1
			c-0.9,1.4-1.8,2.7-2.6,4.1c-2.7,4.8-3,10-1.6,15.1c1.2,4.3,2.1,4.9,7.5,4.2c4.1-0.5,6.9-2.7,9.5-5.3c4.8-4.6,9.5-9.3,15.3-13
			c1.6-1,3.3-3,3.5-4.6c0.3-2.4-0.5-5-1.4-7.3c-1.2-2.8-2.8-3.4-6-3C901.4,887.4,898.4,888.1,895.4,888.7L895.4,888.7z
			 M1000.6,700.3c0.7-1.3,1.1-2.3,1.7-3.2c1.2-1.7,5-2.4,6.6-1.4c1.7,1,2,3.4,0.8,5.5c-0.6,1-1.6,1.9-2.2,2.9
			c-0.4,0.7-0.9,1.6-0.8,2.2c1.3,5.3,2.3,10.8,4.4,15.8c1.7,4-0.1,7.2-1.6,10.2c-3.7,7.3-8.2,14.2-12.2,21.3
			c-5.6,10.2-11.1,20.5-16.5,30.8c-1.3,2.5-2.5,5-3.5,7.7c-0.7,1.9,0.1,2.8,2.4,3.9c1.8,0.8,2.3-0.4,2.9-1.4c1-1.5,2-3,2.8-4.6
			c4.9-9.5,9.8-19.1,14.7-28.6c5.9-11.3,11.8-22.7,17.8-34c0.5-0.9,0.7-1.7,0-2.8c-2.3-3.9-4.3-7.9-6.6-11.7c-1.7-2.8-1.5-4.8,1-7.3
			c4.1-4.2,3.8-9.3-0.1-13.4c-3.2-3.4-10.7-3.2-13.6,0.5C997.1,694.5,997.4,696.4,1000.6,700.3L1000.6,700.3z M905.7,821.6
			c-4.3-2.4-8.6-4.6-12.7-7c-2.3-1.4-4.5-1.2-7-0.5c-6.4,1.6-10.6,6.2-15.3,10c-0.5,0.4-0.6,1.1-0.9,1.7c0.8,0.2,1.7,0.6,2.3,0.5
			c3.1-0.8,6.1-2,9.3-2.7c2.4-0.5,5-0.9,7.3-0.7c2.6,0.3,3.4,2.6,1.5,4.3c-1.9,1.7-4,3.4-7,3.2c-2.8-0.1-5.7-0.2-8.5-0.2
			c-0.7,0-1.5,0.3-2.5,0.5c1.4,1.3,2.5,2.4,3.7,3.5c2.2,2,4.9,2.7,7.8,2.4c3.5-0.4,7-0.9,10.4-1.7c1.9-0.4,4.3-1.1,5.3-2.5
			C901.8,829,903.6,825.3,905.7,821.6L905.7,821.6z M1031.2,761.4c-0.1-0.2-0.3-0.3-0.4-0.5c-0.7,0.4-1.4,0.7-2,1.2
			c-5.9,4-11.8,8.1-17.8,12c-6.6,4.3-13.2,8.6-19.8,12.8c-1.7,1.1-2,2.2-0.8,4c2.2,3.3,4.2,6.7,6.2,9.8
			C1008,787.7,1019.6,774.6,1031.2,761.4L1031.2,761.4z M915.9,844.8c4.5,2.2,8.8,4.4,13.1,6.5c0.4,0.2,1.2,0.1,1.6-0.1
			c5.1-3.3,10.2-6.7,15.3-10c0.2-0.2,0.4-0.4,0.7-0.8c-7.7-3.3-15.2-6.5-22.9-9.7C921.1,835.4,918.5,840.1,915.9,844.8L915.9,844.8z
			 M934.2,888.4l0.5-0.2c-0.7-2-1.4-4.1-2.2-6.1c-0.2-0.5-0.8-1.1-1.2-1.1c-2.1-0.2-4.3-0.5-6.4-0.2c-3.2,0.6-6.3,1.8-9.5,2.6
			c-1.2,0.3-1.5,0.8-1.1,1.7c1.3,3.5,2.5,7,4,10.5c0.3,0.6,1.4,1.3,2.2,1.4c4.7,0.4,9.3,0.7,14,0.8c2.5,0.1,3.2-1.1,2.3-3.3
			C935.9,892.5,935,890.4,934.2,888.4L934.2,888.4z M1000,775.2c10.8-7.2,21.6-14.3,31.8-21.1c-0.3-5.4-0.6-10.3-0.8-15.4
			C1019.6,750.2,1008.7,761.8,1000,775.2L1000,775.2z M914.1,848.2c-1.9,3.1-2.9,3.3-6.4,1.7c-2.5-1.2-5-2.2-7.5-3.4
			c-1.5-0.7-3-1.5-4.3-2.5c-0.5-0.3-0.8-1.3-0.7-1.9c0.3-1.4,0.8-2.8,1.2-3.9c-4.4,0.8-8.9,1.7-13.3,2.6c-0.1,0.2-0.1,0.5-0.2,0.8
			c2.5,2.2,5,4.2,7.3,6.5c6.6,6.2,14.8,8.9,23.8,9.9c4,0.4,7.2-1.5,10.3-3.1C920.9,852.5,917.6,850.4,914.1,848.2L914.1,848.2z
			 M846.8,913.1c-4.5,0-8.9,0-13.3,0.2c-0.5,0-1.4,0.5-1.5,1c-1,3.3-2,6.6-2.7,9.9c-0.5,2.4,1.6,4.5,4.2,4.9c3.5,0.5,6.7,0,9.8-1.4
			c1.9-0.9,2.9-2.2,3.4-4C847.7,920.2,847.6,916.6,846.8,913.1L846.8,913.1z M856.4,906c0.2,0.2,0.3,0.5,0.5,0.7
			c2.8-0.3,5.6-0.8,8.4-0.8c2.6,0,4.2-1.2,5-3.1c2.2-5.1,6-9,9.7-13c1.8-2,4.2-3.1,6.9-3.8c2.9-0.7,5.6-1.8,8.4-2.8
			c0.4-0.1,0.6-0.7,0.9-1c-0.4-0.2-0.8-0.6-1.3-0.7c-1.4-0.3-2.8-0.5-4.2-0.6c-1.8,0-4.1-0.5-5.5,0.3c-10.7,5.9-19.1,14.3-27.6,22.5
			C857.1,904.3,856.9,905.2,856.4,906L856.4,906z M909.7,846.1c2.9-6.2,5.6-12.1,8.3-17.9c-2.6-1.5-5-2.9-7.8-4.5
			c-3.2,5.5-6.4,11-9.6,16.5C903.9,842.4,906.8,844.2,909.7,846.1L909.7,846.1z M877,827.4c3,1.8,8.9,0,10-3.1
			C883.6,825.4,880.5,826.4,877,827.4z"/>
		<path class="st0" d="M1009.6,880.5c2.5,2.2,4.7,4.1,6.9,6c0.6,0.5,1.3,1.3,2.1,1.4c1,0.2,2.6,0.2,3.1-0.4c0.7-0.8,1-2.3,0.6-3.2
			c-0.7-1.5-1.9-2.7-3-4c-1.7-1.8-3.4-3.6-5.6-5.9c3.9-0.6,7.3-1,10.7-1.5c0.9-0.1,1.8-0.2,2.6-0.5c1.3-0.4,2.1-1.2,2-2.5
			c-0.1-1.4-1.2-2-2.5-2c-4.1,0-8.3-0.5-12.2,1.3c-0.3,0.2-0.8,0.2-1.3,0.3c0-0.3-0.1-0.6,0-0.8c4.5-8.6,8.8-17.3,13.8-25.7
			c4.5-7.6,10.2-14.5,16.5-21c2-2,4.2-2.7,6.9-3.1c3.5-0.5,7-1.3,10.8-2c-0.6-0.5-1.2-1.3-2.1-1.7c-4.4-2.1-9.1-2.6-13.8-2.1
			c-3.8,0.4-6.3,3.2-8.6,5.7c-7.7,8.4-13.2,18.1-17.8,28.3c-3.3,7.3-6.3,14.7-9.4,22.1c-0.7,1.7-1.6,2.5-3.7,2.4
			c-3.5-0.1-7,0.2-10.8,0.3c1.9-12.2,5.7-23.8,9.4-35.7c0.5,0.5,0.8,0.8,1.1,1.1c2.1,1.7,4.4,1,5-1.5c0.9-3.9,1.6-7.8,2.7-11.7
			c1.6-5.9,3.4-11.7,5.2-17.9c3.4,0.8,6.7,1.5,10.1,2.3c1.1,0.3,2.2,0.7,3.3,1c2.6,0.6,3.4,0.2,4.4-2.1c0.2-0.5,0.6-1,1-1.4
			c4.7-6.2,9.3-12.3,14.1-18.4c1.6-2,3.5-3.8,5.4-6c1.9,1.3,3.6,2.4,5.1,3.8c3.7,3.3,7.3,6.6,10.8,10c5.6,5.5,11,11,16.4,16.6
			c2.6,2.6,3.5,5.7,3.5,9.4c0,10.5,0.4,21,0.7,31.6c0.5,19.8,1,39.6,1.6,59.4c0.3,10,0.9,19.9,1.5,29.8c0.1,2,0.8,4,1.2,5.8
			c-8.9,2.9-17.4,5.9-26.2,8.4c-3.3,1-7.2,1.2-10.7,0.8c-6.7-0.8-13.4-0.4-20.1-0.2c-4,0.1-8-0.4-11.9-1.1c-1.5-0.2-2.8-1.5-4-2.5
			c-2.5-2.2-5.3-2.8-8.6-1.8c-11.8,3.5-23.7,6.9-35.6,10.3c-0.4,0.1-0.8,0.2-0.7,0.1c2.2-17.2,4.4-34.5,6.6-51.6
			c16.8,1.4,33.5,2.8,50,4.1c5.4-12.8,12.7-24.5,19.8-36.2c2.1-3.5,4.3-6.9,6.4-10.4c1.5-2.5,1.4-2.8-1.6-4c-2.4,4-5.1,7.9-7.4,12
			c-4.9,9-9.7,18-14.6,27c-1.3,2.5-2.9,4.9-4.3,7.4c-0.9,1.6-2.2,2.2-4.2,1.7c-17.4-4.1-35-6.8-52.8-9.2c-9.6-1.3-19-3.4-28.6-4.7
			c-3-0.4-4.6-1.6-5.7-4c-1.5-3.5-3.1-6.9-4.7-10.3c-0.2-0.3-0.1-0.7-0.2-1.2c16-2.3,32-1.9,47.9-2.8c4.5-0.3,8.9-0.3,13.4-0.5
			c1.6-0.1,2.2,0.6,2.2,2.1c0.1,2.9,0.4,5.8,0.9,8.7c0.1,0.7,1.1,1.8,1.7,1.9c0.7,0,1.8-0.8,2.1-1.5c0.7-1.4,1-3,1.4-4.6
			C1008.6,884,1009.1,882.4,1009.6,880.5L1009.6,880.5z"/>
		<path class="st0" d="M943.4,728.4c3.5-4.5,9-6.7,13.1-10.2c-1.1-2.7-1.6-2.9-4.3-1.8c-2.8,1.1-5.6,2.2-8.5,3.2
			c-0.6,0.2-1.3,0.3-1.9,0.5c-0.2-7.6-0.4-15.1-0.4-22.5c0-1,0.7-2.3,1.5-3.1c2.2-2.2,4.6-4.1,6.9-6.2c4.9-4.3,11-6.4,17.3-8.1
			c1.7-0.5,3-0.1,4.3,1.3c8.9,9.7,17.9,19.4,26.8,29.1c1.4,1.5,2.7,3.2,3.9,4.9c0.3,0.4,0.4,1.1,0.3,1.6c-0.8,3.3-1.3,6.7-2.7,9.7
			c-3.6,7.8-8.3,15-15.6,20.3c-0.6,0.4-1.2,0.9-1.7,1.4c-4.4,4.5-10.1,5.8-16.3,6.3c-3,0.3-6,1.1-8.9,1.7c-2.4,0.5-4.7,0.2-6.3-1.7
			c-0.6-0.8-1.1-2-1-2.9c0.3-3,0.9-5.9,1.3-8.8c0.1-0.9,0.2-2-0.2-2.7c-1.7-3.1-3.6-6.1-5.5-9.1
			C944.9,730.4,944.1,729.4,943.4,728.4L943.4,728.4z"/>
		<path class="st14" d="M851.6,807.8c4.3,3.9,9.2,3.8,14.2,0.9c1.8,4.9,1.5,9.7,2.1,14.5c-0.2,0-0.5,0.1-0.7,0.2
			c-0.5-0.3-0.9-0.7-1.4-1c-1.2-0.7-2.7-0.2-3.2,1c-1.5,3.4-0.7,7,2.2,9.2c1,0.8,2.6,1.4,4,0.1c1.2-1,2-1.1,2.7,0.7
			c2.2,5,3.9,10.2,5,15.5c1.5,7,3,13.9,4.6,20.9c0.3,1.3,0.8,2.7,1.4,4c0.9,2,0.6,3.1-1.2,4.4c-2.6,1.9-5.4,3.7-7.8,5.8
			c-5,4.2-9.8,8.5-14.6,12.8c-1.2,1.1-2.5,2.2-3.7,3.3c-0.8,0.7-2,0.3-2.5-0.9c-0.6-1.6-0.4-3.2,0.3-4.7c3.1-6.6,5.5-13.3,7.3-20.3
			c1-4.1,2.1-8.2,2.8-12.4c0.5-3.2,0.8-6.5,0.8-9.7c0-4.8-0.3-9.7-0.8-14.5c-0.2-1.9-1.3-3.6-2.2-5.4c-0.7-1.5-1.4-2.9-2.4-4.3
			c-2.9-4.3-6.8-7.6-12.4-8.1c-1.6-0.2-4,1.2-5,2.5c-1.7,2.1-2.8,4.7-3.7,7.2c-1.8,5.1-3.4,10.2-4.7,15.4c-1.1,4.2-1.7,8.5-2.5,12.8
			c-0.6,2.9-1.2,5.8-1.7,8.8c-0.5,3.1-0.6,6.2-1,9.3c-0.3,2.5-0.8,4.9-1.1,7.4c-0.4,3.1-0.8,6.3-0.9,9.4c-0.2,3.4-0.2,6.8-0.2,10.2
			c0,1.4,0,2.8,0,4.1s-0.8,1.9-2,1.8c-3.3-0.1-6.6-0.2-9.8-0.4c-1.5-0.1-3.1-2.5-2.9-4.4c0.4-3.2,0.6-6.4,1.1-9.6
			c0.4-2.6,1.1-5.1,1.7-7.6c1.3-5.5,2.5-10.9,3.9-16.3c1.1-4,2.6-8,3.8-12c1-3.7,1.8-7.4,2.8-11.1c1.4-4.9,2.8-9.8,4.4-14.7
			c1.5-4.6,3.3-9.2,5.1-13.8c0.6-1.6,1.5-3,2.4-4.5c1.1-1.9,3-1.7,4.8-1.3c2.6,0.5,4.8,0,6.8-1.6C848.7,810.4,850,809.2,851.6,807.8
			L851.6,807.8z"/>
		<path class="st14" d="M846.4,907c-2.3,0.2-4.7,0.3-7.1,0.5c-1.1,0.1-2.3,0.4-3.4,0.5c-0.9,0.1-1.8,0.2-2.6,0
			c-1.3-0.2-3.3-0.3-3.6-1c-0.8-1.5-1-3.4-0.9-5.1c0.3-4.7,0.8-9.3,1.5-13.9c0.6-4.2,1.5-8.3,2.1-12.4c0.7-4.8,1.2-9.7,1.9-14.5
			c0.8-4.8,1.4-9.6,3.1-14.3c1.3-3.5,1.5-7.3,2.1-11c0.5-2.9,0.8-5.8,1.6-8.6c0.5-1.9,3.6-3,6.2-2.9c4.3,0.2,6.3,2.8,7.6,6.2
			c1.2,3.3,2.3,6.6,3,10c0.5,2.2,0.1,4.6,0.1,6.9c0,1.5,0.1,3,0,4.4c-0.4,3.7-0.7,7.5-1.5,11.2c-1.4,6.6-3.2,13.2-4.8,19.8
			c-1,4-2.1,8-3,12.1C847.9,898.6,847.3,902.5,846.4,907L846.4,907z"/>
		<path class="st0" d="M1044,752.8c0.8,3.5,1.3,7,2.3,10.4c0.9,3.2,2.4,6.2,3.5,9.3c0.2,0.5,0.1,1.4-0.2,1.8
			c-5.8,7.5-11.8,14.9-17.4,22.5c-2.7,3.7-5.8,5.6-10.6,4c-1.5-0.5-3.1-0.4-4.5-1c-1.6-0.6-2.2,0-2.5,1.2c-1.7,5.3-3.5,10.5-5,15.8
			c-1.2,4.3-2.1,8.6-3.1,13c-5.2-6.9-10.4-13.8-15.7-20.9c0.8-0.5,1.4-1.1,2.2-1.5c7.3-4,12.8-9.9,18.2-15.8
			c6.4-7,12.7-14.2,18.8-21.5c3.3-3.9,6.2-8,9.3-12c1.4-1.8,2.8-3.5,4.2-5.3C1043.6,752.7,1043.8,752.7,1044,752.8L1044,752.8z"/>
		<path class="st12" d="M908.6,907.3c2.9-2.2,5.2-4.2,7.8-5.8c1-0.6,2.8,0,4.2-0.2c4.3-0.6,8.5,0,12.6,1.2c1,0.3,1.3,0.6,1.5,1.7
			c0.5,4,1,8.1,1.7,12c1.3,6.9,2.8,13.7,4,20.6c1.1,6.1,1.9,12.2,3,18.2c0.3,1.9,1,3.8,1.5,5.7c0.2,0.9,0.7,2.2,0.3,2.7
			c-1.1,1.3-2.5,2.6-4.2,3.2c-4.9,1.6-10.1-0.8-11.8-5.3c-1-2.8-1.9-5.7-2.7-8.5c-2.8-10.7-5.5-21.5-8.4-32.1
			c-1-3.7-2.5-7.2-3.6-10.9c-0.5-1.9-1.6-2.3-3.3-2.3C910.5,907.4,909.8,907.4,908.6,907.3L908.6,907.3z"/>
		<path class="st0" d="M857.5,799.6c1.4-4.5-0.3-5.7-6.1-4.8c-1.1-2.1-1.4-4.3-0.6-6.6c0.8-2.7,0.2-3.7-2.4-5
			c-2.2-1.1-4.3-2.2-4.6-5.1c-0.3-3.7,1.2-5.2,5.3-4.8c1.5,0.2,3.1-0.1,4.5-0.6c1.8-0.7,2.6-2,2.3-4c-0.3-2.6,0.5-3.7,3.1-4.7
			c2.3-0.9,3.5-2.6,3.8-5c0.1-0.6,0.5-1.4,1-1.7c3-2.1,6.3-3.5,10-2c3.4,1.4,6.3,3.7,7.6,7c0.6,1.4,0.2,3.3-0.1,4.9
			c-0.5,2.1-1.5,4.1-2,6.2c-0.6,2.4-0.5,4.8,1.1,7.1c1,1.4,1,3.3,1.4,5c0.1,0.5-0.1,1.2,0,1.7c1.1,5.3-2.6,7.9-6.5,10.6
			C869.7,801.6,863.8,801.1,857.5,799.6L857.5,799.6z M867.9,770.7c-0.1,2.3,1.1,3.4,3.3,3.7c0.9,0.1,1.8,0.2,2.8,0.3
			c2.4,0.4,3.6-1,2.8-3.2c-0.2-0.5-0.4-0.9-0.6-1.3c-0.1,0.2-0.1,0.3-0.2,0.5c-1.3-0.2-2.6-0.3-3.9-0.5c-0.5-0.1-1.4-0.2-1.4-0.1
			C870.1,771.8,869,770.9,867.9,770.7L867.9,770.7z M866.5,766.8c3.5,2.1,7.3,1.7,11,1.2c1-0.2,1.1-1.2,0.2-1.9
			c-0.3-0.2-0.7-0.4-1.1-0.5C873.1,765.2,869.7,765.3,866.5,766.8L866.5,766.8z"/>
		<path class="st0" d="M990.5,859.2c-0.9,3.5-1.7,6.9-2.6,10.4c-0.1,0.3-0.5,0.8-0.8,0.9c-4.9,0.8-9.8,1.5-14.7,2.2
			c-0.9,0.1-2-0.2-2.9-0.7c-10-4.9-19.9-9.9-29.8-14.9c-0.2-0.1-0.4-0.3-0.5-0.3c5.2-4,10.3-8,15.5-11.9c0.4-0.3,1.3-0.3,1.8-0.1
			c9.4,3.9,18.8,7.9,28.2,11.9C986.7,857.4,988.6,858.3,990.5,859.2L990.5,859.2z"/>
		<path class="st0" d="M895.4,888.7c3-0.6,6-1.3,9.1-1.7c3.2-0.5,4.8,0.1,6,3c1,2.3,1.7,5,1.4,7.3c-0.2,1.7-1.9,3.6-3.5,4.6
			c-5.8,3.6-10.5,8.3-15.3,13c-2.7,2.6-5.5,4.8-9.5,5.3c-5.4,0.7-6.3,0-7.5-4.2c-1.4-5.1-1.1-10.3,1.6-15.1c0.8-1.4,1.8-2.7,2.6-4.1
			c1.9-2.9,4.3-5.1,8-6.1c2.4-0.6,4.7-1.5,7.1-2.2L895.4,888.7L895.4,888.7z"/>
		<path class="st0" d="M1000.6,700.3c-3.1-3.9-3.5-5.8-2-7.8c2.9-3.7,10.3-4,13.6-0.5c3.9,4.1,4.2,9.2,0.1,13.4
			c-2.5,2.5-2.7,4.5-1,7.3c2.3,3.8,4.3,7.9,6.6,11.7c0.7,1.1,0.4,1.8,0,2.8c-5.9,11.3-11.9,22.7-17.8,34
			c-4.9,9.5-9.8,19.1-14.7,28.6c-0.8,1.6-1.8,3.1-2.8,4.6c-0.7,1-1.2,2.2-2.9,1.4c-2.3-1.1-3.1-2-2.4-3.9c1-2.6,2.2-5.2,3.5-7.7
			c5.5-10.3,10.9-20.6,16.5-30.8c4-7.2,8.5-14,12.2-21.3c1.5-3,3.3-6.2,1.6-10.2c-2.1-5-3.1-10.5-4.4-15.8c-0.2-0.7,0.3-1.6,0.8-2.2
			c0.7-1,1.6-1.9,2.2-2.9c1.3-2.1,0.9-4.4-0.8-5.5c-1.6-1-5.4-0.3-6.6,1.4C1001.6,698,1001.2,699.1,1000.6,700.3L1000.6,700.3z"/>
		<path class="st0" d="M905.7,821.6c-2.1,3.7-3.9,7.4-6.3,10.6c-1,1.3-3.4,2-5.3,2.5c-3.4,0.8-6.9,1.3-10.4,1.7
			c-3,0.4-5.7-0.3-7.8-2.4c-1.1-1.1-2.3-2.1-3.7-3.5c1-0.2,1.8-0.5,2.5-0.5c2.8,0,5.7,0.1,8.5,0.2c3,0.1,5.2-1.5,7-3.2
			c1.9-1.8,1.2-4-1.5-4.3c-2.4-0.3-5,0.1-7.3,0.7c-3.1,0.7-6.2,1.9-9.3,2.7c-0.7,0.2-1.6-0.3-2.3-0.5c0.3-0.6,0.4-1.3,0.9-1.7
			c4.7-3.8,8.9-8.4,15.3-10c2.5-0.6,4.7-0.8,7,0.5C897.2,817,901.4,819.2,905.7,821.6L905.7,821.6z"/>
		<path class="st0" d="M1031.2,761.4c-11.6,13.2-23.2,26.3-34.7,39.3c-1.9-3.1-3.9-6.5-6.2-9.8c-1.2-1.7-0.9-2.9,0.8-4
			c6.6-4.3,13.3-8.5,19.8-12.8c6-4,11.8-8,17.8-12c0.6-0.4,1.3-0.8,2-1.2C1031,761.1,1031.1,761.2,1031.2,761.4L1031.2,761.4z"/>
		<path class="st0" d="M915.9,844.8c2.6-4.8,5.2-9.4,7.8-14.2c7.7,3.3,15.2,6.5,22.9,9.7c-0.3,0.4-0.5,0.7-0.7,0.8
			c-5.1,3.4-10.2,6.7-15.3,10c-0.4,0.2-1.2,0.3-1.6,0.1C924.6,849.3,920.3,847.1,915.9,844.8L915.9,844.8z"/>
		<path class="st0" d="M934.2,888.4c0.8,2.1,1.7,4.1,2.5,6.2c0.9,2.2,0.2,3.4-2.3,3.3c-4.7-0.2-9.3-0.5-14-0.8
			c-0.8-0.1-2-0.7-2.2-1.4c-1.5-3.5-2.7-7-4-10.5c-0.3-1,0-1.4,1.1-1.7c3.2-0.8,6.3-2,9.5-2.6c2-0.4,4.3,0,6.4,0.2
			c0.5,0,1.1,0.6,1.2,1.1c0.8,2,1.5,4.1,2.2,6.1L934.2,888.4L934.2,888.4z"/>
		<path class="st0" d="M1000,775.2c8.7-13.4,19.6-25,31-36.5c0.3,5.1,0.5,10,0.8,15.4C1021.6,760.9,1010.8,768.1,1000,775.2
			L1000,775.2z"/>
		<path class="st12" d="M856.4,906c0.4-0.8,0.7-1.7,1.3-2.3c8.5-8.3,17-16.6,27.6-22.5c1.4-0.8,3.6-0.3,5.5-0.3
			c1.4,0,2.8,0.3,4.2,0.6c0.5,0.1,0.8,0.5,1.3,0.7c-0.3,0.4-0.5,0.9-0.9,1c-2.8,1-5.5,2-8.4,2.8c-2.7,0.7-5,1.8-6.9,3.8
			c-3.7,4-7.5,8-9.7,13c-0.8,2-2.4,3.2-5,3.1c-2.8,0-5.6,0.5-8.4,0.8C856.8,906.5,856.6,906.3,856.4,906L856.4,906z"/>
		<path class="st0" d="M909.7,846.2c-3-1.9-5.8-3.8-9.1-5.9c3.2-5.5,6.4-11,9.6-16.5c2.7,1.6,5.2,3,7.8,4.5
			C915.4,834,912.6,839.9,909.7,846.2L909.7,846.2z"/>
		<path class="st10" d="M867.8,770.7c1.2,0.3,2.3,1.1,2.8-0.5c0-0.1,0.9,0.1,1.4,0.1c1.3,0.2,2.6,0.3,3.9,0.5
			c0.1-0.2,0.1-0.3,0.2-0.5c0.2,0.4,0.4,0.9,0.6,1.3c0.8,2.2-0.3,3.6-2.8,3.2c-0.9-0.2-1.8-0.2-2.8-0.3
			C868.9,774.1,867.8,773,867.8,770.7L867.8,770.7z"/>
		<path class="st10" d="M866.5,766.8c3.2-1.5,6.6-1.5,10-1.2c0.4,0,0.8,0.3,1.1,0.5c1,0.7,0.9,1.7-0.2,1.9
			C873.8,768.5,870,768.9,866.5,766.8L866.5,766.8z"/>
	</g>
</g>
<text transform="matrix(1.06 0 0 1 1245.6904 756.0195)" class="st4 st5 st6">C</text>
<text transform="matrix(1.06 0 0 1 1303.1318 756.0195)" class="st4 st5 st6 st15">T</text>
<text transform="matrix(1.06 0 0 1 1200.6611 804.0195)" class="st4 st7 st8">P</text>
<text transform="matrix(1.06 0 0 1 1227.0977 804.0195)" class="st4 st7 st8">r</text>
<text transform="matrix(1.06 0 0 1 1241.1426 804.0195)" class="st4 st7 st8">o-choice</text>
<text transform="matrix(1.06 0 0 1 1232.9062 852.0195)" class="st4 st7 st8">spends </text>
<text transform="matrix(1.06 0 0 1 1208.4951 900.0195)" class="st4 st7 st8">17% more</text>
<text transform="matrix(1.06 0 0 1 530.71 756.0195)" class="st4 st5 st6">U</text>
<text transform="matrix(1.06 0 0 1 589.7207 756.0195)" class="st4 st5 st6 st15">T</text>
<text transform="matrix(1.06 0 0 1 522.3154 804.0195)" class="st4 st7 st8">P</text>
<text transform="matrix(1.06 0 0 1 547.7979 804.0195)" class="st4 st7 st8 st9">r</text>
<text transform="matrix(1.06 0 0 1 560.8887 804.0195)" class="st4 st7 st8">o-life</text>
<text transform="matrix(1.06 0 0 1 518.7109 852.0195)" class="st4 st7 st8">spends </text>
<text transform="matrix(1.06 0 0 1 504.2842 900.0195)" class="st4 st7 st8">39% less</text>
<text transform="matrix(1.06 0 0 1 1592.5098 756.0195)" class="st4 st5 st6">TN</text>
<text transform="matrix(1.06 0 0 1 1578.5391 804.0195)" class="st4 st7 st8">P</text>
<text transform="matrix(1.06 0 0 1 1604.9756 804.0195)" class="st4 st7 st8">r</text>
<text transform="matrix(1.06 0 0 1 1619.0205 804.0195)" class="st4 st7 st8">o-Life</text>
<text transform="matrix(1.06 0 0 1 1582.6523 852.0195)" class="st4 st7 st8">Spends </text>
<text transform="matrix(1.06 0 0 1 1569.71 900.0195)" class="st4 st7 st8">21% less</text>
</svg>
