<?xml version="1.0" encoding="utf-8"?>
<!-- Generator: Adobe Illustrator 27.0.1, SVG Export Plug-In . SVG Version: 6.00 Build 0)  -->
<svg version="1.1" id="Layer_1" xmlns="http://www.w3.org/2000/svg" xmlns:xlink="http://www.w3.org/1999/xlink" x="0px" y="0px"
	 viewBox="0 0 1920 1080" style="enable-background:new 0 0 1920 1080;" xml:space="preserve">
<style type="text/css">
	.st0{fill:#FEFEFE;}
	.st1{fill:#A5A5A0;}
	.st2{fill:#812521;}
	.st3{fill:#1F4257;}
	.st4{fill:#FFFFFF;}
	.st5{font-family:'RobotoCondensed-Bold';}
	.st6{font-size:105.8542px;}
	.st7{font-family:'RobotoCondensed-Regular';}
	.st8{font-size:48.8858px;}
	.st9{letter-spacing:-0.9;}
	.st10{fill:#514B4B;}
	.st11{fill:#667323;}
	.st12{fill:#B2BC7F;}
	.st13{fill:#7F7474;}
	.st14{fill:#818943;}
	.st15{letter-spacing:-1.9;}
</style>
<path class="st0" d="M64,209.6l0.2,0.2h-0.1C64,209.7,64,209.7,64,209.6L64,209.6L64,209.6z"/>
<polygon class="st1" points="1148,950.8 960.5,1053.2 772.9,950.8 772.9,746 960.5,643.6 1148,746 "/>
<polygon class="st2" points="762.7,950.8 575.2,1053.2 387.6,950.8 387.6,746 575.2,643.6 762.7,746 "/>
<polygon class="st3" points="1533.2,950.8 1345.7,1053.2 1158.1,950.8 1158.1,746 1345.7,643.6 1533.2,746 "/>
<polygon class="st3" points="377.5,950.8 190,1053.2 2.4,950.8 2.4,746 190,643.6 377.5,746 "/>
<polygon class="st2" points="1918.4,950.8 1730.9,1053.2 1543.3,950.8 1543.3,746 1730.9,643.6 1918.4,746 "/>
<g>
	<polygon class="st2" points="1345.7,635.1 1158.1,737.5 970.5,635.1 970.5,430.3 1158.1,327.9 1345.7,430.3 	"/>
	<polygon class="st3" points="960.5,635.1 772.9,737.5 585.2,635.1 585.2,430.3 772.9,327.9 960.5,430.3 	"/>
	<polygon class="st1" points="1730.9,635.1 1543.3,737.5 1355.7,635.1 1355.7,430.3 1543.3,327.9 1730.9,430.3 	"/>
	<polygon class="st1" points="575.2,635.1 387.6,737.5 200,635.1 200,430.3 387.6,327.9 575.2,430.3 	"/>
</g>
<g>
	<polygon class="st3" points="1538.3,319.4 1350.7,421.7 1163.2,319.4 1163.2,114.5 1350.7,12.2 1538.3,114.5 	"/>
	<polygon class="st1" points="1153.1,319.4 965.5,421.7 777.8,319.4 777.8,114.5 965.5,12.2 1153.1,114.5 	"/>
	<polygon class="st2" points="767.9,319.4 580.2,421.7 392.7,319.4 392.7,114.5 580.2,12.2 767.9,114.5 	"/>
</g>
<text transform="matrix(1.06 0 0 1 126.4409 809.6826)" class="st4 st5 st6">DC</text>
<text transform="matrix(1.06 0 0 1 85.8608 861.8281)" class="st4 st7 st8">P</text>
<text transform="matrix(1.06 0 0 1 113.5439 861.8281)" class="st4 st7 st8 st9">r</text>
<text transform="matrix(1.06 0 0 1 127.7661 861.8281)" class="st4 st7 st8">o-choice</text>
<text transform="matrix(1.06 0 0 1 116.2271 913.9717)" class="st4 st7 st8">spends </text>
<text transform="matrix(1.06 0 0 1 76.9131 966.1172)" class="st4 st7 st8">147% more</text>
<text transform="matrix(1.06 0 0 1 534.1924 184.3467)" class="st4 st5 st6">ID</text>
<text transform="matrix(1.06 0 0 1 507.4424 236.4922)" class="st4 st7 st8">P</text>
<text transform="matrix(1.06 0 0 1 536.1616 236.4922)" class="st4 st7 st8">r</text>
<text transform="matrix(1.06 0 0 1 551.4185 236.4922)" class="st4 st7 st8">o-life </text>
<text transform="matrix(1.06 0 0 1 507.1538 288.6362)" class="st4 st7 st8">spends</text>
<text transform="matrix(1.06 0 0 1 491.4819 340.7812)" class="st4 st7 st8">36% less</text>
<g>
	<path class="st10" d="M447.2,385.2c-2.2,1.5-4.2,3.2-6.5,4.8c2.4,4,5.2,7.8,7.2,11.9c7.1,15.1,11,30.7,8.8,47.5
		c-0.8,5.9-1.1,11.9-2.1,17.8c-1.8,11.4-8,20.6-16.3,28.8c-2.6,2.5-5.1,5.1-7.6,7.7c-2.6,2.8-2.5,4.6-0.2,7.4c2.3,2.9,4.6,6,6.2,9.2
		c7.7,16,15.3,31.9,22.9,48c4.2,9,8.3,18,12.5,27.1c0.4,0.9,1.7,1.8,2.7,2.2c7.8,2.1,13.9,6.5,19.1,12.2c1,1.1,2.1,2.3,2.4,3.5
		c0.9,4.1,3.9,4.9,7.6,5.2c3.3,0.3,6.4,1,9.6,1.4c3.3,0.5,5.4,2.9,4.7,6c-0.7,2.8-1.6,5.6-2.9,8.1c-5,10.1-10.3,20.1-16.8,29.4
		c-9.6,13.6-20.3,25.7-34.5,35.2c-7.4,4.9-14.4,10.2-21.6,15.4c-7.6,5.4-15.9,9.5-25.1,11.7c-7.8,2-15.5,4.2-23.2,6.6
		c-7.6,2.4-15.2,2.2-22.7-0.1c-17.4-5.3-34-12.5-49.8-21.3c-4.2-2.4-7.9-5.5-11.9-8.4c-1.5,3.6-2.8,7.1-4.3,10.5
		c-1.5,3.4-3.2,6.8-5.1,10c-3.2,5.1-7.9,5.2-11.1,0.1c-3.8-6.2-7.1-12.7-10.6-19.1c-9.3-16.7-18.7-33.4-27.9-50.1
		c-1.2-2.1-2.2-4.2-3-6.5c-1-2.9-0.9-6,0.8-8.7c8.9-15.1,17.9-30.2,26.8-45.3c2.3-3.9,4.5-7.9,6.5-11.9
		c7.7-15.5,16.9-30.1,27.4-44.1c2.7-3.7,6.6-6.6,9.9-9.9c1.2-1.3,2.5-2.7,3.3-4.2c4-8.1,9-15.8,15.6-22.4c0.2-0.2,0.7-0.5,0.7-0.8
		c1-6.5,5.5-11.1,9.5-15.9c2.5-3,3.6-5.5,1.2-9.2c-2.2-3.6-3.7-7.7-4.9-11.7c-0.9-2.9-2.8-4.7-5.4-6.2c-6.6-3.8-10.9-9.5-13.4-16.3
		c-0.9-2.4-0.8-4.8,0.7-7.1c2-3.3,3.4-6.7,7.7-7.7c1.2-0.3,2.5-0.4,3.7-0.8c0.8-0.2,1.5-0.8,2.1-1.1c-3.7-2.2-7-3.9-10.1-5.9
		c-19.4-11.5-38.9-23-58.3-34.7c-4-2.4-4.1-4-0.1-6.5c8.5-5.1,16.9-10.1,25.6-14.9c32.2-17.9,64.4-35.6,96.7-53.6
		c2-1.1,3.4-1.1,5.2,0.4c24.3,20,47.4,41.2,69.4,63.3c0.4,0.4,0.8,0.8,1.3,1.5c-4,1.8-7.9,3.7-11.8,5.4
		C454,381.3,450.5,383.3,447.2,385.2L447.2,385.2z M435.9,529.8c-3.9,3.7-7.5,6.6-10.6,10c-1.5,1.6-2.8,2.2-4.8,1.1
		c-1.8-1.1-3.7-2.4-5.5-3.5c-9.8-5.2-19.6-10.5-29.4-15.5c-2.8-1.4-6-2.8-9-3.2c-5.2-0.5-10.5-0.7-15.8,0c-6,0.8-11.8,2.1-17.5,4
		c-10.2,3.6-18.4,10.1-24.7,18.4c-8.6,11.3-16.7,22.8-24.3,34.7c-9.1,14.1-17.7,28.7-26.3,43.2c-4.3,7.4-8.5,14.9-12.5,22.4
		c-0.5,1-0.3,2.6,0.2,3.6c2.2,4.1,4.7,8.1,7.1,12.3c7.9,13.4,15.9,26.8,23.7,40.2c2.8,4.8,5.5,9.6,8.3,14.3c0.4,0.7,0.9,1.3,1.6,2.4
		c0.7-2.8,1.3-5.1,1.8-7.5c5-23.5,11.7-46.5,21.8-68.5c9.2-20.2,18.9-40.2,33.5-57.6c12.4-14.8,26.1-28,45.5-34.3
		c8-2.6,16.2-3.2,24.1,0.8c4.2,2.1,8.6,4.1,12.8,6.3c2.4,1.3,4.8,2.6,7.1,4.1c1.6,1.1,3,2.5,4.6,3.8c0.2-0.1,0.4-0.2,0.5-0.3
		C444,550.9,440.1,540.9,435.9,529.8L435.9,529.8z M349.5,458.7c-0.5-0.1-1.2-0.2-1.8-0.4c3,6,6.2,11.9,9.2,17.9
		c1.8,3.6,5.1,5.4,8.7,7.1c7.9,3.6,15.9,7.3,24,10.6c9.9,4.1,19.8,8,29.7,12.1c1.6,0.7,2.7,0.4,3.9-0.8c2-2,4-3.9,6-5.8
		c6.2-5.9,11.2-12.5,15-19.9c5.2-9.8,3.2-20.5,3.8-30.9c-6.2,0.4-12.2,0.7-18,1.2c-3.6,0.3-4.9,0.1-6.5-2.9
		c-0.7-1.2-1.1-2.4-1.7-3.6c-1.2-2.4-2.3-4.9-3.6-7.6c-2.5,4.2-4.7,8-7,11.7c-0.8,1.1-1.8,2.5-3.2,2.7c-2.9,0.8-6,1.1-9,1.3
		c-5.5,0.3-11.2,0.1-16.7,0.5c-3,0.2-4.9-0.8-6.3-3.3c-2.7-5-5.6-9.9-8.5-14.8c-0.3-0.7-1-1.3-1.6-1.5c-1.6-0.5-3-0.4-3.4,1.7
		c-0.9,5.5-1.8,11.1-3,16.6c-0.2,1.2-1.6,2.8-2.8,3c-1.1,0.2-2.8-1.1-3.6-2.1c-3.5-5.4-6.5-11.2-10.2-16.6c-1-1.5-3.4-2.9-5.2-3
		c-1.4-0.1-3.4,1.5-4.5,2.8c-2.2,2.5-0.7,5.3,0.3,7.7c2.3,6,7.2,9.3,13.5,11.2c1.1,0.3,2.6,0.7,3,1.5
		C350.5,456.3,349.7,457.6,349.5,458.7L349.5,458.7z M446.7,424.2c-0.5-2-0.9-4.2-1.6-6.2c-3.5-8.5-7-17.1-10.9-25.3
		c-0.9-1.7-4.1-4.2-5.4-3.8c-5.5,1.6-10.9,4.1-14.8,8.5c-0.7,0.8-2,1.4-2.9,1.3c-2.6-0.2-5.1-0.8-7.6-1.4c-8-2.2-16.3-2.3-24.6-1.8
		c-2.6,0.1-4.5,1.1-5.2,3.8c-2.4,7.7-5,15.4-7.6,23.1c-0.2,0.8-0.4,1.6-0.8,2.8C392.5,426.7,419.6,427.2,446.7,424.2L446.7,424.2z
		 M449,618.9c0.2,0.2,0.5,0.3,0.8,0.5c-2,4.7-3.4,9.7-6.1,13.9c-2.9,4.5-7.2,8.3-10.9,12.3c-1,1.1-2.3,2-3.2,3.3
		c-1,1.3-0.4,2.7,1.3,3.2c2.9,0.8,5.9,1.4,8.9,1.8c5,0.7,10,0.8,15,1.5c4.7,0.8,8.6-0.2,12.1-3.2c5.5-4.6,11.1-9,16.8-13.4
		c5.2-4,7.2-9.6,8-15.4c0.4-2.7-0.2-6.1-1.7-8.4c-5.4-7.8-12.9-12.8-23.2-12.9c-2.3,0-4.7,0.4-7,1.1c-8.3,2.5-14,8.4-20.4,13.4
		c-1.4,1.1-2.9,2.3-1.5,4.1c1.3,1.7,3,1.6,5,0.8C444.8,620.5,446.9,619.8,449,618.9L449,618.9z M345.7,499.3
		c5.8,2.2,10.9,3.9,15.8,5.9c4.6,1.7,9,3.7,13.6,5.6c5.2,2.2,10.3,4.6,15.4,6.8c5.9,2.6,11.7,5,17.5,7.7c3.6,1.6,6.8,3.8,10.2,5.9
		c1.1,0.7,2,1,3-0.2c2.2-2.6,4.3-5.4,7-7.6c2.2-1.8,1.6-3.6,0.8-5.3c-1.2-2.3-2.8-4.5-4.5-7c-0.9,0.5-1.7,1-2.5,1.5
		c-1.4,1-2.7,2-4.6,1.3c-5.8-2-11.5-3.9-17.2-6.1c-3.3-1.2-6.3-2.8-9.5-4.3c-6.6-3-13.3-6-19.9-9c-4.7-2.2-9.1-4.7-13.7-6.8
		c-0.7-0.3-2.3-0.1-2.7,0.4C351.5,491.6,348.6,495.4,345.7,499.3L345.7,499.3z M432.7,370.6c0.3-0.2,0.7-0.5,0.9-0.8
		c-1.2-1.3-2.2-2.9-3.6-4c-3.8-3-7.6-6-11.6-8.6c-6-3.9-12.1-7.7-19.6-9c-5.4-1-10.8-1.1-16.2-0.4c-6.6,0.8-13,2.2-18.6,5.6
		c-7.6,4.8-15.2,9.8-22.1,15.5c-9.5,7.8-15.6,17.9-19.2,29.4c-0.5,1.7-0.4,3.6-0.4,5.4c0,0.5,0.8,1,1.4,1.6c1.6-2.7,3-5,4.2-7.4
		c8.8-17.5,24.4-27.8,42.3-35.8c8-3.7,16.7-4.7,25.7-4.7c9.3,0,18.1,1.3,26.1,6.1C425.7,365.9,429.1,368.3,432.7,370.6L432.7,370.6z
		 M376.7,433c1.7,3.6,3.3,6.8,5,10c0.4,0.8,1.6,1.5,2.5,1.5c6.3,0,12.6-0.1,18.9-0.2c0.7,0,1.5-0.4,1.7-0.9c1.8-3,3.7-6.1,5.6-9.5
		C399.1,433.6,388.1,433.3,376.7,433L376.7,433z M425,433.5c1.3,3.4,2.4,6.3,3.7,9.1c0.3,0.7,1.4,1.6,2.1,1.6
		c5.9-0.5,11.7-1.3,17.9-2.1c-0.1-3.6-0.2-7-0.4-10.6C440.3,432.3,432.8,432.8,425,433.5L425,433.5z M360.7,512.1v-0.9
		c-0.5-0.3-1.1-0.9-1.7-1.1c-3.9-1.6-7.8-3.3-11.7-4.9c-5.9-2.4-5-2.7-8.6,1.7c-0.5,0.7-1.2,1.1-1.6,1.7c-2.7,3.7-5.4,7.4-8.1,11
		c0.1,0.2,0.3,0.4,0.5,0.8C339.3,516.5,349.3,512.2,360.7,512.1L360.7,512.1z M346.5,424.2c3.6,0.1,7.3,0.3,11.1,0.2
		c0.5,0,1.4-1,1.6-1.6c1.2-4.1,2.4-8.3,3.5-12.4c0.5-2.1,0.9-4.1,1.3-6.2c-5,3.3-9.2,7-13.8,10.2C346.6,416.9,345,419.9,346.5,424.2
		L346.5,424.2z M354.4,443.1c0.7-4.1,1.3-7.6,2-11.3c-3-0.1-5.8-0.2-9.1-0.3C349.6,435.6,351.9,439.1,354.4,443.1L354.4,443.1z"/>
	<path class="st11" d="M447.2,385.2c3.5-1.8,7-3.8,10.4-5.6c1.7,8.3,3.7,16.5,5.2,24.8c2,10.8,3.9,21.5,5.2,32.3
		c1.5,13,2.4,26.2,3.5,39.3c0.5,7.1,2.2,13.9,4.1,20.6c1.4,5.1-3.8,10.4-9.2,9.6c-1.5-0.2-2.8-0.7-2.6-2.6c1-9,0.5-18-0.4-27.1
		c-0.7-6.5-0.5-13.1-1.2-19.7c-0.7-6.7-2-13.4-2.9-20.1c-0.8-5.2-1.4-10.4-2.5-15.6c-1.3-6.3-3.2-12.5-4.8-18.7
		C450.3,396.7,448.7,391,447.2,385.2L447.2,385.2z"/>
	<path class="st12" d="M435.9,529.8c4.2,11,8,21,11.9,31c-0.2,0.1-0.4,0.2-0.5,0.3c-1.5-1.3-2.9-2.6-4.6-3.8
		c-2.3-1.5-4.7-2.9-7.1-4.1c-4.2-2.2-8.5-4.2-12.8-6.3c-7.9-3.8-16-3.4-24.1-0.8c-19.4,6.3-33.2,19.6-45.5,34.3
		c-14.6,17.4-24.1,37.4-33.5,57.6c-10.1,22.1-16.8,45.1-21.8,68.5c-0.5,2.3-1.1,4.6-1.8,7.5c-0.7-1.1-1.2-1.7-1.6-2.4
		c-2.7-4.8-5.4-9.6-8.3-14.3c-7.9-13.4-15.9-26.8-23.7-40.2c-2.4-4-4.8-8.1-7.1-12.3c-0.5-1-0.7-2.6-0.2-3.6c4-7.5,8.1-15,12.5-22.4
		c8.7-14.4,17.2-29,26.3-43.2c7.6-11.8,15.8-23.5,24.3-34.7c6.3-8.3,14.4-14.8,24.7-18.4c5.6-2,11.5-3.3,17.5-4
		c5.2-0.7,10.5-0.5,15.8,0c3.2,0.3,6.2,1.6,9,3.2c9.9,5,19.7,10.3,29.4,15.5c2,1.1,3.7,2.4,5.5,3.5c2,1.1,3.3,0.5,4.8-1.1
		C428.5,536.6,432,533.5,435.9,529.8L435.9,529.8z"/>
	<path class="st13" d="M349.5,458.7c0.2-1.1,1-2.4,0.5-3.3c-0.4-0.8-2-1.1-3-1.5c-6.3-1.8-11.1-5.3-13.5-11.2
		c-1-2.5-2.5-5.2-0.3-7.7c1.1-1.3,3-2.9,4.5-2.8c1.8,0.1,4.2,1.5,5.2,3c3.6,5.4,6.7,11.1,10.2,16.6c0.7,1.1,2.5,2.3,3.6,2.1
		c1.1-0.2,2.5-1.8,2.8-3c1.2-5.5,2.2-11.1,3-16.6c0.3-2.2,1.7-2.3,3.4-1.7c0.7,0.2,1.3,1,1.6,1.5c2.8,4.9,5.8,9.8,8.5,14.8
		c1.4,2.5,3.3,3.5,6.3,3.3c5.5-0.4,11.1-0.2,16.7-0.5c3-0.1,6.1-0.5,9-1.3c1.2-0.3,2.4-1.6,3.2-2.7c2.4-3.7,4.5-7.5,7-11.7
		c1.3,2.7,2.5,5.2,3.6,7.6c0.5,1.2,1.1,2.4,1.7,3.6c1.6,2.9,2.9,3.3,6.5,2.9c5.9-0.5,11.8-0.9,18-1.2c-0.5,10.3,1.4,21.1-3.8,30.9
		c-3.8,7.3-8.8,14-15,19.9c-2.1,2-4.1,3.8-6,5.8c-1.2,1.2-2.3,1.4-3.9,0.8c-9.9-4-19.9-7.9-29.7-12.1c-8-3.4-16-7.1-24-10.6
		c-3.6-1.6-6.8-3.5-8.7-7.1c-3-6-6.1-11.9-9.2-17.9C348.3,458.4,349,458.6,349.5,458.7L349.5,458.7z M425.4,469.3
		c4.2-1.8,6.7-4.7,8.1-8.3c0.3-0.8-0.4-2.3-1.2-2.8c-0.5-0.4-2.2,0-2.8,0.5c-2.7,2.2-5.1,4.5-7.7,6.7c-1.4,1.2-1,2.3,0.3,2.9
		C423.2,469,424.5,469.1,425.4,469.3L425.4,469.3z"/>
	<path class="st13" d="M446.6,424.2c-27.2,2.9-54.1,2.5-81.4,0.9c0.3-1.2,0.4-2.1,0.8-2.8c2.5-7.7,5.1-15.4,7.6-23.1
		c0.9-2.7,2.6-3.6,5.2-3.8c8.3-0.4,16.5-0.3,24.6,1.8c2.5,0.7,5,1.2,7.6,1.4c1,0.1,2.3-0.7,2.9-1.3c4-4.3,9.3-6.7,14.8-8.5
		c1.3-0.4,4.6,2.1,5.4,3.8c3.9,8.4,7.4,16.8,10.9,25.3C445.9,420,446.2,422.3,446.6,424.2L446.6,424.2z"/>
	<path class="st13" d="M449,618.9c-2.1,0.9-4.2,1.6-6.3,2.5c-2,0.9-3.7,1-5-0.8c-1.4-1.8,0.1-3,1.5-4.1c6.4-5,12.2-10.9,20.4-13.4
		c2.2-0.7,4.6-1.1,7-1.1c10.3,0.1,17.8,5.1,23.2,12.9c1.5,2.2,2.2,5.6,1.7,8.4c-0.9,5.9-2.8,11.4-8,15.4
		c-5.6,4.3-11.3,8.8-16.8,13.4c-3.6,2.9-7.4,3.9-12.1,3.2c-4.9-0.8-10-0.9-15-1.5c-3-0.3-6-1.1-8.9-1.8c-1.6-0.4-2.2-1.7-1.3-3.2
		c0.9-1.2,2.2-2.1,3.2-3.3c3.7-4,7.9-7.8,10.9-12.3c2.7-4.2,4.1-9.2,6.1-13.9C449.6,619.3,449.2,619.1,449,618.9L449,618.9z"/>
	<path class="st11" d="M345.6,499.3c3-3.9,5.9-7.7,8.8-11.3c0.4-0.5,2-0.8,2.7-0.4c4.7,2.2,9.1,4.7,13.7,6.8c6.6,3,13.3,6,19.9,9
		c3.2,1.4,6.2,3,9.5,4.3c5.6,2.2,11.4,4.1,17.2,6.1c1.8,0.7,3.2-0.4,4.6-1.3c0.8-0.5,1.6-1,2.5-1.5c1.6,2.5,3.3,4.6,4.5,7
		c1,1.7,1.5,3.5-0.8,5.3c-2.6,2.2-4.8,5-7,7.6c-1.1,1.3-2,1-3,0.2c-3.4-2-6.7-4.1-10.2-5.9c-5.8-2.7-11.6-5.1-17.5-7.7
		c-5.2-2.3-10.3-4.6-15.4-6.8c-4.5-2-9-3.8-13.6-5.6C356.5,503.2,351.5,501.5,345.6,499.3L345.6,499.3z"/>
	<path class="st0" d="M432.7,370.6c-3.6-2.3-7.1-4.7-10.8-7c-7.9-4.8-16.7-6.1-26.1-6.1c-9,0-17.7,1-25.7,4.7
		c-17.7,8-33.4,18.5-42.3,35.8c-1.2,2.4-2.6,4.7-4.2,7.4c-0.5-0.7-1.4-1.2-1.4-1.6c0-1.8-0.1-3.7,0.4-5.4
		c3.5-11.5,9.8-21.6,19.2-29.4c6.8-5.6,14.4-10.8,22.1-15.5c5.5-3.5,11.9-4.9,18.6-5.6c5.4-0.7,10.6-0.5,16.2,0.4
		c7.6,1.3,13.6,5.1,19.6,9c4,2.6,7.8,5.6,11.6,8.6c1.4,1.1,2.4,2.6,3.6,4C433.4,370,433,370.3,432.7,370.6L432.7,370.6z"/>
	<path class="st0" d="M376.7,433c11.4,0.3,22.5,0.5,33.8,0.9c-2.1,3.4-3.8,6.5-5.6,9.5c-0.3,0.4-1.2,0.9-1.7,0.9
		c-6.3,0.1-12.6,0.3-18.9,0.2c-0.9,0-2.1-0.8-2.5-1.5C379.9,439.9,378.4,436.6,376.7,433L376.7,433z"/>
	<path class="st0" d="M425,433.5c7.8-0.7,15.3-1.3,23.4-2c0.1,3.7,0.2,7.1,0.4,10.6c-6.2,0.8-12.1,1.5-17.9,2.1
		c-0.7,0.1-1.7-0.9-2.1-1.6C427.5,439.9,426.4,436.9,425,433.5L425,433.5z"/>
	<path class="st11" d="M360.6,512.1c-11.3,0-21.4,4.2-31.4,8.5c-0.1-0.2-0.3-0.4-0.5-0.8c2.7-3.7,5.4-7.4,8.1-11
		c0.4-0.7,1.1-1.2,1.6-1.7c3.7-4.5,2.8-4.1,8.6-1.7c3.9,1.6,7.8,3.3,11.7,4.9c0.7,0.2,1.1,0.7,1.7,1.1L360.6,512.1L360.6,512.1z"/>
	<path class="st0" d="M346.5,424.2c-1.3-4.3,0.1-7.3,3.6-9.8c4.6-3.3,8.8-7,13.8-10.2c-0.4,2.1-0.8,4.1-1.3,6.2
		c-1.1,4.1-2.2,8.3-3.5,12.4c-0.2,0.7-1.1,1.6-1.6,1.6C353.7,424.5,349.9,424.3,346.5,424.2L346.5,424.2z"/>
	<path class="st0" d="M354.3,443.1c-2.5-4-4.7-7.5-7.2-11.5c3.4,0.1,6.1,0.2,9.1,0.3C355.7,435.5,355,439,354.3,443.1L354.3,443.1z"
		/>
	<path class="st10" d="M425.4,469.3c-1-0.2-2.3-0.3-3.3-0.9c-1.3-0.7-1.6-1.7-0.3-2.9c2.6-2.2,5-4.6,7.7-6.7
		c0.7-0.5,2.3-0.9,2.8-0.5c0.8,0.5,1.5,2.1,1.2,2.8C432.2,464.6,429.7,467.5,425.4,469.3L425.4,469.3z"/>
</g>
<text transform="matrix(1.06 0 0 1 1096.3672 489.0908)" class="st4 st5 st6">TX</text>
<text transform="matrix(1.06 0 0 1 1088.2383 541.2354)" class="st4 st7 st8">P</text>
<text transform="matrix(1.06 0 0 1 1115.9219 541.2354)" class="st4 st7 st8 st9">r</text>
<text transform="matrix(1.06 0 0 1 1130.1416 541.2354)" class="st4 st7 st8">o-life </text>
<text transform="matrix(1.06 0 0 1 1084.3223 593.3789)" class="st4 st7 st8">spends</text>
<text transform="matrix(1.06 0 0 1 1062.709 645.5244)" class="st4 st7 st8"> 25% less </text>
<text transform="matrix(1.06 0 0 1 709.2031 489.0908)" class="st4 st5 st6 st9">OR</text>
<text transform="matrix(1.06 0 0 1 664.063 541.2354)" class="st4 st7 st8">P</text>
<text transform="matrix(1.06 0 0 1 692.7827 541.2354)" class="st4 st7 st8">r</text>
<text transform="matrix(1.06 0 0 1 708.0405 541.2354)" class="st4 st7 st8">o-choice</text>
<text transform="matrix(1.06 0 0 1 699.1045 593.3789)" class="st4 st7 st8">spends </text>
<text transform="matrix(1.06 0 0 1 672.5845 645.5244)" class="st4 st7 st8">13% more</text>
<g>
	<path class="st10" d="M953.1,304.6c-0.7,2.1-0.9,4-1.7,5.8c-3.2,6.2-12.6,8.4-18.9,4.3c-2.9-1.8-5.4-4.2-7.8-6.1
		c-2.2,0.8-4.1,2.1-6.2,2.2c-2,0-4-1.3-6.4-2.1c-4.5,5.3-10.8,7-18.4,5.9c-7.9-1.1-11.9-5.9-14.4-12.4c-0.3,0-0.5-0.1-0.5,0
		c-5.5,4.5-11.9,5.4-18.8,3.8c-2.7-0.7-5.4-1.6-7.6-3.3c-4.5-3.3-8.5-7.1-12.6-10.6c-1.7,1.4-3.5,3.2-5.5,4.6
		c-5.8,4-12.3,4.1-18.3,1.1c-5.9-3-11.7-6.6-14.3-12.9c-0.9-2.1-1.3-4.5-1.3-6.6c0-3.4,0.7-6.8,1-10.2c0.3-2.8,1.6-5.1,4.2-6.8
		c-1.8-0.7-3.4-1.3-5-1.7c-14.9-5-25.9-14.3-33.8-27.2c-3.3-5.2-4.2-11.1-5-16.8c-1.7-13.1-0.3-26,4.3-38.3c0.1-0.3,0.3-0.7,0.5-1
		c2-4.1,4.1-5.1,8.8-4.5c4.6,0.7,9.1,1.3,13.8,1.7c1.3,0.1,2.8-0.4,4.1-1c1.7-0.9,3.3-2,4.9-3c4.7-2.9,9.5-5.9,14.1-8.9
		c6.6-4.2,14.1-5.9,21.8-6.4c15.5-1,30.6,1.5,44.9,7.4c9.1,3.7,16.9,9,22.8,16.7c0.2,0.3,0.9,0.7,1.3,0.7c9,0.5,18,1,27.1,1.4
		c1.4,0.1,2.8,0,3.7,0c4.1-10,8.1-19.7,12.3-29.3c1.4-3.4,3.6-6.4,5.4-9.6c1.4-2.4,3.3-4.6,4.3-7.2c2.7-6.1,7.9-8.1,14.2-7.9
		c11.5,0.3,22.9,1.8,33.6,6.2c20.5,8.3,41.8,13.6,64,16.1c20.5,2.3,41.2,2.4,61.7,2.1c9.2-0.1,18.5-1.6,27.7-2.4
		c7.3-0.7,14.2,0.3,20.9,3.4c1.8,0.9,2.4,2,2,3.9c-3,15-6,29.9-8.8,44.9c-0.3,1.8-0.2,3.8-0.2,5.8c0.3,8.1,1,16.4-2.7,24.1
		c-1,2.1-2,4.1-3.4,5.9c-6.2,7.3-12.2,14.8-19.1,21.5c-8.1,7.9-16.9,15.3-26,22.4c-12.5,9.7-25.4,18.8-38.3,27.8
		c-4.1,2.8-9,4.9-13.7,6.8c-7.8,3.2-15.6,6.1-23.7,8.8c-7.7,2.6-15.4,4.2-23.9,2.4c-8.3-1.8-16.9-1.8-25.1-3.8
		c-9.6-2.3-18.7-5.9-28-8.8c-1.6-0.5-3.3-0.8-4.7-1.6c-2.4-1.3-4.7-2.9-7-4.5C954.5,306.5,953.8,305.6,953.1,304.6L953.1,304.6z
		 M999.9,267.7c0.5-0.2,1.1-0.5,1.6-0.8c10.8-5.6,21.5-11.5,32.4-16.9c19.2-9.7,39.9-16.9,57.7-29.2c0.8-0.5,2.8-0.2,3.8,0.3
		c1.4,1,1.2,2.6,0.1,3.8c-1.4,1.4-3.2,2.7-4.9,3.9c-11,7.1-22.4,13.3-34.4,18.5c-12.5,5.4-25.2,10.5-37.3,16.6
		c-8.8,4.3-16.7,10.2-25.1,15.3c5.9,10.1-0.3,24.6-14.3,32.3c5.4,1.1,10.5,2.2,15.8,3.2c10.6,2.1,21.6,3,31.9,6.6
		c0.8,0.2,1.8,0.1,2.7-0.2c11.4-4.2,22.8-8.5,34.1-12.9c4.5-1.7,8.9-3.7,12.7-6.3c13-9.2,26-18.6,38.5-28.5
		c8.8-6.8,17.2-14.2,25.2-21.8c6.5-6.3,12.3-13.4,18.3-20.2c1.1-1.3,1.8-2.9,2.6-4.5c2.8-6.1,2.4-12.6,2.6-19.1
		c0.1-3.6,0.3-7.2,1.1-10.6c0.9-4.6,2.2-9,3.4-13.5c1.2-4.6,2.2-9.2,3.9-13.7c1.1-2.7,2.4-5.2,2.4-8.3c0-4.5,0-4.6-4.7-5.6
		c-0.2-0.1-0.4-0.1-0.7-0.1c-7.2-1.7-14.2-0.1-21.4,0.3c-8,0.4-16.1,1.6-24.2,1.8c-8.4,0.2-16.6-0.5-25-0.4
		c-13.5,0.1-26.8-1.6-40.1-3.8c-14.8-2.4-29.5-4.9-43.2-11.1c-4.3-2-9-3.3-13.8-4.9c-4.1,9.3-8.1,18.7-12.2,27.9
		c-1.4,3.3-2.6,6.5-4.1,9.7c-0.8,1.5-1.8,2.9-3,4.1c-0.4,0.4-1.7,0.7-2.4,0.4c-0.4-0.1-0.7-1.3-0.7-2.1c0-0.9,0.3-1.7,0.5-2.6
		c2.2-11.6,5.2-23,10-34c1-2.2,1.6-4.5,2.7-7.3c-7.8-0.9-15.2-1.7-22.5-2.3c-3.7-0.3-6.6,1.1-8.1,4.7c-1,2.4-2.7,4.5-4,6.7
		c-2.3,3.9-4.8,7.7-6.6,11.7c-3.8,8-7.1,16.4-10.8,24.6c-0.8,1.6-0.3,2.3,1.3,3c8.8,4.1,16.2,9.9,22.1,17.4c1.7,2.3,3.8,4.3,5.5,6.2
		c0.9-2.3,1.3-4.6,2.6-6.5c3.5-5.2,8-9.3,13.9-12.1c3.3-1.5,7-0.8,9.5,1.6c0.4,0.4,0.9,1,1.5,1.6c4.9-3.8,9.7-7.6,14.4-11.3
		c5.2-4,10.8-7.7,17.6-7.8c13-0.3,24.9,3.8,35.7,10.3c0.4,0.2,0.8,0.5,1.1,0.9c4.1,3.2,6.4,7.3,6.7,12.3c0.2,3,0,6.1,0,9.3
		c3.6-2,7-3.6,10.2-5.5c3-1.8,6-3.8,8.7-6.1c2-1.6,3.8-3.4,6.7-2.9c0.8,0.1,1.8,0.2,2.2,0.8c0.3,0.5,0.2,1.6-0.2,2.2
		c-1,1.5-2.3,2.8-3.4,4.2c-6.8,8.1-16.9,11.9-26,17.1c-10.2,5.8-21.2,10.4-29.8,18.7c-2.2,2.1-4.1,4.2-6.5,6.2
		c-5.1,4.1-10.3,8-15.4,12.2c-6.4,5.2-12.8,10.5-19.1,15.9c-0.1,0.1-0.2,0.3-0.2,0.5C999.5,267.8,999.7,267.8,999.9,267.7
		L999.9,267.7z M891.2,181.2c-2.7-4.2-5.8-7.3-10.1-9.1c-1.1-0.4-2.1-1.1-3-1.7c-9.7-6.2-20.6-8.7-32-9.5
		c-9.9-0.7-19.3,1.4-28.2,5.5c-9.2,4.3-18.7,8.5-22.2,18.9c-0.5,1.5-2.3,1.6-3.4,0.2c-0.8-1-1.4-2.2-2.1-3.3c-1-1.5-2.1-2.5-4.1-2.9
		c-4.5-0.8-8.9-1.8-13.3-3c-1.8-0.4-2.5-0.1-3,1.5c-3.7,11.5-4.9,23.2-3.7,35.2c1.3,12.9,8.4,22.6,18.3,31
		c6.8,5.8,15.2,8.9,23.8,11.4c2.3,0.7,4.7,1.5,7.1,1.7c3.3,0.3,6.5,0.1,9.8,0.1c0.9,0,1.7-0.3,2.5-0.8c2.5-1.2,5-2.7,7.6-3.8
		c1.6-0.7,3.6-0.9,5.5-1.4c-0.8-0.9-1.4-1.6-2.1-2.4c-3.5-3.9-3.3-8-0.9-12.3c1-1.6,2.6-3,4-4.3c1.3-1.3,2.8-2.3,2-4.6
		c-0.3-0.9,0.3-2,0.8-2.9c0.5-1.5,1.5-2.9,2-4.6c1.1-3.6,2.4-7.1,3-10.8c1.1-6,5.4-10.1,9.1-14.6c4.6-5.5,10.8-9.1,17.4-11.8
		C880.6,181.3,885.6,180.3,891.2,181.2L891.2,181.2z M962.4,223.7c1-2.8,2.1-5.5,2.8-8.3c0.2-0.8-0.3-1.8-0.9-2.6
		c-0.5-1-1.4-1.7-2-2.6c-2.9-5-5.9-10-10.6-13.8c-2.7-2.2-5.6-4.1-8.4-6.2c-3.3-2.4-7.1-3.7-11.1-3.7c-13.6,0.1-27.2,0.5-40.6,0.9
		c-0.4,0-0.8,0.1-1.2,0.1c-3.4,0.5-6.6,1.4-10,1.5c-5.9,0.2-10.4,2.9-14.7,6.3c-7.3,5.9-9.7,14-11.9,22.3c-0.7,2.3-1.4,4.7-1.7,7
		c-0.2,1.7-0.4,3.9,0.3,5.4c1.1,2.1,3,3.9,4.8,5.6c2.5,2.5,5,5,7.7,7.2c2.7,2.3,5.6,4.3,8.5,6.4c0.9,0.7,1.7,1.3,2.7,1.5
		c3,0.4,6.1,0.8,9.2,1c3.8,0.2,7.1,1.3,10,3.8c3,2.6,6.6,4.8,10,7c2.4,1.5,4.9,2.9,7.5,4.1c0.8,0.3,1.6,1.7,3.3,0.4
		c2.6-2.2,5.8-3.7,8.7-5.5c1.5-1,3.2-2,4.5-2.7c-3-3.5-6.1-6.2-8.1-9.5c-2.7-4.3-4.6-9.2-7-13.8c-0.3-0.7-0.9-1.3-1.5-1.5
		c-4.2-1.8-8.5-3.8-13.4-3.8c-1.3,0-2.6-1.2-3.9-1.7c0.1-0.3,0.2-0.7,0.3-1c4.9-2.2,9.7,0.2,14.6,0.7c-1.8-2-3.6-3.7-5.6-5.3
		c-0.9-0.7-2.2-1.1-3.4-1.4c-2.5-0.7-5.1-1.3-8.3-2.1c1.5-1.1,2.4-2.2,3.4-2.3c6-0.8,11.4,0.8,15.6,5.3c0.2-0.5,0.3-0.9,0.2-1
		c-1.2-3.2-2.5-6.2-3.5-9.3c-0.4-1.3-0.7-3,1.8-3.9c3.2,6.8,6.3,13.7,9.5,20.7c0.8-0.3,1.1-0.4,1.4-0.7c5.4-3.4,11.3-4.1,17.4-1.8
		c1.8,0.7,2.9,0.3,3.7-1.1c1.1-2.3,3-3.4,5.4-4.2c3.4-1.3,6.6-2.1,9.9,0.2C959.4,221.8,960.8,222.6,962.4,223.7L962.4,223.7z
		 M1034.1,208.4c-1.4-0.8-2.4-1.5-3.6-1.7c-3.2-0.7-6.4-1.2-9.7-1.5c-4.5-0.4-5-1.1-3.8-5.1c0.4-1.4,0-2.2-1.6-2.2
		c-1.1,0-2.3-0.1-3.3,0.2c-7.6,2.3-15.1,4.8-22.7,7.2c-0.7,0.2-1.7,0-2.3-0.3c-0.4-0.3-0.4-1.4-0.2-2c0.3-0.7,1.1-1.2,1.5-1.8
		c1.1-1.5,2.5-3,3.2-4.8c1.1-3-1.6-5.5-5-4.8c-1.2,0.3-2.5,1-3.4,1.8c-2.5,2.5-5,5.1-7.3,7.9c-4,5.1-4.9,11.4-6.8,17.3
		c-2,5.9-1.3,11.9-0.2,17.9c1.4,8.3,5.6,15.3,9.9,22.5c0.3,0.7,1,1.2,1.6,1.5c4.2,2.1,8.7,2.6,13.4,2.7c0.7,0,1.4-0.3,1.8-0.7
		c5.6-5.2,11.4-10.4,17.1-15.8c0.4-0.4,0.3-1.3,0.4-2.1c0.1-0.9,0-2.1,0.5-2.4c0.7-0.4,1.8-0.2,2.8-0.2c0.3,0,0.7,0.3,0.7,0.4
		c7.1-5.5,14.1-11,21-16.5c0.7-0.5,1.1-2.1,0.8-2.5c-1.4-2-1.7-3.9-0.5-6c-3-0.3-6.3,0.7-7.6-2.6
		C1029.6,212,1031.9,210.4,1034.1,208.4L1034.1,208.4z M945.5,234.4c-0.9-0.5-1.5-0.7-1.8-1.1c-4.5-4.9-11.4-4.3-16.5-2.4
		c-2.7,1.1-3.9,3-3.2,5.5c1.5,5,2.4,10.2,6.2,14.3c2.2,2.3,3,5.6,5.2,7.9c2.3,2.3,5.4,3.7,8.1,5.6c1.1,0.8,1.8,2.1,2.9,2.7
		c3.8,2.3,7.7,4.6,11.7,6.5c1.6,0.9,3.7,1.5,5.5,1.3c6.3-0.5,12.5-1.4,18.9-2.3c0.3-2.9-0.8-5.4-3.6-7.4c-1.6-1.1-3.4-2.3-4.5-3.8
		c-2.3-3.3-4.5-6.6-6.3-10.1c-3.8-7.1-7.7-14-8.6-22.1c-0.3-3-4.3-5.5-7.4-4.7C947.3,226,945.6,229.4,945.5,234.4L945.5,234.4z
		 M922,305.1c-2.2-3.6-2.1-7-0.3-10.4c1.7-3.5,3.4-7.1,5-10.3c-1.7-1.3-3.7-2.7-5.8-4.1c-6.2-4.2-12.4-8.4-18.5-12.6
		c-3.5-2.4-6.8-4.8-10.2-7.2c-1.7-1.2-3.6-1.6-5.9-1.7c-6.4-0.3-12.5-2.2-18.6-4.8c-1,0.7-2.3,1.5-3.5,2.4c-0.3,0.2-0.8,0.9-0.7,1.2
		c0.4,1.5,0.9,3.2,1.7,4.5c1.4,2.3,3,4.3,4.7,6.4c0.9,1.2,1.7,2.7,3,3.4c5.2,2.7,9.3,6.3,12.2,11c6.3-1.6,12.4-2.4,18.4,0.4
		c8.5,4,12.8,10.9,11.5,18.4c-0.2,1.5-0.4,2.9,1.4,3.8C918.2,306.2,920.1,306.6,922,305.1L922,305.1z M930.6,280.9
		c0.1,0.2,0.2,0.5,0.3,0.8c5.3-3.5,10.5-2.4,15.8-0.2c4.5,2,7.1,5.1,6.8,9.8c-0.2,6,2.9,10,7.6,13.3c1.8,1.2,4.2,2.1,6.5,2.2
		c7.1,0.5,13.3-1.2,17.5-7.1c0.7-1,1.6-1.8,2.3-2.8c3.4-5,5.2-10.2,1.7-16c-0.9-1.5-2-2.5-3.8-2.5c-4.5,0-9-0.3-13.4,0.3
		c-7,1.2-13.4,0.5-19.4-3c-2.8-1.7-5.8-3.3-8.5-4.9C939.5,274.2,935,277.6,930.6,280.9L930.6,280.9z M841.7,272.9
		c-2.4-2.7-4.6-5.2-6.8-7.5c-5.4-5.4-15-8.5-22.8-1.8c-0.8,0.7-1.6,1.1-2.5,1.5c-1.5,0.8-2.3,1.8-2.4,3.6c-0.2,2.7-0.7,5.4-0.8,8.3
		c-0.1,1.4-0.3,3.2,0.3,4.3c3.4,6.7,8.8,11.3,16.7,12.7c5.4,1,12.1-4,12.5-9.2C836.2,280.2,837.2,275.9,841.7,272.9L841.7,272.9z
		 M865.7,300.6c6.8,0.1,12.1-3.5,14.1-9.6c0.3-1,0.5-1.8,1-2.7c0.7-1.4,0.3-2.6-0.5-3.9c-5.1-7.4-12.5-10.8-21.5-10.8
		c-4.9,0-9.7,1.4-13.4,5.2c-1.7,1.8-1.4,3.9-2,6c-0.4,1.7,0,3,1.4,4.1c3.3,2.7,6.5,5.4,9.8,8.1C857.8,299.6,861.6,300.5,865.7,300.6
		L865.7,300.6z M882.4,299.9c5.9,7.5,6.7,8,15.3,8.9c4.7,0.4,9.7-1.7,11.2-5.4c2.1-5,1.2-8.6-2.4-12.1c-5.6-5.4-12.5-5.9-19.6-4.8
		C885.4,290.8,883.9,295.1,882.4,299.9L882.4,299.9z M937.3,284c-1.1,0.4-3,0.7-4.5,1.7c-3.5,2.4-5.8,5.4-6.2,10
		c-0.4,5.9,4.7,13.3,10.9,14.4c0.3,0,0.7,0,1,0.1c4.2,0.7,8.7-3.6,9.6-6.8c0.9-3,1.4-6.1,1.7-9.1c0.1-1.2,0-3-0.8-3.8
		C946.2,287.2,942.9,284.5,937.3,284L937.3,284z M833.6,259.6c2.4,1.6,4.8,2.9,6.7,4.6c2,1.6,3.5,3.8,5.3,5.6
		c0.3,0.3,1.3,0.3,1.8,0.2c2.3-0.4,4.5-1.1,6.6-1.3c3.7-0.2,7.4,0,10.9,0c-1.6-2.7-3.2-5.5-5-8c-0.9-1.2-2.2-2.6-3.5-3
		C848.7,255.3,841.1,255.7,833.6,259.6L833.6,259.6z M864,249.8c-7-4.9-13-10.1-16.9-17.4c-1,1.2-1.6,2-2.4,2.7
		c-4.9,6.1-4.7,9.3-0.4,14.3c0.5,0.7,1.6,1,2.5,1.1c2.7,0.4,5.5,0.3,8,1.3c3.3,1.3,5.8,1.8,7.9-1.3
		C862.9,250.3,863.3,250.2,864,249.8L864,249.8z M998.7,268.3l0.1-0.1h-0.2L998.7,268.3z"/>
	<path class="st0" d="M999.5,267.4c6.4-5.3,12.7-10.6,19.1-15.9c5.1-4.1,10.3-8,15.4-12.2c2.3-1.8,4.3-4.1,6.5-6.2
		c8.5-8.3,19.4-12.9,29.8-18.7c9-5.1,19.1-8.9,26-17.1c1.2-1.4,2.4-2.8,3.4-4.2c0.4-0.5,0.5-1.6,0.2-2.2c-0.3-0.4-1.4-0.5-2.2-0.8
		c-2.9-0.5-4.7,1.2-6.7,2.9c-2.7,2.3-5.6,4.2-8.7,6.1c-3.3,2-6.6,3.6-10.2,5.5c0-3.4,0.2-6.3,0-9.3c-0.3-5-2.6-9.1-6.7-12.3
		c-0.3-0.3-0.8-0.5-1.1-0.9c-11-6.5-22.7-10.6-35.7-10.3c-6.8,0.2-12.4,3.9-17.6,7.8c-4.8,3.7-9.6,7.5-14.4,11.3
		c-0.7-0.7-1.1-1.2-1.5-1.6c-2.5-2.4-6.2-3.2-9.5-1.6c-5.9,2.7-10.5,6.8-13.9,12.1c-1.2,1.8-1.7,4.2-2.6,6.5
		c-1.6-1.8-3.7-3.9-5.5-6.2c-5.9-7.5-13.3-13.3-22.1-17.4c-1.6-0.8-2.1-1.4-1.3-3c3.6-8.1,7-16.4,10.8-24.6c1.8-4,4.3-7.8,6.6-11.7
		c1.3-2.3,3-4.5,4-6.7c1.5-3.6,4.6-5,8.1-4.7c7.4,0.5,14.7,1.5,22.5,2.3c-1.1,2.9-1.7,5.1-2.7,7.3c-4.8,11-7.7,22.4-10,34
		c-0.2,0.9-0.5,1.7-0.5,2.6c0,0.8,0.2,2,0.7,2.1c0.7,0.2,2,0,2.4-0.4c1.2-1.2,2.3-2.6,3-4.1c1.5-3.2,2.7-6.5,4.1-9.7
		c4-9.2,8-18.6,12.2-27.9c4.7,1.6,9.3,2.9,13.8,4.9c13.8,6.1,28.5,8.7,43.2,11.1c13.3,2.2,26.5,3.9,40.1,3.8c8.4,0,16.7,0.7,25,0.4
		c8-0.2,16.1-1.4,24.2-1.8c7.1-0.4,14.2-2.1,21.4-0.3c0.2,0.1,0.4,0.1,0.7,0.1c4.7,1.1,4.7,1.2,4.7,5.6c0,3-1.3,5.5-2.4,8.3
		c-1.7,4.5-2.7,9.1-3.9,13.7c-1.2,4.5-2.5,8.9-3.4,13.5c-0.7,3.5-1,7.1-1.1,10.6c-0.2,6.4,0.2,12.9-2.6,19.1
		c-0.8,1.5-1.4,3.2-2.6,4.5c-6,6.8-11.7,13.9-18.3,20.2c-7.9,7.7-16.4,15-25.2,21.8c-12.6,9.8-25.4,19.1-38.5,28.5
		c-3.8,2.7-8.3,4.6-12.7,6.3c-11.3,4.5-22.7,8.7-34.1,12.9c-0.9,0.3-2,0.5-2.7,0.2c-10.3-3.6-21.3-4.5-31.9-6.6
		c-5.2-1-10.3-2.1-15.8-3.2c14-7.7,20.2-22.2,14.3-32.3c8.3-5.1,16.3-10.9,25.1-15.3c12.2-6.1,24.8-11.2,37.3-16.6
		c12.1-5.2,23.5-11.4,34.4-18.5c1.7-1.1,3.4-2.4,4.9-3.9c1.2-1.1,1.3-2.8-0.1-3.8c-0.9-0.7-2.9-0.9-3.8-0.3
		c-17.7,12.4-38.3,19.7-57.7,29.2c-10.9,5.4-21.6,11.3-32.4,16.9c-0.5,0.3-1.1,0.5-1.6,0.8C999.8,267.7,999.7,267.6,999.5,267.4
		L999.5,267.4z"/>
	<path class="st12" d="M891.2,181.2c-5.5-0.8-10.5,0.2-15.3,2.1c-6.7,2.7-12.8,6.4-17.4,11.8c-3.7,4.5-8,8.6-9.1,14.6
		c-0.7,3.6-2,7.2-3,10.8c-0.5,1.5-1.4,3-2,4.6c-0.3,1-1,2.2-0.8,2.9c0.8,2.3-0.7,3.3-2,4.6c-1.4,1.4-3,2.7-4,4.3
		c-2.4,4.1-2.5,8.4,0.9,12.3c0.7,0.8,1.3,1.5,2.1,2.4c-2,0.4-3.8,0.7-5.5,1.4c-2.6,1.1-5.1,2.6-7.6,3.8c-0.8,0.4-1.7,0.7-2.5,0.8
		c-3.3,0.1-6.6,0.2-9.8-0.1c-2.4-0.2-4.7-1.1-7.1-1.7c-8.6-2.5-16.9-5.6-23.8-11.4c-9.9-8.3-16.9-18-18.3-31
		c-1.2-11.9,0-23.7,3.7-35.2c0.5-1.6,1.2-2.1,3-1.5c4.3,1.2,8.8,2.3,13.3,3c2.1,0.3,3.2,1.4,4.1,2.9c0.8,1.1,1.3,2.2,2.1,3.3
		c1.1,1.4,2.8,1.3,3.4-0.2c3.5-10.4,12.9-14.6,22.2-18.9c8.9-4.2,18.4-6.3,28.2-5.5c11.4,0.8,22.4,3.3,32,9.5c1,0.7,2,1.3,3,1.7
		C885.5,173.9,888.5,177,891.2,181.2L891.2,181.2z"/>
	<path class="st11" d="M962.4,223.7c-1.6-1-3.2-1.7-4.5-2.7c-3.3-2.4-6.5-1.5-9.9-0.2c-2.3,0.9-4.2,2.1-5.4,4.2
		c-0.8,1.4-1.8,1.7-3.7,1.1c-6.1-2.3-11.9-1.5-17.4,1.8c-0.3,0.2-0.7,0.3-1.4,0.7c-3.2-7-6.3-13.8-9.5-20.7c-2.5,1-2.3,2.6-1.8,3.9
		c1.1,3.2,2.4,6.2,3.5,9.3c0.1,0.1-0.1,0.4-0.2,1c-4.3-4.6-9.7-6.1-15.6-5.3c-1,0.1-1.8,1.2-3.4,2.3c3.3,0.8,5.8,1.3,8.3,2.1
		c1.2,0.3,2.4,0.7,3.4,1.4c2.1,1.5,3.8,3.4,5.6,5.3c-4.9-0.4-9.7-2.7-14.6-0.7c-0.1,0.3-0.2,0.7-0.3,1c1.3,0.7,2.6,1.7,3.9,1.7
		c4.9,0,9.1,2,13.4,3.8c0.7,0.2,1.2,1,1.5,1.5c2.3,4.6,4.2,9.5,7,13.8c2.1,3.4,5.1,6.1,8.1,9.5c-1.4,0.9-2.9,1.7-4.5,2.7
		c-2.9,1.8-6,3.4-8.7,5.5c-1.6,1.3-2.4-0.1-3.3-0.4c-2.6-1.2-5.1-2.6-7.5-4.1c-3.5-2.2-7-4.3-10-7c-2.9-2.5-6.3-3.6-10-3.8
		c-3-0.2-6.2-0.4-9.2-1c-1-0.1-1.8-0.9-2.7-1.5c-2.9-2.1-5.8-4.1-8.5-6.4c-2.7-2.3-5.2-4.8-7.7-7.2c-1.7-1.7-3.7-3.5-4.8-5.6
		c-0.8-1.5-0.5-3.6-0.3-5.4c0.3-2.4,1.1-4.7,1.7-7c2.3-8.3,4.7-16.4,11.9-22.3c4.2-3.4,8.8-6.1,14.7-6.3c3.4-0.1,6.6-1,10-1.5
		c0.3-0.1,0.8-0.1,1.2-0.1c13.6-0.3,27.2-0.8,40.6-0.9c4,0,7.8,1.3,11.1,3.7c2.8,2.1,5.6,4,8.4,6.2c4.7,3.8,7.6,8.8,10.6,13.8
		c0.5,1,1.4,1.7,2,2.6c0.4,0.8,1.1,1.8,0.9,2.6C964.5,218.1,963.4,220.9,962.4,223.7L962.4,223.7z"/>
	<path class="st0" d="M1034.1,208.4c-2.2,2.1-4.6,3.5-3.4,6.4c1.3,3.3,4.6,2.3,7.6,2.6c-1.3,2.2-1,4.1,0.5,6
		c0.3,0.4-0.2,2.1-0.8,2.5c-6.8,5.5-13.8,11-21,16.5c0,0-0.3-0.4-0.7-0.4c-1,0-2.2-0.2-2.8,0.2c-0.5,0.3-0.3,1.5-0.5,2.4
		c-0.1,0.7,0,1.6-0.4,2.1c-5.6,5.3-11.3,10.5-17.1,15.8c-0.4,0.4-1.2,0.7-1.8,0.7c-4.7-0.1-9.2-0.7-13.4-2.7c-0.7-0.3-1.2-1-1.6-1.5
		c-4.1-7.2-8.5-14.2-9.9-22.5c-1.1-6-1.6-12.1,0.2-17.9c2-5.9,2.8-12.2,6.8-17.3c2.2-2.8,4.7-5.4,7.3-7.9c0.9-0.9,2.2-1.5,3.4-1.8
		c3.4-0.8,6,1.6,5,4.8c-0.5,1.7-2,3.3-3.2,4.8c-0.4,0.7-1.3,1.2-1.5,1.8c-0.2,0.5-0.2,1.6,0.2,2c0.5,0.4,1.6,0.5,2.3,0.3
		c7.6-2.3,15.1-4.8,22.7-7.2c1-0.3,2.2-0.2,3.3-0.2c1.6,0,2.1,0.8,1.6,2.2c-1.1,4-0.5,4.7,3.8,5.1c3.3,0.3,6.5,0.9,9.7,1.5
		C1031.7,206.8,1032.7,207.7,1034.1,208.4L1034.1,208.4z M1003.7,216.4c-0.5,1.3-1.4,2.3-1.2,2.9c1,2.9,2.1,5.9,3.3,8.8
		c0.5,1.3,1.6,1.4,2.9,0.9c1.3-0.5,1.8-1.4,1.3-2.6c-1.2-2.6-2.5-5.1-3.9-7.6C1005.8,218,1004.9,217.5,1003.7,216.4L1003.7,216.4z"
		/>
	<path class="st0" d="M945.5,234.4c0.2-5,1.8-8.5,6.8-9.8c3.2-0.8,7.1,1.7,7.4,4.7c0.9,8,4.8,15.1,8.6,22.1c1.8,3.5,4,6.8,6.3,10.1
		c1.1,1.5,2.8,2.7,4.5,3.8c2.8,2,3.9,4.5,3.6,7.4c-6.4,0.8-12.6,1.7-18.9,2.3c-1.8,0.1-3.8-0.5-5.5-1.3c-4-2-7.9-4.2-11.7-6.5
		c-1.1-0.7-1.8-2-2.9-2.7c-2.7-2-5.9-3.4-8.1-5.6c-2.2-2.3-3.2-5.6-5.2-7.9c-3.9-4.2-4.7-9.5-6.2-14.3c-0.8-2.5,0.4-4.5,3.2-5.5
		c5.1-2,11.9-2.5,16.5,2.4C944,233.8,944.6,234,945.5,234.4L945.5,234.4z M944.1,257.3c0.5,1.6,3.3,3.9,4.5,3.5
		c0.9-0.2,1.8-1.2,2-2.1c0.3-1.7-2.4-5-3.6-4.5C945.7,254.8,944.9,256.2,944.1,257.3L944.1,257.3z M961.3,260.3c-0.3,0-0.8,0-1.1,0
		c-0.7,1-1.8,1.8-1.8,2.8c0,0.8,1.4,1.5,2.3,2.3c0.8-0.8,2.1-1.5,2.2-2.3C963,262.2,961.9,261.3,961.3,260.3L961.3,260.3z
		 M949.1,240.3c-1,1.2-2.1,2-2.1,2.6c0,0.8,1.3,2,1.8,2c0.9-0.1,2-1.1,2.2-1.8C951.1,242.4,950,241.5,949.1,240.3L949.1,240.3z"/>
	<path class="st0" d="M922,305.2c-2,1.5-3.8,1.1-5.6,0.2c-1.8-0.9-1.6-2.3-1.4-3.8c1.3-7.5-3-14.3-11.5-18.4
		c-6-2.8-12.1-2.1-18.4-0.4c-2.8-4.8-7-8.4-12.2-11c-1.3-0.7-2.1-2.2-3-3.4c-1.6-2.1-3.3-4.1-4.7-6.4c-0.9-1.3-1.3-2.9-1.7-4.5
		c-0.1-0.3,0.3-1,0.7-1.2c1.2-1,2.5-1.7,3.5-2.4c6.1,2.6,12.2,4.6,18.6,4.8c2.3,0.1,4.1,0.5,5.9,1.7c3.4,2.4,6.7,4.8,10.2,7.2
		c6.2,4.2,12.4,8.4,18.5,12.6c2.1,1.4,4,2.8,5.8,4.1c-1.6,3.4-3.3,6.8-5,10.3C919.9,298.1,919.8,301.6,922,305.2L922,305.2z"/>
	<path class="st0" d="M930.6,280.9c4.5-3.4,8.8-6.6,13.4-10.1c2.7,1.5,5.6,3.2,8.5,4.9c6,3.6,12.4,4.2,19.4,3
		c4.3-0.8,8.9-0.3,13.4-0.3c1.8,0,2.8,1,3.8,2.5c3.5,5.8,1.6,10.9-1.7,16c-0.7,1-1.6,1.8-2.3,2.8c-4.2,6-10.4,7.6-17.5,7.1
		c-2.2-0.1-4.7-1-6.5-2.2c-4.7-3.2-7.8-7.3-7.6-13.3c0.2-4.7-2.4-7.8-6.8-9.8c-5.2-2.3-10.4-3.4-15.8,0.2
		C930.8,281.5,930.7,281.2,930.6,280.9L930.6,280.9z"/>
	<path class="st0" d="M841.6,272.9c-4.6,3-5.5,7.3-5.9,11.8c-0.3,5.2-7.1,10.1-12.5,9.2c-7.9-1.4-13.4-6-16.7-12.7
		c-0.7-1.2-0.4-2.9-0.3-4.3c0.2-2.7,0.5-5.4,0.8-8.3c0.1-1.6,0.9-2.8,2.4-3.6c0.9-0.4,1.8-1,2.5-1.5c7.7-6.6,17.4-3.6,22.8,1.8
		C837.2,267.8,839.2,270.3,841.6,272.9L841.6,272.9z"/>
	<path class="st0" d="M865.6,300.6c-4.1,0-7.9-1-11.1-3.7c-3.3-2.7-6.5-5.4-9.8-8.1c-1.4-1.1-1.7-2.4-1.4-4.1c0.4-2.1,0.1-4.1,2-6
		c3.6-3.7,8.4-5.2,13.4-5.2c9,0,16.5,3.4,21.5,10.8c0.9,1.3,1.3,2.5,0.5,3.9c-0.4,0.9-0.7,1.8-1,2.7
		C877.7,297.1,872.5,300.7,865.6,300.6L865.6,300.6z"/>
	<path class="st0" d="M882.2,299.9c1.6-4.8,3-9.1,4.6-13.5c7.1-1,13.9-0.7,19.6,4.8c3.6,3.5,4.3,7.1,2.4,12.1
		c-1.5,3.7-6.4,6-11.2,5.4C889,308,888.1,307.4,882.2,299.9L882.2,299.9z"/>
	<path class="st0" d="M937.3,284c5.5,0.5,8.9,3.3,11.8,6.3c0.8,0.9,1,2.6,0.8,3.8c-0.3,3-0.9,6.2-1.7,9.1c-0.9,3.2-5.4,7.5-9.6,6.8
		c-0.3,0-0.7,0-1-0.1c-6.2-1.2-11.4-8.5-10.9-14.4c0.3-4.5,2.6-7.5,6.2-10C934.4,284.6,936.2,284.3,937.3,284L937.3,284z"/>
	<path class="st0" d="M833.6,259.6c7.5-3.9,15.1-4.5,22.9-2c1.4,0.4,2.6,1.8,3.5,3c1.8,2.6,3.3,5.3,5,8c-3.5,0-7.2-0.1-10.9,0
		c-2.3,0.1-4.5,0.9-6.6,1.3c-0.5,0.1-1.5,0.1-1.8-0.2c-1.8-1.8-3.4-3.9-5.3-5.6C838.3,262.6,836,261.3,833.6,259.6L833.6,259.6z"/>
	<path class="st0" d="M864,249.8c-0.7,0.4-1.1,0.5-1.3,0.9c-2.2,3.2-4.7,2.6-7.9,1.3c-2.4-1-5.3-0.9-8-1.3c-0.9-0.1-2-0.5-2.5-1.1
		c-4.2-5-4.5-8.3,0.4-14.3c0.7-0.9,1.3-1.6,2.4-2.7C851,239.7,857,245,864,249.8L864,249.8z"/>
	<polygon class="st0" points="998.7,268.4 998.6,268.2 998.8,268.2 	"/>
	<path class="st0" d="M999.9,267.8c-0.2,0-0.4,0.1-0.7,0.1c0.1-0.1,0.2-0.3,0.2-0.5C999.7,267.5,999.8,267.7,999.9,267.8
		L999.9,267.8z"/>
	<path class="st10" d="M1003.7,216.4c1.2,1.1,2.1,1.5,2.5,2.3c1.4,2.5,2.6,5,3.9,7.6c0.5,1.3,0,2.1-1.3,2.6
		c-1.3,0.5-2.4,0.4-2.9-0.9c-1.2-2.9-2.4-5.8-3.3-8.8C1002.3,218.7,1003.1,217.7,1003.7,216.4L1003.7,216.4z"/>
	<path class="st10" d="M944.1,257.3c0.9-1,1.6-2.4,2.7-2.9c1.2-0.5,3.9,2.6,3.6,4.5c-0.1,0.8-1.1,1.7-2,2.1
		C947.3,261.2,944.6,258.8,944.1,257.3L944.1,257.3z"/>
	<path class="st10" d="M961.3,260.4c0.5,0.9,1.6,1.8,1.5,2.7c-0.1,0.9-1.4,1.5-2.2,2.3c-0.8-0.8-2.3-1.5-2.3-2.3
		c0-1,1.2-1.8,1.8-2.8C960.6,260.3,961,260.3,961.3,260.4L961.3,260.4z"/>
	<path class="st10" d="M949.1,240.3c1,1.2,2.2,2.1,2,2.7c-0.2,0.8-1.3,1.7-2.2,1.8c-0.5,0.1-1.8-1.2-1.8-2
		C947,242.3,948.1,241.5,949.1,240.3L949.1,240.3z"/>
</g>
<text transform="matrix(1.06 0 0 1 1287.4258 184.3467)" class="st4 st5 st6 st9">AK</text>
<text transform="matrix(1.06 0 0 1 1239.1875 236.4922)" class="st4 st7 st8">P</text>
<text transform="matrix(1.06 0 0 1 1267.9072 236.4922)" class="st4 st7 st8">r</text>
<text transform="matrix(1.06 0 0 1 1283.1641 236.4922)" class="st4 st7 st8">o-Choice </text>
<text transform="matrix(1.06 0 0 1 1275.3232 288.6362)" class="st4 st7 st8">Spends </text>
<text transform="matrix(1.06 0 0 1 1250.4141 340.7812)" class="st4 st7 st8">28% more</text>
<g>
	<path class="st10" d="M1414.7,621.2c-0.2-0.7-0.4-1.3-0.8-2c-2.4-3.9-1.5-7.3,1.8-10.3c1.5-1.4,3-1.7,4.9-0.2
		c3.6,2.8,7.2,5.9,10.8,8.7c2.5,2,5.2,3.7,7.8,5.5c1.7,1.2,3.4,2.5,4.9,3.9c3.6,3.5,8.3,4.5,12.9,5.5c0.7,0.1,1.4-0.3,2.1-0.5
		c29.3-13.5,58.8-26.9,88-40.4c3.5-1.6,6.5-3.8,9.7-5.8c0.4-0.2,0.8-1,0.7-1.4c-0.4-3.6,0-7.1,0.8-10.5c1.5-6.3,2.5-12.8,3.7-19.2
		c0-0.2,0-0.4,0.1-0.7c1.8-3.5,0-6-2.1-8.7c-2.5-3.3-4.7-6.6-6.8-10c-0.5-0.9-0.8-2.1-1.1-3.2c-3.2-1.3-6.6-2.4-9.8-4
		c-3.6-1.8-6.7-4.2-8.7-7.8c-1.2-2.3-1.4-4.7-0.3-7.2c-7.6-6.2-15.2-12.5-22.9-18.5c-22.9-17.7-45.1-36.1-67.2-54.6
		c-15.3-12.8-31.2-25-46.8-37.6c-3-2.4-5.8-5.2-8.5-7.9c-0.8-0.8-1.3-2-1.4-2.9c-0.1-1.8,2.1-2.9,4-2.1c0.7,0.3,1.2,0.8,1.7,1.2
		c16.5,15.2,34.1,29.1,51.9,42.8c10.9,8.3,20.9,17.6,31.5,26.1c14.7,11.7,29.7,23.1,44.3,34.8c5.9,4.7,11.3,9.7,17.1,14.4
		c0.4,0.3,1.2,0.7,1.6,0.5c4-1.1,7.6,0.2,11.3,1.2c3,0.9,5.9,2,9.1,3c-0.4-0.8-0.9-1.4-1.4-2.2c-2.3-3.3-5.1-6.4-5.4-10.6
		c-0.1-1.6,0.2-3.3-0.1-4.8c-0.2-1.2-1.1-2.4-2.1-3.3c-3.9-3.6-8-7-11.9-10.6c-30.6-29-61.2-58.1-91.8-87
		c-11-10.3-22.3-20.2-33.4-30.5c-2.7-2.5-4.9-5.4-7.3-8.1c-0.5-0.7-0.8-1.5-0.8-2.6c3.8,2.8,7.5,5.6,11.3,8.4
		c14.9,10.8,27.8,23.4,41.1,35.8c30.6,28.8,61.1,57.8,91.5,86.7c2.7,2.6,5.5,5.1,8.3,7.6c8.8-1.2,17.1-0.2,23.1,6
		c1.8-0.3,3.4-0.9,4.9-0.9c10.6,0.4,21.3,1.3,31.6,3.8c2,0.4,3.7,0.2,5-1.4c0.3-0.4,0.9-0.8,1.3-1.1c4.8-3.5,9.6-7.1,14.2-10.6
		c0.4-0.3,0.9-1,0.8-1.3c-0.2-0.5-0.8-1.1-1.3-1.2c-1.2-0.2-2.5-0.3-3.7-0.3c-3.9,0.1-6.8-1.5-9.6-4.1c-3.5-3.5-5.1-7.5-5.9-12.2
		c-1.1-6.5-1.2-6.5,4.3-10.4c1.6-1.2,2.7-2.3,2.7-4.5c0.1-6,2.6-10.6,7.9-14.2c2.4-1.6,4.3-4,5.8-6.4c3.3-5.3,8.4-8.1,14.2-9.7
		c5.3-1.4,10.8-2.2,16.4-2c13,0.4,25.9-1.4,38.6-4.6c4-1,7.9-2,11.4-4.3c0.8-0.5,2.2-0.1,3.4-0.2c-1.1,4.7,1.3,7.3,6.1,7.6
		c6.3,0.5,11.7-2.4,17.4-4.1c1.1-0.3,2.1-0.8,3.2-1c0.7-0.1,1.7-0.1,2.1,0.2c4.2,3.9,9.9,4.3,15.2,5.4c5,1.1,10,0.3,15-0.2
		c1.5-0.2,3.3-0.4,4.1,1.2c0.9,1.7-0.4,2.8-1.5,3.9c-3.2,3.2-6.5,6.3-9.3,9.8c-3.2,4-3,8.8-1.4,13.5c0.9,2.3,2.1,4.5,3,6.7
		c2.1,4.8,1.2,9.2-2.5,12.8c-3,3-6.7,5.4-9.9,8.4c-1.7,1.6-2.9,3.6-4.2,5.5c-2,2.9-3.8,3-6.1,0.3c-2.2-2.5-5.3-3.4-8.5-4.1
		c-8.8-2.3-17.7-2.2-26.6-1c-8.8,1.2-17.4,2.9-26.1,4.5c-7.6,1.4-15.1,2.3-23.2,0.3c0.8,2.2,1.2,4.2,2,6.2
		c3.6,8.1,4.5,16.7,3.9,25.4c-0.2,4.6-2.7,8.1-4.6,12.2c-4.1,8.8-7.9,17.6-11.9,26.4c-3.3,7.3-6.5,14.6-9.7,21.8
		c-2.3,5.1-3.6,10.4-3.4,16.1c0.2,5.8-1.6,10.6-6.5,14.2c-1.3,1-2.7,2-4,2.9c-0.3,0.2-0.7,0.7-0.8,1c-0.2,3.4-2.6,5.2-5.4,6.3
		c-4.5,1.8-9,3.5-13.7,4.9c-7.8,2.5-15.6,4.7-23.5,7.1c-1.2,0.3-2.4,0.8-3.6,0.9c-3.6,0.5-4.9-0.3-5.8-4c-3.7,1-7.4,1.7-10.9,2.9
		c-22.8,7.6-45.6,15.2-68.3,22.9c-11.6,3.9-23.1,8.1-34.8,12.2c-0.9,0.3-1.6,1-2.5,1.4c-4.2,2.2-8.3,4.7-12.6,6.4
		c-6.1,2.4-11.7,0.3-16.8-3c-0.5-0.4-1-1.2-1.2-2c-2-8.1-6.7-14.1-13.4-19.7c-6.7-5.6-11.9-13-17.7-19.8c-1.7-2.1-1.4-4,0.2-5.5
		c2-1.7,4.2-1.8,6.6-0.4C1412.1,619.9,1413.4,620.4,1414.7,621.2c0,0.1,0,0.2,0,0.3c0.1,0,0.1,0,0.2,0
		C1414.8,621.4,1414.7,621.3,1414.7,621.2L1414.7,621.2z M1754.7,475.9c3.7-2.9,7-5.6,10.4-8.4c6.6-5.1,7-6.4,3.5-13.7
		c-1.6-3.3-2.7-6.6-2.7-10.3c0-5.1,1.2-9.7,6.1-12.7c1.2-0.8,2.5-1.6,3.4-2.7c0.5-0.7,1-1.8,0.7-2.6c-0.2-0.7-1.4-1.2-2.3-1.3
		c-5.6-0.4-11.3-1.4-16.6-3.3c-2.5-0.9-4.9-1.8-7.4-2.6c-0.9-0.2-1.8-0.3-2.7-0.1c-1.2,0.2-2.2,0.8-3.3,1.3
		c-6.4,2.7-13,4.2-20.1,3.9c-4.3-0.2-6.3-1.5-7.2-4.6c-4.8,1.1-9.6,2.7-14.3,3.3c-7.2,0.9-14.4,0.9-21.7,1.3
		c-5,0.3-10.1,0.7-15.1,1.4c-3.7,0.5-7.4,1.8-11.1,2.8c-6.1,1.5-9.9,5.4-13.3,10.2c9.5,5,9.6,13.1,8.7,21.8c1.1-0.4,2-1,2.8-1
		c1.1,0,2.6,0.1,3.2,0.9c1.6,2.2,1.2,4.8,0.4,7.1c-0.3,1.1-1.8,1.8-2.9,2.8c0.4,0.7,1,1.7,1.8,2.7c5.3,6.3,12.7,8.7,20.9,8.4
		c5.9-0.2,11.7-1.6,17.3-3.3c14.7-4.2,29.5-5.8,44.9-4.8C1743.7,473,1749.8,473,1754.7,475.9L1754.7,475.9z M1641.1,580.5
		c0.8-2.6,1.2-5.2,2.2-7.6c2.8-7.1,5.8-14,8.7-21.1c3.2-7.5,6.2-14.9,9.6-22.3c2.8-6.1,6.1-11.8,6.3-18.8c0.3-8.8,0.1-17.5-3.2-25.9
		c-0.2-0.7-1.1-1.4-1.6-1.4c-6,0-11.9,0.4-17.7,2.4c-0.5,0.2-1.1,0.7-1.5,1.1c-1.4,1.2-2.6,2.6-4.1,3.7c-4.6,3.3-9.2,6.5-13.8,9.7
		c1.8,2,3.5,3.6,4.9,5.3c0.7,0.9,0.8,2.1,1.1,3.2c-1.2-0.2-2.5-0.3-3.6-0.8c-1.1-0.4-2.1-1.3-3.4-2.1c0.7,2.6,1.3,4.8,1.8,7.1
		c0.1,0.5-0.4,1.2-0.7,1.7c-0.7-0.2-1.5-0.3-1.8-0.8c-0.8-0.9-1.2-2-1.6-2.9c-0.8-1.5-1.5-3-2.4-4.7c-1.8,1.3-3.5,2.5-5.1,3.5
		c-0.4,0.3-1.3,0.1-2,0.2c0.1-0.5,0.1-1.2,0.3-1.6c0.9-1.5,2-2.9,3.4-4.9c-10.6-0.7-20.7-1.3-31-2c-0.4,5.5-0.8,10.8-1.2,16.2
		c1.2,0.2,2.3,0.4,3.4,0.5c13.3,0.9,26.4,1.8,39.7,2.5c2.1,0.1,4.3-0.2,6.2-1.1c4.5-2.2,8.5-4.9,12.8-7c2.8-1.4,5.1-3.3,6.8-5.8
		c1.1-1.5,2.4-3,3.8-4.3c0.5-0.5,1.5-0.5,2.3-0.8c0,0.8,0.2,1.6-0.2,2.3c-1.2,2.2-2.6,4.2-4.1,6.5c2-0.8,3.6-1.5,5.3-2.1
		c0.5-0.1,1.7,0.2,2,0.7c0.2,0.5-0.1,1.4-0.5,2c-0.4,0.5-1.2,0.9-1.8,1.1c-2.4,1-4.9,1.6-7.2,2.7c-6.7,3.2-13.4,6.5-20.1,9.8
		c-1.2,0.5-2.8,0.8-4.2,0.8c-3.9-0.1-7.8-0.5-11.7-0.7c-0.7,0-1.5,0.4-1.8,1c-2.8,3.9-5.5,7.9-8.3,11.8c-1.7,2.6-3.6,5.1-5.6,7.9
		c2.5-0.2,4.6-0.4,5.8,1.3c1.4,2.1,2.7,4.1,3.7,6.4c2.3,4.9,4.5,9.8,6.6,14.7c1,2.4,2.1,4.5,5.2,4.6c0.3,0,0.7,0.2,1,0.4
		C1629.2,575.4,1634.9,577.8,1641.1,580.5L1641.1,580.5z M1467.2,660.2c2.2-1.4,3.5-2.5,5.1-3.2c3.9-1.6,7.9-3,11.8-4.7
		c5.8-2.3,11.5-4.6,17.3-6.8c5.5-2.2,11-4.3,16.5-6.4c5.1-2,10.1-3.9,15.2-5.8c5.9-2.2,11.7-4.3,17.7-6.4c3.5-1.2,7-2.5,10.5-3.6
		c6.2-2,12.5-3.8,18.7-5.8c0.5-0.2,1.2-1.1,1.2-1.6c0-2.4,0-4.9-0.4-7.4c-0.9-5.1-2.1-10.1-3.2-15.1c-0.7-2.7-1.3-5.3-2.1-8
		c-0.3-0.9-0.8-2-2.4-1.2c-3.8,1.7-7.7,3.4-11.5,5.1c-4.1,1.8-8.1,3.7-12.3,5.6c-7.1,3.3-14.2,6.4-21.3,9.7c-7,3.2-14,6.3-20.9,9.6
		c-4.6,2.2-9.1,4.6-13.7,6.8c-0.4,0.2-0.8,0.4-1.2,0.7c-6.4,2.9-12.8,5.8-19.2,8.7c-1.1,0.5-2.3,0.9-3.5,1.3c-2.5,1-5,1.8-7.5,2.8
		c-0.4,0.2-0.8,0.5-1.1,1c-1.7,2.5-2.4,5-2.4,8c-0.1,4,1.3,7.5,3.2,10.9C1463.2,656.6,1465.5,658.3,1467.2,660.2L1467.2,660.2z
		 M1655.7,478.6c-1.5-2-3.4-4-4.9-6.3c-0.9-1.2-1.3-2.6-1.7-3.9c-0.4-1.1,0.1-1.8,1.4-2.1c3.3-0.5,3.9-1.6,3-5.2
		c-0.7,0.3-1.4,0.5-2,1c-1.4,1.2-2.7,0.2-3.8-0.2c-0.4-0.2-0.3-1.7-0.2-2.6c0-1.1,0.3-2.2,0.4-3.3c0.5-6.5-2.7-12.2-8.4-14.9
		c-1.3-0.7-2.2-0.4-3.4,0.4c-4.7,3.4-7,7.9-8,13.3c-0.2,1.3-1.1,2.7-2.1,3.7c-2.1,2-4.3,3.7-6.8,5.8c1.4,3.9,2.3,8.1,4.3,11.9
		c2.1,3.7,5.4,6.6,10.4,6.6c2.1,0,4.1,0.1,6.2,0.4c1.7,0.2,3.7-1.7,5.8-2.4C1649.2,480,1652.7,479.4,1655.7,478.6L1655.7,478.6z
		 M1608.6,524.2c-0.5-0.1-1-0.3-1.4-0.3c-5.9-0.5-11.7-0.9-17.6-1.5c-2.2-0.2-4.3-1-6.4-1.6c-1.5-0.4-2.9-1.6-4.5-1.7
		c-4-0.3-8-0.2-12.1-0.2c-0.9,2.5-1.8,5.3-2.9,8.3c1.2,0.4,2.4,0.9,3.7,1.3c6.2,2,12.5,3.7,18.6,6c3.9,1.5,7.6,1,11.4,0.5
		c0.3,0,0.8-0.2,1-0.4C1601.7,531,1605.1,527.6,1608.6,524.2L1608.6,524.2z M1579.4,514.8c0.2-3.5,0.1-6.5,0.7-9.5
		c0.4-2.3-0.2-3.9-2-5.2c-5-4-10.9-5.4-17.1-4.5c-5,0.8-6.2,3.4-3.7,7.6c2,3.2,4.2,6.2,6.7,9c1.1,1.2,3.3,2.1,5,2.3
		C1572.3,514.9,1575.7,514.7,1579.4,514.8L1579.4,514.8z M1562.5,516.5c-2.7-0.5-5.4-1.1-8-1.6c-4-1-7.9-2.1-12.1-2.9
		c-4.1-0.8-7.3,2-6.1,5.1c0.4,1.1,1.2,2.1,2,3c3.3,3.9,7.7,6.2,12.6,7.7c4.6,1.4,7.9-0.1,9.2-4.5
		C1561,520.9,1561.8,518.6,1562.5,516.5L1562.5,516.5z M1621.8,577.2c4.2,8.9,8.1,17.2,12.1,25.6c4.1-3.3,7.1-6.7,6.4-11.8
		c-0.3-2.3-0.1-4.8-2.6-6.2c-1.3-0.8-2.8-1.3-4.2-2.1c-1.7-0.9-3.5-2-5.2-2.8C1626.3,578.9,1624.3,578.2,1621.8,577.2L1621.8,577.2z
		 M1579.3,537.6c-1.4,5.3-2.8,10.4-4.3,15.8c7.3-2.2,14.1-4.2,20.7-6.2c0.2-2.4,0.5-4.7,0.9-7.5
		C1590.2,541.8,1584.6,539.8,1579.3,537.6L1579.3,537.6z M1570.5,551c0.2-0.1,0.3-0.2,0.5-0.3c1.3-4.9,2.7-9.9,4-14.8
		c-3.7-1.6-7.4-3-10.9-4.9c-2.7-1.5-4.9-0.7-7.3,0.7C1561.4,538.2,1566,544.6,1570.5,551z M1571.3,569.4c-1.3-4.9-2.5-9.8-3.8-14.7
		l-0.4,0.2c-1.1,5.4-2.2,11-3.4,16.6C1566.3,570.8,1568.7,570.1,1571.3,569.4L1571.3,569.4z"/>
	<path class="st0" d="M1754.7,475.9c-4.9-2.8-10.9-2.9-16.8-3.4c-15.2-1-30.2,0.5-44.9,4.8c-5.6,1.6-11.5,3-17.3,3.3
		c-8,0.4-15.4-2.1-20.9-8.4c-0.8-1-1.4-2.1-1.8-2.7c1-1,2.5-1.7,2.9-2.8c0.8-2.3,1.2-4.9-0.4-7.1c-0.5-0.7-2.1-0.9-3.2-0.9
		c-0.9,0-1.7,0.5-2.8,1c0.9-8.7,0.8-16.8-8.7-21.8c3.4-4.7,7.2-8.7,13.3-10.2c3.7-0.9,7.3-2.2,11.1-2.8c5-0.8,10-1.1,15.1-1.4
		c7.3-0.5,14.6-0.5,21.7-1.3c4.9-0.5,9.6-2.2,14.3-3.3c0.9,3,2.8,4.3,7.2,4.6c7.1,0.3,13.7-1.2,20.1-3.9c1.1-0.4,2.2-1,3.3-1.3
		c0.9-0.2,2-0.1,2.7,0.1c2.5,0.8,4.9,1.7,7.4,2.6c5.4,1.8,11,2.8,16.6,3.3c0.9,0.1,2.1,0.7,2.3,1.3c0.2,0.8-0.1,2-0.7,2.6
		c-0.9,1.1-2.2,2-3.4,2.7c-5,3-6.1,7.6-6.1,12.7c0,3.7,1.1,7.1,2.7,10.3c3.6,7.3,3.2,8.6-3.5,13.7
		C1761.7,470.3,1758.4,473,1754.7,475.9L1754.7,475.9z M1766,428.7c-0.1-0.2-0.2-0.4-0.2-0.7c-1.7-0.1-3.7-0.9-5.1-0.2
		c-9.1,4.1-18.8,5.9-28.7,6.7c-11.5,1-23,1.5-34.4,2c-9.5,0.3-18,2.7-26,7.4c-4.9,2.8-8.6,6.5-10.5,11.7c-0.4,1.2-1,2.5,0.7,3.5
		c2.7-5.9,7.7-9.6,13.1-12.6c7.5-4.2,15.9-5,24.3-5.1c13-0.1,26-0.3,38.9-2.1c6.7-1,13.4-2.3,19.4-5.4
		C1760.3,432.3,1763.2,430.4,1766,428.7L1766,428.7z M1662.6,470.5c0,0.2,0,0.4,0,0.5c0.2,0.1,0.4,0.3,0.8,0.3
		c0.8,0.2,1.4,0.4,2.2,0.5c6.2,0.7,12.4,0.4,18.4-1.4c2-0.7,3.9-1.3,5.9-1.7c18.3-4.5,36.7-5.4,55.4-4.1c2.8,0.2,5.8,0.3,8.6,0.4
		c0.7,0,1.2-0.5,1.8-0.9c-0.4-0.4-0.9-1-1.4-1.3c-6.4-2.8-13.4-3.7-20.3-3.8c-18.1-0.3-36,2.2-53.1,8c-2,0.7-4.1,1.1-6.2,1.5
		C1670.6,469.3,1666.6,469.9,1662.6,470.5L1662.6,470.5z M1758.9,445c-1.2-0.1-2.1-0.3-2.9-0.2c-2.3,0.3-4.5,1.1-6.7,1.3
		c-10.9,1.1-21.7,2.2-32.7,1.3c-9.6-0.8-19.2-1.5-28.6,1.4c-8.7,2.7-16.5,6.5-21,14.6c-0.3,0.7-0.2,1.6-0.3,2.5
		c0.9-0.2,2-0.4,2.7-0.8c0.4-0.2,0.7-0.9,1.1-1.3c1.8-1.7,3.4-3.7,5.4-5.2c8.7-6.1,18.7-8.6,29.4-7.9c10,0.5,19.9,1.6,29.8,0.4
		c5.4-0.7,11-1,16.4-1.7C1754.5,449,1757,447.6,1758.9,445L1758.9,445z M1732.9,429.4c-0.9,0-1.8,0-2.7,0c-7.5,0.7-15,0.2-22.5-0.8
		c-4-0.5-8.3-1-12.3-0.7c-11,0.9-21.3,4.3-30.9,9.3c-4.3,2.3-7.9,5.6-11.7,8.7c-0.5,0.4-0.3,2-0.4,2.9c0.9-0.2,2-0.1,2.6-0.7
		c10.9-9.3,24-13.6,38.2-16c7.5-1.2,14.9-0.3,22.3-0.1C1721.5,432.5,1727.2,431.4,1732.9,429.4L1732.9,429.4z M1650.2,441.8
		c2.2-1.5,4.1-3,6.2-4.3c5.5-3.5,10.9-7.4,17.5-8.9c0.4-0.1,0.8-0.8,1.1-1.1c-0.4-0.3-0.9-0.9-1.3-1c-0.9-0.1-2-0.1-2.8,0
		c-9.1,1.7-15.9,7.3-22.3,13.4C1649.1,440.6,1649.6,441.3,1650.2,441.8L1650.2,441.8z"/>
	<path class="st12" d="M1641.1,580.5c-6.2-2.6-11.8-5-17.5-7.4c-0.3-0.1-0.7-0.3-1-0.4c-3.2-0.1-4.2-2.2-5.2-4.6
		c-2.1-4.9-4.2-9.8-6.6-14.7c-1.1-2.2-2.4-4.3-3.7-6.4c-1.2-1.8-3.3-1.6-5.8-1.3c2.1-2.8,3.9-5.4,5.6-7.9c2.7-3.9,5.4-7.9,8.3-11.8
		c0.3-0.5,1.2-1,1.8-1c3.9,0.1,7.8,0.5,11.7,0.7c1.4,0,3-0.1,4.2-0.8c6.7-3.2,13.4-6.5,20.1-9.8c2.3-1.1,4.8-1.7,7.2-2.7
		c0.7-0.2,1.4-0.5,1.8-1.1c0.4-0.5,0.8-1.4,0.5-2c-0.2-0.4-1.4-0.8-2-0.7c-1.7,0.4-3.3,1.2-5.3,2.1c1.5-2.4,2.9-4.5,4.1-6.5
		c0.3-0.7,0.1-1.5,0.2-2.3c-0.8,0.2-1.7,0.3-2.3,0.8c-1.4,1.3-2.7,2.8-3.8,4.3c-1.7,2.5-4,4.3-6.8,5.8c-4.3,2.2-8.5,4.9-12.8,7
		c-1.8,0.9-4.1,1.2-6.2,1.1c-13.3-0.8-26.4-1.6-39.7-2.5c-1.1-0.1-2.2-0.3-3.4-0.5c0.4-5.4,0.8-10.6,1.2-16.2
		c10.2,0.7,20.3,1.3,31,2c-1.3,2-2.4,3.4-3.4,4.9c-0.3,0.4-0.2,1.1-0.3,1.6c0.7-0.1,1.4,0.1,2-0.2c1.6-1,3.3-2.2,5.1-3.5
		c0.8,1.6,1.5,3.2,2.4,4.7c0.5,1,1,2.1,1.6,2.9c0.3,0.4,1.2,0.5,1.8,0.8c0.2-0.5,0.8-1.2,0.7-1.7c-0.4-2.3-1.2-4.5-1.8-7.1
		c1.2,0.8,2.2,1.6,3.4,2.1c1.1,0.4,2.4,0.5,3.6,0.8c-0.3-1.1-0.4-2.3-1.1-3.2c-1.4-1.7-3-3.4-4.9-5.3c4.6-3.3,9.2-6.4,13.8-9.7
		c1.5-1.1,2.7-2.5,4.1-3.7c0.4-0.4,1-0.9,1.5-1.1c5.8-2,11.7-2.3,17.7-2.4c0.5,0,1.4,0.9,1.6,1.4c3.3,8.4,3.4,17.1,3.2,25.9
		c-0.2,7-3.5,12.7-6.3,18.8c-3.4,7.4-6.4,14.8-9.6,22.3c-2.9,7-5.9,14-8.7,21.1C1642.3,575.3,1641.8,577.9,1641.1,580.5
		L1641.1,580.5z"/>
	<path class="st14" d="M1467.2,660.2c-1.7-1.8-4-3.7-5.3-6c-1.7-3.4-3.2-6.7-3.2-10.9c0.1-3,0.8-5.6,2.4-8c0.2-0.3,0.7-0.8,1.1-1
		c2.5-1,5-2,7.5-2.8c1.2-0.4,2.4-0.8,3.5-1.3c6.4-2.8,12.8-5.8,19.2-8.7c0.4-0.2,0.8-0.4,1.2-0.7c4.6-2.3,9-4.7,13.7-6.8
		c7-3.3,13.9-6.4,20.9-9.6c7.1-3.3,14.2-6.4,21.3-9.7c4.1-1.8,8.1-3.8,12.3-5.6c3.8-1.7,7.7-3.4,11.5-5.1c1.6-0.8,2.2,0.3,2.4,1.2
		c0.9,2.6,1.5,5.3,2.1,8c1.1,5,2.3,10.1,3.2,15.1c0.4,2.4,0.4,4.9,0.4,7.4c0,0.5-0.7,1.5-1.2,1.6c-6.2,2-12.5,3.8-18.7,5.8
		c-3.5,1.1-7.1,2.4-10.5,3.6c-5.9,2.1-11.8,4.2-17.7,6.4c-5.1,1.8-10.2,3.8-15.2,5.8c-5.5,2.2-11,4.2-16.5,6.4
		c-5.8,2.3-11.5,4.6-17.3,6.8c-3.9,1.5-7.9,2.9-11.8,4.7C1470.7,657.7,1469.4,658.8,1467.2,660.2L1467.2,660.2z"/>
	<path class="st0" d="M1655.7,478.6c-3.2,0.7-6.6,1.3-10,2.3c-2,0.5-4,2.6-5.8,2.4c-2.1-0.3-4.1-0.4-6.2-0.4c-5,0-8.4-2.9-10.4-6.6
		c-2.1-3.8-3-8-4.3-11.9c2.5-2.1,4.8-3.8,6.8-5.8c1-1,1.8-2.4,2.1-3.7c1-5.3,3.3-9.9,8-13.3c1.2-0.9,2-1.1,3.4-0.4
		c5.6,2.7,8.9,8.4,8.4,14.9c-0.1,1.1-0.3,2.2-0.4,3.3c0,0.9-0.1,2.4,0.2,2.6c1.1,0.4,2.4,1.5,3.8,0.2c0.5-0.4,1.3-0.7,2-1
		c0.9,3.6,0.2,4.7-3,5.2c-1.3,0.2-1.8,0.9-1.4,2.1c0.4,1.3,1,2.7,1.7,3.9C1652.4,474.6,1654.2,476.7,1655.7,478.6L1655.7,478.6z
		 M1637.2,456.6c-0.1-0.2-0.1-0.3-0.2-0.5c-1-0.9-1.8-1.7-2.8-2.4c-0.5-0.4-1.4-0.5-2.2-0.5c-0.3,0-1,0.8-0.9,1
		c0.2,0.7,0.5,1.7,1.1,1.8C1633.7,456.3,1635.4,456.4,1637.2,456.6L1637.2,456.6z"/>
	<path class="st12" d="M1608.6,524.2c-3.5,3.5-6.8,6.8-10.1,10.1c-0.2,0.2-0.7,0.4-1,0.4c-3.8,0.4-7.5,1-11.4-0.5
		c-6.1-2.3-12.4-4-18.6-6c-1.2-0.4-2.4-0.9-3.7-1.3c1-2.9,2-5.6,2.9-8.3c4,0,8,0,12.1,0.2c1.5,0.1,2.9,1.3,4.5,1.7
		c2.1,0.7,4.2,1.4,6.4,1.6c5.9,0.7,11.7,1,17.6,1.5C1607.5,524,1607.9,524.1,1608.6,524.2L1608.6,524.2z"/>
	<path class="st0" d="M1579.4,514.8c-3.7-0.1-7.1,0.1-10.4-0.3c-1.7-0.2-3.8-1.1-5-2.3c-2.5-2.7-4.9-5.8-6.7-9
		c-2.5-4.1-1.3-6.7,3.7-7.6c6.3-1,12.2,0.4,17.1,4.5c1.6,1.3,2.4,2.9,2,5.2C1579.5,508.3,1579.6,511.3,1579.4,514.8L1579.4,514.8z"
		/>
	<path class="st0" d="M1562.5,516.5c-0.8,2.3-1.6,4.5-2.3,6.7c-1.3,4.3-4.7,5.9-9.2,4.5c-5-1.5-9.3-3.8-12.6-7.7c-0.8-0.9-1.5-2-2-3
		c-1.2-3.2,2-5.9,6.1-5.1c4,0.8,8,2,12.1,2.9C1557.2,515.4,1559.9,515.9,1562.5,516.5L1562.5,516.5z"/>
	<path class="st14" d="M1621.8,577.2c2.5,1.1,4.6,1.7,6.4,2.7c1.8,0.9,3.5,2,5.2,2.8c1.4,0.8,2.9,1.3,4.2,2.1
		c2.5,1.4,2.3,3.9,2.6,6.2c0.7,5.1-2.3,8.7-6.4,11.8C1630,594.3,1626,586.1,1621.8,577.2L1621.8,577.2z"/>
	<path class="st10" d="M1766,428.7c-2.8,1.7-5.6,3.6-8.6,5.1c-6.1,3.2-12.6,4.6-19.4,5.4c-12.9,1.7-25.9,2-38.9,2.1
		c-8.5,0.1-16.9,0.9-24.3,5.1c-5.4,3.2-10.4,6.7-13.1,12.6c-1.6-1.1-1.1-2.3-0.7-3.5c2-5.2,5.5-8.9,10.5-11.7c8-4.7,16.6-7.1,26-7.4
		c11.5-0.4,23-1,34.4-2c9.9-0.9,19.7-2.6,28.7-6.7c1.3-0.7,3.4,0.1,5.1,0.2C1765.8,428.2,1765.9,428.5,1766,428.7L1766,428.7z"/>
	<path class="st10" d="M1662.6,470.5c4-0.7,7.9-1.2,11.9-1.8c2.1-0.3,4.2-0.8,6.2-1.5c17.2-5.9,34.9-8.3,53.1-8
		c7,0.1,13.9,1,20.3,3.8c0.5,0.2,1,0.9,1.4,1.3c-0.7,0.3-1.2,0.9-1.8,0.9c-2.8,0-5.8-0.2-8.6-0.4c-18.7-1.3-37.2-0.3-55.4,4.1
		c-2,0.5-3.9,1.2-5.9,1.7c-6,1.8-12.2,2.1-18.4,1.4c-0.8-0.1-1.4-0.3-2.2-0.5c-0.2-0.1-0.5-0.2-0.8-0.3
		C1662.6,470.9,1662.6,470.7,1662.6,470.5L1662.6,470.5z"/>
	<path class="st10" d="M1758.9,445c-2,2.6-4.5,4-7.1,4.5c-5.4,0.9-11,1.1-16.4,1.7c-10,1.1-19.9,0.1-29.8-0.4
		c-10.6-0.7-20.7,1.8-29.4,7.9c-2.1,1.4-3.7,3.4-5.4,5.2c-0.4,0.4-0.7,1.1-1.1,1.3c-0.9,0.4-1.8,0.5-2.7,0.8
		c0.1-0.9-0.1-1.7,0.3-2.5c4.6-8,12.3-11.9,21-14.6c9.3-2.8,19-2.2,28.6-1.4c11,0.9,21.8-0.2,32.7-1.3c2.3-0.2,4.5-1,6.7-1.3
		C1756.9,444.6,1757.7,444.9,1758.9,445L1758.9,445z"/>
	<path class="st10" d="M1732.9,429.5c-5.6,1.8-11.4,2.9-17.4,2.8c-7.4-0.2-14.9-1.1-22.3,0.1c-14.1,2.4-27.3,6.6-38.2,16
		c-0.5,0.5-1.7,0.4-2.6,0.7c0.1-1-0.2-2.5,0.4-2.9c3.8-3,7.5-6.5,11.7-8.7c9.6-5,19.9-8.4,30.9-9.3c4-0.3,8.3,0.1,12.3,0.7
		c7.5,1,15,1.5,22.5,0.8C1731,429.4,1732,429.5,1732.9,429.5L1732.9,429.5z"/>
	<path class="st10" d="M1650.2,441.8c-0.5-0.5-1.1-1.2-1.6-1.8c6.3-6.1,13-11.6,22.3-13.4c0.9-0.2,2-0.2,2.8,0
		c0.4,0.1,0.9,0.5,1.3,1c-0.3,0.4-0.7,1-1.1,1.1c-6.6,1.5-11.9,5.4-17.5,8.9C1654.3,438.8,1652.4,440.3,1650.2,441.8L1650.2,441.8z"
		/>
	<path class="st10" d="M1637.2,456.6c-1.7-0.2-3.5-0.3-5.1-0.7c-0.5-0.1-0.9-1.2-1.1-1.8c-0.1-0.2,0.5-1,0.9-1
		c0.8,0,1.5,0.2,2.2,0.5c1,0.7,1.8,1.6,2.8,2.4C1637,456.2,1637,456.4,1637.2,456.6L1637.2,456.6z"/>
</g>
<g>
	<path class="st0" d="M856.7,981.4c0.4,3.4,0.2,6.7-0.9,10c-0.5,1.6-1.6,2.8-3.5,3.5c-3,1.1-6.1,1.4-9.2,0.7
		c-2.4-0.5-4.1-2.7-3.5-4.9c0.9-3,2.1-6.1,3.3-9.1c0.1-0.4,1-0.9,1.5-0.9C848.5,980.9,852.6,981.1,856.7,981.4L856.7,981.4z"/>
	<g>
		<path class="st10" d="M905.6,819.9c0.9,0.4,2.2,0.9,3.2,1.6c1,0.8,2.3,2,2.3,2.8c-0.1,1.1-1.3,2.4-2.4,2.9
			c-1.4,0.7-2.4,1.3-3.2,2.7c-0.9,1.8-2.6,2.1-5.8,1.3c-2.4,2-2.9,3.3-1.4,6.2c1.6,3.3,1.6,6.6,2,10.1c0.2,2.1-0.7,3.8-2.2,5.4
			c-3.2,3.5-7.3,5.2-11.8,6.4c-1.1,0.3-2.3,0.7-3.4,1c-2.4,0.9-2.9,1.5-2.3,3.8c1,3.7,2.1,7.3,3.3,11c0.8,2.5,1.7,2.7,3.9,1
			c1.6-1.3,3-2.8,4.8-3.9c3.3-2,6.7-3.9,10.2-5.5c2-0.9,3.7,0.3,5.2,1.3c4.8,3,9.5,6.4,14.3,9.2c3.5,2,7.5,3.2,11,5.1
			c5.8,3,11.8,5.2,17.9,7.4c6.2,2.2,12.1,4.8,18.1,7.3c1.2,0.5,2,0.4,2.9-0.3c5.6-4.9,10-10.5,13.1-16.9c3.7-7.4,7.5-14.9,11.2-22.3
			c0.7-1.3,1.2-2.4-0.4-3.6c-0.5-0.4-0.7-1.8-0.5-2.7c0.5-2.8,1.2-5.6,1.8-8.8c-3.2-1.2-6.4-2.7-9.8-3.8c-7.6-2.4-12.5-7.6-16-14.1
			c-1.6-3-1.4-6.4-0.3-9.8c-1.3-0.9-2.5-1.7-3.9-2.5c-1.8-1.1-2.7-2.4-2.5-4.5c0.4-4.3,1-8.8,1.3-13.1c0.1-1.1,0-2.3-0.5-3.2
			c-1.4-2.4-3-4.8-4.8-7c-3.3-4.1-4.7-8.7-4.6-13.9c0.2-6.1-0.2-12.1-0.3-18.1c0-1.5,0.1-3.2,0.2-4.7c-3.8,0.8-4.9,0.3-6.5-3
			c-0.4-1-0.9-2-1.2-2.9c-0.8-2-0.4-3.8,1-5.6c7.4-9.5,14.3-19.1,21.9-28.4c9.3-11.2,20.6-19.8,36.2-22.5c9.3-1.6,17.8,0.2,25.7,4.8
			c2.3,1.3,4.6,2.5,7.1,3.4c6.6,2.3,11.1,6.8,15,11.8c5.5,7.1,10.2,14.8,13.6,23.1c2.4,5.8,3.4,11.8,4.1,17.9
			c1.3,11.4-1.2,22.3-4.2,33.2c-2.1,7.4-3.2,15.1-4.8,22.7c-0.1,0.2,0,0.5,0.1,1c2.8-1.6,5.3-3.2,7.9-4.7c2.7-1.5,3.8-1.1,4.6,1.8
			c2.4,8.7,4.9,17.3,7.4,26c0.1,0.5,0.5,1.2,1,1.4c6.7,3.8,12.5,8.8,18,13.9c2.3,2.1,5,3.8,6.8,6.1c5.1,6.4,11.4,11.7,17.2,17.6
			c3.8,3.9,5.3,8.5,5.4,13.6c0.4,22.1,0.8,44.1,1.2,66.1c0.2,9.7,0.3,19.3,0.8,28.9c0.2,5.8,1.4,11.5,1.4,17.3
			c0,8.5-0.7,17.1-1,25.5c-0.1,3.4-0.2,6.7-0.3,10.3c-2.7,0.7-5.5,1.4-8.4,2.2c-9.2,2.3-18.4,4.6-27.6,6.7c-3.2,0.8-6.2,0.3-9.3-0.1
			c-5.5-0.8-11.1-0.9-16.7-1.1c-4.9-0.2-9.8,0.2-14.6-0.4c-4.3-0.5-8.6-2-12.6-3.5c-3.2-1.2-6.2-1.6-9.5-0.7
			c-10.8,3-21.6,6.1-32.4,9.1c-0.9,0.2-1.6,0.5-2.5,0.7c-5.4,1.3-8-1.8-7.4-6.6c2.1-14.4,4.3-28.9,6.5-43.3
			c0.8-4.8,1.3-9.6,1.8-14.4c-11.7-2.5-23.4-5-35.1-7.5c0,2.1-1.1,2.3-2.7,2c-1.8-0.4-3.8-0.7-5.6-1c-2-0.3-2.7,0.2-2.5,2.1
			c0.2,1.6,0.3,3.3,0.7,4.9c2.7,13.4,5.2,26.7,8.1,40c1.5,7,3.7,13.8,6,20.4c0.7,1.8,2.9,3.2,4.7,4.7c4.1,3.6,8.5,7.1,12.3,10.9
			c1.8,1.8,3.2,4.3,4.1,6.7c1.3,3-1.4,6.1-4.9,6.2c-6.3,0.3-11.5-2-16.5-5.1c-7.4-4.6-15-8.7-23.4-11.5c-4.3-1.5-5.3-3.7-3.7-7
			c0.2-0.3,0.3-1,0.1-1.3c-5.3-10.6-8.7-21.9-11.4-33.4c-1.5-6.3-3.3-12.6-4.8-18.9c-0.3-1.5-1.2-2.1-2.9-2c-4.1,0-8.4,0-12.5-0.2
			c-1.5-0.1-2.7,0.2-3.7,1.3c-4,4.3-9.5,5.3-15.2,5.2c-4.1,0-6.5-2.4-8.3-5.5c-7,0.2-13.9,0.4-20.7,0.7c-0.5,2.2-1,4.7-1.8,7.1
			c-2.6,7-12.1,9.2-17.6,8.9c-4.9-0.3-8.7-2-10.9-6.2c-0.8-1.5-1.1-3.3-1.4-4.7c-13.4-0.3-26.6-0.7-40.2-1
			c0.1-5.5,0.2-10.6,0.3-16.1c6.7,0,13.4,0,20,0c-1-8.1-0.3-15.9,1.8-23.6c5.2-18.1,10.1-36.3,15.5-54.3c2.1-7,4.9-13.8,7.6-20.5
			c1.1-2.6,2.7-5,4.5-7.4c1.2-1.5-0.1-2.5-0.8-3.5c-0.2-0.4-1.8-0.5-2.6-0.3c-3.5,1.2-6.8,2.6-10.2,3.8c-3.5,1.2-5.4-0.3-5.2-3.7
			c0-0.7-0.2-1.3-0.4-2c-0.2,0-0.4,0-0.7,0c-0.2,0.3-0.3,0.7-0.5,1.1c-1.4,2.3-3.2,2.4-4.8,0.3c-1.3-1.5-2-3.3-1.6-5.2
			c0.2-1.1,0.1-2.2-0.3-2.9c-0.9-0.9-2.4-1.5-2.5-2.5c-0.3-1.8,1.1-3,3-3.5c-1.6-2.1-3.4-2.4-6-1.2c-1.2,0.5-2.4,1.2-3.6,1.4
			c-3,0.7-5-1.1-4.2-3.9c0.3-1.5-0.2-1.8-1.6-2.2c-4.7-1.1-6.8-5.1-4.7-8.8c0.4-0.8,1.5-1.1,2.3-1.7c0.7-0.5,1.1-1.2,1.6-1.7
			c-0.5-0.3-1.1-0.8-1.7-1c-1.8-0.8-2.5-2.2-2.3-3.8c0.2-1.8,2.1-3.5,4-3.6c1,0,2.1,0.3,3,0.3c1,0,2-0.4,2.9-0.7
			c-0.3-0.9-0.5-1.8-1.1-2.6c-0.4-0.7-1.2-1.2-1.7-1.8c-1-1.3-2.1-2.3-3.8-2.8c-3.5-1-3.8-3.5-1.2-6.2c-2.2-3.6-1.6-4.5,2.3-6.4
			c1.5-0.8,3.3-2,3-4.2c-0.2-2.1,1.1-2.9,3.6-2.6c0.1,0.1,0.2,0.2,0.2,0.3c0.3,1.3,0.3,3,2.5,2.7c2.3-0.3,2-2.2,1.7-3.6
			c-0.1-0.8-0.3-1.5-0.9-2.1c-1.5-2-1.5-4-0.4-6.1c1.4-2.5,2.9-4.9,4.6-7.3c2.6-3.9,6.5-5,11.2-4.2c0.8,0.1,1.6,0.9,2.2,1.4
			c0.9,1,2,1.6,2.9,0.8c0.7-0.5,0.9-1.8,0.9-2.8c0-1.6-0.7-3.3-0.5-4.9c0-2.2,2.2-3.4,4.8-2.4c2.2,0.9,4,0.3,6.2,0
			c2.4-0.4,5-0.5,7.4-0.5c3,0.1,4.5,2,4.3,4.8c0,0.8,0.4,1.4,1.2,2c0.4-1.7,0.8-3.6,1.3-5.3c1.1-3.2,6.6-5,9.6-3
			c0.5,0.3,0.7,1.4,1.1,2.7c2.3-1.5,5-3.5,7.6-1.5c2.1,1.6,3.5,4,5.2,6.2c0.1-0.1,0.4-0.7,0.9-0.8c1.4-0.4,3-1.2,4.2-0.9
			c1.5,0.4,3.5,1.2,3.6,3.3c0.1,1.6,0.4,3.3,0.8,5.2c2.7-1.7,5.3-3.4,8.7-1.7c2.5,1.3,3.8,4,3.3,7.5c4.3,0.8,5.6,1.6,5.9,4
			c0.2,2.3-1,3.5-4.7,4.7c0,1.7,0,3.2,2.7,3.3c2.4,0.1,3.9,1.8,5,3.7c1.2,2.2,0.3,4.2-2.2,5.8c-1,0.5-2,1.1-3.5,2
			c2.3,0.9,4.3,1.8,3.8,4C907.7,816.7,906.5,818.1,905.6,819.9L905.6,819.9z M1034.3,945c-0.5,2.1-1.1,3.8-1.5,5.6
			c-0.4,1.6-0.8,3.4-1.5,5c-0.3,0.8-1.5,1.6-2.3,1.6c-0.7,0-1.7-1.2-1.8-2.1c-0.5-3.2-0.8-6.3-1-9.5c-0.1-1.6-0.7-2.4-2.4-2.3
			c-4.9,0.2-9.7,0.2-14.6,0.5c-17.3,1-34.8,0.5-52,3c0.1,0.4,0.1,0.9,0.2,1.3c1.6,3.8,3.5,7.5,5.1,11.2c1.1,2.7,2.9,3.9,6.2,4.3
			c10.4,1.4,20.6,3.6,31.1,5.1c19.2,2.7,38.5,5.6,57.4,10c2.2,0.5,3.6-0.1,4.6-1.8c1.5-2.7,3.2-5.3,4.7-8
			c5.3-9.8,10.4-19.7,15.9-29.3c2.5-4.5,5.3-8.7,8-13c3.3,1.2,3.4,1.6,1.7,4.3c-2.3,3.8-4.7,7.5-7,11.3
			c-7.7,12.8-15.6,25.4-21.5,39.3c-17.9-1.5-36.1-3-54.3-4.5c-2.4,18.6-4.8,37.4-7.2,56.1c-0.1,0,0.3,0,0.8-0.1
			c12.9-3.7,25.7-7.4,38.7-11.2c3.6-1.1,6.6-0.4,9.3,2c1.3,1.1,2.8,2.4,4.3,2.7c4.2,0.8,8.6,1.3,12.9,1.2c7.3-0.2,14.4-0.7,21.8,0.2
			c3.8,0.4,7.9,0.1,11.6-0.9c9.5-2.7,18.8-6,28.5-9.1c-0.4-2-1.2-4.1-1.3-6.3c-0.7-10.8-1.3-21.6-1.6-32.4
			c-0.7-21.5-1.2-43-1.7-64.5c-0.3-11.4-0.8-22.8-0.8-34.3c0-4-1.1-7.3-3.8-10.2c-5.9-6.1-11.8-12.2-17.8-18
			c-3.8-3.8-7.8-7.4-11.7-10.9c-1.6-1.4-3.6-2.6-5.5-4.1c-2.1,2.3-4.1,4.2-5.9,6.5c-5.2,6.6-10.2,13.4-15.3,20
			c-0.3,0.5-0.9,1-1.1,1.5c-1.2,2.5-2,2.9-4.8,2.3c-1.2-0.3-2.4-0.8-3.6-1.1c-3.6-0.9-7.3-1.6-11-2.5c-2,6.6-3.9,13-5.6,19.4
			c-1.1,4.2-2,8.5-2.9,12.7c-0.7,2.8-3.2,3.6-5.4,1.6c-0.3-0.3-0.7-0.7-1.2-1.2c-4,12.9-8.1,25.5-10.2,38.8c4-0.1,7.8-0.5,11.7-0.3
			c2.3,0.1,3.3-0.8,4-2.6c3.4-8,6.7-16.1,10.2-24c4.9-11.1,11-21.5,19.3-30.7c2.5-2.7,5.1-5.8,9.3-6.2c5.2-0.5,10.3,0.1,15,2.3
			c1,0.4,1.6,1.3,2.3,1.8c-4,0.8-7.8,1.6-11.7,2.2c-2.9,0.4-5.3,1.2-7.5,3.4c-6.8,7.1-13,14.4-17.9,22.8c-5.4,9.1-10,18.6-15,27.9
			c-0.1,0.2,0,0.5,0,0.9c0.5-0.1,1-0.1,1.4-0.3c4.2-2,8.8-1.4,13.3-1.4c1.4,0,2.6,0.8,2.7,2.2s-0.8,2.4-2.2,2.7
			c-0.9,0.2-1.8,0.3-2.8,0.5c-3.7,0.5-7.3,1.1-11.6,1.6c2.4,2.5,4.3,4.5,6.1,6.4c1.2,1.3,2.6,2.7,3.3,4.3c0.4,1,0,2.7-0.7,3.5
			c-0.5,0.7-2.3,0.7-3.4,0.4c-0.9-0.1-1.6-1-2.3-1.5C1039.3,949.5,1036.9,947.4,1034.3,945L1034.3,945z M962.4,779.7
			c0.8,1.1,1.6,2.2,2.4,3.4c2.1,3.3,4.1,6.5,6,9.9c0.4,0.8,0.3,2,0.2,2.9c-0.4,3.3-1.1,6.4-1.4,9.6c-0.1,1,0.4,2.3,1.1,3.2
			c1.7,2.1,4.2,2.3,6.8,1.8c3.3-0.7,6.4-1.5,9.7-1.8c6.7-0.7,12.9-2,17.7-6.8c0.5-0.5,1.2-1.1,1.8-1.5c8-5.8,13-13.7,16.9-22.1
			c1.5-3.3,2.1-7.1,2.9-10.5c0.1-0.5,0-1.3-0.3-1.7c-1.3-1.8-2.7-3.6-4.2-5.3c-9.7-10.5-19.4-21.1-29.1-31.6c-1.3-1.5-2.8-2-4.7-1.4
			c-6.8,1.8-13.4,4.1-18.8,8.8c-2.5,2.2-5.1,4.3-7.5,6.7c-0.9,0.9-1.6,2.2-1.6,3.4c0,8.1,0.3,16.2,0.4,24.4c0.7-0.2,1.4-0.3,2.1-0.5
			c3-1.2,6.2-2.3,9.2-3.5c2.9-1.2,3.5-1,4.7,2C972.2,772.5,966.2,774.8,962.4,779.7L962.4,779.7z M862.7,865.9
			c-1.7,1.5-3.2,2.8-4.6,4c-2.2,1.7-4.6,2.3-7.4,1.7c-2-0.4-4-0.7-5.2,1.4c-1,1.6-2,3.3-2.6,4.9c-2,5-3.8,9.9-5.5,15
			c-1.7,5.2-3.4,10.5-4.8,16c-1.1,4-1.8,8-3,12.1c-1.3,4.3-2.9,8.7-4.1,13c-1.6,5.9-2.9,11.8-4.2,17.7c-0.7,2.7-1.4,5.5-1.8,8.3
			c-0.5,3.5-0.8,7-1.2,10.4c-0.2,2.1,1.4,4.7,3.2,4.8c3.6,0.2,7.1,0.3,10.6,0.4c1.3,0,2.3-0.5,2.2-2c-0.1-1.4,0-3,0-4.5
			c0-3.7,0-7.4,0.2-11.1c0.2-3.4,0.5-6.8,1-10.2c0.3-2.7,0.9-5.3,1.2-8c0.4-3.4,0.5-6.7,1.1-10.1c0.4-3.3,1.2-6.4,1.8-9.6
			c0.9-4.7,1.5-9.3,2.7-13.9c1.4-5.6,3.3-11.2,5.1-16.7c1-2.7,2.2-5.5,4-7.8c1.1-1.4,3.7-2.8,5.4-2.7c6,0.5,10.2,4.1,13.5,8.8
			c1,1.4,1.8,3,2.6,4.7c0.9,2,2.2,3.9,2.4,5.9c0.5,5.2,0.9,10.5,0.9,15.8c0,3.5-0.2,7.1-0.9,10.5c-0.8,4.6-2,9-3,13.5
			c-2,7.6-4.6,15-7.9,22.1c-0.8,1.6-1,3.4-0.3,5.1c0.5,1.3,1.8,1.7,2.7,1c1.4-1.2,2.7-2.4,4-3.6c5.2-4.7,10.5-9.3,15.9-13.9
			c2.7-2.3,5.6-4.2,8.5-6.3c2-1.4,2.3-2.6,1.3-4.8c-0.7-1.4-1.2-2.8-1.5-4.3c-1.7-7.6-3.5-15.1-5-22.7c-1.2-5.8-3-11.4-5.4-16.8
			c-0.9-2-1.6-1.8-2.9-0.8c-1.5,1.3-3.3,0.7-4.3-0.1c-3.3-2.4-4-6.3-2.4-10c0.5-1.3,2.3-1.8,3.5-1.1c0.5,0.3,1.1,0.7,1.5,1.1
			c0.2,0,0.5-0.1,0.8-0.2c-0.7-5.1-0.3-10.3-2.3-15.8C872.7,870.1,867.4,870.2,862.7,865.9L862.7,865.9z M857,973.7
			c0.9-4.9,1.6-9.1,2.5-13.4c1-4.5,2.2-8.8,3.3-13.1c1.7-7.2,3.7-14.2,5.2-21.5c0.9-4,1.2-8,1.6-12.2c0.2-1.6,0-3.3,0-4.8
			c0-2.5,0.3-5.1-0.1-7.5c-0.8-3.7-2-7.3-3.3-10.9c-1.3-3.6-3.5-6.5-8.3-6.7c-2.8-0.1-6.2,1.2-6.7,3.2c-0.9,3-1.2,6.2-1.7,9.3
			c-0.8,4-0.9,8.1-2.3,11.9c-1.8,5.1-2.6,10.3-3.4,15.5c-0.9,5.2-1.3,10.4-2.1,15.8c-0.7,4.6-1.6,9-2.3,13.5
			c-0.7,5-1.3,10.1-1.6,15.1c-0.1,1.8,0.1,3.9,1,5.5c0.4,0.8,2.5,0.9,3.9,1.1c0.9,0.1,1.8,0,2.8,0c1.2-0.1,2.5-0.4,3.7-0.5
			C851.9,974,854.5,973.8,857,973.7L857,973.7z M1071.7,806.2c-0.2,0-0.4-0.1-0.8-0.1c-1.5,2-3,3.8-4.6,5.8
			c-3.4,4.3-6.5,8.8-10.1,13c-6.7,7.9-13.5,15.8-20.4,23.4c-5.9,6.4-11.7,12.9-19.8,17.2c-0.8,0.4-1.5,1.1-2.4,1.6
			c5.8,7.6,11.4,15.1,17.1,22.7c1.1-4.7,2.1-9.5,3.4-14.1c1.6-5.8,3.6-11.5,5.4-17.2c0.4-1.3,1.1-2,2.7-1.3c1.5,0.5,3.4,0.5,4.9,1.1
			c5.3,1.7,8.6-0.3,11.5-4.3c6.2-8.3,12.7-16.3,18.9-24.4c0.3-0.4,0.4-1.4,0.2-2c-1.2-3.4-2.8-6.7-3.8-10.1
			C1073.2,813.8,1072.6,809.9,1071.7,806.2L1071.7,806.2z M891.5,903c-0.1,0-0.3,0.1-0.4,0.1c0.1,0.8,0.1,1.4,0.2,2.2
			c1.5,9.9,4.9,19.4,7.8,29c1,3.4,2.8,5.9,6.6,7c4.1,1.1,8.1,2.2,12.1,3.7c3.2,1.2,5.9,1.8,8.7-0.3c0.7-0.4,1.5-0.7,2.2-0.9
			c6.7-2.4,13.7-4.3,20.9-5c1.7-0.2,3.4,0.1,4.3,1.8c0.2,0.4,1.2,0.9,1.8,0.8c2.3-0.2,4.6-0.4,6.7-0.9c4-0.8,8-1.6,12.2-2.3
			c1.8-0.3,3.6-0.4,5.4-0.7c0.1-0.2,0.1-0.4,0.2-0.7c-9.3-4.9-18.6-9.8-27.9-14.6c-0.5-0.3-1.5-0.2-2.3-0.1
			c-6.8,1.1-13.5,3.5-20.6,3.2c-7.4-0.2-14.9-0.9-21-5.1c-6.3-4.5-12.1-9.5-16-16.1C892.1,903.6,891.8,903.3,891.5,903L891.5,903z
			 M924.6,974c1.3,0.1,2.2,0.1,2.9,0.2c1.8,0,3,0.4,3.6,2.5c1.1,4,2.8,7.8,3.9,11.8c3.2,11.6,6,23.2,9.1,34.9
			c0.9,3.2,1.7,6.2,2.9,9.2c1.8,4.9,7.5,7.6,12.8,5.8c1.7-0.5,3.3-2.1,4.6-3.5c0.4-0.5-0.1-2-0.3-2.9c-0.5-2.1-1.3-4.1-1.6-6.2
			c-1.1-6.6-2.1-13.3-3.3-19.8c-1.3-7.5-3-14.9-4.3-22.4c-0.8-4.3-1.4-8.7-1.8-13c-0.1-1.1-0.5-1.5-1.6-1.8c-4.5-1.2-9-2-13.7-1.3
			c-1.5,0.2-3.4-0.4-4.6,0.2C930.3,969.5,927.8,971.6,924.6,974L924.6,974z M869.1,857c6.8,1.6,13.3,2.2,19.3-2
			c4.2-2.9,8.3-5.8,7.1-11.5c-0.1-0.5,0.1-1.3,0-1.8c-0.4-1.8-0.4-4-1.5-5.4c-1.7-2.5-1.8-5.1-1.2-7.7c0.5-2.3,1.6-4.5,2.2-6.7
			c0.3-1.7,0.8-3.8,0.1-5.3c-1.4-3.6-4.6-6.2-8.3-7.6c-4-1.6-7.6-0.1-10.9,2.2c-0.5,0.4-1.1,1.2-1.1,1.8c-0.2,2.6-1.5,4.3-4.1,5.4
			c-2.7,1.1-3.8,2.3-3.4,5.1c0.3,2.2-0.7,3.6-2.5,4.3c-1.5,0.5-3.3,0.9-4.9,0.7c-4.3-0.4-6.1,1.2-5.8,5.2c0.2,3.2,2.6,4.3,5,5.5
			c2.8,1.4,3.5,2.6,2.6,5.4c-0.8,2.5-0.5,4.9,0.7,7.2C868.8,850.8,870.5,852.1,869.1,857L869.1,857z M1015.1,915.3
			c0.1-0.3,0.2-0.8,0.3-1.1c2.1-7.4,4-14.8,6.4-22.1c0.8-2.4,0.5-4.2-1.1-6.1c-0.4-0.5-0.9-1.1-1.3-1.6c-3.4-4.9-6.8-9.6-10-14.6
			c-1.8-2.9-0.8-4.9,2.7-5.9c1.6-0.4,3.3-1.2,4.8-1.7c-1.6-4.1-5.5-9-8-10.2c-1.4,2.1-2.2,4.8-5.3,5.3c-0.2,0-0.4,0.7-0.5,1.1
			c-3.8,7.9-6.1,16.5-11,24.1c-3,4.6-5.8,9.2-8.8,13.8c-1.1,1.6-2.4,3-3.5,4.6C991.5,905.7,1003.3,910.5,1015.1,915.3L1015.1,915.3z
			 M1013.6,921.7c-2.1-0.9-4.1-2-6.3-2.8c-10.2-4.3-20.4-8.6-30.6-12.9c-0.5-0.2-1.5-0.2-2,0.1c-5.6,4.2-11.2,8.6-16.8,12.9
			c0.1,0.1,0.3,0.2,0.5,0.3c10.8,5.4,21.6,10.9,32.4,16.2c1,0.4,2.2,0.9,3.2,0.8c5.3-0.7,10.6-1.5,16-2.4c0.3,0,0.8-0.5,0.9-1
			C1011.9,929.3,1012.7,925.6,1013.6,921.7L1013.6,921.7z M910.3,953.8l-0.1-0.2c-2.5,0.9-5.1,1.7-7.7,2.4c-3.9,1.1-6.6,3.4-8.7,6.6
			c-1,1.5-2,2.9-2.8,4.5c-2.9,5.2-3.3,10.9-1.7,16.4c1.3,4.7,2.3,5.3,8.1,4.6c4.5-0.5,7.5-2.9,10.3-5.8c5.2-5,10.3-10.1,16.6-14.1
			c1.7-1.1,3.6-3.3,3.8-5c0.3-2.6-0.5-5.4-1.5-7.9c-1.3-3-3-3.7-6.5-3.3C916.8,952.4,913.5,953.2,910.3,953.8L910.3,953.8z
			 M1024.6,749.2c0.8-1.4,1.2-2.5,1.8-3.5c1.3-1.8,5.4-2.6,7.2-1.5c1.8,1.1,2.2,3.7,0.9,6c-0.7,1.1-1.7,2.1-2.4,3.2
			c-0.4,0.8-1,1.7-0.9,2.4c1.4,5.8,2.5,11.7,4.8,17.2c1.8,4.3-0.1,7.8-1.7,11.1c-4,7.9-8.9,15.4-13.3,23.1
			c-6.1,11.1-12.1,22.3-17.9,33.5c-1.4,2.7-2.7,5.4-3.8,8.4c-0.8,2.1,0.1,3,2.6,4.2c2,0.9,2.5-0.4,3.2-1.5c1.1-1.6,2.2-3.3,3-5
			c5.3-10.3,10.6-20.7,16-31.1c6.4-12.3,12.8-24.7,19.3-36.9c0.5-1,0.8-1.8,0-3c-2.5-4.2-4.7-8.6-7.2-12.7c-1.8-3-1.6-5.2,1.1-7.9
			c4.5-4.6,4.1-10.1-0.1-14.6c-3.5-3.7-11.6-3.5-14.8,0.5C1020.8,742.9,1021.1,744.9,1024.6,749.2L1024.6,749.2z M921.5,880.9
			c-4.7-2.6-9.3-5-13.8-7.6c-2.5-1.5-4.9-1.3-7.6-0.5c-7,1.7-11.5,6.7-16.6,10.9c-0.5,0.4-0.7,1.2-1,1.8c0.9,0.2,1.8,0.7,2.5,0.5
			c3.4-0.9,6.6-2.2,10.1-2.9c2.6-0.5,5.4-1,7.9-0.8c2.8,0.3,3.7,2.8,1.6,4.7s-4.3,3.7-7.6,3.5c-3-0.1-6.2-0.2-9.2-0.2
			c-0.8,0-1.6,0.3-2.7,0.5c1.5,1.4,2.7,2.6,4,3.8c2.4,2.2,5.3,2.9,8.5,2.6c3.8-0.4,7.6-1,11.3-1.8c2.1-0.4,4.7-1.2,5.8-2.7
			C917.2,889,919.2,884.9,921.5,880.9L921.5,880.9z M1057.8,815.5c-0.1-0.2-0.3-0.3-0.4-0.5c-0.8,0.4-1.5,0.8-2.2,1.3
			c-6.4,4.3-12.8,8.8-19.3,13c-7.2,4.7-14.3,9.3-21.5,13.9c-1.8,1.2-2.2,2.4-0.9,4.3c2.4,3.6,4.6,7.3,6.7,10.6
			C1032.6,844.1,1045.2,829.9,1057.8,815.5L1057.8,815.5z M932.5,906.1c4.9,2.4,9.6,4.8,14.2,7.1c0.4,0.2,1.3,0.1,1.7-0.1
			c5.5-3.6,11.1-7.3,16.6-10.9c0.2-0.2,0.4-0.4,0.8-0.9c-8.4-3.6-16.5-7.1-24.9-10.5C938.2,895.9,935.4,901,932.5,906.1L932.5,906.1
			z M952.4,953.5l0.5-0.2c-0.8-2.2-1.5-4.5-2.4-6.6c-0.2-0.5-0.9-1.2-1.3-1.2c-2.3-0.2-4.7-0.5-7-0.2c-3.5,0.7-6.8,2-10.3,2.8
			c-1.3,0.3-1.6,0.9-1.2,1.8c1.4,3.8,2.7,7.6,4.3,11.4c0.3,0.7,1.5,1.4,2.4,1.5c5.1,0.4,10.1,0.8,15.2,0.9c2.7,0.1,3.5-1.2,2.5-3.6
			C954.3,957.9,953.3,955.7,952.4,953.5L952.4,953.5z M1023.9,830.5c11.7-7.8,23.5-15.5,34.5-22.9c-0.3-5.9-0.7-11.2-0.9-16.7
			C1045.2,803.4,1033.4,816,1023.9,830.5L1023.9,830.5z M930.6,909.8c-2.1,3.4-3.2,3.6-7,1.8c-2.7-1.3-5.4-2.4-8.1-3.7
			c-1.6-0.8-3.3-1.6-4.7-2.7c-0.5-0.3-0.9-1.4-0.8-2.1c0.3-1.5,0.9-3,1.3-4.2c-4.8,0.9-9.7,1.8-14.4,2.8c-0.1,0.2-0.1,0.5-0.2,0.9
			c2.7,2.4,5.4,4.6,7.9,7.1c7.2,6.7,16.1,9.7,25.9,10.8c4.3,0.4,7.8-1.6,11.2-3.4C938,914.5,934.4,912.2,930.6,909.8L930.6,909.8z
			 M857.5,980.3c-4.9,0-9.7,0-14.4,0.2c-0.5,0-1.5,0.5-1.6,1.1c-1.1,3.6-2.2,7.2-2.9,10.8c-0.5,2.6,1.7,4.9,4.6,5.3
			c3.8,0.5,7.3,0,10.6-1.5c2.1-1,3.2-2.4,3.7-4.3C858.5,988,858.3,984.1,857.5,980.3L857.5,980.3z M867.9,972.6
			c0.2,0.2,0.3,0.5,0.5,0.8c3-0.3,6.1-0.9,9.1-0.9c2.8,0,4.6-1.3,5.4-3.4c2.4-5.5,6.5-9.8,10.5-14.1c2-2.2,4.6-3.4,7.5-4.1
			c3.2-0.8,6.1-2,9.1-3c0.4-0.1,0.7-0.8,1-1.1c-0.4-0.2-0.9-0.7-1.4-0.8c-1.5-0.3-3-0.5-4.6-0.7c-2,0-4.5-0.5-6,0.3
			c-11.6,6.4-20.7,15.5-30,24.4C868.7,970.8,868.5,971.7,867.9,972.6L867.9,972.6z M925.8,907.5c3.2-6.7,6.1-13.1,9-19.4
			c-2.8-1.6-5.4-3.2-8.5-4.9c-3.5,6-7,11.9-10.4,17.9C919.5,903.5,922.7,905.5,925.8,907.5L925.8,907.5z M890.3,887.2
			c3.3,2,9.7,0,10.9-3.4C897.5,885.1,894.1,886.1,890.3,887.2z"/>
		<path class="st0" d="M1034.3,944.9c2.7,2.4,5.1,4.5,7.5,6.5c0.7,0.5,1.4,1.4,2.3,1.5c1.1,0.2,2.8,0.2,3.4-0.4
			c0.8-0.9,1.1-2.5,0.7-3.5c-0.8-1.6-2.1-2.9-3.3-4.3c-1.8-2-3.7-3.9-6.1-6.4c4.2-0.7,7.9-1.1,11.6-1.6c1-0.1,2-0.2,2.8-0.5
			c1.4-0.4,2.3-1.3,2.2-2.7c-0.1-1.5-1.3-2.2-2.7-2.2c-4.5,0-9-0.5-13.3,1.4c-0.3,0.2-0.9,0.2-1.4,0.3c0-0.3-0.1-0.7,0-0.9
			c4.9-9.3,9.6-18.8,15-27.9c4.9-8.3,11.1-15.8,17.9-22.8c2.2-2.2,4.6-2.9,7.5-3.4c3.8-0.5,7.6-1.4,11.7-2.2
			c-0.7-0.5-1.3-1.4-2.3-1.8c-4.8-2.3-9.9-2.8-15-2.3c-4.1,0.4-6.8,3.5-9.3,6.2c-8.4,9.1-14.3,19.7-19.3,30.7
			c-3.6,7.9-6.8,16-10.2,24c-0.8,1.8-1.7,2.7-4,2.6c-3.8-0.1-7.6,0.2-11.7,0.3c2.1-13.3,6.2-25.9,10.2-38.8c0.5,0.5,0.9,0.9,1.2,1.2
			c2.3,1.8,4.8,1.1,5.4-1.6c1-4.2,1.7-8.5,2.9-12.7c1.7-6.4,3.7-12.7,5.6-19.4c3.7,0.9,7.3,1.6,11,2.5c1.2,0.3,2.4,0.8,3.6,1.1
			c2.8,0.7,3.7,0.2,4.8-2.3c0.2-0.5,0.7-1.1,1.1-1.5c5.1-6.7,10.1-13.4,15.3-20c1.7-2.2,3.8-4.1,5.9-6.5c2.1,1.4,3.9,2.6,5.5,4.1
			c4,3.6,7.9,7.2,11.7,10.9c6.1,6,11.9,11.9,17.8,18c2.8,2.8,3.8,6.2,3.8,10.2c0,11.4,0.4,22.8,0.8,34.3c0.5,21.5,1.1,43,1.7,64.5
			c0.3,10.9,1,21.6,1.6,32.4c0.1,2.2,0.9,4.3,1.3,6.3c-9.7,3.2-18.9,6.4-28.5,9.1c-3.6,1.1-7.8,1.3-11.6,0.9
			c-7.3-0.9-14.6-0.4-21.8-0.2c-4.3,0.1-8.7-0.4-12.9-1.2c-1.6-0.2-3-1.6-4.3-2.7c-2.7-2.4-5.8-3-9.3-2
			c-12.8,3.8-25.7,7.5-38.7,11.2c-0.4,0.1-0.9,0.2-0.8,0.1c2.4-18.7,4.8-37.5,7.2-56.1c18.3,1.5,36.4,3,54.3,4.5
			c5.9-13.9,13.8-26.6,21.5-39.3c2.3-3.8,4.7-7.5,7-11.3c1.6-2.7,1.5-3-1.7-4.3c-2.6,4.3-5.5,8.6-8,13c-5.3,9.8-10.5,19.6-15.9,29.3
			c-1.4,2.7-3.2,5.3-4.7,8c-1,1.7-2.4,2.4-4.6,1.8c-18.9-4.5-38-7.4-57.4-10c-10.4-1.4-20.6-3.7-31.1-5.1c-3.3-0.4-5-1.7-6.2-4.3
			c-1.6-3.8-3.4-7.5-5.1-11.2c-0.2-0.3-0.1-0.8-0.2-1.3c17.4-2.5,34.8-2.1,52-3c4.9-0.3,9.7-0.3,14.6-0.5c1.7-0.1,2.4,0.7,2.4,2.3
			c0.1,3.2,0.4,6.3,1,9.5c0.1,0.8,1.2,2,1.8,2.1c0.8,0,2-0.9,2.3-1.6c0.8-1.5,1.1-3.3,1.5-5C1033.3,948.7,1033.8,947,1034.3,944.9
			L1034.3,944.9z"/>
		<path class="st0" d="M962.4,779.7c3.8-4.9,9.8-7.3,14.2-11.1c-1.2-2.9-1.7-3.2-4.7-2c-3,1.2-6.1,2.4-9.2,3.5
			c-0.7,0.2-1.4,0.3-2.1,0.5c-0.2-8.3-0.4-16.4-0.4-24.4c0-1.1,0.8-2.5,1.6-3.4c2.4-2.4,5-4.5,7.5-6.7c5.3-4.7,11.9-7,18.8-8.8
			c1.8-0.5,3.3-0.1,4.7,1.4c9.7,10.5,19.4,21.1,29.1,31.6c1.5,1.6,2.9,3.5,4.2,5.3c0.3,0.4,0.4,1.2,0.3,1.7
			c-0.9,3.6-1.4,7.3-2.9,10.5c-3.9,8.5-9,16.3-16.9,22.1c-0.7,0.4-1.3,1-1.8,1.5c-4.8,4.9-11,6.3-17.7,6.8c-3.3,0.3-6.5,1.2-9.7,1.8
			c-2.6,0.5-5.1,0.2-6.8-1.8c-0.7-0.9-1.2-2.2-1.1-3.2c0.3-3.3,1-6.4,1.4-9.6c0.1-1,0.2-2.2-0.2-2.9c-1.8-3.4-3.9-6.6-6-9.9
			C964.1,781.9,963.2,780.8,962.4,779.7L962.4,779.7z"/>
		<path class="st14" d="M862.7,865.9c4.7,4.2,10,4.1,15.4,1c2,5.3,1.6,10.5,2.3,15.8c-0.2,0-0.5,0.1-0.8,0.2c-0.5-0.3-1-0.8-1.5-1.1
			c-1.3-0.8-2.9-0.2-3.5,1.1c-1.6,3.7-0.8,7.6,2.4,10c1.1,0.9,2.8,1.5,4.3,0.1c1.3-1.1,2.2-1.2,2.9,0.8c2.4,5.4,4.2,11.1,5.4,16.8
			c1.6,7.6,3.3,15.1,5,22.7c0.3,1.4,0.9,2.9,1.5,4.3c1,2.2,0.7,3.4-1.3,4.8c-2.8,2.1-5.9,4-8.5,6.3c-5.4,4.6-10.6,9.2-15.9,13.9
			c-1.3,1.2-2.7,2.4-4,3.6c-0.9,0.8-2.2,0.3-2.7-1c-0.7-1.7-0.4-3.5,0.3-5.1c3.4-7.2,6-14.4,7.9-22.1c1.1-4.5,2.3-8.9,3-13.5
			c0.5-3.5,0.9-7.1,0.9-10.5c0-5.2-0.3-10.5-0.9-15.8c-0.2-2.1-1.4-3.9-2.4-5.9c-0.8-1.6-1.5-3.2-2.6-4.7c-3.2-4.7-7.4-8.3-13.5-8.8
			c-1.7-0.2-4.3,1.3-5.4,2.7c-1.8,2.3-3,5.1-4,7.8c-2,5.5-3.7,11.1-5.1,16.7c-1.2,4.6-1.8,9.2-2.7,13.9c-0.7,3.2-1.3,6.3-1.8,9.6
			c-0.5,3.4-0.7,6.7-1.1,10.1c-0.3,2.7-0.9,5.3-1.2,8c-0.4,3.4-0.9,6.8-1,10.2c-0.2,3.7-0.2,7.4-0.2,11.1c0,1.5,0,3,0,4.5
			s-0.9,2.1-2.2,2c-3.6-0.1-7.2-0.2-10.6-0.4c-1.6-0.1-3.4-2.7-3.2-4.8c0.4-3.5,0.7-7,1.2-10.4c0.4-2.8,1.2-5.5,1.8-8.3
			c1.4-6,2.7-11.8,4.2-17.7c1.2-4.3,2.8-8.7,4.1-13c1.1-4,2-8,3-12.1c1.5-5.3,3-10.6,4.8-16c1.6-5,3.6-10,5.5-15
			c0.7-1.7,1.6-3.3,2.6-4.9c1.2-2.1,3.3-1.8,5.2-1.4c2.8,0.5,5.2,0,7.4-1.7C859.5,868.8,861,867.5,862.7,865.9L862.7,865.9z"/>
		<path class="st14" d="M857,973.7c-2.5,0.2-5.1,0.3-7.7,0.5c-1.2,0.1-2.5,0.4-3.7,0.5c-1,0.1-2,0.2-2.8,0c-1.4-0.2-3.6-0.3-3.9-1.1
			c-0.9-1.6-1.1-3.7-1-5.5c0.3-5.1,0.9-10.1,1.6-15.1c0.7-4.6,1.6-9,2.3-13.5c0.8-5.2,1.3-10.5,2.1-15.8c0.9-5.2,1.5-10.4,3.4-15.5
			c1.4-3.8,1.6-7.9,2.3-11.9c0.5-3.2,0.9-6.3,1.7-9.3c0.5-2.1,3.9-3.3,6.7-3.2c4.7,0.2,6.8,3,8.3,6.7c1.3,3.6,2.5,7.2,3.3,10.9
			c0.5,2.4,0.1,5,0.1,7.5c0,1.6,0.1,3.3,0,4.8c-0.4,4-0.8,8.1-1.6,12.2c-1.5,7.2-3.5,14.3-5.2,21.5c-1.1,4.3-2.3,8.7-3.3,13.1
			C858.7,964.6,858,968.8,857,973.7L857,973.7z"/>
		<path class="st0" d="M1071.7,806.2c0.9,3.8,1.4,7.6,2.5,11.3c1,3.5,2.6,6.7,3.8,10.1c0.2,0.5,0.1,1.5-0.2,2
			c-6.3,8.1-12.8,16.2-18.9,24.4c-2.9,4-6.3,6.1-11.5,4.3c-1.6-0.5-3.4-0.4-4.9-1.1c-1.7-0.7-2.4,0-2.7,1.3
			c-1.8,5.8-3.8,11.4-5.4,17.2c-1.3,4.7-2.3,9.3-3.4,14.1c-5.6-7.5-11.3-15-17.1-22.7c0.9-0.5,1.5-1.2,2.4-1.6
			c7.9-4.3,13.9-10.8,19.8-17.2c7-7.6,13.8-15.4,20.4-23.4c3.6-4.2,6.7-8.7,10.1-13c1.5-2,3-3.8,4.6-5.8
			C1071.3,806.1,1071.5,806.1,1071.7,806.2L1071.7,806.2z"/>
		<path class="st12" d="M924.6,974c3.2-2.4,5.6-4.6,8.5-6.3c1.1-0.7,3,0,4.6-0.2c4.7-0.7,9.2,0,13.7,1.3c1.1,0.3,1.4,0.7,1.6,1.8
			c0.5,4.3,1.1,8.8,1.8,13c1.4,7.5,3,14.9,4.3,22.4c1.2,6.6,2.1,13.3,3.3,19.8c0.3,2.1,1.1,4.1,1.6,6.2c0.2,1,0.8,2.4,0.3,2.9
			c-1.2,1.4-2.7,2.8-4.6,3.5c-5.3,1.7-11-0.9-12.8-5.8c-1.1-3-2.1-6.2-2.9-9.2c-3-11.6-6-23.4-9.1-34.9c-1.1-4-2.7-7.8-3.9-11.8
			c-0.5-2.1-1.7-2.5-3.6-2.5C926.7,974.1,925.9,974.1,924.6,974L924.6,974z"/>
		<path class="st0" d="M869.1,857c1.5-4.9-0.3-6.2-6.6-5.2c-1.2-2.3-1.5-4.7-0.7-7.2c0.9-2.9,0.2-4-2.6-5.4c-2.4-1.2-4.7-2.4-5-5.5
			c-0.3-4,1.3-5.6,5.8-5.2c1.6,0.2,3.4-0.1,4.9-0.7c2-0.8,2.8-2.2,2.5-4.3c-0.3-2.8,0.5-4,3.4-5.1c2.5-1,3.8-2.8,4.1-5.4
			c0.1-0.7,0.5-1.5,1.1-1.8c3.3-2.3,6.8-3.8,10.9-2.2c3.7,1.5,6.8,4,8.3,7.6c0.7,1.5,0.2,3.6-0.1,5.3c-0.5,2.3-1.6,4.5-2.2,6.7
			c-0.7,2.6-0.5,5.2,1.2,7.7c1.1,1.5,1.1,3.6,1.5,5.4c0.1,0.5-0.1,1.3,0,1.8c1.2,5.8-2.8,8.6-7.1,11.5
			C882.4,859.2,875.9,858.7,869.1,857L869.1,857z M880.4,825.6c-0.1,2.5,1.2,3.7,3.6,4c1,0.1,2,0.2,3,0.3c2.6,0.4,3.9-1.1,3-3.5
			c-0.2-0.5-0.4-1-0.7-1.4c-0.1,0.2-0.1,0.3-0.2,0.5c-1.4-0.2-2.8-0.3-4.2-0.5c-0.5-0.1-1.5-0.2-1.5-0.1
			C882.8,826.8,881.6,825.8,880.4,825.6L880.4,825.6z M878.9,821.4c3.8,2.3,7.9,1.8,11.9,1.3c1.1-0.2,1.2-1.3,0.2-2.1
			c-0.3-0.2-0.8-0.4-1.2-0.5C886.1,819.7,882.4,819.8,878.9,821.4L878.9,821.4z"/>
		<path class="st0" d="M1013.6,921.8c-1,3.8-1.8,7.5-2.8,11.3c-0.1,0.3-0.5,0.9-0.9,1c-5.3,0.9-10.6,1.6-16,2.4
			c-1,0.1-2.2-0.2-3.2-0.8c-10.9-5.3-21.6-10.8-32.4-16.2c-0.2-0.1-0.4-0.3-0.5-0.3c5.6-4.3,11.2-8.7,16.8-12.9
			c0.4-0.3,1.4-0.3,2-0.1c10.2,4.2,20.4,8.6,30.6,12.9C1009.5,919.8,1011.5,920.8,1013.6,921.8L1013.6,921.8z"/>
		<path class="st0" d="M910.3,953.8c3.3-0.7,6.5-1.4,9.9-1.8c3.5-0.5,5.2,0.1,6.5,3.3c1.1,2.5,1.8,5.4,1.5,7.9
			c-0.2,1.8-2.1,3.9-3.8,5c-6.3,3.9-11.4,9-16.6,14.1c-2.9,2.8-6,5.2-10.3,5.8c-5.9,0.8-6.8,0-8.1-4.6c-1.5-5.5-1.2-11.2,1.7-16.4
			c0.9-1.5,2-2.9,2.8-4.5c2.1-3.2,4.7-5.5,8.7-6.6c2.6-0.7,5.1-1.6,7.7-2.4L910.3,953.8L910.3,953.8z"/>
		<path class="st0" d="M1024.6,749.2c-3.4-4.2-3.8-6.3-2.2-8.5c3.2-4,11.2-4.3,14.8-0.5c4.2,4.5,4.6,10,0.1,14.6
			c-2.7,2.7-2.9,4.9-1.1,7.9c2.5,4.1,4.7,8.6,7.2,12.7c0.8,1.2,0.4,2,0,3c-6.4,12.3-12.9,24.7-19.3,36.9
			c-5.3,10.3-10.6,20.7-16,31.1c-0.9,1.7-2,3.4-3,5c-0.8,1.1-1.3,2.4-3.2,1.5c-2.5-1.2-3.4-2.2-2.6-4.2c1.1-2.8,2.4-5.6,3.8-8.4
			c6-11.2,11.8-22.4,17.9-33.5c4.3-7.8,9.2-15.2,13.3-23.1c1.6-3.3,3.6-6.7,1.7-11.1c-2.3-5.4-3.4-11.4-4.8-17.2
			c-0.2-0.8,0.3-1.7,0.9-2.4c0.8-1.1,1.7-2.1,2.4-3.2c1.4-2.3,1-4.8-0.9-6c-1.7-1.1-5.9-0.3-7.2,1.5
			C1025.6,746.7,1025.2,747.8,1024.6,749.2L1024.6,749.2z"/>
		<path class="st0" d="M921.5,880.9c-2.3,4-4.2,8-6.8,11.5c-1.1,1.4-3.7,2.2-5.8,2.7c-3.7,0.9-7.5,1.4-11.3,1.8
			c-3.3,0.4-6.2-0.3-8.5-2.6c-1.2-1.2-2.5-2.3-4-3.8c1.1-0.2,2-0.5,2.7-0.5c3,0,6.2,0.1,9.2,0.2c3.3,0.1,5.6-1.6,7.6-3.5
			c2.1-2,1.3-4.3-1.6-4.7c-2.6-0.3-5.4,0.1-7.9,0.8c-3.4,0.8-6.7,2.1-10.1,2.9c-0.8,0.2-1.7-0.3-2.5-0.5c0.3-0.7,0.4-1.4,1-1.8
			c5.1-4.1,9.7-9.1,16.6-10.9c2.7-0.7,5.1-0.9,7.6,0.5C912.2,875.9,916.8,878.3,921.5,880.9L921.5,880.9z"/>
		<path class="st0" d="M1057.8,815.5c-12.6,14.3-25.2,28.6-37.7,42.7c-2.1-3.4-4.2-7.1-6.7-10.6c-1.3-1.8-1-3.2,0.9-4.3
			c7.2-4.7,14.4-9.2,21.5-13.9c6.5-4.3,12.8-8.7,19.3-13c0.7-0.4,1.4-0.9,2.2-1.3C1057.6,815.2,1057.7,815.3,1057.8,815.5
			L1057.8,815.5z"/>
		<path class="st0" d="M932.5,906.1c2.8-5.2,5.6-10.2,8.5-15.4c8.4,3.6,16.5,7.1,24.9,10.5c-0.3,0.4-0.5,0.8-0.8,0.9
			c-5.5,3.7-11.1,7.3-16.6,10.9c-0.4,0.2-1.3,0.3-1.7,0.1C942,911,937.3,908.6,932.5,906.1L932.5,906.1z"/>
		<path class="st0" d="M952.4,953.5c0.9,2.3,1.8,4.5,2.7,6.7c1,2.4,0.2,3.7-2.5,3.6c-5.1-0.2-10.1-0.5-15.2-0.9
			c-0.9-0.1-2.2-0.8-2.4-1.5c-1.6-3.8-2.9-7.6-4.3-11.4c-0.3-1.1,0-1.5,1.2-1.8c3.5-0.9,6.8-2.2,10.3-2.8c2.2-0.4,4.7,0,7,0.2
			c0.5,0,1.2,0.7,1.3,1.2c0.9,2.2,1.6,4.5,2.4,6.6L952.4,953.5L952.4,953.5z"/>
		<path class="st0" d="M1023.9,830.5c9.5-14.6,21.3-27.2,33.7-39.7c0.3,5.5,0.5,10.9,0.9,16.7C1047.4,815,1035.6,822.8,1023.9,830.5
			L1023.9,830.5z"/>
		<path class="st12" d="M867.9,972.6c0.4-0.9,0.8-1.8,1.4-2.5c9.2-9,18.5-18,30-24.4c1.5-0.9,3.9-0.3,6-0.3c1.5,0,3,0.3,4.6,0.7
			c0.5,0.1,0.9,0.5,1.4,0.8c-0.3,0.4-0.5,1-1,1.1c-3,1.1-6,2.2-9.1,3c-2.9,0.8-5.4,2-7.5,4.1c-4,4.3-8.1,8.7-10.5,14.1
			c-0.9,2.2-2.6,3.5-5.4,3.4c-3,0-6.1,0.5-9.1,0.9C868.3,973.2,868.1,972.9,867.9,972.6L867.9,972.6z"/>
		<path class="st0" d="M925.8,907.7c-3.3-2.1-6.3-4.1-9.9-6.4c3.5-6,7-11.9,10.4-17.9c2.9,1.7,5.6,3.3,8.5,4.9
			C932,894.4,929,900.8,925.8,907.7L925.8,907.7z"/>
		<path class="st10" d="M880.3,825.6c1.3,0.3,2.5,1.2,3-0.5c0-0.1,1,0.1,1.5,0.1c1.4,0.2,2.8,0.3,4.2,0.5c0.1-0.2,0.1-0.3,0.2-0.5
			c0.2,0.4,0.4,1,0.7,1.4c0.9,2.4-0.3,3.9-3,3.5c-1-0.2-2-0.2-3-0.3C881.5,829.3,880.3,828.1,880.3,825.6L880.3,825.6z"/>
		<path class="st10" d="M878.9,821.4c3.5-1.6,7.2-1.6,10.9-1.3c0.4,0,0.9,0.3,1.2,0.5c1.1,0.8,1,1.8-0.2,2.1
			C886.8,823.2,882.7,823.7,878.9,821.4L878.9,821.4z"/>
	</g>
</g>
<text transform="matrix(1.06 0 0 1 1290.8145 809.6826)" class="st4 st5 st6">C</text>
<text transform="matrix(1.06 0 0 1 1353.2168 809.6826)" class="st4 st5 st6 st15">T</text>
<text transform="matrix(1.06 0 0 1 1241.8965 861.8281)" class="st4 st7 st8">P</text>
<text transform="matrix(1.06 0 0 1 1270.6162 861.8281)" class="st4 st7 st8">r</text>
<text transform="matrix(1.06 0 0 1 1285.875 861.8281)" class="st4 st7 st8">o-choice</text>
<text transform="matrix(1.06 0 0 1 1276.9258 913.9717)" class="st4 st7 st8">spends </text>
<text transform="matrix(1.06 0 0 1 1250.4072 966.1172)" class="st4 st7 st8">17% more</text>
<text transform="matrix(1.06 0 0 1 514.0942 809.6826)" class="st4 st5 st6">U</text>
<text transform="matrix(1.06 0 0 1 578.2012 809.6826)" class="st4 st5 st6 st15">T</text>
<text transform="matrix(1.06 0 0 1 504.9751 861.8281)" class="st4 st7 st8">P</text>
<text transform="matrix(1.06 0 0 1 532.6577 861.8281)" class="st4 st7 st8 st9">r</text>
<text transform="matrix(1.06 0 0 1 546.8794 861.8281)" class="st4 st7 st8">o-life</text>
<text transform="matrix(1.06 0 0 1 501.0591 913.9717)" class="st4 st7 st8">spends </text>
<text transform="matrix(1.06 0 0 1 485.3867 966.1172)" class="st4 st7 st8">39% less</text>
<text transform="matrix(1.06 0 0 1 1667.583 809.6826)" class="st4 st5 st6">TN</text>
<text transform="matrix(1.06 0 0 1 1652.4053 861.8281)" class="st4 st7 st8">P</text>
<text transform="matrix(1.06 0 0 1 1681.124 861.8281)" class="st4 st7 st8">r</text>
<text transform="matrix(1.06 0 0 1 1696.3828 861.8281)" class="st4 st7 st8">o-Life</text>
<text transform="matrix(1.06 0 0 1 1656.874 913.9717)" class="st4 st7 st8">Spends </text>
<text transform="matrix(1.06 0 0 1 1642.8135 966.1172)" class="st4 st7 st8">21% less</text>
</svg>
