<?xml version="1.0" encoding="utf-8"?>
<!-- Generator: Adobe Illustrator 27.0.1, SVG Export Plug-In . SVG Version: 6.00 Build 0)  -->
<svg version="1.1" id="Layer_1" xmlns="http://www.w3.org/2000/svg" xmlns:xlink="http://www.w3.org/1999/xlink" x="0px" y="0px"
	 viewBox="0 0 225 225" style="enable-background:new 0 0 225 225;" xml:space="preserve">
<style type="text/css">
	.st0{fill:#828A43;}
	.st1{fill:#FFFFFF;}
	.st2{fill:#A5A49F;}
	.st3{fill:#524C4C;}
	.st4{fill:#B3BD80;}
	.st5{fill:#677432;}
	.st6{fill:#7F7474;}
	.st7{enable-background:new    ;}
</style>
<g>
	<polygon class="st0" points="203.6,165.1 112.5,217.7 21.4,165.1 21.4,59.9 112.5,7.3 203.6,59.9 	"/>
	<g class="st7">
		<path class="st1" d="M60,77.1h-2.5v-5.3h-3.7v5.3h-2.5V64.7h2.5v5h3.7v-5H60V77.1z"/>
		<path class="st1" d="M65.6,77.3c-1.2,0-2.2-0.4-2.9-1.1c-0.7-0.7-1-1.8-1-3.2v-0.7c0-1.5,0.3-2.6,1-3.4c0.6-0.8,1.5-1.2,2.7-1.2
			c1.2,0,2,0.4,2.6,1.1c0.6,0.7,0.9,1.8,0.9,3.3v1.2H64c0,0.7,0.2,1.2,0.5,1.5c0.3,0.3,0.7,0.5,1.2,0.5c0.8,0,1.5-0.3,2-0.8l0.9,1.5
			c-0.3,0.4-0.7,0.7-1.3,1S66.2,77.3,65.6,77.3z M64.1,71.6h2.4v-0.2c0-0.6-0.1-1-0.3-1.3c-0.2-0.3-0.5-0.4-0.9-0.4
			s-0.7,0.2-0.9,0.5C64.2,70.5,64.1,71,64.1,71.6z"/>
		<path class="st1" d="M74.6,77.1c-0.1-0.1-0.1-0.4-0.2-0.7c-0.4,0.6-1,0.9-1.8,0.9c-0.8,0-1.4-0.3-1.9-0.8c-0.5-0.5-0.8-1.2-0.8-2
			c0-1,0.3-1.7,0.9-2.2c0.6-0.5,1.5-0.8,2.7-0.8h0.7v-0.7c0-0.4-0.1-0.7-0.2-0.9c-0.1-0.2-0.3-0.3-0.6-0.3c-0.6,0-0.9,0.4-0.9,1.1
			h-2.4c0-0.9,0.3-1.6,1-2.1c0.6-0.6,1.4-0.8,2.4-0.8c1,0,1.8,0.3,2.3,0.8c0.6,0.5,0.8,1.3,0.8,2.3v4.3c0,0.8,0.1,1.4,0.3,1.9v0.1
			H74.6z M73.2,75.4c0.3,0,0.5-0.1,0.7-0.2c0.2-0.1,0.3-0.2,0.4-0.4v-1.9h-0.6c-0.4,0-0.7,0.1-1,0.4c-0.2,0.3-0.4,0.6-0.4,1
			C72.4,75.1,72.6,75.4,73.2,75.4z"/>
		<path class="st1" d="M81,77.1h-2.4V64H81V77.1z"/>
		<path class="st1" d="M85.6,65.6v2.3h1.2v1.8h-1.2v4.6c0,0.4,0,0.6,0.1,0.8c0.1,0.1,0.3,0.2,0.6,0.2c0.2,0,0.4,0,0.6-0.1l0,1.9
			c-0.4,0.2-0.9,0.2-1.3,0.2c-1.6,0-2.3-0.9-2.4-2.7v-4.9h-1.1v-1.8h1.1v-2.3H85.6z"/>
		<path class="st1" d="M90.5,68.7c0.5-0.7,1.2-1,1.9-1c0.8,0,1.5,0.3,1.9,0.9c0.4,0.6,0.7,1.5,0.7,2.6v5.9h-2.4v-5.8
			c0-0.5-0.1-0.9-0.3-1.2c-0.2-0.2-0.4-0.4-0.8-0.4c-0.4,0-0.8,0.2-1,0.6v6.8h-2.4V64h2.4V68.7z"/>
		<path class="st1" d="M100.5,73.8c0-0.6,0.1-1.1,0.4-1.6s0.8-1,1.5-1.6c-0.3-0.5-0.6-1-0.7-1.4c-0.2-0.4-0.3-0.9-0.3-1.4
			c0-1,0.3-1.8,0.8-2.4c0.5-0.6,1.3-0.9,2.2-0.9c0.8,0,1.5,0.3,2,0.8s0.8,1.2,0.8,2.1c0,1.1-0.5,2-1.4,2.7l-0.7,0.6l1.6,2.2
			c0.2-0.6,0.3-1.2,0.3-1.9h2c0,1.6-0.3,2.9-0.9,3.9l1.6,2.2H107l-0.5-0.6c-0.7,0.5-1.6,0.8-2.5,0.8c-1,0-1.9-0.3-2.5-1
			C100.8,75.7,100.5,74.8,100.5,73.8z M104.1,75.3c0.4,0,0.9-0.1,1.3-0.4l-2-2.8l-0.1,0c-0.3,0.4-0.4,0.9-0.4,1.5
			c0,0.5,0.1,0.9,0.3,1.2C103.5,75.1,103.8,75.3,104.1,75.3z M103.5,67.8c0,0.4,0.2,0.9,0.6,1.5l0.4-0.3c0.2-0.2,0.4-0.4,0.5-0.6
			c0.1-0.2,0.2-0.5,0.2-0.8c0-0.3-0.1-0.5-0.2-0.7c-0.2-0.2-0.4-0.3-0.6-0.3c-0.3,0-0.4,0.1-0.6,0.3
			C103.6,67.1,103.5,67.4,103.5,67.8z"/>
		<path class="st1" d="M117.1,67.9l0.1,0.9c0.5-0.7,1.3-1.1,2.1-1.1c1.6,0,2.4,1.1,2.4,3.3v6.1h-2.4v-5.9c0-0.5-0.1-0.9-0.2-1.1
			c-0.2-0.2-0.4-0.4-0.8-0.4c-0.4,0-0.8,0.2-1,0.7v6.7h-2.4v-9.2H117.1z"/>
		<path class="st1" d="M128,76.3c-0.5,0.7-1.2,1-2,1c-0.8,0-1.5-0.3-1.9-0.9c-0.4-0.6-0.7-1.4-0.7-2.5v-6h2.4v6
			c0,0.9,0.3,1.3,0.9,1.3c0.6,0,0.9-0.2,1.2-0.7v-6.7h2.4v9.2h-2.3L128,76.3z"/>
		<path class="st1" d="M134.9,65.6v2.3h1.2v1.8h-1.2v4.6c0,0.4,0,0.6,0.1,0.8c0.1,0.1,0.3,0.2,0.6,0.2c0.2,0,0.4,0,0.6-0.1l0,1.9
			c-0.4,0.2-0.9,0.2-1.3,0.2c-1.6,0-2.3-0.9-2.4-2.7v-4.9h-1.1v-1.8h1.1v-2.3H134.9z"/>
		<path class="st1" d="M142,70.2l-0.8-0.1c-0.7,0-1.1,0.3-1.3,0.9v6.1h-2.4v-9.2h2.3l0.1,1c0.4-0.8,0.9-1.2,1.6-1.2
			c0.3,0,0.5,0,0.7,0.1L142,70.2z"/>
		<path class="st1" d="M143.2,65.5c0-0.4,0.1-0.7,0.4-0.9c0.2-0.2,0.6-0.4,1-0.4c0.4,0,0.7,0.1,1,0.4c0.2,0.2,0.4,0.5,0.4,0.9
			c0,0.4-0.1,0.7-0.4,0.9c-0.2,0.2-0.6,0.4-1,0.4c-0.4,0-0.7-0.1-1-0.4C143.4,66.2,143.2,65.9,143.2,65.5z M145.8,77.1h-2.4v-9.2
			h2.4V77.1z"/>
		<path class="st1" d="M150.4,65.6v2.3h1.2v1.8h-1.2v4.6c0,0.4,0,0.6,0.1,0.8c0.1,0.1,0.3,0.2,0.6,0.2c0.2,0,0.4,0,0.6-0.1l0,1.9
			c-0.4,0.2-0.9,0.2-1.3,0.2c-1.6,0-2.3-0.9-2.4-2.7v-4.9H147v-1.8h1.1v-2.3H150.4z"/>
		<path class="st1" d="M153,65.5c0-0.4,0.1-0.7,0.4-0.9c0.2-0.2,0.6-0.4,1-0.4c0.4,0,0.7,0.1,1,0.4c0.2,0.2,0.4,0.5,0.4,0.9
			c0,0.4-0.1,0.7-0.4,0.9c-0.2,0.2-0.6,0.4-1,0.4c-0.4,0-0.7-0.1-1-0.4C153.1,66.2,153,65.9,153,65.5z M155.5,77.1h-2.4v-9.2h2.4
			V77.1z"/>
		<path class="st1" d="M157.1,72.2c0-1.4,0.3-2.5,1-3.3c0.7-0.8,1.6-1.2,2.7-1.2c1.2,0,2.1,0.4,2.8,1.2c0.7,0.8,1,1.9,1,3.3v0.6
			c0,1.4-0.3,2.5-1,3.3c-0.7,0.8-1.6,1.2-2.7,1.2c-1.2,0-2.1-0.4-2.8-1.2c-0.7-0.8-1-1.9-1-3.3V72.2z M159.5,72.8
			c0,1.6,0.4,2.5,1.3,2.5c0.8,0,1.2-0.7,1.3-2.1l0-1c0-0.8-0.1-1.5-0.3-1.9c-0.2-0.4-0.6-0.6-1-0.6c-0.4,0-0.7,0.2-1,0.6
			c-0.2,0.4-0.3,1-0.3,1.9V72.8z"/>
		<path class="st1" d="M168.3,67.9l0.1,0.9c0.5-0.7,1.3-1.1,2.1-1.1c1.6,0,2.4,1.1,2.4,3.3v6.1h-2.4v-5.9c0-0.5-0.1-0.9-0.2-1.1
			c-0.2-0.2-0.4-0.4-0.8-0.4c-0.4,0-0.8,0.2-1,0.7v6.7H166v-9.2H168.3z"/>
	</g>
	<g>
		<path class="st1" d="M64.2,103c0-0.4-0.1-0.7-0.3-0.9c-0.2-0.2-0.6-0.4-1.2-0.6c-0.6-0.2-1-0.4-1.3-0.7c-0.3-0.2-0.5-0.5-0.7-0.8
			c-0.2-0.3-0.2-0.6-0.2-1c0-0.7,0.2-1.2,0.7-1.6c0.4-0.4,1-0.6,1.7-0.6c0.5,0,0.9,0.1,1.3,0.3c0.4,0.2,0.7,0.5,0.9,0.9
			c0.2,0.4,0.3,0.8,0.3,1.3h-1c0-0.5-0.1-0.9-0.4-1.2c-0.2-0.3-0.6-0.4-1.1-0.4c-0.4,0-0.7,0.1-1,0.4c-0.2,0.2-0.3,0.6-0.3,1
			c0,0.3,0.1,0.6,0.4,0.9c0.3,0.2,0.6,0.4,1.2,0.6c0.8,0.3,1.4,0.6,1.7,1c0.3,0.4,0.5,0.9,0.5,1.5c0,0.7-0.2,1.2-0.7,1.6
			c-0.4,0.4-1,0.6-1.8,0.6c-0.5,0-0.9-0.1-1.3-0.3c-0.4-0.2-0.7-0.5-1-0.9c-0.2-0.4-0.3-0.8-0.3-1.3h1c0,0.5,0.1,0.9,0.4,1.2
			s0.7,0.4,1.2,0.4c0.5,0,0.8-0.1,1-0.4C64.1,103.7,64.2,103.4,64.2,103L64.2,103z"/>
		<path class="st1" d="M69.6,104.5c-0.3,0.4-0.8,0.7-1.5,0.7c-0.6,0-1-0.2-1.3-0.6c-0.3-0.4-0.4-0.9-0.4-1.7v-4h1v3.9
			c0,1,0.3,1.4,0.9,1.4c0.6,0,1-0.3,1.3-0.8v-4.5h1v6.1h-1L69.6,104.5L69.6,104.5z"/>
		<path class="st1" d="M76.6,102.3c0,1-0.2,1.7-0.5,2.2c-0.4,0.5-0.8,0.7-1.5,0.7c-0.6,0-1.1-0.2-1.4-0.7v2.9h-1v-8.5H73l0.1,0.7
			c0.3-0.5,0.8-0.8,1.4-0.8c0.7,0,1.2,0.2,1.5,0.7c0.3,0.5,0.5,1.2,0.5,2.1V102.3z M75.6,101.7c0-0.7-0.1-1.2-0.3-1.5
			c-0.2-0.3-0.6-0.5-1-0.5c-0.5,0-0.8,0.2-1.1,0.7v3.2c0.2,0.5,0.6,0.7,1.1,0.7c0.5,0,0.8-0.2,1-0.5s0.3-0.8,0.3-1.5V101.7
			L75.6,101.7z"/>
		<path class="st1" d="M82.3,102.3c0,1-0.2,1.7-0.5,2.2c-0.4,0.5-0.8,0.7-1.5,0.7s-1.1-0.2-1.4-0.7v2.9h-1v-8.5h0.9l0.1,0.7
			c0.3-0.5,0.8-0.8,1.4-0.8c0.7,0,1.2,0.2,1.5,0.7c0.3,0.5,0.5,1.2,0.5,2.1L82.3,102.3L82.3,102.3z M81.3,101.7
			c0-0.7-0.1-1.2-0.3-1.5c-0.2-0.3-0.6-0.5-1-0.5c-0.5,0-0.8,0.2-1.1,0.7v3.2c0.2,0.5,0.6,0.7,1.1,0.7c0.5,0,0.8-0.2,1-0.5
			s0.3-0.8,0.3-1.5L81.3,101.7L81.3,101.7z"/>
		<path class="st1" d="M84.7,105h-1v-8.7h1V105z"/>
		<path class="st1" d="M88.5,105.2c-0.8,0-1.4-0.2-1.8-0.7c-0.4-0.5-0.6-1.1-0.6-2v-0.7c0-0.9,0.2-1.6,0.6-2.2
			c0.4-0.5,1-0.8,1.7-0.8c0.7,0,1.3,0.2,1.6,0.7c0.4,0.5,0.5,1.2,0.5,2.1v0.7h-3.4v0.1c0,0.7,0.1,1.1,0.4,1.4
			c0.2,0.3,0.6,0.4,1.1,0.4c0.3,0,0.6-0.1,0.8-0.2c0.2-0.1,0.4-0.3,0.6-0.5l0.5,0.6C90,104.9,89.4,105.2,88.5,105.2L88.5,105.2z
			 M88.3,99.6c-0.4,0-0.7,0.1-0.9,0.4s-0.3,0.7-0.3,1.3h2.4v-0.1c0-0.6-0.1-1-0.3-1.3C89,99.8,88.7,99.6,88.3,99.6L88.3,99.6z"/>
		<path class="st1" d="M92.7,98.9l0,0.6c0.4-0.5,0.9-0.7,1.5-0.7c0.7,0,1.2,0.3,1.4,0.9c0.4-0.6,0.9-0.9,1.6-0.9
			c1.1,0,1.7,0.7,1.7,2.1v4.1h-1v-4c0-0.4-0.1-0.8-0.2-1s-0.4-0.3-0.8-0.3c-0.3,0-0.5,0.1-0.7,0.4c-0.2,0.2-0.3,0.5-0.3,0.9v4.1h-1
			V101c0-0.9-0.4-1.3-1-1.3c-0.5,0-0.9,0.3-1.1,0.8v4.6h-1v-6.1L92.7,98.9L92.7,98.9z"/>
		<path class="st1" d="M102.7,105.2c-0.8,0-1.4-0.2-1.8-0.7c-0.4-0.5-0.6-1.1-0.6-2v-0.7c0-0.9,0.2-1.6,0.6-2.2
			c0.4-0.5,1-0.8,1.7-0.8c0.7,0,1.3,0.2,1.6,0.7c0.4,0.5,0.5,1.2,0.5,2.1v0.7h-3.4v0.1c0,0.7,0.1,1.1,0.4,1.4
			c0.2,0.3,0.6,0.4,1.1,0.4c0.3,0,0.6-0.1,0.8-0.2c0.2-0.1,0.4-0.3,0.6-0.5l0.5,0.6C104.2,104.9,103.6,105.2,102.7,105.2
			L102.7,105.2z M102.5,99.6c-0.4,0-0.7,0.1-0.9,0.4c-0.2,0.3-0.3,0.7-0.3,1.3h2.4v-0.1c0-0.6-0.1-1-0.3-1.3
			C103.2,99.8,102.9,99.6,102.5,99.6L102.5,99.6z"/>
		<path class="st1" d="M106.9,98.9l0,0.7c0.4-0.5,0.9-0.8,1.5-0.8c1.1,0,1.6,0.7,1.7,2.2v4.1h-1v-4c0-0.5-0.1-0.8-0.2-1
			c-0.2-0.2-0.4-0.3-0.7-0.3c-0.3,0-0.5,0.1-0.7,0.3c-0.2,0.2-0.4,0.4-0.5,0.7v4.5h-1v-6.1H106.9L106.9,98.9z"/>
		<path class="st1" d="M112.9,97.4v1.5h0.9v0.8h-0.9v3.8c0,0.2,0,0.4,0.1,0.6s0.2,0.2,0.4,0.2c0.1,0,0.3,0,0.4-0.1l0,0.8
			c-0.2,0.1-0.5,0.1-0.7,0.1c-0.4,0-0.7-0.1-0.9-0.4c-0.2-0.3-0.3-0.7-0.3-1.2v-3.8h-0.9v-0.8h0.9v-1.5L112.9,97.4L112.9,97.4z"/>
		<path class="st1" d="M118.1,105c-0.1-0.1-0.1-0.4-0.1-0.7c-0.4,0.5-0.8,0.8-1.4,0.8c-0.6,0-1-0.2-1.3-0.5s-0.5-0.8-0.5-1.3
			c0-0.6,0.2-1.1,0.6-1.5c0.4-0.4,1-0.6,1.7-0.6h0.7v-0.7c0-0.4-0.1-0.6-0.2-0.8c-0.2-0.2-0.4-0.2-0.7-0.2c-0.3,0-0.5,0.1-0.7,0.3
			c-0.2,0.2-0.3,0.4-0.3,0.7h-1c0-0.3,0.1-0.6,0.3-0.9c0.2-0.3,0.4-0.5,0.8-0.7c0.3-0.2,0.7-0.2,1.1-0.2c0.6,0,1.1,0.2,1.4,0.5
			c0.3,0.3,0.5,0.8,0.5,1.4v3.1c0,0.5,0.1,0.9,0.2,1.2v0.1L118.1,105L118.1,105z M116.8,104.2c0.2,0,0.5-0.1,0.7-0.2
			c0.2-0.1,0.4-0.3,0.5-0.5v-1.5h-0.6c-0.5,0-0.9,0.1-1.1,0.3c-0.3,0.2-0.4,0.5-0.4,0.9c0,0.3,0.1,0.6,0.2,0.8
			C116.2,104.2,116.5,104.2,116.8,104.2L116.8,104.2z"/>
		<path class="st1" d="M121.6,105h-1v-8.7h1V105z"/>
		<path class="st1" d="M131.4,105h-1l-3.3-6.4v6.4h-1v-8.3h1l3.3,6.4v-6.4h1L131.4,105L131.4,105z"/>
		<path class="st1" d="M136.2,104.5c-0.3,0.4-0.8,0.7-1.5,0.7c-0.6,0-1-0.2-1.3-0.6s-0.4-0.9-0.4-1.7v-4h1v3.9c0,1,0.3,1.4,0.9,1.4
			c0.6,0,1-0.3,1.3-0.8v-4.5h1v6.1h-1L136.2,104.5L136.2,104.5z"/>
		<path class="st1" d="M140,97.4v1.5h0.9v0.8H140v3.8c0,0.2,0,0.4,0.1,0.6c0.1,0.1,0.2,0.2,0.4,0.2c0.1,0,0.3,0,0.4-0.1l0,0.8
			c-0.2,0.1-0.5,0.1-0.7,0.1c-0.4,0-0.7-0.1-0.9-0.4s-0.3-0.7-0.3-1.2v-3.8h-0.9v-0.8h0.9v-1.5L140,97.4L140,97.4z"/>
		<path class="st1" d="M144.7,99.8c-0.1,0-0.3,0-0.5,0c-0.5,0-0.9,0.3-1.1,0.8v4.4h-1v-6.1h1l0,0.6c0.3-0.5,0.6-0.7,1.1-0.7
			c0.2,0,0.3,0,0.4,0.1L144.7,99.8L144.7,99.8z"/>
		<path class="st1" d="M146.8,97.3c0,0.2,0,0.3-0.1,0.4c-0.1,0.1-0.2,0.2-0.4,0.2s-0.3-0.1-0.4-0.2c-0.1-0.1-0.1-0.3-0.1-0.4
			c0-0.2,0-0.3,0.1-0.4c0.1-0.1,0.2-0.2,0.4-0.2s0.3,0.1,0.4,0.2S146.8,97.1,146.8,97.3z M146.8,105h-1v-6.1h1V105z"/>
		<path class="st1" d="M149.7,97.4v1.5h0.9v0.8h-0.9v3.8c0,0.2,0,0.4,0.1,0.6c0.1,0.1,0.2,0.2,0.4,0.2c0.1,0,0.3,0,0.4-0.1l0,0.8
			c-0.2,0.1-0.5,0.1-0.7,0.1c-0.4,0-0.7-0.1-0.9-0.4s-0.3-0.7-0.3-1.2v-3.8h-0.9v-0.8h0.9v-1.5L149.7,97.4L149.7,97.4z"/>
		<path class="st1" d="M152.9,97.3c0,0.2,0,0.3-0.1,0.4s-0.2,0.2-0.4,0.2c-0.2,0-0.3-0.1-0.4-0.2s-0.1-0.3-0.1-0.4
			c0-0.2,0-0.3,0.1-0.4c0.1-0.1,0.2-0.2,0.4-0.2c0.2,0,0.3,0.1,0.4,0.2C152.9,97,152.9,97.1,152.9,97.3z M152.9,105h-1v-6.1h1V105z"
			/>
		<path class="st1" d="M154.2,101.7c0-0.9,0.2-1.6,0.7-2.1c0.4-0.5,1-0.8,1.7-0.8s1.3,0.3,1.7,0.8s0.7,1.2,0.7,2.1v0.6
			c0,0.9-0.2,1.6-0.6,2.1s-1,0.8-1.7,0.8c-0.7,0-1.3-0.3-1.7-0.8s-0.7-1.2-0.7-2L154.2,101.7L154.2,101.7z M155.2,102.3
			c0,0.6,0.1,1.1,0.4,1.5c0.2,0.4,0.6,0.5,1,0.5c0.9,0,1.3-0.6,1.4-1.9v-0.7c0-0.6-0.1-1.1-0.4-1.5c-0.3-0.4-0.6-0.5-1-0.5
			c-0.4,0-0.7,0.2-1,0.5c-0.2,0.4-0.4,0.9-0.4,1.5L155.2,102.3L155.2,102.3z"/>
		<path class="st1" d="M161.2,98.9l0,0.7c0.4-0.5,0.9-0.8,1.5-0.8c1.1,0,1.6,0.7,1.7,2.2v4.1h-1v-4c0-0.5-0.1-0.8-0.2-1
			s-0.4-0.3-0.7-0.3c-0.3,0-0.5,0.1-0.7,0.3c-0.2,0.2-0.4,0.4-0.5,0.7v4.5h-1v-6.1H161.2L161.2,98.9z"/>
		<path class="st1" d="M70.9,116.8h-2.8l-0.6,2.2h-1.1l2.7-8.3H70l2.7,8.3h-1.1L70.9,116.8L70.9,116.8z M68.4,116h2.3l-1.1-3.8
			L68.4,116L68.4,116z"/>
		<path class="st1" d="M76.6,117.4c0-0.2-0.1-0.4-0.2-0.6c-0.2-0.2-0.5-0.3-0.9-0.5c-0.5-0.2-0.9-0.4-1.1-0.6
			c-0.2-0.2-0.4-0.3-0.5-0.5c-0.1-0.2-0.2-0.4-0.2-0.7c0-0.5,0.2-0.9,0.5-1.2c0.4-0.3,0.8-0.5,1.4-0.5c0.6,0,1.1,0.2,1.4,0.5
			s0.5,0.8,0.5,1.3h-1c0-0.3-0.1-0.5-0.3-0.7c-0.2-0.2-0.4-0.3-0.7-0.3c-0.3,0-0.5,0.1-0.7,0.2c-0.2,0.2-0.3,0.4-0.3,0.6
			c0,0.2,0.1,0.4,0.2,0.5c0.1,0.1,0.4,0.3,0.9,0.5c0.7,0.3,1.3,0.6,1.5,0.9c0.3,0.3,0.4,0.6,0.4,1.1c0,0.5-0.2,1-0.5,1.3
			c-0.4,0.3-0.9,0.5-1.5,0.5s-1.2-0.2-1.6-0.5c-0.4-0.4-0.6-0.8-0.6-1.4h1c0,0.3,0.1,0.6,0.3,0.8c0.2,0.2,0.5,0.3,0.8,0.3
			c0.3,0,0.6-0.1,0.8-0.2C76.5,117.9,76.6,117.7,76.6,117.4L76.6,117.4z"/>
		<path class="st1" d="M81.9,117.4c0-0.2-0.1-0.4-0.2-0.6s-0.5-0.3-0.9-0.5c-0.5-0.2-0.9-0.4-1.1-0.6c-0.2-0.2-0.4-0.3-0.5-0.5
			c-0.1-0.2-0.2-0.4-0.2-0.7c0-0.5,0.2-0.9,0.5-1.2c0.4-0.3,0.8-0.5,1.4-0.5c0.6,0,1.1,0.2,1.4,0.5s0.5,0.8,0.5,1.3h-1
			c0-0.3-0.1-0.5-0.3-0.7c-0.2-0.2-0.4-0.3-0.7-0.3s-0.5,0.1-0.7,0.2c-0.2,0.2-0.3,0.4-0.3,0.6c0,0.2,0.1,0.4,0.2,0.5
			c0.1,0.1,0.4,0.3,0.9,0.5c0.7,0.3,1.3,0.6,1.5,0.9c0.3,0.3,0.4,0.6,0.4,1.1c0,0.5-0.2,1-0.5,1.3c-0.4,0.3-0.9,0.5-1.5,0.5
			c-0.6,0-1.2-0.2-1.6-0.5c-0.4-0.4-0.6-0.8-0.6-1.4h1c0,0.3,0.1,0.6,0.3,0.8c0.2,0.2,0.5,0.3,0.8,0.3c0.3,0,0.6-0.1,0.8-0.2
			C81.8,117.9,81.9,117.7,81.9,117.4L81.9,117.4z"/>
		<path class="st1" d="M85.4,111.2c0,0.2,0,0.3-0.1,0.4c-0.1,0.1-0.2,0.2-0.4,0.2s-0.3-0.1-0.4-0.2c-0.1-0.1-0.1-0.3-0.1-0.4
			c0-0.2,0-0.3,0.1-0.4c0.1-0.1,0.2-0.2,0.4-0.2c0.2,0,0.3,0.1,0.4,0.2C85.4,110.9,85.4,111.1,85.4,111.2z M85.3,119h-1v-6.1h1V119z
			"/>
		<path class="st1" d="M89.9,117.4c0-0.2-0.1-0.4-0.2-0.6c-0.2-0.2-0.5-0.3-0.9-0.5c-0.5-0.2-0.9-0.4-1.1-0.6
			c-0.2-0.2-0.4-0.3-0.5-0.5c-0.1-0.2-0.2-0.4-0.2-0.7c0-0.5,0.2-0.9,0.5-1.2c0.4-0.3,0.8-0.5,1.4-0.5c0.6,0,1.1,0.2,1.4,0.5
			s0.5,0.8,0.5,1.3h-1c0-0.3-0.1-0.5-0.3-0.7c-0.2-0.2-0.4-0.3-0.7-0.3c-0.3,0-0.5,0.1-0.7,0.2c-0.2,0.2-0.3,0.4-0.3,0.6
			c0,0.2,0.1,0.4,0.2,0.5c0.1,0.1,0.4,0.3,0.9,0.5c0.7,0.3,1.3,0.6,1.5,0.9c0.3,0.3,0.4,0.6,0.4,1.1c0,0.5-0.2,1-0.5,1.3
			c-0.4,0.3-0.9,0.5-1.5,0.5s-1.2-0.2-1.6-0.5c-0.4-0.4-0.6-0.8-0.6-1.4h1c0,0.3,0.1,0.6,0.3,0.8c0.2,0.2,0.5,0.3,0.8,0.3
			c0.3,0,0.6-0.1,0.8-0.2C89.8,117.9,89.9,117.7,89.9,117.4L89.9,117.4z"/>
		<path class="st1" d="M93.5,111.4v1.5h0.9v0.8h-0.9v3.8c0,0.2,0,0.4,0.1,0.6s0.2,0.2,0.4,0.2c0.1,0,0.3,0,0.4-0.1l0,0.8
			c-0.2,0.1-0.5,0.1-0.7,0.1c-0.4,0-0.7-0.1-0.9-0.4c-0.2-0.3-0.3-0.7-0.3-1.2v-3.8h-0.9v-0.8h0.9v-1.5L93.5,111.4L93.5,111.4z"/>
		<path class="st1" d="M98.8,119c-0.1-0.1-0.1-0.4-0.1-0.7c-0.4,0.5-0.8,0.8-1.4,0.8c-0.6,0-1-0.2-1.3-0.5c-0.3-0.3-0.5-0.8-0.5-1.3
			c0-0.6,0.2-1.1,0.6-1.5c0.4-0.4,1-0.6,1.7-0.6h0.7v-0.7c0-0.4-0.1-0.6-0.2-0.8c-0.2-0.2-0.4-0.2-0.7-0.2c-0.3,0-0.5,0.1-0.7,0.3
			c-0.2,0.2-0.3,0.4-0.3,0.7h-1c0-0.3,0.1-0.6,0.3-0.9c0.2-0.3,0.4-0.5,0.8-0.7c0.3-0.2,0.7-0.2,1.1-0.2c0.6,0,1.1,0.2,1.4,0.5
			c0.3,0.3,0.5,0.8,0.5,1.4v3.1c0,0.5,0.1,0.9,0.2,1.2v0.1L98.8,119L98.8,119z M97.5,118.2c0.2,0,0.5-0.1,0.7-0.2
			c0.2-0.1,0.4-0.3,0.5-0.5V116h-0.6c-0.5,0-0.9,0.1-1.1,0.3c-0.3,0.2-0.4,0.5-0.4,0.9c0,0.3,0.1,0.6,0.2,0.8
			C96.9,118.1,97.1,118.2,97.5,118.2L97.5,118.2z"/>
		<path class="st1" d="M102.2,112.9l0,0.7c0.4-0.5,0.9-0.8,1.5-0.8c1.1,0,1.6,0.7,1.7,2.2v4.1h-1v-4c0-0.5-0.1-0.8-0.2-1
			c-0.2-0.2-0.4-0.3-0.7-0.3c-0.3,0-0.5,0.1-0.7,0.3s-0.4,0.4-0.5,0.7v4.5h-1v-6.1H102.2L102.2,112.9z"/>
		<path class="st1" d="M109,118.3c0.3,0,0.6-0.1,0.8-0.3c0.2-0.2,0.3-0.5,0.3-0.9h0.9c0,0.6-0.2,1.1-0.6,1.5
			c-0.4,0.4-0.9,0.6-1.5,0.6c-0.8,0-1.3-0.2-1.7-0.7c-0.4-0.5-0.6-1.2-0.6-2.1v-0.7c0-0.9,0.2-1.6,0.6-2.1c0.4-0.5,1-0.7,1.7-0.7
			c0.6,0,1.1,0.2,1.5,0.6s0.6,0.9,0.6,1.6h-0.9c0-0.5-0.1-0.8-0.3-1c-0.2-0.2-0.5-0.3-0.8-0.3c-0.4,0-0.8,0.1-1,0.4
			c-0.2,0.3-0.3,0.8-0.3,1.4v0.8c0,0.7,0.1,1.2,0.3,1.5C108.2,118.1,108.5,118.3,109,118.3L109,118.3z"/>
		<path class="st1" d="M114.4,119.1c-0.8,0-1.4-0.2-1.8-0.7c-0.4-0.5-0.6-1.1-0.6-2v-0.7c0-0.9,0.2-1.6,0.6-2.2
			c0.4-0.5,1-0.8,1.7-0.8s1.3,0.2,1.6,0.7c0.4,0.5,0.5,1.2,0.5,2.1v0.7H113v0.1c0,0.7,0.1,1.1,0.4,1.4c0.2,0.3,0.6,0.4,1.1,0.4
			c0.3,0,0.6-0.1,0.8-0.2c0.2-0.1,0.4-0.3,0.6-0.5l0.5,0.6C116,118.8,115.3,119.1,114.4,119.1L114.4,119.1z M114.3,113.6
			c-0.4,0-0.7,0.1-0.9,0.4c-0.2,0.3-0.3,0.7-0.3,1.3h2.4v-0.1c0-0.6-0.1-1-0.3-1.3C115,113.7,114.7,113.6,114.3,113.6L114.3,113.6z"
			/>
		<path class="st1" d="M121.5,115.8v3.2h-1v-8.3h2.6c0.8,0,1.4,0.2,1.8,0.7c0.4,0.5,0.7,1.1,0.7,1.8s-0.2,1.4-0.6,1.8
			s-1,0.7-1.8,0.7L121.5,115.8L121.5,115.8z M121.5,114.9h1.6c0.5,0,0.8-0.1,1.1-0.4c0.2-0.3,0.4-0.7,0.4-1.2c0-0.5-0.1-0.9-0.4-1.2
			c-0.3-0.3-0.6-0.5-1-0.5h-1.6L121.5,114.9L121.5,114.9z"/>
		<path class="st1" d="M129.3,113.8c-0.1,0-0.3,0-0.5,0c-0.5,0-0.9,0.3-1.1,0.8v4.4h-1v-6.1h1l0,0.6c0.3-0.5,0.6-0.7,1.1-0.7
			c0.2,0,0.3,0,0.4,0.1L129.3,113.8L129.3,113.8z"/>
		<path class="st1" d="M130,115.7c0-0.9,0.2-1.6,0.7-2.1c0.4-0.5,1-0.8,1.7-0.8s1.3,0.3,1.7,0.8c0.4,0.5,0.7,1.2,0.7,2.1v0.6
			c0,0.9-0.2,1.6-0.6,2.1c-0.4,0.5-1,0.8-1.7,0.8s-1.3-0.3-1.7-0.8s-0.7-1.2-0.7-2L130,115.7L130,115.7z M131,116.2
			c0,0.6,0.1,1.1,0.4,1.5c0.2,0.4,0.6,0.5,1,0.5c0.9,0,1.3-0.6,1.4-1.9v-0.7c0-0.6-0.1-1.1-0.4-1.5c-0.3-0.4-0.6-0.5-1-0.5
			c-0.4,0-0.7,0.2-1,0.5c-0.2,0.4-0.4,0.9-0.4,1.5V116.2L131,116.2z"/>
		<path class="st1" d="M135.9,115.7c0-1,0.2-1.7,0.5-2.2c0.3-0.5,0.9-0.7,1.5-0.7c0.6,0,1.1,0.3,1.4,0.8l0.1-0.7h0.9v6.2
			c0,0.8-0.2,1.3-0.6,1.8s-0.9,0.6-1.6,0.6c-0.3,0-0.6-0.1-1-0.2c-0.4-0.1-0.7-0.3-0.8-0.6l0.4-0.7c0.4,0.4,0.9,0.6,1.4,0.6
			c0.8,0,1.3-0.5,1.3-1.4v-0.8c-0.3,0.5-0.8,0.7-1.4,0.7c-0.6,0-1.1-0.2-1.5-0.7c-0.4-0.5-0.5-1.2-0.6-2.1L135.9,115.7L135.9,115.7z
			 M136.9,116.2c0,0.7,0.1,1.2,0.3,1.5c0.2,0.3,0.5,0.5,1,0.5c0.5,0,0.9-0.3,1.1-0.8v-3.1c-0.3-0.5-0.6-0.8-1.1-0.8
			c-0.5,0-0.8,0.2-1,0.5s-0.3,0.8-0.3,1.5V116.2L136.9,116.2z"/>
		<path class="st1" d="M144.3,113.8c-0.1,0-0.3,0-0.5,0c-0.5,0-0.9,0.3-1.1,0.8v4.4h-1v-6.1h1l0,0.6c0.3-0.5,0.6-0.7,1.1-0.7
			c0.2,0,0.3,0,0.4,0.1L144.3,113.8L144.3,113.8z"/>
		<path class="st1" d="M148.3,119c-0.1-0.1-0.1-0.4-0.1-0.7c-0.4,0.5-0.8,0.8-1.4,0.8c-0.6,0-1-0.2-1.3-0.5
			c-0.3-0.3-0.5-0.8-0.5-1.3c0-0.6,0.2-1.1,0.6-1.5c0.4-0.4,1-0.6,1.7-0.6h0.7v-0.7c0-0.4-0.1-0.6-0.2-0.8c-0.2-0.2-0.4-0.2-0.7-0.2
			c-0.3,0-0.5,0.1-0.7,0.3c-0.2,0.2-0.3,0.4-0.3,0.7h-1c0-0.3,0.1-0.6,0.3-0.9c0.2-0.3,0.4-0.5,0.8-0.7c0.3-0.2,0.7-0.2,1.1-0.2
			c0.6,0,1.1,0.2,1.4,0.5s0.5,0.8,0.5,1.4v3.1c0,0.5,0.1,0.9,0.2,1.2v0.1L148.3,119L148.3,119z M146.9,118.2c0.2,0,0.5-0.1,0.7-0.2
			c0.2-0.1,0.4-0.3,0.5-0.5V116h-0.6c-0.5,0-0.9,0.1-1.1,0.3c-0.3,0.2-0.4,0.5-0.4,0.9c0,0.3,0.1,0.6,0.2,0.8
			C146.4,118.1,146.6,118.2,146.9,118.2L146.9,118.2z"/>
		<path class="st1" d="M151.6,112.9l0,0.6c0.4-0.5,0.9-0.7,1.5-0.7c0.7,0,1.2,0.3,1.4,0.9c0.4-0.6,0.9-0.9,1.6-0.9
			c1.1,0,1.7,0.7,1.7,2.1v4.1h-1v-4c0-0.4-0.1-0.8-0.2-1c-0.2-0.2-0.4-0.3-0.8-0.3c-0.3,0-0.5,0.1-0.7,0.4c-0.2,0.2-0.3,0.5-0.3,0.9
			v4.1h-1v-4.1c0-0.9-0.4-1.3-1-1.3c-0.5,0-0.9,0.3-1.1,0.8v4.6h-1v-6.1L151.6,112.9L151.6,112.9z"/>
		<path class="st1" d="M93.6,124.7l2.2,6.7l2.2-6.7h1.3v8.3h-1v-3.2l0.1-3.2l-2.2,6.4h-0.8l-2.2-6.4l0.1,3.2v3.2h-1v-8.3L93.6,124.7
			L93.6,124.7z"/>
		<path class="st1" d="M103.1,133.1c-0.8,0-1.4-0.2-1.8-0.7c-0.4-0.5-0.6-1.1-0.6-2v-0.7c0-0.9,0.2-1.6,0.6-2.2s1-0.8,1.7-0.8
			s1.3,0.2,1.6,0.7c0.4,0.5,0.5,1.2,0.5,2.1v0.7h-3.4v0.1c0,0.7,0.1,1.1,0.4,1.4c0.2,0.3,0.6,0.4,1.1,0.4c0.3,0,0.6-0.1,0.8-0.2
			c0.2-0.1,0.4-0.3,0.6-0.5l0.5,0.6C104.7,132.8,104,133.1,103.1,133.1L103.1,133.1z M103,127.6c-0.4,0-0.7,0.1-0.9,0.4
			c-0.2,0.3-0.3,0.7-0.3,1.3h2.4v-0.1c0-0.6-0.1-1-0.3-1.3C103.7,127.7,103.4,127.6,103,127.6L103,127.6z"/>
		<path class="st1" d="M106.2,129.6c0-0.9,0.2-1.7,0.5-2.2c0.4-0.5,0.9-0.7,1.5-0.7c0.6,0,1,0.2,1.4,0.7v-3.2h1v8.7h-0.9l-0.1-0.7
			c-0.3,0.5-0.8,0.8-1.4,0.8s-1.1-0.2-1.5-0.7c-0.4-0.5-0.5-1.2-0.6-2.1L106.2,129.6L106.2,129.6z M107.2,130.2
			c0,0.7,0.1,1.2,0.3,1.5c0.2,0.3,0.5,0.5,1,0.5c0.5,0,0.9-0.3,1.1-0.8v-3.1c-0.3-0.5-0.6-0.7-1.1-0.7c-0.5,0-0.8,0.2-1,0.5
			c-0.2,0.3-0.3,0.8-0.3,1.5V130.2L107.2,130.2z"/>
		<path class="st1" d="M113.3,125.2c0,0.2,0,0.3-0.1,0.4c-0.1,0.1-0.2,0.2-0.4,0.2s-0.3-0.1-0.4-0.2c-0.1-0.1-0.1-0.3-0.1-0.4
			c0-0.2,0-0.3,0.1-0.4c0.1-0.1,0.2-0.2,0.4-0.2c0.2,0,0.3,0.1,0.4,0.2C113.3,124.9,113.3,125,113.3,125.2z M113.3,133h-1v-6.1h1
			V133z"/>
		<path class="st1" d="M117,132.2c0.3,0,0.6-0.1,0.8-0.3c0.2-0.2,0.3-0.5,0.3-0.9h0.9c0,0.6-0.2,1.1-0.6,1.5
			c-0.4,0.4-0.9,0.6-1.5,0.6c-0.8,0-1.3-0.2-1.7-0.7c-0.4-0.5-0.6-1.2-0.6-2.1v-0.7c0-0.9,0.2-1.6,0.6-2.1s1-0.7,1.7-0.7
			c0.6,0,1.1,0.2,1.5,0.6c0.4,0.4,0.6,0.9,0.6,1.6h-0.9c0-0.5-0.1-0.8-0.3-1c-0.2-0.2-0.5-0.3-0.8-0.3c-0.4,0-0.8,0.1-1,0.4
			s-0.3,0.8-0.3,1.4v0.8c0,0.7,0.1,1.2,0.3,1.5C116.2,132.1,116.5,132.2,117,132.2L117,132.2z"/>
		<path class="st1" d="M123.4,133c-0.1-0.1-0.1-0.4-0.1-0.7c-0.4,0.5-0.8,0.8-1.4,0.8c-0.6,0-1-0.2-1.3-0.5s-0.5-0.8-0.5-1.3
			c0-0.6,0.2-1.1,0.6-1.5s1-0.6,1.7-0.6h0.7v-0.7c0-0.4-0.1-0.6-0.2-0.8c-0.2-0.2-0.4-0.2-0.7-0.2c-0.3,0-0.5,0.1-0.7,0.3
			s-0.3,0.4-0.3,0.7h-1c0-0.3,0.1-0.6,0.3-0.9c0.2-0.3,0.4-0.5,0.8-0.7c0.3-0.2,0.7-0.2,1.1-0.2c0.6,0,1.1,0.2,1.4,0.5
			c0.3,0.3,0.5,0.8,0.5,1.4v3.1c0,0.5,0.1,0.9,0.2,1.2v0.1L123.4,133L123.4,133z M122,132.2c0.2,0,0.5-0.1,0.7-0.2s0.4-0.3,0.5-0.5
			V130h-0.6c-0.5,0-0.9,0.1-1.1,0.3c-0.3,0.2-0.4,0.5-0.4,0.9c0,0.3,0.1,0.6,0.2,0.8S121.7,132.2,122,132.2L122,132.2z"/>
		<path class="st1" d="M126.9,125.2c0,0.2,0,0.3-0.1,0.4c-0.1,0.1-0.2,0.2-0.4,0.2s-0.3-0.1-0.4-0.2s-0.1-0.3-0.1-0.4
			c0-0.2,0-0.3,0.1-0.4c0.1-0.1,0.2-0.2,0.4-0.2c0.2,0,0.3,0.1,0.4,0.2C126.9,124.9,126.9,125,126.9,125.2z M126.9,133h-1v-6.1h1
			V133z"/>
		<path class="st1" d="M128.2,129.6c0-0.9,0.2-1.7,0.5-2.2c0.4-0.5,0.9-0.7,1.5-0.7c0.6,0,1,0.2,1.4,0.7v-3.2h1v8.7h-0.9l-0.1-0.7
			c-0.3,0.5-0.8,0.8-1.4,0.8c-0.6,0-1.1-0.2-1.5-0.7s-0.5-1.2-0.6-2.1L128.2,129.6L128.2,129.6z M129.2,130.2c0,0.7,0.1,1.2,0.3,1.5
			s0.5,0.5,1,0.5c0.5,0,0.9-0.3,1.1-0.8v-3.1c-0.3-0.5-0.6-0.7-1.1-0.7c-0.5,0-0.8,0.2-1,0.5c-0.2,0.3-0.3,0.8-0.3,1.5V130.2
			L129.2,130.2z"/>
		<path class="st1" d="M36,144.3c0,0.9-0.3,1.6-0.7,2c-0.5,0.5-1.1,0.7-1.9,0.7c-0.8,0-1.5-0.3-2-0.9c-0.5-0.6-0.7-1.5-0.7-2.6V142
			c0-1.1,0.3-1.9,0.8-2.6c0.5-0.6,1.2-0.9,2.1-0.9c0.8,0,1.4,0.2,1.9,0.7c0.4,0.5,0.7,1.2,0.7,2.1h-1.1c0-0.7-0.2-1.2-0.4-1.4
			c-0.2-0.3-0.6-0.4-1.1-0.4c-0.6,0-1,0.2-1.3,0.7c-0.3,0.4-0.5,1.1-0.5,1.9v1.5c0,0.8,0.1,1.5,0.4,1.9c0.3,0.4,0.7,0.7,1.2,0.7
			c0.5,0,0.9-0.1,1.2-0.4c0.2-0.3,0.4-0.8,0.4-1.4L36,144.3L36,144.3z"/>
		<path class="st1" d="M38.3,141.4c0.4-0.5,0.9-0.7,1.5-0.7c1.1,0,1.6,0.7,1.7,2.2v4.1h-1v-4c0-0.5-0.1-0.8-0.2-1
			c-0.2-0.2-0.4-0.3-0.7-0.3c-0.3,0-0.5,0.1-0.7,0.3s-0.4,0.4-0.5,0.7v4.5h-1v-8.7h1L38.3,141.4L38.3,141.4z"/>
		<path class="st1" d="M44,139.2c0,0.2,0,0.3-0.1,0.4s-0.2,0.2-0.4,0.2s-0.3-0.1-0.4-0.2c-0.1-0.1-0.1-0.3-0.1-0.4
			c0-0.2,0-0.3,0.1-0.4s0.2-0.2,0.4-0.2s0.3,0.1,0.4,0.2C44,138.8,44,139,44,139.2z M44,146.9h-1v-6.1h1V146.9z"/>
		<path class="st1" d="M46.6,146.9h-1v-8.7h1V146.9z"/>
		<path class="st1" d="M48,143.6c0-0.9,0.2-1.7,0.5-2.2c0.4-0.5,0.9-0.7,1.5-0.7c0.6,0,1,0.2,1.4,0.7v-3.2h1v8.7h-0.9l-0.1-0.7
			c-0.3,0.5-0.8,0.8-1.4,0.8c-0.6,0-1.1-0.2-1.5-0.7c-0.4-0.5-0.5-1.2-0.6-2.1L48,143.6L48,143.6z M49,144.2c0,0.7,0.1,1.2,0.3,1.5
			c0.2,0.3,0.5,0.5,1,0.5c0.5,0,0.9-0.3,1.1-0.8v-3.1c-0.3-0.5-0.6-0.7-1.1-0.7s-0.8,0.2-1,0.5c-0.2,0.3-0.3,0.8-0.3,1.5V144.2
			L49,144.2z"/>
		<path class="st1" d="M56.5,141.7c-0.1,0-0.3,0-0.5,0c-0.5,0-0.9,0.3-1.1,0.8v4.4h-1v-6.1h1l0,0.6c0.3-0.5,0.6-0.7,1.1-0.7
			c0.2,0,0.3,0,0.4,0.1L56.5,141.7L56.5,141.7z"/>
		<path class="st1" d="M59.7,147c-0.8,0-1.4-0.2-1.8-0.7c-0.4-0.5-0.6-1.1-0.6-2v-0.7c0-0.9,0.2-1.6,0.6-2.2c0.4-0.5,1-0.8,1.7-0.8
			c0.7,0,1.3,0.2,1.6,0.7c0.4,0.5,0.5,1.2,0.5,2.1v0.7h-3.4v0.1c0,0.7,0.1,1.1,0.4,1.4s0.6,0.4,1.1,0.4c0.3,0,0.6-0.1,0.8-0.2
			c0.2-0.1,0.4-0.3,0.6-0.5l0.5,0.6C61.3,146.7,60.6,147,59.7,147L59.7,147z M59.6,141.5c-0.4,0-0.7,0.1-0.9,0.4
			c-0.2,0.3-0.3,0.7-0.3,1.3h2.4v-0.1c0-0.6-0.1-1-0.3-1.3S60,141.5,59.6,141.5L59.6,141.5z"/>
		<path class="st1" d="M63.9,140.8l0,0.7c0.4-0.5,0.9-0.8,1.5-0.8c1.1,0,1.6,0.7,1.7,2.2v4.1h-1v-4c0-0.5-0.1-0.8-0.2-1
			c-0.2-0.2-0.4-0.3-0.7-0.3c-0.3,0-0.5,0.1-0.7,0.3s-0.4,0.4-0.5,0.7v4.5h-1v-6.1H63.9L63.9,140.8z"/>
		<path class="st1" d="M71.6,145.4c0-0.2-0.1-0.4-0.2-0.6c-0.2-0.2-0.5-0.3-0.9-0.5c-0.5-0.2-0.9-0.4-1.1-0.6
			c-0.2-0.2-0.4-0.3-0.5-0.5c-0.1-0.2-0.2-0.4-0.2-0.7c0-0.5,0.2-0.9,0.5-1.2c0.4-0.3,0.8-0.5,1.4-0.5c0.6,0,1.1,0.2,1.4,0.5
			s0.5,0.8,0.5,1.3h-1c0-0.3-0.1-0.5-0.3-0.7c-0.2-0.2-0.4-0.3-0.7-0.3s-0.5,0.1-0.7,0.2s-0.3,0.4-0.3,0.6c0,0.2,0.1,0.4,0.2,0.5
			c0.1,0.1,0.4,0.3,0.9,0.5c0.7,0.3,1.3,0.6,1.5,0.9c0.3,0.3,0.4,0.6,0.4,1.1c0,0.5-0.2,1-0.5,1.3c-0.4,0.3-0.9,0.5-1.5,0.5
			s-1.2-0.2-1.6-0.5c-0.4-0.4-0.6-0.8-0.6-1.4h1c0,0.3,0.1,0.6,0.3,0.8c0.2,0.2,0.5,0.3,0.8,0.3c0.3,0,0.6-0.1,0.8-0.2
			C71.5,145.8,71.6,145.6,71.6,145.4L71.6,145.4z"/>
		<path class="st1" d="M82.1,146.9h-1v-3.8h-3.3v3.8h-1v-8.3h1v3.6h3.3v-3.6h1V146.9z"/>
		<path class="st1" d="M86,147c-0.8,0-1.4-0.2-1.8-0.7c-0.4-0.5-0.6-1.1-0.6-2v-0.7c0-0.9,0.2-1.6,0.6-2.2c0.4-0.5,1-0.8,1.7-0.8
			c0.7,0,1.3,0.2,1.6,0.7c0.4,0.5,0.5,1.2,0.5,2.1v0.7h-3.4v0.1c0,0.7,0.1,1.1,0.4,1.4c0.2,0.3,0.6,0.4,1.1,0.4
			c0.3,0,0.6-0.1,0.8-0.2c0.2-0.1,0.4-0.3,0.6-0.5l0.5,0.6C87.5,146.7,86.9,147,86,147L86,147z M85.9,141.5c-0.4,0-0.7,0.1-0.9,0.4
			c-0.2,0.3-0.3,0.7-0.3,1.3H87v-0.1c0-0.6-0.1-1-0.3-1.3C86.5,141.7,86.2,141.5,85.9,141.5L85.9,141.5z"/>
		<path class="st1" d="M92.4,146.9c-0.1-0.1-0.1-0.4-0.1-0.7c-0.4,0.5-0.8,0.8-1.4,0.8c-0.6,0-1-0.2-1.3-0.5s-0.5-0.8-0.5-1.3
			c0-0.6,0.2-1.1,0.6-1.5c0.4-0.4,1-0.6,1.7-0.6h0.7v-0.7c0-0.4-0.1-0.6-0.2-0.8c-0.2-0.2-0.4-0.2-0.7-0.2c-0.3,0-0.5,0.1-0.7,0.3
			c-0.2,0.2-0.3,0.4-0.3,0.7h-1c0-0.3,0.1-0.6,0.3-0.9c0.2-0.3,0.4-0.5,0.8-0.7s0.7-0.2,1.1-0.2c0.6,0,1.1,0.2,1.4,0.5
			c0.3,0.3,0.5,0.8,0.5,1.4v3.1c0,0.5,0.1,0.9,0.2,1.2v0.1H92.4L92.4,146.9z M91,146.1c0.2,0,0.5-0.1,0.7-0.2
			c0.2-0.1,0.4-0.3,0.5-0.5v-1.5h-0.6c-0.5,0-0.9,0.1-1.1,0.3c-0.3,0.2-0.4,0.5-0.4,0.9c0,0.3,0.1,0.6,0.2,0.8
			C90.5,146.1,90.7,146.1,91,146.1L91,146.1z"/>
		<path class="st1" d="M95.9,146.9h-1v-8.7h1V146.9z"/>
		<path class="st1" d="M98.8,139.3v1.5h0.9v0.8h-0.9v3.8c0,0.2,0,0.4,0.1,0.6c0.1,0.1,0.2,0.2,0.4,0.2c0.1,0,0.3,0,0.4-0.1l0,0.8
			c-0.2,0.1-0.5,0.1-0.7,0.1c-0.4,0-0.7-0.1-0.9-0.4c-0.2-0.3-0.3-0.7-0.3-1.2v-3.8h-0.9v-0.8h0.9v-1.5L98.8,139.3L98.8,139.3z"/>
		<path class="st1" d="M101.9,141.4c0.4-0.5,0.9-0.7,1.5-0.7c1.1,0,1.6,0.7,1.7,2.2v4.1h-1v-4c0-0.5-0.1-0.8-0.2-1
			c-0.2-0.2-0.4-0.3-0.7-0.3c-0.3,0-0.5,0.1-0.7,0.3s-0.4,0.4-0.5,0.7v4.5h-1v-8.7h1L101.9,141.4L101.9,141.4z"/>
		<path class="st1" d="M110.4,146.9h-1v-8.3h1V146.9z"/>
		<path class="st1" d="M113,140.8l0,0.7c0.4-0.5,0.9-0.8,1.5-0.8c1.1,0,1.6,0.7,1.7,2.2v4.1h-1v-4c0-0.5-0.1-0.8-0.2-1
			c-0.2-0.2-0.4-0.3-0.7-0.3c-0.3,0-0.5,0.1-0.7,0.3s-0.4,0.4-0.5,0.7v4.5h-1v-6.1H113L113,140.8z"/>
		<path class="st1" d="M120.7,145.4c0-0.2-0.1-0.4-0.2-0.6c-0.2-0.2-0.5-0.3-0.9-0.5c-0.5-0.2-0.9-0.4-1.1-0.6
			c-0.2-0.2-0.4-0.3-0.5-0.5c-0.1-0.2-0.2-0.4-0.2-0.7c0-0.5,0.2-0.9,0.5-1.2s0.8-0.5,1.4-0.5c0.6,0,1.1,0.2,1.4,0.5
			c0.4,0.3,0.5,0.8,0.5,1.3h-1c0-0.3-0.1-0.5-0.3-0.7c-0.2-0.2-0.4-0.3-0.7-0.3c-0.3,0-0.5,0.1-0.7,0.2s-0.3,0.4-0.3,0.6
			c0,0.2,0.1,0.4,0.2,0.5c0.1,0.1,0.4,0.3,0.9,0.5c0.7,0.3,1.3,0.6,1.5,0.9c0.3,0.3,0.4,0.6,0.4,1.1c0,0.5-0.2,1-0.5,1.3
			c-0.4,0.3-0.9,0.5-1.5,0.5c-0.6,0-1.2-0.2-1.6-0.5c-0.4-0.4-0.6-0.8-0.6-1.4h1c0,0.3,0.1,0.6,0.3,0.8c0.2,0.2,0.5,0.3,0.8,0.3
			c0.3,0,0.6-0.1,0.8-0.2C120.6,145.8,120.7,145.6,120.7,145.4L120.7,145.4z"/>
		<path class="st1" d="M126.1,146.4c-0.3,0.4-0.8,0.7-1.5,0.7c-0.6,0-1-0.2-1.3-0.6s-0.4-0.9-0.4-1.7v-4h1v3.9c0,1,0.3,1.4,0.9,1.4
			c0.6,0,1-0.3,1.3-0.8v-4.5h1v6.1h-1L126.1,146.4L126.1,146.4z"/>
		<path class="st1" d="M131.2,141.7c-0.1,0-0.3,0-0.5,0c-0.5,0-0.9,0.3-1.1,0.8v4.4h-1v-6.1h1l0,0.6c0.3-0.5,0.6-0.7,1.1-0.7
			c0.2,0,0.3,0,0.4,0.1L131.2,141.7L131.2,141.7z"/>
		<path class="st1" d="M135.1,146.9c-0.1-0.1-0.1-0.4-0.1-0.7c-0.4,0.5-0.8,0.8-1.4,0.8c-0.6,0-1-0.2-1.3-0.5
			c-0.3-0.3-0.5-0.8-0.5-1.3c0-0.6,0.2-1.1,0.6-1.5c0.4-0.4,1-0.6,1.7-0.6h0.7v-0.7c0-0.4-0.1-0.6-0.2-0.8c-0.2-0.2-0.4-0.2-0.7-0.2
			c-0.3,0-0.5,0.1-0.7,0.3c-0.2,0.2-0.3,0.4-0.3,0.7h-1c0-0.3,0.1-0.6,0.3-0.9c0.2-0.3,0.4-0.5,0.8-0.7s0.7-0.2,1.1-0.2
			c0.6,0,1.1,0.2,1.4,0.5c0.3,0.3,0.5,0.8,0.5,1.4v3.1c0,0.5,0.1,0.9,0.2,1.2v0.1H135.1L135.1,146.9z M133.8,146.1
			c0.2,0,0.5-0.1,0.7-0.2c0.2-0.1,0.4-0.3,0.5-0.5v-1.5h-0.6c-0.5,0-0.9,0.1-1.1,0.3s-0.4,0.5-0.4,0.9c0,0.3,0.1,0.6,0.2,0.8
			S133.4,146.1,133.8,146.1L133.8,146.1z"/>
		<path class="st1" d="M138.5,140.8l0,0.7c0.4-0.5,0.9-0.8,1.5-0.8c1.1,0,1.6,0.7,1.7,2.2v4.1h-1v-4c0-0.5-0.1-0.8-0.2-1
			c-0.2-0.2-0.4-0.3-0.7-0.3c-0.3,0-0.5,0.1-0.7,0.3s-0.4,0.4-0.5,0.7v4.5h-1v-6.1H138.5L138.5,140.8z"/>
		<path class="st1" d="M145.3,146.2c0.3,0,0.6-0.1,0.8-0.3c0.2-0.2,0.3-0.5,0.3-0.9h0.9c0,0.6-0.2,1.1-0.6,1.5s-0.9,0.6-1.5,0.6
			c-0.8,0-1.3-0.2-1.7-0.7c-0.4-0.5-0.6-1.2-0.6-2.1v-0.7c0-0.9,0.2-1.6,0.6-2.1s1-0.7,1.7-0.7c0.6,0,1.1,0.2,1.5,0.6
			c0.4,0.4,0.6,0.9,0.6,1.6h-0.9c0-0.5-0.1-0.8-0.3-1c-0.2-0.2-0.5-0.3-0.8-0.3c-0.4,0-0.8,0.1-1,0.4c-0.2,0.3-0.3,0.8-0.3,1.4v0.8
			c0,0.7,0.1,1.2,0.3,1.5C144.5,146,144.8,146.2,145.3,146.2L145.3,146.2z"/>
		<path class="st1" d="M150.7,147c-0.8,0-1.4-0.2-1.8-0.7c-0.4-0.5-0.6-1.1-0.6-2v-0.7c0-0.9,0.2-1.6,0.6-2.2c0.4-0.5,1-0.8,1.7-0.8
			s1.3,0.2,1.6,0.7c0.4,0.5,0.5,1.2,0.5,2.1v0.7h-3.4v0.1c0,0.7,0.1,1.1,0.4,1.4c0.2,0.3,0.6,0.4,1.1,0.4c0.3,0,0.6-0.1,0.8-0.2
			s0.4-0.3,0.6-0.5l0.5,0.6C152.3,146.7,151.6,147,150.7,147L150.7,147z M150.6,141.5c-0.4,0-0.7,0.1-0.9,0.4
			c-0.2,0.3-0.3,0.7-0.3,1.3h2.4v-0.1c0-0.6-0.1-1-0.3-1.3S151,141.5,150.6,141.5L150.6,141.5z"/>
		<path class="st1" d="M157.8,143.7v3.2h-1v-8.3h2.6c0.8,0,1.4,0.2,1.8,0.7c0.4,0.5,0.7,1.1,0.7,1.8c0,0.8-0.2,1.4-0.6,1.8
			c-0.4,0.4-1,0.7-1.8,0.7L157.8,143.7L157.8,143.7z M157.8,142.8h1.6c0.5,0,0.8-0.1,1.1-0.4c0.2-0.3,0.4-0.7,0.4-1.2
			c0-0.5-0.1-0.9-0.4-1.2c-0.3-0.3-0.6-0.5-1-0.5h-1.6V142.8L157.8,142.8z"/>
		<path class="st1" d="M165.6,141.7c-0.1,0-0.3,0-0.5,0c-0.5,0-0.9,0.3-1.1,0.8v4.4h-1v-6.1h1l0,0.6c0.3-0.5,0.6-0.7,1.1-0.7
			c0.2,0,0.3,0,0.4,0.1L165.6,141.7L165.6,141.7z"/>
		<path class="st1" d="M166.3,143.6c0-0.9,0.2-1.6,0.7-2.1s1-0.8,1.7-0.8s1.3,0.3,1.7,0.8c0.4,0.5,0.7,1.2,0.7,2.1v0.6
			c0,0.9-0.2,1.6-0.6,2.1c-0.4,0.5-1,0.8-1.7,0.8c-0.7,0-1.3-0.3-1.7-0.8c-0.4-0.5-0.7-1.2-0.7-2L166.3,143.6L166.3,143.6z
			 M167.3,144.2c0,0.6,0.1,1.1,0.4,1.5c0.2,0.4,0.6,0.5,1,0.5c0.9,0,1.3-0.6,1.4-1.9v-0.7c0-0.6-0.1-1.1-0.4-1.5
			c-0.3-0.4-0.6-0.5-1-0.5s-0.7,0.2-1,0.5c-0.2,0.4-0.4,0.9-0.4,1.5L167.3,144.2L167.3,144.2z"/>
		<path class="st1" d="M172.2,143.6c0-1,0.2-1.7,0.5-2.2s0.9-0.7,1.5-0.7c0.6,0,1.1,0.3,1.4,0.8l0.1-0.7h0.9v6.2
			c0,0.8-0.2,1.3-0.6,1.8c-0.4,0.4-0.9,0.6-1.6,0.6c-0.3,0-0.6-0.1-1-0.2s-0.7-0.3-0.8-0.6l0.4-0.7c0.4,0.4,0.9,0.6,1.4,0.6
			c0.8,0,1.3-0.5,1.3-1.4v-0.8c-0.3,0.5-0.8,0.7-1.4,0.7c-0.6,0-1.1-0.2-1.5-0.7c-0.4-0.5-0.5-1.2-0.6-2.1L172.2,143.6L172.2,143.6z
			 M173.2,144.2c0,0.7,0.1,1.2,0.3,1.5c0.2,0.3,0.5,0.5,1,0.5c0.5,0,0.9-0.3,1.1-0.8v-3.1c-0.3-0.5-0.6-0.8-1.1-0.8
			c-0.5,0-0.8,0.2-1,0.5c-0.2,0.3-0.3,0.8-0.3,1.5L173.2,144.2L173.2,144.2z"/>
		<path class="st1" d="M180.6,141.7c-0.1,0-0.3,0-0.5,0c-0.5,0-0.9,0.3-1.1,0.8v4.4h-1v-6.1h1l0,0.6c0.3-0.5,0.6-0.7,1.1-0.7
			c0.2,0,0.3,0,0.4,0.1L180.6,141.7L180.6,141.7z"/>
		<path class="st1" d="M184.6,146.9c-0.1-0.1-0.1-0.4-0.1-0.7c-0.4,0.5-0.8,0.8-1.4,0.8c-0.6,0-1-0.2-1.3-0.5
			c-0.3-0.3-0.5-0.8-0.5-1.3c0-0.6,0.2-1.1,0.6-1.5c0.4-0.4,1-0.6,1.7-0.6h0.7v-0.7c0-0.4-0.1-0.6-0.2-0.8c-0.2-0.2-0.4-0.2-0.7-0.2
			c-0.3,0-0.5,0.1-0.7,0.3c-0.2,0.2-0.3,0.4-0.3,0.7h-1c0-0.3,0.1-0.6,0.3-0.9s0.4-0.5,0.8-0.7c0.3-0.2,0.7-0.2,1.1-0.2
			c0.6,0,1.1,0.2,1.4,0.5c0.3,0.3,0.5,0.8,0.5,1.4v3.1c0,0.5,0.1,0.9,0.2,1.2v0.1H184.6L184.6,146.9z M183.2,146.1
			c0.2,0,0.5-0.1,0.7-0.2c0.2-0.1,0.4-0.3,0.5-0.5v-1.5h-0.6c-0.5,0-0.9,0.1-1.1,0.3s-0.4,0.5-0.4,0.9c0,0.3,0.1,0.6,0.2,0.8
			C182.6,146.1,182.9,146.1,183.2,146.1L183.2,146.1z"/>
		<path class="st1" d="M187.9,140.8l0,0.6c0.4-0.5,0.9-0.7,1.5-0.7c0.7,0,1.2,0.3,1.4,0.9c0.4-0.6,0.9-0.9,1.6-0.9
			c1.1,0,1.7,0.7,1.7,2.1v4.1h-1v-4c0-0.4-0.1-0.8-0.2-1c-0.2-0.2-0.4-0.3-0.8-0.3c-0.3,0-0.5,0.1-0.7,0.4c-0.2,0.2-0.3,0.5-0.3,0.9
			v4.1h-1v-4.1c0-0.9-0.4-1.3-1-1.3c-0.5,0-0.9,0.3-1.1,0.8v4.6h-1v-6.1L187.9,140.8L187.9,140.8z"/>
		<path class="st1" d="M53.9,157.7v3.2h-1v-8.3h2.6c0.8,0,1.4,0.2,1.8,0.7s0.7,1.1,0.7,1.8s-0.2,1.4-0.6,1.8s-1,0.7-1.8,0.7
			L53.9,157.7L53.9,157.7z M53.9,156.8h1.6c0.5,0,0.8-0.1,1.1-0.4c0.2-0.3,0.4-0.7,0.4-1.2c0-0.5-0.1-0.9-0.4-1.2
			c-0.3-0.3-0.6-0.5-1-0.5h-1.6L53.9,156.8L53.9,156.8z"/>
		<path class="st1" d="M62.3,160.4c-0.3,0.4-0.8,0.7-1.5,0.7c-0.6,0-1-0.2-1.3-0.6c-0.3-0.4-0.4-0.9-0.4-1.7v-4h1v3.9
			c0,1,0.3,1.4,0.9,1.4c0.6,0,1-0.3,1.3-0.8v-4.5h1v6.1h-1L62.3,160.4L62.3,160.4z"/>
		<path class="st1" d="M69.3,158.1c0,1-0.2,1.7-0.5,2.2c-0.3,0.5-0.8,0.7-1.5,0.7s-1.1-0.3-1.5-0.8l-0.1,0.7h-0.9v-8.7h1v3.3
			c0.3-0.5,0.8-0.8,1.4-0.8c0.7,0,1.2,0.2,1.5,0.7c0.3,0.5,0.5,1.2,0.5,2.2L69.3,158.1L69.3,158.1z M68.3,157.5
			c0-0.7-0.1-1.2-0.3-1.6c-0.2-0.3-0.5-0.5-1-0.5c-0.5,0-0.9,0.3-1.2,0.8v2.9c0.3,0.6,0.6,0.8,1.2,0.8c0.5,0,0.8-0.2,1-0.5
			c0.2-0.3,0.3-0.8,0.3-1.5L68.3,157.5L68.3,157.5z"/>
		<path class="st1" d="M71.6,160.9h-1v-8.7h1V160.9z"/>
		<path class="st1" d="M74.4,153.1c0,0.2,0,0.3-0.1,0.4c-0.1,0.1-0.2,0.2-0.4,0.2c-0.2,0-0.3-0.1-0.4-0.2c-0.1-0.1-0.1-0.3-0.1-0.4
			s0-0.3,0.1-0.4s0.2-0.2,0.4-0.2c0.2,0,0.3,0.1,0.4,0.2C74.3,152.8,74.4,153,74.4,153.1z M74.3,160.9h-1v-6.1h1V160.9z"/>
		<path class="st1" d="M78,160.2c0.3,0,0.6-0.1,0.8-0.3c0.2-0.2,0.3-0.5,0.3-0.9h0.9c0,0.6-0.2,1.1-0.6,1.5
			c-0.4,0.4-0.9,0.6-1.5,0.6c-0.8,0-1.3-0.2-1.7-0.7c-0.4-0.5-0.6-1.2-0.6-2.1v-0.7c0-0.9,0.2-1.6,0.6-2.1s1-0.7,1.7-0.7
			c0.6,0,1.1,0.2,1.5,0.6c0.4,0.4,0.6,0.9,0.6,1.6h-0.9c0-0.5-0.1-0.8-0.3-1c-0.2-0.2-0.5-0.3-0.8-0.3c-0.4,0-0.8,0.1-1,0.4
			c-0.2,0.3-0.3,0.8-0.3,1.4v0.8c0,0.7,0.1,1.2,0.3,1.5C77.2,160,77.6,160.2,78,160.2L78,160.2z"/>
		<path class="st1" d="M84.9,155.4c0.4-0.5,0.9-0.7,1.5-0.7c1.1,0,1.6,0.7,1.7,2.2v4.1h-1v-4c0-0.5-0.1-0.8-0.2-1
			c-0.2-0.2-0.4-0.3-0.7-0.3c-0.3,0-0.5,0.1-0.7,0.3c-0.2,0.2-0.4,0.4-0.5,0.7v4.5h-1v-8.7h1L84.9,155.4L84.9,155.4z"/>
		<path class="st1" d="M91.7,161c-0.8,0-1.4-0.2-1.8-0.7c-0.4-0.5-0.6-1.1-0.6-2v-0.7c0-0.9,0.2-1.6,0.6-2.2c0.4-0.5,1-0.8,1.7-0.8
			c0.7,0,1.3,0.2,1.6,0.7c0.4,0.5,0.5,1.2,0.5,2.1v0.7h-3.4v0.1c0,0.7,0.1,1.1,0.4,1.4c0.2,0.3,0.6,0.4,1.1,0.4
			c0.3,0,0.6-0.1,0.8-0.2c0.2-0.1,0.4-0.3,0.6-0.5l0.5,0.6C93.3,160.7,92.6,161,91.7,161L91.7,161z M91.6,155.5
			c-0.4,0-0.7,0.1-0.9,0.4c-0.2,0.3-0.3,0.7-0.3,1.3h2.4v-0.1c0-0.6-0.1-1-0.3-1.3C92.3,155.6,92,155.5,91.6,155.5L91.6,155.5z"/>
		<path class="st1" d="M98.2,160.9c-0.1-0.1-0.1-0.4-0.1-0.7c-0.4,0.5-0.8,0.8-1.4,0.8c-0.6,0-1-0.2-1.3-0.5s-0.5-0.8-0.5-1.3
			c0-0.6,0.2-1.1,0.6-1.5c0.4-0.4,1-0.6,1.7-0.6H98v-0.7c0-0.4-0.1-0.6-0.2-0.8c-0.2-0.2-0.4-0.2-0.7-0.2c-0.3,0-0.5,0.1-0.7,0.3
			c-0.2,0.2-0.3,0.4-0.3,0.7h-1c0-0.3,0.1-0.6,0.3-0.9c0.2-0.3,0.4-0.5,0.8-0.7c0.3-0.2,0.7-0.2,1.1-0.2c0.6,0,1.1,0.2,1.4,0.5
			s0.5,0.8,0.5,1.4v3.1c0,0.5,0.1,0.9,0.2,1.2v0.1L98.2,160.9L98.2,160.9z M96.8,160.1c0.2,0,0.5-0.1,0.7-0.2
			c0.2-0.1,0.4-0.3,0.5-0.5v-1.5h-0.6c-0.5,0-0.9,0.1-1.1,0.3c-0.3,0.2-0.4,0.5-0.4,0.9c0,0.3,0.1,0.6,0.2,0.8
			S96.5,160.1,96.8,160.1L96.8,160.1z"/>
		<path class="st1" d="M101.6,160.9h-1v-8.7h1V160.9z"/>
		<path class="st1" d="M104.5,153.3v1.5h0.9v0.8h-0.9v3.8c0,0.2,0,0.4,0.1,0.6c0.1,0.1,0.2,0.2,0.4,0.2c0.1,0,0.3,0,0.4-0.1l0,0.8
			c-0.2,0.1-0.5,0.1-0.7,0.1c-0.4,0-0.7-0.1-0.9-0.4c-0.2-0.3-0.3-0.7-0.3-1.2v-3.8h-0.9v-0.8h0.9v-1.5L104.5,153.3L104.5,153.3z"/>
		<path class="st1" d="M107.7,155.4c0.4-0.5,0.9-0.7,1.5-0.7c1.1,0,1.6,0.7,1.7,2.2v4.1h-1v-4c0-0.5-0.1-0.8-0.2-1
			c-0.2-0.2-0.4-0.3-0.7-0.3c-0.3,0-0.5,0.1-0.7,0.3c-0.2,0.2-0.4,0.4-0.5,0.7v4.5h-1v-8.7h1L107.7,155.4L107.7,155.4z"/>
		<path class="st1" d="M117.1,161c-0.8,0-1.4-0.2-1.8-0.7c-0.4-0.5-0.6-1.1-0.6-2v-0.7c0-0.9,0.2-1.6,0.6-2.2c0.4-0.5,1-0.8,1.7-0.8
			s1.3,0.2,1.6,0.7c0.4,0.5,0.5,1.2,0.5,2.1v0.7h-3.4v0.1c0,0.7,0.1,1.1,0.4,1.4s0.6,0.4,1.1,0.4c0.3,0,0.6-0.1,0.8-0.2
			c0.2-0.1,0.4-0.3,0.6-0.5l0.5,0.6C118.7,160.7,118,161,117.1,161L117.1,161z M117,155.5c-0.4,0-0.7,0.1-0.9,0.4
			c-0.2,0.3-0.3,0.7-0.3,1.3h2.4v-0.1c0-0.6-0.1-1-0.3-1.3C117.7,155.6,117.4,155.5,117,155.5L117,155.5z"/>
		<path class="st1" d="M122.2,157l1.1-2.2h1.2l-1.7,3l1.7,3.1h-1.2l-1.1-2.3l-1.1,2.3h-1.2l1.7-3.1l-1.7-3h1.2L122.2,157L122.2,157z
			"/>
		<path class="st1" d="M129.9,158.1c0,1-0.2,1.7-0.5,2.2s-0.8,0.7-1.5,0.7c-0.6,0-1.1-0.2-1.4-0.7v2.9h-1v-8.5h0.9l0.1,0.7
			c0.3-0.5,0.8-0.8,1.4-0.8c0.7,0,1.2,0.2,1.5,0.7c0.3,0.5,0.5,1.2,0.5,2.1L129.9,158.1L129.9,158.1z M128.9,157.5
			c0-0.7-0.1-1.2-0.3-1.5c-0.2-0.3-0.6-0.5-1-0.5s-0.8,0.2-1.1,0.7v3.2c0.2,0.5,0.6,0.7,1.1,0.7c0.5,0,0.8-0.2,1-0.5
			s0.3-0.8,0.3-1.5V157.5L128.9,157.5z"/>
		<path class="st1" d="M133.4,161c-0.8,0-1.4-0.2-1.8-0.7c-0.4-0.5-0.6-1.1-0.6-2v-0.7c0-0.9,0.2-1.6,0.6-2.2c0.4-0.5,1-0.8,1.7-0.8
			c0.7,0,1.3,0.2,1.6,0.7s0.5,1.2,0.5,2.1v0.7h-3.4v0.1c0,0.7,0.1,1.1,0.4,1.4c0.2,0.3,0.6,0.4,1.1,0.4c0.3,0,0.6-0.1,0.8-0.2
			c0.2-0.1,0.4-0.3,0.6-0.5l0.5,0.6C135,160.7,134.3,161,133.4,161L133.4,161z M133.3,155.5c-0.4,0-0.7,0.1-0.9,0.4
			c-0.2,0.3-0.3,0.7-0.3,1.3h2.4v-0.1c0-0.6-0.1-1-0.3-1.3C134,155.6,133.7,155.5,133.3,155.5L133.3,155.5z"/>
		<path class="st1" d="M137.6,154.7l0,0.7c0.4-0.5,0.9-0.8,1.5-0.8c1.1,0,1.6,0.7,1.7,2.2v4.1h-1v-4c0-0.5-0.1-0.8-0.2-1
			c-0.2-0.2-0.4-0.3-0.7-0.3c-0.3,0-0.5,0.1-0.7,0.3s-0.4,0.4-0.5,0.7v4.5h-1v-6.1H137.6L137.6,154.7z"/>
		<path class="st1" d="M145.3,159.3c0-0.2-0.1-0.4-0.2-0.6c-0.2-0.2-0.5-0.3-0.9-0.5c-0.5-0.2-0.9-0.4-1.1-0.6
			c-0.2-0.2-0.4-0.3-0.5-0.5c-0.1-0.2-0.2-0.4-0.2-0.7c0-0.5,0.2-0.9,0.5-1.2c0.4-0.3,0.8-0.5,1.4-0.5c0.6,0,1.1,0.2,1.4,0.5
			c0.4,0.3,0.5,0.8,0.5,1.3h-1c0-0.3-0.1-0.5-0.3-0.7c-0.2-0.2-0.4-0.3-0.7-0.3s-0.5,0.1-0.7,0.2s-0.3,0.4-0.3,0.6
			c0,0.2,0.1,0.4,0.2,0.5c0.1,0.1,0.4,0.3,0.9,0.5c0.7,0.3,1.3,0.6,1.5,0.9c0.3,0.3,0.4,0.6,0.4,1.1c0,0.5-0.2,1-0.5,1.3
			c-0.4,0.3-0.9,0.5-1.5,0.5c-0.6,0-1.2-0.2-1.6-0.5c-0.4-0.4-0.6-0.8-0.6-1.4h1c0,0.3,0.1,0.6,0.3,0.8s0.5,0.3,0.8,0.3
			c0.3,0,0.6-0.1,0.8-0.2C145.2,159.8,145.3,159.6,145.3,159.3L145.3,159.3z"/>
		<path class="st1" d="M148.8,153.1c0,0.2,0,0.3-0.1,0.4c-0.1,0.1-0.2,0.2-0.4,0.2s-0.3-0.1-0.4-0.2c-0.1-0.1-0.1-0.3-0.1-0.4
			s0-0.3,0.1-0.4s0.2-0.2,0.4-0.2c0.2,0,0.3,0.1,0.4,0.2C148.7,152.8,148.8,153,148.8,153.1z M148.7,160.9h-1v-6.1h1V160.9z"/>
		<path class="st1" d="M151.6,153.3v1.5h0.9v0.8h-0.9v3.8c0,0.2,0,0.4,0.1,0.6c0.1,0.1,0.2,0.2,0.4,0.2c0.1,0,0.3,0,0.4-0.1l0,0.8
			c-0.2,0.1-0.5,0.1-0.7,0.1c-0.4,0-0.7-0.1-0.9-0.4c-0.2-0.3-0.3-0.7-0.3-1.2v-3.8h-0.9v-0.8h0.9v-1.5L151.6,153.3L151.6,153.3z"/>
		<path class="st1" d="M156.9,160.4c-0.3,0.4-0.8,0.7-1.5,0.7c-0.6,0-1-0.2-1.3-0.6c-0.3-0.4-0.4-0.9-0.4-1.7v-4h1v3.9
			c0,1,0.3,1.4,0.9,1.4c0.6,0,1-0.3,1.3-0.8v-4.5h1v6.1h-1L156.9,160.4L156.9,160.4z"/>
		<path class="st1" d="M161.9,155.7c-0.1,0-0.3,0-0.5,0c-0.5,0-0.9,0.3-1.1,0.8v4.4h-1v-6.1h1l0,0.6c0.3-0.5,0.6-0.7,1.1-0.7
			c0.2,0,0.3,0,0.4,0.1L161.9,155.7L161.9,155.7z"/>
		<path class="st1" d="M165.1,161c-0.8,0-1.4-0.2-1.8-0.7c-0.4-0.5-0.6-1.1-0.6-2v-0.7c0-0.9,0.2-1.6,0.6-2.2c0.4-0.5,1-0.8,1.7-0.8
			s1.3,0.2,1.6,0.7s0.5,1.2,0.5,2.1v0.7h-3.4v0.1c0,0.7,0.1,1.1,0.4,1.4s0.6,0.4,1.1,0.4c0.3,0,0.6-0.1,0.8-0.2s0.4-0.3,0.6-0.5
			l0.5,0.6C166.6,160.7,166,161,165.1,161L165.1,161z M165,155.5c-0.4,0-0.7,0.1-0.9,0.4s-0.3,0.7-0.3,1.3h2.4v-0.1
			c0-0.6-0.1-1-0.3-1.3C165.6,155.6,165.3,155.5,165,155.5L165,155.5z"/>
		<path class="st1" d="M171.3,159.3c0-0.2-0.1-0.4-0.2-0.6c-0.2-0.2-0.5-0.3-0.9-0.5c-0.5-0.2-0.9-0.4-1.1-0.6
			c-0.2-0.2-0.4-0.3-0.5-0.5c-0.1-0.2-0.2-0.4-0.2-0.7c0-0.5,0.2-0.9,0.5-1.2c0.4-0.3,0.8-0.5,1.4-0.5c0.6,0,1.1,0.2,1.4,0.5
			c0.4,0.3,0.5,0.8,0.5,1.3h-1c0-0.3-0.1-0.5-0.3-0.7s-0.4-0.3-0.7-0.3s-0.5,0.1-0.7,0.2c-0.2,0.2-0.3,0.4-0.3,0.6
			c0,0.2,0.1,0.4,0.2,0.5c0.1,0.1,0.4,0.3,0.9,0.5c0.7,0.3,1.3,0.6,1.5,0.9c0.3,0.3,0.4,0.6,0.4,1.1c0,0.5-0.2,1-0.5,1.3
			c-0.4,0.3-0.9,0.5-1.5,0.5s-1.2-0.2-1.6-0.5c-0.4-0.4-0.6-0.8-0.6-1.4h1c0,0.3,0.1,0.6,0.3,0.8s0.5,0.3,0.8,0.3
			c0.3,0,0.6-0.1,0.8-0.2C171.2,159.8,171.3,159.6,171.3,159.3L171.3,159.3z"/>
	</g>
</g>
</svg>
