<?xml version="1.0" encoding="utf-8"?>
<!-- Generator: Adobe Illustrator 27.0.1, SVG Export Plug-In . SVG Version: 6.00 Build 0)  -->
<svg version="1.1" id="Layer_1" xmlns="http://www.w3.org/2000/svg" xmlns:xlink="http://www.w3.org/1999/xlink" x="0px" y="0px"
	 viewBox="0 0 175 190" style="enable-background:new 0 0 175 190;" xml:space="preserve">
<style type="text/css">
	.st0{fill:#A5A49F;}
	.st1{fill:#FFFFFF;}
	.st2{fill:#524C4C;}
	.st3{fill:#828A43;}
	.st4{fill:#B3BD80;}
	.st5{fill:#677432;}
	.st6{fill:#7F7474;}
	.st7{enable-background:new    ;}
</style>
<g>
	<polygon class="st0" points="162.5,138.3 87.5,181.6 12.5,138.3 12.5,51.7 87.5,8.4 162.5,51.7 	"/>
	<g>
		<path class="st1" d="M39.6,140.4c0.2,1.7,0.1,3.4-0.4,5.1c-0.3,0.8-0.8,1.4-1.6,1.8c-1.4,0.6-2.9,0.7-4.4,0.3
			c-1.1-0.3-2-1.4-1.7-2.5c0.4-1.6,1-3.1,1.5-4.6c0.1-0.2,0.5-0.4,0.7-0.4C35.7,140.1,37.6,140.3,39.6,140.4L39.6,140.4z"/>
		<g>
			<path class="st2" d="M58.4,72.6c0.3,0.2,0.9,0.4,1.2,0.7c0.4,0.3,0.9,0.8,0.9,1.2c0,0.5-0.5,1-1,1.3c-0.5,0.3-1,0.5-1.2,1.1
				c-0.3,0.8-1,0.9-2.3,0.5c-0.9,0.8-1.1,1.4-0.6,2.6c0.7,1.4,0.7,2.8,0.8,4.3c0.1,0.9-0.3,1.6-0.8,2.3c-1.2,1.5-2.9,2.2-4.7,2.7
				c-0.4,0.1-0.9,0.3-1.3,0.4c-1,0.3-1.2,0.6-0.9,1.6c0.4,1.5,0.8,3.1,1.3,4.6c0.3,1.1,0.7,1.1,1.5,0.4c0.6-0.5,1.2-1.2,1.9-1.7
				c1.3-0.8,2.7-1.6,4-2.3c0.8-0.4,1.5,0.1,2.1,0.6c1.9,1.3,3.7,2.7,5.7,3.9c1.4,0.8,2.9,1.3,4.3,2.1c2.3,1.3,4.7,2.2,7.1,3.1
				c2.4,0.9,4.8,2,7.1,3.1c0.5,0.2,0.8,0.2,1.2-0.2c2.2-2,3.9-4.4,5.2-7.2c1.5-3.1,3-6.3,4.4-9.4c0.3-0.5,0.5-1-0.2-1.5
				c-0.2-0.2-0.3-0.8-0.2-1.1c0.2-1.2,0.5-2.4,0.7-3.7c-1.2-0.5-2.5-1.1-3.9-1.6c-3-1-4.9-3.2-6.3-6c-0.6-1.3-0.6-2.7-0.2-4.1
				c-0.5-0.4-1-0.8-1.5-1.1c-0.7-0.4-1.1-1-1-1.9c0.2-1.8,0.4-3.7,0.5-5.6c0-0.4,0-0.9-0.2-1.3c-0.6-1-1.2-2-1.9-2.9
				c-1.3-1.8-1.8-3.7-1.8-5.9c0.1-2.6-0.1-5.1-0.1-7.7c0-0.7,0-1.3,0.1-2c-1.5,0.3-1.9,0.1-2.6-1.3c-0.2-0.4-0.4-0.8-0.5-1.2
				c-0.3-0.8-0.2-1.6,0.4-2.4c2.9-4,5.6-8.1,8.7-12c3.7-4.7,8.2-8.3,14.3-9.5c3.7-0.7,7,0.1,10.2,2c0.9,0.5,1.8,1.1,2.8,1.4
				c2.6,0.9,4.4,2.9,5.9,5c2.2,3,4,6.3,5.4,9.8c0.9,2.4,1.3,5,1.6,7.6c0.5,4.8-0.5,9.4-1.7,14c-0.8,3.1-1.3,6.4-1.9,9.6
				c0,0.1,0,0.2,0,0.4c1.1-0.7,2.1-1.3,3.2-2c1.1-0.6,1.5-0.4,1.8,0.8c1,3.7,1.9,7.3,2.9,11c0.1,0.2,0.2,0.5,0.4,0.6
				c2.7,1.6,4.9,3.7,7.1,5.9c0.9,0.9,2,1.6,2.7,2.6c2,2.7,4.5,4.9,6.8,7.4c1.5,1.6,2.1,3.6,2.2,5.7c0.2,9.3,0.3,18.6,0.5,27.9
				c0.1,4.1,0.1,8.1,0.3,12.2c0.1,2.4,0.6,4.9,0.6,7.3c0,3.6-0.3,7.2-0.4,10.8c-0.1,1.4-0.1,2.8-0.2,4.4c-1.1,0.3-2.2,0.6-3.3,0.9
				c-3.6,1-7.3,1.9-10.9,2.9c-1.2,0.3-2.4,0.1-3.7,0c-2.2-0.3-4.4-0.4-6.6-0.5c-1.9-0.1-3.9,0.1-5.7-0.2c-1.7-0.2-3.4-0.8-5-1.5
				c-1.3-0.5-2.4-0.7-3.7-0.3c-4.3,1.3-8.5,2.6-12.8,3.9c-0.3,0.1-0.7,0.2-1,0.3c-2.1,0.5-3.2-0.8-2.9-2.8
				c0.8-6.1,1.7-12.2,2.6-18.3c0.3-2,0.5-4,0.7-6.1c-4.6-1.1-9.2-2.1-13.9-3.2c0,0.9-0.4,1-1.1,0.8c-0.7-0.2-1.5-0.3-2.2-0.4
				c-0.8-0.2-1.1,0.1-1,0.9c0.1,0.7,0.1,1.4,0.3,2.1c1.1,5.6,2.1,11.3,3.2,16.9c0.6,2.9,1.4,5.8,2.4,8.6c0.3,0.8,1.2,1.3,1.8,2
				c1.6,1.5,3.3,3,4.9,4.6c0.7,0.8,1.2,1.8,1.6,2.8c0.5,1.3-0.6,2.5-1.9,2.6c-2.5,0.2-4.5-0.8-6.5-2.1c-2.9-1.9-5.9-3.7-9.2-4.9
				c-1.7-0.6-2.1-1.6-1.5-2.9c0.1-0.2,0.1-0.4,0-0.6c-2.1-4.5-3.4-9.3-4.5-14.1c-0.6-2.7-1.3-5.3-1.9-8c-0.2-0.7-0.5-0.9-1.1-0.8
				c-1.7,0-3.3,0-5-0.1c-0.6,0-1.1,0.1-1.5,0.5c-1.6,1.8-3.7,2.2-6,2.2c-1.6,0-2.6-1-3.3-2.3c-2.8,0.1-5.5,0.2-8.2,0.3
				c-0.2,0.9-0.4,2-0.7,3c-1,2.9-4.8,3.9-7,3.8c-1.9-0.1-3.5-0.8-4.3-2.6c-0.3-0.6-0.4-1.4-0.6-2c-5.3-0.1-10.5-0.3-15.9-0.4
				c0.1-2.3,0.1-4.5,0.1-6.8c2.7,0,5.3,0,7.9,0c-0.4-3.4-0.1-6.7,0.7-10c2-7.6,4-15.3,6.1-22.9c0.8-2.9,1.9-5.8,3-8.7
				c0.4-1.1,1.1-2.1,1.8-3.1c0.5-0.7-0.1-1-0.3-1.5c-0.1-0.2-0.7-0.2-1-0.1c-1.4,0.5-2.7,1.1-4,1.6c-1.4,0.5-2.1-0.1-2-1.6
				c0-0.3-0.1-0.6-0.2-0.8c-0.1,0-0.2,0-0.3,0c-0.1,0.1-0.1,0.3-0.2,0.4c-0.5,1-1.2,1-1.9,0.1c-0.5-0.6-0.8-1.4-0.6-2.2
				c0.1-0.5,0-0.9-0.1-1.2c-0.4-0.3-0.9-0.7-1-1.1c-0.1-0.8,0.4-1.3,1.2-1.4c-0.6-0.9-1.3-1-2.4-0.5c-0.5,0.2-0.9,0.5-1.4,0.6
				c-1.2,0.3-2-0.5-1.7-1.7c0.2-0.6-0.1-0.8-0.6-0.9c-1.9-0.4-2.7-2.1-1.8-3.7c0.2-0.3,0.6-0.5,0.9-0.7c0.2-0.2,0.4-0.5,0.7-0.7
				c-0.2-0.1-0.5-0.3-0.7-0.4c-0.7-0.3-1-0.9-0.9-1.6c0.1-0.8,0.8-1.5,1.6-1.5c0.4,0,0.8,0.1,1.2,0.1c0.4,0,0.8-0.2,1.2-0.3
				c-0.1-0.4-0.2-0.8-0.4-1.1c-0.2-0.3-0.5-0.5-0.7-0.8c-0.4-0.6-0.8-1-1.5-1.2c-1.4-0.4-1.5-1.5-0.5-2.6c-0.8-1.5-0.7-1.9,0.9-2.7
				c0.6-0.3,1.3-0.8,1.2-1.8c-0.1-0.9,0.4-1.2,1.4-1.1c0,0.1,0.1,0.1,0.1,0.2c0.1,0.6,0.1,1.3,1,1.1c0.9-0.2,0.8-0.9,0.7-1.5
				c0-0.3-0.2-0.6-0.3-0.9c-0.6-0.8-0.6-1.7-0.2-2.6c0.5-1.1,1.2-2.1,1.8-3.1c1-1.6,2.6-2.1,4.4-1.8c0.3,0.1,0.6,0.3,0.9,0.6
				c0.3,0.4,0.8,0.7,1.2,0.3c0.3-0.3,0.3-0.8,0.3-1.2c0-0.7-0.2-1.4-0.2-2c0-0.9,0.9-1.4,1.9-1c0.9,0.3,1.6,0.2,2.4,0
				c1-0.2,2-0.3,2.9-0.2c1.2,0.1,1.8,0.8,1.7,2c0,0.3,0.2,0.6,0.5,0.8c0.2-0.7,0.3-1.5,0.5-2.2c0.4-1.3,2.6-2.1,3.8-1.3
				c0.2,0.2,0.2,0.6,0.4,1.1c0.9-0.7,2-1.5,3-0.6c0.8,0.7,1.4,1.7,2.1,2.6c0.1-0.1,0.2-0.3,0.3-0.3c0.6-0.2,1.2-0.5,1.7-0.4
				c0.6,0.2,1.4,0.5,1.4,1.4c0.1,0.7,0.2,1.4,0.3,2.2c1.1-0.7,2.1-1.4,3.4-0.7c1,0.5,1.5,1.7,1.3,3.2c1.7,0.3,2.3,0.7,2.3,1.7
				c0.1,1-0.4,1.4-1.9,2c0,0.7,0,1.3,1.1,1.4c0.9,0.1,1.6,0.8,2,1.6c0.5,0.9,0.1,1.8-0.9,2.4c-0.4,0.2-0.8,0.5-1.4,0.8
				c0.9,0.4,1.7,0.8,1.5,1.7C59.2,71.3,58.8,71.9,58.4,72.6L58.4,72.6z M109.3,125.5c-0.2,0.9-0.4,1.6-0.6,2.4
				c-0.2,0.7-0.3,1.4-0.6,2.1c-0.1,0.3-0.6,0.7-0.9,0.7c-0.3,0-0.7-0.5-0.7-0.9c-0.2-1.3-0.3-2.7-0.4-4c0-0.7-0.3-1-1-1
				c-1.9,0.1-3.8,0.1-5.7,0.2c-6.8,0.4-13.7,0.2-20.6,1.3c0,0.2,0,0.4,0.1,0.5c0.7,1.6,1.4,3.1,2,4.7c0.5,1.1,1.1,1.7,2.4,1.9
				c4.1,0.6,8.2,1.5,12.3,2.1c7.6,1.1,15.2,2.4,22.6,4.2c0.8,0.2,1.4,0,1.8-0.8c0.6-1.1,1.3-2.2,1.8-3.4c2.1-4.1,4.1-8.3,6.2-12.4
				c1-1.9,2.1-3.7,3.2-5.5c1.3,0.5,1.3,0.7,0.7,1.8c-0.9,1.6-1.9,3.2-2.8,4.8c-3,5.4-6.2,10.8-8.5,16.6c-7.1-0.6-14.3-1.3-21.5-1.9
				c-0.9,7.8-1.9,15.8-2.8,23.7c0,0,0.1,0,0.3-0.1c5.1-1.6,10.2-3.1,15.3-4.7c1.4-0.5,2.6-0.2,3.7,0.8c0.5,0.5,1.1,1,1.7,1.1
				c1.7,0.3,3.4,0.5,5.1,0.5c2.9-0.1,5.7-0.3,8.6,0.1c1.5,0.2,3.1,0.1,4.6-0.4c3.8-1.1,7.4-2.5,11.2-3.8c-0.2-0.8-0.5-1.7-0.5-2.6
				c-0.3-4.6-0.5-9.1-0.7-13.7c-0.3-9.1-0.5-18.2-0.7-27.2c-0.1-4.8-0.3-9.7-0.3-14.5c0-1.7-0.4-3.1-1.5-4.3
				c-2.3-2.6-4.7-5.1-7.1-7.6c-1.5-1.6-3.1-3.1-4.7-4.6c-0.6-0.6-1.4-1.1-2.2-1.7c-0.8,1-1.6,1.8-2.3,2.7c-2,2.8-4,5.6-6,8.5
				c-0.2,0.2-0.3,0.4-0.4,0.7c-0.4,1.1-0.8,1.3-1.9,1c-0.5-0.1-0.9-0.3-1.4-0.4c-1.4-0.4-2.9-0.7-4.3-1.1c-0.8,2.8-1.5,5.5-2.2,8.2
				c-0.5,1.8-0.8,3.6-1.2,5.4c-0.3,1.2-1.2,1.5-2.1,0.7c-0.1-0.1-0.3-0.3-0.5-0.5c-1.6,5.5-3.2,10.8-4.1,16.4
				c1.6-0.1,3.1-0.2,4.6-0.2c0.9,0,1.3-0.3,1.6-1.1c1.3-3.4,2.6-6.8,4-10.1c1.9-4.7,4.3-9.1,7.6-13c1-1.1,2-2.5,3.7-2.6
				c2-0.2,4.1,0,5.9,1c0.4,0.2,0.7,0.6,0.9,0.8c-1.6,0.3-3.1,0.7-4.6,0.9c-1.1,0.2-2.1,0.5-3,1.4c-2.7,3-5.1,6.1-7.1,9.6
				c-2.1,3.8-4,7.8-5.9,11.8c0,0.1,0,0.2,0,0.3c0.2,0,0.4,0,0.6-0.1c1.7-0.8,3.5-0.6,5.2-0.6c0.6,0,1,0.3,1.1,0.9
				c0.1,0.6-0.3,1-0.8,1.2c-0.4,0.1-0.7,0.1-1.1,0.2c-1.4,0.2-2.9,0.4-4.6,0.7c1,1.1,1.7,1.9,2.4,2.7c0.5,0.6,1,1.2,1.3,1.8
				c0.2,0.4,0,1.1-0.3,1.5c-0.2,0.3-0.9,0.3-1.3,0.2c-0.3-0.1-0.6-0.4-0.9-0.6C111.3,127.4,110.3,126.5,109.3,125.5L109.3,125.5z
				 M80.9,55.6c0.3,0.5,0.6,0.9,0.9,1.4c0.8,1.4,1.6,2.8,2.3,4.2c0.2,0.3,0.2,0.8,0.1,1.2c-0.2,1.4-0.4,2.7-0.6,4.1
				c0,0.4,0.2,1,0.4,1.3c0.7,0.9,1.7,1,2.7,0.8c1.3-0.3,2.5-0.6,3.8-0.8c2.6-0.3,5.1-0.8,7-2.9c0.2-0.2,0.5-0.4,0.7-0.6
				c3.2-2.4,5.1-5.8,6.7-9.3c0.6-1.4,0.8-3,1.2-4.5c0.1-0.2,0-0.6-0.1-0.7c-0.5-0.8-1.1-1.5-1.7-2.2c-3.8-4.5-7.7-8.9-11.5-13.4
				c-0.5-0.6-1.1-0.8-1.8-0.6c-2.7,0.8-5.3,1.8-7.4,3.7c-1,0.9-2,1.8-3,2.8c-0.3,0.4-0.7,0.9-0.7,1.4c0,3.4,0.1,6.8,0.2,10.3
				c0.3-0.1,0.5-0.1,0.8-0.2c1.2-0.5,2.4-1,3.6-1.5c1.2-0.5,1.4-0.4,1.9,0.8C84.7,52.6,82.4,53.6,80.9,55.6L80.9,55.6z M41.4,92.1
				c-0.7,0.6-1.2,1.2-1.8,1.7c-0.8,0.7-1.8,1-2.9,0.7c-0.8-0.2-1.6-0.3-2.1,0.6c-0.4,0.7-0.8,1.4-1,2.1c-0.8,2.1-1.5,4.2-2.2,6.3
				c-0.7,2.2-1.3,4.5-1.9,6.7c-0.4,1.7-0.7,3.4-1.2,5.1c-0.5,1.9-1.1,3.7-1.6,5.5c-0.6,2.5-1.1,5-1.7,7.5c-0.3,1.2-0.5,2.3-0.7,3.5
				c-0.2,1.5-0.3,2.9-0.5,4.4c-0.1,0.9,0.6,2,1.2,2c1.4,0.1,2.8,0.2,4.2,0.2c0.5,0,0.9-0.2,0.9-0.8c0-0.6,0-1.3,0-1.9
				c0-1.6,0-3.1,0.1-4.7c0.1-1.4,0.2-2.9,0.4-4.3c0.1-1.1,0.4-2.3,0.5-3.4c0.2-1.4,0.2-2.9,0.4-4.3c0.2-1.4,0.5-2.7,0.7-4
				c0.4-2,0.6-3.9,1.1-5.9c0.6-2.4,1.3-4.7,2-7.1c0.4-1.2,0.9-2.3,1.6-3.3c0.4-0.6,1.5-1.2,2.2-1.1c2.4,0.2,4.1,1.8,5.3,3.7
				c0.4,0.6,0.7,1.3,1,2c0.4,0.8,0.9,1.6,0.9,2.5c0.2,2.2,0.3,4.4,0.4,6.6c0,1.5-0.1,3-0.3,4.4c-0.3,1.9-0.8,3.8-1.2,5.7
				c-0.8,3.2-1.8,6.3-3.1,9.3c-0.3,0.7-0.4,1.4-0.1,2.2c0.2,0.5,0.7,0.7,1.1,0.4c0.5-0.5,1.1-1,1.6-1.5c2.1-2,4.1-4,6.3-5.9
				c1.1-1,2.2-1.8,3.4-2.7c0.8-0.6,0.9-1.1,0.5-2c-0.2-0.6-0.5-1.2-0.6-1.8c-0.7-3.2-1.4-6.4-2-9.6c-0.5-2.5-1.2-4.8-2.1-7.1
				c-0.3-0.8-0.7-0.8-1.2-0.3c-0.6,0.6-1.3,0.3-1.7-0.1c-1.3-1-1.6-2.7-1-4.2c0.2-0.6,0.9-0.8,1.4-0.5c0.2,0.1,0.4,0.3,0.6,0.4
				c0.1,0,0.2,0,0.3-0.1c-0.3-2.2-0.1-4.4-0.9-6.6C45.4,93.8,43.3,93.9,41.4,92.1L41.4,92.1z M39.2,137.6c0.4-2.1,0.6-3.8,1-5.6
				c0.4-1.9,0.9-3.7,1.3-5.6c0.7-3,1.5-6,2.1-9.1c0.3-1.7,0.5-3.4,0.6-5.1c0.1-0.7,0-1.4,0-2c0-1.1,0.2-2.1,0-3.1
				c-0.3-1.5-0.8-3.1-1.3-4.6c-0.5-1.5-1.4-2.7-3.2-2.8c-1.1-0.1-2.5,0.5-2.7,1.3c-0.3,1.3-0.5,2.6-0.7,3.9c-0.3,1.7-0.4,3.4-0.9,5
				c-0.7,2.2-1,4.4-1.3,6.6c-0.3,2.2-0.5,4.4-0.8,6.6c-0.3,1.9-0.6,3.8-0.9,5.7c-0.3,2.1-0.5,4.3-0.6,6.4c-0.1,0.8,0,1.7,0.4,2.4
				c0.2,0.3,1,0.4,1.6,0.5c0.4,0.1,0.7,0,1.1,0c0.5-0.1,1-0.2,1.5-0.2C37.2,137.7,38.3,137.6,39.2,137.6L39.2,137.6z M124,66.8
				c-0.1,0-0.2,0-0.3,0c-0.6,0.8-1.2,1.6-1.8,2.4c-1.3,1.8-2.6,3.7-4,5.5c-2.6,3.3-5.3,6.6-8.1,9.9c-2.3,2.7-4.6,5.4-7.8,7.3
				c-0.3,0.2-0.6,0.4-0.9,0.7c2.3,3.2,4.5,6.4,6.7,9.6c0.4-2,0.8-4,1.3-5.9c0.6-2.4,1.4-4.8,2.1-7.3c0.2-0.5,0.4-0.8,1.1-0.5
				c0.6,0.3,1.3,0.2,1.9,0.4c2.1,0.7,3.4-0.2,4.6-1.8c2.4-3.5,5-6.9,7.5-10.3c0.1-0.2,0.2-0.6,0.1-0.8c-0.5-1.4-1.1-2.8-1.5-4.3
				C124.6,70,124.4,68.4,124,66.8L124,66.8z M52.8,107.7c-0.1,0-0.1,0-0.2,0.1c0,0.3,0,0.6,0.1,0.9c0.6,4.2,1.9,8.2,3.1,12.3
				c0.4,1.4,1.1,2.5,2.6,2.9c1.6,0.5,3.2,0.9,4.8,1.6c1.2,0.5,2.3,0.8,3.4-0.1c0.2-0.2,0.6-0.3,0.9-0.4c2.7-1,5.4-1.8,8.3-2.1
				c0.7-0.1,1.3,0.1,1.7,0.8c0.1,0.2,0.5,0.3,0.7,0.3c0.9-0.1,1.8-0.2,2.7-0.4c1.6-0.3,3.2-0.7,4.8-1c0.7-0.1,1.4-0.2,2.2-0.3
				c0-0.1,0.1-0.2,0.1-0.3c-3.7-2.1-7.4-4.1-11-6.2c-0.2-0.1-0.6-0.1-0.9,0c-2.7,0.5-5.3,1.4-8.2,1.3c-2.9-0.1-5.9-0.4-8.3-2.2
				c-2.5-1.9-4.8-4-6.3-6.8C53.1,108,53,107.9,52.8,107.7L52.8,107.7z M65.9,137.7c0.5,0,0.8,0.1,1.2,0.1c0.7,0,1.2,0.2,1.4,1
				c0.4,1.7,1.1,3.3,1.5,5c1.2,4.9,2.4,9.8,3.6,14.7c0.3,1.3,0.7,2.6,1.1,3.9c0.7,2.1,3,3.2,5.1,2.4c0.7-0.2,1.3-0.9,1.8-1.5
				c0.2-0.2,0-0.8-0.1-1.2c-0.2-0.9-0.5-1.7-0.7-2.6c-0.5-2.8-0.8-5.6-1.3-8.4c-0.5-3.2-1.2-6.3-1.7-9.5c-0.3-1.8-0.5-3.7-0.7-5.5
				c-0.1-0.5-0.2-0.6-0.6-0.8c-1.8-0.5-3.6-0.8-5.4-0.5c-0.6,0.1-1.3-0.2-1.8,0.1C68.1,135.8,67.1,136.7,65.9,137.7L65.9,137.7z
				 M44,88.3c2.7,0.7,5.2,0.9,7.6-0.8c1.7-1.2,3.3-2.4,2.8-4.9c0-0.3,0.1-0.5,0-0.8c-0.2-0.8-0.2-1.7-0.6-2.3
				c-0.7-1.1-0.7-2.1-0.5-3.3c0.2-1,0.7-1.9,0.9-2.8c0.2-0.7,0.3-1.6,0.1-2.3c-0.6-1.5-1.8-2.6-3.3-3.2c-1.6-0.7-3,0-4.3,0.9
				c-0.2,0.2-0.4,0.5-0.4,0.8c-0.1,1.1-0.6,1.9-1.6,2.3c-1.1,0.5-1.5,1-1.3,2.2c0.1,0.9-0.2,1.5-1,1.8c-0.6,0.2-1.3,0.3-1.9,0.3
				c-1.7-0.2-2.4,0.5-2.3,2.2c0.1,1.3,1,1.8,2,2.3c1.1,0.6,1.4,1.1,1,2.3c-0.3,1.1-0.2,2.1,0.3,3C43.9,85.7,44.6,86.2,44,88.3
				L44,88.3z M101.7,112.9c0-0.2,0.1-0.3,0.1-0.5c0.8-3.1,1.6-6.2,2.5-9.3c0.3-1,0.2-1.8-0.4-2.6c-0.2-0.2-0.4-0.5-0.5-0.7
				c-1.3-2-2.7-4.1-4-6.2c-0.7-1.3-0.3-2.1,1.1-2.5c0.6-0.2,1.3-0.5,1.9-0.7c-0.7-1.8-2.2-3.8-3.2-4.3c-0.6,0.9-0.8,2-2.1,2.3
				c-0.1,0-0.2,0.3-0.2,0.4c-1.5,3.4-2.4,7-4.4,10.2c-1.2,1.9-2.3,3.9-3.5,5.8c-0.4,0.7-0.9,1.3-1.4,1.9
				C92.4,108.9,97,110.9,101.7,112.9L101.7,112.9z M101.1,115.6c-0.8-0.4-1.6-0.8-2.5-1.2c-4-1.8-8.1-3.6-12.1-5.4
				c-0.2-0.1-0.6-0.1-0.8,0c-2.2,1.8-4.4,3.6-6.6,5.5c0,0,0.1,0.1,0.2,0.2c4.3,2.3,8.5,4.6,12.8,6.8c0.4,0.2,0.9,0.4,1.2,0.3
				c2.1-0.3,4.2-0.6,6.3-1c0.1,0,0.3-0.2,0.4-0.4C100.4,118.8,100.7,117.2,101.1,115.6L101.1,115.6z M60.2,129.2L60.2,129.2
				c-1,0.3-2,0.6-3.1,0.9c-1.5,0.4-2.6,1.4-3.4,2.8c-0.4,0.6-0.8,1.2-1.1,1.9c-1.2,2.2-1.3,4.6-0.7,6.9c0.5,2,0.9,2.3,3.2,1.9
				c1.8-0.2,3-1.2,4.1-2.4c2.1-2.1,4.1-4.3,6.6-6c0.7-0.5,1.4-1.4,1.5-2.1c0.1-1.1-0.2-2.3-0.6-3.4c-0.5-1.3-1.2-1.6-2.6-1.4
				C62.8,128.6,61.6,128.9,60.2,129.2L60.2,129.2z M105.4,42.8c0.3-0.6,0.5-1.1,0.7-1.5c0.5-0.8,2.1-1.1,2.8-0.6
				c0.7,0.5,0.9,1.6,0.3,2.5c-0.3,0.5-0.7,0.9-1,1.3c-0.2,0.3-0.4,0.7-0.3,1c0.6,2.4,1,4.9,1.9,7.2c0.7,1.8,0,3.3-0.7,4.7
				c-1.6,3.3-3.5,6.5-5.2,9.8c-2.4,4.7-4.8,9.4-7.1,14.1c-0.6,1.1-1.1,2.3-1.5,3.5c-0.3,0.9,0,1.3,1,1.8c0.8,0.4,1-0.2,1.3-0.6
				c0.4-0.7,0.9-1.4,1.2-2.1c2.1-4.4,4.2-8.8,6.3-13.1c2.5-5.2,5.1-10.4,7.6-15.6c0.2-0.4,0.3-0.8,0-1.3c-1-1.8-1.8-3.6-2.8-5.4
				c-0.7-1.3-0.7-2.2,0.4-3.4c1.8-1.9,1.6-4.3-0.1-6.2c-1.4-1.6-4.6-1.4-5.8,0.2C103.9,40.1,104,41,105.4,42.8L105.4,42.8z
				 M64.7,98.4c-1.8-1.1-3.7-2.1-5.4-3.2c-1-0.6-1.9-0.5-3-0.3c-2.8,0.7-4.5,2.8-6.6,4.6c-0.2,0.2-0.3,0.5-0.4,0.8
				c0.3,0.1,0.7,0.3,1,0.2c1.3-0.4,2.6-0.9,4-1.2c1-0.2,2.1-0.4,3.1-0.3c1.1,0.1,1.4,1.2,0.6,2c-0.8,0.8-1.7,1.5-3,1.5
				c-1.2-0.1-2.4-0.1-3.7-0.1c-0.3,0-0.6,0.1-1.1,0.2c0.6,0.6,1.1,1.1,1.6,1.6c0.9,0.9,2.1,1.3,3.4,1.1c1.5-0.2,3-0.4,4.5-0.8
				c0.8-0.2,1.8-0.5,2.3-1.1C63,101.8,63.8,100.1,64.7,98.4L64.7,98.4z M118.5,70.8c-0.1-0.1-0.1-0.1-0.2-0.2
				c-0.3,0.2-0.6,0.3-0.9,0.5c-2.5,1.8-5.1,3.7-7.6,5.5c-2.8,2-5.7,3.9-8.5,5.9c-0.7,0.5-0.9,1-0.4,1.8c1,1.5,1.8,3.1,2.6,4.5
				C108.6,82.9,113.5,76.8,118.5,70.8L118.5,70.8z M69,109.1c1.9,1,3.8,2,5.6,3c0.2,0.1,0.5,0.1,0.7-0.1c2.2-1.5,4.4-3.1,6.6-4.6
				c0.1-0.1,0.2-0.2,0.3-0.4c-3.3-1.5-6.5-3-9.8-4.5C71.3,104.7,70.2,106.9,69,109.1L69,109.1z M76.9,129.1l0.2-0.1
				c-0.3-0.9-0.6-1.9-0.9-2.8c-0.1-0.2-0.3-0.5-0.5-0.5c-0.9-0.1-1.9-0.3-2.7-0.1c-1.4,0.3-2.7,0.8-4.1,1.2
				c-0.5,0.1-0.6,0.3-0.5,0.8c0.6,1.6,1.1,3.2,1.7,4.8c0.1,0.3,0.6,0.6,1,0.6c2,0.2,4,0.3,6,0.4c1.1,0,1.4-0.5,1-1.5
				C77.6,131,77.3,130,76.9,129.1L76.9,129.1z M105.1,77.1c4.6-3.3,9.3-6.6,13.6-9.7c-0.1-2.5-0.2-4.7-0.4-7.1
				C113.6,65.6,108.9,71,105.1,77.1z M68.3,110.6c-0.8,1.4-1.3,1.5-2.7,0.8c-1.1-0.5-2.2-1-3.2-1.5c-0.6-0.3-1.3-0.7-1.8-1.2
				c-0.2-0.2-0.3-0.6-0.3-0.9c0.1-0.6,0.4-1.3,0.5-1.8c-1.9,0.4-3.8,0.8-5.7,1.2c0,0.1-0.1,0.2-0.1,0.4c1.1,1,2.1,1.9,3.1,3
				c2.8,2.9,6.4,4.1,10.2,4.5c1.7,0.2,3.1-0.7,4.4-1.4C71.2,112.6,69.7,111.6,68.3,110.6L68.3,110.6z M39.4,140.4
				c-1.9,0-3.8,0-5.7,0.1c-0.2,0-0.6,0.3-0.7,0.5c-0.4,1.5-0.8,3-1.1,4.6c-0.2,1.1,0.7,2.1,1.8,2.3c1.5,0.3,2.9,0,4.2-0.6
				c0.8-0.4,1.3-1,1.5-1.8C39.8,143.6,39.7,142,39.4,140.4L39.4,140.4z M43.5,137.2c0.1,0.1,0.2,0.2,0.2,0.3
				c1.2-0.1,2.4-0.4,3.6-0.4c1.1,0,1.8-0.5,2.2-1.4c0.9-2.3,2.6-4.1,4.2-6c0.8-0.9,1.8-1.4,2.9-1.7c1.2-0.3,2.4-0.8,3.6-1.3
				c0.2-0.1,0.3-0.3,0.4-0.5c-0.2-0.1-0.4-0.3-0.5-0.3c-0.6-0.1-1.2-0.2-1.8-0.3c-0.8,0-1.8-0.2-2.4,0.1c-4.6,2.7-8.2,6.5-11.9,10.3
				C43.8,136.4,43.7,136.8,43.5,137.2L43.5,137.2z M66.4,109.7c1.2-2.9,2.4-5.6,3.6-8.2c-1.1-0.7-2.2-1.3-3.3-2.1
				c-1.4,2.5-2.8,5.1-4.1,7.6C63.9,108,65.1,108.8,66.4,109.7L66.4,109.7z M52.4,101.1c1.3,0.8,3.8,0,4.3-1.4
				C55.2,100.2,53.8,100.6,52.4,101.1z"/>
			<path class="st1" d="M109.3,125.5c1.1,1,2,1.9,3,2.8c0.3,0.3,0.6,0.6,0.9,0.6c0.4,0.1,1.1,0.1,1.3-0.2c0.3-0.3,0.4-1.1,0.3-1.5
				c-0.3-0.7-0.8-1.3-1.3-1.8c-0.7-0.8-1.5-1.6-2.4-2.7c1.7-0.3,3.1-0.5,4.6-0.7c0.4-0.1,0.8-0.1,1.1-0.2c0.5-0.2,0.9-0.6,0.8-1.2
				c-0.1-0.6-0.5-0.9-1.1-0.9c-1.8,0-3.6-0.2-5.2,0.6c-0.2,0.1-0.3,0.1-0.6,0.1c0-0.1,0-0.3,0-0.3c2-3.9,3.8-7.9,5.9-11.8
				c1.9-3.5,4.4-6.6,7.1-9.6c0.9-0.9,1.8-1.2,3-1.4c1.5-0.2,3-0.6,4.6-0.9c-0.3-0.2-0.5-0.6-0.9-0.8c-1.9-0.9-3.9-1.2-5.9-1
				c-1.7,0.2-2.7,1.5-3.7,2.6c-3.3,3.9-5.7,8.3-7.6,13c-1.4,3.4-2.7,6.7-4,10.1c-0.3,0.8-0.7,1.1-1.6,1.1c-1.5-0.1-3,0.1-4.6,0.2
				c0.8-5.6,2.5-10.9,4.1-16.4c0.2,0.2,0.3,0.4,0.5,0.5c0.9,0.8,1.9,0.5,2.1-0.7c0.4-1.8,0.7-3.6,1.2-5.4c0.7-2.7,1.5-5.4,2.2-8.2
				c1.5,0.4,2.9,0.7,4.3,1.1c0.5,0.1,0.9,0.3,1.4,0.4c1.1,0.3,1.5,0.1,1.9-1c0.1-0.2,0.3-0.4,0.4-0.7c2-2.8,4-5.7,6-8.5
				c0.7-0.9,1.5-1.8,2.3-2.7c0.8,0.6,1.6,1.1,2.2,1.7c1.6,1.5,3.2,3,4.7,4.6c2.4,2.5,4.7,5.1,7.1,7.6c1.1,1.2,1.5,2.6,1.5,4.3
				c0,4.8,0.2,9.7,0.3,14.5c0.2,9.1,0.4,18.2,0.7,27.2c0.1,4.6,0.4,9.1,0.7,13.7c0.1,0.9,0.4,1.8,0.5,2.6c-3.8,1.3-7.5,2.7-11.2,3.8
				c-1.4,0.4-3.1,0.6-4.6,0.4c-2.9-0.4-5.7-0.2-8.6-0.1c-1.7,0-3.4-0.2-5.1-0.5c-0.6-0.1-1.2-0.7-1.7-1.1c-1.1-1-2.3-1.3-3.7-0.8
				c-5.1,1.6-10.2,3.2-15.3,4.7c-0.2,0.1-0.3,0.1-0.3,0.1c0.9-7.9,1.9-15.8,2.8-23.7c7.2,0.6,14.4,1.3,21.5,1.9
				c2.3-5.9,5.5-11.2,8.5-16.6c0.9-1.6,1.8-3.2,2.8-4.8c0.7-1.1,0.6-1.3-0.7-1.8c-1.1,1.8-2.2,3.6-3.2,5.5
				c-2.1,4.1-4.2,8.3-6.2,12.4c-0.6,1.1-1.2,2.2-1.8,3.4c-0.4,0.7-1,1-1.8,0.8c-7.5-1.9-15-3.1-22.6-4.2c-4.1-0.6-8.2-1.5-12.3-2.1
				c-1.3-0.2-2-0.7-2.4-1.9c-0.6-1.6-1.3-3.2-2-4.7c-0.1-0.2-0.1-0.3-0.1-0.5c6.9-1.1,13.7-0.9,20.6-1.3c1.9-0.1,3.8-0.1,5.7-0.2
				c0.7,0,0.9,0.3,1,1c0.1,1.3,0.2,2.7,0.4,4c0,0.3,0.5,0.8,0.7,0.9c0.3,0,0.8-0.4,0.9-0.7c0.3-0.7,0.4-1.4,0.6-2.1
				C108.8,127.1,109,126.3,109.3,125.5L109.3,125.5z"/>
			<path class="st1" d="M80.9,55.6c1.5-2.1,3.8-3.1,5.6-4.7c-0.5-1.2-0.7-1.3-1.9-0.8c-1.2,0.5-2.4,1-3.6,1.5
				c-0.3,0.1-0.5,0.2-0.8,0.2C80.1,48.4,80,45,80,41.5c0-0.5,0.3-1,0.7-1.4c0.9-1,2-1.9,3-2.8c2.1-2,4.7-3,7.4-3.7
				c0.7-0.2,1.3,0,1.8,0.6c3.8,4.5,7.7,8.9,11.5,13.4c0.6,0.7,1.1,1.5,1.7,2.2c0.1,0.2,0.2,0.5,0.1,0.7c-0.4,1.5-0.6,3.1-1.2,4.5
				c-1.6,3.6-3.5,6.9-6.7,9.3c-0.3,0.2-0.5,0.4-0.7,0.6c-1.9,2.1-4.4,2.6-7,2.9c-1.3,0.1-2.6,0.5-3.8,0.8c-1,0.2-2,0.1-2.7-0.8
				c-0.3-0.3-0.5-0.9-0.4-1.3c0.1-1.4,0.4-2.7,0.6-4.1c0.1-0.4,0.1-0.9-0.1-1.2c-0.7-1.4-1.5-2.8-2.3-4.2
				C81.5,56.6,81.2,56.1,80.9,55.6L80.9,55.6z"/>
			<path class="st3" d="M41.4,92.1c1.9,1.8,3.9,1.7,6.1,0.4c0.8,2.3,0.7,4.5,0.9,6.6c-0.1,0-0.2,0-0.3,0.1c-0.2-0.1-0.4-0.3-0.6-0.4
				c-0.5-0.3-1.2-0.1-1.4,0.5c-0.6,1.6-0.3,3.2,1,4.2c0.4,0.3,1.1,0.6,1.7,0.1c0.5-0.5,0.8-0.5,1.2,0.3c1,2.3,1.7,4.7,2.1,7.1
				c0.6,3.2,1.3,6.4,2,9.6c0.1,0.6,0.3,1.2,0.6,1.8c0.4,0.9,0.3,1.4-0.5,2c-1.1,0.9-2.3,1.7-3.4,2.7c-2.1,1.9-4.2,3.9-6.3,5.9
				c-0.5,0.5-1.1,1-1.6,1.5c-0.4,0.3-0.9,0.1-1.1-0.4c-0.3-0.7-0.2-1.5,0.1-2.2c1.3-3,2.4-6.1,3.1-9.3c0.4-1.9,0.9-3.8,1.2-5.7
				c0.2-1.5,0.3-3,0.3-4.4c0-2.2-0.1-4.4-0.4-6.6c-0.1-0.9-0.6-1.7-0.9-2.5c-0.3-0.7-0.6-1.3-1-2c-1.3-2-2.9-3.5-5.3-3.7
				c-0.7-0.1-1.7,0.5-2.2,1.1c-0.7,1-1.2,2.2-1.6,3.3c-0.8,2.3-1.5,4.7-2,7.1c-0.5,1.9-0.7,3.9-1.1,5.9c-0.2,1.3-0.5,2.7-0.7,4
				c-0.2,1.4-0.3,2.9-0.4,4.3c-0.1,1.1-0.4,2.3-0.5,3.4c-0.2,1.4-0.3,2.9-0.4,4.3c-0.1,1.6-0.1,3.1-0.1,4.7c0,0.6,0,1.3,0,1.9
				c0,0.6-0.3,0.9-0.9,0.8c-1.4,0-2.8-0.1-4.2-0.2c-0.7,0-1.3-1.2-1.2-2c0.2-1.5,0.3-2.9,0.5-4.4c0.2-1.2,0.5-2.3,0.7-3.5
				c0.6-2.5,1.1-5,1.7-7.5c0.5-1.9,1.1-3.7,1.6-5.5c0.4-1.7,0.8-3.4,1.2-5.1c0.6-2.3,1.2-4.5,1.9-6.7c0.7-2.1,1.4-4.2,2.2-6.3
				c0.3-0.7,0.7-1.4,1-2.1c0.5-0.9,1.3-0.8,2.1-0.6c1.1,0.2,2.1,0,2.9-0.7C40.2,93.3,40.8,92.7,41.4,92.1L41.4,92.1z"/>
			<path class="st3" d="M39.2,137.6c-1,0.1-2,0.1-3,0.2c-0.5,0-1,0.2-1.5,0.2c-0.4,0-0.8,0.1-1.1,0c-0.6-0.1-1.4-0.1-1.6-0.5
				c-0.3-0.7-0.4-1.6-0.4-2.4c0.1-2.1,0.4-4.3,0.6-6.4c0.2-1.9,0.6-3.8,0.9-5.7c0.3-2.2,0.5-4.4,0.8-6.6c0.3-2.2,0.6-4.4,1.3-6.6
				c0.5-1.6,0.6-3.3,0.9-5c0.2-1.3,0.4-2.6,0.7-3.9c0.2-0.9,1.5-1.4,2.7-1.3c1.9,0.1,2.7,1.3,3.2,2.8c0.5,1.5,1,3,1.3,4.6
				c0.2,1,0,2.1,0,3.1c0,0.7,0.1,1.4,0,2c-0.2,1.7-0.3,3.4-0.6,5.1c-0.6,3-1.4,6-2.1,9.1c-0.4,1.9-0.9,3.7-1.3,5.6
				C39.9,133.7,39.6,135.5,39.2,137.6L39.2,137.6z"/>
			<path class="st1" d="M124,66.8c0.3,1.6,0.6,3.2,1,4.8c0.4,1.5,1,2.8,1.5,4.3c0.1,0.2,0.1,0.6-0.1,0.8c-2.5,3.4-5.1,6.8-7.5,10.3
				c-1.2,1.7-2.5,2.6-4.6,1.8c-0.6-0.2-1.3-0.2-1.9-0.4c-0.7-0.3-0.9,0-1.1,0.5c-0.7,2.4-1.5,4.8-2.1,7.3c-0.5,2-0.9,4-1.3,5.9
				c-2.2-3.2-4.5-6.3-6.7-9.6c0.3-0.3,0.6-0.5,0.9-0.7c3.2-1.8,5.5-4.6,7.8-7.3c2.8-3.2,5.4-6.5,8.1-9.9c1.4-1.8,2.7-3.7,4-5.5
				c0.6-0.8,1.2-1.6,1.8-2.4C123.9,66.8,123.9,66.8,124,66.8L124,66.8z"/>
			<path class="st4" d="M65.9,137.7c1.2-1,2.2-1.9,3.4-2.6c0.4-0.3,1.2,0,1.8-0.1c1.9-0.3,3.6,0,5.4,0.5c0.4,0.1,0.6,0.3,0.6,0.8
				c0.2,1.8,0.4,3.7,0.7,5.5c0.5,3.2,1.2,6.3,1.7,9.5c0.5,2.8,0.8,5.6,1.3,8.4c0.1,0.9,0.5,1.7,0.7,2.6c0.1,0.4,0.3,1,0.1,1.2
				c-0.5,0.6-1.1,1.2-1.8,1.5c-2.1,0.7-4.3-0.4-5.1-2.4c-0.5-1.3-0.8-2.6-1.1-3.9c-1.2-4.9-2.4-9.8-3.6-14.7c-0.4-1.7-1.1-3.3-1.5-5
				c-0.2-0.9-0.7-1-1.4-1C66.8,137.8,66.4,137.8,65.9,137.7L65.9,137.7z"/>
			<path class="st1" d="M44,88.3c0.6-2-0.1-2.6-2.6-2.2c-0.5-1-0.6-2-0.3-3c0.4-1.2,0.1-1.7-1-2.3c-0.9-0.5-1.9-1-2-2.3
				c-0.1-1.7,0.5-2.4,2.3-2.2c0.6,0.1,1.3,0,1.9-0.3c0.8-0.3,1.1-0.9,1-1.8c-0.2-1.2,0.2-1.7,1.3-2.2c1-0.4,1.5-1.2,1.6-2.3
				c0-0.3,0.2-0.6,0.4-0.8c1.3-1,2.7-1.6,4.3-0.9c1.5,0.6,2.7,1.7,3.3,3.2c0.2,0.7,0.1,1.5-0.1,2.3c-0.2,1-0.7,1.9-0.9,2.8
				c-0.2,1.1-0.2,2.2,0.5,3.3c0.4,0.6,0.4,1.5,0.6,2.3c0.1,0.3-0.1,0.5,0,0.8c0.5,2.4-1.1,3.6-2.8,4.9C49.2,89.2,46.7,89,44,88.3
				L44,88.3z M48.4,75c0,1,0.5,1.6,1.4,1.7c0.4,0.1,0.8,0.1,1.2,0.2c1,0.2,1.5-0.4,1.2-1.5c-0.1-0.2-0.2-0.4-0.3-0.6
				c0,0.1,0,0.2-0.1,0.2c-0.6-0.1-1.1-0.1-1.7-0.2c-0.2,0-0.6-0.1-0.6-0.1C49.4,75.6,48.9,75.2,48.4,75L48.4,75z M47.8,73.2
				c1.5,1,3.1,0.8,4.7,0.5c0.4-0.1,0.5-0.5,0.1-0.9c-0.1-0.1-0.3-0.2-0.5-0.2C50.7,72.5,49.2,72.6,47.8,73.2L47.8,73.2z"/>
			<path class="st1" d="M101.1,115.6c-0.4,1.6-0.7,3.2-1.1,4.8c0,0.2-0.2,0.4-0.4,0.4c-2.1,0.4-4.2,0.7-6.3,1
				c-0.4,0.1-0.9-0.1-1.2-0.3c-4.3-2.3-8.5-4.5-12.8-6.8c-0.1-0.1-0.2-0.1-0.2-0.2c2.2-1.8,4.4-3.7,6.6-5.5c0.2-0.1,0.6-0.1,0.8,0
				c4,1.8,8.1,3.6,12.1,5.4C99.4,114.8,100.3,115.2,101.1,115.6L101.1,115.6z"/>
			<path class="st1" d="M60.2,129.2c1.3-0.3,2.6-0.6,3.9-0.8c1.4-0.2,2.1,0.1,2.6,1.4c0.4,1.1,0.7,2.3,0.6,3.4
				c-0.1,0.8-0.8,1.7-1.5,2.1c-2.5,1.7-4.5,3.8-6.6,6c-1.1,1.2-2.3,2.2-4.1,2.4c-2.3,0.3-2.7,0-3.2-1.9c-0.6-2.3-0.5-4.7,0.7-6.9
				c0.3-0.6,0.7-1.2,1.1-1.9c0.8-1.3,1.9-2.3,3.4-2.8C58.2,129.8,59.2,129.5,60.2,129.2L60.2,129.2L60.2,129.2z"/>
			<path class="st1" d="M105.4,42.8c-1.3-1.8-1.5-2.7-0.8-3.6c1.2-1.7,4.4-1.8,5.8-0.2c1.7,1.9,1.8,4.2,0.1,6.2
				c-1.1,1.2-1.1,2.1-0.4,3.4c1,1.8,1.9,3.6,2.8,5.4c0.3,0.5,0.2,0.8,0,1.3c-2.6,5.2-5.1,10.4-7.6,15.6c-2.1,4.4-4.2,8.8-6.3,13.1
				c-0.4,0.7-0.8,1.4-1.2,2.1c-0.3,0.5-0.5,1-1.3,0.6c-1-0.5-1.3-0.9-1-1.8c0.4-1.2,0.9-2.4,1.5-3.5c2.3-4.7,4.7-9.4,7.1-14.1
				c1.7-3.3,3.6-6.4,5.2-9.8c0.7-1.4,1.4-2.8,0.7-4.7c-0.9-2.3-1.3-4.8-1.9-7.2c-0.1-0.3,0.2-0.7,0.3-1c0.3-0.5,0.7-0.9,1-1.3
				c0.6-0.9,0.4-2-0.3-2.5c-0.7-0.5-2.3-0.2-2.8,0.6C105.9,41.7,105.7,42.2,105.4,42.8L105.4,42.8z"/>
			<path class="st1" d="M64.7,98.4c-0.9,1.7-1.7,3.4-2.7,4.9c-0.4,0.6-1.4,0.9-2.3,1.1c-1.5,0.4-3,0.6-4.5,0.8
				c-1.3,0.2-2.4-0.1-3.4-1.1c-0.5-0.5-1-1-1.6-1.6c0.5-0.1,0.8-0.2,1.1-0.2c1.2,0,2.4,0,3.7,0.1c1.3,0.1,2.2-0.7,3-1.5
				c0.8-0.8,0.5-1.9-0.6-2c-1-0.1-2.1,0.1-3.1,0.3c-1.3,0.3-2.6,0.9-4,1.2c-0.3,0.1-0.7-0.1-1-0.2c0.1-0.3,0.2-0.6,0.4-0.8
				c2-1.8,3.8-3.9,6.6-4.6c1.1-0.3,2-0.4,3,0.3C61,96.3,62.8,97.3,64.7,98.4L64.7,98.4z"/>
			<path class="st1" d="M118.5,70.8c-5,6-10,12.1-14.9,18c-0.8-1.4-1.7-3-2.6-4.5c-0.5-0.8-0.4-1.3,0.4-1.8c2.8-2,5.7-3.9,8.5-5.9
				c2.6-1.8,5.1-3.7,7.6-5.5c0.3-0.2,0.6-0.4,0.9-0.5C118.4,70.6,118.5,70.7,118.5,70.8L118.5,70.8z"/>
			<path class="st1" d="M69,109.1c1.1-2.2,2.2-4.3,3.4-6.5c3.3,1.5,6.5,3,9.8,4.5c-0.1,0.2-0.2,0.3-0.3,0.4
				c-2.2,1.5-4.4,3.1-6.6,4.6c-0.2,0.1-0.5,0.2-0.7,0.1C72.8,111.1,70.9,110.1,69,109.1L69,109.1z"/>
			<path class="st1" d="M76.9,129.1c0.4,0.9,0.7,1.9,1.1,2.8c0.4,1,0.1,1.6-1,1.5c-2-0.1-4-0.2-6-0.4c-0.3,0-0.8-0.3-1-0.6
				c-0.6-1.6-1.2-3.2-1.7-4.8c-0.2-0.4,0-0.7,0.5-0.8c1.4-0.4,2.7-0.9,4.1-1.2c0.9-0.2,1.8,0,2.7,0.1c0.2,0,0.5,0.3,0.5,0.5
				c0.3,0.9,0.6,1.9,0.9,2.8L76.9,129.1L76.9,129.1z"/>
			<path class="st1" d="M105.1,77.1c3.7-6.1,8.4-11.5,13.3-16.7c0.1,2.3,0.2,4.6,0.4,7.1C114.4,70.6,109.8,73.8,105.1,77.1
				L105.1,77.1z"/>
			<path class="st4" d="M43.5,137.2c0.2-0.4,0.3-0.8,0.6-1.1c3.6-3.8,7.3-7.6,11.9-10.3c0.6-0.4,1.6-0.2,2.4-0.1
				c0.6,0,1.2,0.1,1.8,0.3c0.2,0,0.4,0.2,0.5,0.3c-0.1,0.2-0.2,0.4-0.4,0.5c-1.2,0.5-2.4,0.9-3.6,1.3c-1.2,0.3-2.2,0.8-2.9,1.7
				c-1.6,1.8-3.2,3.7-4.2,6c-0.4,0.9-1,1.4-2.2,1.4c-1.2,0-2.4,0.2-3.6,0.4C43.7,137.4,43.6,137.3,43.5,137.2L43.5,137.2z"/>
			<path class="st1" d="M66.4,109.7c-1.3-0.9-2.5-1.7-3.9-2.7c1.4-2.5,2.8-5.1,4.1-7.6c1.2,0.7,2.2,1.4,3.3,2.1
				C68.8,104.1,67.6,106.8,66.4,109.7L66.4,109.7z"/>
			<path class="st2" d="M48.4,75c0.5,0.1,1,0.5,1.2-0.2c0,0,0.4,0,0.6,0.1c0.6,0.1,1.1,0.1,1.7,0.2c0-0.1,0-0.2,0.1-0.2
				c0.1,0.2,0.2,0.4,0.3,0.6c0.4,1-0.1,1.6-1.2,1.5c-0.4-0.1-0.8-0.1-1.2-0.2C48.9,76.6,48.4,76.1,48.4,75L48.4,75z"/>
			<path class="st2" d="M47.8,73.2c1.4-0.7,2.8-0.7,4.3-0.5c0.2,0,0.3,0.1,0.5,0.2c0.4,0.3,0.4,0.8-0.1,0.9
				C51,74,49.3,74.2,47.8,73.2L47.8,73.2z"/>
		</g>
	</g>
</g>
</svg>
