<?xml version="1.0" encoding="utf-8"?>
<!-- Generator: Adobe Illustrator 27.0.1, SVG Export Plug-In . SVG Version: 6.00 Build 0)  -->
<svg version="1.1" id="Layer_1" xmlns="http://www.w3.org/2000/svg" xmlns:xlink="http://www.w3.org/1999/xlink" x="0px" y="0px"
	 viewBox="0 0 225 225" style="enable-background:new 0 0 225 225;" xml:space="preserve">
<style type="text/css">
	.st0{fill:#828A43;}
	.st1{fill:#FFFFFF;}
	.st2{fill:#A5A49F;}
	.st3{fill:#524C4C;}
	.st4{fill:#B3BD80;}
	.st5{fill:#677432;}
	.st6{fill:#7F7474;}
	.st7{enable-background:new    ;}
</style>
<g>
	<polygon class="st2" points="203.6,165.1 112.5,217.7 21.4,165.1 21.4,59.9 112.5,7.3 203.6,59.9 	"/>
	<g>
		<path class="st1" d="M58.3,164.6c0.3,2.1,0.2,4.1-0.5,6.1c-0.3,1-1,1.7-2,2.2c-1.8,0.7-3.5,0.9-5.3,0.4c-1.4-0.4-2.4-1.7-2-3
			c0.5-1.9,1.2-3.8,1.9-5.6c0.1-0.3,0.6-0.5,0.9-0.5C53.5,164.2,55.9,164.4,58.3,164.6L58.3,164.6z"/>
		<g>
			<path class="st3" d="M81.1,82.2c0.4,0.2,1,0.4,1.5,0.8c0.5,0.4,1.1,1,1.1,1.5c0,0.6-0.6,1.2-1.2,1.5c-0.7,0.4-1.2,0.6-1.5,1.4
				c-0.4,1-1.2,1.1-2.8,0.6c-1.1,1-1.4,1.7-0.7,3.2c0.8,1.7,0.8,3.4,0.9,5.2c0.1,1.1-0.3,2-1,2.8c-1.5,1.8-3.5,2.7-5.7,3.3
				c-0.5,0.2-1.1,0.3-1.6,0.5c-1.2,0.4-1.4,0.8-1.1,2c0.5,1.9,1,3.7,1.6,5.6c0.4,1.3,0.8,1.4,1.9,0.5c0.8-0.7,1.5-1.5,2.3-2
				c1.6-1,3.2-2,4.9-2.8c0.9-0.5,1.8,0.2,2.5,0.7c2.3,1.6,4.5,3.3,6.9,4.7c1.7,1,3.6,1.6,5.3,2.6c2.7,1.6,5.7,2.7,8.6,3.8
				c2.9,1.1,5.8,2.4,8.7,3.7c0.6,0.2,0.9,0.2,1.4-0.2c2.7-2.5,4.8-5.4,6.3-8.7c1.8-3.8,3.6-7.6,5.4-11.4c0.3-0.6,0.6-1.2-0.2-1.8
				c-0.3-0.2-0.3-0.9-0.3-1.4c0.2-1.5,0.6-2.9,0.9-4.5c-1.5-0.6-3.1-1.4-4.7-1.9c-3.7-1.3-6-3.9-7.6-7.2c-0.8-1.5-0.7-3.3-0.2-5
				c-0.6-0.4-1.2-0.9-1.9-1.3c-0.9-0.5-1.3-1.3-1.2-2.3c0.2-2.2,0.5-4.5,0.6-6.7c0-0.5,0-1.2-0.3-1.6c-0.7-1.2-1.4-2.4-2.3-3.6
				c-1.6-2.1-2.2-4.5-2.2-7.1c0.1-3.1-0.1-6.2-0.2-9.3c0-0.8,0-1.6,0.1-2.4c-1.9,0.4-2.3,0.2-3.2-1.6c-0.2-0.5-0.4-1-0.6-1.5
				c-0.3-1-0.2-1.9,0.5-2.9c3.5-4.8,6.9-9.8,10.5-14.5c4.5-5.7,9.9-10.1,17.4-11.5c4.5-0.8,8.5,0.1,12.4,2.5
				c1.1,0.7,2.2,1.3,3.4,1.7c3.2,1.1,5.3,3.5,7.2,6.1c2.7,3.6,4.9,7.6,6.5,11.9c1.1,3,1.6,6.1,2,9.2c0.6,5.8-0.6,11.4-2,17.1
				c-1,3.8-1.5,7.8-2.3,11.6c0,0.1,0,0.3,0,0.5c1.3-0.8,2.6-1.6,3.8-2.4c1.3-0.8,1.8-0.5,2.2,0.9c1.2,4.4,2.3,8.9,3.5,13.3
				c0.1,0.3,0.3,0.6,0.5,0.8c3.2,2,6,4.5,8.7,7.1c1.1,1.1,2.4,1.9,3.3,3.1c2.5,3.3,5.5,6,8.2,9c1.8,2,2.6,4.4,2.6,7
				c0.2,11.3,0.4,22.6,0.6,33.9c0.1,4.9,0.2,9.9,0.4,14.8c0.1,3,0.7,5.9,0.7,8.9c0,4.4-0.3,8.7-0.5,13.1c-0.1,1.7-0.1,3.5-0.2,5.3
				c-1.3,0.4-2.7,0.7-4,1.1c-4.4,1.2-8.8,2.3-13.2,3.5c-1.5,0.4-3,0.2-4.5,0c-2.6-0.4-5.3-0.4-8-0.6c-2.3-0.1-4.7,0.1-7-0.2
				c-2.1-0.3-4.1-1-6.1-1.8c-1.5-0.6-3-0.8-4.5-0.3c-5.2,1.6-10.4,3.1-15.6,4.7c-0.4,0.1-0.8,0.3-1.2,0.4c-2.6,0.7-3.8-1-3.5-3.4
				c1-7.4,2.1-14.8,3.1-22.3c0.3-2.4,0.6-4.9,0.9-7.4c-5.6-1.3-11.2-2.6-16.8-3.9c0,1-0.5,1.2-1.3,1c-0.9-0.2-1.8-0.3-2.7-0.5
				c-0.9-0.2-1.3,0.1-1.2,1.1c0.1,0.8,0.2,1.7,0.3,2.5c1.3,6.9,2.5,13.7,3.9,20.5c0.7,3.6,1.8,7.1,2.9,10.5c0.3,0.9,1.4,1.6,2.2,2.4
				c2,1.9,4,3.6,5.9,5.6c0.9,0.9,1.5,2.2,2,3.5c0.6,1.5-0.7,3.1-2.3,3.2c-3,0.2-5.5-1-7.9-2.6c-3.6-2.3-7.2-4.4-11.2-5.9
				c-2.1-0.8-2.6-1.9-1.8-3.6c0.1-0.2,0.1-0.5,0-0.7c-2.6-5.5-4.1-11.3-5.5-17.1c-0.7-3.2-1.5-6.5-2.3-9.7c-0.2-0.8-0.6-1-1.4-1
				c-2,0-4,0-6-0.1c-0.7,0-1.3,0.1-1.8,0.7c-1.9,2.2-4.6,2.7-7.3,2.7c-2,0-3.2-1.2-4-2.8c-3.4,0.1-6.7,0.2-10,0.3
				c-0.3,1.1-0.5,2.4-0.9,3.6c-1.2,3.6-5.8,4.8-8.5,4.6c-2.3-0.2-4.2-1-5.2-3.2c-0.4-0.8-0.5-1.7-0.7-2.4
				c-6.4-0.2-12.8-0.3-19.3-0.5c0.1-2.8,0.1-5.5,0.2-8.3c3.2,0,6.4,0,9.6,0c-0.4-4.2-0.2-8.2,0.9-12.1c2.5-9.3,4.9-18.6,7.5-27.9
				c1-3.6,2.3-7.1,3.6-10.5c0.5-1.3,1.3-2.6,2.1-3.8c0.6-0.8-0.1-1.3-0.3-1.8c-0.1-0.2-0.9-0.3-1.3-0.1c-1.7,0.6-3.3,1.3-4.9,1.9
				c-1.7,0.6-2.6-0.1-2.5-1.9c0-0.3-0.1-0.7-0.2-1c-0.1,0-0.2,0-0.3,0c-0.1,0.2-0.2,0.4-0.3,0.5c-0.7,1.2-1.5,1.2-2.3,0.2
				c-0.6-0.8-0.9-1.6-0.8-2.7c0.1-0.6,0-1.1-0.2-1.5c-0.4-0.4-1.1-0.8-1.2-1.3c-0.2-0.9,0.5-1.5,1.5-1.8c-0.8-1.1-1.6-1.2-2.9-0.6
				c-0.6,0.3-1.1,0.6-1.7,0.8c-1.5,0.3-2.4-0.6-2-2c0.2-0.8-0.1-1-0.8-1.1c-2.3-0.5-3.3-2.6-2.2-4.5c0.2-0.4,0.7-0.6,1.1-0.9
				c0.3-0.3,0.5-0.6,0.8-0.9c-0.3-0.2-0.6-0.4-0.9-0.5c-0.9-0.4-1.2-1.1-1.1-2c0.1-1,1-1.8,1.9-1.8c0.5,0,1,0.2,1.5,0.1
				c0.5,0,0.9-0.2,1.4-0.3c-0.2-0.5-0.3-0.9-0.5-1.3c-0.2-0.4-0.6-0.6-0.8-0.9c-0.5-0.7-1-1.2-1.8-1.4c-1.6-0.5-1.8-1.8-0.6-3.2
				c-1-1.8-0.8-2.3,1.1-3.3c0.7-0.4,1.6-1,1.5-2.2c-0.1-1.1,0.5-1.5,1.7-1.4c0,0.1,0.1,0.1,0.1,0.2c0.2,0.7,0.2,1.6,1.2,1.4
				c1.1-0.2,0.9-1.1,0.9-1.9c0-0.4-0.2-0.8-0.4-1.1c-0.7-1-0.7-2.1-0.2-3.1c0.7-1.3,1.4-2.5,2.2-3.7c1.3-2,3.2-2.6,5.4-2.2
				c0.4,0.1,0.8,0.4,1,0.7c0.4,0.5,0.9,0.8,1.4,0.4c0.3-0.3,0.4-1,0.4-1.4c0-0.8-0.3-1.7-0.3-2.5c0-1.1,1.1-1.7,2.3-1.2
				c1,0.4,1.9,0.2,2.9,0c1.2-0.2,2.4-0.3,3.6-0.2c1.5,0.1,2.1,1,2.1,2.5c0,0.4,0.2,0.7,0.6,1c0.2-0.9,0.4-1.8,0.6-2.7
				c0.5-1.6,3.2-2.6,4.6-1.6c0.3,0.2,0.3,0.8,0.5,1.4c1.1-0.8,2.4-1.8,3.7-0.8c1,0.8,1.7,2.1,2.5,3.2c0.1-0.1,0.2-0.3,0.4-0.4
				c0.7-0.2,1.5-0.6,2-0.4c0.7,0.2,1.7,0.6,1.7,1.7c0.1,0.8,0.2,1.7,0.4,2.7c1.3-0.9,2.5-1.7,4.2-0.9c1.2,0.6,1.8,2.1,1.6,3.9
				c2.1,0.4,2.7,0.9,2.8,2c0.1,1.2-0.4,1.8-2.3,2.4c0,0.9,0,1.6,1.3,1.7c1.1,0.1,1.9,0.9,2.4,1.9c0.6,1.1,0.2,2.2-1,3
				c-0.5,0.3-0.9,0.6-1.7,1c1.1,0.5,2.1,1,1.8,2.1C82.1,80.5,81.6,81.3,81.1,82.2L81.1,82.2z M142.9,146.4c-0.3,1-0.5,2-0.8,2.9
				c-0.2,0.9-0.4,1.7-0.7,2.5c-0.2,0.4-0.7,0.9-1.1,0.8c-0.3,0-0.8-0.6-0.9-1c-0.2-1.6-0.4-3.2-0.5-4.8c0-0.8-0.3-1.2-1.2-1.2
				c-2.3,0.1-4.7,0.1-7,0.3c-8.3,0.5-16.7,0.3-25,1.6c0,0.2,0,0.5,0.1,0.6c0.8,1.9,1.7,3.8,2.4,5.8c0.5,1.4,1.4,2,3,2.3
				c5,0.7,9.9,1.9,14.9,2.6c9.2,1.4,18.4,2.9,27.5,5.2c1,0.3,1.7,0,2.2-1c0.7-1.4,1.5-2.7,2.2-4.1c2.5-5,5-10.1,7.6-15.1
				c1.2-2.3,2.6-4.5,3.8-6.7c1.6,0.6,1.6,0.8,0.8,2.2c-1.1,1.9-2.3,3.8-3.4,5.8c-3.7,6.6-7.5,13.1-10.3,20.2
				c-8.6-0.8-17.3-1.5-26.1-2.3c-1.1,9.5-2.3,19.2-3.4,28.8c0,0,0.2,0,0.4-0.1c6.2-1.9,12.4-3.8,18.6-5.7c1.7-0.5,3.2-0.2,4.5,1
				c0.6,0.6,1.3,1.2,2.1,1.4c2,0.4,4.1,0.7,6.2,0.6c3.5-0.1,7-0.4,10.5,0.1c1.8,0.2,3.8,0.1,5.6-0.4c4.6-1.4,9-3.1,13.7-4.7
				c-0.2-1-0.6-2.1-0.6-3.2c-0.3-5.5-0.6-11.1-0.8-16.6c-0.3-11-0.6-22.1-0.8-33.1c-0.1-5.9-0.4-11.7-0.4-17.6
				c0-2.1-0.5-3.8-1.8-5.2c-2.8-3.1-5.7-6.2-8.6-9.3c-1.8-1.9-3.7-3.8-5.7-5.6c-0.8-0.7-1.7-1.3-2.7-2.1c-1,1.2-2,2.2-2.8,3.3
				c-2.5,3.4-4.9,6.9-7.3,10.3c-0.2,0.3-0.4,0.5-0.5,0.8c-0.5,1.3-1,1.5-2.3,1.2c-0.6-0.1-1.1-0.4-1.7-0.5c-1.7-0.4-3.5-0.9-5.2-1.3
				c-0.9,3.4-1.9,6.7-2.7,10c-0.5,2.2-0.9,4.4-1.4,6.5c-0.3,1.4-1.5,1.8-2.6,0.9c-0.2-0.2-0.3-0.3-0.6-0.6
				c-1.9,6.6-3.9,13.1-4.9,19.9c1.9-0.1,3.8-0.3,5.6-0.2c1.1,0,1.6-0.4,1.9-1.3c1.6-4.1,3.2-8.2,4.9-12.3c2.4-5.7,5.3-11.1,9.3-15.8
				c1.2-1.4,2.5-3,4.5-3.2c2.5-0.3,5,0,7.2,1.2c0.4,0.2,0.8,0.7,1.1,1c-2,0.4-3.8,0.8-5.6,1.1c-1.4,0.2-2.6,0.6-3.6,1.7
				c-3.3,3.6-6.3,7.4-8.6,11.7c-2.6,4.7-4.8,9.5-7.2,14.3c-0.1,0.1,0,0.3,0,0.4c0.3-0.1,0.5-0.1,0.7-0.1c2-1,4.2-0.7,6.4-0.7
				c0.7,0,1.2,0.4,1.3,1.1c0.1,0.8-0.4,1.2-1,1.4c-0.4,0.1-0.9,0.2-1.4,0.2c-1.8,0.3-3.5,0.5-5.6,0.9c1.2,1.3,2.1,2.3,2.9,3.3
				c0.6,0.7,1.3,1.4,1.6,2.2c0.2,0.5,0,1.4-0.3,1.8c-0.3,0.3-1.1,0.3-1.6,0.2c-0.4-0.1-0.8-0.5-1.1-0.8
				C145.4,148.7,144.2,147.6,142.9,146.4L142.9,146.4z M108.4,61.6c0.4,0.6,0.8,1.1,1.1,1.7c1,1.7,2,3.3,2.9,5.1
				c0.2,0.4,0.2,1,0.1,1.5c-0.2,1.6-0.5,3.3-0.7,4.9c0,0.5,0.2,1.2,0.5,1.6c0.8,1,2,1.2,3.3,0.9c1.5-0.3,3.1-0.8,4.7-0.9
				c3.2-0.3,6.2-1,8.5-3.5c0.3-0.3,0.6-0.5,0.9-0.8c3.8-3,6.3-7,8.2-11.3c0.7-1.7,1-3.6,1.4-5.4c0.1-0.3,0-0.7-0.1-0.9
				c-0.6-0.9-1.3-1.9-2-2.7c-4.7-5.4-9.3-10.8-14-16.2c-0.6-0.8-1.3-1-2.2-0.7c-3.3,0.9-6.4,2.1-9,4.5c-1.2,1.1-2.5,2.2-3.6,3.4
				c-0.4,0.4-0.8,1.1-0.8,1.7c0,4.2,0.1,8.3,0.2,12.6c0.3-0.1,0.7-0.2,1-0.3c1.5-0.6,2.9-1.2,4.4-1.8c1.4-0.6,1.7-0.5,2.3,1
				C113.1,57.9,110.3,59.1,108.4,61.6L108.4,61.6z M60.5,105.9c-0.8,0.8-1.5,1.4-2.2,2c-1,0.9-2.2,1.2-3.5,0.9
				c-0.9-0.2-1.9-0.3-2.5,0.7c-0.5,0.8-0.9,1.6-1.3,2.5c-0.9,2.5-1.8,5.1-2.7,7.7c-0.8,2.7-1.6,5.4-2.3,8.2c-0.5,2-0.9,4.1-1.5,6.2
				c-0.6,2.3-1.4,4.4-2,6.7c-0.8,3-1.4,6.1-2.1,9.1c-0.3,1.4-0.7,2.8-0.9,4.2c-0.3,1.8-0.4,3.6-0.6,5.3c-0.1,1,0.7,2.4,1.5,2.5
				c1.7,0.1,3.4,0.2,5.1,0.2c0.6,0,1.1-0.3,1-1c0-0.8,0-1.5,0-2.3c0-1.9,0-3.8,0.1-5.7c0.1-1.8,0.3-3.5,0.5-5.2
				c0.2-1.4,0.4-2.7,0.6-4.1c0.2-1.7,0.3-3.5,0.5-5.2c0.2-1.6,0.6-3.3,0.9-4.9c0.4-2.4,0.8-4.8,1.3-7.1c0.7-2.9,1.5-5.8,2.5-8.6
				c0.5-1.4,1-2.8,1.9-4c0.5-0.7,1.8-1.5,2.6-1.4c2.9,0.3,4.9,2.1,6.4,4.5c0.5,0.8,0.9,1.6,1.2,2.4c0.4,1,1,2,1.1,3
				c0.3,2.7,0.4,5.4,0.4,8.1c0,1.8-0.1,3.6-0.4,5.4c-0.4,2.3-0.9,4.6-1.5,6.9c-0.9,3.9-2.2,7.7-3.8,11.3c-0.4,0.9-0.5,1.7-0.2,2.6
				c0.2,0.7,0.9,0.9,1.3,0.5c0.7-0.6,1.3-1.2,1.9-1.9c2.5-2.4,5-4.8,7.6-7.1c1.3-1.2,2.7-2.2,4.1-3.2c0.9-0.7,1.1-1.4,0.6-2.5
				c-0.3-0.7-0.6-1.5-0.7-2.2c-0.8-3.9-1.7-7.8-2.4-11.6c-0.6-3-1.4-5.8-2.6-8.6c-0.4-1-0.8-0.9-1.4-0.4c-0.7,0.7-1.6,0.3-2.1-0.1
				c-1.6-1.2-1.9-3.2-1.2-5.1c0.3-0.7,1.1-1,1.7-0.6c0.3,0.2,0.5,0.4,0.7,0.5c0.1,0,0.2-0.1,0.4-0.1c-0.3-2.6-0.2-5.3-1.1-8.1
				C65.3,108,62.8,108,60.5,105.9L60.5,105.9z M57.9,161.1c0.4-2.5,0.8-4.7,1.2-6.8c0.5-2.3,1-4.5,1.6-6.8c0.9-3.7,1.8-7.3,2.5-11
				c0.4-2,0.6-4.1,0.8-6.2c0.1-0.8,0-1.6,0-2.5c0-1.3,0.2-2.6-0.1-3.8c-0.4-1.9-0.9-3.7-1.6-5.6c-0.6-1.8-1.7-3.3-3.9-3.4
				c-1.4-0.1-3,0.6-3.2,1.6c-0.4,1.6-0.6,3.2-0.8,4.8c-0.3,2-0.4,4.2-1.1,6.1c-0.9,2.6-1.2,5.3-1.6,8c-0.4,2.7-0.6,5.4-1,8.1
				c-0.3,2.3-0.8,4.6-1.1,6.9c-0.3,2.6-0.6,5.2-0.8,7.8c-0.1,1,0.1,2,0.4,2.9c0.2,0.4,1.2,0.4,1.9,0.6c0.4,0.1,0.9,0,1.4,0
				c0.6-0.1,1.2-0.2,1.8-0.3C55.4,161.3,56.7,161.2,57.9,161.1L57.9,161.1z M160.9,75.2c-0.1,0-0.2,0-0.3-0.1c-0.7,1-1.5,2-2.2,3
				c-1.6,2.2-3.1,4.5-4.8,6.7c-3.2,4-6.5,8.1-9.8,12c-2.8,3.3-5.6,6.6-9.5,8.8c-0.4,0.2-0.7,0.5-1.1,0.8c2.8,3.9,5.5,7.8,8.2,11.6
				c0.5-2.4,1-4.8,1.6-7.2c0.8-3,1.7-5.9,2.6-8.8c0.2-0.6,0.5-1,1.3-0.7c0.7,0.3,1.6,0.3,2.4,0.5c2.5,0.9,4.1-0.2,5.5-2.2
				c3-4.2,6.1-8.4,9.1-12.5c0.2-0.2,0.2-0.7,0.1-1c-0.6-1.7-1.3-3.4-1.8-5.2C161.6,79,161.3,77.1,160.9,75.2L160.9,75.2z
				 M74.4,124.8c-0.1,0-0.1,0-0.2,0.1c0,0.4,0.1,0.7,0.1,1.1c0.7,5.1,2.4,10,3.7,14.9c0.5,1.8,1.4,3,3.2,3.5c2,0.6,3.9,1.1,5.8,1.9
				c1.5,0.6,2.8,0.9,4.2-0.2c0.3-0.2,0.7-0.3,1.1-0.4c3.2-1.3,6.6-2.2,10-2.6c0.9-0.1,1.6,0.1,2.1,0.9c0.1,0.2,0.6,0.4,0.9,0.4
				c1.1-0.1,2.2-0.2,3.2-0.4c1.9-0.4,3.9-0.8,5.8-1.2c0.9-0.2,1.7-0.2,2.6-0.3c0-0.1,0.1-0.2,0.1-0.3c-4.5-2.5-8.9-5-13.4-7.5
				c-0.3-0.2-0.7-0.1-1.1,0c-3.3,0.6-6.5,1.8-9.9,1.6c-3.6-0.1-7.2-0.4-10.1-2.6c-3-2.3-5.8-4.8-7.7-8.2
				C74.7,125.2,74.5,125,74.4,124.8L74.4,124.8z M90.3,161.3c0.6,0,1,0.1,1.4,0.1c0.9,0,1.5,0.2,1.7,1.3c0.5,2,1.3,4,1.9,6.1
				c1.5,6,2.9,12,4.4,17.9c0.4,1.6,0.8,3.2,1.4,4.8c0.9,2.5,3.6,3.9,6.1,3c0.8-0.3,1.6-1.1,2.2-1.8c0.2-0.3,0-1-0.2-1.5
				c-0.2-1.1-0.6-2.1-0.8-3.2c-0.5-3.4-1-6.8-1.5-10.2c-0.6-3.8-1.4-7.7-2.1-11.5c-0.4-2.2-0.7-4.5-0.9-6.7
				c-0.1-0.6-0.2-0.8-0.8-0.9c-2.2-0.6-4.3-1-6.6-0.6c-0.7,0.1-1.6-0.2-2.2,0.1C93,159,91.8,160.1,90.3,161.3L90.3,161.3z
				 M63.6,101.2c3.3,0.9,6.4,1.1,9.3-1c2-1.5,4-2.9,3.4-5.9c-0.1-0.3,0.1-0.6,0-1c-0.2-1-0.2-2-0.7-2.8c-0.8-1.3-0.9-2.6-0.6-4
				c0.3-1.2,0.8-2.3,1-3.4c0.2-0.9,0.4-1.9,0.1-2.7c-0.7-1.9-2.2-3.1-4-3.9c-1.9-0.8-3.7,0-5.2,1.1c-0.3,0.2-0.5,0.6-0.5,1
				c-0.1,1.3-0.7,2.3-2,2.8c-1.3,0.6-1.8,1.2-1.6,2.6c0.1,1.1-0.3,1.9-1.2,2.2c-0.7,0.3-1.6,0.4-2.3,0.3c-2.1-0.2-2.9,0.6-2.8,2.7
				c0.1,1.6,1.3,2.2,2.4,2.8c1.4,0.8,1.7,1.3,1.2,2.8c-0.4,1.3-0.2,2.5,0.3,3.7C63.5,98.1,64.3,98.8,63.6,101.2L63.6,101.2z
				 M133.7,131.2c0.1-0.2,0.1-0.4,0.2-0.6c1-3.8,2-7.6,3.1-11.3c0.4-1.2,0.3-2.2-0.5-3.1c-0.2-0.3-0.4-0.6-0.6-0.9
				c-1.6-2.5-3.3-4.9-4.8-7.5c-0.9-1.5-0.4-2.5,1.3-3c0.8-0.2,1.5-0.6,2.3-0.9c-0.8-2.1-2.7-4.6-3.9-5.2c-0.7,1-1,2.5-2.6,2.8
				c-0.1,0-0.2,0.4-0.3,0.5c-1.8,4.1-2.9,8.5-5.3,12.3c-1.4,2.3-2.8,4.8-4.2,7.1c-0.5,0.8-1.1,1.6-1.7,2.3
				C122.4,126.2,128,128.7,133.7,131.2L133.7,131.2z M133,134.5c-1-0.5-2-1-3-1.5c-4.9-2.2-9.8-4.4-14.7-6.6c-0.3-0.1-0.7-0.1-0.9,0
				c-2.7,2.2-5.4,4.4-8.1,6.7c0.1,0,0.2,0.1,0.3,0.2c5.2,2.8,10.4,5.5,15.5,8.3c0.4,0.2,1,0.4,1.5,0.4c2.6-0.4,5.1-0.8,7.6-1.2
				c0.2,0,0.4-0.3,0.4-0.5C132.1,138.3,132.5,136.4,133,134.5L133,134.5z M83.4,150.9l0-0.1c-1.2,0.4-2.4,0.9-3.7,1.2
				c-1.9,0.5-3.2,1.7-4.2,3.4c-0.5,0.8-1,1.5-1.4,2.3c-1.4,2.7-1.6,5.5-0.8,8.4c0.6,2.4,1.1,2.7,3.9,2.4c2.1-0.3,3.6-1.5,5-3
				c2.5-2.6,4.9-5.2,8-7.2c0.8-0.6,1.7-1.6,1.8-2.6c0.1-1.3-0.2-2.8-0.7-4.1c-0.6-1.6-1.4-1.9-3.1-1.6
				C86.5,150.2,85,150.6,83.4,150.9L83.4,150.9z M138.2,45.9c0.4-0.7,0.6-1.3,0.9-1.8c0.6-0.9,2.6-1.3,3.4-0.8
				c0.9,0.6,1.1,1.9,0.4,3.1c-0.3,0.6-0.8,1.1-1.2,1.6c-0.2,0.4-0.5,0.9-0.4,1.2c0.7,3,1.2,6,2.3,8.8c0.9,2.2,0,4-0.8,5.7
				c-1.9,4-4.3,7.9-6.3,11.9c-2.9,5.7-5.8,11.4-8.6,17.2c-0.7,1.4-1.3,2.8-1.8,4.3c-0.4,1,0,1.6,1.2,2.2c0.9,0.5,1.2-0.2,1.5-0.8
				c0.5-0.8,1-1.7,1.5-2.6c2.6-5.3,5.1-10.7,7.7-16c3.1-6.3,6.2-12.6,9.3-19c0.3-0.5,0.4-0.9,0-1.6c-1.2-2.2-2.2-4.4-3.5-6.5
				c-0.9-1.6-0.8-2.7,0.5-4.1c2.1-2.3,2-5.2-0.1-7.5c-1.7-1.9-5.6-1.8-7.1,0.3C136.4,42.7,136.6,43.7,138.2,45.9L138.2,45.9z
				 M88.8,113.5c-2.2-1.3-4.5-2.6-6.6-3.9c-1.2-0.8-2.4-0.6-3.6-0.3c-3.4,0.9-5.5,3.4-8,5.6c-0.2,0.2-0.3,0.6-0.5,0.9
				c0.4,0.1,0.9,0.4,1.2,0.2c1.6-0.5,3.2-1.1,4.8-1.5c1.2-0.3,2.6-0.5,3.8-0.4c1.4,0.2,1.8,1.4,0.8,2.4c-1,1-2.1,1.9-3.7,1.8
				c-1.5-0.1-3-0.1-4.4-0.1c-0.4,0-0.8,0.1-1.3,0.3c0.7,0.7,1.3,1.3,1.9,1.9c1.1,1.1,2.5,1.5,4.1,1.3c1.8-0.2,3.6-0.5,5.4-1
				c1-0.2,2.2-0.6,2.7-1.4C86.7,117.7,87.6,115.6,88.8,113.5L88.8,113.5z M154.2,80c-0.1-0.1-0.1-0.2-0.2-0.3
				c-0.3,0.2-0.7,0.4-1,0.6c-3.1,2.2-6.1,4.5-9.3,6.7c-3.4,2.4-6.9,4.8-10.4,7.2c-0.9,0.6-1,1.2-0.4,2.2c1.2,1.8,2.2,3.7,3.2,5.5
				C142.1,94.7,148.1,87.3,154.2,80L154.2,80z M94.1,126.5c2.3,1.2,4.6,2.5,6.8,3.6c0.2,0.1,0.6,0.1,0.8-0.1c2.7-1.8,5.3-3.7,8-5.6
				c0.1-0.1,0.2-0.2,0.4-0.5c-4-1.8-7.9-3.6-11.9-5.4C96.8,121.2,95.4,123.8,94.1,126.5L94.1,126.5z M103.6,150.8l0.2-0.1
				c-0.4-1.1-0.7-2.3-1.1-3.4c-0.1-0.3-0.4-0.6-0.6-0.6c-1.1-0.1-2.3-0.3-3.3-0.1c-1.7,0.3-3.3,1-5,1.5c-0.6,0.2-0.8,0.4-0.6,1
				c0.7,2,1.3,3.9,2.1,5.9c0.1,0.4,0.7,0.7,1.2,0.8c2.4,0.2,4.9,0.4,7.3,0.5c1.3,0.1,1.7-0.6,1.2-1.8
				C104.5,153.1,104.1,151.9,103.6,150.8L103.6,150.8z M137.9,87.7c5.6-4,11.2-8,16.6-11.8c-0.2-3-0.3-5.7-0.4-8.6
				C148.2,73.7,142.5,80.2,137.9,87.7z M93.1,128.4c-1,1.7-1.5,1.8-3.3,0.9c-1.3-0.7-2.6-1.2-3.9-1.9c-0.8-0.4-1.5-0.9-2.2-1.4
				c-0.2-0.2-0.4-0.7-0.3-1.1c0.1-0.8,0.4-1.5,0.6-2.2c-2.3,0.5-4.6,1-6.9,1.4c0,0.1-0.1,0.3-0.1,0.4c1.3,1.2,2.6,2.4,3.8,3.6
				c3.4,3.5,7.7,5,12.4,5.5c2.1,0.2,3.7-0.9,5.4-1.7C96.7,130.8,94.9,129.6,93.1,128.4L93.1,128.4z M58.1,164.6
				c-2.4,0-4.7,0-6.9,0.1c-0.3,0-0.7,0.3-0.8,0.6c-0.5,1.8-1,3.7-1.4,5.5c-0.3,1.3,0.8,2.5,2.2,2.8c1.8,0.3,3.5,0,5.1-0.8
				c1-0.5,1.5-1.2,1.8-2.2C58.5,168.5,58.5,166.5,58.1,164.6L58.1,164.6z M63.1,160.6c0.1,0.1,0.2,0.3,0.3,0.4
				c1.5-0.2,2.9-0.5,4.4-0.5c1.4,0,2.2-0.7,2.6-1.8c1.1-2.8,3.1-5,5.1-7.3c1-1.1,2.2-1.7,3.6-2.1c1.5-0.4,2.9-1,4.4-1.5
				c0.2-0.1,0.3-0.4,0.5-0.6c-0.2-0.1-0.4-0.3-0.7-0.4c-0.7-0.1-1.5-0.3-2.2-0.3c-1,0-2.1-0.3-2.9,0.2c-5.6,3.3-10,8-14.4,12.6
				C63.4,159.7,63.3,160.2,63.1,160.6L63.1,160.6z M90.9,127.2c1.5-3.5,2.9-6.8,4.3-10c-1.4-0.8-2.6-1.6-4.1-2.5
				c-1.7,3.1-3.4,6.2-5,9.2C87.8,125.1,89.3,126.2,90.9,127.2L90.9,127.2z M73.8,116.8c1.5,1,4.6,0,5.2-1.7
				C77.2,115.7,75.6,116.2,73.8,116.8z"/>
			<path class="st1" d="M142.9,146.4c1.3,1.2,2.4,2.3,3.6,3.4c0.3,0.3,0.7,0.7,1.1,0.8c0.5,0.1,1.4,0.1,1.6-0.2
				c0.3-0.4,0.5-1.3,0.3-1.8c-0.3-0.8-1-1.5-1.6-2.2c-0.9-1-1.8-2-2.9-3.3c2.1-0.3,3.8-0.6,5.6-0.9c0.5-0.1,0.9-0.1,1.4-0.2
				c0.7-0.2,1.1-0.7,1-1.4c-0.1-0.8-0.6-1.1-1.3-1.1c-2.1,0-4.3-0.3-6.4,0.7c-0.2,0.1-0.4,0.1-0.7,0.1c0-0.2,0-0.3,0-0.4
				c2.4-4.8,4.6-9.7,7.2-14.3c2.4-4.2,5.3-8.1,8.6-11.7c1-1.1,2.2-1.5,3.6-1.7c1.8-0.3,3.7-0.7,5.6-1.1c-0.3-0.3-0.7-0.7-1.1-1
				c-2.3-1.1-4.7-1.5-7.2-1.2c-2,0.2-3.3,1.8-4.5,3.2c-4,4.7-6.9,10.1-9.3,15.8c-1.7,4.1-3.3,8.2-4.9,12.3c-0.4,0.9-0.8,1.4-1.9,1.3
				c-1.8-0.1-3.7,0.1-5.6,0.2c1-6.8,3-13.3,4.9-19.9c0.3,0.3,0.4,0.5,0.6,0.6c1.1,1,2.3,0.6,2.6-0.9c0.5-2.2,0.9-4.4,1.4-6.5
				c0.8-3.3,1.8-6.5,2.7-10c1.8,0.4,3.5,0.8,5.2,1.3c0.6,0.1,1.1,0.4,1.7,0.5c1.4,0.3,1.8,0.1,2.3-1.2c0.1-0.3,0.3-0.5,0.5-0.8
				c2.4-3.4,4.9-6.9,7.3-10.3c0.8-1.1,1.8-2.1,2.8-3.3c1,0.8,1.9,1.3,2.7,2.1c1.9,1.8,3.8,3.7,5.7,5.6c2.9,3.1,5.7,6.2,8.6,9.3
				c1.3,1.5,1.8,3.2,1.8,5.2c0,5.9,0.2,11.7,0.4,17.6c0.3,11,0.5,22.1,0.8,33.1c0.2,5.5,0.5,11.1,0.8,16.6c0.1,1.1,0.4,2.2,0.6,3.2
				c-4.6,1.6-9.1,3.3-13.7,4.7c-1.7,0.5-3.7,0.7-5.6,0.4c-3.5-0.5-7-0.2-10.5-0.1c-2.1,0.1-4.2-0.2-6.2-0.6
				c-0.8-0.1-1.5-0.8-2.1-1.4c-1.3-1.2-2.8-1.5-4.5-1c-6.2,1.9-12.4,3.8-18.6,5.7c-0.2,0.1-0.4,0.1-0.4,0.1
				c1.1-9.6,2.3-19.2,3.4-28.8c8.8,0.8,17.5,1.5,26.1,2.3c2.8-7.1,6.6-13.6,10.3-20.2c1.1-1.9,2.2-3.9,3.4-5.8
				c0.8-1.4,0.7-1.6-0.8-2.2c-1.3,2.2-2.7,4.4-3.8,6.7c-2.6,5-5.1,10.1-7.6,15.1c-0.7,1.4-1.5,2.7-2.2,4.1c-0.5,0.9-1.2,1.2-2.2,1
				c-9.1-2.3-18.3-3.8-27.5-5.2c-5-0.7-9.9-1.9-14.9-2.6c-1.6-0.2-2.4-0.9-3-2.3c-0.8-1.9-1.6-3.8-2.4-5.8c-0.1-0.2-0.1-0.4-0.1-0.6
				c8.3-1.3,16.7-1.1,25-1.6c2.3-0.1,4.7-0.2,7-0.3c0.9,0,1.1,0.3,1.2,1.2c0.1,1.6,0.2,3.2,0.5,4.8c0.1,0.4,0.6,1,0.9,1
				c0.4,0,0.9-0.5,1.1-0.8c0.4-0.8,0.5-1.7,0.7-2.5C142.4,148.4,142.7,147.4,142.9,146.4L142.9,146.4z"/>
			<path class="st1" d="M108.4,61.6c1.9-2.5,4.7-3.7,6.9-5.7c-0.6-1.5-0.8-1.6-2.3-1c-1.5,0.6-2.9,1.2-4.4,1.8
				c-0.3,0.1-0.7,0.2-1,0.3c-0.1-4.2-0.2-8.4-0.2-12.6c0-0.6,0.4-1.3,0.8-1.7c1.1-1.2,2.4-2.3,3.6-3.4c2.6-2.4,5.7-3.6,9-4.5
				c0.9-0.3,1.6,0,2.2,0.7c4.6,5.4,9.3,10.8,14,16.2c0.7,0.9,1.4,1.8,2,2.7c0.2,0.2,0.2,0.6,0.1,0.9c-0.4,1.8-0.7,3.7-1.4,5.4
				c-1.9,4.3-4.3,8.4-8.2,11.3c-0.3,0.2-0.6,0.5-0.9,0.8c-2.3,2.5-5.3,3.2-8.5,3.5c-1.6,0.2-3.1,0.6-4.7,0.9
				c-1.3,0.3-2.4,0.1-3.3-0.9c-0.3-0.4-0.6-1.1-0.5-1.6c0.2-1.6,0.5-3.3,0.7-4.9c0.1-0.5,0.1-1.1-0.1-1.5c-0.9-1.7-1.9-3.4-2.9-5.1
				C109.2,62.7,108.8,62.1,108.4,61.6L108.4,61.6z"/>
			<path class="st0" d="M60.5,105.9c2.3,2.2,4.8,2.1,7.4,0.5c0.9,2.7,0.8,5.4,1.1,8.1c-0.1,0-0.2,0.1-0.4,0.1
				c-0.2-0.2-0.5-0.4-0.7-0.5c-0.6-0.4-1.4-0.1-1.7,0.6c-0.8,1.9-0.4,3.9,1.2,5.1c0.5,0.4,1.3,0.8,2.1,0.1c0.6-0.6,1-0.6,1.4,0.4
				c1.2,2.8,2,5.7,2.6,8.6c0.8,3.9,1.6,7.8,2.4,11.6c0.2,0.8,0.4,1.5,0.7,2.2c0.5,1.1,0.3,1.7-0.6,2.5c-1.4,1.1-2.8,2.1-4.1,3.2
				c-2.6,2.3-5.1,4.8-7.6,7.1c-0.7,0.6-1.3,1.3-1.9,1.9c-0.4,0.4-1.1,0.2-1.3-0.5c-0.3-0.9-0.2-1.8,0.2-2.6
				c1.6-3.7,2.9-7.4,3.8-11.3c0.5-2.3,1.1-4.6,1.5-6.9c0.3-1.8,0.4-3.6,0.4-5.4c0-2.7-0.2-5.4-0.4-8.1c-0.1-1-0.7-2-1.1-3
				c-0.4-0.8-0.8-1.6-1.2-2.4c-1.5-2.4-3.6-4.2-6.4-4.5c-0.8-0.1-2.1,0.7-2.6,1.4c-0.9,1.2-1.5,2.6-1.9,4c-0.9,2.8-1.8,5.7-2.5,8.6
				c-0.6,2.3-0.9,4.7-1.3,7.1c-0.3,1.6-0.6,3.3-0.9,4.9c-0.2,1.7-0.3,3.5-0.5,5.2c-0.2,1.4-0.4,2.7-0.6,4.1
				c-0.2,1.7-0.4,3.5-0.5,5.2c-0.1,1.9-0.1,3.8-0.1,5.7c0,0.8,0,1.5,0,2.3c0,0.8-0.4,1-1,1c-1.7-0.1-3.4-0.1-5.1-0.2
				c-0.8,0-1.6-1.4-1.5-2.5c0.2-1.8,0.3-3.6,0.6-5.3c0.2-1.4,0.6-2.8,0.9-4.2c0.7-3,1.3-6.1,2.1-9.1c0.6-2.3,1.4-4.5,2-6.7
				c0.5-2,0.9-4.1,1.5-6.2c0.7-2.7,1.5-5.5,2.3-8.2c0.8-2.6,1.7-5.1,2.7-7.7c0.3-0.9,0.8-1.7,1.3-2.5c0.6-1.1,1.6-1,2.5-0.7
				c1.3,0.3,2.5,0,3.5-0.9C59,107.3,59.7,106.6,60.5,105.9L60.5,105.9z"/>
			<path class="st0" d="M57.8,161.1c-1.2,0.1-2.4,0.2-3.7,0.3c-0.6,0.1-1.2,0.2-1.8,0.3c-0.4,0-0.9,0.1-1.4,0
				c-0.7-0.1-1.7-0.2-1.9-0.6c-0.4-0.8-0.5-1.9-0.4-2.9c0.2-2.6,0.4-5.2,0.8-7.8c0.3-2.3,0.8-4.6,1.1-6.9c0.4-2.7,0.6-5.4,1-8.1
				c0.4-2.7,0.7-5.4,1.6-8c0.7-1.9,0.8-4.1,1.1-6.1c0.3-1.6,0.4-3.2,0.8-4.8c0.3-1,1.9-1.7,3.2-1.6c2.3,0.1,3.3,1.6,3.9,3.4
				c0.6,1.8,1.2,3.7,1.6,5.6c0.2,1.2,0,2.5,0.1,3.8c0,0.8,0.1,1.7,0,2.5c-0.2,2.1-0.3,4.2-0.8,6.2c-0.7,3.7-1.7,7.3-2.5,11
				c-0.5,2.3-1.1,4.5-1.6,6.8C58.6,156.5,58.3,158.6,57.8,161.1L57.8,161.1z"/>
			<path class="st1" d="M160.9,75.2c0.4,1.9,0.7,3.9,1.2,5.8c0.5,1.8,1.2,3.5,1.8,5.2c0.1,0.3,0.1,0.8-0.1,1
				c-3,4.2-6.1,8.3-9.1,12.5c-1.4,2-3,3.1-5.5,2.2c-0.8-0.3-1.6-0.2-2.4-0.5c-0.8-0.3-1.1,0-1.3,0.7c-0.9,2.9-1.8,5.9-2.6,8.8
				c-0.6,2.4-1.1,4.8-1.6,7.2c-2.7-3.9-5.4-7.7-8.2-11.6c0.4-0.3,0.7-0.6,1.1-0.8c3.8-2.2,6.7-5.5,9.5-8.8c3.4-3.9,6.6-7.9,9.8-12
				c1.7-2.2,3.2-4.5,4.8-6.7c0.7-1,1.4-2,2.2-3C160.7,75.1,160.8,75.1,160.9,75.2L160.9,75.2z"/>
			<path class="st4" d="M90.3,161.3c1.5-1.2,2.7-2.3,4.1-3.2c0.5-0.3,1.4,0,2.2-0.1c2.3-0.3,4.4,0,6.6,0.6c0.5,0.2,0.7,0.3,0.8,0.9
				c0.2,2.2,0.5,4.5,0.9,6.7c0.7,3.8,1.4,7.6,2.1,11.5c0.6,3.4,1,6.8,1.5,10.2c0.2,1.1,0.6,2.1,0.8,3.2c0.1,0.5,0.4,1.2,0.2,1.5
				c-0.6,0.7-1.3,1.5-2.2,1.8c-2.5,0.9-5.3-0.5-6.1-3c-0.5-1.6-1-3.2-1.4-4.8c-1.5-6-2.9-12-4.4-17.9c-0.5-2-1.3-4-1.9-6.1
				c-0.3-1-0.9-1.3-1.7-1.3C91.3,161.4,90.9,161.4,90.3,161.3L90.3,161.3z"/>
			<path class="st1" d="M63.6,101.2c0.7-2.5-0.1-3.2-3.2-2.7c-0.6-1.2-0.7-2.4-0.3-3.7c0.4-1.5,0.1-2.1-1.2-2.8
				c-1.1-0.6-2.3-1.2-2.4-2.8c-0.2-2.1,0.6-2.9,2.8-2.7c0.8,0.1,1.6-0.1,2.3-0.3c0.9-0.4,1.3-1.1,1.2-2.2c-0.2-1.4,0.3-2.1,1.6-2.6
				c1.2-0.5,1.8-1.5,2-2.8c0-0.3,0.3-0.8,0.5-1c1.6-1.2,3.3-1.9,5.2-1.1c1.8,0.8,3.3,2,4,3.9c0.3,0.8,0.1,1.9-0.1,2.7
				c-0.2,1.2-0.8,2.3-1,3.4c-0.3,1.4-0.2,2.7,0.6,4c0.5,0.8,0.5,1.9,0.7,2.8c0.1,0.3-0.1,0.6,0,1c0.6,2.9-1.4,4.4-3.4,5.9
				C70,102.4,66.9,102.1,63.6,101.2L63.6,101.2z M69,85.1c0,1.3,0.6,1.9,1.7,2.1c0.5,0.1,1,0.1,1.4,0.2c1.3,0.2,1.9-0.5,1.4-1.8
				c-0.1-0.2-0.2-0.5-0.3-0.7c0,0.1-0.1,0.2-0.1,0.3c-0.7-0.1-1.3-0.2-2-0.3c-0.3,0-0.7-0.1-0.7-0.1C70.2,85.8,69.6,85.3,69,85.1
				L69,85.1z M68.3,83c1.8,1.2,3.8,1,5.7,0.6c0.5-0.1,0.6-0.7,0.1-1c-0.2-0.1-0.4-0.2-0.6-0.3C71.8,82.1,70,82.1,68.3,83L68.3,83z"
				/>
			<path class="st1" d="M133,134.5c-0.4,2-0.9,3.9-1.3,5.8c0,0.2-0.3,0.5-0.4,0.5c-2.5,0.4-5.1,0.9-7.6,1.2
				c-0.5,0.1-1.1-0.1-1.5-0.4c-5.2-2.7-10.4-5.5-15.5-8.3c-0.1-0.1-0.2-0.2-0.3-0.2c2.7-2.2,5.4-4.5,8.1-6.7c0.2-0.2,0.7-0.2,0.9,0
				c4.9,2.2,9.8,4.4,14.7,6.6C131,133.5,132,134,133,134.5L133,134.5z"/>
			<path class="st1" d="M83.4,150.9c1.6-0.3,3.2-0.7,4.7-1c1.7-0.3,2.5,0.1,3.1,1.6c0.5,1.3,0.9,2.8,0.7,4.1c-0.1,0.9-1,2-1.8,2.6
				c-3,2-5.5,4.6-8,7.2c-1.4,1.4-2.8,2.7-5,3c-2.8,0.4-3.3,0-3.9-2.4c-0.7-2.9-0.6-5.7,0.8-8.4c0.4-0.8,0.9-1.5,1.4-2.3
				c1-1.6,2.3-2.8,4.2-3.4c1.2-0.4,2.5-0.8,3.7-1.2L83.4,150.9L83.4,150.9z"/>
			<path class="st1" d="M138.2,45.9c-1.6-2.2-1.8-3.2-1-4.3c1.5-2,5.4-2.2,7.1-0.3c2,2.3,2.2,5.2,0.1,7.5c-1.3,1.4-1.4,2.5-0.5,4.1
				c1.2,2.1,2.3,4.4,3.5,6.5c0.3,0.6,0.2,1,0,1.6c-3.1,6.3-6.2,12.6-9.3,19c-2.6,5.3-5.1,10.6-7.7,16c-0.4,0.9-1,1.7-1.5,2.6
				c-0.3,0.6-0.6,1.2-1.5,0.8c-1.2-0.6-1.6-1.1-1.2-2.2c0.5-1.5,1.1-2.9,1.8-4.3c2.8-5.7,5.7-11.5,8.6-17.2c2.1-4,4.4-7.8,6.3-11.9
				c0.8-1.7,1.7-3.5,0.8-5.7c-1.1-2.8-1.6-5.8-2.3-8.8c-0.1-0.4,0.2-0.9,0.4-1.2c0.3-0.6,0.8-1.1,1.2-1.6c0.7-1.1,0.5-2.5-0.4-3.1
				c-0.9-0.6-2.8-0.2-3.4,0.8C138.8,44.6,138.6,45.2,138.2,45.9L138.2,45.9z"/>
			<path class="st1" d="M88.8,113.5c-1.1,2.1-2,4.1-3.3,5.9c-0.5,0.7-1.8,1.1-2.7,1.4c-1.8,0.4-3.6,0.7-5.4,1
				c-1.5,0.2-2.9-0.2-4.1-1.3c-0.6-0.6-1.2-1.2-1.9-1.9c0.5-0.1,0.9-0.3,1.3-0.3c1.5,0,3,0,4.4,0.1c1.6,0.1,2.7-0.8,3.7-1.8
				c1-1,0.6-2.3-0.8-2.4c-1.2-0.2-2.6,0.1-3.8,0.4c-1.6,0.4-3.2,1.1-4.8,1.5c-0.4,0.1-0.8-0.2-1.2-0.2c0.2-0.3,0.2-0.7,0.5-0.9
				c2.5-2.1,4.6-4.7,8-5.6c1.3-0.3,2.4-0.5,3.6,0.3C84.3,111,86.5,112.2,88.8,113.5L88.8,113.5z"/>
			<path class="st1" d="M154.2,80c-6.1,7.3-12.1,14.7-18.1,21.9c-1-1.7-2-3.6-3.2-5.5c-0.6-1-0.5-1.6,0.4-2.2
				c3.5-2.4,6.9-4.7,10.4-7.2c3.1-2.2,6.2-4.5,9.3-6.7c0.3-0.2,0.7-0.4,1-0.6C154.1,79.8,154.1,79.9,154.2,80L154.2,80z"/>
			<path class="st1" d="M94.1,126.5c1.4-2.7,2.7-5.2,4.1-7.9c4,1.8,7.9,3.6,11.9,5.4c-0.2,0.2-0.2,0.4-0.4,0.5
				c-2.7,1.9-5.3,3.7-8,5.6c-0.2,0.1-0.6,0.2-0.8,0.1C98.6,128.9,96.4,127.7,94.1,126.5L94.1,126.5z"/>
			<path class="st1" d="M103.6,150.8c0.4,1.1,0.9,2.3,1.3,3.4c0.5,1.2,0.1,1.9-1.2,1.8c-2.4-0.1-4.9-0.3-7.3-0.5
				c-0.4,0-1-0.4-1.2-0.8c-0.8-1.9-1.4-3.9-2.1-5.9c-0.2-0.5,0-0.8,0.6-1c1.7-0.4,3.3-1.1,5-1.5c1.1-0.2,2.2,0,3.3,0.1
				c0.2,0,0.6,0.4,0.6,0.6c0.4,1.1,0.8,2.3,1.1,3.4L103.6,150.8L103.6,150.8z"/>
			<path class="st1" d="M137.9,87.7c4.5-7.5,10.2-13.9,16.1-20.3c0.1,2.8,0.3,5.6,0.4,8.6C149.2,79.7,143.6,83.7,137.9,87.7
				L137.9,87.7z"/>
			<path class="st4" d="M63.1,160.6c0.2-0.4,0.4-1,0.7-1.3c4.4-4.6,8.9-9.3,14.4-12.6c0.7-0.4,1.9-0.2,2.9-0.2
				c0.7,0,1.5,0.2,2.2,0.3c0.2,0,0.4,0.3,0.7,0.4c-0.2,0.2-0.3,0.5-0.5,0.6c-1.5,0.5-2.9,1.1-4.4,1.5c-1.4,0.4-2.6,1-3.6,2.1
				c-1.9,2.2-3.9,4.4-5.1,7.3c-0.4,1.1-1.3,1.8-2.6,1.8c-1.5,0-2.9,0.3-4.4,0.5C63.2,160.9,63.2,160.7,63.1,160.6L63.1,160.6z"/>
			<path class="st1" d="M90.9,127.2c-1.5-1.1-3-2.1-4.7-3.3c1.7-3,3.4-6.1,5-9.2c1.4,0.9,2.7,1.7,4.1,2.5
				C93.8,120.5,92.4,123.8,90.9,127.2L90.9,127.2z"/>
			<path class="st3" d="M69,85.1c0.6,0.1,1.2,0.6,1.5-0.3c0-0.1,0.5,0,0.7,0.1c0.7,0.1,1.3,0.2,2,0.3c0-0.1,0.1-0.2,0.1-0.3
				c0.1,0.2,0.2,0.5,0.3,0.7c0.4,1.2-0.2,2-1.4,1.8c-0.5-0.1-1-0.1-1.4-0.2C69.6,87.1,69,86.4,69,85.1L69,85.1z"/>
			<path class="st3" d="M68.3,83c1.7-0.8,3.4-0.9,5.2-0.7c0.2,0,0.4,0.1,0.6,0.3c0.5,0.4,0.5,1-0.1,1C72.1,83.9,70.1,84.1,68.3,83
				L68.3,83z"/>
		</g>
	</g>
</g>
</svg>
