<?xml version="1.0" encoding="UTF-8"?><svg id="Layer_1" xmlns="http://www.w3.org/2000/svg" viewBox="0 0 626.61 723.56"><defs><style>.cls-1{fill:#fefefe;}.cls-2{fill:#818943;}.cls-3{fill:#b2bc7f;}.cls-4{fill:#a5a5a0;}.cls-5{fill:#514b4b;}</style></defs><polygon class="cls-4" points="626.61 542.67 313.3 723.56 0 542.67 0 180.89 313.3 0 626.61 180.89 626.61 542.67"/><g><path class="cls-1" d="M111.33,551.16c.91,7.12,.55,14.26-1.74,21.22-1.16,3.52-3.28,5.99-6.88,7.44-6.05,2.44-12.07,2.97-18.41,1.36-4.74-1.21-8.26-5.73-6.98-10.47,1.77-6.58,4.09-13.02,6.4-19.43,.31-.87,2-1.8,3-1.75,8.11,.41,16.21,1.04,24.61,1.63h0Z"/><g><path class="cls-5" d="M190.17,266.79c1.44,.77,3.58,1.52,5.19,2.88,1.62,1.38,3.85,3.47,3.72,5.09-.14,1.9-2.18,4.28-4.03,5.28-2.27,1.23-4.03,2.23-5.15,4.82-1.44,3.31-4.27,3.7-9.59,2.23-3.92,3.43-4.79,5.83-2.32,10.9,2.8,5.74,2.77,11.8,3.22,17.84,.28,3.68-1.06,6.82-3.51,9.7-5.23,6.14-12.07,9.3-19.6,11.39-1.88,.52-3.73,1.15-5.57,1.8-4.05,1.44-4.84,2.65-3.77,6.81,1.67,6.49,3.5,12.94,5.39,19.37,1.3,4.42,2.81,4.81,6.45,1.73,2.7-2.28,5.03-5.09,7.96-6.99,5.47-3.55,11.13-6.87,16.97-9.78,3.15-1.57,6.09,.54,8.74,2.37,7.9,5.49,15.59,11.33,23.77,16.36,5.73,3.52,12.36,5.57,18.21,8.94,9.48,5.47,19.6,9.23,29.79,13.04,10.17,3.79,20.04,8.41,29.98,12.82,1.95,.86,3.24,.81,4.84-.67,9.28-8.57,16.49-18.61,21.85-30.03,6.18-13.16,12.4-26.3,18.6-39.44,1.06-2.24,2.03-4.22-.64-6.37-.97-.78-1.14-3.2-.89-4.74,.81-5.04,1.98-10.01,3.13-15.56-5.19-2.19-10.55-4.81-16.15-6.73-12.68-4.34-20.7-13.55-26.38-25.01-2.65-5.35-2.37-11.34-.63-17.35-2.08-1.47-4.16-3.16-6.45-4.52-3.08-1.83-4.47-4.32-4.1-7.89,.8-7.76,1.62-15.51,2.23-23.29,.14-1.83-.05-3.98-.91-5.53-2.37-4.25-4.95-8.41-7.85-12.31-5.49-7.37-7.74-15.42-7.46-24.65,.32-10.7-.38-21.43-.56-32.15-.05-2.77,.17-5.54,.27-8.34-6.4,1.35-8.08,.52-10.89-5.43-.78-1.65-1.47-3.36-2.04-5.1-1.17-3.56-.77-6.64,1.63-9.91,12.22-16.64,23.67-33.88,36.35-50.15,15.42-19.8,34.27-35,59.93-39.83,15.49-2.92,29.48,.46,42.7,8.53,3.74,2.28,7.64,4.45,11.74,5.94,10.93,3.96,18.34,12.23,24.79,21.04,9.22,12.59,16.85,26.26,22.5,40.92,3.94,10.23,5.66,20.92,6.77,31.77,2.06,20.18-1.97,39.5-7.03,58.87-3.44,13.17-5.3,26.76-7.84,40.16-.08,.43,.04,.89,.09,1.65,4.6-2.87,8.87-5.61,13.22-8.22,4.52-2.72,6.29-1.84,7.62,3.23,4.01,15.34,8.11,30.66,12.24,45.97,.26,.96,.88,2.12,1.68,2.61,11.14,6.79,20.68,15.51,29.96,24.56,3.75,3.66,8.29,6.7,11.38,10.84,8.47,11.34,18.97,20.76,28.44,31.14,6.27,6.87,8.88,15.05,9.04,24.08,.7,39.04,1.25,78.08,1.93,117.12,.3,17.08,.54,34.17,1.23,51.23,.42,10.24,2.37,20.44,2.37,30.66,.01,15.1-1.1,30.19-1.72,45.29-.24,5.96-.42,11.93-.64,18.37-4.53,1.23-9.2,2.52-13.88,3.76-15.24,4.03-30.47,8.08-45.72,12.02-5.17,1.34-10.27,.61-15.56-.12-9.14-1.26-18.44-1.5-27.68-1.9-8.04-.35-16.21,.41-24.11-.73-7.14-1.03-14.22-3.46-20.94-6.21-5.28-2.17-10.19-2.82-15.58-1.18-17.88,5.43-35.79,10.77-53.69,16.15-1.4,.42-2.8,.88-4.21,1.24-8.91,2.28-13.25-3.34-12.16-11.66,3.36-25.64,7.24-51.21,10.83-76.82,1.18-8.44,2.07-16.92,3.13-25.7-19.48-4.46-38.67-8.85-58.17-13.31-.04,3.62-1.78,4.02-4.41,3.38-3.07-.74-6.21-1.14-9.31-1.79-3.22-.67-4.53,.36-4.23,3.7,.26,2.92,.59,5.84,1.13,8.72,4.45,23.66,8.66,47.36,13.58,70.92,2.56,12.26,6.05,24.37,9.92,36.28,1.05,3.24,4.92,5.63,7.66,8.24,6.79,6.46,13.98,12.52,20.38,19.34,3.07,3.27,5.17,7.69,6.91,11.92,2.17,5.3-2.31,10.69-8.07,11.04-10.36,.63-19.07-3.49-27.35-8.94-12.27-8.07-24.89-15.33-38.79-20.39-7.24-2.64-8.89-6.56-6.15-12.34,.32-.68,.47-1.73,.17-2.36-8.89-18.89-14.32-38.87-18.9-59.14-2.53-11.2-5.33-22.35-7.87-33.55-.63-2.76-1.96-3.59-4.76-3.56-6.93,.07-13.87-.09-20.79-.48-2.57-.14-4.47,.39-6.14,2.3-6.7,7.69-15.71,9.38-25.24,9.33-6.78-.03-10.89-4.24-13.76-9.74-11.58,.4-23.01,.8-34.46,1.2-.93,3.86-1.64,8.34-3.1,12.55-4.26,12.26-19.95,16.42-29.23,15.82-8.11-.53-14.49-3.45-18-11-1.26-2.7-1.71-5.78-2.43-8.33-22.07-.57-44.16-1.15-66.57-1.73,.21-9.77,.4-18.88,.6-28.52,11.16,.02,22.19,.05,33.15,.07-1.54-14.33-.53-28.16,3.12-41.82,8.56-32.07,16.82-64.23,25.72-96.21,3.43-12.32,8.02-24.35,12.57-36.32,1.75-4.61,4.6-8.89,7.42-12.99,1.9-2.76-.22-4.4-1.18-6.1-.43-.78-3.07-.98-4.37-.51-5.72,2.06-11.27,4.59-16.98,6.68-5.78,2.12-9-.5-8.59-6.58,.08-1.15-.44-2.33-.68-3.5-.37,.02-.74,.05-1.11,.07-.31,.61-.6,1.24-.95,1.83-2.3,3.99-5.21,4.2-7.98,.59-2.09-2.72-3.17-5.68-2.66-9.2,.28-1.9,.14-3.86-.56-5.2-1.47-1.46-3.92-2.76-4.2-4.42-.54-3.24,1.76-5.35,5.08-6.06-2.66-3.73-5.64-4.25-10-2.05-1.94,.98-3.88,2.12-5.96,2.6-5.04,1.16-8.25-1.96-7.07-7.01,.63-2.7-.31-3.35-2.62-3.9-7.78-1.85-11.33-9-7.7-15.63,.72-1.31,2.56-1.97,3.75-3.08,1.01-.94,1.84-2.09,2.75-3.14-.98-.61-1.9-1.37-2.95-1.79-3.14-1.25-4.08-3.77-3.82-6.77,.29-3.34,3.34-6.23,6.57-6.33,1.68-.05,3.38,.59,5.05,.5,1.64-.1,3.24-.73,4.86-1.13-.57-1.56-.95-3.22-1.77-4.64-.71-1.23-2.05-2.09-2.88-3.27-1.63-2.31-3.39-4-6.34-4.94-5.69-1.81-6.29-6.24-1.97-11.02-3.56-6.36-2.77-7.89,3.77-11.37,2.57-1.37,5.47-3.42,5.14-7.53-.3-3.71,1.76-5.12,5.9-4.7,.11,.21,.28,.42,.33,.64,.56,2.33,.62,5.36,4.17,4.74,3.73-.64,3.17-3.82,2.96-6.43-.1-1.28-.63-2.67-1.37-3.72-2.45-3.49-2.49-7.19-.67-10.74,2.27-4.44,4.88-8.72,7.55-12.93,4.37-6.91,10.9-8.93,18.62-7.47,1.33,.25,2.69,1.46,3.6,2.58,1.45,1.77,3.26,2.85,4.93,1.24,1.09-1.05,1.43-3.29,1.4-4.98-.06-2.87-1.03-5.73-.98-8.59,.06-3.78,3.66-5.94,7.87-4.27,3.62,1.44,6.69,.67,10.18-.04,4.01-.82,8.23-1.06,12.32-.86,5.11,.26,7.37,3.43,7.21,8.51-.04,1.25,.79,2.53,2,3.48,.71-3.13,1.23-6.33,2.19-9.38,1.75-5.6,11-8.84,15.87-5.48,.96,.66,1.03,2.59,1.81,4.76,3.7-2.74,8.2-6.23,12.61-2.66,3.46,2.8,5.7,7.13,8.65,11.01,.26-.25,.73-1.07,1.39-1.27,2.33-.71,5.02-2.16,7.03-1.54,2.54,.79,5.73,2.07,6.01,5.86,.21,2.89,.76,5.76,1.24,9.19,4.42-3,8.8-6.03,14.33-3.09,4.18,2.22,6.27,7.17,5.39,13.31,7.26,1.41,9.44,2.98,9.77,7.05,.33,4.05-1.55,6.07-7.78,8.27-.02,3.05,.09,5.57,4.41,5.88,3.92,.27,6.54,3.19,8.31,6.54,2,3.79,.6,7.55-3.6,10.27-1.58,1.02-3.25,1.92-5.74,3.38,3.82,1.64,7.23,3.28,6.3,7.19-.7,2.95-2.57,5.61-4.05,8.67l-.02-.02Zm213.3,221.66c-.94,3.58-1.76,6.75-2.59,9.92-.78,2.95-1.28,6.03-2.48,8.79-.59,1.36-2.55,2.98-3.82,2.92-1.11-.06-2.84-2.18-3.04-3.58-.81-5.54-1.31-11.14-1.56-16.73-.13-2.91-1.09-4.22-4.04-4.09-8.03,.34-16.08,.44-24.11,.94-28.68,1.78-57.52,1-86.26,5.45,.13,.83,.11,1.59,.37,2.22,2.78,6.63,5.71,13.2,8.37,19.89,1.89,4.76,4.77,6.99,10.24,7.8,17.2,2.55,34.21,6.46,51.41,9.01,31.9,4.73,63.68,9.93,94.98,17.78,3.56,.89,5.9-.15,7.58-3.29,2.53-4.74,5.27-9.37,7.69-14.17,8.76-17.33,17.29-34.78,26.2-52.04,4.08-7.89,8.84-15.42,13.26-23.05,5.42,2.16,5.66,2.83,2.9,7.61-3.85,6.67-7.81,13.28-11.57,19.99-12.71,22.69-25.94,45.11-35.61,69.75-29.78-2.64-59.81-5.29-90.04-7.97-3.94,32.9-7.92,66.18-11.88,99.27-.12,.03,.59-.06,1.27-.27,21.36-6.57,42.74-13.08,64.06-19.79,6-1.89,10.93-.85,15.51,3.41,2.11,1.96,4.61,4.29,7.24,4.76,7.05,1.24,14.29,2.3,21.42,2.1,12.07-.35,24.04-1.21,36.16,.41,6.24,.83,13.15,.27,19.18-1.55,15.74-4.75,31.16-10.55,47.13-16.08-.72-3.48-1.99-7.25-2.2-11.08-1.08-19.13-2.16-38.26-2.73-57.41-1.14-38.08-1.96-76.17-2.9-114.26-.5-20.26-1.32-40.52-1.32-60.78,0-7.1-1.77-12.98-6.38-18.05-9.77-10.75-19.58-21.48-29.58-32.01-6.3-6.64-12.89-13.01-19.54-19.32-2.71-2.57-5.89-4.63-9.25-7.22-3.45,4.03-6.86,7.54-9.72,11.44-8.57,11.75-16.93,23.65-25.37,35.5-.64,.89-1.37,1.76-1.79,2.75-1.88,4.46-3.29,5.27-8,4.1-2.01-.5-3.92-1.37-5.93-1.88-5.97-1.52-11.97-2.94-18.1-4.43-3.24,11.81-6.49,23.06-9.37,34.4-1.89,7.45-3.23,15.03-4.84,22.55-1.05,4.93-5.23,6.3-9,2.96-.58-.52-1.08-1.13-2.03-2.13-6.69,22.9-13.55,45.19-16.99,68.73,6.72-.27,13.06-.87,19.38-.65,3.81,.13,5.42-1.34,6.69-4.6,5.54-14.22,11.08-28.44,16.95-42.52,8.17-19.59,18.16-38.21,31.99-54.44,4.1-4.82,8.53-10.28,15.46-11.01,8.58-.91,17.09,.15,24.94,4.13,1.55,.79,2.73,2.32,3.81,3.28-6.74,1.39-13.01,2.89-19.36,3.93-4.79,.79-8.82,2.03-12.39,5.97-11.3,12.46-21.6,25.71-29.72,40.34-8.93,16.1-16.57,32.92-24.75,49.45-.18,.36-.03,.89-.03,1.45,.9-.19,1.68-.2,2.31-.5,7.05-3.38,14.58-2.47,21.99-2.44,2.37,0,4.27,1.26,4.53,3.93,.25,2.6-1.24,4.17-3.54,4.9-1.49,.48-3.1,.62-4.67,.86-6.05,.95-12.11,1.87-19.21,2.97,4.02,4.5,7.18,7.88,10.15,11.41,2.03,2.41,4.33,4.83,5.5,7.66,.7,1.7,.07,4.72-1.13,6.17-.91,1.11-3.75,1.13-5.59,.82-1.38-.23-2.64-1.65-3.8-2.71-4.05-3.71-8.03-7.49-12.47-11.65l.03-.02Zm-119.12-292.86c1.27,1.95,2.68,3.92,3.89,6.01,3.35,5.78,6.75,11.55,9.84,17.48,.74,1.43,.64,3.48,.42,5.18-.71,5.67-1.87,11.3-2.39,16.99-.17,1.81,.65,4.12,1.8,5.58,2.88,3.62,6.96,4.09,11.3,3.18,5.35-1.12,10.67-2.64,16.09-3.19,11.08-1.13,21.45-3.56,29.33-12.23,.9-.99,1.96-1.84,3.02-2.66,13.26-10.27,21.6-24.17,28.14-39.17,2.54-5.83,3.38-12.41,4.85-18.69,.23-.96,.04-2.31-.51-3.11-2.21-3.21-4.46-6.4-6.99-9.35-16.07-18.71-32.26-37.31-48.3-56.05-2.23-2.61-4.64-3.36-7.73-2.48-11.35,3.23-22.23,7.39-31.08,15.61-4.2,3.91-8.54,7.7-12.49,11.84-1.44,1.51-2.77,3.91-2.76,5.9,.06,14.36,.48,28.72,.79,43.39,1.1-.31,2.28-.53,3.37-.97,5.09-2.05,10.18-4.12,15.23-6.26,4.87-2.06,5.76-1.71,7.8,3.44-7.52,6.76-17.26,10.86-23.65,19.56h.03ZM119.05,348.45c-2.88,2.67-5.18,4.96-7.65,7.05-3.53,3-7.55,4.1-12.2,3.06-3.27-.73-6.67-1.07-8.67,2.55-1.57,2.84-3.22,5.69-4.32,8.72-3.2,8.77-6.36,17.57-9.15,26.47-2.91,9.32-5.51,18.75-7.99,28.2-1.85,7.05-3.13,14.26-5.01,21.3-2.07,7.77-4.82,15.36-6.78,23.16-2.61,10.41-4.77,20.93-7.08,31.42-1.07,4.88-2.28,9.74-2.99,14.67-.88,6.12-1.29,12.31-1.94,18.46-.38,3.58,2.42,8.3,5.22,8.47,5.9,.34,11.8,.64,17.7,.82,2.23,.07,3.71-.89,3.58-3.52-.13-2.64-.07-5.3-.04-7.95,.09-6.54,.03-13.09,.38-19.62,.32-6.05,.99-12.08,1.69-18.1,.55-4.74,1.48-9.44,2.03-14.19,.69-5.99,.97-12.02,1.77-17.99,.77-5.68,1.98-11.29,3-16.94,1.49-8.21,2.59-16.51,4.56-24.6,2.43-10,5.35-19.91,8.53-29.7,1.58-4.86,3.62-9.83,6.62-13.88,1.88-2.54,6.13-5.08,9.02-4.78,9.99,1.02,16.99,7.36,22.26,15.59,1.66,2.6,3.02,5.42,4.26,8.25,1.5,3.41,3.57,6.84,3.94,10.42,.95,9.25,1.38,18.57,1.47,27.87,.06,6.22-.4,12.51-1.4,18.64-1.3,8-3.23,15.91-5.11,23.81-3.19,13.42-7.51,26.49-13.09,39.12-1.32,2.99-1.67,6.02-.55,9.13,.82,2.3,2.98,3.12,4.52,1.7,2.27-2.11,4.45-4.31,6.7-6.44,8.74-8.24,17.38-16.6,26.29-24.65,4.43-4,9.37-7.45,14.1-11.12,3.27-2.53,3.73-4.68,2.14-8.46-1.03-2.45-1.93-5.01-2.48-7.6-2.86-13.39-5.73-26.78-8.33-40.21-1.99-10.28-4.97-20.19-9.01-29.85-1.42-3.38-2.8-3.27-4.94-1.27-2.58,2.4-5.4,1.19-7.21-.27-5.36-4.28-6.66-11.19-4.03-17.77,.93-2.33,3.76-3.32,5.85-2,.89,.57,1.72,1.23,2.58,1.85,.41-.1,.81-.2,1.22-.3-1.06-9.09-.6-18.33-3.81-27.81-9.11,5.56-17.82,5.87-25.65-1.7h0Zm-9.28,190.82c1.5-8.6,2.63-16.14,4.17-23.6,1.61-7.81,3.62-15.54,5.43-23.32,2.94-12.67,6.12-25.3,8.69-38.04,1.42-7.05,1.9-14.3,2.61-21.48,.28-2.82,.03-5.69,.02-8.54,0-4.41,.63-8.95-.18-13.2-1.24-6.5-3.21-12.91-5.39-19.18-2.21-6.37-5.82-11.48-13.6-11.84-4.73-.22-10.3,2.05-11.21,5.64-1.36,5.4-1.94,10.99-2.87,16.5-1.19,7.06-1.53,14.42-3.81,21.11-3.07,9.02-4.31,18.26-5.65,27.54-1.34,9.24-2.18,18.56-3.45,27.81-1.1,8-2.69,15.93-3.71,23.94-1.13,8.91-2.07,17.86-2.66,26.82-.22,3.3,.18,6.98,1.55,9.9,.65,1.38,4.23,1.52,6.54,1.92,1.51,.26,3.13,.07,4.67-.1,2.05-.23,4.08-.76,6.13-.95,4.3-.39,8.61-.64,12.73-.93h0ZM465.52,242.46c-.39-.06-.78-.13-1.17-.19-2.5,3.42-5.02,6.83-7.5,10.26-5.57,7.72-10.84,15.68-16.74,23.13-11.07,13.97-22.29,27.83-33.86,41.38-9.72,11.39-19.49,22.83-32.73,30.51-1.34,.78-2.5,1.85-3.9,2.9,9.51,13.52,18.85,26.81,28.23,40.16,1.87-8.37,3.45-16.73,5.63-24.93,2.71-10.22,5.87-20.32,8.91-30.45,.67-2.22,1.77-3.46,4.6-2.27,2.52,1.06,5.53,.93,8.14,1.86,8.75,3.13,14.21-.67,19.12-7.69,10.22-14.6,20.97-28.83,31.4-43.28,.61-.84,.72-2.46,.37-3.49-2.01-6-4.59-11.84-6.28-17.92-1.81-6.55-2.85-13.31-4.23-19.98h0ZM166.85,413.97c-.25,.07-.5,.14-.74,.21,.12,1.25,.18,2.51,.36,3.75,2.54,17.58,8.15,34.38,12.92,51.4,1.69,6.05,4.7,10.39,11,12.24,6.75,1.98,13.58,3.87,20.04,6.6,5.17,2.19,9.72,3.22,14.46-.59,1-.8,2.44-1.07,3.69-1.55,11.19-4.33,22.62-7.71,34.61-8.94,2.96-.3,5.5,.24,7.13,3.23,.43,.79,1.99,1.44,2.96,1.36,3.75-.33,7.49-.84,11.19-1.54,6.71-1.28,13.37-2.82,20.07-4.11,2.97-.57,6.01-.8,9.02-1.19,.1-.38,.21-.76,.31-1.14-15.44-8.63-30.85-17.28-46.34-25.81-.99-.55-2.54-.38-3.76-.17-11.38,1.97-22.38,6.08-34.2,5.63-12.33-.47-24.73-1.49-34.84-9.12-10.36-7.83-20.05-16.66-26.42-28.39-.37-.68-.96-1.24-1.45-1.85v-.02Zm54.82,125.96c2.23,.13,3.55,.28,4.88,.28,3.08,0,5.1,.79,6.02,4.37,1.81,7.06,4.62,13.87,6.4,20.94,5.18,20.58,10,41.26,15.08,61.87,1.37,5.54,2.93,11.05,4.82,16.42,3.05,8.69,12.44,13.37,21.19,10.25,2.89-1.03,5.43-3.65,7.48-6.1,.78-.93-.14-3.44-.54-5.17-.84-3.68-2.14-7.27-2.74-10.98-1.89-11.68-3.37-23.43-5.34-35.09-2.23-13.24-4.95-26.41-7.21-39.65-1.31-7.69-2.28-15.44-3.09-23.2-.21-2-.85-2.67-2.61-3.19-7.45-2.2-14.95-3.39-22.74-2.24-2.49,.37-5.66-.75-7.49,.41-4.76,3.02-8.96,6.94-14.11,11.09h0Zm-92.07-207.4c11.38,2.97,22.02,3.91,32.02-3.5,6.96-5.15,13.65-10.17,11.69-20.36-.2-1.05,.26-2.23,.05-3.28-.67-3.29-.74-7.04-2.47-9.7-2.9-4.46-3.06-8.96-2.05-13.65,.87-4.03,2.78-7.83,3.62-11.87,.64-3.08,1.24-6.71,.22-9.49-2.37-6.44-7.55-10.87-13.74-13.49-6.64-2.81-12.67-.17-18.06,3.87-.95,.71-1.75,2.16-1.87,3.34-.46,4.56-2.58,7.79-6.8,9.57-4.58,1.93-6.21,4.09-5.57,9.07,.49,3.82-1.01,6.4-4.15,7.66-2.45,.98-5.39,1.44-8.01,1.16-7.29-.78-10.1,2.12-9.53,9.23,.44,5.58,4.32,7.61,8.22,9.76,4.73,2.6,5.82,4.55,4.29,9.73-1.31,4.43-.81,8.6,1.15,12.65,10.54-1.64,13.48,.71,11,9.27v.03Zm242.05,103.29c.2-.63,.44-1.29,.62-1.97,3.49-13.06,6.74-26.18,10.59-39.13,1.26-4.25,.92-7.53-1.82-10.78-.78-.93-1.5-1.93-2.16-2.95-5.57-8.58-11.36-17.02-16.59-25.81-3.14-5.28-1.29-8.64,4.54-10.43,2.72-.84,5.32-2.06,7.95-3.1-2.79-7.35-9.23-15.94-13.4-18.03-2.43,3.61-3.53,8.52-8.85,9.51-.42,.08-.66,1.21-.96,1.86-6.36,14.09-10.1,29.29-18.26,42.63-4.96,8.1-9.59,16.4-14.51,24.52-1.74,2.86-3.92,5.45-5.85,8.1,19.66,8.56,39.09,17.03,58.7,25.57h0Zm-2.49,11.43c-3.43-1.64-6.91-3.4-10.46-5.01-16.9-7.65-33.81-15.29-50.76-22.84-.91-.41-2.56-.42-3.26,.15-9.34,7.56-18.57,15.26-27.88,22.96,.19,.13,.54,.45,.95,.67,17.88,9.57,35.75,19.15,53.68,28.63,1.55,.82,3.57,1.48,5.23,1.26,8.83-1.21,17.61-2.69,26.4-4.19,.59-.1,1.33-1.02,1.48-1.68,1.58-6.58,3.06-13.19,4.6-19.95h.02Zm-171.26,56.88l-.15-.36c-4.24,1.44-8.42,3.04-12.72,4.27-6.5,1.86-10.97,6.04-14.33,11.67-1.56,2.62-3.29,5.15-4.71,7.85-4.88,9.26-5.38,19.16-2.87,29,2.1,8.23,3.75,9.46,13.52,8.13,7.38-1,12.38-5.2,17.19-10.19,8.61-8.94,17.07-17.99,27.52-24.99,2.89-1.93,5.93-5.69,6.26-8.89,.47-4.6-.8-9.71-2.55-14.13-2.16-5.45-4.97-6.6-10.76-5.69-5.5,.86-10.93,2.2-16.39,3.32h-.01ZM387.24,141.53c1.23-2.49,1.94-4.49,3.1-6.18,2.22-3.25,8.93-4.62,11.88-2.63,2.98,2.01,3.66,6.59,1.35,10.56-1.16,1.98-2.86,3.65-4.04,5.62-.76,1.28-1.7,3.02-1.4,4.28,2.41,10.21,4.18,20.7,7.97,30.4,3.03,7.75-.11,13.88-2.89,19.7-6.67,13.97-14.79,27.23-21.9,41-10.13,19.63-19.94,39.43-29.76,59.21-2.38,4.78-4.49,9.72-6.34,14.74-1.33,3.61,.13,5.37,4.31,7.43,3.21,1.58,4.13-.7,5.3-2.64,1.76-2.93,3.59-5.83,5.07-8.9,8.88-18.35,17.6-36.77,26.5-55.11,10.6-21.85,21.33-43.65,32.02-65.46,.89-1.82,1.28-3.25,.09-5.37-4.17-7.43-7.74-15.19-11.94-22.6-3.05-5.38-2.73-9.23,1.77-14.12,7.41-8.04,6.78-17.92-.21-25.85-5.83-6.62-19.24-6.08-24.43,.99-2.81,3.82-2.12,7.45,3.52,14.94h.03Zm-170.75,233.45c-7.75-4.57-15.4-8.89-22.83-13.55-4.16-2.61-8.16-2.22-12.58-1.05-11.57,3.07-19.03,11.9-27.52,19.27-.84,.73-1.11,2.12-1.64,3.21,1.42,.32,2.99,1.21,4.22,.86,5.61-1.59,11.04-3.88,16.7-5.23,4.28-1.02,8.91-1.77,13.21-1.25,4.75,.57,6.08,4.98,2.66,8.36-3.39,3.35-7.27,6.47-12.68,6.2-5.11-.26-10.23-.37-15.35-.41-1.3-.01-2.61,.5-4.5,.89,2.53,2.53,4.58,4.59,6.63,6.64,3.92,3.93,8.77,5.27,14.08,4.55,6.28-.84,12.58-1.76,18.71-3.29,3.41-.85,7.67-2.18,9.48-4.75,4.38-6.24,7.55-13.34,11.4-20.44h0Zm225.93-115.91c-.23-.3-.47-.61-.7-.91-1.19,.73-2.44,1.39-3.58,2.21-10.66,7.71-21.23,15.55-31.97,23.14-11.83,8.37-23.8,16.54-35.74,24.74-3.06,2.11-3.61,4.27-1.49,7.6,4.01,6.31,7.6,12.88,11.07,18.84,20.55-24.9,41.48-50.26,62.4-75.63h.01Zm-207.64,160.61c8.03,4.31,15.75,8.5,23.55,12.55,.74,.39,2.18,.23,2.9-.26,9.24-6.36,18.4-12.82,27.57-19.28,.42-.29,.67-.81,1.28-1.57-13.86-6.29-27.38-12.43-41.22-18.72-4.73,9.17-9.36,18.14-14.07,27.29h0Zm33,83.85l.85-.3c-1.3-3.93-2.52-7.88-3.96-11.75-.33-.89-1.42-2.05-2.24-2.12-3.83-.35-7.83-1.06-11.5-.33-5.82,1.16-11.39,3.5-17.14,5.06-2.07,.56-2.68,1.44-2.04,3.29,2.34,6.76,4.58,13.56,7.22,20.21,.49,1.24,2.56,2.49,4,2.62,8.37,.74,16.77,1.27,25.17,1.62,4.47,.19,5.86-2.2,4.2-6.37-1.57-3.95-3.03-7.94-4.55-11.91v-.02Zm118.47-217.87c19.41-13.77,38.82-27.53,57.21-40.57-.52-10.38-.99-19.8-1.48-29.61-20.46,22.05-40.11,44.41-55.73,70.18Zm-154.75,140.59c-3.48,5.92-5.3,6.36-11.48,3.19-4.45-2.28-9.08-4.21-13.53-6.5-2.7-1.39-5.33-2.99-7.7-4.87-.86-.68-1.38-2.53-1.17-3.68,.49-2.7,1.51-5.3,2.17-7.46-7.97,1.64-15.98,3.3-23.99,4.95-.13,.49-.25,.98-.38,1.47,4.41,4.13,8.95,8.12,13.19,12.42,11.84,11.99,26.71,17.13,42.93,19.01,7.1,.83,12.91-2.96,18.59-6.03-6.3-4.22-12.37-8.29-18.65-12.49h.02Zm-121.04,124.81c-8.17,.07-16.06,.08-23.95,.3-.98,.03-2.54,1.05-2.78,1.91-1.78,6.33-3.55,12.68-4.79,19.13-.89,4.64,2.85,8.72,7.52,9.52,6.25,1.07,12.04,.11,17.73-2.7,3.38-1.67,5.26-4.2,6.12-7.67,1.72-6.85,1.54-13.73,.14-20.5h0Zm17.3-13.56c.32,.43,.63,.87,.95,1.3,5.04-.56,10.09-1.57,15.13-1.56,4.71,0,7.55-2.29,9.07-6.05,3.94-9.75,10.84-17.31,17.54-25.06,3.29-3.8,7.49-5.94,12.36-7.26,5.15-1.4,10.14-3.41,15.15-5.3,.71-.27,1.13-1.33,1.68-2.02-.76-.47-1.47-1.2-2.29-1.37-2.49-.5-5.01-1.02-7.53-1.09-3.33-.09-7.36-.92-9.88,.58-19.18,11.4-34.43,27.46-49.74,43.38-1.13,1.18-1.63,2.96-2.43,4.47v-.02Zm95.95-115.26c5.22-12.02,10.15-23.36,14.98-34.48-4.68-2.88-9.09-5.6-14.01-8.64-5.77,10.58-11.6,21.28-17.33,31.79,5.93,4.1,11.03,7.63,16.37,11.32h-.01Zm-58.86-35.98c5.32,3.41,15.96-.1,17.97-5.96-6.16,2.05-11.79,3.91-17.97,5.96Z"/><path class="cls-1" d="M403.47,488.45c4.44,4.16,8.42,7.94,12.47,11.65,1.16,1.06,2.42,2.48,3.8,2.71,1.84,.31,4.67,.29,5.59-.82,1.2-1.46,1.83-4.48,1.13-6.17-1.16-2.83-3.46-5.25-5.5-7.66-2.97-3.53-6.13-6.91-10.15-11.41,7.09-1.1,13.15-2.02,19.21-2.97,1.56-.24,3.17-.38,4.67-.86,2.3-.74,3.79-2.31,3.54-4.9-.26-2.66-2.16-3.92-4.53-3.93-7.41-.03-14.94-.94-21.99,2.44-.63,.3-1.41,.31-2.31,.5,0-.56-.15-1.09,.03-1.45,8.18-16.52,15.81-33.34,24.75-49.45,8.12-14.63,18.42-27.88,29.72-40.34,3.57-3.93,7.59-5.18,12.39-5.97,6.35-1.04,12.63-2.54,19.36-3.93-1.08-.95-2.26-2.49-3.81-3.28-7.85-3.97-16.36-5.03-24.94-4.13-6.93,.73-11.36,6.2-15.46,11.01-13.82,16.23-23.82,34.85-31.99,54.44-5.87,14.08-11.41,28.3-16.95,42.52-1.27,3.26-2.89,4.73-6.69,4.6-6.32-.21-12.66,.38-19.38,.65,3.44-23.54,10.29-45.84,16.99-68.73,.94,1,1.44,1.62,2.03,2.13,3.77,3.34,7.95,1.97,9-2.96,1.61-7.52,2.95-15.1,4.84-22.55,2.88-11.35,6.14-22.6,9.37-34.4,6.13,1.49,12.13,2.91,18.1,4.43,2.01,.51,3.92,1.38,5.93,1.88,4.7,1.17,6.11,.36,8-4.1,.42-.99,1.15-1.86,1.79-2.75,8.43-11.85,16.79-23.75,25.37-35.5,2.85-3.91,6.27-7.41,9.72-11.44,3.35,2.59,6.54,4.65,9.25,7.22,6.64,6.3,13.24,12.68,19.54,19.32,10,10.54,19.8,21.26,29.58,32.01,4.61,5.07,6.38,10.95,6.38,18.05,0,20.26,.82,40.52,1.32,60.78,.95,38.09,1.76,76.18,2.9,114.26,.57,19.15,1.65,38.28,2.73,57.41,.22,3.83,1.49,7.6,2.2,11.08-15.97,5.53-31.4,11.33-47.13,16.08-6.03,1.82-12.93,2.38-19.18,1.55-12.12-1.62-24.09-.75-36.16-.41-7.13,.2-14.36-.86-21.42-2.1-2.62-.46-5.13-2.8-7.24-4.76-4.59-4.26-9.52-5.3-15.51-3.41-21.32,6.71-42.7,13.22-64.06,19.79-.68,.21-1.4,.3-1.27,.27,3.96-33.09,7.94-66.37,11.88-99.27,30.22,2.67,60.25,5.33,90.04,7.97,9.67-24.64,22.9-47.07,35.61-69.75,3.76-6.72,7.72-13.32,11.57-19.99,2.75-4.78,2.52-5.45-2.9-7.61-4.42,7.63-9.19,15.16-13.26,23.05-8.91,17.25-17.44,34.71-26.2,52.04-2.42,4.79-5.16,9.43-7.69,14.17-1.68,3.14-4.02,4.18-7.58,3.29-31.3-7.85-63.09-13.05-94.98-17.78-17.2-2.55-34.21-6.46-51.41-9.01-5.48-.81-8.35-3.04-10.24-7.8-2.66-6.68-5.59-13.25-8.37-19.89-.27-.63-.24-1.39-.37-2.22,28.74-4.45,57.58-3.67,86.26-5.45,8.02-.5,16.07-.59,24.11-.94,2.95-.13,3.91,1.18,4.04,4.09,.25,5.59,.75,11.2,1.56,16.73,.2,1.4,1.93,3.53,3.04,3.58,1.26,.06,3.22-1.56,3.82-2.92,1.21-2.77,1.7-5.84,2.48-8.79,.84-3.17,1.66-6.34,2.59-9.92l-.03,.02Z"/><path class="cls-1" d="M284.35,195.59c6.39-8.7,16.13-12.8,23.65-19.56-2.04-5.15-2.93-5.5-7.8-3.44-5.06,2.14-10.14,4.21-15.23,6.26-1.09,.44-2.27,.66-3.37,.97-.31-14.67-.73-29.03-.79-43.39,0-1.99,1.32-4.39,2.76-5.9,3.96-4.15,8.29-7.93,12.49-11.84,8.84-8.22,19.73-12.38,31.08-15.61,3.09-.88,5.5-.13,7.73,2.48,16.03,18.74,32.23,37.34,48.3,56.05,2.53,2.95,4.79,6.15,6.99,9.35,.55,.79,.73,2.15,.51,3.11-1.48,6.27-2.31,12.86-4.85,18.69-6.54,14.99-14.88,28.9-28.14,39.17-1.06,.82-2.12,1.68-3.02,2.66-7.88,8.67-18.25,11.1-29.33,12.23-5.41,.55-10.73,2.07-16.09,3.19-4.34,.91-8.42,.44-11.3-3.18-1.16-1.45-1.97-3.76-1.8-5.58,.52-5.69,1.67-11.31,2.39-16.99,.21-1.7,.32-3.76-.42-5.18-3.09-5.93-6.48-11.69-9.84-17.48-1.21-2.09-2.62-4.06-3.89-6.01h-.03Z"/><path class="cls-2" d="M119.05,348.45c7.84,7.57,16.55,7.27,25.65,1.7,3.21,9.48,2.75,18.72,3.81,27.81-.41,.1-.81,.2-1.22,.3-.86-.62-1.69-1.29-2.58-1.85-2.08-1.32-4.92-.34-5.85,2-2.63,6.58-1.32,13.48,4.03,17.77,1.82,1.45,4.64,2.67,7.21,.27,2.14-2,3.52-2.11,4.94,1.27,4.04,9.66,7.02,19.57,9.01,29.85,2.61,13.44,5.47,26.83,8.33,40.21,.55,2.59,1.45,5.15,2.48,7.6,1.59,3.78,1.13,5.93-2.14,8.46-4.73,3.67-9.67,7.12-14.1,11.12-8.91,8.05-17.55,16.41-26.29,24.65-2.25,2.13-4.44,4.33-6.7,6.44-1.53,1.43-3.69,.6-4.52-1.7-1.12-3.12-.77-6.15,.55-9.13,5.58-12.63,9.9-25.69,13.09-39.12,1.88-7.9,3.81-15.81,5.11-23.81,.99-6.13,1.46-12.43,1.4-18.64-.09-9.3-.52-18.62-1.47-27.87-.37-3.57-2.43-7.01-3.94-10.42-1.25-2.83-2.6-5.65-4.26-8.25-5.27-8.23-12.27-14.57-22.26-15.59-2.9-.3-7.14,2.25-9.02,4.78-3.01,4.05-5.04,9.02-6.62,13.88-3.19,9.79-6.1,19.7-8.53,29.7-1.97,8.09-3.07,16.39-4.56,24.6-1.02,5.64-2.24,11.26-3,16.94-.81,5.97-1.09,12-1.77,17.99-.55,4.74-1.48,9.44-2.03,14.19-.69,6.02-1.37,12.05-1.69,18.1-.35,6.53-.29,13.08-.38,19.62-.04,2.65-.09,5.31,.04,7.95,.13,2.63-1.35,3.59-3.58,3.52-5.9-.18-11.8-.48-17.7-.82-2.79-.16-5.6-4.89-5.22-8.47,.66-6.15,1.06-12.34,1.94-18.46,.71-4.93,1.92-9.8,2.99-14.67,2.31-10.48,4.47-21.01,7.08-31.42,1.96-7.8,4.71-15.39,6.78-23.16,1.88-7.04,3.15-14.25,5.01-21.3,2.49-9.45,5.08-18.88,7.99-28.2,2.78-8.91,5.94-17.71,9.15-26.47,1.11-3.03,2.76-5.88,4.32-8.72,2-3.63,5.4-3.29,8.67-2.55,4.64,1.04,8.67-.06,12.2-3.06,2.46-2.1,4.77-4.38,7.65-7.05h0Z"/><path class="cls-2" d="M109.76,539.28c-4.12,.29-8.43,.54-12.73,.93-2.06,.19-4.08,.72-6.13,.95-1.55,.17-3.16,.36-4.67,.1-2.31-.4-5.89-.54-6.54-1.92-1.37-2.92-1.77-6.6-1.55-9.9,.59-8.96,1.53-17.91,2.66-26.82,1.02-8.01,2.61-15.94,3.71-23.94,1.27-9.25,2.11-18.57,3.45-27.81,1.35-9.27,2.58-18.51,5.65-27.54,2.28-6.69,2.62-14.05,3.81-21.11,.93-5.51,1.51-11.1,2.87-16.5,.91-3.59,6.47-5.86,11.21-5.64,7.78,.36,11.4,5.46,13.6,11.84,2.17,6.27,4.14,12.68,5.39,19.18,.81,4.26,.17,8.79,.18,13.2,0,2.85,.26,5.72-.02,8.54-.71,7.18-1.19,14.43-2.61,21.48-2.57,12.75-5.75,25.37-8.69,38.04-1.81,7.77-3.82,15.5-5.43,23.32-1.54,7.46-2.67,15-4.17,23.6h0Z"/><path class="cls-1" d="M465.51,242.46c1.38,6.67,2.41,13.43,4.23,19.98,1.68,6.09,4.27,11.92,6.28,17.92,.34,1.03,.23,2.65-.37,3.49-10.43,14.45-21.19,28.68-31.4,43.28-4.91,7.02-10.36,10.82-19.12,7.69-2.6-.93-5.61-.8-8.14-1.86-2.83-1.19-3.93,.05-4.6,2.27-3.04,10.13-6.2,20.23-8.91,30.45-2.18,8.21-3.76,16.57-5.63,24.93-9.38-13.35-18.72-26.63-28.23-40.16,1.4-1.05,2.56-2.12,3.9-2.9,13.24-7.68,23.02-19.12,32.73-30.51,11.57-13.55,22.79-27.41,33.86-41.38,5.91-7.45,11.17-15.41,16.74-23.13,2.48-3.44,5-6.84,7.5-10.26,.39,.06,.78,.13,1.17,.19h0Z"/><path class="cls-3" d="M221.67,539.93c5.15-4.15,9.34-8.06,14.11-11.09,1.84-1.17,5-.04,7.49-.41,7.79-1.14,15.29,.04,22.74,2.24,1.76,.52,2.4,1.19,2.61,3.19,.81,7.76,1.78,15.51,3.09,23.2,2.26,13.24,4.98,26.4,7.21,39.65,1.97,11.66,3.45,23.41,5.34,35.09,.6,3.71,1.9,7.31,2.74,10.98,.4,1.73,1.32,4.24,.54,5.17-2.04,2.44-4.59,5.07-7.48,6.1-8.75,3.13-18.14-1.56-21.19-10.25-1.89-5.38-3.45-10.89-4.82-16.42-5.08-20.61-9.9-41.28-15.08-61.87-1.78-7.07-4.59-13.88-6.4-20.94-.92-3.58-2.94-4.36-6.02-4.37-1.32,0-2.65-.15-4.88-.28h0Z"/><path class="cls-1" d="M129.6,332.54c2.47-8.56-.46-10.91-11-9.27-1.95-4.05-2.46-8.22-1.15-12.65,1.53-5.17,.44-7.13-4.29-9.73-3.9-2.14-7.77-4.18-8.22-9.76-.57-7.12,2.24-10.01,9.53-9.23,2.62,.28,5.56-.18,8.01-1.16,3.15-1.26,4.64-3.85,4.15-7.66-.64-4.98,1-7.14,5.57-9.07,4.22-1.78,6.34-5.01,6.8-9.57,.12-1.18,.92-2.63,1.87-3.34,5.39-4.05,11.42-6.68,18.06-3.87,6.19,2.62,11.37,7.05,13.74,13.49,1.02,2.78,.42,6.41-.22,9.49-.83,4.03-2.75,7.84-3.62,11.87-1.01,4.68-.85,9.19,2.05,13.65,1.72,2.65,1.8,6.41,2.47,9.7,.21,1.05-.25,2.23-.05,3.28,1.96,10.18-4.72,15.2-11.69,20.36-10,7.4-20.65,6.46-32.02,3.5v-.03Zm18.73-55.6c-.13,4.4,2.01,6.61,6.03,7.19,1.66,.24,3.33,.39,4.98,.68,4.34,.76,6.5-1.86,4.97-6.12-.31-.86-.73-1.69-1.1-2.53-.1,.32-.2,.64-.3,.96-2.32-.29-4.64-.59-6.96-.87-.88-.11-2.47-.41-2.53-.23-1.01,3.12-3.01,1.43-5.08,.92h-.01Zm-2.42-7.51c6.31,4.05,13.07,3.33,19.73,2.23,1.87-.31,2.01-2.27,.27-3.59-.57-.43-1.27-.85-1.96-.93-6.16-.68-12.24-.57-18.04,2.28h0Z"/><path class="cls-1" d="M369.17,447.25c-1.54,6.76-3.02,13.37-4.6,19.95-.16,.66-.9,1.58-1.48,1.68-8.78,1.5-17.57,2.99-26.4,4.19-1.67,.23-3.68-.43-5.23-1.26-17.93-9.48-35.8-19.06-53.68-28.63-.41-.22-.76-.54-.95-.67,9.31-7.7,18.54-15.4,27.88-22.96,.69-.56,2.34-.55,3.26-.15,16.95,7.55,33.86,15.18,50.76,22.84,3.55,1.61,7.03,3.36,10.46,5.01h-.02Z"/><path class="cls-1" d="M197.91,504.13c5.46-1.13,10.89-2.46,16.39-3.32,5.79-.91,8.6,.24,10.76,5.69,1.75,4.41,3.02,9.53,2.55,14.13-.33,3.19-3.37,6.95-6.26,8.89-10.45,7-18.91,16.05-27.52,24.99-4.8,4.99-9.8,9.19-17.19,10.19-9.77,1.33-11.42,.1-13.52-8.13-2.51-9.84-2-19.74,2.87-29,1.42-2.69,3.14-5.23,4.71-7.85,3.36-5.63,7.83-9.82,14.33-11.67,4.3-1.23,8.48-2.83,12.72-4.27l.15,.36h.01Z"/><path class="cls-1" d="M387.24,141.53c-5.65-7.49-6.33-11.12-3.52-14.94,5.19-7.06,18.61-7.6,24.43-.99,6.99,7.94,7.62,17.81,.21,25.85-4.51,4.89-4.82,8.74-1.77,14.12,4.2,7.41,7.77,15.17,11.94,22.6,1.19,2.12,.8,3.55-.09,5.37-10.7,21.81-21.42,43.61-32.02,65.46-8.9,18.34-17.62,36.76-26.5,55.11-1.48,3.07-3.31,5.98-5.07,8.9-1.17,1.94-2.08,4.22-5.3,2.64-4.19-2.06-5.64-3.82-4.31-7.43,1.84-5.01,3.96-9.95,6.34-14.74,9.82-19.79,19.63-39.59,29.76-59.21,7.11-13.77,15.23-27.03,21.9-41,2.78-5.82,5.91-11.95,2.89-19.7-3.79-9.7-5.56-20.19-7.97-30.4-.3-1.26,.64-3,1.4-4.28,1.18-1.97,2.89-3.64,4.04-5.62,2.31-3.97,1.63-8.55-1.35-10.56-2.96-2-9.66-.63-11.88,2.63-1.16,1.7-1.88,3.7-3.1,6.18h-.03Z"/><path class="cls-1" d="M216.49,374.99c-3.85,7.11-7.02,14.2-11.4,20.44-1.8,2.57-6.07,3.9-9.48,4.75-6.13,1.53-12.44,2.45-18.71,3.29-5.31,.72-10.17-.62-14.08-4.55-2.05-2.05-4.1-4.11-6.63-6.64,1.89-.39,3.2-.9,4.5-.89,5.12,.04,10.24,.15,15.35,.41,5.41,.27,9.29-2.85,12.68-6.2,3.42-3.38,2.09-7.79-2.66-8.36-4.31-.52-8.93,.23-13.21,1.25-5.66,1.35-11.09,3.64-16.7,5.23-1.23,.35-2.81-.54-4.22-.86,.53-1.09,.8-2.48,1.64-3.21,8.49-7.38,15.95-16.21,27.52-19.27,4.41-1.17,8.42-1.56,12.58,1.05,7.43,4.66,15.08,8.98,22.83,13.55h0Z"/><path class="cls-1" d="M442.41,259.09c-20.93,25.36-41.85,50.72-62.4,75.63-3.47-5.96-7.07-12.53-11.07-18.84-2.12-3.33-1.57-5.5,1.49-7.6,11.94-8.21,23.91-16.38,35.74-24.74,10.74-7.59,21.31-15.43,31.97-23.14,1.13-.82,2.38-1.48,3.58-2.21,.23,.3,.47,.61,.7,.91h-.01Z"/><path class="cls-1" d="M234.78,419.69c4.72-9.15,9.35-18.12,14.07-27.29,13.84,6.29,27.36,12.42,41.22,18.72-.61,.76-.86,1.28-1.28,1.57-9.17,6.46-18.33,12.92-27.57,19.28-.71,.49-2.15,.65-2.9,.26-7.79-4.05-15.52-8.24-23.55-12.55h0Z"/><path class="cls-1" d="M267.78,503.55c1.51,3.97,2.97,7.97,4.55,11.91,1.66,4.17,.27,6.55-4.2,6.37-8.4-.35-16.8-.88-25.17-1.62-1.44-.13-3.51-1.38-4-2.62-2.64-6.65-4.88-13.45-7.22-20.21-.64-1.85-.03-2.73,2.04-3.29,5.75-1.55,11.33-3.9,17.14-5.06,3.68-.73,7.67-.02,11.5,.33,.83,.08,1.91,1.23,2.24,2.12,1.45,3.87,2.66,7.83,3.96,11.75l-.85,.3v.02Z"/><path class="cls-1" d="M386.25,285.68c15.62-25.77,35.27-48.14,55.73-70.18,.49,9.81,.96,19.23,1.48,29.61-18.39,13.04-37.8,26.81-57.21,40.57h0Z"/><path class="cls-3" d="M127.76,537.53c.8-1.5,1.3-3.29,2.43-4.47,15.31-15.91,30.56-31.97,49.74-43.38,2.53-1.5,6.56-.67,9.88-.58,2.52,.07,5.04,.59,7.53,1.09,.82,.17,1.53,.9,2.29,1.37-.55,.69-.97,1.76-1.68,2.02-5.01,1.89-9.99,3.9-15.15,5.3-4.87,1.32-9.07,3.46-12.36,7.26-6.7,7.75-13.6,15.32-17.54,25.06-1.52,3.76-4.37,6.06-9.07,6.05-5.04,0-10.09,1-15.13,1.56-.32-.43-.63-.87-.95-1.3v.02Z"/><path class="cls-1" d="M223.73,422.26c-5.33-3.69-10.43-7.22-16.37-11.32,5.73-10.51,11.57-21.22,17.33-31.79,4.93,3.04,9.33,5.75,14.01,8.64-4.83,11.11-9.76,22.46-14.98,34.48h.01Z"/><path class="cls-5" d="M148.31,276.94c2.07,.51,4.07,2.19,5.08-.92,.06-.18,1.66,.12,2.53,.23,2.32,.28,4.64,.58,6.96,.87,.1-.32,.2-.64,.3-.96,.37,.84,.79,1.67,1.1,2.53,1.53,4.26-.62,6.88-4.97,6.12-1.65-.29-3.32-.44-4.98-.68-4.02-.58-6.16-2.79-6.03-7.19h.01Z"/><path class="cls-5" d="M145.89,269.43c5.8-2.86,11.88-2.97,18.04-2.28,.68,.08,1.39,.5,1.96,.93,1.74,1.32,1.6,3.28-.27,3.59-6.66,1.1-13.42,1.82-19.73-2.23h0Z"/></g></g></svg>