<?xml version="1.0" encoding="utf-8"?>
<!-- Generator: Adobe Illustrator 27.0.1, SVG Export Plug-In . SVG Version: 6.00 Build 0)  -->
<svg version="1.1" id="Layer_1" xmlns="http://www.w3.org/2000/svg" xmlns:xlink="http://www.w3.org/1999/xlink" x="0px" y="0px"
	 viewBox="0 0 175 190" style="enable-background:new 0 0 175 190;" xml:space="preserve">
<style type="text/css">
	.st0{fill:#A5A49F;}
	.st1{fill:#FFFFFF;}
	.st2{fill:#524C4C;}
	.st3{fill:#828A43;}
	.st4{fill:#B3BD80;}
	.st5{fill:#677432;}
	.st6{fill:#7F7474;}
	.st7{enable-background:new    ;}
</style>
<g>
	<polygon class="st3" points="162.5,138.3 87.5,181.6 12.5,138.3 12.5,51.7 87.5,8.4 162.5,51.7 	"/>
	<g class="st7">
		<path class="st1" d="M44.3,65.9h-2.1v-4.4h-3v4.4h-2.1V55.7h2.1v4.1h3v-4.1h2.1V65.9z"/>
		<path class="st1" d="M48.9,66c-1,0-1.8-0.3-2.4-0.9c-0.6-0.6-0.9-1.5-0.9-2.6v-0.6c0-1.2,0.3-2.1,0.8-2.8c0.5-0.6,1.3-1,2.3-1
			c1,0,1.7,0.3,2.2,0.9c0.5,0.6,0.7,1.5,0.7,2.7v1h-3.9c0,0.6,0.2,1,0.4,1.2c0.2,0.3,0.6,0.4,1,0.4c0.7,0,1.2-0.2,1.7-0.7l0.8,1.2
			c-0.2,0.3-0.6,0.6-1.1,0.8C49.9,65.9,49.4,66,48.9,66z M47.6,61.4h2v-0.2c0-0.5-0.1-0.8-0.2-1c-0.1-0.2-0.4-0.4-0.7-0.4
			c-0.3,0-0.6,0.1-0.8,0.4C47.8,60.4,47.7,60.8,47.6,61.4z"/>
		<path class="st1" d="M56.3,65.9c-0.1-0.1-0.1-0.3-0.2-0.6c-0.4,0.5-0.8,0.7-1.4,0.7c-0.6,0-1.2-0.2-1.6-0.6
			c-0.4-0.4-0.6-1-0.6-1.6c0-0.8,0.3-1.4,0.8-1.8c0.5-0.4,1.2-0.7,2.2-0.7H56v-0.6c0-0.3-0.1-0.6-0.2-0.7c-0.1-0.1-0.3-0.2-0.5-0.2
			c-0.5,0-0.7,0.3-0.7,0.9h-2c0-0.7,0.3-1.3,0.8-1.7c0.5-0.5,1.2-0.7,2-0.7c0.8,0,1.5,0.2,1.9,0.6c0.5,0.4,0.7,1.1,0.7,1.9v3.6
			c0,0.7,0.1,1.2,0.3,1.5v0.1H56.3z M55.1,64.5c0.2,0,0.4,0,0.6-0.1c0.2-0.1,0.3-0.2,0.3-0.3v-1.6h-0.5c-0.3,0-0.6,0.1-0.8,0.3
			c-0.2,0.2-0.3,0.5-0.3,0.9C54.5,64.2,54.7,64.5,55.1,64.5z"/>
		<path class="st1" d="M61.5,65.9h-2V55.1h2V65.9z"/>
		<path class="st1" d="M65.4,56.4v1.9h1v1.5h-1v3.8c0,0.3,0,0.5,0.1,0.6c0.1,0.1,0.2,0.2,0.5,0.2c0.2,0,0.3,0,0.5,0l0,1.5
			C66.1,66,65.7,66,65.3,66c-1.3,0-1.9-0.7-1.9-2.2v-4h-0.9v-1.5h0.9v-1.9H65.4z"/>
		<path class="st1" d="M69.4,59c0.4-0.5,1-0.8,1.6-0.8c0.7,0,1.2,0.2,1.6,0.7c0.4,0.5,0.5,1.2,0.5,2.2v4.8h-2v-4.8
			c0-0.4-0.1-0.8-0.2-1c-0.1-0.2-0.4-0.3-0.7-0.3c-0.4,0-0.6,0.2-0.8,0.5v5.6h-2V55.1h2V59z"/>
		<path class="st1" d="M77.6,63.1c0-0.5,0.1-0.9,0.3-1.3c0.2-0.4,0.6-0.8,1.2-1.3c-0.3-0.4-0.5-0.8-0.6-1.2
			c-0.1-0.4-0.2-0.7-0.2-1.1c0-0.8,0.2-1.4,0.7-1.9c0.4-0.5,1-0.7,1.8-0.7c0.7,0,1.2,0.2,1.7,0.7s0.6,1,0.6,1.7
			c0,0.9-0.4,1.6-1.1,2.2l-0.6,0.5l1.3,1.8c0.2-0.5,0.2-1,0.2-1.6h1.7c0,1.3-0.3,2.4-0.8,3.2l1.3,1.8H83l-0.4-0.5
			C82,65.8,81.3,66,80.5,66c-0.9,0-1.5-0.3-2.1-0.8C77.9,64.7,77.6,64,77.6,63.1z M80.6,64.4c0.4,0,0.7-0.1,1-0.4L80,61.7l0,0
			c-0.2,0.4-0.4,0.8-0.4,1.2c0,0.4,0.1,0.7,0.3,1C80.1,64.3,80.3,64.4,80.6,64.4z M80.1,58.2c0,0.3,0.2,0.7,0.5,1.2l0.3-0.3
			c0.2-0.1,0.3-0.3,0.4-0.5c0.1-0.2,0.1-0.4,0.1-0.6c0-0.2-0.1-0.4-0.2-0.6c-0.1-0.2-0.3-0.2-0.5-0.2c-0.2,0-0.4,0.1-0.5,0.3
			C80.2,57.6,80.1,57.9,80.1,58.2z"/>
		<path class="st1" d="M91.3,58.3l0.1,0.7c0.4-0.6,1-0.9,1.8-0.9c1.3,0,2,0.9,2,2.7v5h-2V61c0-0.4-0.1-0.7-0.2-0.9
			c-0.1-0.2-0.4-0.3-0.7-0.3c-0.4,0-0.6,0.2-0.8,0.6v5.5h-2v-7.6H91.3z"/>
		<path class="st1" d="M100.3,65.2c-0.4,0.6-1,0.8-1.7,0.8c-0.7,0-1.2-0.2-1.6-0.7c-0.4-0.5-0.5-1.2-0.5-2.1v-4.9h2v5
			c0,0.7,0.3,1.1,0.7,1.1c0.5,0,0.8-0.2,1-0.6v-5.5h2v7.6h-1.9L100.3,65.2z"/>
		<path class="st1" d="M105.9,56.4v1.9h1v1.5h-1v3.8c0,0.3,0,0.5,0.1,0.6c0.1,0.1,0.2,0.2,0.5,0.2c0.2,0,0.3,0,0.5,0l0,1.5
			c-0.3,0.1-0.7,0.2-1.1,0.2c-1.3,0-1.9-0.7-1.9-2.2v-4h-0.9v-1.5h0.9v-1.9H105.9z"/>
		<path class="st1" d="M111.8,60.2l-0.7-0.1c-0.5,0-0.9,0.2-1.1,0.7v5h-2v-7.6h1.9l0.1,0.8c0.3-0.6,0.7-1,1.3-1c0.2,0,0.4,0,0.5,0.1
			L111.8,60.2z"/>
		<path class="st1" d="M112.8,56.3c0-0.3,0.1-0.6,0.3-0.8c0.2-0.2,0.5-0.3,0.8-0.3c0.3,0,0.6,0.1,0.8,0.3c0.2,0.2,0.3,0.4,0.3,0.8
			c0,0.3-0.1,0.6-0.3,0.8c-0.2,0.2-0.5,0.3-0.8,0.3c-0.3,0-0.6-0.1-0.8-0.3C112.9,56.9,112.8,56.6,112.8,56.3z M114.9,65.9h-2v-7.6
			h2V65.9z"/>
		<path class="st1" d="M118.7,56.4v1.9h1v1.5h-1v3.8c0,0.3,0,0.5,0.1,0.6c0.1,0.1,0.2,0.2,0.5,0.2c0.2,0,0.3,0,0.5,0l0,1.5
			c-0.3,0.1-0.7,0.2-1.1,0.2c-1.3,0-1.9-0.7-1.9-2.2v-4h-0.9v-1.5h0.9v-1.9H118.7z"/>
		<path class="st1" d="M120.8,56.3c0-0.3,0.1-0.6,0.3-0.8c0.2-0.2,0.5-0.3,0.8-0.3c0.3,0,0.6,0.1,0.8,0.3c0.2,0.2,0.3,0.4,0.3,0.8
			c0,0.3-0.1,0.6-0.3,0.8c-0.2,0.2-0.5,0.3-0.8,0.3c-0.3,0-0.6-0.1-0.8-0.3C120.9,56.9,120.8,56.6,120.8,56.3z M122.9,65.9h-2v-7.6
			h2V65.9z"/>
		<path class="st1" d="M124.2,61.8c0-1.1,0.3-2.1,0.8-2.7c0.5-0.7,1.3-1,2.3-1c1,0,1.7,0.3,2.3,1c0.5,0.7,0.8,1.6,0.8,2.7v0.5
			c0,1.2-0.3,2.1-0.8,2.7c-0.5,0.6-1.3,1-2.3,1c-1,0-1.7-0.3-2.3-1c-0.5-0.7-0.8-1.6-0.8-2.7V61.8z M126.2,62.3c0,1.4,0.4,2,1.1,2
			c0.7,0,1-0.6,1.1-1.7l0-0.8c0-0.7-0.1-1.2-0.3-1.5c-0.2-0.3-0.5-0.5-0.8-0.5c-0.3,0-0.6,0.2-0.8,0.5c-0.2,0.3-0.3,0.8-0.3,1.5
			V62.3z"/>
		<path class="st1" d="M133.4,58.3l0.1,0.7c0.4-0.6,1-0.9,1.8-0.9c1.3,0,2,0.9,2,2.7v5h-2V61c0-0.4-0.1-0.7-0.2-0.9
			c-0.1-0.2-0.4-0.3-0.7-0.3c-0.4,0-0.6,0.2-0.8,0.6v5.5h-2v-7.6H133.4z"/>
	</g>
	<g>
		<path class="st1" d="M47.8,87.1c0-0.3-0.1-0.6-0.3-0.8c-0.2-0.2-0.5-0.4-1-0.5c-0.5-0.2-0.8-0.4-1.1-0.5c-0.3-0.2-0.4-0.4-0.6-0.6
			s-0.2-0.5-0.2-0.8c0-0.5,0.2-1,0.5-1.3c0.4-0.3,0.8-0.5,1.4-0.5c0.4,0,0.8,0.1,1.1,0.3c0.3,0.2,0.6,0.4,0.7,0.7
			c0.2,0.3,0.3,0.7,0.3,1h-0.9c0-0.4-0.1-0.7-0.3-1c-0.2-0.2-0.5-0.3-0.9-0.3c-0.3,0-0.6,0.1-0.8,0.3c-0.2,0.2-0.3,0.5-0.3,0.8
			c0,0.3,0.1,0.5,0.3,0.7c0.2,0.2,0.5,0.4,1,0.5c0.7,0.2,1.1,0.5,1.4,0.8c0.3,0.3,0.4,0.7,0.4,1.3c0,0.6-0.2,1-0.5,1.3
			c-0.4,0.3-0.8,0.5-1.5,0.5c-0.4,0-0.8-0.1-1.1-0.3c-0.3-0.2-0.6-0.4-0.8-0.7c-0.2-0.3-0.3-0.7-0.3-1.1h0.9c0,0.4,0.1,0.7,0.4,1
			c0.2,0.2,0.6,0.3,1,0.3c0.4,0,0.7-0.1,0.8-0.3C47.7,87.7,47.8,87.5,47.8,87.1L47.8,87.1z"/>
		<path class="st1" d="M52.2,88.4C51.9,88.8,51.5,89,51,89c-0.5,0-0.8-0.2-1-0.5c-0.2-0.3-0.4-0.8-0.4-1.4v-3.3h0.8V87
			c0,0.8,0.2,1.2,0.7,1.2c0.5,0,0.8-0.2,1-0.7v-3.7H53v5.1h-0.8L52.2,88.4L52.2,88.4z"/>
		<path class="st1" d="M57.9,86.6c0,0.8-0.1,1.4-0.4,1.8c-0.3,0.4-0.7,0.6-1.2,0.6s-0.9-0.2-1.2-0.6v2.4h-0.8v-7H55l0,0.6
			c0.3-0.4,0.7-0.7,1.2-0.7c0.6,0,1,0.2,1.2,0.6c0.3,0.4,0.4,1,0.4,1.7V86.6z M57.1,86.1c0-0.6-0.1-1-0.3-1.3
			c-0.2-0.3-0.5-0.4-0.8-0.4c-0.4,0-0.7,0.2-0.9,0.6v2.6c0.2,0.4,0.5,0.6,0.9,0.6c0.4,0,0.6-0.1,0.8-0.4c0.2-0.3,0.3-0.7,0.3-1.2
			V86.1L57.1,86.1z"/>
		<path class="st1" d="M62.6,86.6c0,0.8-0.1,1.4-0.4,1.8C61.9,88.8,61.5,89,61,89s-0.9-0.2-1.2-0.6v2.4H59v-7h0.7l0,0.6
			c0.3-0.4,0.7-0.7,1.2-0.7c0.6,0,1,0.2,1.2,0.6c0.3,0.4,0.4,1,0.4,1.7L62.6,86.6L62.6,86.6z M61.8,86.1c0-0.6-0.1-1-0.3-1.3
			c-0.2-0.3-0.5-0.4-0.8-0.4S60,84.6,59.8,85v2.6c0.2,0.4,0.5,0.6,0.9,0.6c0.4,0,0.6-0.1,0.8-0.4c0.2-0.3,0.3-0.7,0.3-1.2L61.8,86.1
			L61.8,86.1z"/>
		<path class="st1" d="M64.6,88.9h-0.8v-7.2h0.8V88.9z"/>
		<path class="st1" d="M67.7,89c-0.6,0-1.1-0.2-1.4-0.6c-0.3-0.4-0.5-0.9-0.5-1.7v-0.6c0-0.8,0.2-1.3,0.5-1.8s0.8-0.6,1.4-0.6
			c0.6,0,1,0.2,1.3,0.6c0.3,0.4,0.4,1,0.5,1.8v0.5h-2.8v0.1c0,0.5,0.1,0.9,0.3,1.2c0.2,0.2,0.5,0.4,0.9,0.4c0.2,0,0.5,0,0.6-0.1
			c0.2-0.1,0.4-0.2,0.5-0.4l0.4,0.5C69,88.7,68.4,89,67.7,89L67.7,89z M67.6,84.4c-0.3,0-0.6,0.1-0.8,0.4c-0.2,0.2-0.3,0.6-0.3,1.1
			h2v-0.1c0-0.5-0.1-0.8-0.3-1C68.2,84.5,67.9,84.4,67.6,84.4L67.6,84.4z"/>
		<path class="st1" d="M71.2,83.8l0,0.5c0.3-0.4,0.7-0.6,1.2-0.6c0.6,0,1,0.2,1.2,0.7c0.3-0.5,0.8-0.7,1.3-0.7
			c0.9,0,1.4,0.6,1.4,1.7v3.4h-0.8v-3.3c0-0.4-0.1-0.6-0.2-0.8s-0.4-0.3-0.7-0.3c-0.2,0-0.5,0.1-0.6,0.3c-0.2,0.2-0.2,0.4-0.3,0.7
			v3.4H73v-3.4c0-0.7-0.3-1.1-0.9-1.1c-0.4,0-0.7,0.2-0.9,0.6v3.8h-0.8v-5.1L71.2,83.8L71.2,83.8z"/>
		<path class="st1" d="M79.4,89c-0.6,0-1.1-0.2-1.4-0.6c-0.3-0.4-0.5-0.9-0.5-1.7v-0.6c0-0.8,0.2-1.3,0.5-1.8s0.8-0.6,1.4-0.6
			s1,0.2,1.3,0.6c0.3,0.4,0.4,1,0.5,1.8v0.5h-2.8v0.1c0,0.5,0.1,0.9,0.3,1.2c0.2,0.2,0.5,0.4,0.9,0.4c0.2,0,0.5,0,0.6-0.1
			c0.2-0.1,0.4-0.2,0.5-0.4l0.4,0.5C80.7,88.7,80.1,89,79.4,89L79.4,89z M79.3,84.4c-0.3,0-0.6,0.1-0.8,0.4
			c-0.2,0.2-0.3,0.6-0.3,1.1h2v-0.1c0-0.5-0.1-0.8-0.3-1C79.8,84.5,79.6,84.4,79.3,84.4L79.3,84.4z"/>
		<path class="st1" d="M82.9,83.8l0,0.5c0.3-0.4,0.7-0.6,1.2-0.6c0.9,0,1.3,0.6,1.4,1.8v3.4h-0.8v-3.3c0-0.4-0.1-0.7-0.2-0.8
			c-0.1-0.2-0.3-0.2-0.6-0.2c-0.2,0-0.4,0.1-0.6,0.2c-0.2,0.1-0.3,0.3-0.4,0.5v3.7h-0.8v-5.1H82.9L82.9,83.8z"/>
		<path class="st1" d="M87.8,82.6v1.2h0.8v0.7h-0.8v3.1c0,0.2,0,0.4,0.1,0.5c0.1,0.1,0.2,0.2,0.3,0.2c0.1,0,0.2,0,0.3-0.1l0,0.7
			C88.4,88.9,88.2,89,88,89c-0.3,0-0.6-0.1-0.7-0.3c-0.2-0.2-0.3-0.6-0.3-1v-3.1h-0.8v-0.7H87v-1.2L87.8,82.6L87.8,82.6z"/>
		<path class="st1" d="M92.1,88.9c-0.1-0.1-0.1-0.3-0.1-0.6c-0.3,0.4-0.7,0.6-1.1,0.6s-0.8-0.1-1.1-0.4c-0.3-0.3-0.4-0.6-0.4-1.1
			c0-0.5,0.2-0.9,0.5-1.2c0.3-0.3,0.8-0.5,1.4-0.5H92v-0.5c0-0.3-0.1-0.5-0.2-0.6c-0.1-0.1-0.3-0.2-0.6-0.2c-0.2,0-0.5,0.1-0.6,0.2
			s-0.2,0.3-0.2,0.6h-0.8c0-0.3,0.1-0.5,0.2-0.7c0.2-0.2,0.4-0.4,0.6-0.6c0.3-0.1,0.5-0.2,0.9-0.2c0.5,0,0.9,0.1,1.2,0.4
			c0.3,0.3,0.4,0.6,0.4,1.1v2.6c0,0.4,0.1,0.7,0.2,1v0.1L92.1,88.9L92.1,88.9z M91,88.2c0.2,0,0.4-0.1,0.6-0.2
			c0.2-0.1,0.3-0.3,0.4-0.4v-1.2h-0.5c-0.4,0-0.7,0.1-0.9,0.3c-0.2,0.2-0.3,0.4-0.3,0.7c0,0.3,0.1,0.5,0.2,0.6
			C90.6,88.1,90.8,88.2,91,88.2L91,88.2z"/>
		<path class="st1" d="M95,88.9h-0.8v-7.2H95V88.9z"/>
		<path class="st1" d="M103.1,88.9h-0.9l-2.7-5.2v5.2h-0.9v-6.8h0.9l2.7,5.3v-5.3h0.8L103.1,88.9L103.1,88.9z"/>
		<path class="st1" d="M107,88.4c-0.3,0.4-0.7,0.5-1.2,0.5c-0.5,0-0.8-0.2-1-0.5c-0.2-0.3-0.4-0.8-0.4-1.4v-3.3h0.8V87
			c0,0.8,0.2,1.2,0.7,1.2c0.5,0,0.8-0.2,1-0.7v-3.7h0.8v5.1H107L107,88.4L107,88.4z"/>
		<path class="st1" d="M110.1,82.6v1.2h0.8v0.7h-0.8v3.1c0,0.2,0,0.4,0.1,0.5c0.1,0.1,0.2,0.2,0.3,0.2c0.1,0,0.2,0,0.3-0.1l0,0.7
			c-0.2,0.1-0.4,0.1-0.6,0.1c-0.3,0-0.6-0.1-0.7-0.3c-0.2-0.2-0.3-0.6-0.3-1v-3.1h-0.8v-0.7h0.8v-1.2L110.1,82.6L110.1,82.6z"/>
		<path class="st1" d="M114,84.6c-0.1,0-0.2,0-0.4,0c-0.4,0-0.7,0.2-0.9,0.7v3.6h-0.8v-5.1h0.8l0,0.5c0.2-0.4,0.5-0.6,0.9-0.6
			c0.1,0,0.2,0,0.3,0.1L114,84.6L114,84.6z"/>
		<path class="st1" d="M115.8,82.5c0,0.1,0,0.3-0.1,0.3c-0.1,0.1-0.2,0.1-0.4,0.1c-0.2,0-0.3,0-0.3-0.1s-0.1-0.2-0.1-0.3
			c0-0.1,0-0.3,0.1-0.4c0.1-0.1,0.2-0.1,0.3-0.1s0.3,0.1,0.4,0.1C115.7,82.2,115.8,82.3,115.8,82.5z M115.7,88.9h-0.8v-5.1h0.8V88.9
			z"/>
		<path class="st1" d="M118.1,82.6v1.2h0.8v0.7h-0.8v3.1c0,0.2,0,0.4,0.1,0.5c0.1,0.1,0.2,0.2,0.3,0.2c0.1,0,0.2,0,0.3-0.1l0,0.7
			c-0.2,0.1-0.4,0.1-0.6,0.1c-0.3,0-0.6-0.1-0.7-0.3c-0.2-0.2-0.3-0.6-0.3-1v-3.1h-0.8v-0.7h0.8v-1.2L118.1,82.6L118.1,82.6z"/>
		<path class="st1" d="M120.8,82.5c0,0.1,0,0.3-0.1,0.3c-0.1,0.1-0.2,0.1-0.4,0.1c-0.2,0-0.3,0-0.3-0.1c-0.1-0.1-0.1-0.2-0.1-0.3
			c0-0.1,0-0.3,0.1-0.4c0.1-0.1,0.2-0.1,0.3-0.1c0.2,0,0.3,0.1,0.4,0.1C120.7,82.2,120.8,82.3,120.8,82.5z M120.7,88.9h-0.8v-5.1
			h0.8V88.9z"/>
		<path class="st1" d="M121.8,86.1c0-0.7,0.2-1.3,0.5-1.7s0.8-0.6,1.4-0.6c0.6,0,1.1,0.2,1.4,0.6s0.5,1,0.5,1.7v0.5
			c0,0.7-0.2,1.3-0.5,1.7s-0.8,0.6-1.4,0.6c-0.6,0-1.1-0.2-1.4-0.6c-0.4-0.4-0.5-1-0.5-1.7L121.8,86.1L121.8,86.1z M122.7,86.6
			c0,0.5,0.1,0.9,0.3,1.2s0.5,0.4,0.8,0.4c0.7,0,1.1-0.5,1.1-1.6v-0.6c0-0.5-0.1-0.9-0.3-1.2c-0.2-0.3-0.5-0.5-0.8-0.5
			c-0.3,0-0.6,0.2-0.8,0.5c-0.2,0.3-0.3,0.7-0.3,1.2L122.7,86.6L122.7,86.6z"/>
		<path class="st1" d="M127.6,83.8l0,0.5c0.3-0.4,0.7-0.6,1.2-0.6c0.9,0,1.3,0.6,1.4,1.8v3.4h-0.8v-3.3c0-0.4-0.1-0.7-0.2-0.8
			c-0.1-0.2-0.3-0.2-0.6-0.2c-0.2,0-0.4,0.1-0.6,0.2c-0.2,0.1-0.3,0.3-0.4,0.5v3.7h-0.8v-5.1H127.6L127.6,83.8z"/>
		<path class="st1" d="M53.3,98.6H51l-0.5,1.8h-0.9l2.2-6.8h0.7l2.2,6.8h-0.9L53.3,98.6L53.3,98.6z M51.2,97.8h1.9l-0.9-3.1
			L51.2,97.8L51.2,97.8z"/>
		<path class="st1" d="M58,99.1c0-0.2-0.1-0.3-0.2-0.5c-0.1-0.1-0.4-0.3-0.8-0.5c-0.4-0.2-0.8-0.3-0.9-0.5s-0.3-0.3-0.4-0.4
			c-0.1-0.2-0.1-0.4-0.1-0.6c0-0.4,0.2-0.8,0.5-1c0.3-0.3,0.7-0.4,1.2-0.4c0.5,0,0.9,0.1,1.2,0.4c0.3,0.3,0.5,0.7,0.5,1.1h-0.8
			c0-0.2-0.1-0.4-0.2-0.6c-0.2-0.2-0.3-0.2-0.6-0.2c-0.2,0-0.4,0.1-0.6,0.2c-0.1,0.1-0.2,0.3-0.2,0.5c0,0.2,0.1,0.3,0.2,0.4
			c0.1,0.1,0.3,0.2,0.7,0.4c0.6,0.2,1,0.5,1.3,0.7c0.2,0.2,0.3,0.5,0.3,0.9c0,0.4-0.2,0.8-0.5,1.1c-0.3,0.3-0.7,0.4-1.2,0.4
			c-0.5,0-1-0.2-1.3-0.5c-0.3-0.3-0.5-0.7-0.5-1.1h0.8c0,0.3,0.1,0.5,0.3,0.7c0.2,0.2,0.4,0.2,0.7,0.2c0.3,0,0.5-0.1,0.6-0.2
			C57.9,99.4,58,99.3,58,99.1L58,99.1z"/>
		<path class="st1" d="M62.3,99.1c0-0.2-0.1-0.3-0.2-0.5c-0.1-0.1-0.4-0.3-0.8-0.5c-0.4-0.2-0.8-0.3-0.9-0.5s-0.3-0.3-0.4-0.4
			c-0.1-0.2-0.1-0.4-0.1-0.6c0-0.4,0.2-0.8,0.5-1c0.3-0.3,0.7-0.4,1.2-0.4c0.5,0,0.9,0.1,1.2,0.4c0.3,0.3,0.5,0.7,0.5,1.1h-0.8
			c0-0.2-0.1-0.4-0.2-0.6c-0.2-0.2-0.3-0.2-0.6-0.2s-0.4,0.1-0.6,0.2c-0.1,0.1-0.2,0.3-0.2,0.5c0,0.2,0.1,0.3,0.2,0.4
			c0.1,0.1,0.3,0.2,0.7,0.4c0.6,0.2,1,0.5,1.3,0.7c0.2,0.2,0.3,0.5,0.3,0.9c0,0.4-0.2,0.8-0.5,1.1c-0.3,0.3-0.7,0.4-1.2,0.4
			c-0.5,0-1-0.2-1.3-0.5s-0.5-0.7-0.5-1.1h0.8c0,0.3,0.1,0.5,0.3,0.7c0.2,0.2,0.4,0.2,0.7,0.2c0.3,0,0.5-0.1,0.6-0.2
			C62.3,99.4,62.3,99.3,62.3,99.1L62.3,99.1z"/>
		<path class="st1" d="M65.2,94c0,0.1,0,0.3-0.1,0.3c-0.1,0.1-0.2,0.1-0.4,0.1s-0.3,0-0.3-0.1c-0.1-0.1-0.1-0.2-0.1-0.3
			s0-0.3,0.1-0.4c0.1-0.1,0.2-0.1,0.3-0.1s0.3,0.1,0.4,0.1C65.2,93.7,65.2,93.8,65.2,94z M65.1,100.4h-0.8v-5.1h0.8V100.4z"/>
		<path class="st1" d="M68.9,99.1c0-0.2-0.1-0.3-0.2-0.5c-0.1-0.1-0.4-0.3-0.8-0.5c-0.4-0.2-0.8-0.3-0.9-0.5s-0.3-0.3-0.4-0.4
			c-0.1-0.2-0.1-0.4-0.1-0.6c0-0.4,0.2-0.8,0.5-1c0.3-0.3,0.7-0.4,1.2-0.4c0.5,0,0.9,0.1,1.2,0.4c0.3,0.3,0.5,0.7,0.5,1.1h-0.8
			c0-0.2-0.1-0.4-0.2-0.6c-0.2-0.2-0.3-0.2-0.6-0.2s-0.4,0.1-0.6,0.2c-0.1,0.1-0.2,0.3-0.2,0.5c0,0.2,0.1,0.3,0.2,0.4
			c0.1,0.1,0.3,0.2,0.7,0.4c0.6,0.2,1,0.5,1.3,0.7c0.2,0.2,0.3,0.5,0.3,0.9c0,0.4-0.2,0.8-0.5,1.1c-0.3,0.3-0.7,0.4-1.2,0.4
			c-0.5,0-1-0.2-1.3-0.5s-0.5-0.7-0.5-1.1h0.8c0,0.3,0.1,0.5,0.3,0.7c0.2,0.2,0.4,0.2,0.7,0.2c0.3,0,0.5-0.1,0.6-0.2
			C68.8,99.4,68.9,99.3,68.9,99.1L68.9,99.1z"/>
		<path class="st1" d="M71.9,94.1v1.2h0.8V96h-0.8v3.1c0,0.2,0,0.4,0.1,0.5c0.1,0.1,0.2,0.2,0.3,0.2c0.1,0,0.2,0,0.3-0.1l0,0.7
			c-0.2,0.1-0.4,0.1-0.6,0.1c-0.3,0-0.6-0.1-0.7-0.3c-0.2-0.2-0.3-0.6-0.3-1V96h-0.8v-0.7h0.8v-1.2L71.9,94.1L71.9,94.1z"/>
		<path class="st1" d="M76.2,100.4c-0.1-0.1-0.1-0.3-0.1-0.6c-0.3,0.4-0.7,0.6-1.1,0.6c-0.5,0-0.8-0.1-1.1-0.4
			c-0.3-0.3-0.4-0.6-0.4-1.1c0-0.5,0.2-0.9,0.5-1.2c0.3-0.3,0.8-0.5,1.4-0.5h0.6v-0.5c0-0.3-0.1-0.5-0.2-0.6
			c-0.1-0.1-0.3-0.2-0.6-0.2c-0.2,0-0.5,0.1-0.6,0.2c-0.2,0.1-0.2,0.3-0.2,0.6h-0.8c0-0.3,0.1-0.5,0.2-0.7c0.2-0.2,0.4-0.4,0.6-0.6
			c0.3-0.1,0.5-0.2,0.9-0.2c0.5,0,0.9,0.1,1.2,0.4c0.3,0.3,0.4,0.6,0.4,1.1v2.6c0,0.4,0.1,0.7,0.2,1v0.1L76.2,100.4L76.2,100.4z
			 M75.1,99.7c0.2,0,0.4-0.1,0.6-0.2c0.2-0.1,0.3-0.3,0.4-0.4v-1.2h-0.5c-0.4,0-0.7,0.1-0.9,0.3c-0.2,0.2-0.3,0.4-0.3,0.7
			c0,0.3,0.1,0.5,0.2,0.6C74.7,99.6,74.9,99.7,75.1,99.7L75.1,99.7z"/>
		<path class="st1" d="M79,95.3l0,0.5c0.3-0.4,0.7-0.6,1.2-0.6c0.9,0,1.3,0.6,1.4,1.8v3.4h-0.8V97c0-0.4-0.1-0.7-0.2-0.8
			c-0.1-0.2-0.3-0.2-0.6-0.2c-0.2,0-0.4,0.1-0.6,0.2c-0.2,0.1-0.3,0.3-0.4,0.5v3.7h-0.8v-5.1H79L79,95.3z"/>
		<path class="st1" d="M84.6,99.7c0.3,0,0.5-0.1,0.7-0.3c0.2-0.2,0.3-0.4,0.3-0.7h0.8c0,0.5-0.2,0.9-0.5,1.2
			c-0.3,0.3-0.7,0.5-1.2,0.5c-0.6,0-1.1-0.2-1.4-0.6c-0.3-0.4-0.5-1-0.5-1.8v-0.6c0-0.8,0.2-1.3,0.5-1.7c0.3-0.4,0.8-0.6,1.4-0.6
			c0.5,0,0.9,0.2,1.2,0.5s0.5,0.8,0.5,1.3h-0.8c0-0.4-0.1-0.7-0.3-0.8c-0.2-0.2-0.4-0.3-0.7-0.3c-0.4,0-0.6,0.1-0.8,0.4
			s-0.3,0.6-0.3,1.2v0.6c0,0.6,0.1,1,0.3,1.3C84,99.6,84.2,99.7,84.6,99.7L84.6,99.7z"/>
		<path class="st1" d="M89.1,100.4c-0.6,0-1.1-0.2-1.4-0.6c-0.3-0.4-0.5-0.9-0.5-1.7v-0.6c0-0.8,0.2-1.3,0.5-1.8s0.8-0.6,1.4-0.6
			s1,0.2,1.3,0.6c0.3,0.4,0.4,1,0.5,1.8v0.5h-2.8v0.1c0,0.5,0.1,0.9,0.3,1.2c0.2,0.2,0.5,0.4,0.9,0.4c0.2,0,0.5,0,0.6-0.1
			c0.2-0.1,0.4-0.2,0.5-0.4l0.4,0.5C90.4,100.2,89.8,100.4,89.1,100.4L89.1,100.4z M89,95.9c-0.3,0-0.6,0.1-0.8,0.4
			c-0.2,0.2-0.3,0.6-0.3,1.1h2v-0.1c0-0.5-0.1-0.8-0.3-1C89.5,96,89.3,95.9,89,95.9L89,95.9z"/>
		<path class="st1" d="M94.9,97.7v2.7h-0.9v-6.8h2.2c0.6,0,1.1,0.2,1.5,0.6c0.4,0.4,0.5,0.9,0.5,1.5s-0.2,1.2-0.5,1.5
			c-0.3,0.4-0.8,0.5-1.5,0.5L94.9,97.7L94.9,97.7z M94.9,97h1.3c0.4,0,0.7-0.1,0.9-0.3c0.2-0.2,0.3-0.6,0.3-1s-0.1-0.7-0.3-1
			s-0.5-0.4-0.9-0.4h-1.3L94.9,97L94.9,97z"/>
		<path class="st1" d="M101.4,96.1c-0.1,0-0.2,0-0.4,0c-0.4,0-0.7,0.2-0.9,0.7v3.6h-0.8v-5.1h0.8l0,0.5c0.2-0.4,0.5-0.6,0.9-0.6
			c0.1,0,0.2,0,0.3,0.1L101.4,96.1L101.4,96.1z"/>
		<path class="st1" d="M101.9,97.6c0-0.7,0.2-1.3,0.5-1.7s0.8-0.6,1.4-0.6c0.6,0,1.1,0.2,1.4,0.6s0.5,1,0.5,1.7v0.5
			c0,0.7-0.2,1.3-0.5,1.7c-0.4,0.4-0.8,0.6-1.4,0.6s-1.1-0.2-1.4-0.6c-0.4-0.4-0.5-1-0.5-1.7L101.9,97.6L101.9,97.6z M102.7,98.1
			c0,0.5,0.1,0.9,0.3,1.2c0.2,0.3,0.5,0.4,0.8,0.4c0.7,0,1.1-0.5,1.1-1.6v-0.6c0-0.5-0.1-0.9-0.3-1.2c-0.2-0.3-0.5-0.5-0.8-0.5
			c-0.3,0-0.6,0.2-0.8,0.5s-0.3,0.7-0.3,1.2V98.1L102.7,98.1z"/>
		<path class="st1" d="M106.7,97.6c0-0.8,0.1-1.4,0.4-1.8c0.3-0.4,0.7-0.6,1.3-0.6c0.5,0,0.9,0.2,1.2,0.7l0-0.6h0.7v5.1
			c0,0.6-0.2,1.1-0.5,1.4c-0.3,0.3-0.8,0.5-1.3,0.5c-0.2,0-0.5-0.1-0.8-0.2c-0.3-0.1-0.5-0.3-0.7-0.5l0.3-0.6
			c0.3,0.3,0.7,0.5,1.1,0.5c0.7,0,1-0.4,1.1-1.1v-0.7c-0.3,0.4-0.6,0.6-1.1,0.6c-0.5,0-0.9-0.2-1.2-0.6s-0.4-1-0.5-1.7L106.7,97.6
			L106.7,97.6z M107.6,98.1c0,0.6,0.1,1,0.2,1.2c0.2,0.3,0.4,0.4,0.8,0.4c0.4,0,0.7-0.2,0.9-0.6v-2.5c-0.2-0.4-0.5-0.6-0.9-0.6
			c-0.4,0-0.7,0.1-0.8,0.4s-0.3,0.7-0.3,1.2V98.1L107.6,98.1z"/>
		<path class="st1" d="M113.7,96.1c-0.1,0-0.2,0-0.4,0c-0.4,0-0.7,0.2-0.9,0.7v3.6h-0.8v-5.1h0.8l0,0.5c0.2-0.4,0.5-0.6,0.9-0.6
			c0.1,0,0.2,0,0.3,0.1L113.7,96.1L113.7,96.1z"/>
		<path class="st1" d="M116.9,100.4c-0.1-0.1-0.1-0.3-0.1-0.6c-0.3,0.4-0.7,0.6-1.1,0.6s-0.8-0.1-1.1-0.4c-0.3-0.3-0.4-0.6-0.4-1.1
			c0-0.5,0.2-0.9,0.5-1.2c0.3-0.3,0.8-0.5,1.4-0.5h0.6v-0.5c0-0.3-0.1-0.5-0.2-0.6c-0.1-0.1-0.3-0.2-0.6-0.2c-0.2,0-0.5,0.1-0.6,0.2
			c-0.2,0.1-0.2,0.3-0.2,0.6h-0.8c0-0.3,0.1-0.5,0.2-0.7c0.2-0.2,0.4-0.4,0.6-0.6c0.3-0.1,0.5-0.2,0.9-0.2c0.5,0,0.9,0.1,1.2,0.4
			c0.3,0.3,0.4,0.6,0.4,1.1v2.6c0,0.4,0.1,0.7,0.2,1v0.1L116.9,100.4L116.9,100.4z M115.8,99.7c0.2,0,0.4-0.1,0.6-0.2
			c0.2-0.1,0.3-0.3,0.4-0.4v-1.2h-0.5c-0.4,0-0.7,0.1-0.9,0.3c-0.2,0.2-0.3,0.4-0.3,0.7c0,0.3,0.1,0.5,0.2,0.6
			C115.4,99.6,115.6,99.7,115.8,99.7L115.8,99.7z"/>
		<path class="st1" d="M119.7,95.3l0,0.5c0.3-0.4,0.7-0.6,1.2-0.6c0.6,0,1,0.2,1.2,0.7c0.3-0.5,0.8-0.7,1.3-0.7
			c0.9,0,1.4,0.6,1.4,1.7v3.4h-0.8V97c0-0.4-0.1-0.6-0.2-0.8c-0.1-0.2-0.4-0.3-0.7-0.3c-0.2,0-0.5,0.1-0.6,0.3
			c-0.2,0.2-0.2,0.4-0.3,0.7v3.4h-0.8V97c0-0.7-0.3-1.1-0.9-1.1c-0.4,0-0.7,0.2-0.9,0.6v3.8h-0.8v-5.1L119.7,95.3L119.7,95.3z"/>
		<path class="st1" d="M72,105l1.8,5.6l1.8-5.6h1.1v6.8h-0.9v-2.6l0.1-2.7l-1.8,5.3h-0.7l-1.8-5.3l0.1,2.6v2.6h-0.9V105L72,105
			L72,105z"/>
		<path class="st1" d="M79.8,111.9c-0.6,0-1.1-0.2-1.4-0.6c-0.3-0.4-0.5-0.9-0.5-1.7v-0.6c0-0.8,0.2-1.3,0.5-1.8
			c0.3-0.4,0.8-0.6,1.4-0.6c0.6,0,1,0.2,1.3,0.6c0.3,0.4,0.4,1,0.5,1.8v0.5h-2.8v0.1c0,0.5,0.1,0.9,0.3,1.2s0.5,0.4,0.9,0.4
			c0.2,0,0.5,0,0.6-0.1c0.2-0.1,0.4-0.2,0.5-0.4l0.4,0.5C81.1,111.7,80.5,111.9,79.8,111.9L79.8,111.9z M79.7,107.4
			c-0.3,0-0.6,0.1-0.8,0.4c-0.2,0.2-0.3,0.6-0.3,1.1h2v-0.1c0-0.5-0.1-0.8-0.3-1C80.2,107.5,80,107.4,79.7,107.4L79.7,107.4z"/>
		<path class="st1" d="M82.3,109.1c0-0.8,0.1-1.4,0.4-1.8c0.3-0.4,0.7-0.6,1.3-0.6c0.5,0,0.9,0.2,1.1,0.6v-2.6H86v7.2h-0.8l0-0.5
			c-0.3,0.4-0.7,0.6-1.2,0.6s-0.9-0.2-1.2-0.6c-0.3-0.4-0.5-1-0.5-1.7L82.3,109.1L82.3,109.1z M83.1,109.6c0,0.6,0.1,1,0.3,1.2
			c0.2,0.3,0.4,0.4,0.8,0.4c0.4,0,0.7-0.2,0.9-0.6V108c-0.2-0.4-0.5-0.6-0.9-0.6s-0.7,0.1-0.8,0.4c-0.2,0.3-0.3,0.7-0.3,1.2V109.6
			L83.1,109.6z"/>
		<path class="st1" d="M88.2,105.4c0,0.1,0,0.3-0.1,0.3c-0.1,0.1-0.2,0.1-0.4,0.1c-0.2,0-0.3,0-0.3-0.1c-0.1-0.1-0.1-0.2-0.1-0.3
			c0-0.1,0-0.3,0.1-0.4c0.1-0.1,0.2-0.1,0.3-0.1c0.2,0,0.3,0.1,0.4,0.1C88.1,105.2,88.2,105.3,88.2,105.4z M88.1,111.8h-0.8v-5.1
			h0.8V111.8z"/>
		<path class="st1" d="M91.2,111.2c0.3,0,0.5-0.1,0.7-0.3c0.2-0.2,0.3-0.4,0.3-0.7h0.8c0,0.5-0.2,0.9-0.5,1.2
			c-0.3,0.3-0.7,0.5-1.2,0.5c-0.6,0-1.1-0.2-1.4-0.6c-0.3-0.4-0.5-1-0.5-1.8V109c0-0.8,0.2-1.3,0.5-1.7s0.8-0.6,1.4-0.6
			c0.5,0,0.9,0.2,1.2,0.5s0.5,0.8,0.5,1.3h-0.8c0-0.4-0.1-0.7-0.3-0.8c-0.2-0.2-0.4-0.3-0.7-0.3c-0.4,0-0.6,0.1-0.8,0.4
			s-0.3,0.6-0.3,1.2v0.6c0,0.6,0.1,1,0.3,1.3C90.5,111.1,90.8,111.2,91.2,111.2L91.2,111.2z"/>
		<path class="st1" d="M96.4,111.8c-0.1-0.1-0.1-0.3-0.1-0.6c-0.3,0.4-0.7,0.6-1.1,0.6s-0.8-0.1-1.1-0.4c-0.3-0.3-0.4-0.6-0.4-1.1
			c0-0.5,0.2-0.9,0.5-1.2c0.3-0.3,0.8-0.5,1.4-0.5h0.6v-0.5c0-0.3-0.1-0.5-0.2-0.6c-0.1-0.1-0.3-0.2-0.6-0.2c-0.2,0-0.5,0.1-0.6,0.2
			c-0.2,0.1-0.2,0.3-0.2,0.6h-0.8c0-0.3,0.1-0.5,0.2-0.7s0.4-0.4,0.6-0.6c0.3-0.1,0.5-0.2,0.9-0.2c0.5,0,0.9,0.1,1.2,0.4
			c0.3,0.3,0.4,0.6,0.4,1.1v2.6c0,0.4,0.1,0.7,0.2,1v0.1L96.4,111.8L96.4,111.8z M95.3,111.2c0.2,0,0.4-0.1,0.6-0.2s0.3-0.3,0.4-0.4
			v-1.2h-0.5c-0.4,0-0.7,0.1-0.9,0.3c-0.2,0.2-0.3,0.4-0.3,0.7c0,0.3,0.1,0.5,0.2,0.6C94.9,111.1,95.1,111.2,95.3,111.2L95.3,111.2z
			"/>
		<path class="st1" d="M99.4,105.4c0,0.1,0,0.3-0.1,0.3c-0.1,0.1-0.2,0.1-0.4,0.1c-0.2,0-0.3,0-0.3-0.1c-0.1-0.1-0.1-0.2-0.1-0.3
			c0-0.1,0-0.3,0.1-0.4s0.2-0.1,0.3-0.1c0.2,0,0.3,0.1,0.4,0.1C99.3,105.2,99.4,105.3,99.4,105.4z M99.3,111.8h-0.8v-5.1h0.8V111.8z
			"/>
		<path class="st1" d="M100.4,109.1c0-0.8,0.1-1.4,0.4-1.8c0.3-0.4,0.7-0.6,1.3-0.6c0.5,0,0.9,0.2,1.1,0.6v-2.6h0.8v7.2h-0.8l0-0.5
			c-0.3,0.4-0.7,0.6-1.2,0.6s-0.9-0.2-1.2-0.6c-0.3-0.4-0.5-1-0.5-1.7L100.4,109.1L100.4,109.1z M101.3,109.6c0,0.6,0.1,1,0.3,1.2
			c0.2,0.3,0.4,0.4,0.8,0.4c0.4,0,0.7-0.2,0.9-0.6V108c-0.2-0.4-0.5-0.6-0.9-0.6s-0.7,0.1-0.8,0.4c-0.2,0.3-0.3,0.7-0.3,1.2V109.6
			L101.3,109.6z"/>
		<path class="st1" d="M24.5,121.2c0,0.7-0.2,1.3-0.6,1.7c-0.4,0.4-0.9,0.6-1.6,0.6c-0.7,0-1.2-0.3-1.6-0.8
			c-0.4-0.5-0.6-1.2-0.6-2.1v-1.2c0-0.9,0.2-1.6,0.6-2.1c0.4-0.5,1-0.8,1.7-0.8c0.7,0,1.2,0.2,1.5,0.6c0.4,0.4,0.6,1,0.6,1.7h-0.9
			c0-0.6-0.2-1-0.3-1.2s-0.5-0.4-0.9-0.4c-0.5,0-0.8,0.2-1.1,0.5c-0.2,0.4-0.4,0.9-0.4,1.6v1.2c0,0.7,0.1,1.2,0.3,1.6
			c0.2,0.4,0.6,0.6,1,0.6c0.4,0,0.8-0.1,1-0.3c0.2-0.2,0.3-0.6,0.4-1.2L24.5,121.2L24.5,121.2z"/>
		<path class="st1" d="M26.4,118.8c0.3-0.4,0.7-0.6,1.2-0.6c0.9,0,1.3,0.6,1.4,1.8v3.4h-0.8V120c0-0.4-0.1-0.7-0.2-0.8
			c-0.1-0.2-0.3-0.2-0.6-0.2c-0.2,0-0.4,0.1-0.6,0.2c-0.2,0.1-0.3,0.3-0.4,0.5v3.7h-0.8v-7.2h0.8L26.4,118.8L26.4,118.8z"/>
		<path class="st1" d="M31.2,116.9c0,0.1,0,0.3-0.1,0.3c-0.1,0.1-0.2,0.1-0.4,0.1s-0.3,0-0.3-0.1c-0.1-0.1-0.1-0.2-0.1-0.3
			c0-0.1,0-0.3,0.1-0.4c0.1-0.1,0.2-0.1,0.3-0.1s0.3,0.1,0.4,0.1C31.1,116.7,31.2,116.8,31.2,116.9z M31.1,123.3h-0.8v-5.1h0.8
			V123.3z"/>
		<path class="st1" d="M33.3,123.3h-0.8v-7.2h0.8V123.3z"/>
		<path class="st1" d="M34.4,120.6c0-0.8,0.1-1.4,0.4-1.8c0.3-0.4,0.7-0.6,1.3-0.6c0.5,0,0.9,0.2,1.1,0.6v-2.6h0.8v7.2h-0.8l0-0.5
			c-0.3,0.4-0.7,0.6-1.2,0.6c-0.5,0-0.9-0.2-1.2-0.6c-0.3-0.4-0.5-1-0.5-1.7L34.4,120.6L34.4,120.6z M35.2,121c0,0.6,0.1,1,0.3,1.2
			c0.2,0.3,0.4,0.4,0.8,0.4c0.4,0,0.7-0.2,0.9-0.6v-2.5c-0.2-0.4-0.5-0.6-0.9-0.6c-0.4,0-0.7,0.1-0.8,0.4c-0.2,0.3-0.3,0.7-0.3,1.2
			V121L35.2,121z"/>
		<path class="st1" d="M41.4,119.1c-0.1,0-0.2,0-0.4,0c-0.4,0-0.7,0.2-0.9,0.7v3.6h-0.8v-5.1h0.8l0,0.5c0.2-0.4,0.5-0.6,0.9-0.6
			c0.1,0,0.2,0,0.3,0.1L41.4,119.1L41.4,119.1z"/>
		<path class="st1" d="M44.1,123.4c-0.6,0-1.1-0.2-1.4-0.6c-0.3-0.4-0.5-0.9-0.5-1.7v-0.6c0-0.8,0.2-1.3,0.5-1.8
			c0.3-0.4,0.8-0.6,1.4-0.6s1,0.2,1.3,0.6c0.3,0.4,0.4,1,0.5,1.8v0.5h-2.8v0.1c0,0.5,0.1,0.9,0.3,1.2c0.2,0.2,0.5,0.4,0.9,0.4
			c0.2,0,0.5,0,0.6-0.1c0.2-0.1,0.4-0.2,0.5-0.4l0.4,0.5C45.3,123.2,44.8,123.4,44.1,123.4L44.1,123.4z M44,118.9
			c-0.3,0-0.6,0.1-0.8,0.4c-0.2,0.2-0.3,0.6-0.3,1.1h2v-0.1c0-0.5-0.1-0.8-0.3-1S44.3,118.9,44,118.9L44,118.9z"/>
		<path class="st1" d="M47.5,118.3l0,0.5c0.3-0.4,0.7-0.6,1.2-0.6c0.9,0,1.3,0.6,1.4,1.8v3.4h-0.8V120c0-0.4-0.1-0.7-0.2-0.8
			c-0.1-0.2-0.3-0.2-0.6-0.2c-0.2,0-0.4,0.1-0.6,0.2c-0.2,0.1-0.3,0.3-0.4,0.5v3.7h-0.8v-5.1H47.5L47.5,118.3z"/>
		<path class="st1" d="M53.8,122c0-0.2-0.1-0.3-0.2-0.5c-0.1-0.1-0.4-0.3-0.8-0.5c-0.4-0.2-0.8-0.3-0.9-0.5
			c-0.2-0.1-0.3-0.3-0.4-0.4s-0.1-0.4-0.1-0.6c0-0.4,0.2-0.8,0.5-1c0.3-0.3,0.7-0.4,1.2-0.4c0.5,0,0.9,0.1,1.2,0.4
			c0.3,0.3,0.5,0.7,0.5,1.1h-0.8c0-0.2-0.1-0.4-0.2-0.6c-0.2-0.2-0.3-0.2-0.6-0.2c-0.2,0-0.4,0.1-0.6,0.2c-0.1,0.1-0.2,0.3-0.2,0.5
			c0,0.2,0.1,0.3,0.2,0.4c0.1,0.1,0.3,0.2,0.7,0.4c0.6,0.2,1,0.5,1.3,0.7c0.2,0.2,0.3,0.5,0.3,0.9c0,0.4-0.2,0.8-0.5,1.1
			s-0.7,0.4-1.2,0.4s-1-0.2-1.3-0.5c-0.3-0.3-0.5-0.7-0.5-1.1H52c0,0.3,0.1,0.5,0.3,0.7c0.2,0.2,0.4,0.2,0.7,0.2
			c0.3,0,0.5-0.1,0.6-0.2C53.7,122.4,53.8,122.2,53.8,122L53.8,122z"/>
		<path class="st1" d="M62.5,123.3h-0.9v-3.1h-2.7v3.1H58v-6.8h0.9v2.9h2.7v-2.9h0.9V123.3z"/>
		<path class="st1" d="M65.7,123.4c-0.6,0-1.1-0.2-1.4-0.6c-0.3-0.4-0.5-0.9-0.5-1.7v-0.6c0-0.8,0.2-1.3,0.5-1.8
			c0.3-0.4,0.8-0.6,1.4-0.6c0.6,0,1,0.2,1.3,0.6c0.3,0.4,0.4,1,0.5,1.8v0.5h-2.8v0.1c0,0.5,0.1,0.9,0.3,1.2c0.2,0.2,0.5,0.4,0.9,0.4
			c0.2,0,0.5,0,0.6-0.1c0.2-0.1,0.4-0.2,0.5-0.4l0.4,0.5C66.9,123.2,66.4,123.4,65.7,123.4L65.7,123.4z M65.6,118.9
			c-0.3,0-0.6,0.1-0.8,0.4c-0.2,0.2-0.3,0.6-0.3,1.1h2v-0.1c0-0.5-0.1-0.8-0.3-1C66.1,119,65.9,118.9,65.6,118.9L65.6,118.9z"/>
		<path class="st1" d="M70.9,123.3c-0.1-0.1-0.1-0.3-0.1-0.6c-0.3,0.4-0.7,0.6-1.1,0.6s-0.8-0.1-1.1-0.4c-0.3-0.3-0.4-0.6-0.4-1.1
			c0-0.5,0.2-0.9,0.5-1.2c0.3-0.3,0.8-0.5,1.4-0.5h0.6v-0.5c0-0.3-0.1-0.5-0.2-0.6c-0.1-0.1-0.3-0.2-0.6-0.2c-0.2,0-0.5,0.1-0.6,0.2
			s-0.2,0.3-0.2,0.6h-0.8c0-0.3,0.1-0.5,0.2-0.7c0.2-0.2,0.4-0.4,0.6-0.6c0.3-0.1,0.5-0.2,0.9-0.2c0.5,0,0.9,0.1,1.2,0.4
			s0.4,0.6,0.4,1.1v2.6c0,0.4,0.1,0.7,0.2,1v0.1L70.9,123.3L70.9,123.3z M69.8,122.7c0.2,0,0.4-0.1,0.6-0.2c0.2-0.1,0.3-0.3,0.4-0.4
			v-1.2h-0.5c-0.4,0-0.7,0.1-0.9,0.3c-0.2,0.2-0.3,0.4-0.3,0.7c0,0.3,0.1,0.5,0.2,0.6C69.4,122.6,69.6,122.7,69.8,122.7L69.8,122.7z
			"/>
		<path class="st1" d="M73.8,123.3H73v-7.2h0.8V123.3z"/>
		<path class="st1" d="M76.2,117.1v1.2H77v0.7h-0.8v3.1c0,0.2,0,0.4,0.1,0.5c0.1,0.1,0.2,0.2,0.3,0.2c0.1,0,0.2,0,0.3-0.1l0,0.7
			c-0.2,0.1-0.4,0.1-0.6,0.1c-0.3,0-0.6-0.1-0.7-0.3c-0.2-0.2-0.3-0.6-0.3-1V119h-0.8v-0.7h0.8v-1.2L76.2,117.1L76.2,117.1z"/>
		<path class="st1" d="M78.8,118.8c0.3-0.4,0.7-0.6,1.2-0.6c0.9,0,1.3,0.6,1.4,1.8v3.4h-0.8V120c0-0.4-0.1-0.7-0.2-0.8
			c-0.1-0.2-0.3-0.2-0.6-0.2c-0.2,0-0.4,0.1-0.6,0.2c-0.2,0.1-0.3,0.3-0.4,0.5v3.7h-0.8v-7.2h0.8L78.8,118.8L78.8,118.8z"/>
		<path class="st1" d="M85.8,123.3h-0.9v-6.8h0.9V123.3z"/>
		<path class="st1" d="M87.9,118.3l0,0.5c0.3-0.4,0.7-0.6,1.2-0.6c0.9,0,1.3,0.6,1.4,1.8v3.4h-0.8V120c0-0.4-0.1-0.7-0.2-0.8
			c-0.1-0.2-0.3-0.2-0.6-0.2c-0.2,0-0.4,0.1-0.6,0.2c-0.2,0.1-0.3,0.3-0.4,0.5v3.7h-0.8v-5.1H87.9L87.9,118.3z"/>
		<path class="st1" d="M94.2,122c0-0.2-0.1-0.3-0.2-0.5c-0.1-0.1-0.4-0.3-0.8-0.5c-0.4-0.2-0.8-0.3-0.9-0.5
			c-0.2-0.1-0.3-0.3-0.4-0.4c-0.1-0.2-0.1-0.4-0.1-0.6c0-0.4,0.2-0.8,0.5-1c0.3-0.3,0.7-0.4,1.2-0.4c0.5,0,0.9,0.1,1.2,0.4
			c0.3,0.3,0.5,0.7,0.5,1.1h-0.8c0-0.2-0.1-0.4-0.2-0.6c-0.2-0.2-0.3-0.2-0.6-0.2s-0.4,0.1-0.6,0.2s-0.2,0.3-0.2,0.5
			c0,0.2,0.1,0.3,0.2,0.4c0.1,0.1,0.3,0.2,0.7,0.4c0.6,0.2,1,0.5,1.3,0.7c0.2,0.2,0.3,0.5,0.3,0.9c0,0.4-0.2,0.8-0.5,1.1
			s-0.7,0.4-1.2,0.4s-1-0.2-1.3-0.5s-0.5-0.7-0.5-1.1h0.8c0,0.3,0.1,0.5,0.3,0.7c0.2,0.2,0.4,0.2,0.7,0.2c0.3,0,0.5-0.1,0.6-0.2
			S94.2,122.2,94.2,122L94.2,122z"/>
		<path class="st1" d="M98.7,122.9c-0.3,0.4-0.7,0.5-1.2,0.5c-0.5,0-0.8-0.2-1-0.5c-0.2-0.3-0.4-0.8-0.4-1.4v-3.3H97v3.2
			c0,0.8,0.2,1.2,0.7,1.2c0.5,0,0.8-0.2,1-0.7v-3.7h0.8v5.1h-0.8L98.7,122.9L98.7,122.9z"/>
		<path class="st1" d="M102.9,119.1c-0.1,0-0.2,0-0.4,0c-0.4,0-0.7,0.2-0.9,0.7v3.6h-0.8v-5.1h0.8l0,0.5c0.2-0.4,0.5-0.6,0.9-0.6
			c0.1,0,0.2,0,0.3,0.1L102.9,119.1L102.9,119.1z"/>
		<path class="st1" d="M106.1,123.3c-0.1-0.1-0.1-0.3-0.1-0.6c-0.3,0.4-0.7,0.6-1.1,0.6s-0.8-0.1-1.1-0.4c-0.3-0.3-0.4-0.6-0.4-1.1
			c0-0.5,0.2-0.9,0.5-1.2c0.3-0.3,0.8-0.5,1.4-0.5h0.6v-0.5c0-0.3-0.1-0.5-0.2-0.6c-0.1-0.1-0.3-0.2-0.6-0.2c-0.2,0-0.5,0.1-0.6,0.2
			c-0.2,0.1-0.2,0.3-0.2,0.6h-0.8c0-0.3,0.1-0.5,0.2-0.7s0.4-0.4,0.6-0.6c0.3-0.1,0.5-0.2,0.9-0.2c0.5,0,0.9,0.1,1.2,0.4
			c0.3,0.3,0.4,0.6,0.4,1.1v2.6c0,0.4,0.1,0.7,0.2,1v0.1L106.1,123.3L106.1,123.3z M105,122.7c0.2,0,0.4-0.1,0.6-0.2
			c0.2-0.1,0.3-0.3,0.4-0.4v-1.2h-0.5c-0.4,0-0.7,0.1-0.9,0.3c-0.2,0.2-0.3,0.4-0.3,0.7c0,0.3,0.1,0.5,0.2,0.6
			C104.5,122.6,104.7,122.7,105,122.7L105,122.7z"/>
		<path class="st1" d="M108.9,118.3l0,0.5c0.3-0.4,0.7-0.6,1.2-0.6c0.9,0,1.3,0.6,1.4,1.8v3.4h-0.8V120c0-0.4-0.1-0.7-0.2-0.8
			c-0.1-0.2-0.3-0.2-0.6-0.2c-0.2,0-0.4,0.1-0.6,0.2c-0.2,0.1-0.3,0.3-0.4,0.5v3.7h-0.8v-5.1H108.9L108.9,118.3z"/>
		<path class="st1" d="M114.5,122.7c0.3,0,0.5-0.1,0.7-0.3c0.2-0.2,0.3-0.4,0.3-0.7h0.8c0,0.5-0.2,0.9-0.5,1.2
			c-0.3,0.3-0.7,0.5-1.2,0.5c-0.6,0-1.1-0.2-1.4-0.6s-0.5-1-0.5-1.8v-0.6c0-0.8,0.2-1.3,0.5-1.7s0.8-0.6,1.4-0.6
			c0.5,0,0.9,0.2,1.2,0.5c0.3,0.3,0.5,0.8,0.5,1.3h-0.8c0-0.4-0.1-0.7-0.3-0.8c-0.2-0.2-0.4-0.3-0.7-0.3c-0.4,0-0.6,0.1-0.8,0.4
			c-0.2,0.2-0.3,0.6-0.3,1.2v0.6c0,0.6,0.1,1,0.3,1.3S114.1,122.7,114.5,122.7L114.5,122.7z"/>
		<path class="st1" d="M119,123.4c-0.6,0-1.1-0.2-1.4-0.6c-0.3-0.4-0.5-0.9-0.5-1.7v-0.6c0-0.8,0.2-1.3,0.5-1.8
			c0.3-0.4,0.8-0.6,1.4-0.6c0.6,0,1,0.2,1.3,0.6c0.3,0.4,0.4,1,0.5,1.8v0.5h-2.8v0.1c0,0.5,0.1,0.9,0.3,1.2c0.2,0.2,0.5,0.4,0.9,0.4
			c0.2,0,0.5,0,0.6-0.1s0.4-0.2,0.5-0.4l0.4,0.5C120.2,123.2,119.7,123.4,119,123.4L119,123.4z M118.9,118.9c-0.3,0-0.6,0.1-0.8,0.4
			c-0.2,0.2-0.3,0.6-0.3,1.1h2v-0.1c0-0.5-0.1-0.8-0.3-1S119.2,118.9,118.9,118.9L118.9,118.9z"/>
		<path class="st1" d="M124.8,120.7v2.7h-0.9v-6.8h2.2c0.6,0,1.1,0.2,1.5,0.6c0.4,0.4,0.5,0.9,0.5,1.5s-0.2,1.2-0.5,1.5
			c-0.3,0.4-0.8,0.5-1.5,0.5L124.8,120.7L124.8,120.7z M124.8,119.9h1.3c0.4,0,0.7-0.1,0.9-0.3c0.2-0.2,0.3-0.6,0.3-1
			s-0.1-0.7-0.3-1c-0.2-0.2-0.5-0.4-0.9-0.4h-1.3V119.9L124.8,119.9z"/>
		<path class="st1" d="M131.2,119.1c-0.1,0-0.2,0-0.4,0c-0.4,0-0.7,0.2-0.9,0.7v3.6h-0.8v-5.1h0.8l0,0.5c0.2-0.4,0.5-0.6,0.9-0.6
			c0.1,0,0.2,0,0.3,0.1L131.2,119.1L131.2,119.1z"/>
		<path class="st1" d="M131.8,120.6c0-0.7,0.2-1.3,0.5-1.7c0.4-0.4,0.8-0.6,1.4-0.6s1.1,0.2,1.4,0.6s0.5,1,0.5,1.7v0.5
			c0,0.7-0.2,1.3-0.5,1.7s-0.8,0.6-1.4,0.6s-1.1-0.2-1.4-0.6c-0.4-0.4-0.5-1-0.5-1.7L131.8,120.6L131.8,120.6z M132.6,121.1
			c0,0.5,0.1,0.9,0.3,1.2c0.2,0.3,0.5,0.4,0.8,0.4c0.7,0,1.1-0.5,1.1-1.6v-0.6c0-0.5-0.1-0.9-0.3-1.2c-0.2-0.3-0.5-0.5-0.8-0.5
			s-0.6,0.2-0.8,0.5c-0.2,0.3-0.3,0.7-0.3,1.2L132.6,121.1L132.6,121.1z"/>
		<path class="st1" d="M136.6,120.6c0-0.8,0.1-1.4,0.4-1.8c0.3-0.4,0.7-0.6,1.3-0.6c0.5,0,0.9,0.2,1.2,0.7l0-0.6h0.7v5.1
			c0,0.6-0.2,1.1-0.5,1.4c-0.3,0.3-0.8,0.5-1.3,0.5c-0.2,0-0.5-0.1-0.8-0.2s-0.5-0.3-0.7-0.5l0.3-0.6c0.3,0.3,0.7,0.5,1.1,0.5
			c0.7,0,1-0.4,1.1-1.1v-0.7c-0.3,0.4-0.6,0.6-1.1,0.6c-0.5,0-0.9-0.2-1.2-0.6s-0.4-1-0.5-1.7L136.6,120.6L136.6,120.6z M137.4,121
			c0,0.6,0.1,1,0.2,1.2c0.2,0.3,0.4,0.4,0.8,0.4c0.4,0,0.7-0.2,0.9-0.6v-2.5c-0.2-0.4-0.5-0.6-0.9-0.6c-0.4,0-0.7,0.1-0.8,0.4
			s-0.3,0.7-0.3,1.2L137.4,121L137.4,121z"/>
		<path class="st1" d="M143.6,119.1c-0.1,0-0.2,0-0.4,0c-0.4,0-0.7,0.2-0.9,0.7v3.6h-0.8v-5.1h0.8l0,0.5c0.2-0.4,0.5-0.6,0.9-0.6
			c0.1,0,0.2,0,0.3,0.1L143.6,119.1L143.6,119.1z"/>
		<path class="st1" d="M146.8,123.3c-0.1-0.1-0.1-0.3-0.1-0.6c-0.3,0.4-0.7,0.6-1.1,0.6c-0.5,0-0.8-0.1-1.1-0.4
			c-0.3-0.3-0.4-0.6-0.4-1.1c0-0.5,0.2-0.9,0.5-1.2s0.8-0.5,1.4-0.5h0.6v-0.5c0-0.3-0.1-0.5-0.2-0.6s-0.3-0.2-0.6-0.2
			c-0.2,0-0.5,0.1-0.6,0.2c-0.2,0.1-0.2,0.3-0.2,0.6h-0.8c0-0.3,0.1-0.5,0.2-0.7c0.2-0.2,0.4-0.4,0.6-0.6c0.3-0.1,0.5-0.2,0.9-0.2
			c0.5,0,0.9,0.1,1.2,0.4c0.3,0.3,0.4,0.6,0.4,1.1v2.6c0,0.4,0.1,0.7,0.2,1v0.1L146.8,123.3L146.8,123.3z M145.7,122.7
			c0.2,0,0.4-0.1,0.6-0.2c0.2-0.1,0.3-0.3,0.4-0.4v-1.2h-0.5c-0.4,0-0.7,0.1-0.9,0.3c-0.2,0.2-0.3,0.4-0.3,0.7
			c0,0.3,0.1,0.5,0.2,0.6S145.4,122.7,145.7,122.7L145.7,122.7z"/>
		<path class="st1" d="M149.6,118.3l0,0.5c0.3-0.4,0.7-0.6,1.2-0.6c0.6,0,1,0.2,1.2,0.7c0.3-0.5,0.8-0.7,1.3-0.7
			c0.9,0,1.4,0.6,1.4,1.7v3.4h-0.8V120c0-0.4-0.1-0.6-0.2-0.8c-0.1-0.2-0.4-0.3-0.7-0.3c-0.2,0-0.5,0.1-0.6,0.3
			c-0.2,0.2-0.2,0.4-0.3,0.7v3.4h-0.8V120c0-0.7-0.3-1.1-0.9-1.1c-0.4,0-0.7,0.2-0.9,0.6v3.8h-0.8v-5.1L149.6,118.3L149.6,118.3z"/>
		<path class="st1" d="M39.3,132.2v2.7h-0.9V128h2.2c0.6,0,1.1,0.2,1.5,0.6s0.5,0.9,0.5,1.5c0,0.6-0.2,1.2-0.5,1.5s-0.8,0.5-1.5,0.5
			L39.3,132.2L39.3,132.2z M39.3,131.4h1.3c0.4,0,0.7-0.1,0.9-0.3c0.2-0.2,0.3-0.6,0.3-1c0-0.4-0.1-0.7-0.3-1
			c-0.2-0.2-0.5-0.4-0.9-0.4h-1.3L39.3,131.4L39.3,131.4z"/>
		<path class="st1" d="M46.2,134.4c-0.3,0.4-0.7,0.5-1.2,0.5c-0.5,0-0.8-0.2-1-0.5c-0.2-0.3-0.4-0.8-0.4-1.4v-3.3h0.8v3.2
			c0,0.8,0.2,1.2,0.7,1.2c0.5,0,0.8-0.2,1-0.7v-3.7H47v5.1h-0.8L46.2,134.4L46.2,134.4z"/>
		<path class="st1" d="M51.9,132.5c0,0.8-0.1,1.4-0.4,1.8c-0.3,0.4-0.7,0.6-1.2,0.6c-0.5,0-0.9-0.2-1.2-0.7l0,0.6h-0.8v-7.2h0.8v2.7
			c0.3-0.4,0.7-0.6,1.2-0.6c0.6,0,1,0.2,1.2,0.6c0.3,0.4,0.4,1,0.4,1.8L51.9,132.5L51.9,132.5z M51.1,132.1c0-0.6-0.1-1-0.2-1.3
			c-0.2-0.3-0.4-0.4-0.8-0.4c-0.4,0-0.7,0.2-1,0.7v2.4c0.2,0.5,0.5,0.7,1,0.7c0.4,0,0.6-0.1,0.8-0.4c0.2-0.3,0.2-0.7,0.2-1.2
			L51.1,132.1L51.1,132.1z"/>
		<path class="st1" d="M53.9,134.8H53v-7.2h0.8V134.8z"/>
		<path class="st1" d="M56.1,128.4c0,0.1,0,0.3-0.1,0.3s-0.2,0.1-0.4,0.1c-0.2,0-0.3,0-0.3-0.1c-0.1-0.1-0.1-0.2-0.1-0.3
			c0-0.1,0-0.3,0.1-0.4c0.1-0.1,0.2-0.1,0.3-0.1c0.2,0,0.3,0.1,0.4,0.1C56.1,128.2,56.1,128.3,56.1,128.4z M56.1,134.8h-0.8v-5.1
			h0.8V134.8z"/>
		<path class="st1" d="M59.1,134.2c0.3,0,0.5-0.1,0.7-0.3c0.2-0.2,0.3-0.4,0.3-0.7h0.8c0,0.5-0.2,0.9-0.5,1.2
			c-0.3,0.3-0.7,0.5-1.2,0.5c-0.6,0-1.1-0.2-1.4-0.6c-0.3-0.4-0.5-1-0.5-1.8V132c0-0.8,0.2-1.3,0.5-1.7c0.3-0.4,0.8-0.6,1.4-0.6
			c0.5,0,0.9,0.2,1.2,0.5c0.3,0.3,0.5,0.8,0.5,1.3h-0.8c0-0.4-0.1-0.7-0.3-0.8c-0.2-0.2-0.4-0.3-0.7-0.3c-0.4,0-0.6,0.1-0.8,0.4
			c-0.2,0.2-0.3,0.6-0.3,1.2v0.6c0,0.6,0.1,1,0.3,1.3C58.5,134.1,58.7,134.2,59.1,134.2L59.1,134.2z"/>
		<path class="st1" d="M64.8,130.3c0.3-0.4,0.7-0.6,1.2-0.6c0.9,0,1.3,0.6,1.4,1.8v3.4h-0.8v-3.3c0-0.4-0.1-0.7-0.2-0.8
			c-0.1-0.2-0.3-0.2-0.6-0.2c-0.2,0-0.4,0.1-0.6,0.2c-0.2,0.1-0.3,0.3-0.4,0.5v3.7H64v-7.2h0.8V130.3L64.8,130.3z"/>
		<path class="st1" d="M70.4,134.9c-0.6,0-1.1-0.2-1.4-0.6c-0.3-0.4-0.5-0.9-0.5-1.7v-0.6c0-0.8,0.2-1.3,0.5-1.8
			c0.3-0.4,0.8-0.6,1.4-0.6c0.6,0,1,0.2,1.3,0.6c0.3,0.4,0.4,1,0.5,1.8v0.5h-2.8v0.1c0,0.5,0.1,0.9,0.3,1.2c0.2,0.2,0.5,0.4,0.9,0.4
			c0.2,0,0.5,0,0.6-0.1c0.2-0.1,0.4-0.2,0.5-0.4l0.4,0.5C71.7,134.7,71.2,134.9,70.4,134.9L70.4,134.9z M70.3,130.4
			c-0.3,0-0.6,0.1-0.8,0.4c-0.2,0.2-0.3,0.6-0.3,1.1h2v-0.1c0-0.5-0.1-0.8-0.3-1C70.9,130.5,70.6,130.4,70.3,130.4L70.3,130.4z"/>
		<path class="st1" d="M75.7,134.8c-0.1-0.1-0.1-0.3-0.1-0.6c-0.3,0.4-0.7,0.6-1.1,0.6s-0.8-0.1-1.1-0.4c-0.3-0.3-0.4-0.6-0.4-1.1
			c0-0.5,0.2-0.9,0.5-1.2c0.3-0.3,0.8-0.5,1.4-0.5h0.6v-0.5c0-0.3-0.1-0.5-0.2-0.6c-0.1-0.1-0.3-0.2-0.6-0.2c-0.2,0-0.5,0.1-0.6,0.2
			c-0.2,0.1-0.2,0.3-0.2,0.6h-0.8c0-0.3,0.1-0.5,0.2-0.7c0.2-0.2,0.4-0.4,0.6-0.6c0.3-0.1,0.5-0.2,0.9-0.2c0.5,0,0.9,0.1,1.2,0.4
			s0.4,0.6,0.4,1.1v2.6c0,0.4,0.1,0.7,0.2,1v0.1H75.7L75.7,134.8z M74.6,134.2c0.2,0,0.4-0.1,0.6-0.2c0.2-0.1,0.3-0.3,0.4-0.4v-1.2
			h-0.5c-0.4,0-0.7,0.1-0.9,0.3c-0.2,0.2-0.3,0.4-0.3,0.7c0,0.3,0.1,0.5,0.2,0.6C74.1,134.1,74.3,134.2,74.6,134.2L74.6,134.2z"/>
		<path class="st1" d="M78.6,134.8h-0.8v-7.2h0.8V134.8z"/>
		<path class="st1" d="M81,128.5v1.2h0.8v0.7H81v3.1c0,0.2,0,0.4,0.1,0.5c0.1,0.1,0.2,0.2,0.3,0.2c0.1,0,0.2,0,0.3-0.1l0,0.7
			c-0.2,0.1-0.4,0.1-0.6,0.1c-0.3,0-0.6-0.1-0.7-0.3c-0.2-0.2-0.3-0.6-0.3-1v-3.1h-0.8v-0.7h0.8v-1.2L81,128.5L81,128.5z"/>
		<path class="st1" d="M83.5,130.3c0.3-0.4,0.7-0.6,1.2-0.6c0.9,0,1.3,0.6,1.4,1.8v3.4h-0.8v-3.3c0-0.4-0.1-0.7-0.2-0.8
			c-0.1-0.2-0.3-0.2-0.6-0.2c-0.2,0-0.4,0.1-0.6,0.2c-0.2,0.1-0.3,0.3-0.4,0.5v3.7h-0.8v-7.2h0.8L83.5,130.3L83.5,130.3z"/>
		<path class="st1" d="M91.3,134.9c-0.6,0-1.1-0.2-1.4-0.6c-0.3-0.4-0.5-0.9-0.5-1.7v-0.6c0-0.8,0.2-1.3,0.5-1.8
			c0.3-0.4,0.8-0.6,1.4-0.6c0.6,0,1,0.2,1.3,0.6c0.3,0.4,0.4,1,0.5,1.8v0.5h-2.8v0.1c0,0.5,0.1,0.9,0.3,1.2c0.2,0.2,0.5,0.4,0.9,0.4
			c0.2,0,0.5,0,0.6-0.1c0.2-0.1,0.4-0.2,0.5-0.4l0.4,0.5C92.6,134.7,92.1,134.9,91.3,134.9L91.3,134.9z M91.2,130.4
			c-0.3,0-0.6,0.1-0.8,0.4c-0.2,0.2-0.3,0.6-0.3,1.1h2v-0.1c0-0.5-0.1-0.8-0.3-1C91.8,130.5,91.5,130.4,91.2,130.4L91.2,130.4z"/>
		<path class="st1" d="M95.5,131.6l0.9-1.8h1l-1.4,2.5l1.4,2.6h-0.9l-0.9-1.9l-0.9,1.9h-1l1.4-2.6l-1.4-2.5h0.9L95.5,131.6
			L95.5,131.6z"/>
		<path class="st1" d="M101.9,132.5c0,0.8-0.1,1.4-0.4,1.8c-0.3,0.4-0.7,0.6-1.2,0.6c-0.5,0-0.9-0.2-1.2-0.6v2.4h-0.8v-7h0.7l0,0.6
			c0.3-0.4,0.7-0.7,1.2-0.7c0.6,0,1,0.2,1.2,0.6c0.3,0.4,0.4,1,0.4,1.7L101.9,132.5L101.9,132.5z M101,132.1c0-0.6-0.1-1-0.3-1.3
			c-0.2-0.3-0.5-0.4-0.8-0.4s-0.7,0.2-0.9,0.6v2.6c0.2,0.4,0.5,0.6,0.9,0.6c0.4,0,0.6-0.1,0.8-0.4c0.2-0.3,0.3-0.7,0.3-1.2
			L101,132.1L101,132.1z"/>
		<path class="st1" d="M104.7,134.9c-0.6,0-1.1-0.2-1.4-0.6c-0.3-0.4-0.5-0.9-0.5-1.7v-0.6c0-0.8,0.2-1.3,0.5-1.8
			c0.3-0.4,0.8-0.6,1.4-0.6c0.6,0,1,0.2,1.3,0.6c0.3,0.4,0.4,1,0.5,1.8v0.5h-2.8v0.1c0,0.5,0.1,0.9,0.3,1.2c0.2,0.2,0.5,0.4,0.9,0.4
			c0.2,0,0.5,0,0.6-0.1c0.2-0.1,0.4-0.2,0.5-0.4l0.4,0.5C106,134.7,105.5,134.9,104.7,134.9L104.7,134.9z M104.6,130.4
			c-0.3,0-0.6,0.1-0.8,0.4c-0.2,0.2-0.3,0.6-0.3,1.1h2v-0.1c0-0.5-0.1-0.8-0.3-1C105.2,130.5,104.9,130.4,104.6,130.4L104.6,130.4z"
			/>
		<path class="st1" d="M108.2,129.8l0,0.5c0.3-0.4,0.7-0.6,1.2-0.6c0.9,0,1.3,0.6,1.4,1.8v3.4H110v-3.3c0-0.4-0.1-0.7-0.2-0.8
			c-0.1-0.2-0.3-0.2-0.6-0.2c-0.2,0-0.4,0.1-0.6,0.2c-0.2,0.1-0.3,0.3-0.4,0.5v3.7h-0.8v-5.1H108.2L108.2,129.8z"/>
		<path class="st1" d="M114.5,133.5c0-0.2-0.1-0.3-0.2-0.5c-0.1-0.1-0.4-0.3-0.8-0.5c-0.4-0.2-0.8-0.3-0.9-0.5
			c-0.2-0.1-0.3-0.3-0.4-0.4s-0.1-0.4-0.1-0.6c0-0.4,0.2-0.8,0.5-1c0.3-0.3,0.7-0.4,1.2-0.4c0.5,0,0.9,0.1,1.2,0.4
			c0.3,0.3,0.5,0.7,0.5,1.1h-0.8c0-0.2-0.1-0.4-0.2-0.6s-0.3-0.2-0.6-0.2c-0.2,0-0.4,0.1-0.6,0.2c-0.1,0.1-0.2,0.3-0.2,0.5
			c0,0.2,0.1,0.3,0.2,0.4c0.1,0.1,0.3,0.2,0.7,0.4c0.6,0.2,1,0.5,1.3,0.7c0.2,0.2,0.3,0.5,0.3,0.9c0,0.4-0.2,0.8-0.5,1.1
			s-0.7,0.4-1.2,0.4s-1-0.2-1.3-0.5s-0.5-0.7-0.5-1.1h0.8c0,0.3,0.1,0.5,0.3,0.7c0.2,0.2,0.4,0.2,0.7,0.2c0.3,0,0.5-0.1,0.6-0.2
			C114.4,133.9,114.5,133.7,114.5,133.5L114.5,133.5z"/>
		<path class="st1" d="M117.4,128.4c0,0.1,0,0.3-0.1,0.3c-0.1,0.1-0.2,0.1-0.4,0.1c-0.2,0-0.3,0-0.3-0.1c-0.1-0.1-0.1-0.2-0.1-0.3
			c0-0.1,0-0.3,0.1-0.4c0.1-0.1,0.2-0.1,0.3-0.1s0.3,0.1,0.4,0.1C117.3,128.2,117.4,128.3,117.4,128.4z M117.3,134.8h-0.8v-5.1h0.8
			V134.8z"/>
		<path class="st1" d="M119.7,128.5v1.2h0.8v0.7h-0.8v3.1c0,0.2,0,0.4,0.1,0.5c0.1,0.1,0.2,0.2,0.3,0.2c0.1,0,0.2,0,0.3-0.1l0,0.7
			c-0.2,0.1-0.4,0.1-0.6,0.1c-0.3,0-0.6-0.1-0.7-0.3c-0.2-0.2-0.3-0.6-0.3-1v-3.1h-0.8v-0.7h0.8v-1.2L119.7,128.5L119.7,128.5z"/>
		<path class="st1" d="M124,134.4c-0.3,0.4-0.7,0.5-1.2,0.5c-0.5,0-0.8-0.2-1-0.5c-0.2-0.3-0.4-0.8-0.4-1.4v-3.3h0.8v3.2
			c0,0.8,0.2,1.2,0.7,1.2c0.5,0,0.8-0.2,1-0.7v-3.7h0.8v5.1H124L124,134.4L124,134.4z"/>
		<path class="st1" d="M128.1,130.5c-0.1,0-0.2,0-0.4,0c-0.4,0-0.7,0.2-0.9,0.7v3.6h-0.8v-5.1h0.8l0,0.5c0.2-0.4,0.5-0.6,0.9-0.6
			c0.1,0,0.2,0,0.3,0.1L128.1,130.5L128.1,130.5z"/>
		<path class="st1" d="M130.8,134.9c-0.6,0-1.1-0.2-1.4-0.6c-0.3-0.4-0.5-0.9-0.5-1.7v-0.6c0-0.8,0.2-1.3,0.5-1.8
			c0.3-0.4,0.8-0.6,1.4-0.6c0.6,0,1,0.2,1.3,0.6c0.3,0.4,0.4,1,0.5,1.8v0.5h-2.8v0.1c0,0.5,0.1,0.9,0.3,1.2c0.2,0.2,0.5,0.4,0.9,0.4
			c0.2,0,0.5,0,0.6-0.1c0.2-0.1,0.4-0.2,0.5-0.4l0.4,0.5C132.1,134.7,131.5,134.9,130.8,134.9L130.8,134.9z M130.7,130.4
			c-0.3,0-0.6,0.1-0.8,0.4c-0.2,0.2-0.3,0.6-0.3,1.1h2v-0.1c0-0.5-0.1-0.8-0.3-1C131.2,130.5,131,130.4,130.7,130.4L130.7,130.4z"/>
		<path class="st1" d="M135.9,133.5c0-0.2-0.1-0.3-0.2-0.5c-0.1-0.1-0.4-0.3-0.8-0.5c-0.4-0.2-0.8-0.3-0.9-0.5
			c-0.2-0.1-0.3-0.3-0.4-0.4c-0.1-0.2-0.1-0.4-0.1-0.6c0-0.4,0.2-0.8,0.5-1c0.3-0.3,0.7-0.4,1.2-0.4c0.5,0,0.9,0.1,1.2,0.4
			c0.3,0.3,0.5,0.7,0.5,1.1h-0.8c0-0.2-0.1-0.4-0.2-0.6c-0.2-0.2-0.3-0.2-0.6-0.2s-0.4,0.1-0.6,0.2c-0.1,0.1-0.2,0.3-0.2,0.5
			c0,0.2,0.1,0.3,0.2,0.4c0.1,0.1,0.3,0.2,0.7,0.4c0.6,0.2,1,0.5,1.3,0.7c0.2,0.2,0.3,0.5,0.3,0.9c0,0.4-0.2,0.8-0.5,1.1
			s-0.7,0.4-1.2,0.4c-0.5,0-1-0.2-1.3-0.5s-0.5-0.7-0.5-1.1h0.8c0,0.3,0.1,0.5,0.3,0.7s0.4,0.2,0.7,0.2c0.3,0,0.5-0.1,0.6-0.2
			C135.8,133.9,135.9,133.7,135.9,133.5L135.9,133.5z"/>
	</g>
</g>
</svg>
