<?xml version="1.0" encoding="utf-8"?>
<!-- Generator: Adobe Illustrator 27.0.1, SVG Export Plug-In . SVG Version: 6.00 Build 0)  -->
<svg version="1.1" id="Layer_1" xmlns="http://www.w3.org/2000/svg" xmlns:xlink="http://www.w3.org/1999/xlink" x="0px" y="0px"
	 viewBox="0 0 500 352" style="enable-background:new 0 0 500 352;" xml:space="preserve">
<style type="text/css">
	.st0{fill-rule:evenodd;clip-rule:evenodd;fill:#0D445C;}
	.st1{fill-rule:evenodd;clip-rule:evenodd;fill:#0E4359;}
	.st2{fill:#FFFFFF;}
	.st3{fill-rule:evenodd;clip-rule:evenodd;fill:#8D191B;}
	.st4{fill:#231F20;}
</style>
<polygon class="st0" points="436.7,8 453.5,17.1 453.5,35.8 437,45.1 419.7,35.8 419.7,17.2 "/>
<polygon class="st1" points="31.4,8 48,17.4 48,36.5 31.1,45.9 14.1,36.4 14.1,17.4 "/>
<g>
	<path class="st2" d="M29.2,28.4h-2.7l-0.6,2.1h-1l2.6-8h0.9l2.6,8h-1L29.2,28.4L29.2,28.4z M26.8,27.6H29l-1.1-3.7L26.8,27.6z"/>
	<path class="st2" d="M33.8,26.8L33,27.8v2.8h-1v-8h1v3.9l0.7-0.9l2.2-3H37L34.4,26l2.8,4.5H36L33.8,26.8L33.8,26.8z"/>
</g>
<polygon class="st0" points="382.2,38.6 398.7,48.1 398.7,67.1 381.9,76.5 364.9,67 364.9,48.1 "/>
<polygon class="st0" points="418.5,38.6 435,48.1 435,67.1 418.2,76.5 401.1,67 401.1,48.1 "/>
<polygon class="st0" points="104.8,70 121.3,79.3 121.3,98 104.5,107.1 87.5,97.9 87.5,79.3 "/>
<g>
	<path class="st2" d="M99.1,84.6l2.1,6.6l2.1-6.6h1.3v8h-1v-3.1l0.1-3.1l-2.1,6.3h-0.8l-2.1-6.2l0.1,3.1v3.1h-1v-8L99.1,84.6
		L99.1,84.6z"/>
	<path class="st2" d="M111,85.5h-2.1v7.2h-1v-7.2h-2.1v-0.9h5.2V85.5z"/>
</g>
<polygon class="st3" points="141.9,70 158.4,79.3 158.4,98 141.6,107.1 124.6,97.9 124.6,79.3 "/>
<polygon class="st1" points="363.6,70 380.2,79.3 380.2,98 363.3,107.1 346.3,97.9 346.3,79.3 "/>
<polygon class="st0" points="179,70 195.5,79.3 195.5,98 178.7,107.1 161.6,97.9 161.6,79.3 "/>
<polygon class="st3" points="215.4,70 231.8,79.2 231.8,97.9 215.7,107.1 198.7,97.9 198.7,79.3 "/>
<polygon class="st1" points="400.3,70 416.5,79.3 416.5,98 400,107.1 383.4,97.9 383.4,79.3 "/>
<polygon class="st1" points="436.7,70 453.5,79.2 453.5,97.9 437,107.1 419.7,97.9 419.7,79.3 "/>
<polygon class="st0" points="68.1,70.9 84.2,80.1 84.2,98.8 67.8,107.9 51.2,98.6 51.2,80.1 "/>
<g>
	<path class="st2" d="M62,90.1l0.1,0.9l0.2-0.8l1.3-5.6h0.8l1.2,5.6l0.2,0.8l0.1-0.9l1-5.5h1l-1.6,8h-0.9L64,86.8L64,86.3l-0.1,0.5
		l-1.4,5.9h-0.9l-1.6-8h1L62,90.1L62,90.1z"/>
	<path class="st2" d="M72.3,90.5h-2.7L69,92.6h-1l2.6-8h0.9l2.6,8h-1L72.3,90.5L72.3,90.5z M69.9,89.7h2.2L71,86
		C71,86,69.9,89.7,69.9,89.7z"/>
</g>
<polygon class="st3" points="289.5,70.9 306,80.1 306,98.8 289.2,107.9 272.1,98.6 272.1,80.1 "/>
<polygon class="st3" points="86,101.5 102.8,110.7 102.8,129.3 86.3,138.6 68.9,129.3 68.9,110.8 "/>
<polygon class="st3" points="123.1,101.5 139.9,110.7 139.9,129.3 123.4,138.6 106,129.3 106,110.8 "/>
<polygon class="st3" points="160.5,101.5 177,110.8 177,129.4 160.1,138.6 143.1,129.3 143.1,110.8 "/>
<polygon class="st3" points="307.7,101.5 324.5,110.7 324.5,129.3 308,138.6 290.7,129.3 290.7,110.8 "/>
<polygon class="st3" points="344.8,101.5 361.6,110.7 361.6,129.3 345.1,138.6 327.8,129.3 327.8,110.8 "/>
<polygon class="st1" points="382.2,101.5 398.7,110.8 398.7,129.4 381.9,138.6 364.9,129.3 364.9,110.8 "/>
<polygon class="st3" points="197.1,101.5 213.2,110.8 213.2,129.4 196.8,138.6 180.2,129.3 180.2,110.8 "/>
<polygon class="st1" points="418.5,101.5 435,110.8 435,129.4 418.2,138.6 401.1,129.3 401.1,110.8 "/>
<polygon class="st3" points="270.6,101.5 287.4,110.9 287.4,129.9 270.9,139.4 253.6,129.9 253.6,111 "/>
<polygon class="st1" points="233.8,101.5 250.4,111 250.4,130 233.5,139.4 216.5,129.9 216.5,111 "/>
<polygon class="st0" points="104.8,132.1 121.3,141.6 121.3,160.6 104.5,170 87.5,160.6 87.5,141.6 "/>
<polygon class="st0" points="141.9,132.1 158.4,141.6 158.4,160.6 141.6,170 124.6,160.6 124.6,141.6 "/>
<polygon class="st0" points="326.6,132.1 343.1,141.6 343.1,160.6 326.2,170 309.2,160.6 309.2,141.6 "/>
<polygon class="st0" points="363.6,132.1 380.2,141.6 380.2,160.6 363.3,170 346.3,160.6 346.3,141.6 "/>
<polygon class="st3" points="179,132.1 195.5,141.6 195.5,160.7 178.7,170 161.6,160.6 161.6,141.6 "/>
<polygon class="st3" points="215.4,132.1 231.8,141.5 231.8,160.6 215.7,170 198.7,160.6 198.7,141.6 "/>
<polygon class="st0" points="68.1,132.9 84.2,142.2 84.2,160.8 67.8,170 51.2,160.7 51.2,142.2 "/>
<polygon class="st3" points="252.8,132.9 268.9,142.2 268.9,160.8 252.5,170 235.8,160.7 235.8,142.2 "/>
<polygon class="st3" points="289.5,132.9 306,142.2 306,160.8 289.2,170 272.1,160.7 272.1,142.2 "/>
<polygon class="st1" points="86,163.6 102.8,172.8 102.8,191.4 86.3,200.7 68.9,191.4 68.9,172.9 "/>
<polygon class="st3" points="123.1,163.6 139.9,172.8 139.9,191.4 123.4,200.7 106,191.4 106,172.9 "/>
<polygon class="st3" points="160.5,163.6 177,172.9 177,191.5 160.1,200.7 143.1,191.4 143.1,172.9 "/>
<polygon class="st1" points="307.7,163.6 324.5,172.8 324.5,191.4 308,200.7 290.7,191.4 290.7,172.9 "/>
<polygon class="st3" points="344.8,164.4 361.6,173.6 361.6,192.2 345.1,201.5 327.8,192.2 327.8,173.6 "/>
<polygon class="st1" points="197.1,163.6 213.2,173 213.2,192.1 196.8,201.5 180.2,192 180.2,173 "/>
<polygon class="st3" points="270.6,163.6 287.4,173 287.4,192 270.9,201.5 253.6,192 253.6,173 "/>
<polygon class="st3" points="233.8,164.4 250.4,173.6 250.4,192.3 233.5,201.5 216.5,192.2 216.5,173.6 "/>
<polygon class="st1" points="455.6,164.4 472.1,173.6 472.1,192.3 455.3,201.5 438.2,192.2 438.2,173.6 "/>
<polygon class="st1" points="141.9,195 158.4,204.3 158.4,222.9 141.6,232.1 124.6,222.9 124.6,204.3 "/>
<polygon class="st3" points="326.6,195 343.1,204.5 343.1,223.5 326.2,232.9 309.2,223.5 309.2,204.5 "/>
<polygon class="st3" points="179,195 195.5,204.3 195.5,222.9 178.7,232.1 161.6,222.9 161.6,204.3 "/>
<polygon class="st3" points="215.4,195 231.8,204.2 231.8,222.9 215.7,232.1 198.7,222.9 198.7,204.3 "/>
<polygon class="st3" points="252.8,195 268.9,204.5 268.9,223.5 252.5,232.9 235.8,223.4 235.8,204.5 "/>
<polygon class="st3" points="289.5,195.8 306,205.1 306,223.7 289.2,232.9 272.1,223.6 272.1,205.1 "/>
<polygon class="st3" points="160.5,225.7 177,235.1 177,254.2 160.1,263.6 143.1,254.1 143.1,235.1 "/>
<polygon class="st3" points="307.7,226.5 324.5,235.6 324.5,254.3 308,263.6 290.7,254.3 290.7,235.7 "/>
<polygon class="st1" points="326.6,257.9 343.1,267.2 343.1,285.8 326.2,295 309.2,285.7 309.2,267.2 "/>
<polygon class="st1" points="31.4,257.1 48,266.6 48,285.6 31.1,295 14.1,285.5 14.1,266.6 "/>
<g>
	<path class="st2" d="M140.7,92.6h-1l-3.2-6.2v6.2h-1v-8h1l3.2,6.2v-6.2h1V92.6z"/>
	<path class="st2" d="M142.5,92.6v-8h1.9c0.9,0,1.7,0.3,2.2,0.9c0.5,0.6,0.8,1.4,0.8,2.5v1.4c0,1.1-0.3,1.9-0.8,2.5
		s-1.3,0.9-2.3,0.9L142.5,92.6L142.5,92.6z M143.5,85.5v6.3h0.8c0.7,0,1.2-0.2,1.6-0.6c0.3-0.4,0.5-1,0.5-1.8v-1.4
		c0-0.9-0.2-1.5-0.5-1.9c-0.3-0.4-0.8-0.6-1.5-0.6H143.5z"/>
</g>
<g>
	<path class="st2" d="M172.4,84.6l2.1,6.6l2.1-6.6h1.3v8h-1v-3.1l0.1-3.1l-2.1,6.3H174l-2.1-6.2l0.1,3.1v3.1h-1v-8L172.4,84.6
		L172.4,84.6z"/>
	<path class="st2" d="M184.8,92.6h-1l-3.2-6.2v6.2h-1v-8h1l3.2,6.2v-6.2h1V92.6z"/>
</g>
<g>
	<path class="st2" d="M210.9,90.1L211,91l0.2-0.8l1.3-5.6h0.8l1.2,5.6l0.2,0.8l0.1-0.9l1-5.5h1l-1.6,8h-0.9l-1.3-5.9l-0.1-0.5
		l-0.1,0.5l-1.4,5.9h-0.9l-1.6-8h1L210.9,90.1L210.9,90.1z"/>
	<path class="st2" d="M219,92.7h-1v-8h1V92.7z"/>
</g>
<g>
	<path class="st2" d="M285.8,84.6l2.1,6.6l2.1-6.6h1.3v8h-1v-3.1l0.1-3.1l-2.1,6.3h-0.8l-2.1-6.2l0.1,3.1v3.1h-1v-8L285.8,84.6
		L285.8,84.6z"/>
	<path class="st2" d="M294.1,92.7h-1v-8h1V92.7z"/>
</g>
<g>
	<path class="st2" d="M362.4,92.6h-1l-3.2-6.2v6.2h-1v-8h1l3.2,6.2v-6.2h1V92.6z"/>
	<path class="st2" d="M366.2,88.6l1.6-4h1.1l-2.3,5v3h-1v-3l-2.3-5h1.1L366.2,88.6L366.2,88.6z"/>
</g>
<g>
	<path class="st2" d="M394.6,84.6l2.1,6.6l2.1-6.6h1.3v8h-1v-3.1l0.1-3.1l-2.1,6.3h-0.8l-2.1-6.2l0.1,3.1v3.1h-1v-8L394.6,84.6
		L394.6,84.6z"/>
	<path class="st2" d="M405.6,90.5h-2.7l-0.6,2.1h-1l2.6-8h0.9l2.6,8h-1L405.6,90.5L405.6,90.5z M403.1,89.7h2.2l-1.1-3.6L403.1,89.7
		z"/>
</g>
<g>
	<path class="st2" d="M378.1,60.2l1.8-6.5h1.1l-2.5,8h-0.9l-2.5-8h1.1L378.1,60.2z"/>
	<path class="st2" d="M386.8,54.6h-2.1v7.2h-1v-7.2h-2.1v-0.9h5.2L386.8,54.6L386.8,54.6z"/>
</g>
<g>
	<path class="st2" d="M416.3,61.8h-1l-3.2-6.2v6.2h-1v-8h1l3.2,6.2v-6.2h1V61.8z"/>
	<path class="st2" d="M423.4,61.8h-1V58h-3.2v3.7h-1v-8h1v3.4h3.2v-3.4h1V61.8z"/>
</g>
<g>
	<path class="st2" d="M432.3,22.5l2.1,6.6l2.1-6.6h1.3v8h-1v-3.1l0.1-3.1l-2.1,6.3H434l-2.1-6.2l0.1,3.1v3.1h-1v-8L432.3,22.5
		L432.3,22.5z"/>
	<path class="st2" d="M443.4,26.8h-2.8v2.8h3.3v0.9h-4.3v-8h4.3v0.9h-3.2V26h2.8C443.4,26,443.4,26.8,443.4,26.8z"/>
</g>
<g>
	<path class="st2" d="M82.6,124.4h-1v-8h1V124.4z"/>
	<path class="st2" d="M83.9,124.4v-8h1.9c0.9,0,1.7,0.3,2.2,0.9c0.5,0.6,0.8,1.4,0.8,2.5v1.4c0,1.1-0.3,1.9-0.8,2.5
		s-1.3,0.9-2.3,0.9L83.9,124.4L83.9,124.4z M85,117.2v6.3h0.8c0.7,0,1.2-0.2,1.6-0.6c0.3-0.4,0.5-1,0.5-1.8v-1.4
		c0-0.9-0.2-1.5-0.5-1.9c-0.3-0.4-0.8-0.6-1.5-0.6H85z"/>
</g>
<g>
	<path class="st2" d="M117.9,121.9l0.1,0.9l0.2-0.8l1.3-5.6h0.8l1.2,5.6l0.2,0.8l0.1-0.9l1-5.5h1l-1.6,8h-0.9l-1.3-5.9l-0.1-0.5
		l-0.1,0.5l-1.4,5.9h-0.9l-1.6-8h1L117.9,121.9L117.9,121.9z"/>
	<path class="st2" d="M126.6,120.4l1.6-4h1.1l-2.3,5v3h-1v-3l-2.3-5h1.2C125,116.4,126.6,120.4,126.6,120.4z"/>
</g>
<g>
	<path class="st2" d="M157.9,122c0-0.4-0.1-0.7-0.3-0.9c-0.2-0.2-0.6-0.4-1.2-0.6s-1-0.4-1.3-0.6c-0.3-0.2-0.5-0.5-0.7-0.8
		s-0.2-0.6-0.2-1c0-0.6,0.2-1.2,0.6-1.6c0.4-0.4,1-0.6,1.7-0.6c0.5,0,0.9,0.1,1.3,0.3c0.4,0.2,0.6,0.5,0.9,0.9
		c0.2,0.4,0.3,0.8,0.3,1.2h-1c0-0.5-0.1-0.9-0.4-1.1s-0.6-0.4-1-0.4c-0.4,0-0.7,0.1-0.9,0.3c-0.2,0.2-0.3,0.6-0.3,1
		c0,0.3,0.1,0.6,0.4,0.9c0.2,0.2,0.6,0.4,1.1,0.6c0.8,0.3,1.4,0.6,1.7,1c0.3,0.4,0.5,0.9,0.5,1.5c0,0.6-0.2,1.2-0.6,1.6
		s-1,0.6-1.7,0.6c-0.5,0-0.9-0.1-1.3-0.3c-0.4-0.2-0.7-0.5-0.9-0.9c-0.2-0.4-0.3-0.8-0.3-1.3h1c0,0.5,0.1,0.9,0.4,1.2
		s0.6,0.4,1.1,0.4c0.4,0,0.8-0.1,1-0.3S157.9,122.4,157.9,122L157.9,122z"/>
	<path class="st2" d="M159.8,124v-8h1.9c0.9,0,1.7,0.3,2.2,0.9c0.5,0.6,0.8,1.4,0.8,2.5v1.4c0,1.1-0.3,1.9-0.8,2.5s-1.3,0.9-2.3,0.9
		L159.8,124L159.8,124z M160.8,116.9v6.3h0.8c0.7,0,1.2-0.2,1.6-0.6c0.3-0.4,0.5-1,0.5-1.8v-1.4c0-0.9-0.2-1.5-0.5-1.9
		c-0.3-0.4-0.8-0.6-1.5-0.6H160.8z"/>
</g>
<g>
	<path class="st2" d="M194.2,124.5h-1v-8h1V124.5z"/>
	<path class="st2" d="M199.2,122.4h-2.7l-0.6,2.1h-1l2.6-8h0.9l2.6,8h-1L199.2,122.4L199.2,122.4z M196.8,121.5h2.2l-1.1-3.6
		L196.8,121.5z"/>
</g>
<g>
	<path class="st2" d="M68,152.7c0,1.1-0.2,1.9-0.7,2.5c-0.5,0.6-1.1,0.9-2,0.9s-1.5-0.3-2-0.9s-0.7-1.4-0.8-2.4v-1.5
		c0-1.1,0.2-1.9,0.7-2.5c0.5-0.6,1.1-0.9,2-0.9s1.5,0.3,2,0.9s0.7,1.4,0.7,2.5L68,152.7L68,152.7z M67,151.3c0-0.9-0.1-1.5-0.4-1.9
		s-0.7-0.6-1.3-0.6s-1,0.2-1.3,0.6s-0.4,1-0.4,1.9v1.4c0,0.8,0.1,1.4,0.4,1.9c0.3,0.4,0.7,0.6,1.3,0.6s1-0.2,1.3-0.6
		c0.3-0.4,0.4-1,0.4-1.8V151.3L67,151.3z"/>
	<path class="st2" d="M71.5,152.8h-1.4v3.2h-1v-8h2.2c0.8,0,1.4,0.2,1.8,0.6c0.4,0.4,0.6,1,0.6,1.8c0,0.5-0.1,0.9-0.3,1.3
		c-0.2,0.4-0.5,0.6-0.9,0.8l1.6,3.4v0.1h-1.1L71.5,152.8L71.5,152.8z M70.1,151.9h1.2c0.4,0,0.8-0.1,1-0.4s0.4-0.6,0.4-1.1
		c0-1-0.5-1.6-1.4-1.6h-1.2V151.9z"/>
</g>
<g>
	<path class="st2" d="M103.9,156h-1l-3.2-6.2v6.2h-1v-8h1l3.2,6.2V148h1V156z"/>
	<path class="st2" d="M107.5,154.4l1.8-6.5h1.1l-2.5,8H107l-2.5-8h1.1L107.5,154.4z"/>
</g>
<g>
	<path class="st2" d="M85.2,183.3c0,0.9-0.3,1.5-0.7,2c-0.4,0.5-1.1,0.7-1.9,0.7s-1.4-0.3-1.9-0.9c-0.5-0.6-0.7-1.4-0.7-2.5v-1.5
		c0-1,0.2-1.9,0.7-2.5c0.5-0.6,1.2-0.9,2-0.9c0.8,0,1.4,0.2,1.8,0.7s0.7,1.1,0.7,2h-1c0-0.6-0.2-1.1-0.4-1.4s-0.6-0.4-1.1-0.4
		c-0.6,0-1,0.2-1.3,0.6s-0.4,1.1-0.4,1.9v1.5c0,0.8,0.1,1.4,0.4,1.9s0.7,0.6,1.2,0.6s0.9-0.1,1.1-0.4s0.4-0.7,0.4-1.4L85.2,183.3
		L85.2,183.3z"/>
	<path class="st2" d="M89.8,183.8h-2.7l-0.6,2.1h-1l2.6-8h0.9l2.6,8h-1L89.8,183.8L89.8,183.8z M87.3,182.9h2.2l-1.1-3.6
		C88.4,179.2,87.3,182.9,87.3,182.9z"/>
</g>
<g>
	<path class="st2" d="M120.7,183.9H118l-0.6,2.1h-1l2.6-8h0.9l2.6,8h-1L120.7,183.9L120.7,183.9z M118.3,183h2.2l-1.1-3.6
		C119.4,179.3,118.3,183,118.3,183z"/>
	<path class="st2" d="M123.8,185.1h3.8v0.9h-4.9v-0.8l3.7-6.4h-3.6v-0.9h4.7v0.8L123.8,185.1L123.8,185.1z"/>
</g>
<g>
	<path class="st2" d="M141.6,153.4c0,0.9-0.3,1.5-0.7,2c-0.4,0.5-1.1,0.7-1.9,0.7s-1.4-0.3-1.9-0.9s-0.7-1.4-0.7-2.5v-1.5
		c0-1,0.2-1.9,0.7-2.5c0.5-0.6,1.1-0.9,2-0.9c0.8,0,1.4,0.2,1.8,0.7s0.7,1.1,0.7,2h-1c0-0.6-0.2-1.1-0.4-1.4s-0.6-0.4-1.1-0.4
		c-0.6,0-1,0.2-1.3,0.6s-0.4,1.1-0.4,1.9v1.5c0,0.8,0.1,1.4,0.4,1.9s0.7,0.6,1.2,0.6s0.9-0.1,1.1-0.4s0.4-0.7,0.4-1.4L141.6,153.4
		L141.6,153.4z"/>
	<path class="st2" d="M147.7,152.7c0,1.1-0.2,1.9-0.7,2.5s-1.1,0.9-2,0.9s-1.5-0.3-2-0.9s-0.7-1.4-0.8-2.4v-1.5
		c0-1.1,0.2-1.9,0.7-2.5s1.1-0.9,2-0.9s1.5,0.3,2,0.9s0.7,1.4,0.7,2.5L147.7,152.7L147.7,152.7z M146.7,151.3c0-0.9-0.1-1.5-0.4-1.9
		s-0.7-0.6-1.3-0.6s-1,0.2-1.3,0.6s-0.4,1-0.4,1.9v1.4c0,0.8,0.1,1.4,0.4,1.9c0.3,0.4,0.7,0.6,1.3,0.6s1-0.2,1.3-0.6
		c0.3-0.4,0.4-1,0.4-1.8V151.3L146.7,151.3z"/>
</g>
<g>
	<path class="st2" d="M178.4,156h-1l-3.2-6.2v6.2h-1v-8h1l3.2,6.2V148h1V156z"/>
	<path class="st2" d="M183.5,152.3h-2.8v2.8h3.3v0.9h-4.3v-8h4.3v0.9h-3.2v2.6h2.8L183.5,152.3L183.5,152.3z"/>
</g>
<g>
	<path class="st2" d="M159.8,177.8v5.7c0,0.8-0.2,1.4-0.7,1.8c-0.4,0.4-1,0.6-1.8,0.6s-1.4-0.2-1.8-0.6s-0.6-1-0.6-1.8v-5.7h1v5.7
		c0,0.5,0.1,0.9,0.3,1.2s0.6,0.4,1.1,0.4s0.9-0.1,1.1-0.4s0.3-0.7,0.3-1.2v-5.7L159.8,177.8L159.8,177.8z"/>
	<path class="st2" d="M165.6,178.7h-2.1v7.2h-1v-7.2h-2.1v-0.9h5.2V178.7z"/>
</g>
<g>
	<path class="st2" d="M193.2,182.1l-0.8,1v2.8h-1v-8h1v3.9l0.7-0.9l2.2-3h1.2l-2.6,3.5l2.8,4.5h-1.2L193.2,182.1L193.2,182.1z"/>
	<path class="st2" d="M200.6,183.8c0-0.4-0.1-0.7-0.3-0.9s-0.6-0.4-1.2-0.6s-1-0.4-1.3-0.6c-0.3-0.2-0.5-0.5-0.7-0.8s-0.2-0.6-0.2-1
		c0-0.6,0.2-1.2,0.6-1.6c0.4-0.4,1-0.6,1.7-0.6c0.5,0,0.9,0.1,1.3,0.3s0.6,0.5,0.9,0.9c0.2,0.4,0.3,0.8,0.3,1.2h-1
		c0-0.5-0.1-0.9-0.4-1.1s-0.6-0.4-1-0.4c-0.4,0-0.7,0.1-0.9,0.3c-0.2,0.2-0.3,0.5-0.3,1c0,0.3,0.1,0.6,0.4,0.9s0.6,0.4,1.1,0.6
		c0.8,0.3,1.4,0.6,1.7,1s0.5,0.9,0.5,1.5c0,0.6-0.2,1.2-0.6,1.6c-0.4,0.4-1,0.6-1.7,0.6c-0.5,0-0.9-0.1-1.3-0.3
		c-0.4-0.2-0.7-0.5-0.9-0.9s-0.3-0.8-0.3-1.3h1c0,0.5,0.1,0.9,0.4,1.2s0.6,0.4,1.1,0.4c0.4,0,0.8-0.1,1-0.3S200.6,184.2,200.6,183.8
		L200.6,183.8z"/>
</g>
<g>
	<path class="st2" d="M231.6,183.9h-2.7l-0.6,2.1h-1l2.6-8h0.9l2.6,8h-1L231.6,183.9L231.6,183.9z M229.1,183h2.2l-1.1-3.6
		L229.1,183z"/>
	<path class="st2" d="M236.3,182.7h-1.4v3.2h-1v-8h2.2c0.8,0,1.4,0.2,1.8,0.6c0.4,0.4,0.6,1,0.6,1.8c0,0.5-0.1,0.9-0.3,1.3
		s-0.5,0.6-0.9,0.8l1.6,3.4v0.1h-1.1L236.3,182.7L236.3,182.7z M234.9,181.8h1.2c0.4,0,0.8-0.1,1-0.4s0.4-0.6,0.4-1.1
		c0-1-0.5-1.5-1.4-1.5h-1.2V181.8z"/>
</g>
<g>
	<path class="st2" d="M268.5,178.8h-2.1v7.2h-1v-7.2h-2.1v-0.9h5.2L268.5,178.8L268.5,178.8z"/>
	<path class="st2" d="M274.4,186h-1l-3.2-6.2v6.2h-1v-8h1l3.2,6.2v-6.2h1V186z"/>
</g>
<g>
	<path class="st2" d="M210.9,148l2.1,6.6l2.1-6.6h1.3v8h-1v-3.1l0.1-3.1l-2.1,6.3h-0.8l-2.1-6.2l0.1,3.1v3.1h-1v-8L210.9,148
		L210.9,148z"/>
	<path class="st2" d="M222.9,152.7c0,1.1-0.2,1.9-0.7,2.5s-1.1,0.9-2,0.9s-1.5-0.3-2-0.9s-0.7-1.4-0.8-2.4v-1.5
		c0-1.1,0.2-1.9,0.7-2.5s1.1-0.9,2-0.9s1.5,0.3,2,0.9s0.7,1.4,0.7,2.5L222.9,152.7L222.9,152.7z M221.9,151.3c0-0.9-0.1-1.5-0.4-1.9
		s-0.7-0.6-1.3-0.6s-1,0.2-1.3,0.6s-0.4,1-0.4,1.9v1.4c0,0.8,0.1,1.4,0.4,1.9c0.3,0.4,0.7,0.6,1.3,0.6s1-0.2,1.3-0.6
		c0.3-0.4,0.4-1,0.4-1.8V151.3L221.9,151.3z"/>
</g>
<g>
	<path class="st2" d="M231.3,124.5h-1v-8h1V124.5z"/>
	<path class="st2" d="M233.6,123.6h3.1v0.9h-4.2v-8h1L233.6,123.6L233.6,123.6z"/>
</g>
<g>
	<path class="st2" d="M268.8,124.5h-1v-8h1V124.5z"/>
	<path class="st2" d="M275.3,124.5h-1l-3.2-6.2v6.2h-1v-8h1l3.2,6.2v-6.2h1V124.5z"/>
</g>
<g>
	<path class="st2" d="M248.7,152.3l-0.8,0.9v2.8h-1v-8h1v3.9l0.7-0.9l2.2-3h1.2l-2.6,3.5l2.8,4.5h-1.2L248.7,152.3L248.7,152.3z"/>
	<path class="st2" d="M254.6,152l1.6-4h1.1l-2.3,5v3h-1v-3l-2.3-5h1.1L254.6,152L254.6,152z"/>
</g>
<g>
	<path class="st2" d="M283.9,153.8l0.1,0.9l0.2-0.8l1.3-5.6h0.8l1.2,5.6l0.2,0.8l0.1-0.9l1-5.5h1l-1.6,8h-0.9l-1.3-5.9l-0.1-0.5
		l-0.1,0.5l-1.4,5.9h-0.9l-1.6-8h1L283.9,153.8L283.9,153.8z"/>
	<path class="st2" d="M292.8,154.8l1.8-6.5h1.1l-2.5,8h-0.9l-2.5-8h1.1L292.8,154.8z"/>
</g>
<g>
	<path class="st2" d="M139.6,217.2h-1l-3.2-6.2v6.2h-1v-8h1l3.2,6.2v-6.2h1V217.2z"/>
	<path class="st2" d="M142.1,209.1l2.1,6.5l2.1-6.5h1.3v8h-1V214l0.1-3.1l-2.1,6.3h-0.8l-2.1-6.2l0.1,3.1v3.1h-1v-8L142.1,209.1
		L142.1,209.1z"/>
</g>
<g>
	<path class="st2" d="M159,242.4h-2.1v7.2h-1v-7.2h-2.1v-0.9h5.2V242.4z"/>
	<path class="st2" d="M161.9,244.6l1.5-3.1h1.2l-2.1,4l2.1,4h-1.2l-1.5-3.1l-1.6,3.1h-1.2l2.1-4l-2.1-4h1.2L161.9,244.6L161.9,244.6
		z"/>
</g>
<g>
	<path class="st2" d="M178.1,213.9c0,1.1-0.2,1.9-0.7,2.5s-1.1,0.9-2,0.9s-1.5-0.3-2-0.9s-0.7-1.4-0.8-2.4v-1.5
		c0-1.1,0.2-1.9,0.7-2.5s1.1-0.9,2-0.9s1.5,0.3,2,0.9c0.5,0.6,0.7,1.4,0.7,2.5L178.1,213.9L178.1,213.9z M177.1,212.4
		c0-0.9-0.1-1.5-0.4-1.9s-0.7-0.6-1.3-0.6s-1,0.2-1.3,0.6s-0.4,1-0.4,1.9v1.4c0,0.8,0.1,1.4,0.4,1.9c0.3,0.4,0.7,0.6,1.3,0.6
		s1-0.2,1.3-0.6c0.3-0.4,0.4-1,0.4-1.8V212.4L177.1,212.4z"/>
	<path class="st2" d="M180.9,213.5l-0.8,1v2.8h-1v-8h1v3.9l0.7-0.9l2.2-3h1.2l-2.6,3.5l2.8,4.5h-1.2L180.9,213.5L180.9,213.5z"/>
</g>
<g>
	<path class="st2" d="M211.1,216.4h3.1v0.9h-4.2v-8h1L211.1,216.4L211.1,216.4z"/>
	<path class="st2" d="M218.8,215.1H216l-0.6,2.1h-1l2.6-8h0.9l2.6,8h-1L218.8,215.1L218.8,215.1z M216.3,214.3h2.2l-1.1-3.6
		L216.3,214.3z"/>
</g>
<g>
	<path class="st2" d="M32.1,279.7h-1V276h-3.2v3.7h-1v-8h1v3.5h3.2v-3.5h1V279.7z"/>
	<path class="st2" d="M34.5,279.7h-1v-8h1V279.7z"/>
</g>
<g>
	<path class="st2" d="M247.2,209.2l2.1,6.5l2.1-6.5h1.3v8h-1v-3.1l0.1-3.1l-2.1,6.3h-0.8l-2.1-6.2l0.1,3.1v3.1h-1v-8L247.2,209.2
		L247.2,209.2z"/>
	<path class="st2" d="M257.5,215.2c0-0.4-0.1-0.7-0.3-0.9c-0.2-0.2-0.6-0.4-1.2-0.6c-0.6-0.2-1-0.4-1.3-0.6s-0.5-0.5-0.7-0.8
		c-0.1-0.3-0.2-0.6-0.2-1c0-0.6,0.2-1.2,0.6-1.6c0.4-0.4,1-0.6,1.7-0.6c0.5,0,0.9,0.1,1.3,0.3c0.4,0.2,0.6,0.5,0.9,0.9
		s0.3,0.8,0.3,1.2h-1c0-0.5-0.1-0.9-0.4-1.1s-0.6-0.4-1-0.4c-0.4,0-0.7,0.1-0.9,0.3c-0.2,0.2-0.3,0.5-0.3,1c0,0.3,0.1,0.6,0.4,0.9
		s0.6,0.4,1.1,0.6c0.8,0.3,1.4,0.6,1.7,1c0.3,0.4,0.5,0.9,0.5,1.5c0,0.6-0.2,1.2-0.6,1.6c-0.4,0.4-1,0.6-1.7,0.6
		c-0.5,0-0.9-0.1-1.3-0.3c-0.4-0.2-0.7-0.5-0.9-0.9c-0.2-0.4-0.3-0.8-0.3-1.3h1c0,0.5,0.1,0.9,0.4,1.2s0.6,0.4,1.1,0.4
		c0.4,0,0.8-0.1,1-0.3S257.5,215.6,257.5,215.2L257.5,215.2z"/>
</g>
<g>
	<path class="st2" d="M287.3,215.2h-2.7l-0.6,2.1h-1l2.6-8h0.9l2.6,8h-1L287.3,215.2L287.3,215.2z M284.9,214.4h2.2l-1.1-3.6
		L284.9,214.4z"/>
	<path class="st2" d="M290.6,216.5h3.1v0.9h-4.2v-8h1V216.5z"/>
</g>
<g>
	<path class="st2" d="M323.9,215.3c0-0.4-0.1-0.7-0.3-0.9c-0.2-0.2-0.6-0.4-1.2-0.6c-0.6-0.2-1-0.4-1.3-0.6s-0.5-0.5-0.7-0.8
		c-0.1-0.3-0.2-0.6-0.2-1c0-0.6,0.2-1.2,0.6-1.6c0.4-0.4,1-0.6,1.7-0.6c0.5,0,0.9,0.1,1.3,0.3c0.4,0.2,0.6,0.5,0.9,0.9
		s0.3,0.8,0.3,1.2h-1c0-0.5-0.1-0.9-0.4-1.1s-0.6-0.4-1-0.4c-0.4,0-0.7,0.1-1,0.3c-0.2,0.2-0.3,0.5-0.3,1c0,0.3,0.1,0.6,0.4,0.9
		s0.6,0.4,1.1,0.6c0.8,0.3,1.4,0.6,1.7,1c0.3,0.4,0.5,0.9,0.5,1.5c0,0.6-0.2,1.2-0.6,1.6c-0.4,0.4-1,0.6-1.7,0.6
		c-0.5,0-0.9-0.1-1.3-0.3c-0.4-0.2-0.7-0.5-0.9-0.9c-0.2-0.4-0.3-0.8-0.3-1.3h1c0,0.5,0.1,0.9,0.4,1.2s0.6,0.4,1.1,0.4
		c0.4,0,0.8-0.1,1-0.3S323.9,215.7,323.9,215.3L323.9,215.3z"/>
	<path class="st2" d="M330.8,214.8c0,0.9-0.3,1.5-0.7,2c-0.4,0.5-1.1,0.7-1.9,0.7s-1.4-0.3-1.9-0.9c-0.5-0.6-0.7-1.4-0.7-2.5v-1.5
		c0-1,0.2-1.9,0.7-2.5c0.5-0.6,1.1-0.9,2-0.9c0.8,0,1.4,0.2,1.8,0.7c0.4,0.5,0.7,1.1,0.7,2h-1c0-0.6-0.2-1.1-0.4-1.4
		s-0.6-0.4-1.1-0.4c-0.5,0-1,0.2-1.3,0.6s-0.4,1.1-0.4,1.9v1.5c0,0.8,0.1,1.4,0.4,1.9s0.7,0.6,1.2,0.6s0.9-0.1,1.1-0.4
		s0.4-0.7,0.4-1.4L330.8,214.8L330.8,214.8z"/>
</g>
<g>
	<path class="st2" d="M307.1,248.6l-0.2,0.2c-0.5,0.6-1.2,0.9-2.2,0.9c-0.9,0-1.5-0.3-2-0.9s-0.8-1.4-0.8-2.4v-1.6
		c0-1.1,0.2-2,0.7-2.5c0.5-0.6,1.1-0.8,2-0.8c0.8,0,1.4,0.2,1.8,0.6s0.7,1,0.7,1.8h-1c0-0.5-0.2-0.9-0.4-1.2
		c-0.2-0.3-0.6-0.4-1.1-0.4c-0.6,0-1,0.2-1.3,0.6s-0.4,1-0.4,1.8v1.6c0,0.8,0.1,1.4,0.5,1.9s0.8,0.6,1.3,0.6c0.5,0,1-0.1,1.2-0.4
		l0.1-0.1v-1.8h-1.5v-0.9h2.5L307.1,248.6L307.1,248.6z"/>
	<path class="st2" d="M312,247.5h-2.7l-0.6,2.1h-1l2.6-8h0.9l2.6,8h-1L312,247.5L312,247.5z M309.6,246.6h2.2l-1.1-3.6L309.6,246.6z
		"/>
</g>
<g>
	<path class="st2" d="M324.7,277.1H322v3.5h-1v-8h4.2v0.9H322v2.8h2.7L324.7,277.1L324.7,277.1z"/>
	<path class="st2" d="M327,279.8h3.1v0.9h-4.2v-8h1V279.8z"/>
</g>
<g>
	<path class="st2" d="M344.5,186h-1l-3.2-6.2v6.2h-1v-8h1l3.2,6.2v-6.2h1V186z"/>
	<path class="st2" d="M350.8,183.4c0,0.9-0.3,1.5-0.7,2c-0.4,0.5-1.1,0.7-1.9,0.7s-1.4-0.3-1.9-0.9c-0.5-0.6-0.7-1.4-0.7-2.5v-1.5
		c0-1,0.2-1.9,0.7-2.5c0.5-0.6,1.1-0.9,2-0.9c0.8,0,1.4,0.2,1.8,0.7c0.4,0.5,0.7,1.1,0.7,2h-1c0-0.6-0.2-1.1-0.4-1.4
		s-0.6-0.4-1.1-0.4c-0.5,0-1,0.2-1.3,0.6c-0.3,0.4-0.4,1.1-0.4,1.9v1.5c0,0.8,0.1,1.4,0.4,1.9c0.3,0.4,0.7,0.6,1.2,0.6
		s0.9-0.1,1.1-0.4s0.4-0.7,0.4-1.4L350.8,183.4L350.8,183.4z"/>
</g>
<g>
	<path class="st2" d="M303.7,184.3l1.8-6.5h1.1l-2.5,8h-0.9l-2.5-8h1.1L303.7,184.3z"/>
	<path class="st2" d="M311,183.8h-2.7l-0.6,2.1h-1l2.6-8h0.9l2.6,8h-1L311,183.8L311,183.8z M308.6,182.9h2.2l-1.1-3.6L308.6,182.9z
		"/>
</g>
<g>
	<path class="st2" d="M321.3,148l2.1,6.6l2.1-6.6h1.3v8h-1v-3.1l0.1-3.1l-2.1,6.3H323l-2.1-6.2l0.1,3.1v3.1h-1v-8L321.3,148
		L321.3,148z"/>
	<path class="st2" d="M328,156v-8h1.9c0.9,0,1.7,0.3,2.2,0.9c0.5,0.6,0.8,1.4,0.8,2.5v1.4c0,1.1-0.3,1.9-0.8,2.5s-1.3,0.9-2.3,0.9
		L328,156L328,156z M329.1,148.8v6.3h0.8c0.7,0,1.2-0.2,1.5-0.6c0.3-0.4,0.5-1,0.5-1.8v-1.4c0-0.9-0.2-1.5-0.5-1.9
		c-0.3-0.4-0.8-0.6-1.5-0.6H329.1z"/>
</g>
<g>
	<path class="st2" d="M358.1,155v-8h1.9c0.9,0,1.7,0.3,2.2,0.9c0.5,0.6,0.8,1.4,0.8,2.5v1.4c0,1.1-0.3,1.9-0.8,2.5s-1.3,0.9-2.3,0.9
		L358.1,155L358.1,155z M359.1,147.8v6.3h0.8c0.7,0,1.2-0.2,1.5-0.6c0.3-0.4,0.5-1,0.5-1.8v-1.4c0-0.9-0.2-1.5-0.5-1.9
		c-0.3-0.4-0.8-0.6-1.5-0.6H359.1z"/>
	<path class="st2" d="M367.9,151.3h-2.8v2.8h3.3v0.9h-4.3v-8h4.3v0.9h-3.2v2.6h2.8V151.3L367.9,151.3z"/>
</g>
<g>
	<path class="st2" d="M306,121.1c0,1.1-0.2,1.9-0.7,2.5s-1.1,0.9-2,0.9s-1.5-0.3-2-0.9s-0.7-1.4-0.8-2.4v-1.5c0-1.1,0.2-1.9,0.7-2.5
		s1.1-0.9,2-0.9s1.5,0.3,2,0.9c0.5,0.6,0.7,1.4,0.7,2.5L306,121.1L306,121.1z M305,119.7c0-0.9-0.1-1.5-0.4-1.9s-0.7-0.6-1.3-0.6
		s-1,0.2-1.3,0.6s-0.4,1-0.4,1.9v1.4c0,0.8,0.1,1.4,0.4,1.9c0.3,0.4,0.7,0.6,1.3,0.6s1-0.2,1.3-0.6c0.3-0.4,0.4-1,0.4-1.8V119.7
		L305,119.7z"/>
	<path class="st2" d="M312.4,124.4h-1v-3.7h-3.2v3.7h-1v-8h1v3.4h3.2v-3.4h1V124.4z"/>
</g>
<g>
	<path class="st2" d="M340.6,121v3.1h-1v-8h2.6c0.8,0,1.3,0.2,1.8,0.7c0.4,0.4,0.6,1,0.6,1.8s-0.2,1.4-0.6,1.8
		c-0.4,0.4-1,0.6-1.7,0.6L340.6,121L340.6,121z M340.6,120.1h1.5c0.5,0,0.8-0.1,1-0.4c0.2-0.3,0.4-0.6,0.4-1.1s-0.1-0.9-0.4-1.2
		c-0.2-0.3-0.6-0.4-1-0.4h-1.5L340.6,120.1L340.6,120.1z"/>
	<path class="st2" d="M349.1,122h-2.7l-0.6,2.1h-1l2.6-8h0.9l2.6,8h-1L349.1,122L349.1,122z M346.7,121.2h2.2l-1.1-3.6L346.7,121.2z
		"/>
</g>
<g>
	<path class="st2" d="M380.4,124h-1l-3.2-6.2v6.2h-1v-8h1l3.2,6.2V116h1V124z"/>
	<path class="st2" d="M384.5,116h1v5.7c0,0.8-0.2,1.4-0.6,1.8c-0.4,0.4-0.9,0.6-1.6,0.6s-1.2-0.2-1.6-0.6c-0.4-0.4-0.6-1-0.6-1.7h1
		c0,0.5,0.1,0.8,0.3,1.1c0.2,0.3,0.5,0.4,0.8,0.4s0.6-0.1,0.8-0.4s0.3-0.7,0.3-1.2L384.5,116L384.5,116z"/>
</g>
<g>
	<path class="st2" d="M417.3,121.9c0,0.9-0.3,1.5-0.7,2c-0.4,0.5-1.1,0.7-1.9,0.7s-1.4-0.3-1.9-0.9c-0.5-0.6-0.7-1.4-0.7-2.5v-1.5
		c0-1,0.2-1.9,0.7-2.5c0.5-0.6,1.1-0.9,2-0.9c0.8,0,1.4,0.2,1.8,0.7c0.4,0.5,0.7,1.1,0.7,2h-1c0-0.6-0.2-1.1-0.4-1.4
		s-0.6-0.4-1.1-0.4c-0.5,0-1,0.2-1.3,0.6s-0.4,1.1-0.4,1.9v1.5c0,0.8,0.1,1.4,0.4,1.9s0.7,0.6,1.2,0.6s0.9-0.1,1.1-0.4
		s0.4-0.7,0.4-1.4L417.3,121.9L417.3,121.9z"/>
	<path class="st2" d="M422.9,117.3h-2.1v7.2h-1v-7.2h-2.1v-0.9h5.2L422.9,117.3L422.9,117.3z"/>
</g>
<g>
	<path class="st2" d="M434.5,89.4h-1.4v3.2h-1v-8h2.2c0.8,0,1.4,0.2,1.8,0.6c0.4,0.4,0.6,1,0.6,1.8c0,0.5-0.1,0.9-0.3,1.3
		c-0.2,0.4-0.5,0.6-0.9,0.8l1.5,3.4v0.1h-1.1L434.5,89.4L434.5,89.4z M433.1,88.6h1.2c0.4,0,0.8-0.1,1-0.4s0.4-0.6,0.4-1.1
		c0-1-0.5-1.6-1.4-1.6h-1.2L433.1,88.6L433.1,88.6z"/>
	<path class="st2" d="M438.7,92.7h-1v-8h1V92.7z"/>
</g>
<g>
	<path class="st2" d="M449.9,186.1v-8h1.9c0.9,0,1.7,0.3,2.2,0.9c0.5,0.6,0.8,1.4,0.8,2.5v1.3c0,1.1-0.3,1.9-0.8,2.5
		s-1.3,0.9-2.3,0.9L449.9,186.1L449.9,186.1z M450.9,178.9v6.3h0.8c0.7,0,1.2-0.2,1.5-0.6c0.3-0.4,0.5-1,0.5-1.8v-1.4
		c0-0.9-0.2-1.5-0.5-1.9c-0.3-0.4-0.8-0.6-1.5-0.6L450.9,178.9L450.9,178.9z"/>
	<path class="st2" d="M460.9,183.5c0,0.9-0.3,1.5-0.7,2c-0.4,0.5-1.1,0.7-1.9,0.7s-1.4-0.3-1.9-0.9c-0.5-0.6-0.7-1.4-0.7-2.5v-1.5
		c0-1,0.2-1.9,0.7-2.5c0.5-0.6,1.1-0.9,2-0.9c0.8,0,1.4,0.2,1.8,0.7c0.4,0.5,0.6,1.1,0.7,2h-1c0-0.6-0.2-1.1-0.4-1.4
		s-0.6-0.4-1.1-0.4c-0.5,0-1,0.2-1.3,0.6s-0.4,1.1-0.4,1.9v1.5c0,0.8,0.1,1.4,0.4,1.9s0.7,0.6,1.2,0.6s0.9-0.1,1.1-0.4
		c0.2-0.3,0.4-0.7,0.4-1.4L460.9,183.5L460.9,183.5z"/>
</g>
<g>
	<path class="st4" d="M137.8,328.8v3.3h-1.1v-8.5h2.7c0.8,0,1.4,0.2,1.9,0.7s0.7,1.1,0.7,1.9s-0.2,1.5-0.6,1.9s-1,0.7-1.8,0.7
		L137.8,328.8L137.8,328.8z M137.8,327.9h1.6c0.5,0,0.8-0.1,1.1-0.4c0.2-0.3,0.4-0.7,0.4-1.2s-0.1-0.9-0.4-1.2s-0.6-0.5-1.1-0.5
		h-1.6L137.8,327.9L137.8,327.9z"/>
	<path class="st4" d="M145.9,326.8c-0.1,0-0.3,0-0.5,0c-0.5,0-0.9,0.3-1.1,0.9v4.5h-1v-6.3h1l0,0.6c0.3-0.5,0.7-0.8,1.2-0.8
		c0.2,0,0.3,0,0.4,0.1V326.8z"/>
	<path class="st4" d="M146.6,328.7c0-0.9,0.2-1.6,0.7-2.2s1-0.8,1.8-0.8s1.3,0.3,1.8,0.8s0.7,1.2,0.7,2.1v0.7c0,0.9-0.2,1.6-0.7,2.2
		s-1,0.8-1.8,0.8s-1.3-0.3-1.8-0.8s-0.7-1.2-0.7-2.1L146.6,328.7L146.6,328.7z M147.6,329.3c0,0.6,0.1,1.2,0.4,1.5s0.6,0.6,1,0.6
		c0.9,0,1.4-0.7,1.4-2v-0.7c0-0.6-0.1-1.2-0.4-1.5s-0.6-0.6-1-0.6s-0.8,0.2-1,0.6s-0.4,0.9-0.4,1.5L147.6,329.3L147.6,329.3z"/>
	<path class="st4" d="M154.7,329h-2.4v-0.9h2.4V329z"/>
	<path class="st4" d="M157,331.2h3.4v0.9H156v-8.5h1.1L157,331.2L157,331.2z"/>
	<path class="st4" d="M162.7,324.1c0,0.2-0.1,0.3-0.1,0.4s-0.2,0.2-0.4,0.2s-0.3-0.1-0.4-0.2s-0.1-0.3-0.1-0.4s0.1-0.3,0.1-0.5
		s0.2-0.2,0.4-0.2s0.3,0.1,0.4,0.2S162.7,323.9,162.7,324.1L162.7,324.1z M162.6,332.1h-1v-6.3h1V332.1z"/>
	<path class="st4" d="M164.7,332.1v-5.5h-0.8v-0.8h0.8v-0.7c0-0.6,0.2-1.1,0.5-1.5s0.8-0.5,1.3-0.5c0.2,0,0.4,0,0.6,0.1l-0.1,0.9
		c-0.1,0-0.3,0-0.5,0c-0.6,0-0.9,0.4-0.9,1.3v0.6h1.1v0.8h-1.1v5.5H164.7L164.7,332.1z"/>
	<path class="st4" d="M170.3,332.2c-0.8,0-1.4-0.2-1.8-0.7s-0.6-1.2-0.6-2.1v-0.8c0-1,0.2-1.7,0.6-2.2s1-0.8,1.7-0.8
		s1.3,0.2,1.7,0.7s0.6,1.2,0.6,2.2v0.7h-3.5v0.1c0,0.7,0.1,1.2,0.4,1.5s0.6,0.5,1.1,0.5c0.3,0,0.6-0.1,0.8-0.2s0.4-0.3,0.6-0.5
		l0.5,0.7C171.9,331.9,171.2,332.2,170.3,332.2L170.3,332.2z M170.2,326.6c-0.4,0-0.8,0.1-1,0.4s-0.3,0.8-0.4,1.4h2.5v-0.1
		c0-0.6-0.1-1-0.3-1.3S170.6,326.6,170.2,326.6L170.2,326.6z"/>
	<path class="st4" d="M180.3,330c0-0.4-0.1-0.8-0.4-1s-0.6-0.5-1.2-0.7s-1.1-0.4-1.4-0.7s-0.6-0.5-0.7-0.8s-0.2-0.6-0.2-1
		c0-0.7,0.2-1.2,0.7-1.7s1-0.7,1.8-0.7c0.5,0,0.9,0.1,1.3,0.3s0.7,0.5,0.9,0.9c0.2,0.4,0.3,0.8,0.3,1.3h-1.1c0-0.5-0.1-0.9-0.4-1.2
		s-0.6-0.4-1.1-0.4c-0.4,0-0.8,0.1-1,0.4c-0.2,0.2-0.4,0.6-0.4,1c0,0.4,0.1,0.7,0.4,0.9s0.7,0.5,1.2,0.6c0.8,0.3,1.4,0.6,1.8,1
		s0.5,0.9,0.5,1.6c0,0.7-0.2,1.2-0.7,1.7s-1.1,0.6-1.8,0.6c-0.5,0-0.9-0.1-1.4-0.3s-0.8-0.5-1-0.9s-0.4-0.8-0.4-1.4h1.1
		c0,0.5,0.1,0.9,0.4,1.2s0.7,0.4,1.2,0.4c0.5,0,0.8-0.1,1.1-0.4S180.3,330.4,180.3,330L180.3,330z"/>
	<path class="st4" d="M184,324.3v1.5h1v0.8h-1v3.9c0,0.2,0,0.4,0.1,0.6s0.2,0.2,0.4,0.2c0.1,0,0.3,0,0.4-0.1v0.9
		c-0.2,0.1-0.5,0.1-0.7,0.1c-0.4,0-0.7-0.1-0.9-0.4s-0.3-0.7-0.3-1.2v-3.9h-1v-0.8h1v-1.5H184L184,324.3z"/>
	<path class="st4" d="M189.4,332.1c-0.1-0.1-0.1-0.4-0.1-0.7c-0.4,0.5-0.8,0.8-1.4,0.8s-1-0.2-1.3-0.5s-0.5-0.8-0.5-1.4
		c0-0.6,0.2-1.2,0.7-1.5s1-0.6,1.8-0.6h0.8v-0.7c0-0.4-0.1-0.6-0.2-0.8s-0.4-0.2-0.8-0.2c-0.3,0-0.6,0.1-0.8,0.3s-0.3,0.4-0.3,0.7
		h-1c0-0.3,0.1-0.6,0.3-0.9s0.4-0.5,0.8-0.7s0.7-0.2,1.1-0.2c0.6,0,1.1,0.2,1.5,0.5s0.5,0.8,0.5,1.4v3.2c0,0.5,0.1,0.9,0.2,1.3v0.1
		L189.4,332.1L189.4,332.1z M188,331.3c0.2,0,0.5-0.1,0.7-0.2s0.4-0.3,0.5-0.5v-1.5h-0.6c-0.5,0-0.9,0.1-1.2,0.3s-0.4,0.5-0.4,0.9
		c0,0.4,0.1,0.6,0.2,0.8S187.7,331.3,188,331.3L188,331.3z"/>
	<path class="st4" d="M193.3,324.3v1.5h1v0.8h-1v3.9c0,0.2,0,0.4,0.1,0.6s0.2,0.2,0.4,0.2c0.1,0,0.3,0,0.4-0.1v0.9
		c-0.2,0.1-0.5,0.1-0.7,0.1c-0.4,0-0.7-0.1-0.9-0.4s-0.3-0.7-0.3-1.2v-3.9h-1v-0.8h1v-1.5H193.3L193.3,324.3z"/>
	<path class="st4" d="M197.7,332.2c-0.8,0-1.4-0.2-1.8-0.7s-0.6-1.2-0.6-2.1v-0.8c0-1,0.2-1.7,0.6-2.2s1-0.8,1.7-0.8
		s1.3,0.2,1.7,0.7s0.6,1.2,0.6,2.2v0.7h-3.5v0.1c0,0.7,0.1,1.2,0.4,1.5s0.6,0.5,1.1,0.5c0.3,0,0.6-0.1,0.8-0.2s0.4-0.3,0.6-0.5
		l0.5,0.7C199.3,331.9,198.6,332.2,197.7,332.2L197.7,332.2z M197.6,326.6c-0.4,0-0.8,0.1-1,0.4s-0.3,0.8-0.4,1.4h2.5v-0.1
		c0-0.6-0.1-1-0.3-1.3S198,326.6,197.6,326.6L197.6,326.6z"/>
	<path class="st4" d="M204.2,330.5c0-0.2-0.1-0.4-0.2-0.6s-0.5-0.4-1-0.6c-0.6-0.2-0.9-0.4-1.2-0.6s-0.4-0.4-0.5-0.6
		s-0.2-0.5-0.2-0.8c0-0.5,0.2-0.9,0.6-1.3s0.9-0.5,1.4-0.5c0.6,0,1.1,0.2,1.5,0.5s0.6,0.8,0.6,1.4h-1c0-0.3-0.1-0.5-0.3-0.7
		s-0.4-0.3-0.7-0.3s-0.5,0.1-0.7,0.2c-0.2,0.2-0.3,0.4-0.3,0.6c0,0.2,0.1,0.4,0.2,0.5s0.4,0.3,0.9,0.5c0.8,0.3,1.3,0.6,1.6,0.9
		c0.3,0.3,0.4,0.6,0.4,1.1c0,0.5-0.2,1-0.6,1.3c-0.4,0.3-0.9,0.5-1.5,0.5s-1.2-0.2-1.6-0.6s-0.6-0.9-0.6-1.4h1
		c0,0.4,0.1,0.6,0.3,0.8s0.5,0.3,0.9,0.3c0.3,0,0.6-0.1,0.8-0.2S204.2,330.8,204.2,330.5L204.2,330.5z"/>
</g>
<g>
	<path class="st4" d="M302.3,328.8v3.3h-1.1v-8.5h2.7c0.8,0,1.4,0.2,1.9,0.7s0.7,1.1,0.7,1.9s-0.2,1.5-0.6,1.9s-1,0.7-1.8,0.7
		L302.3,328.8L302.3,328.8z M302.3,327.9h1.6c0.5,0,0.8-0.1,1.1-0.4c0.2-0.3,0.4-0.7,0.4-1.2s-0.1-0.9-0.4-1.2s-0.6-0.5-1.1-0.5
		h-1.6L302.3,327.9L302.3,327.9z"/>
	<path class="st4" d="M310.4,326.8c-0.1,0-0.3,0-0.5,0c-0.5,0-0.9,0.3-1.1,0.9v4.5h-1v-6.3h1l0,0.6c0.3-0.5,0.7-0.8,1.2-0.8
		c0.2,0,0.3,0,0.4,0.1V326.8z"/>
	<path class="st4" d="M311.1,328.7c0-0.9,0.2-1.6,0.7-2.2s1-0.8,1.8-0.8s1.3,0.3,1.8,0.8s0.7,1.2,0.7,2.1v0.7c0,0.9-0.2,1.6-0.7,2.2
		s-1,0.8-1.8,0.8s-1.3-0.3-1.8-0.8s-0.7-1.2-0.7-2.1L311.1,328.7L311.1,328.7z M312.1,329.3c0,0.6,0.1,1.2,0.4,1.5s0.6,0.6,1,0.6
		c0.9,0,1.4-0.7,1.4-2v-0.7c0-0.6-0.1-1.2-0.4-1.5s-0.6-0.6-1-0.6s-0.8,0.2-1,0.6s-0.4,0.9-0.4,1.5L312.1,329.3L312.1,329.3z"/>
	<path class="st4" d="M319.2,329h-2.4v-0.9h2.4V329z"/>
	<path class="st4" d="M325.8,329.4c0,0.9-0.3,1.6-0.8,2.1s-1.1,0.7-2,0.7s-1.5-0.3-2-1s-0.8-1.5-0.8-2.6v-1.5c0-1.1,0.3-2,0.8-2.6
		s1.2-1,2.1-1c0.8,0,1.5,0.2,1.9,0.7s0.7,1.2,0.7,2.1h-1.1c0-0.7-0.2-1.2-0.4-1.5s-0.6-0.5-1.1-0.5c-0.6,0-1,0.2-1.3,0.7
		s-0.5,1.1-0.5,2v1.6c0,0.9,0.1,1.5,0.4,2s0.7,0.7,1.3,0.7s1-0.1,1.2-0.4s0.4-0.8,0.5-1.5L325.8,329.4L325.8,329.4z"/>
	<path class="st4" d="M328.1,326.4c0.4-0.5,0.9-0.8,1.5-0.8c1.1,0,1.7,0.8,1.7,2.2v4.2h-1v-4.2c0-0.5-0.1-0.9-0.2-1.1
		s-0.4-0.3-0.8-0.3c-0.3,0-0.5,0.1-0.7,0.3s-0.4,0.4-0.5,0.7v4.6h-1v-9h1V326.4L328.1,326.4z"/>
	<path class="st4" d="M332.7,328.7c0-0.9,0.2-1.6,0.7-2.2s1-0.8,1.8-0.8s1.3,0.3,1.8,0.8s0.7,1.2,0.7,2.1v0.7c0,0.9-0.2,1.6-0.7,2.2
		s-1,0.8-1.8,0.8s-1.3-0.3-1.8-0.8s-0.7-1.2-0.7-2.1L332.7,328.7L332.7,328.7z M333.7,329.3c0,0.6,0.1,1.2,0.4,1.5s0.6,0.6,1,0.6
		c0.9,0,1.4-0.7,1.4-2v-0.7c0-0.6-0.1-1.2-0.4-1.5s-0.6-0.6-1-0.6s-0.8,0.2-1,0.6s-0.4,0.9-0.4,1.5L333.7,329.3L333.7,329.3z"/>
	<path class="st4" d="M340.1,324.1c0,0.2,0,0.3-0.1,0.4s-0.2,0.2-0.5,0.2s-0.3-0.1-0.4-0.2s-0.1-0.3-0.1-0.4s0-0.3,0.1-0.5
		s0.2-0.2,0.4-0.2s0.3,0.1,0.4,0.2S340.1,323.9,340.1,324.1L340.1,324.1z M340,332.1h-1v-6.3h1V332.1z"/>
	<path class="st4" d="M343.9,331.4c0.3,0,0.6-0.1,0.8-0.3s0.3-0.5,0.3-0.9h1c0,0.6-0.2,1.1-0.6,1.5s-0.9,0.6-1.5,0.6
		c-0.8,0-1.4-0.2-1.8-0.7s-0.6-1.2-0.6-2.2v-0.7c0-1,0.2-1.7,0.6-2.2s1-0.8,1.8-0.8c0.6,0,1.2,0.2,1.5,0.6s0.6,1,0.6,1.7h-1
		c0-0.5-0.1-0.8-0.3-1s-0.5-0.4-0.8-0.4c-0.5,0-0.8,0.1-1,0.5s-0.3,0.8-0.4,1.5v0.8c0,0.8,0.1,1.3,0.3,1.6S343.4,331.4,343.9,331.4
		L343.9,331.4z"/>
	<path class="st4" d="M349.5,332.2c-0.8,0-1.4-0.2-1.8-0.7s-0.6-1.2-0.6-2.1v-0.8c0-1,0.2-1.7,0.6-2.2s1-0.8,1.7-0.8
		s1.3,0.2,1.7,0.7s0.5,1.2,0.6,2.2v0.7H348v0.1c0,0.7,0.1,1.2,0.4,1.5s0.6,0.5,1.1,0.5c0.3,0,0.6-0.1,0.8-0.2s0.5-0.3,0.6-0.5
		l0.5,0.7C351.1,331.9,350.4,332.2,349.5,332.2L349.5,332.2z M349.3,326.6c-0.4,0-0.8,0.1-1,0.4s-0.3,0.8-0.4,1.4h2.5v-0.1
		c0-0.6-0.1-1-0.3-1.3S349.7,326.6,349.3,326.6L349.3,326.6z"/>
	<path class="st4" d="M359.4,330c0-0.4-0.1-0.8-0.4-1s-0.6-0.5-1.2-0.7s-1.1-0.4-1.4-0.7s-0.6-0.5-0.7-0.8s-0.2-0.6-0.2-1
		c0-0.7,0.2-1.2,0.7-1.7s1-0.7,1.8-0.7c0.5,0,1,0.1,1.3,0.3c0.4,0.2,0.7,0.5,0.9,0.9s0.3,0.8,0.3,1.3h-1.1c0-0.5-0.1-0.9-0.4-1.2
		s-0.6-0.4-1.1-0.4c-0.4,0-0.8,0.1-1,0.4c-0.2,0.2-0.4,0.6-0.4,1c0,0.4,0.1,0.7,0.4,0.9s0.7,0.5,1.2,0.6c0.8,0.3,1.4,0.6,1.8,1
		s0.5,0.9,0.5,1.6c0,0.7-0.2,1.2-0.7,1.7s-1.1,0.6-1.8,0.6c-0.5,0-1-0.1-1.4-0.3s-0.8-0.5-1-0.9s-0.4-0.8-0.4-1.4h1.1
		c0,0.5,0.1,0.9,0.4,1.2s0.7,0.4,1.2,0.4c0.5,0,0.8-0.1,1.1-0.4S359.5,330.4,359.4,330L359.4,330z"/>
	<path class="st4" d="M363.1,324.3v1.5h1v0.8h-1v3.9c0,0.2,0,0.4,0.1,0.6s0.2,0.2,0.4,0.2c0.1,0,0.3,0,0.4-0.1v0.9
		c-0.2,0.1-0.5,0.1-0.7,0.1c-0.4,0-0.7-0.1-0.9-0.4s-0.3-0.7-0.3-1.2v-3.9h-1v-0.8h1v-1.5H363.1z"/>
	<path class="st4" d="M368.6,332.1c-0.1-0.1-0.1-0.4-0.1-0.7c-0.4,0.5-0.8,0.8-1.4,0.8s-1-0.2-1.3-0.5s-0.5-0.8-0.5-1.4
		c0-0.6,0.2-1.2,0.7-1.5s1-0.6,1.8-0.6h0.8v-0.7c0-0.4-0.1-0.6-0.2-0.8s-0.4-0.2-0.8-0.2c-0.3,0-0.6,0.1-0.8,0.3s-0.3,0.4-0.3,0.7
		h-1c0-0.3,0.1-0.6,0.3-0.9s0.5-0.5,0.8-0.7s0.7-0.2,1.1-0.2c0.6,0,1.1,0.2,1.5,0.5s0.5,0.8,0.5,1.4v3.2c0,0.5,0.1,0.9,0.2,1.3v0.1
		L368.6,332.1L368.6,332.1z M367.2,331.3c0.2,0,0.5-0.1,0.7-0.2s0.4-0.3,0.5-0.5v-1.5h-0.6c-0.5,0-0.9,0.1-1.2,0.3s-0.4,0.5-0.4,0.9
		c0,0.4,0.1,0.6,0.2,0.8S366.9,331.3,367.2,331.3L367.2,331.3z"/>
	<path class="st4" d="M372.4,324.3v1.5h1v0.8h-1v3.9c0,0.2,0,0.4,0.1,0.6s0.2,0.2,0.4,0.2c0.1,0,0.3,0,0.4-0.1v0.9
		c-0.2,0.1-0.5,0.1-0.7,0.1c-0.4,0-0.7-0.1-0.9-0.4s-0.3-0.7-0.3-1.2v-3.9h-1v-0.8h1v-1.5H372.4z"/>
	<path class="st4" d="M376.9,332.2c-0.8,0-1.4-0.2-1.8-0.7s-0.6-1.2-0.6-2.1v-0.8c0-1,0.2-1.7,0.6-2.2s1-0.8,1.7-0.8
		s1.3,0.2,1.7,0.7s0.5,1.2,0.6,2.2v0.7h-3.5v0.1c0,0.7,0.1,1.2,0.4,1.5s0.6,0.5,1.1,0.5c0.3,0,0.6-0.1,0.8-0.2s0.5-0.3,0.6-0.5
		l0.5,0.7C378.5,331.9,377.8,332.2,376.9,332.2L376.9,332.2z M376.8,326.6c-0.4,0-0.8,0.1-1,0.4s-0.3,0.8-0.4,1.4h2.5v-0.1
		c0-0.6-0.1-1-0.3-1.3S377.2,326.6,376.8,326.6L376.8,326.6z"/>
	<path class="st4" d="M383.3,330.5c0-0.2-0.1-0.4-0.2-0.6s-0.5-0.4-1-0.6c-0.6-0.2-1-0.4-1.2-0.6s-0.4-0.4-0.5-0.6s-0.2-0.5-0.2-0.8
		c0-0.5,0.2-0.9,0.6-1.3s0.9-0.5,1.4-0.5c0.6,0,1.1,0.2,1.5,0.5s0.6,0.8,0.6,1.4h-1c0-0.3-0.1-0.5-0.3-0.7s-0.4-0.3-0.7-0.3
		s-0.5,0.1-0.7,0.2c-0.2,0.2-0.3,0.4-0.3,0.6c0,0.2,0.1,0.4,0.2,0.5s0.4,0.3,0.9,0.5c0.8,0.3,1.3,0.6,1.6,0.9
		c0.3,0.3,0.4,0.6,0.4,1.1c0,0.5-0.2,1-0.6,1.3c-0.4,0.3-0.9,0.5-1.5,0.5s-1.2-0.2-1.6-0.6s-0.6-0.9-0.6-1.4h1
		c0,0.4,0.1,0.6,0.3,0.8s0.5,0.3,0.9,0.3c0.3,0,0.6-0.1,0.8-0.2S383.3,330.8,383.3,330.5L383.3,330.5z"/>
</g>
<polygon class="st3" points="119.9,315.8 131.2,322.1 131.2,334.9 119.7,341.2 108,334.8 108,322.1 "/>
<polygon class="st1" points="284.4,316.8 295.7,323.1 295.7,335.9 284.2,342.2 272.5,335.8 272.5,323.1 "/>
</svg>
