<?xml version="1.0" encoding="utf-8"?>
<!-- Generator: Adobe Illustrator 27.0.1, SVG Export Plug-In . SVG Version: 6.00 Build 0)  -->
<svg version="1.1" id="Layer_1" xmlns="http://www.w3.org/2000/svg" xmlns:xlink="http://www.w3.org/1999/xlink" x="0px" y="0px"
	 viewBox="0 0 462 352" style="enable-background:new 0 0 462 352;" xml:space="preserve">
<style type="text/css">
	.st0{fill-rule:evenodd;clip-rule:evenodd;fill:#0D445C;}
	.st1{fill-rule:evenodd;clip-rule:evenodd;fill:#0E4359;}
	.st2{fill:#FFFFFF;}
	.st3{fill-rule:evenodd;clip-rule:evenodd;fill:#8D191B;}
	.st4{fill:#231F20;}
</style>
<polygon class="st0" points="425.7,8 442.5,17.1 442.5,35.8 426,45.1 408.7,35.8 408.7,17.2 "/>
<polygon class="st1" points="20.4,8 37,17.4 37,36.5 20.1,45.9 3.1,36.4 3.1,17.4 "/>
<g>
	<path class="st2" d="M18.2,28.4h-2.7l-0.6,2.1h-1l2.6-8h0.9l2.6,8h-1L18.2,28.4L18.2,28.4z M15.8,27.6H18l-1.1-3.7L15.8,27.6z"/>
	<path class="st2" d="M22.8,26.8l-0.8,1v2.8h-1v-8h1v3.9l0.7-0.9l2.2-3H26L23.4,26l2.8,4.5H25L22.8,26.8L22.8,26.8z"/>
</g>
<polygon class="st0" points="371.2,38.6 387.7,48.1 387.7,67.1 370.9,76.5 353.9,67 353.9,48.1 "/>
<polygon class="st0" points="407.5,38.6 424,48.1 424,67.1 407.2,76.5 390.1,67 390.1,48.1 "/>
<polygon class="st0" points="93.8,70 110.3,79.3 110.3,98 93.5,107.1 76.5,97.9 76.5,79.3 "/>
<g>
	<path class="st2" d="M88.1,84.6l2.1,6.6l2.1-6.6h1.3v8h-1v-3.1l0.1-3.1l-2.1,6.3h-0.8l-2.1-6.2l0.1,3.1v3.1h-1v-8L88.1,84.6
		L88.1,84.6z"/>
	<path class="st2" d="M100,85.5h-2.1v7.2h-1v-7.2h-2.1v-0.9h5.2V85.5z"/>
</g>
<polygon class="st3" points="130.9,70 147.4,79.3 147.4,98 130.6,107.1 113.6,97.9 113.6,79.3 "/>
<polygon class="st1" points="352.6,70 369.2,79.3 369.2,98 352.3,107.1 335.3,97.9 335.3,79.3 "/>
<polygon class="st0" points="168,70 184.5,79.3 184.5,98 167.7,107.1 150.6,97.9 150.6,79.3 "/>
<polygon class="st3" points="204.4,70 220.8,79.2 220.8,97.9 204.7,107.1 187.7,97.9 187.7,79.3 "/>
<polygon class="st1" points="389.3,70 405.5,79.3 405.5,98 389,107.1 372.4,97.9 372.4,79.3 "/>
<polygon class="st1" points="425.7,70 442.5,79.2 442.5,97.9 426,107.1 408.7,97.9 408.7,79.3 "/>
<polygon class="st0" points="57.1,70.9 73.2,80.1 73.2,98.8 56.8,107.9 40.2,98.6 40.2,80.1 "/>
<g>
	<path class="st2" d="M51,90.1l0.1,0.9l0.2-0.8l1.3-5.6h0.8l1.2,5.6l0.2,0.8l0.1-0.9l1-5.5h1l-1.6,8h-0.9L53,86.8v-0.5l-0.1,0.5
		l-1.4,5.9h-0.9l-1.6-8h1L51,90.1L51,90.1z"/>
	<path class="st2" d="M61.3,90.5h-2.7L58,92.6h-1l2.6-8h0.9l2.6,8h-1L61.3,90.5L61.3,90.5z M58.9,89.7h2.2L60,86L58.9,89.7z"/>
</g>
<polygon class="st3" points="278.5,70.9 295,80.1 295,98.8 278.2,107.9 261.1,98.6 261.1,80.1 "/>
<polygon class="st3" points="75,101.5 91.8,110.7 91.8,129.3 75.3,138.6 57.9,129.3 57.9,110.8 "/>
<polygon class="st3" points="112.1,101.5 128.9,110.7 128.9,129.3 112.4,138.6 95,129.3 95,110.8 "/>
<polygon class="st3" points="149.5,101.5 166,110.8 166,129.4 149.1,138.6 132.1,129.3 132.1,110.8 "/>
<polygon class="st3" points="296.7,101.5 313.5,110.7 313.5,129.3 297,138.6 279.7,129.3 279.7,110.8 "/>
<polygon class="st3" points="333.8,101.5 350.6,110.7 350.6,129.3 334.1,138.6 316.8,129.3 316.8,110.8 "/>
<polygon class="st1" points="371.2,101.5 387.7,110.8 387.7,129.4 370.9,138.6 353.9,129.3 353.9,110.8 "/>
<polygon class="st3" points="186.1,101.5 202.2,110.8 202.2,129.4 185.8,138.6 169.2,129.3 169.2,110.8 "/>
<polygon class="st1" points="407.5,101.5 424,110.8 424,129.4 407.2,138.6 390.1,129.3 390.1,110.8 "/>
<polygon class="st3" points="259.6,101.5 276.4,110.9 276.4,129.9 259.9,139.4 242.6,129.9 242.6,111 "/>
<polygon class="st1" points="222.8,101.5 239.4,111 239.4,130 222.5,139.4 205.5,129.9 205.5,111 "/>
<polygon class="st0" points="93.8,132.1 110.3,141.6 110.3,160.6 93.5,170 76.5,160.6 76.5,141.6 "/>
<polygon class="st0" points="130.9,132.1 147.4,141.6 147.4,160.6 130.6,170 113.6,160.6 113.6,141.6 "/>
<polygon class="st0" points="315.6,132.1 332.1,141.6 332.1,160.6 315.2,170 298.2,160.6 298.2,141.6 "/>
<polygon class="st0" points="352.6,132.1 369.2,141.6 369.2,160.6 352.3,170 335.3,160.6 335.3,141.6 "/>
<polygon class="st3" points="168,132.1 184.5,141.6 184.5,160.7 167.7,170 150.6,160.6 150.6,141.6 "/>
<polygon class="st3" points="204.4,132.1 220.8,141.5 220.8,160.6 204.7,170 187.7,160.6 187.7,141.6 "/>
<polygon class="st0" points="57.1,132.9 73.2,142.2 73.2,160.8 56.8,170 40.2,160.7 40.2,142.2 "/>
<polygon class="st3" points="241.8,132.9 257.9,142.2 257.9,160.8 241.5,170 224.8,160.7 224.8,142.2 "/>
<polygon class="st3" points="278.5,132.9 295,142.2 295,160.8 278.2,170 261.1,160.7 261.1,142.2 "/>
<polygon class="st1" points="75,163.6 91.8,172.8 91.8,191.4 75.3,200.7 57.9,191.4 57.9,172.9 "/>
<polygon class="st3" points="112.1,163.6 128.9,172.8 128.9,191.4 112.4,200.7 95,191.4 95,172.9 "/>
<polygon class="st3" points="149.5,163.6 166,172.9 166,191.5 149.1,200.7 132.1,191.4 132.1,172.9 "/>
<polygon class="st1" points="296.7,163.6 313.5,172.8 313.5,191.4 297,200.7 279.7,191.4 279.7,172.9 "/>
<polygon class="st3" points="333.8,164.4 350.6,173.6 350.6,192.2 334.1,201.5 316.8,192.2 316.8,173.6 "/>
<polygon class="st1" points="186.1,163.6 202.2,173 202.2,192.1 185.8,201.5 169.2,192 169.2,173 "/>
<polygon class="st3" points="259.6,163.6 276.4,173 276.4,192 259.9,201.5 242.6,192 242.6,173 "/>
<polygon class="st3" points="222.8,164.4 239.4,173.6 239.4,192.3 222.5,201.5 205.5,192.2 205.5,173.6 "/>
<polygon class="st1" points="444.6,164.4 461.1,173.6 461.1,192.3 444.3,201.5 427.2,192.2 427.2,173.6 "/>
<polygon class="st1" points="130.9,195 147.4,204.3 147.4,222.9 130.6,232.1 113.6,222.9 113.6,204.3 "/>
<polygon class="st3" points="315.6,195 332.1,204.5 332.1,223.5 315.2,232.9 298.2,223.5 298.2,204.5 "/>
<polygon class="st3" points="168,195 184.5,204.3 184.5,222.9 167.7,232.1 150.6,222.9 150.6,204.3 "/>
<polygon class="st3" points="204.4,195 220.8,204.2 220.8,222.9 204.7,232.1 187.7,222.9 187.7,204.3 "/>
<polygon class="st3" points="241.8,195 257.9,204.5 257.9,223.5 241.5,232.9 224.8,223.4 224.8,204.5 "/>
<polygon class="st3" points="278.5,195.8 295,205.1 295,223.7 278.2,232.9 261.1,223.6 261.1,205.1 "/>
<polygon class="st3" points="149.5,225.7 166,235.1 166,254.2 149.1,263.6 132.1,254.1 132.1,235.1 "/>
<polygon class="st3" points="296.7,226.5 313.5,235.6 313.5,254.3 297,263.6 279.7,254.3 279.7,235.7 "/>
<polygon class="st1" points="315.6,257.9 332.1,267.2 332.1,285.8 315.2,295 298.2,285.7 298.2,267.2 "/>
<polygon class="st1" points="20.4,257.1 37,266.6 37,285.6 20.1,295 3.1,285.5 3.1,266.6 "/>
<g>
	<path class="st2" d="M129.7,92.6h-1l-3.2-6.2v6.2h-1v-8h1l3.2,6.2v-6.2h1V92.6z"/>
	<path class="st2" d="M131.5,92.6v-8h1.9c0.9,0,1.7,0.3,2.2,0.9s0.8,1.4,0.8,2.5v1.4c0,1.1-0.3,1.9-0.8,2.5s-1.3,0.9-2.3,0.9
		L131.5,92.6L131.5,92.6z M132.5,85.5v6.3h0.8c0.7,0,1.2-0.2,1.6-0.6c0.3-0.4,0.5-1,0.5-1.8V88c0-0.9-0.2-1.5-0.5-1.9
		s-0.8-0.6-1.5-0.6H132.5z"/>
</g>
<g>
	<path class="st2" d="M161.4,84.6l2.1,6.6l2.1-6.6h1.3v8h-1v-3.1l0.1-3.1l-2.1,6.3H163l-2.1-6.2l0.1,3.1v3.1h-1v-8L161.4,84.6
		L161.4,84.6z"/>
	<path class="st2" d="M173.8,92.6h-1l-3.2-6.2v6.2h-1v-8h1l3.2,6.2v-6.2h1V92.6z"/>
</g>
<g>
	<path class="st2" d="M199.9,90.1L200,91l0.2-0.8l1.3-5.6h0.8l1.2,5.6l0.2,0.8l0.1-0.9l1-5.5h1l-1.6,8h-0.9l-1.3-5.9l-0.1-0.5
		l-0.1,0.5l-1.4,5.9h-0.9l-1.6-8h1L199.9,90.1L199.9,90.1z"/>
	<path class="st2" d="M208,92.7h-1v-8h1V92.7z"/>
</g>
<g>
	<path class="st2" d="M274.8,84.6l2.1,6.6l2.1-6.6h1.3v8h-1v-3.1l0.1-3.1l-2.1,6.3h-0.8l-2.1-6.2l0.1,3.1v3.1h-1v-8L274.8,84.6
		L274.8,84.6z"/>
	<path class="st2" d="M283.1,92.7h-1v-8h1V92.7z"/>
</g>
<g>
	<path class="st2" d="M351.4,92.6h-1l-3.2-6.2v6.2h-1v-8h1l3.2,6.2v-6.2h1V92.6z"/>
	<path class="st2" d="M355.2,88.6l1.6-4h1.1l-2.3,5v3h-1v-3l-2.3-5h1.1L355.2,88.6L355.2,88.6z"/>
</g>
<g>
	<path class="st2" d="M383.6,84.6l2.1,6.6l2.1-6.6h1.3v8h-1v-3.1l0.1-3.1l-2.1,6.3h-0.8l-2.1-6.2l0.1,3.1v3.1h-1v-8L383.6,84.6
		L383.6,84.6z"/>
	<path class="st2" d="M394.6,90.5h-2.7l-0.6,2.1h-1l2.6-8h0.9l2.6,8h-1L394.6,90.5L394.6,90.5z M392.1,89.7h2.2l-1.1-3.6L392.1,89.7
		z"/>
</g>
<g>
	<path class="st2" d="M367.1,60.2l1.8-6.5h1.1l-2.5,8h-0.9l-2.5-8h1.1L367.1,60.2z"/>
	<path class="st2" d="M375.8,54.6h-2.1v7.2h-1v-7.2h-2.1v-0.9h5.2V54.6L375.8,54.6z"/>
</g>
<g>
	<path class="st2" d="M405.3,61.8h-1l-3.2-6.2v6.2h-1v-8h1l3.2,6.2v-6.2h1V61.8z"/>
	<path class="st2" d="M412.4,61.8h-1V58h-3.2v3.7h-1v-8h1v3.4h3.2v-3.4h1V61.8z"/>
</g>
<g>
	<path class="st2" d="M421.3,22.5l2.1,6.6l2.1-6.6h1.3v8h-1v-3.1l0.1-3.1l-2.1,6.3H423l-2.1-6.2l0.1,3.1v3.1h-1v-8L421.3,22.5
		L421.3,22.5z"/>
	<path class="st2" d="M432.4,26.8h-2.8v2.8h3.3v0.9h-4.3v-8h4.3v0.9h-3.2V26h2.8C432.4,26,432.4,26.8,432.4,26.8z"/>
</g>
<g>
	<path class="st2" d="M71.6,124.4h-1v-8h1V124.4z"/>
	<path class="st2" d="M72.9,124.4v-8h1.9c0.9,0,1.7,0.3,2.2,0.9s0.8,1.4,0.8,2.5v1.4c0,1.1-0.3,1.9-0.8,2.5s-1.3,0.9-2.3,0.9
		L72.9,124.4L72.9,124.4z M74,117.2v6.3h0.8c0.7,0,1.2-0.2,1.6-0.6c0.3-0.4,0.5-1,0.5-1.8v-1.4c0-0.9-0.2-1.5-0.5-1.9
		s-0.8-0.6-1.5-0.6H74z"/>
</g>
<g>
	<path class="st2" d="M106.9,121.9l0.1,0.9l0.2-0.8l1.3-5.6h0.8l1.2,5.6l0.2,0.8l0.1-0.9l1-5.5h1l-1.6,8h-0.9l-1.3-5.9l-0.1-0.5
		l-0.1,0.5l-1.4,5.9h-0.9l-1.6-8h1L106.9,121.9L106.9,121.9z"/>
	<path class="st2" d="M115.6,120.4l1.6-4h1.1l-2.3,5v3h-1v-3l-2.3-5h1.2C114,116.4,115.6,120.4,115.6,120.4z"/>
</g>
<g>
	<path class="st2" d="M146.9,122c0-0.4-0.1-0.7-0.3-0.9c-0.2-0.2-0.6-0.4-1.2-0.6s-1-0.4-1.3-0.6s-0.5-0.5-0.7-0.8s-0.2-0.6-0.2-1
		c0-0.6,0.2-1.2,0.6-1.6c0.4-0.4,1-0.6,1.7-0.6c0.5,0,0.9,0.1,1.3,0.3c0.4,0.2,0.6,0.5,0.9,0.9c0.2,0.4,0.3,0.8,0.3,1.2h-1
		c0-0.5-0.1-0.9-0.4-1.1s-0.6-0.4-1-0.4s-0.7,0.1-0.9,0.3c-0.2,0.2-0.3,0.6-0.3,1c0,0.3,0.1,0.6,0.4,0.9c0.2,0.2,0.6,0.4,1.1,0.6
		c0.8,0.3,1.4,0.6,1.7,1s0.5,0.9,0.5,1.5s-0.2,1.2-0.6,1.6s-1,0.6-1.7,0.6c-0.5,0-0.9-0.1-1.3-0.3c-0.4-0.2-0.7-0.5-0.9-0.9
		s-0.3-0.8-0.3-1.3h1c0,0.5,0.1,0.9,0.4,1.2s0.6,0.4,1.1,0.4c0.4,0,0.8-0.1,1-0.3S146.9,122.4,146.9,122L146.9,122z"/>
	<path class="st2" d="M148.8,124v-8h1.9c0.9,0,1.7,0.3,2.2,0.9s0.8,1.4,0.8,2.5v1.4c0,1.1-0.3,1.9-0.8,2.5s-1.3,0.9-2.3,0.9
		L148.8,124L148.8,124z M149.8,116.9v6.3h0.8c0.7,0,1.2-0.2,1.6-0.6c0.3-0.4,0.5-1,0.5-1.8v-1.4c0-0.9-0.2-1.5-0.5-1.9
		s-0.8-0.6-1.5-0.6H149.8z"/>
</g>
<g>
	<path class="st2" d="M183.2,124.5h-1v-8h1V124.5z"/>
	<path class="st2" d="M188.2,122.4h-2.7l-0.6,2.1h-1l2.6-8h0.9l2.6,8h-1L188.2,122.4L188.2,122.4z M185.8,121.5h2.2l-1.1-3.6
		L185.8,121.5z"/>
</g>
<g>
	<path class="st2" d="M57,152.7c0,1.1-0.2,1.9-0.7,2.5s-1.1,0.9-2,0.9s-1.5-0.3-2-0.9s-0.7-1.4-0.8-2.4v-1.5c0-1.1,0.2-1.9,0.7-2.5
		s1.1-0.9,2-0.9s1.5,0.3,2,0.9s0.7,1.4,0.7,2.5L57,152.7L57,152.7z M56,151.3c0-0.9-0.1-1.5-0.4-1.9s-0.7-0.6-1.3-0.6
		s-1,0.2-1.3,0.6s-0.4,1-0.4,1.9v1.4c0,0.8,0.1,1.4,0.4,1.9c0.3,0.4,0.7,0.6,1.3,0.6s1-0.2,1.3-0.6c0.3-0.4,0.4-1,0.4-1.8V151.3
		L56,151.3z"/>
	<path class="st2" d="M60.5,152.8h-1.4v3.2h-1v-8h2.2c0.8,0,1.4,0.2,1.8,0.6c0.4,0.4,0.6,1,0.6,1.8c0,0.5-0.1,0.9-0.3,1.3
		c-0.2,0.4-0.5,0.6-0.9,0.8l1.6,3.4v0.1H62L60.5,152.8L60.5,152.8z M59.1,151.9h1.2c0.4,0,0.8-0.1,1-0.4s0.4-0.6,0.4-1.1
		c0-1-0.5-1.6-1.4-1.6h-1.2V151.9z"/>
</g>
<g>
	<path class="st2" d="M92.9,156h-1l-3.2-6.2v6.2h-1v-8h1l3.2,6.2V148h1V156z"/>
	<path class="st2" d="M96.5,154.4l1.8-6.5h1.1l-2.5,8H96l-2.5-8h1.1L96.5,154.4z"/>
</g>
<g>
	<path class="st2" d="M74.2,183.3c0,0.9-0.3,1.5-0.7,2c-0.4,0.5-1.1,0.7-1.9,0.7s-1.4-0.3-1.9-0.9c-0.5-0.6-0.7-1.4-0.7-2.5v-1.5
		c0-1,0.2-1.9,0.7-2.5s1.2-0.9,2-0.9s1.4,0.2,1.8,0.7s0.7,1.1,0.7,2h-1c0-0.6-0.2-1.1-0.4-1.4s-0.6-0.4-1.1-0.4
		c-0.6,0-1,0.2-1.3,0.6s-0.4,1.1-0.4,1.9v1.5c0,0.8,0.1,1.4,0.4,1.9s0.7,0.6,1.2,0.6s0.9-0.1,1.1-0.4s0.4-0.7,0.4-1.4L74.2,183.3
		L74.2,183.3z"/>
	<path class="st2" d="M78.8,183.8h-2.7l-0.6,2.1h-1l2.6-8H78l2.6,8h-1L78.8,183.8L78.8,183.8z M76.3,182.9h2.2l-1.1-3.6
		C77.4,179.2,76.3,182.9,76.3,182.9z"/>
</g>
<g>
	<path class="st2" d="M109.7,183.9H107l-0.6,2.1h-1l2.6-8h0.9l2.6,8h-1L109.7,183.9L109.7,183.9z M107.3,183h2.2l-1.1-3.6
		C108.4,179.3,107.3,183,107.3,183z"/>
	<path class="st2" d="M112.8,185.1h3.8v0.9h-4.9v-0.8l3.7-6.4h-3.6v-0.9h4.7v0.8L112.8,185.1L112.8,185.1z"/>
</g>
<g>
	<path class="st2" d="M130.6,153.4c0,0.9-0.3,1.5-0.7,2s-1.1,0.7-1.9,0.7s-1.4-0.3-1.9-0.9s-0.7-1.4-0.7-2.5v-1.5
		c0-1,0.2-1.9,0.7-2.5s1.1-0.9,2-0.9c0.8,0,1.4,0.2,1.8,0.7s0.7,1.1,0.7,2h-1c0-0.6-0.2-1.1-0.4-1.4s-0.6-0.4-1.1-0.4
		c-0.6,0-1,0.2-1.3,0.6s-0.4,1.1-0.4,1.9v1.5c0,0.8,0.1,1.4,0.4,1.9s0.7,0.6,1.2,0.6s0.9-0.1,1.1-0.4s0.4-0.7,0.4-1.4L130.6,153.4
		L130.6,153.4z"/>
	<path class="st2" d="M136.7,152.7c0,1.1-0.2,1.9-0.7,2.5s-1.1,0.9-2,0.9s-1.5-0.3-2-0.9s-0.7-1.4-0.8-2.4v-1.5
		c0-1.1,0.2-1.9,0.7-2.5s1.1-0.9,2-0.9s1.5,0.3,2,0.9s0.7,1.4,0.7,2.5L136.7,152.7L136.7,152.7z M135.7,151.3c0-0.9-0.1-1.5-0.4-1.9
		s-0.7-0.6-1.3-0.6s-1,0.2-1.3,0.6s-0.4,1-0.4,1.9v1.4c0,0.8,0.1,1.4,0.4,1.9c0.3,0.4,0.7,0.6,1.3,0.6s1-0.2,1.3-0.6
		c0.3-0.4,0.4-1,0.4-1.8V151.3L135.7,151.3z"/>
</g>
<g>
	<path class="st2" d="M167.4,156h-1l-3.2-6.2v6.2h-1v-8h1l3.2,6.2V148h1V156z"/>
	<path class="st2" d="M172.5,152.3h-2.8v2.8h3.3v0.9h-4.3v-8h4.3v0.9h-3.2v2.6h2.8L172.5,152.3L172.5,152.3z"/>
</g>
<g>
	<path class="st2" d="M148.8,177.8v5.7c0,0.8-0.2,1.4-0.7,1.8c-0.4,0.4-1,0.6-1.8,0.6s-1.4-0.2-1.8-0.6s-0.6-1-0.6-1.8v-5.7h1v5.7
		c0,0.5,0.1,0.9,0.3,1.2s0.6,0.4,1.1,0.4s0.9-0.1,1.1-0.4s0.3-0.7,0.3-1.2v-5.7H148.8L148.8,177.8z"/>
	<path class="st2" d="M154.6,178.7h-2.1v7.2h-1v-7.2h-2.1v-0.9h5.2L154.6,178.7L154.6,178.7z"/>
</g>
<g>
	<path class="st2" d="M182.2,182.1l-0.8,1v2.8h-1v-8h1v3.9l0.7-0.9l2.2-3h1.2l-2.6,3.5l2.8,4.5h-1.2L182.2,182.1L182.2,182.1z"/>
	<path class="st2" d="M189.6,183.8c0-0.4-0.1-0.7-0.3-0.9s-0.6-0.4-1.2-0.6s-1-0.4-1.3-0.6c-0.3-0.2-0.5-0.5-0.7-0.8s-0.2-0.6-0.2-1
		c0-0.6,0.2-1.2,0.6-1.6c0.4-0.4,1-0.6,1.7-0.6c0.5,0,0.9,0.1,1.3,0.3s0.6,0.5,0.9,0.9c0.2,0.4,0.3,0.8,0.3,1.2h-1
		c0-0.5-0.1-0.9-0.4-1.1s-0.6-0.4-1-0.4s-0.7,0.1-0.9,0.3s-0.3,0.5-0.3,1c0,0.3,0.1,0.6,0.4,0.9s0.6,0.4,1.1,0.6
		c0.8,0.3,1.4,0.6,1.7,1s0.5,0.9,0.5,1.5s-0.2,1.2-0.6,1.6c-0.4,0.4-1,0.6-1.7,0.6c-0.5,0-0.9-0.1-1.3-0.3c-0.4-0.2-0.7-0.5-0.9-0.9
		s-0.3-0.8-0.3-1.3h1c0,0.5,0.1,0.9,0.4,1.2s0.6,0.4,1.1,0.4c0.4,0,0.8-0.1,1-0.3S189.6,184.2,189.6,183.8L189.6,183.8z"/>
</g>
<g>
	<path class="st2" d="M220.6,183.9h-2.7l-0.6,2.1h-1l2.6-8h0.9l2.6,8h-1L220.6,183.9L220.6,183.9z M218.1,183h2.2l-1.1-3.6
		L218.1,183z"/>
	<path class="st2" d="M225.3,182.7h-1.4v3.2h-1v-8h2.2c0.8,0,1.4,0.2,1.8,0.6c0.4,0.4,0.6,1,0.6,1.8c0,0.5-0.1,0.9-0.3,1.3
		s-0.5,0.6-0.9,0.8l1.6,3.4v0.1h-1.1L225.3,182.7L225.3,182.7z M223.9,181.8h1.2c0.4,0,0.8-0.1,1-0.4s0.4-0.6,0.4-1.1
		c0-1-0.5-1.5-1.4-1.5h-1.2V181.8z"/>
</g>
<g>
	<path class="st2" d="M257.5,178.8h-2.1v7.2h-1v-7.2h-2.1v-0.9h5.2V178.8L257.5,178.8z"/>
	<path class="st2" d="M263.4,186h-1l-3.2-6.2v6.2h-1v-8h1l3.2,6.2V178h1V186z"/>
</g>
<g>
	<path class="st2" d="M199.9,148l2.1,6.6l2.1-6.6h1.3v8h-1v-3.1l0.1-3.1l-2.1,6.3h-0.8l-2.1-6.2l0.1,3.1v3.1h-1v-8L199.9,148
		L199.9,148z"/>
	<path class="st2" d="M211.9,152.7c0,1.1-0.2,1.9-0.7,2.5s-1.1,0.9-2,0.9s-1.5-0.3-2-0.9s-0.7-1.4-0.8-2.4v-1.5
		c0-1.1,0.2-1.9,0.7-2.5s1.1-0.9,2-0.9s1.5,0.3,2,0.9s0.7,1.4,0.7,2.5L211.9,152.7L211.9,152.7z M210.9,151.3c0-0.9-0.1-1.5-0.4-1.9
		s-0.7-0.6-1.3-0.6s-1,0.2-1.3,0.6s-0.4,1-0.4,1.9v1.4c0,0.8,0.1,1.4,0.4,1.9c0.3,0.4,0.7,0.6,1.3,0.6s1-0.2,1.3-0.6
		c0.3-0.4,0.4-1,0.4-1.8V151.3L210.9,151.3z"/>
</g>
<g>
	<path class="st2" d="M220.3,124.5h-1v-8h1V124.5z"/>
	<path class="st2" d="M222.6,123.6h3.1v0.9h-4.2v-8h1L222.6,123.6L222.6,123.6z"/>
</g>
<g>
	<path class="st2" d="M257.8,124.5h-1v-8h1V124.5z"/>
	<path class="st2" d="M264.3,124.5h-1l-3.2-6.2v6.2h-1v-8h1l3.2,6.2v-6.2h1V124.5z"/>
</g>
<g>
	<path class="st2" d="M237.7,152.3l-0.8,0.9v2.8h-1v-8h1v3.9l0.7-0.9l2.2-3h1.2l-2.6,3.5l2.8,4.5H240L237.7,152.3L237.7,152.3z"/>
	<path class="st2" d="M243.6,152l1.6-4h1.1l-2.3,5v3h-1v-3l-2.3-5h1.1L243.6,152L243.6,152z"/>
</g>
<g>
	<path class="st2" d="M272.9,153.8l0.1,0.9l0.2-0.8l1.3-5.6h0.8l1.2,5.6l0.2,0.8l0.1-0.9l1-5.5h1l-1.6,8h-0.9l-1.3-5.9l-0.1-0.5
		l-0.1,0.5l-1.4,5.9h-0.9l-1.6-8h1L272.9,153.8L272.9,153.8z"/>
	<path class="st2" d="M281.8,154.8l1.8-6.5h1.1l-2.5,8h-0.9l-2.5-8h1.1L281.8,154.8z"/>
</g>
<g>
	<path class="st2" d="M128.6,217.2h-1l-3.2-6.2v6.2h-1v-8h1l3.2,6.2v-6.2h1V217.2z"/>
	<path class="st2" d="M131.1,209.1l2.1,6.5l2.1-6.5h1.3v8h-1V214l0.1-3.1l-2.1,6.3h-0.8l-2.1-6.2l0.1,3.1v3.1h-1v-8L131.1,209.1
		L131.1,209.1z"/>
</g>
<g>
	<path class="st2" d="M148,242.4h-2.1v7.2h-1v-7.2h-2.1v-0.9h5.2L148,242.4L148,242.4z"/>
	<path class="st2" d="M150.9,244.6l1.5-3.1h1.2l-2.1,4l2.1,4h-1.2l-1.5-3.1l-1.6,3.1h-1.2l2.1-4l-2.1-4h1.2L150.9,244.6L150.9,244.6
		z"/>
</g>
<g>
	<path class="st2" d="M167.1,213.9c0,1.1-0.2,1.9-0.7,2.5s-1.1,0.9-2,0.9s-1.5-0.3-2-0.9s-0.7-1.4-0.8-2.4v-1.5
		c0-1.1,0.2-1.9,0.7-2.5s1.1-0.9,2-0.9s1.5,0.3,2,0.9c0.5,0.6,0.7,1.4,0.7,2.5L167.1,213.9L167.1,213.9z M166.1,212.4
		c0-0.9-0.1-1.5-0.4-1.9s-0.7-0.6-1.3-0.6s-1,0.2-1.3,0.6s-0.4,1-0.4,1.9v1.4c0,0.8,0.1,1.4,0.4,1.9c0.3,0.4,0.7,0.6,1.3,0.6
		s1-0.2,1.3-0.6c0.3-0.4,0.4-1,0.4-1.8V212.4L166.1,212.4z"/>
	<path class="st2" d="M169.9,213.5l-0.8,1v2.8h-1v-8h1v3.9l0.7-0.9l2.2-3h1.2l-2.6,3.5l2.8,4.5h-1.2L169.9,213.5L169.9,213.5z"/>
</g>
<g>
	<path class="st2" d="M200.1,216.4h3.1v0.9H199v-8h1L200.1,216.4L200.1,216.4z"/>
	<path class="st2" d="M207.8,215.1H205l-0.6,2.1h-1l2.6-8h0.9l2.6,8h-1L207.8,215.1L207.8,215.1z M205.3,214.3h2.2l-1.1-3.6
		L205.3,214.3z"/>
</g>
<g>
	<path class="st2" d="M21.1,279.7h-1V276h-3.2v3.7h-1v-8h1v3.5h3.2v-3.5h1V279.7z"/>
	<path class="st2" d="M23.5,279.7h-1v-8h1V279.7z"/>
</g>
<g>
	<path class="st2" d="M236.2,209.2l2.1,6.5l2.1-6.5h1.3v8h-1v-3.1l0.1-3.1l-2.1,6.3h-0.8l-2.1-6.2l0.1,3.1v3.1h-1v-8L236.2,209.2
		L236.2,209.2z"/>
	<path class="st2" d="M246.5,215.2c0-0.4-0.1-0.7-0.3-0.9c-0.2-0.2-0.6-0.4-1.2-0.6c-0.6-0.2-1-0.4-1.3-0.6s-0.5-0.5-0.7-0.8
		c-0.1-0.3-0.2-0.6-0.2-1c0-0.6,0.2-1.2,0.6-1.6c0.4-0.4,1-0.6,1.7-0.6c0.5,0,0.9,0.1,1.3,0.3s0.6,0.5,0.9,0.9s0.3,0.8,0.3,1.2h-1
		c0-0.5-0.1-0.9-0.4-1.1s-0.6-0.4-1-0.4s-0.7,0.1-0.9,0.3s-0.3,0.5-0.3,1c0,0.3,0.1,0.6,0.4,0.9s0.6,0.4,1.1,0.6
		c0.8,0.3,1.4,0.6,1.7,1c0.3,0.4,0.5,0.9,0.5,1.5s-0.2,1.2-0.6,1.6c-0.4,0.4-1,0.6-1.7,0.6c-0.5,0-0.9-0.1-1.3-0.3
		c-0.4-0.2-0.7-0.5-0.9-0.9s-0.3-0.8-0.3-1.3h1c0,0.5,0.1,0.9,0.4,1.2s0.6,0.4,1.1,0.4c0.4,0,0.8-0.1,1-0.3S246.5,215.6,246.5,215.2
		L246.5,215.2z"/>
</g>
<g>
	<path class="st2" d="M276.3,215.2h-2.7l-0.6,2.1h-1l2.6-8h0.9l2.6,8h-1L276.3,215.2L276.3,215.2z M273.9,214.4h2.2l-1.1-3.6
		L273.9,214.4z"/>
	<path class="st2" d="M279.6,216.5h3.1v0.9h-4.2v-8h1v7.1H279.6z"/>
</g>
<g>
	<path class="st2" d="M312.9,215.3c0-0.4-0.1-0.7-0.3-0.9c-0.2-0.2-0.6-0.4-1.2-0.6c-0.6-0.2-1-0.4-1.3-0.6s-0.5-0.5-0.7-0.8
		c-0.1-0.3-0.2-0.6-0.2-1c0-0.6,0.2-1.2,0.6-1.6c0.4-0.4,1-0.6,1.7-0.6c0.5,0,0.9,0.1,1.3,0.3s0.6,0.5,0.9,0.9s0.3,0.8,0.3,1.2h-1
		c0-0.5-0.1-0.9-0.4-1.1s-0.6-0.4-1-0.4s-0.7,0.1-1,0.3c-0.2,0.2-0.3,0.5-0.3,1c0,0.3,0.1,0.6,0.4,0.9s0.6,0.4,1.1,0.6
		c0.8,0.3,1.4,0.6,1.7,1c0.3,0.4,0.5,0.9,0.5,1.5s-0.2,1.2-0.6,1.6c-0.4,0.4-1,0.6-1.7,0.6c-0.5,0-0.9-0.1-1.3-0.3s-0.7-0.5-0.9-0.9
		c-0.2-0.4-0.3-0.8-0.3-1.3h1c0,0.5,0.1,0.9,0.4,1.2s0.6,0.4,1.1,0.4c0.4,0,0.8-0.1,1-0.3S312.9,215.7,312.9,215.3L312.9,215.3z"/>
	<path class="st2" d="M319.8,214.8c0,0.9-0.3,1.5-0.7,2c-0.4,0.5-1.1,0.7-1.9,0.7s-1.4-0.3-1.9-0.9c-0.5-0.6-0.7-1.4-0.7-2.5v-1.5
		c0-1,0.2-1.9,0.7-2.5s1.1-0.9,2-0.9c0.8,0,1.4,0.2,1.8,0.7s0.7,1.1,0.7,2h-1c0-0.6-0.2-1.1-0.4-1.4s-0.6-0.4-1.1-0.4
		s-1,0.2-1.3,0.6s-0.4,1.1-0.4,1.9v1.5c0,0.8,0.1,1.4,0.4,1.9s0.7,0.6,1.2,0.6s0.9-0.1,1.1-0.4s0.4-0.7,0.4-1.4L319.8,214.8
		L319.8,214.8z"/>
</g>
<g>
	<path class="st2" d="M296.1,248.6l-0.2,0.2c-0.5,0.6-1.2,0.9-2.2,0.9c-0.9,0-1.5-0.3-2-0.9s-0.8-1.4-0.8-2.4v-1.6
		c0-1.1,0.2-2,0.7-2.5c0.5-0.6,1.1-0.8,2-0.8c0.8,0,1.4,0.2,1.8,0.6s0.7,1,0.7,1.8h-1c0-0.5-0.2-0.9-0.4-1.2
		c-0.2-0.3-0.6-0.4-1.1-0.4c-0.6,0-1,0.2-1.3,0.6s-0.4,1-0.4,1.8v1.6c0,0.8,0.1,1.4,0.5,1.9s0.8,0.6,1.3,0.6s1-0.1,1.2-0.4l0.1-0.1
		v-1.8h-1.5v-0.9h2.5L296.1,248.6L296.1,248.6z"/>
	<path class="st2" d="M301,247.5h-2.7l-0.6,2.1h-1l2.6-8h0.9l2.6,8h-1L301,247.5L301,247.5z M298.6,246.6h2.2l-1.1-3.6L298.6,246.6z
		"/>
</g>
<g>
	<path class="st2" d="M313.7,277.1H311v3.5h-1v-8h4.2v0.9H311v2.8h2.7V277.1L313.7,277.1z"/>
	<path class="st2" d="M316,279.8h3.1v0.9h-4.2v-8h1v7.1H316z"/>
</g>
<g>
	<path class="st2" d="M333.5,186h-1l-3.2-6.2v6.2h-1v-8h1l3.2,6.2V178h1V186z"/>
	<path class="st2" d="M339.8,183.4c0,0.9-0.3,1.5-0.7,2c-0.4,0.5-1.1,0.7-1.9,0.7s-1.4-0.3-1.9-0.9c-0.5-0.6-0.7-1.4-0.7-2.5v-1.5
		c0-1,0.2-1.9,0.7-2.5s1.1-0.9,2-0.9c0.8,0,1.4,0.2,1.8,0.7s0.7,1.1,0.7,2h-1c0-0.6-0.2-1.1-0.4-1.4s-0.6-0.4-1.1-0.4
		s-1,0.2-1.3,0.6c-0.3,0.4-0.4,1.1-0.4,1.9v1.5c0,0.8,0.1,1.4,0.4,1.9c0.3,0.4,0.7,0.6,1.2,0.6s0.9-0.1,1.1-0.4s0.4-0.7,0.4-1.4
		L339.8,183.4L339.8,183.4z"/>
</g>
<g>
	<path class="st2" d="M292.7,184.3l1.8-6.5h1.1l-2.5,8h-0.9l-2.5-8h1.1L292.7,184.3z"/>
	<path class="st2" d="M300,183.8h-2.7l-0.6,2.1h-1l2.6-8h0.9l2.6,8h-1L300,183.8L300,183.8z M297.6,182.9h2.2l-1.1-3.6L297.6,182.9z
		"/>
</g>
<g>
	<path class="st2" d="M310.3,148l2.1,6.6l2.1-6.6h1.3v8h-1v-3.1l0.1-3.1l-2.1,6.3H312l-2.1-6.2l0.1,3.1v3.1h-1v-8L310.3,148
		L310.3,148z"/>
	<path class="st2" d="M317,156v-8h1.9c0.9,0,1.7,0.3,2.2,0.9c0.5,0.6,0.8,1.4,0.8,2.5v1.4c0,1.1-0.3,1.9-0.8,2.5s-1.3,0.9-2.3,0.9
		L317,156L317,156z M318.1,148.8v6.3h0.8c0.7,0,1.2-0.2,1.5-0.6c0.3-0.4,0.5-1,0.5-1.8v-1.4c0-0.9-0.2-1.5-0.5-1.9s-0.8-0.6-1.5-0.6
		H318.1z"/>
</g>
<g>
	<path class="st2" d="M347.1,155v-8h1.9c0.9,0,1.7,0.3,2.2,0.9c0.5,0.6,0.8,1.4,0.8,2.5v1.4c0,1.1-0.3,1.9-0.8,2.5s-1.3,0.9-2.3,0.9
		L347.1,155L347.1,155z M348.1,147.8v6.3h0.8c0.7,0,1.2-0.2,1.5-0.6c0.3-0.4,0.5-1,0.5-1.8v-1.4c0-0.9-0.2-1.5-0.5-1.9
		s-0.8-0.6-1.5-0.6H348.1z"/>
	<path class="st2" d="M356.9,151.3h-2.8v2.8h3.3v0.9h-4.3v-8h4.3v0.9h-3.2v2.6h2.8L356.9,151.3L356.9,151.3z"/>
</g>
<g>
	<path class="st2" d="M295,121.1c0,1.1-0.2,1.9-0.7,2.5s-1.1,0.9-2,0.9s-1.5-0.3-2-0.9s-0.7-1.4-0.8-2.4v-1.5c0-1.1,0.2-1.9,0.7-2.5
		s1.1-0.9,2-0.9s1.5,0.3,2,0.9s0.7,1.4,0.7,2.5L295,121.1L295,121.1z M294,119.7c0-0.9-0.1-1.5-0.4-1.9s-0.7-0.6-1.3-0.6
		s-1,0.2-1.3,0.6s-0.4,1-0.4,1.9v1.4c0,0.8,0.1,1.4,0.4,1.9c0.3,0.4,0.7,0.6,1.3,0.6s1-0.2,1.3-0.6s0.4-1,0.4-1.8V119.7L294,119.7z"
		/>
	<path class="st2" d="M301.4,124.4h-1v-3.7h-3.2v3.7h-1v-8h1v3.4h3.2v-3.4h1V124.4z"/>
</g>
<g>
	<path class="st2" d="M329.6,121v3.1h-1v-8h2.6c0.8,0,1.3,0.2,1.8,0.7c0.4,0.4,0.6,1,0.6,1.8s-0.2,1.4-0.6,1.8s-1,0.6-1.7,0.6H329.6
		L329.6,121z M329.6,120.1h1.5c0.5,0,0.8-0.1,1-0.4s0.4-0.6,0.4-1.1s-0.1-0.9-0.4-1.2c-0.2-0.3-0.6-0.4-1-0.4h-1.5V120.1
		L329.6,120.1z"/>
	<path class="st2" d="M338.1,122h-2.7l-0.6,2.1h-1l2.6-8h0.9l2.6,8h-1L338.1,122L338.1,122z M335.7,121.2h2.2l-1.1-3.6L335.7,121.2z
		"/>
</g>
<g>
	<path class="st2" d="M369.4,124h-1l-3.2-6.2v6.2h-1v-8h1l3.2,6.2V116h1V124z"/>
	<path class="st2" d="M373.5,116h1v5.7c0,0.8-0.2,1.4-0.6,1.8s-0.9,0.6-1.6,0.6s-1.2-0.2-1.6-0.6s-0.6-1-0.6-1.7h1
		c0,0.5,0.1,0.8,0.3,1.1c0.2,0.3,0.5,0.4,0.8,0.4s0.6-0.1,0.8-0.4s0.3-0.7,0.3-1.2L373.5,116L373.5,116z"/>
</g>
<g>
	<path class="st2" d="M406.3,121.9c0,0.9-0.3,1.5-0.7,2c-0.4,0.5-1.1,0.7-1.9,0.7s-1.4-0.3-1.9-0.9s-0.7-1.4-0.7-2.5v-1.5
		c0-1,0.2-1.9,0.7-2.5s1.1-0.9,2-0.9c0.8,0,1.4,0.2,1.8,0.7s0.7,1.1,0.7,2h-1c0-0.6-0.2-1.1-0.4-1.4s-0.6-0.4-1.1-0.4
		s-1,0.2-1.3,0.6s-0.4,1.1-0.4,1.9v1.5c0,0.8,0.1,1.4,0.4,1.9s0.7,0.6,1.2,0.6s0.9-0.1,1.1-0.4s0.4-0.7,0.4-1.4L406.3,121.9
		L406.3,121.9z"/>
	<path class="st2" d="M411.9,117.3h-2.1v7.2h-1v-7.2h-2.1v-0.9h5.2V117.3L411.9,117.3z"/>
</g>
<g>
	<path class="st2" d="M423.5,89.4h-1.4v3.2h-1v-8h2.2c0.8,0,1.4,0.2,1.8,0.6s0.6,1,0.6,1.8c0,0.5-0.1,0.9-0.3,1.3
		c-0.2,0.4-0.5,0.6-0.9,0.8l1.5,3.4v0.1h-1.1L423.5,89.4L423.5,89.4z M422.1,88.6h1.2c0.4,0,0.8-0.1,1-0.4s0.4-0.6,0.4-1.1
		c0-1-0.5-1.6-1.4-1.6h-1.2V88.6L422.1,88.6z"/>
	<path class="st2" d="M427.7,92.7h-1v-8h1V92.7z"/>
</g>
<g>
	<path class="st2" d="M438.9,186.1v-8h1.9c0.9,0,1.7,0.3,2.2,0.9c0.5,0.6,0.8,1.4,0.8,2.5v1.3c0,1.1-0.3,1.9-0.8,2.5
		s-1.3,0.9-2.3,0.9L438.9,186.1L438.9,186.1z M439.9,178.9v6.3h0.8c0.7,0,1.2-0.2,1.5-0.6c0.3-0.4,0.5-1,0.5-1.8v-1.4
		c0-0.9-0.2-1.5-0.5-1.9s-0.8-0.6-1.5-0.6H439.9L439.9,178.9z"/>
	<path class="st2" d="M449.9,183.5c0,0.9-0.3,1.5-0.7,2c-0.4,0.5-1.1,0.7-1.9,0.7s-1.4-0.3-1.9-0.9c-0.5-0.6-0.7-1.4-0.7-2.5v-1.5
		c0-1,0.2-1.9,0.7-2.5s1.1-0.9,2-0.9c0.8,0,1.4,0.2,1.8,0.7s0.6,1.1,0.7,2h-1c0-0.6-0.2-1.1-0.4-1.4s-0.6-0.4-1.1-0.4
		s-1,0.2-1.3,0.6s-0.4,1.1-0.4,1.9v1.5c0,0.8,0.1,1.4,0.4,1.9s0.7,0.6,1.2,0.6s0.9-0.1,1.1-0.4c0.2-0.3,0.4-0.7,0.4-1.4L449.9,183.5
		L449.9,183.5z"/>
</g>
<g>
	<path class="st4" d="M126.8,328.8v3.3h-1.1v-8.5h2.7c0.8,0,1.4,0.2,1.9,0.7s0.7,1.1,0.7,1.9s-0.2,1.5-0.6,1.9s-1,0.7-1.8,0.7H126.8
		L126.8,328.8z M126.8,327.9h1.6c0.5,0,0.8-0.1,1.1-0.4c0.2-0.3,0.4-0.7,0.4-1.2s-0.1-0.9-0.4-1.2s-0.6-0.5-1.1-0.5h-1.6V327.9
		L126.8,327.9z"/>
	<path class="st4" d="M134.9,326.8c-0.1,0-0.3,0-0.5,0c-0.5,0-0.9,0.3-1.1,0.9v4.5h-1v-6.3h1v0.6c0.3-0.5,0.7-0.8,1.2-0.8
		c0.2,0,0.3,0,0.4,0.1L134.9,326.8L134.9,326.8z"/>
	<path class="st4" d="M135.6,328.7c0-0.9,0.2-1.6,0.7-2.2s1-0.8,1.8-0.8s1.3,0.3,1.8,0.8s0.7,1.2,0.7,2.1v0.7c0,0.9-0.2,1.6-0.7,2.2
		s-1,0.8-1.8,0.8s-1.3-0.3-1.8-0.8s-0.7-1.2-0.7-2.1V328.7L135.6,328.7z M136.6,329.3c0,0.6,0.1,1.2,0.4,1.5s0.6,0.6,1,0.6
		c0.9,0,1.4-0.7,1.4-2v-0.7c0-0.6-0.1-1.2-0.4-1.5s-0.6-0.6-1-0.6s-0.8,0.2-1,0.6s-0.4,0.9-0.4,1.5V329.3L136.6,329.3z"/>
	<path class="st4" d="M143.7,329h-2.4v-0.9h2.4V329z"/>
	<path class="st4" d="M146,331.2h3.4v0.9H145v-8.5h1.1L146,331.2L146,331.2z"/>
	<path class="st4" d="M151.7,324.1c0,0.2-0.1,0.3-0.1,0.4s-0.2,0.2-0.4,0.2s-0.3-0.1-0.4-0.2s-0.1-0.3-0.1-0.4s0.1-0.3,0.1-0.5
		s0.2-0.2,0.4-0.2s0.3,0.1,0.4,0.2S151.7,323.9,151.7,324.1L151.7,324.1z M151.6,332.1h-1v-6.3h1V332.1z"/>
	<path class="st4" d="M153.7,332.1v-5.5h-0.8v-0.8h0.8v-0.7c0-0.6,0.2-1.1,0.5-1.5s0.8-0.5,1.3-0.5c0.2,0,0.4,0,0.6,0.1l-0.1,0.9
		c-0.1,0-0.3,0-0.5,0c-0.6,0-0.9,0.4-0.9,1.3v0.6h1.1v0.8h-1.1v5.5h-0.9V332.1z"/>
	<path class="st4" d="M159.3,332.2c-0.8,0-1.4-0.2-1.8-0.7s-0.6-1.2-0.6-2.1v-0.8c0-1,0.2-1.7,0.6-2.2s1-0.8,1.7-0.8
		s1.3,0.2,1.7,0.7s0.6,1.2,0.6,2.2v0.7H158v0.1c0,0.7,0.1,1.2,0.4,1.5s0.6,0.5,1.1,0.5c0.3,0,0.6-0.1,0.8-0.2s0.4-0.3,0.6-0.5
		l0.5,0.7C160.9,331.9,160.2,332.2,159.3,332.2L159.3,332.2z M159.2,326.6c-0.4,0-0.8,0.1-1,0.4s-0.3,0.8-0.4,1.4h2.5v-0.1
		c0-0.6-0.1-1-0.3-1.3S159.6,326.6,159.2,326.6L159.2,326.6z"/>
	<path class="st4" d="M169.3,330c0-0.4-0.1-0.8-0.4-1s-0.6-0.5-1.2-0.7s-1.1-0.4-1.4-0.7s-0.6-0.5-0.7-0.8s-0.2-0.6-0.2-1
		c0-0.7,0.2-1.2,0.7-1.7s1-0.7,1.8-0.7c0.5,0,0.9,0.1,1.3,0.3s0.7,0.5,0.9,0.9s0.3,0.8,0.3,1.3h-1.1c0-0.5-0.1-0.9-0.4-1.2
		s-0.6-0.4-1.1-0.4c-0.4,0-0.8,0.1-1,0.4c-0.2,0.2-0.4,0.6-0.4,1s0.1,0.7,0.4,0.9s0.7,0.5,1.2,0.6c0.8,0.3,1.4,0.6,1.8,1
		s0.5,0.9,0.5,1.6s-0.2,1.2-0.7,1.7s-1.1,0.6-1.8,0.6c-0.5,0-0.9-0.1-1.4-0.3s-0.8-0.5-1-0.9s-0.4-0.8-0.4-1.4h1.1
		c0,0.5,0.1,0.9,0.4,1.2s0.7,0.4,1.2,0.4s0.8-0.1,1.1-0.4S169.3,330.4,169.3,330L169.3,330z"/>
	<path class="st4" d="M173,324.3v1.5h1v0.8h-1v3.9c0,0.2,0,0.4,0.1,0.6s0.2,0.2,0.4,0.2c0.1,0,0.3,0,0.4-0.1v0.9
		c-0.2,0.1-0.5,0.1-0.7,0.1c-0.4,0-0.7-0.1-0.9-0.4s-0.3-0.7-0.3-1.2v-3.9h-1v-0.8h1v-1.5h1V324.3z"/>
	<path class="st4" d="M178.4,332.1c-0.1-0.1-0.1-0.4-0.1-0.7c-0.4,0.5-0.8,0.8-1.4,0.8s-1-0.2-1.3-0.5s-0.5-0.8-0.5-1.4
		s0.2-1.2,0.7-1.5s1-0.6,1.8-0.6h0.8v-0.7c0-0.4-0.1-0.6-0.2-0.8s-0.4-0.2-0.8-0.2c-0.3,0-0.6,0.1-0.8,0.3s-0.3,0.4-0.3,0.7h-1
		c0-0.3,0.1-0.6,0.3-0.9s0.4-0.5,0.8-0.7s0.7-0.2,1.1-0.2c0.6,0,1.1,0.2,1.5,0.5s0.5,0.8,0.5,1.4v3.2c0,0.5,0.1,0.9,0.2,1.3v0.1
		L178.4,332.1L178.4,332.1z M177,331.3c0.2,0,0.5-0.1,0.7-0.2s0.4-0.3,0.5-0.5v-1.5h-0.6c-0.5,0-0.9,0.1-1.2,0.3s-0.4,0.5-0.4,0.9
		s0.1,0.6,0.2,0.8S176.7,331.3,177,331.3L177,331.3z"/>
	<path class="st4" d="M182.3,324.3v1.5h1v0.8h-1v3.9c0,0.2,0,0.4,0.1,0.6s0.2,0.2,0.4,0.2c0.1,0,0.3,0,0.4-0.1v0.9
		c-0.2,0.1-0.5,0.1-0.7,0.1c-0.4,0-0.7-0.1-0.9-0.4s-0.3-0.7-0.3-1.2v-3.9h-1v-0.8h1v-1.5h1V324.3z"/>
	<path class="st4" d="M186.7,332.2c-0.8,0-1.4-0.2-1.8-0.7s-0.6-1.2-0.6-2.1v-0.8c0-1,0.2-1.7,0.6-2.2s1-0.8,1.7-0.8
		s1.3,0.2,1.7,0.7s0.6,1.2,0.6,2.2v0.7h-3.5v0.1c0,0.7,0.1,1.2,0.4,1.5s0.6,0.5,1.1,0.5c0.3,0,0.6-0.1,0.8-0.2s0.4-0.3,0.6-0.5
		l0.5,0.7C188.3,331.9,187.6,332.2,186.7,332.2L186.7,332.2z M186.6,326.6c-0.4,0-0.8,0.1-1,0.4s-0.3,0.8-0.4,1.4h2.5v-0.1
		c0-0.6-0.1-1-0.3-1.3S187,326.6,186.6,326.6L186.6,326.6z"/>
	<path class="st4" d="M193.2,330.5c0-0.2-0.1-0.4-0.2-0.6s-0.5-0.4-1-0.6c-0.6-0.2-0.9-0.4-1.2-0.6s-0.4-0.4-0.5-0.6
		s-0.2-0.5-0.2-0.8c0-0.5,0.2-0.9,0.6-1.3s0.9-0.5,1.4-0.5c0.6,0,1.1,0.2,1.5,0.5s0.6,0.8,0.6,1.4h-1c0-0.3-0.1-0.5-0.3-0.7
		s-0.4-0.3-0.7-0.3s-0.5,0.1-0.7,0.2c-0.2,0.2-0.3,0.4-0.3,0.6s0.1,0.4,0.2,0.5s0.4,0.3,0.9,0.5c0.8,0.3,1.3,0.6,1.6,0.9
		s0.4,0.6,0.4,1.1s-0.2,1-0.6,1.3c-0.4,0.3-0.9,0.5-1.5,0.5s-1.2-0.2-1.6-0.6s-0.6-0.9-0.6-1.4h1c0,0.4,0.1,0.6,0.3,0.8
		s0.5,0.3,0.9,0.3c0.3,0,0.6-0.1,0.8-0.2S193.2,330.8,193.2,330.5L193.2,330.5z"/>
</g>
<g>
	<path class="st4" d="M291.3,328.8v3.3h-1.1v-8.5h2.7c0.8,0,1.4,0.2,1.9,0.7s0.7,1.1,0.7,1.9s-0.2,1.5-0.6,1.9s-1,0.7-1.8,0.7H291.3
		L291.3,328.8z M291.3,327.9h1.6c0.5,0,0.8-0.1,1.1-0.4c0.2-0.3,0.4-0.7,0.4-1.2s-0.1-0.9-0.4-1.2s-0.6-0.5-1.1-0.5h-1.6V327.9
		L291.3,327.9z"/>
	<path class="st4" d="M299.4,326.8c-0.1,0-0.3,0-0.5,0c-0.5,0-0.9,0.3-1.1,0.9v4.5h-1v-6.3h1v0.6c0.3-0.5,0.7-0.8,1.2-0.8
		c0.2,0,0.3,0,0.4,0.1V326.8z"/>
	<path class="st4" d="M300.1,328.7c0-0.9,0.2-1.6,0.7-2.2s1-0.8,1.8-0.8s1.3,0.3,1.8,0.8s0.7,1.2,0.7,2.1v0.7c0,0.9-0.2,1.6-0.7,2.2
		s-1,0.8-1.8,0.8s-1.3-0.3-1.8-0.8s-0.7-1.2-0.7-2.1V328.7L300.1,328.7z M301.1,329.3c0,0.6,0.1,1.2,0.4,1.5s0.6,0.6,1,0.6
		c0.9,0,1.4-0.7,1.4-2v-0.7c0-0.6-0.1-1.2-0.4-1.5s-0.6-0.6-1-0.6s-0.8,0.2-1,0.6s-0.4,0.9-0.4,1.5V329.3L301.1,329.3z"/>
	<path class="st4" d="M308.2,329h-2.4v-0.9h2.4V329z"/>
	<path class="st4" d="M314.8,329.4c0,0.9-0.3,1.6-0.8,2.1s-1.1,0.7-2,0.7s-1.5-0.3-2-1s-0.8-1.5-0.8-2.6v-1.5c0-1.1,0.3-2,0.8-2.6
		s1.2-1,2.1-1c0.8,0,1.5,0.2,1.9,0.7s0.7,1.2,0.7,2.1h-1.1c0-0.7-0.2-1.2-0.4-1.5s-0.6-0.5-1.1-0.5c-0.6,0-1,0.2-1.3,0.7
		s-0.5,1.1-0.5,2v1.6c0,0.9,0.1,1.5,0.4,2s0.7,0.7,1.3,0.7s1-0.1,1.2-0.4s0.4-0.8,0.5-1.5L314.8,329.4L314.8,329.4z"/>
	<path class="st4" d="M317.1,326.4c0.4-0.5,0.9-0.8,1.5-0.8c1.1,0,1.7,0.8,1.7,2.2v4.2h-1v-4.2c0-0.5-0.1-0.9-0.2-1.1
		s-0.4-0.3-0.8-0.3c-0.3,0-0.5,0.1-0.7,0.3s-0.4,0.4-0.5,0.7v4.6h-1v-9h1V326.4L317.1,326.4z"/>
	<path class="st4" d="M321.7,328.7c0-0.9,0.2-1.6,0.7-2.2s1-0.8,1.8-0.8s1.3,0.3,1.8,0.8s0.7,1.2,0.7,2.1v0.7c0,0.9-0.2,1.6-0.7,2.2
		s-1,0.8-1.8,0.8s-1.3-0.3-1.8-0.8s-0.7-1.2-0.7-2.1V328.7L321.7,328.7z M322.7,329.3c0,0.6,0.1,1.2,0.4,1.5s0.6,0.6,1,0.6
		c0.9,0,1.4-0.7,1.4-2v-0.7c0-0.6-0.1-1.2-0.4-1.5s-0.6-0.6-1-0.6s-0.8,0.2-1,0.6s-0.4,0.9-0.4,1.5V329.3L322.7,329.3z"/>
	<path class="st4" d="M329.1,324.1c0,0.2,0,0.3-0.1,0.4s-0.2,0.2-0.5,0.2s-0.3-0.1-0.4-0.2s-0.1-0.3-0.1-0.4s0-0.3,0.1-0.5
		s0.2-0.2,0.4-0.2s0.3,0.1,0.4,0.2S329.1,323.9,329.1,324.1L329.1,324.1z M329,332.1h-1v-6.3h1V332.1z"/>
	<path class="st4" d="M332.9,331.4c0.3,0,0.6-0.1,0.8-0.3s0.3-0.5,0.3-0.9h1c0,0.6-0.2,1.1-0.6,1.5s-0.9,0.6-1.5,0.6
		c-0.8,0-1.4-0.2-1.8-0.7s-0.6-1.2-0.6-2.2v-0.7c0-1,0.2-1.7,0.6-2.2s1-0.8,1.8-0.8c0.6,0,1.2,0.2,1.5,0.6s0.6,1,0.6,1.7h-1
		c0-0.5-0.1-0.8-0.3-1s-0.5-0.4-0.8-0.4c-0.5,0-0.8,0.1-1,0.5s-0.3,0.8-0.4,1.5v0.8c0,0.8,0.1,1.3,0.3,1.6S332.4,331.4,332.9,331.4
		L332.9,331.4z"/>
	<path class="st4" d="M338.5,332.2c-0.8,0-1.4-0.2-1.8-0.7s-0.6-1.2-0.6-2.1v-0.8c0-1,0.2-1.7,0.6-2.2s1-0.8,1.7-0.8
		s1.3,0.2,1.7,0.7s0.5,1.2,0.6,2.2v0.7H337v0.1c0,0.7,0.1,1.2,0.4,1.5s0.6,0.5,1.1,0.5c0.3,0,0.6-0.1,0.8-0.2s0.5-0.3,0.6-0.5
		l0.5,0.7C340.1,331.9,339.4,332.2,338.5,332.2L338.5,332.2z M338.3,326.6c-0.4,0-0.8,0.1-1,0.4s-0.3,0.8-0.4,1.4h2.5v-0.1
		c0-0.6-0.1-1-0.3-1.3S338.7,326.6,338.3,326.6L338.3,326.6z"/>
	<path class="st4" d="M348.4,330c0-0.4-0.1-0.8-0.4-1s-0.6-0.5-1.2-0.7s-1.1-0.4-1.4-0.7s-0.6-0.5-0.7-0.8s-0.2-0.6-0.2-1
		c0-0.7,0.2-1.2,0.7-1.7s1-0.7,1.8-0.7c0.5,0,1,0.1,1.3,0.3c0.4,0.2,0.7,0.5,0.9,0.9s0.3,0.8,0.3,1.3h-1.1c0-0.5-0.1-0.9-0.4-1.2
		s-0.6-0.4-1.1-0.4c-0.4,0-0.8,0.1-1,0.4c-0.2,0.2-0.4,0.6-0.4,1s0.1,0.7,0.4,0.9s0.7,0.5,1.2,0.6c0.8,0.3,1.4,0.6,1.8,1
		s0.5,0.9,0.5,1.6s-0.2,1.2-0.7,1.7s-1.1,0.6-1.8,0.6c-0.5,0-1-0.1-1.4-0.3s-0.8-0.5-1-0.9s-0.4-0.8-0.4-1.4h1.1
		c0,0.5,0.1,0.9,0.4,1.2s0.7,0.4,1.2,0.4s0.8-0.1,1.1-0.4S348.5,330.4,348.4,330L348.4,330z"/>
	<path class="st4" d="M352.1,324.3v1.5h1v0.8h-1v3.9c0,0.2,0,0.4,0.1,0.6s0.2,0.2,0.4,0.2c0.1,0,0.3,0,0.4-0.1v0.9
		c-0.2,0.1-0.5,0.1-0.7,0.1c-0.4,0-0.7-0.1-0.9-0.4s-0.3-0.7-0.3-1.2v-3.9h-1v-0.8h1v-1.5h1V324.3z"/>
	<path class="st4" d="M357.6,332.1c-0.1-0.1-0.1-0.4-0.1-0.7c-0.4,0.5-0.8,0.8-1.4,0.8s-1-0.2-1.3-0.5s-0.5-0.8-0.5-1.4
		s0.2-1.2,0.7-1.5s1-0.6,1.8-0.6h0.8v-0.7c0-0.4-0.1-0.6-0.2-0.8s-0.4-0.2-0.8-0.2c-0.3,0-0.6,0.1-0.8,0.3s-0.3,0.4-0.3,0.7h-1
		c0-0.3,0.1-0.6,0.3-0.9s0.5-0.5,0.8-0.7s0.7-0.2,1.1-0.2c0.6,0,1.1,0.2,1.5,0.5s0.5,0.8,0.5,1.4v3.2c0,0.5,0.1,0.9,0.2,1.3v0.1
		L357.6,332.1L357.6,332.1z M356.2,331.3c0.2,0,0.5-0.1,0.7-0.2s0.4-0.3,0.5-0.5v-1.5h-0.6c-0.5,0-0.9,0.1-1.2,0.3s-0.4,0.5-0.4,0.9
		s0.1,0.6,0.2,0.8S355.9,331.3,356.2,331.3L356.2,331.3z"/>
	<path class="st4" d="M361.4,324.3v1.5h1v0.8h-1v3.9c0,0.2,0,0.4,0.1,0.6s0.2,0.2,0.4,0.2c0.1,0,0.3,0,0.4-0.1v0.9
		c-0.2,0.1-0.5,0.1-0.7,0.1c-0.4,0-0.7-0.1-0.9-0.4s-0.3-0.7-0.3-1.2v-3.9h-1v-0.8h1v-1.5h1V324.3z"/>
	<path class="st4" d="M365.9,332.2c-0.8,0-1.4-0.2-1.8-0.7s-0.6-1.2-0.6-2.1v-0.8c0-1,0.2-1.7,0.6-2.2s1-0.8,1.7-0.8
		s1.3,0.2,1.7,0.7s0.5,1.2,0.6,2.2v0.7h-3.5v0.1c0,0.7,0.1,1.2,0.4,1.5s0.6,0.5,1.1,0.5c0.3,0,0.6-0.1,0.8-0.2s0.5-0.3,0.6-0.5
		l0.5,0.7C367.5,331.9,366.8,332.2,365.9,332.2L365.9,332.2z M365.8,326.6c-0.4,0-0.8,0.1-1,0.4s-0.3,0.8-0.4,1.4h2.5v-0.1
		c0-0.6-0.1-1-0.3-1.3S366.2,326.6,365.8,326.6L365.8,326.6z"/>
	<path class="st4" d="M372.3,330.5c0-0.2-0.1-0.4-0.2-0.6s-0.5-0.4-1-0.6c-0.6-0.2-1-0.4-1.2-0.6s-0.4-0.4-0.5-0.6s-0.2-0.5-0.2-0.8
		c0-0.5,0.2-0.9,0.6-1.3s0.9-0.5,1.4-0.5c0.6,0,1.1,0.2,1.5,0.5s0.6,0.8,0.6,1.4h-1c0-0.3-0.1-0.5-0.3-0.7s-0.4-0.3-0.7-0.3
		s-0.5,0.1-0.7,0.2c-0.2,0.2-0.3,0.4-0.3,0.6s0.1,0.4,0.2,0.5s0.4,0.3,0.9,0.5c0.8,0.3,1.3,0.6,1.6,0.9c0.3,0.3,0.4,0.6,0.4,1.1
		s-0.2,1-0.6,1.3s-0.9,0.5-1.5,0.5s-1.2-0.2-1.6-0.6s-0.6-0.9-0.6-1.4h1c0,0.4,0.1,0.6,0.3,0.8s0.5,0.3,0.9,0.3
		c0.3,0,0.6-0.1,0.8-0.2S372.3,330.8,372.3,330.5L372.3,330.5z"/>
</g>
<polygon class="st3" points="108.9,315.8 120.2,322.1 120.2,334.9 108.7,341.2 97,334.8 97,322.1 "/>
<polygon class="st1" points="273.4,316.8 284.7,323.1 284.7,335.9 273.2,342.2 261.5,335.8 261.5,323.1 "/>
</svg>
