<?xml version="1.0" encoding="utf-8"?>
<!-- Generator: Adobe Illustrator 27.0.1, SVG Export Plug-In . SVG Version: 6.00 Build 0)  -->
<svg version="1.1" id="Layer_1" xmlns="http://www.w3.org/2000/svg" xmlns:xlink="http://www.w3.org/1999/xlink" x="0px" y="0px"
	 viewBox="0 0 225 225" style="enable-background:new 0 0 225 225;" xml:space="preserve">
<style type="text/css">
	.st0{fill:#828A43;}
	.st1{fill:#FFFFFF;}
	.st2{fill:#A5A49F;}
	.st3{fill:#524C4C;}
	.st4{fill:#B3BD80;}
	.st5{fill:#677432;}
	.st6{fill:#7F7474;}
	.st7{enable-background:new    ;}
</style>
<g>
	<polygon class="st0" points="203.6,165.1 112.5,217.7 21.4,165.1 21.4,59.9 112.5,7.3 203.6,59.9 	"/>
	<g class="st7">
		<path class="st1" d="M93.4,85.4h-2.5v-5.3h-3.7v5.3h-2.5V73h2.5v5h3.7v-5h2.5V85.4z"/>
		<path class="st1" d="M95,80.5c0-1.4,0.3-2.5,1-3.3c0.7-0.8,1.6-1.2,2.7-1.2c1.2,0,2.1,0.4,2.8,1.2c0.7,0.8,1,1.9,1,3.3v0.6
			c0,1.4-0.3,2.5-1,3.3c-0.7,0.8-1.6,1.2-2.7,1.2c-1.2,0-2.1-0.4-2.8-1.2c-0.7-0.8-1-1.9-1-3.3V80.5z M97.4,81.1
			c0,1.6,0.4,2.5,1.3,2.5c0.8,0,1.3-0.7,1.3-2.1l0-1c0-0.8-0.1-1.5-0.3-1.9s-0.6-0.6-1-0.6c-0.4,0-0.7,0.2-1,0.6s-0.3,1-0.3,1.9
			V81.1z"/>
		<path class="st1" d="M108.5,84.6c-0.5,0.7-1.2,1-2,1c-0.8,0-1.5-0.3-1.9-0.9c-0.4-0.6-0.7-1.4-0.7-2.5v-6h2.4v6
			c0,0.9,0.3,1.3,0.9,1.3c0.6,0,0.9-0.2,1.2-0.7v-6.7h2.4v9.2h-2.3L108.5,84.6z"/>
		<path class="st1" d="M116.6,83c0-0.2-0.1-0.4-0.3-0.6c-0.2-0.2-0.6-0.4-1.3-0.7c-1-0.4-1.7-0.8-2-1.3c-0.4-0.4-0.6-1-0.6-1.6
			c0-0.8,0.3-1.5,0.9-2c0.6-0.5,1.4-0.8,2.3-0.8c1,0,1.8,0.3,2.4,0.8c0.6,0.5,0.9,1.2,0.9,2.1h-2.4c0-0.7-0.3-1.1-0.9-1.1
			c-0.3,0-0.5,0.1-0.6,0.2c-0.2,0.2-0.2,0.4-0.2,0.7c0,0.2,0.1,0.4,0.3,0.5c0.2,0.2,0.6,0.4,1.3,0.7c1,0.4,1.7,0.8,2.1,1.2
			c0.4,0.4,0.6,1,0.6,1.7c0,0.8-0.3,1.5-0.9,2c-0.6,0.5-1.4,0.8-2.4,0.8c-0.7,0-1.3-0.1-1.8-0.4c-0.5-0.3-0.9-0.6-1.2-1.1
			c-0.3-0.5-0.4-1-0.4-1.5h2.3c0,0.4,0.1,0.7,0.3,0.9c0.2,0.2,0.5,0.3,0.9,0.3C116.3,83.9,116.6,83.6,116.6,83z"/>
		<path class="st1" d="M120.5,73.8c0-0.4,0.1-0.7,0.4-0.9c0.2-0.2,0.6-0.4,1-0.4c0.4,0,0.7,0.1,1,0.4c0.2,0.2,0.4,0.5,0.4,0.9
			c0,0.4-0.1,0.7-0.4,0.9c-0.2,0.2-0.6,0.4-1,0.4c-0.4,0-0.7-0.1-1-0.4C120.6,74.5,120.5,74.2,120.5,73.8z M123,85.4h-2.4v-9.2h2.4
			V85.4z"/>
		<path class="st1" d="M127.1,76.2l0.1,0.9c0.5-0.7,1.3-1.1,2.1-1.1c1.6,0,2.4,1.1,2.4,3.3v6.1h-2.4v-5.9c0-0.5-0.1-0.9-0.2-1.1
			c-0.2-0.2-0.4-0.4-0.8-0.4c-0.4,0-0.8,0.2-1,0.7v6.7h-2.4v-9.2H127.1z"/>
		<path class="st1" d="M133.1,80.6c0-1.5,0.3-2.6,0.8-3.4c0.5-0.7,1.3-1.1,2.3-1.1c0.8,0,1.5,0.3,1.9,1l0.1-0.8h2.2v9.2
			c0,1.2-0.3,2.1-1,2.7c-0.7,0.6-1.6,0.9-2.8,0.9c-0.5,0-1-0.1-1.6-0.3c-0.6-0.2-1-0.5-1.2-0.8l0.8-1.7c0.2,0.2,0.5,0.4,0.9,0.6
			c0.4,0.2,0.7,0.2,1,0.2c0.5,0,0.9-0.1,1.2-0.4c0.2-0.3,0.4-0.7,0.4-1.2v-0.8c-0.5,0.6-1.1,0.9-1.8,0.9c-1,0-1.7-0.4-2.3-1.1
			c-0.5-0.8-0.8-1.8-0.8-3.2V80.6z M135.6,81.2c0,0.9,0.1,1.5,0.3,1.9c0.2,0.4,0.6,0.6,1.1,0.6c0.5,0,0.9-0.2,1.1-0.5v-4.4
			c-0.2-0.4-0.6-0.6-1.1-0.6c-0.5,0-0.8,0.2-1.1,0.6c-0.2,0.4-0.3,1-0.3,1.9V81.2z"/>
	</g>
	<g class="st7">
		<path class="st1" d="M90,127h-1v-3.8h-3.3v3.8h-1v-8.3h1v3.6h3.3v-3.6h1V127z"/>
		<path class="st1" d="M91.4,123.6c0-0.9,0.2-1.6,0.7-2.1c0.4-0.5,1-0.8,1.7-0.8c0.7,0,1.3,0.3,1.7,0.8c0.4,0.5,0.7,1.2,0.7,2.1v0.6
			c0,0.9-0.2,1.6-0.6,2.1c-0.4,0.5-1,0.8-1.7,0.8c-0.7,0-1.3-0.3-1.7-0.8c-0.4-0.5-0.7-1.2-0.7-2V123.6z M92.4,124.2
			c0,0.6,0.1,1.1,0.4,1.5c0.2,0.4,0.6,0.5,1,0.5c0.9,0,1.3-0.6,1.4-1.9v-0.7c0-0.6-0.1-1.1-0.4-1.5c-0.3-0.4-0.6-0.5-1-0.5
			c-0.4,0-0.7,0.2-1,0.5c-0.2,0.4-0.4,0.9-0.4,1.5V124.2z"/>
		<path class="st1" d="M100.6,126.4c-0.3,0.4-0.8,0.7-1.5,0.7c-0.6,0-1-0.2-1.3-0.6c-0.3-0.4-0.4-0.9-0.4-1.7v-4h1v3.9
			c0,1,0.3,1.4,0.9,1.4c0.6,0,1-0.3,1.3-0.8v-4.6h1v6.1h-1L100.6,126.4z"/>
		<path class="st1" d="M106.1,125.4c0-0.2-0.1-0.4-0.2-0.6c-0.2-0.2-0.5-0.3-0.9-0.5c-0.5-0.2-0.9-0.4-1.1-0.6
			c-0.2-0.2-0.4-0.3-0.5-0.5c-0.1-0.2-0.2-0.4-0.2-0.7c0-0.5,0.2-0.9,0.5-1.2c0.4-0.3,0.8-0.5,1.4-0.5c0.6,0,1.1,0.2,1.4,0.5
			c0.4,0.3,0.5,0.8,0.5,1.3h-1c0-0.3-0.1-0.5-0.3-0.7c-0.2-0.2-0.4-0.3-0.7-0.3c-0.3,0-0.5,0.1-0.7,0.2c-0.2,0.2-0.3,0.4-0.3,0.6
			c0,0.2,0.1,0.4,0.2,0.5c0.1,0.1,0.4,0.3,0.9,0.5c0.7,0.3,1.3,0.6,1.5,0.9c0.3,0.3,0.4,0.6,0.4,1.1c0,0.5-0.2,1-0.6,1.3
			c-0.4,0.3-0.9,0.5-1.5,0.5c-0.6,0-1.2-0.2-1.6-0.6c-0.4-0.4-0.6-0.8-0.6-1.4h1c0,0.3,0.1,0.6,0.3,0.8c0.2,0.2,0.5,0.3,0.8,0.3
			c0.3,0,0.6-0.1,0.8-0.2C106,125.8,106.1,125.6,106.1,125.4z"/>
		<path class="st1" d="M109.6,119.2c0,0.2,0,0.3-0.1,0.4c-0.1,0.1-0.2,0.2-0.4,0.2c-0.2,0-0.3-0.1-0.4-0.2c-0.1-0.1-0.1-0.3-0.1-0.4
			c0-0.2,0-0.3,0.1-0.4c0.1-0.1,0.2-0.2,0.4-0.2c0.2,0,0.3,0.1,0.4,0.2C109.5,118.9,109.6,119,109.6,119.2z M109.5,127h-1v-6.1h1
			V127z"/>
		<path class="st1" d="M112,120.8l0,0.7c0.4-0.5,0.9-0.8,1.5-0.8c1.1,0,1.6,0.7,1.7,2.2v4.1h-1v-4c0-0.5-0.1-0.8-0.2-1
			c-0.2-0.2-0.4-0.3-0.7-0.3c-0.2,0-0.5,0.1-0.7,0.2c-0.2,0.2-0.4,0.4-0.5,0.7v4.5h-1v-6.1H112z"/>
		<path class="st1" d="M116.5,123.6c0-1,0.2-1.7,0.5-2.2c0.3-0.5,0.9-0.7,1.5-0.7c0.6,0,1.1,0.3,1.4,0.8l0.1-0.7h0.9v6.2
			c0,0.8-0.2,1.3-0.6,1.8c-0.4,0.4-0.9,0.6-1.6,0.6c-0.3,0-0.6-0.1-1-0.2c-0.4-0.1-0.7-0.3-0.8-0.6l0.4-0.7c0.4,0.4,0.9,0.6,1.4,0.6
			c0.8,0,1.3-0.5,1.3-1.4v-0.8c-0.3,0.5-0.8,0.7-1.4,0.7c-0.6,0-1.1-0.2-1.5-0.7c-0.4-0.5-0.5-1.2-0.6-2.1V123.6z M117.5,124.2
			c0,0.7,0.1,1.2,0.3,1.5c0.2,0.3,0.5,0.5,1,0.5c0.5,0,0.9-0.3,1.1-0.8v-3.1c-0.3-0.5-0.6-0.8-1.1-0.8c-0.5,0-0.8,0.2-1,0.5
			c-0.2,0.3-0.3,0.8-0.3,1.5V124.2z"/>
		<path class="st1" d="M128.3,127c-0.1-0.1-0.1-0.4-0.1-0.7c-0.4,0.5-0.8,0.8-1.4,0.8c-0.6,0-1-0.2-1.3-0.5s-0.5-0.8-0.5-1.3
			c0-0.6,0.2-1.1,0.6-1.5c0.4-0.4,1-0.6,1.7-0.6h0.7v-0.7c0-0.4-0.1-0.6-0.2-0.8c-0.2-0.2-0.4-0.2-0.7-0.2c-0.3,0-0.5,0.1-0.7,0.3
			c-0.2,0.2-0.3,0.4-0.3,0.7h-1c0-0.3,0.1-0.6,0.3-0.9c0.2-0.3,0.4-0.5,0.7-0.7s0.7-0.2,1.1-0.2c0.6,0,1.1,0.2,1.4,0.5
			c0.3,0.3,0.5,0.8,0.5,1.4v3.1c0,0.5,0.1,0.9,0.2,1.2v0.1H128.3z M126.9,126.2c0.2,0,0.5-0.1,0.7-0.2c0.2-0.1,0.4-0.3,0.5-0.5V124
			h-0.6c-0.5,0-0.9,0.1-1.1,0.3c-0.3,0.2-0.4,0.5-0.4,0.9c0,0.3,0.1,0.6,0.2,0.8C126.4,126.1,126.6,126.2,126.9,126.2z"/>
		<path class="st1" d="M131.6,120.8l0,0.7c0.4-0.5,0.9-0.8,1.5-0.8c1.1,0,1.6,0.7,1.7,2.2v4.1h-1v-4c0-0.5-0.1-0.8-0.2-1
			c-0.2-0.2-0.4-0.3-0.7-0.3c-0.3,0-0.5,0.1-0.7,0.2c-0.2,0.2-0.4,0.4-0.5,0.7v4.5h-1v-6.1H131.6z"/>
		<path class="st1" d="M136.1,123.6c0-0.9,0.2-1.7,0.5-2.2c0.4-0.5,0.9-0.7,1.5-0.7c0.6,0,1,0.2,1.4,0.7v-3.2h1v8.7h-0.9l-0.1-0.7
			c-0.3,0.5-0.8,0.8-1.4,0.8c-0.6,0-1.1-0.2-1.5-0.7c-0.4-0.5-0.5-1.2-0.6-2.1V123.6z M137.1,124.2c0,0.7,0.1,1.2,0.3,1.5
			c0.2,0.3,0.5,0.5,1,0.5c0.5,0,0.9-0.3,1.1-0.8v-3.1c-0.3-0.5-0.6-0.7-1.1-0.7c-0.5,0-0.8,0.2-1,0.5c-0.2,0.3-0.3,0.8-0.3,1.5
			V124.2z"/>
	</g>
	<g class="st7">
		<path class="st1" d="M61.2,138.3c0,0.9-0.3,1.6-0.7,2c-0.5,0.5-1.1,0.7-1.9,0.7c-0.8,0-1.5-0.3-2-0.9c-0.5-0.6-0.7-1.5-0.7-2.6
			V136c0-1.1,0.3-1.9,0.8-2.6s1.2-0.9,2.1-0.9c0.8,0,1.4,0.2,1.9,0.7c0.4,0.5,0.7,1.2,0.7,2h-1.1c0-0.7-0.2-1.2-0.4-1.4
			c-0.2-0.3-0.6-0.4-1.1-0.4c-0.6,0-1,0.2-1.3,0.7c-0.3,0.4-0.5,1.1-0.5,1.9v1.5c0,0.8,0.1,1.5,0.4,1.9c0.3,0.4,0.7,0.7,1.2,0.7
			c0.5,0,0.9-0.1,1.2-0.4c0.2-0.3,0.4-0.8,0.4-1.4H61.2z"/>
		<path class="st1" d="M62.3,137.6c0-0.9,0.2-1.6,0.7-2.1c0.4-0.5,1-0.8,1.7-0.8c0.7,0,1.3,0.3,1.7,0.8c0.4,0.5,0.7,1.2,0.7,2.1v0.6
			c0,0.9-0.2,1.6-0.6,2.1c-0.4,0.5-1,0.8-1.7,0.8c-0.7,0-1.3-0.3-1.7-0.8c-0.4-0.5-0.7-1.2-0.7-2V137.6z M63.3,138.1
			c0,0.6,0.1,1.1,0.4,1.5c0.2,0.4,0.6,0.5,1,0.5c0.9,0,1.3-0.6,1.4-1.9v-0.7c0-0.6-0.1-1.1-0.4-1.5c-0.3-0.4-0.6-0.5-1-0.5
			c-0.4,0-0.7,0.2-1,0.5c-0.2,0.4-0.4,0.9-0.4,1.5V138.1z"/>
		<path class="st1" d="M69.3,134.8l0,0.6c0.4-0.5,0.9-0.7,1.5-0.7c0.7,0,1.2,0.3,1.4,0.9c0.4-0.6,0.9-0.9,1.6-0.9
			c1.1,0,1.7,0.7,1.7,2.1v4.1h-1v-4c0-0.4-0.1-0.8-0.2-1c-0.2-0.2-0.4-0.3-0.8-0.3c-0.3,0-0.5,0.1-0.7,0.4c-0.2,0.2-0.3,0.5-0.3,0.9
			v4.1h-1v-4.1c0-0.9-0.4-1.3-1-1.3c-0.5,0-0.9,0.3-1.1,0.8v4.6h-1v-6.1H69.3z"/>
		<path class="st1" d="M78,134.8l0,0.6c0.4-0.5,0.9-0.7,1.5-0.7c0.7,0,1.2,0.3,1.4,0.9c0.4-0.6,0.9-0.9,1.6-0.9
			c1.1,0,1.7,0.7,1.7,2.1v4.1h-1v-4c0-0.4-0.1-0.8-0.2-1c-0.2-0.2-0.4-0.3-0.8-0.3c-0.3,0-0.5,0.1-0.7,0.4c-0.2,0.2-0.3,0.5-0.3,0.9
			v4.1h-1v-4.1c0-0.9-0.4-1.3-1-1.3c-0.5,0-0.9,0.3-1.1,0.8v4.6h-1v-6.1H78z"/>
		<path class="st1" d="M88.9,140.4c-0.3,0.4-0.8,0.7-1.5,0.7c-0.6,0-1-0.2-1.3-0.6c-0.3-0.4-0.4-0.9-0.4-1.7v-4h1v3.9
			c0,1,0.3,1.4,0.9,1.4c0.6,0,1-0.3,1.3-0.8v-4.6h1v6.1h-1L88.9,140.4z"/>
		<path class="st1" d="M92.4,134.8l0,0.7c0.4-0.5,0.9-0.8,1.5-0.8c1.1,0,1.6,0.7,1.7,2.2v4.1h-1v-4c0-0.5-0.1-0.8-0.2-1
			c-0.2-0.2-0.4-0.3-0.7-0.3c-0.2,0-0.5,0.1-0.7,0.2c-0.2,0.2-0.4,0.4-0.5,0.7v4.5h-1v-6.1H92.4z"/>
		<path class="st1" d="M98.2,133.1c0,0.2,0,0.3-0.1,0.4c-0.1,0.1-0.2,0.2-0.4,0.2c-0.2,0-0.3-0.1-0.4-0.2c-0.1-0.1-0.1-0.3-0.1-0.4
			c0-0.2,0-0.3,0.1-0.4c0.1-0.1,0.2-0.2,0.4-0.2c0.2,0,0.3,0.1,0.4,0.2C98.2,132.8,98.2,133,98.2,133.1z M98.2,140.9h-1v-6.1h1
			V140.9z"/>
		<path class="st1" d="M101,133.3v1.5h0.9v0.8H101v3.8c0,0.2,0,0.4,0.1,0.6c0.1,0.1,0.2,0.2,0.4,0.2c0.1,0,0.3,0,0.4-0.1l0,0.8
			c-0.2,0.1-0.5,0.1-0.7,0.1c-0.4,0-0.7-0.1-0.9-0.4c-0.2-0.3-0.3-0.7-0.3-1.2v-3.8h-0.9v-0.8h0.9v-1.5H101z"/>
		<path class="st1" d="M104.8,139.3l1.1-4.5h1.1l-2,7c-0.2,0.5-0.4,0.9-0.6,1.2c-0.3,0.3-0.6,0.4-0.9,0.4c-0.1,0-0.3,0-0.5-0.1v-0.9
			l0.2,0c0.3,0,0.5-0.1,0.7-0.2c0.2-0.1,0.3-0.4,0.4-0.7l0.2-0.7l-1.8-6.1h1.1L104.8,139.3z"/>
		<path class="st1" d="M110.8,140.9v-8.3h2c1,0,1.7,0.3,2.2,0.9c0.5,0.6,0.8,1.5,0.8,2.5v1.4c0,1.1-0.3,1.9-0.8,2.5
			c-0.5,0.6-1.3,0.9-2.4,0.9H110.8z M111.9,133.5v6.5h0.8c0.7,0,1.3-0.2,1.6-0.6s0.5-1,0.5-1.9v-1.5c0-0.9-0.2-1.5-0.5-1.9
			s-0.8-0.6-1.5-0.6H111.9z"/>
	</g>
	<g class="st7">
		<path class="st1" d="M119.5,141c-0.8,0-1.4-0.2-1.8-0.7c-0.4-0.5-0.6-1.1-0.6-2v-0.7c0-0.9,0.2-1.6,0.6-2.2c0.4-0.5,1-0.8,1.7-0.8
			c0.7,0,1.3,0.2,1.6,0.7c0.4,0.5,0.5,1.2,0.5,2.1v0.7h-3.4v0.1c0,0.7,0.1,1.1,0.4,1.4c0.2,0.3,0.6,0.4,1.1,0.4
			c0.3,0,0.6-0.1,0.8-0.2c0.2-0.1,0.4-0.3,0.6-0.5l0.5,0.6C121.1,140.7,120.4,141,119.5,141z M119.4,135.5c-0.4,0-0.7,0.1-0.9,0.4
			c-0.2,0.3-0.3,0.7-0.3,1.3h2.4v-0.1c0-0.6-0.1-1-0.3-1.3C120.1,135.7,119.8,135.5,119.4,135.5z"/>
	</g>
	<g class="st7">
		<path class="st1" d="M124.4,139.4l1.2-4.6h1l-1.8,6.1h-0.7l-1.8-6.1h1L124.4,139.4z"/>
		<path class="st1" d="M129.9,141c-0.8,0-1.4-0.2-1.8-0.7c-0.4-0.5-0.6-1.1-0.6-2v-0.7c0-0.9,0.2-1.6,0.6-2.2c0.4-0.5,1-0.8,1.7-0.8
			c0.7,0,1.3,0.2,1.6,0.7c0.4,0.5,0.5,1.2,0.5,2.1v0.7h-3.4v0.1c0,0.7,0.1,1.1,0.4,1.4c0.2,0.3,0.6,0.4,1.1,0.4
			c0.3,0,0.6-0.1,0.8-0.2c0.2-0.1,0.4-0.3,0.6-0.5l0.5,0.6C131.4,140.7,130.8,141,129.9,141z M129.8,135.5c-0.4,0-0.7,0.1-0.9,0.4
			s-0.3,0.7-0.3,1.3h2.4v-0.1c0-0.6-0.1-1-0.3-1.3C130.4,135.7,130.1,135.5,129.8,135.5z"/>
		<path class="st1" d="M134.2,140.9h-1v-8.7h1V140.9z"/>
		<path class="st1" d="M135.6,137.6c0-0.9,0.2-1.6,0.6-2.1c0.4-0.5,1-0.8,1.7-0.8c0.7,0,1.3,0.3,1.7,0.8c0.4,0.5,0.7,1.2,0.7,2.1
			v0.6c0,0.9-0.2,1.6-0.6,2.1c-0.4,0.5-1,0.8-1.7,0.8c-0.7,0-1.3-0.3-1.7-0.8c-0.4-0.5-0.7-1.2-0.7-2V137.6z M136.6,138.1
			c0,0.6,0.1,1.1,0.4,1.5c0.2,0.4,0.6,0.5,1,0.5c0.9,0,1.3-0.6,1.4-1.9v-0.7c0-0.6-0.1-1.1-0.4-1.5c-0.3-0.4-0.6-0.5-1-0.5
			c-0.4,0-0.7,0.2-1,0.5c-0.2,0.4-0.4,0.9-0.4,1.5V138.1z"/>
		<path class="st1" d="M146.1,138.1c0,1-0.2,1.7-0.5,2.2c-0.4,0.5-0.8,0.7-1.5,0.7c-0.6,0-1.1-0.2-1.4-0.7v2.9h-1v-8.5h0.9l0.1,0.7
			c0.3-0.5,0.8-0.8,1.4-0.8c0.7,0,1.2,0.2,1.5,0.7c0.3,0.5,0.5,1.2,0.5,2.1V138.1z M145.1,137.6c0-0.7-0.1-1.2-0.3-1.5
			c-0.2-0.3-0.6-0.5-1-0.5c-0.5,0-0.8,0.2-1.1,0.7v3.2c0.2,0.5,0.6,0.7,1.1,0.7c0.5,0,0.8-0.2,1-0.5c0.2-0.3,0.3-0.8,0.3-1.5V137.6z
			"/>
		<path class="st1" d="M148.3,134.8l0,0.6c0.4-0.5,0.9-0.7,1.5-0.7c0.7,0,1.2,0.3,1.4,0.9c0.4-0.6,0.9-0.9,1.6-0.9
			c1.1,0,1.7,0.7,1.7,2.1v4.1h-1v-4c0-0.4-0.1-0.8-0.2-1c-0.2-0.2-0.4-0.3-0.8-0.3c-0.3,0-0.5,0.1-0.7,0.4c-0.2,0.2-0.3,0.5-0.3,0.9
			v4.1h-1v-4.1c0-0.9-0.4-1.3-1-1.3c-0.5,0-0.9,0.3-1.1,0.8v4.6h-1v-6.1H148.3z"/>
		<path class="st1" d="M158.3,141c-0.8,0-1.4-0.2-1.8-0.7c-0.4-0.5-0.6-1.1-0.6-2v-0.7c0-0.9,0.2-1.6,0.6-2.2c0.4-0.5,1-0.8,1.7-0.8
			c0.7,0,1.3,0.2,1.6,0.7c0.4,0.5,0.5,1.2,0.5,2.1v0.7h-3.4v0.1c0,0.7,0.1,1.1,0.4,1.4c0.2,0.3,0.6,0.4,1.1,0.4
			c0.3,0,0.6-0.1,0.8-0.2c0.2-0.1,0.4-0.3,0.6-0.5l0.5,0.6C159.9,140.7,159.2,141,158.3,141z M158.2,135.5c-0.4,0-0.7,0.1-0.9,0.4
			s-0.3,0.7-0.3,1.3h2.4v-0.1c0-0.6-0.1-1-0.3-1.3C158.9,135.7,158.6,135.5,158.2,135.5z"/>
		<path class="st1" d="M162.5,134.8l0,0.7c0.4-0.5,0.9-0.8,1.5-0.8c1.1,0,1.6,0.7,1.7,2.2v4.1h-1v-4c0-0.5-0.1-0.8-0.2-1
			c-0.2-0.2-0.4-0.3-0.7-0.3c-0.3,0-0.5,0.1-0.7,0.2c-0.2,0.2-0.4,0.4-0.5,0.7v4.5h-1v-6.1H162.5z"/>
		<path class="st1" d="M168.5,133.3v1.5h0.9v0.8h-0.9v3.8c0,0.2,0,0.4,0.1,0.6c0.1,0.1,0.2,0.2,0.4,0.2c0.1,0,0.3,0,0.4-0.1l0,0.8
			c-0.2,0.1-0.5,0.1-0.7,0.1c-0.4,0-0.7-0.1-0.9-0.4c-0.2-0.3-0.3-0.7-0.3-1.2v-3.8h-0.9v-0.8h0.9v-1.5H168.5z"/>
	</g>
</g>
</svg>
