<?xml version="1.0" encoding="UTF-8"?><svg id="Layer_1" xmlns="http://www.w3.org/2000/svg" viewBox="0 0 701.39 723.55"><defs><style>.cls-1{fill:#fefefe;}.cls-2{fill:#667323;}.cls-3{fill:#b2bc7f;}.cls-4{fill:#a5a5a0;}.cls-5{fill:#514b4b;}</style></defs><polygon class="cls-4" points="657.59 542.66 344.28 723.55 30.98 542.66 30.98 180.88 344.28 0 657.59 180.88 657.59 542.66"/><g><path class="cls-5" d="M321.47,543.06c-1.01,3.71-1.42,7.18-2.86,10.15-5.35,11.02-21.08,14.85-31.7,7.6-4.85-3.31-9.11-7.48-13.02-10.74-3.57,1.4-6.94,3.74-10.35,3.78-3.36,.05-6.75-2.22-10.77-3.71-7.5,9.48-18.01,12.29-30.66,10.36-13.23-2.02-20.08-10.34-24.24-21.83-.47-.04-.81-.18-.94-.07-9.29,7.91-20.07,9.54-31.51,6.77-4.47-1.09-9.15-2.98-12.72-5.79-7.4-5.82-14.13-12.5-21.03-18.73-2.84,2.46-5.88,5.48-9.3,7.99-9.73,7.15-20.49,7.31-30.55,1.85-9.87-5.36-19.62-11.71-24.08-22.94-1.45-3.65-2.26-7.82-2.23-11.74,.04-6.02,1.03-12.04,1.66-18.06,.52-4.94,2.79-8.96,7.16-12.18-3.06-1.16-5.71-2.22-8.41-3.17-24.93-8.82-43.3-25.3-56.46-48.01-5.37-9.26-7.01-19.52-8.28-29.8-2.85-23.17-.59-45.87,7.37-67.91,.22-.62,.54-1.2,.82-1.79,3.34-7.32,6.86-9.08,14.68-7.83,7.65,1.22,15.32,2.37,23.02,3.11,2.21,.21,4.75-.72,6.81-1.76,2.91-1.48,5.53-3.54,8.27-5.36,7.88-5.22,15.79-10.39,23.62-15.69,11.03-7.47,23.53-10.46,36.49-11.29,26.04-1.67,51.2,2.73,75.15,13.02,15.19,6.52,28.4,15.95,38.2,29.62,.45,.63,1.41,1.21,2.16,1.26,15.09,.88,30.17,1.69,45.27,2.47,2.34,.12,4.7,.02,6.15,.02,6.99-17.71,13.55-34.87,20.58-51.83,2.45-5.9,6.01-11.35,9.18-16.94,2.39-4.23,5.51-8.14,7.34-12.58,4.47-10.82,13.25-14.36,23.75-14.07,19.3,.54,38.4,3.34,56.24,10.98,34.34,14.71,69.89,24.09,107.04,28.49,34.38,4.07,68.81,4.16,103.25,3.71,15.46-.2,30.89-2.8,46.34-4.26,12.17-1.15,23.86,.53,34.92,6.01,3.06,1.52,4.02,3.48,3.36,6.92-5.03,26.45-9.96,52.91-14.76,79.4-.6,3.3-.4,6.79-.28,10.18,.52,14.47,1.62,29.01-4.55,42.73-1.61,3.57-3.28,7.29-5.71,10.29-10.44,12.86-20.43,26.2-31.98,38-13.68,13.97-28.26,27.2-43.41,39.57-20.88,17.05-42.45,33.28-64.17,49.24-6.9,5.07-15.02,8.68-22.96,12.1-13.03,5.61-26.25,10.84-39.61,15.62-12.87,4.6-25.82,7.51-39.94,4.2-13.78-3.23-28.33-3.26-42.02-6.74-15.92-4.04-31.29-10.28-46.9-15.57-2.66-.9-5.53-1.43-7.91-2.81-4.04-2.35-7.82-5.16-11.57-7.96-1.44-1.07-2.5-2.65-3.95-4.22v-.06Zm78.43-65.33c.94-.47,1.89-.9,2.8-1.41,18.03-10.04,35.88-20.42,54.12-30.07,32.25-17.08,66.75-29.93,96.47-51.76,1.32-.97,4.75-.49,6.3,.6,2.32,1.63,2.01,4.67,.1,6.65-2.44,2.54-5.2,4.85-8.12,6.84-18.28,12.46-37.4,23.44-57.56,32.63-20.92,9.54-42.11,18.61-62.39,29.37-14.67,7.78-28.04,18-41.92,27.08,9.81,17.92-.48,43.5-23.95,57.12,8.99,1.91,17.64,3.77,26.3,5.58,17.86,3.73,36.18,5.31,53.46,11.71,1.3,.48,3.17,.12,4.54-.42,19.07-7.53,38.19-14.96,57.11-22.87,7.36-3.08,14.88-6.47,21.2-11.21,21.77-16.35,43.4-32.94,64.4-50.27,14.68-12.12,28.77-25.08,42.13-38.64,10.94-11.12,20.49-23.62,30.47-35.66,1.88-2.27,3.12-5.16,4.32-7.91,4.71-10.83,4.02-22.37,4.34-33.8,.18-6.26,.63-12.58,1.76-18.73,1.47-8,3.68-15.87,5.68-23.78,2.05-8.11,3.65-16.4,6.53-24.21,1.76-4.79,3.98-9.2,3.93-14.51-.08-7.93-.07-8.17-7.88-10.01-.38-.09-.79-.09-1.17-.19-11.96-3.01-23.84-.09-35.72,.65-13.51,.84-26.97,2.9-40.48,3.29-13.93,.41-27.89-.89-41.84-.83-22.61,.1-44.88-2.91-67.05-6.76-24.72-4.29-49.42-8.73-72.43-19.59-7.28-3.44-15.12-5.71-22.99-8.62-6.82,16.59-13.58,32.97-20.29,49.37-2.34,5.72-4.35,11.57-6.89,17.19-1.22,2.69-3.1,5.18-5.1,7.38-.8,.87-2.92,1.22-4.1,.81-.74-.26-1.14-2.36-1.15-3.64-.01-1.54,.58-3.08,.86-4.63,3.69-20.57,8.64-40.77,16.67-60.14,1.58-3.8,2.74-7.78,4.52-12.89-13.13-1.45-25.35-3.06-37.63-4.04-6.16-.49-11.09,1.92-13.7,8.33-1.72,4.22-4.57,7.97-6.78,12-3.79,6.9-7.97,13.63-11.11,20.82-6.27,14.33-11.89,28.94-17.93,43.36-1.2,2.88-.56,3.93,2.23,5.3,14.75,7.25,27.06,17.5,36.92,30.71,2.98,3.99,6.4,7.64,9.19,10.95,1.46-4.03,2.23-8.15,4.29-11.45,5.72-9.19,13.5-16.43,23.28-21.24,5.5-2.71,11.63-1.43,15.88,2.88,.81,.82,1.51,1.74,2.53,2.93,8.14-6.71,16.1-13.37,24.16-19.9,8.67-7.03,17.98-13.56,29.45-13.86,21.8-.57,41.55,6.65,59.83,18.18,.66,.42,1.25,.97,1.86,1.46,6.95,5.6,10.69,12.94,11.24,21.77,.33,5.32,.06,10.67,.06,16.55,5.98-3.38,11.7-6.29,17.08-9.74,5.04-3.23,9.98-6.72,14.47-10.67,3.36-2.95,6.3-6.04,11.24-5.11,1.27,.24,3.1,.43,3.56,1.26,.54,.97,.28,2.88-.37,3.91-1.68,2.66-3.72,5.09-5.69,7.55-11.49,14.35-28.3,21.11-43.45,30.17-17.1,10.23-35.49,18.46-49.72,33-3.58,3.66-6.96,7.55-10.82,10.9-8.45,7.33-17.23,14.27-25.71,21.56-10.77,9.26-21.37,18.71-32.05,28.07-.15,.29-.3,.59-.45,.88,.38-.08,.76-.17,1.14-.25h.02Zm-181.9-153.1c-4.48-7.52-9.6-12.95-16.92-16.08-1.8-.77-3.47-1.89-5.1-2.99-16.18-10.96-34.52-15.32-53.58-16.75-16.58-1.24-32.38,2.42-47.31,9.83-15.51,7.7-31.24,15.07-37.1,33.51-.87,2.73-3.84,2.81-5.56,.36-1.28-1.82-2.28-3.84-3.46-5.74-1.63-2.62-3.52-4.48-6.95-5.13-7.46-1.41-14.85-3.3-22.15-5.39-3.02-.86-4.17-.21-5.04,2.69-6.12,20.39-8.2,41.11-6.15,62.33,2.2,22.77,14.01,40.03,30.53,54.71,11.48,10.2,25.35,15.77,39.75,20.23,3.87,1.2,7.77,2.66,11.75,3.05,5.44,.53,10.96,.24,16.45,.1,1.44-.04,2.97-.59,4.28-1.26,4.28-2.17,8.37-4.75,12.75-6.69,2.79-1.23,5.97-1.6,9.23-2.42-1.3-1.58-2.37-2.89-3.45-4.19-5.73-6.87-5.49-14.32-1.48-21.7,1.59-2.92,4.29-5.28,6.65-7.74,2.18-2.28,4.66-4.1,3.33-8.05-.49-1.45,.55-3.54,1.18-5.24,.99-2.71,2.47-5.26,3.29-8.01,1.87-6.26,3.9-12.53,5.06-18.94,1.91-10.61,9.06-17.94,15.29-25.83,7.68-9.72,17.95-16.16,29.14-20.97,7.89-3.39,16.27-5.13,25.6-3.71l-.03,.02Zm119.23,75.12c1.62-4.94,3.4-9.73,4.68-14.66,.35-1.34-.62-3.19-1.38-4.59-.91-1.67-2.42-3-3.35-4.65-4.95-8.84-9.88-17.72-17.77-24.38-4.55-3.84-9.39-7.33-14.07-11.02-5.45-4.31-11.86-6.6-18.56-6.54-22.68,.2-45.35,.93-68.02,1.48-.65,.02-1.3,.14-1.94,.25-5.58,.94-11.13,2.51-16.73,2.71-9.84,.35-17.42,5.11-24.5,11.09-12.16,10.28-16.16,24.8-19.99,39.35-1.08,4.1-2.32,8.19-2.86,12.37-.42,3.17-.8,6.93,.51,9.59,1.83,3.73,5.09,6.82,8.01,9.94,4.13,4.4,8.32,8.78,12.83,12.78,4.53,4.02,9.44,7.61,14.25,11.3,1.39,1.07,2.93,2.4,4.55,2.65,5.08,.81,10.23,1.27,15.37,1.67,6.35,.49,11.87,2.3,16.81,6.8,5.11,4.65,11.01,8.46,16.76,12.36,4.02,2.73,8.22,5.26,12.61,7.29,1.34,.62,2.65,3.1,5.39,.75,4.39-3.77,9.59-6.58,14.46-9.78,2.59-1.7,5.2-3.36,7.52-4.86-5.04-6.08-10.2-10.93-13.64-16.79-4.54-7.75-7.69-16.32-11.55-24.48-.51-1.09-1.52-2.25-2.59-2.72-7.13-3.19-14.15-6.66-22.33-6.68-2.18,0-4.35-2.01-6.53-3.1,.17-.56,.34-1.11,.51-1.67,8.12-3.79,16.12,.38,24.36,1.07-3.01-3.4-6.08-6.59-9.47-9.38-1.51-1.25-3.62-1.92-5.56-2.49-4.2-1.23-8.47-2.23-13.88-3.62,2.6-1.97,4.01-3.91,5.64-4.13,10.09-1.32,19.04,1.31,26.23,9.38,.28-1.04,.55-1.47,.45-1.76-1.96-5.52-4.14-10.97-5.88-16.55-.75-2.41-1.11-5.28,3.12-7.02,5.28,12.17,10.54,24.3,15.89,36.63,1.26-.6,1.86-.81,2.38-1.15,9.17-5.99,18.97-7.27,29.14-3.24,3.04,1.21,4.93,.66,6.14-1.89,1.89-4,5.18-5.98,9.03-7.58,5.62-2.34,11.08-3.75,16.55,.4,2.25,1.7,4.72,3.1,7.44,4.86h-.03Zm119.9-26.96c-2.34-1.26-4.03-2.7-5.94-3.1-5.34-1.12-10.75-2.03-16.18-2.6-7.37-.77-8.37-1.92-6.46-8.99,.68-2.5-.06-3.88-2.71-3.89-1.83,0-3.78-.2-5.47,.35-12.67,4.13-25.27,8.46-37.93,12.59-1.13,.37-2.96,.09-3.81-.65-.67-.57-.71-2.46-.33-3.5,.47-1.26,1.78-2.17,2.56-3.35,1.83-2.78,4.21-5.41,5.19-8.48,1.73-5.41-2.69-9.75-8.28-8.38-2.06,.51-4.27,1.69-5.71,3.22-4.23,4.49-8.4,9.1-12.08,14.04-6.73,9.04-8.21,20.23-11.42,30.62-3.18,10.28-2.17,21.08-.44,31.63,2.37,14.5,9.54,27.09,16.53,39.7,.61,1.09,1.58,2.2,2.67,2.77,7.01,3.63,14.62,4.71,22.4,4.81,1.03,.01,2.33-.52,3.08-1.24,9.55-9.23,19.05-18.51,28.44-27.9,.71-.71,.5-2.36,.71-3.58,.25-1.46,0-3.61,.85-4.22,1.1-.78,3.08-.43,4.67-.37,.54,.02,1.05,.64,1.15,.7,11.87-9.87,23.53-19.48,35.03-29.28,1.04-.88,1.91-3.63,1.34-4.44-2.41-3.41-2.95-6.82-.82-10.65-5.09-.65-10.5,1.11-12.72-4.59-1.94-4.99,2.03-7.63,5.71-11.23h-.03Zm-148.36,46.13c-1.45-.88-2.48-1.21-3.08-1.91-7.51-8.73-19.11-7.75-27.6-4.24-4.54,1.87-6.62,5.28-5.33,9.76,2.53,8.82,3.91,18.05,10.41,25.47,3.59,4.1,5.11,10.05,8.8,14.02,3.76,4.04,9.09,6.59,13.6,9.98,1.83,1.38,3.05,3.63,4.96,4.83,6.46,4.04,12.98,8.01,19.72,11.55,2.76,1.45,6.21,2.67,9.2,2.41,10.53-.94,20.99-2.58,31.67-3.98,.6-5.22-1.3-9.7-6.02-13.14-2.7-1.97-5.64-4.02-7.47-6.71-3.89-5.72-7.43-11.73-10.56-17.91-6.3-12.43-12.91-24.79-14.34-39.04-.54-5.35-7.19-9.73-12.43-8.34-8.36,2.21-11.26,8.33-11.52,17.25h-.01Zm-39.28,124.94c-3.57-6.29-3.42-12.34-.58-18.46,2.88-6.21,5.68-12.45,8.37-18.35-2.98-2.28-6.23-4.91-9.61-7.35-10.3-7.44-20.69-14.78-30.98-22.23-5.75-4.16-11.38-8.49-17.09-12.72-2.92-2.16-6.08-2.92-9.84-3.12-10.77-.56-20.91-3.86-31.07-8.55-1.66,1.2-3.85,2.66-5.88,4.3-.6,.48-1.26,1.6-1.08,2.19,.8,2.72,1.54,5.56,2.96,7.97,2.32,3.94,5.09,7.62,7.79,11.32,1.54,2.11,2.91,4.79,5.05,5.95,8.65,4.7,15.56,11.09,20.31,19.46,10.6-2.91,20.71-4.33,30.71,.75,14.1,7.16,21.36,19.25,19.26,32.54-.43,2.72-.76,5.11,2.3,6.68,3.13,1.61,6.08,2.29,9.4-.38h-.02Zm14.42-42.76c.17,.45,.34,.91,.51,1.36,8.86-6.25,17.61-4.28,26.3-.3,7.38,3.38,11.81,9.08,11.45,17.29-.46,10.55,4.9,17.76,12.72,23.4,3.01,2.17,7.14,3.57,10.86,3.86,11.76,.9,22.18-2.04,29.2-12.57,1.16-1.75,2.74-3.22,3.87-4.98,5.66-8.88,8.68-18,2.87-28.17-1.53-2.68-3.19-4.48-6.29-4.44-7.46,.09-15.07-.61-22.34,.65-11.68,2.03-22.39,.93-32.48-5.45-4.74-3-9.62-5.78-14.25-8.55-7.63,6.09-15.02,12-22.42,17.91h0Zm-148.75-14.21c-4.08-4.74-7.59-9.16-11.46-13.23-9.1-9.58-25.14-14.91-38.11-3.23-1.25,1.12-2.77,2-4.27,2.78-2.58,1.35-3.79,3.37-3.98,6.29-.32,4.85-1.04,9.68-1.31,14.53-.15,2.57-.47,5.53,.56,7.71,5.63,11.93,14.71,19.99,27.94,22.43,9.05,1.67,20.18-7.11,20.81-16.29,.56-8.15,2.24-15.64,9.8-21h.02Zm40.14,48.96c11.41,.2,20.2-6.12,23.64-16.97,.52-1.63,.95-3.3,1.65-4.85,1.16-2.58,.52-4.7-.95-6.99-8.45-13.13-20.98-19.04-36.01-19.09-8.25-.03-16.22,2.51-22.3,9.12-2.94,3.19-2.42,6.95-3.2,10.58-.66,3.1-.02,5.36,2.3,7.38,5.45,4.76,10.84,9.59,16.28,14.37,5.31,4.67,11.67,6.38,18.6,6.45h-.01Zm27.81-1.15c9.78,13.25,11.29,14.2,25.62,15.73,7.89,.85,16.13-3.1,18.65-9.7,3.4-8.89,2.06-15.16-3.95-21.37-9.41-9.71-20.93-10.34-32.77-8.53-2.46,7.76-4.85,15.33-7.55,23.86h0Zm92.06-28.23c-1.78,.68-5.04,1.25-7.43,2.99-5.88,4.28-9.71,9.62-10.26,17.59-.72,10.45,7.87,23.41,18.27,25.47,.51,.1,1.05,.02,1.57,.11,7.05,1.21,14.57-6.43,16.07-12.04,1.41-5.29,2.28-10.77,2.91-16.22,.26-2.21,.02-5.28-1.32-6.74-4.98-5.4-10.53-10.24-19.81-11.17h0Zm-173.66-42.94c4.07,2.91,7.96,5.2,11.23,8.18,3.26,2.97,5.81,6.7,8.87,9.91,.58,.61,2.11,.66,3.11,.48,3.74-.68,7.41-2.03,11.16-2.26,6.15-.39,12.34-.11,18.17-.11-2.82-4.87-5.35-9.7-8.37-14.22-1.46-2.18-3.54-4.67-5.86-5.45-13.02-4.35-25.75-3.48-38.3,3.46h0Zm50.92-17.48c-11.57-8.6-21.79-17.93-28.4-30.67-1.65,2.05-2.82,3.43-3.91,4.87-8.19,10.79-7.75,16.55-.7,25.4,.87,1.09,2.67,1.71,4.14,1.99,4.48,.85,9.34,.6,13.42,2.3,5.37,2.24,9.67,3.27,13.26-2.39,.32-.51,1.06-.75,2.19-1.49h0Zm225.38,32.89l.15-.23h-.28l.13,.23Z"/><path class="cls-1" d="M399.21,477.1c10.68-9.37,21.28-18.81,32.05-28.07,8.48-7.29,17.26-14.23,25.71-21.56,3.86-3.35,7.24-7.24,10.82-10.9,14.23-14.54,32.62-22.77,49.72-33,15.14-9.06,31.96-15.82,43.45-30.17,1.97-2.46,4.02-4.89,5.69-7.55,.65-1.03,.91-2.95,.37-3.91-.47-.83-2.29-1.02-3.56-1.26-4.94-.93-7.88,2.15-11.24,5.11-4.49,3.94-9.43,7.44-14.47,10.67-5.38,3.45-11.11,6.37-17.08,9.74,0-5.88,.27-11.23-.06-16.55-.55-8.83-4.29-16.17-11.24-21.77-.61-.5-1.2-1.05-1.86-1.46-18.28-11.53-38.03-18.75-59.83-18.18-11.47,.3-20.77,6.84-29.45,13.86-8.06,6.53-16.02,13.19-24.16,19.9-1.02-1.19-1.72-2.11-2.53-2.93-4.25-4.31-10.38-5.58-15.88-2.88-9.78,4.81-17.56,12.05-23.28,21.24-2.06,3.31-2.83,7.42-4.29,11.45-2.79-3.3-6.21-6.96-9.19-10.95-9.86-13.21-22.17-23.46-36.92-30.71-2.79-1.37-3.44-2.42-2.23-5.3,6.04-14.43,11.66-29.04,17.93-43.36,3.15-7.18,7.32-13.92,11.11-20.82,2.22-4.03,5.07-7.78,6.78-12,2.61-6.42,7.53-8.83,13.7-8.33,12.27,.98,24.49,2.59,37.63,4.04-1.78,5.11-2.94,9.09-4.52,12.89-8.02,19.37-12.98,39.58-16.67,60.14-.28,1.55-.87,3.09-.86,4.63,.01,1.28,.41,3.38,1.15,3.64,1.17,.41,3.3,.06,4.1-.81,2-2.19,3.89-4.68,5.1-7.38,2.54-5.62,4.55-11.48,6.89-17.19,6.7-16.4,13.46-32.78,20.29-49.37,7.87,2.91,15.71,5.18,22.99,8.62,23.01,10.87,47.71,15.3,72.43,19.59,22.16,3.85,44.44,6.85,67.05,6.76,13.95-.06,27.91,1.24,41.84,.83,13.51-.39,26.97-2.45,40.48-3.29,11.88-.74,23.76-3.67,35.72-.65,.38,.1,.79,.09,1.17,.19,7.81,1.84,7.8,2.08,7.88,10.01,.05,5.31-2.16,9.72-3.93,14.51-2.88,7.81-4.48,16.1-6.53,24.21-1.99,7.9-4.21,15.77-5.68,23.78-1.13,6.15-1.58,12.47-1.76,18.73-.32,11.43,.36,22.97-4.34,33.8-1.2,2.75-2.43,5.64-4.32,7.91-9.98,12.04-19.53,24.54-30.47,35.66-13.36,13.57-27.45,26.52-42.13,38.64-20.99,17.33-42.62,33.92-64.4,50.27-6.32,4.75-13.84,8.13-21.2,11.21-18.91,7.92-38.03,15.34-57.11,22.87-1.38,.54-3.25,.9-4.54,.42-17.29-6.39-35.61-7.98-53.46-11.71-8.66-1.81-17.31-3.67-26.3-5.58,23.47-13.62,33.75-39.2,23.95-57.12,13.88-9.08,27.25-19.29,41.92-27.08,20.28-10.76,41.48-19.83,62.39-29.37,20.16-9.19,39.28-20.17,57.56-32.63,2.91-1.99,5.68-4.3,8.12-6.84,1.91-1.98,2.22-5.02-.1-6.65-1.55-1.09-4.98-1.57-6.3-.6-29.72,21.84-64.23,34.69-96.47,51.76-18.24,9.66-36.09,20.03-54.12,30.07-.91,.51-1.87,.94-2.8,1.41-.23-.21-.47-.42-.7-.63h0Z"/><path class="cls-3" d="M218.01,324.63c-9.32-1.42-17.71,.32-25.6,3.71-11.2,4.81-21.46,11.24-29.14,20.97-6.23,7.89-13.38,15.22-15.29,25.83-1.15,6.41-3.19,12.68-5.06,18.94-.82,2.75-2.3,5.3-3.29,8.01-.62,1.7-1.67,3.78-1.18,5.24,1.33,3.94-1.15,5.77-3.33,8.05-2.36,2.46-5.06,4.81-6.65,7.74-4,7.38-4.25,14.83,1.48,21.7,1.08,1.3,2.15,2.61,3.45,4.19-3.26,.82-6.44,1.19-9.23,2.42-4.38,1.93-8.47,4.51-12.75,6.69-1.31,.67-2.83,1.22-4.28,1.26-5.48,.14-11.01,.43-16.45-.1-3.98-.39-7.88-1.85-11.75-3.05-14.41-4.46-28.27-10.03-39.75-20.23-16.52-14.68-28.33-31.94-30.53-54.71-2.05-21.22,.03-41.95,6.15-62.33,.87-2.9,2.02-3.55,5.04-2.69,7.3,2.09,14.69,3.98,22.15,5.39,3.43,.65,5.32,2.51,6.95,5.13,1.18,1.9,2.18,3.91,3.46,5.74,1.72,2.45,4.69,2.38,5.56-.36,5.86-18.44,21.59-25.81,37.1-33.51,14.93-7.41,30.73-11.08,47.31-9.83,19.06,1.43,37.4,5.79,53.58,16.75,1.63,1.1,3.3,2.22,5.1,2.99,7.32,3.13,12.45,8.56,16.92,16.08l.03-.02Z"/><path class="cls-2" d="M337.24,399.74c-2.72-1.76-5.19-3.16-7.44-4.86-5.47-4.15-10.93-2.74-16.55-.4-3.85,1.6-7.14,3.58-9.03,7.58-1.21,2.55-3.09,3.1-6.14,1.89-10.17-4.03-19.97-2.75-29.14,3.24-.52,.34-1.13,.55-2.38,1.15-5.35-12.33-10.61-24.47-15.89-36.63-4.23,1.74-3.87,4.61-3.12,7.02,1.74,5.59,3.92,11.03,5.88,16.55,.1,.29-.17,.72-.45,1.76-7.19-8.07-16.14-10.71-26.23-9.38-1.63,.21-3.03,2.16-5.64,4.13,5.41,1.39,9.68,2.39,13.88,3.62,1.94,.57,4.05,1.24,5.56,2.49,3.39,2.8,6.46,5.98,9.47,9.38-8.24-.7-16.24-4.87-24.36-1.07-.17,.56-.34,1.11-.51,1.67,2.18,1.09,4.35,3.1,6.53,3.1,8.18,.02,15.2,3.49,22.33,6.68,1.07,.48,2.07,1.63,2.59,2.72,3.86,8.16,7.01,16.73,11.55,24.48,3.44,5.86,8.6,10.71,13.64,16.79-2.32,1.5-4.93,3.16-7.52,4.86-4.87,3.2-10.07,6.02-14.46,9.78-2.74,2.35-4.05-.13-5.39-.75-4.39-2.03-8.6-4.56-12.61-7.29-5.74-3.9-11.65-7.71-16.76-12.36-4.94-4.5-10.46-6.31-16.81-6.8-5.14-.39-10.28-.86-15.37-1.67-1.62-.26-3.15-1.58-4.55-2.65-4.81-3.69-9.73-7.28-14.25-11.3-4.51-4-8.7-8.38-12.83-12.78-2.92-3.11-6.18-6.21-8.01-9.94-1.31-2.66-.92-6.42-.51-9.59,.55-4.18,1.79-8.27,2.86-12.37,3.83-14.56,7.83-29.07,19.99-39.35,7.08-5.98,14.66-10.74,24.5-11.09,5.6-.2,11.16-1.77,16.73-2.71,.64-.11,1.29-.23,1.94-.25,22.67-.54,45.35-1.28,68.02-1.48,6.71-.06,13.11,2.23,18.56,6.54,4.67,3.7,9.52,7.19,14.07,11.02,7.89,6.66,12.82,15.53,17.77,24.38,.93,1.66,2.45,2.99,3.35,4.65,.76,1.4,1.73,3.26,1.38,4.59-1.27,4.93-3.06,9.73-4.68,14.66h.03Z"/><path class="cls-1" d="M457.14,372.77c-3.67,3.6-7.65,6.24-5.71,11.23,2.22,5.7,7.62,3.94,12.72,4.59-2.12,3.83-1.59,7.24,.82,10.65,.57,.81-.3,3.55-1.34,4.44-11.5,9.8-23.16,19.4-35.03,29.28-.1-.06-.61-.68-1.15-.7-1.59-.06-3.58-.42-4.67,.37-.85,.61-.6,2.76-.85,4.22-.21,1.22,0,2.87-.71,3.58-9.39,9.39-18.89,18.67-28.44,27.9-.75,.72-2.04,1.25-3.08,1.24-7.78-.1-15.39-1.18-22.4-4.81-1.09-.56-2.06-1.67-2.67-2.77-6.99-12.61-14.16-25.2-16.53-39.7-1.73-10.54-2.74-21.34,.44-31.63,3.21-10.39,4.69-21.58,11.42-30.62,3.68-4.94,7.85-9.55,12.08-14.04,1.44-1.53,3.65-2.71,5.71-3.22,5.59-1.37,10.01,2.97,8.28,8.38-.98,3.07-3.36,5.71-5.19,8.48-.78,1.18-2.09,2.09-2.56,3.35-.39,1.04-.34,2.93,.33,3.5,.86,.73,2.68,1.02,3.81,.65,12.67-4.12,25.27-8.46,37.93-12.59,1.68-.55,3.64-.35,5.47-.35,2.66,0,3.39,1.38,2.71,3.89-1.91,7.08-.91,8.22,6.46,8.99,5.43,.57,10.84,1.48,16.18,2.6,1.91,.4,3.6,1.84,5.94,3.1h.03Zm-50.98,14.2c-.97,2.3-2.39,3.97-2.05,5.12,1.56,5.26,3.51,10.42,5.54,15.52,.89,2.25,2.8,2.48,4.95,1.51,2.15-.96,3.16-2.48,2.15-4.71-2.05-4.53-4.16-9.05-6.47-13.45-.66-1.25-2.11-2.09-4.12-4h0Z"/><path class="cls-1" d="M308.78,418.89c.27-8.92,3.17-15.03,11.52-17.25,5.24-1.39,11.89,2.99,12.43,8.34,1.43,14.25,8.05,26.61,14.34,39.04,3.13,6.17,6.67,12.19,10.56,17.91,1.83,2.69,4.77,4.74,7.47,6.71,4.72,3.44,6.62,7.92,6.02,13.14-10.68,1.4-21.14,3.03-31.67,3.98-2.99,.27-6.44-.96-9.2-2.41-6.74-3.54-13.27-7.5-19.72-11.55-1.91-1.2-3.13-3.45-4.96-4.83-4.5-3.39-9.84-5.94-13.6-9.98-3.69-3.97-5.21-9.92-8.8-14.02-6.51-7.42-7.88-16.65-10.41-25.47-1.28-4.47,.8-7.88,5.33-9.76,8.49-3.51,20.09-4.48,27.6,4.24,.6,.7,1.63,1.03,3.08,1.91h.01Zm-2.31,40.2c.94,2.85,5.37,6.96,7.4,6.24,1.38-.49,3.03-2.2,3.24-3.57,.48-3.18-3.98-8.77-6.06-7.82-1.91,.87-3.08,3.37-4.58,5.15h0Zm28.86,5.55c-.6-.02-1.19-.05-1.79-.07-1.11,1.66-3.11,3.34-3.07,4.96,.04,1.38,2.43,2.69,3.79,4.03,1.31-1.36,3.5-2.61,3.69-4.11,.19-1.47-1.66-3.19-2.62-4.81Zm-20.57-35.48c-1.64,2.12-3.48,3.47-3.39,4.68,.09,1.28,2.18,3.52,3.1,3.38,1.43-.22,3.33-1.93,3.65-3.32,.24-1.03-1.72-2.56-3.35-4.74h0Z"/><path class="cls-1" d="M269.5,543.83c-3.32,2.67-6.27,1.98-9.4,.38-3.05-1.57-2.73-3.95-2.3-6.68,2.1-13.29-5.15-25.38-19.26-32.54-10-5.08-20.1-3.66-30.71-.75-4.75-8.38-11.66-14.76-20.31-19.46-2.14-1.16-3.51-3.84-5.05-5.95-2.7-3.7-5.47-7.38-7.79-11.32-1.42-2.41-2.15-5.25-2.96-7.97-.17-.59,.49-1.71,1.08-2.19,2.04-1.64,4.22-3.1,5.88-4.3,10.16,4.69,20.3,7.99,31.07,8.55,3.77,.2,6.93,.96,9.84,3.12,5.71,4.23,11.34,8.56,17.09,12.72,10.3,7.45,20.68,14.79,30.98,22.23,3.38,2.44,6.63,5.06,9.61,7.35-2.69,5.9-5.49,12.15-8.37,18.35-2.84,6.13-2.99,12.17,.58,18.46h.02Z"/><path class="cls-1" d="M283.92,501.07c7.4-5.91,14.79-11.82,22.42-17.91,4.63,2.77,9.51,5.55,14.25,8.55,10.09,6.38,20.8,7.48,32.48,5.45,7.26-1.26,14.88-.56,22.34-.65,3.1-.04,4.76,1.76,6.29,4.44,5.82,10.17,2.8,19.29-2.87,28.17-1.12,1.77-2.7,3.24-3.87,4.98-7.01,10.53-17.44,13.47-29.2,12.57-3.73-.28-7.85-1.68-10.86-3.86-7.82-5.64-13.18-12.85-12.72-23.4,.36-8.21-4.07-13.91-11.45-17.29-8.68-3.97-17.43-5.95-26.3,.3-.17-.45-.34-.91-.51-1.36h0Z"/><path class="cls-1" d="M135.17,486.87c-7.56,5.36-9.25,12.85-9.8,21-.63,9.18-11.75,17.96-20.81,16.29-13.24-2.44-22.31-10.5-27.94-22.43-1.03-2.18-.71-5.14-.56-7.71,.28-4.85,.99-9.68,1.31-14.53,.19-2.92,1.39-4.94,3.98-6.29,1.5-.79,3.02-1.66,4.27-2.78,12.97-11.67,29.01-6.34,38.11,3.23,3.87,4.07,7.37,8.49,11.46,13.23h-.02Z"/><path class="cls-1" d="M175.31,535.82c-6.93-.06-13.28-1.78-18.6-6.45-5.44-4.78-10.82-9.61-16.28-14.37-2.32-2.02-2.96-4.28-2.3-7.38,.78-3.63,.26-7.38,3.2-10.58,6.08-6.61,14.05-9.15,22.3-9.12,15.03,.05,27.56,5.96,36.01,19.09,1.47,2.29,2.11,4.41,.95,6.99-.7,1.55-1.13,3.22-1.65,4.85-3.44,10.85-12.23,17.17-23.64,16.97h.01Z"/><path class="cls-1" d="M203.12,534.66c2.7-8.53,5.09-16.1,7.55-23.86,11.84-1.82,23.36-1.19,32.77,8.53,6.01,6.21,7.35,12.48,3.95,21.37-2.53,6.6-10.76,10.55-18.65,9.7-14.33-1.54-15.84-2.49-25.62-15.73h0Z"/><path class="cls-1" d="M295.18,506.43c9.28,.93,14.83,5.78,19.81,11.17,1.34,1.45,1.58,4.52,1.32,6.74-.63,5.45-1.5,10.92-2.91,16.22-1.5,5.61-9.02,13.25-16.07,12.04-.51-.09-1.06,0-1.57-.11-10.4-2.06-18.99-15.02-18.27-25.47,.55-7.98,4.39-13.32,10.26-17.59,2.39-1.74,5.65-2.3,7.43-2.99h0Z"/><path class="cls-1" d="M121.52,463.48c12.54-6.94,25.27-7.81,38.3-3.46,2.32,.78,4.4,3.26,5.86,5.45,3.02,4.51,5.55,9.35,8.37,14.22-5.82,0-12.02-.28-18.17,.11-3.75,.24-7.42,1.58-11.16,2.26-1,.18-2.53,.13-3.11-.48-3.05-3.21-5.61-6.95-8.87-9.91-3.27-2.98-7.16-5.27-11.23-8.18h0Z"/><path class="cls-1" d="M172.44,445.99c-1.13,.75-1.87,.99-2.19,1.49-3.6,5.66-7.9,4.63-13.26,2.39-4.08-1.7-8.95-1.45-13.42-2.3-1.47-.28-3.28-.9-4.14-1.99-7.05-8.86-7.49-14.61,.7-25.4,1.09-1.44,2.26-2.82,3.91-4.87,6.61,12.74,16.84,22.07,28.4,30.67h0Z"/><polygon class="cls-1" points="397.82 478.89 397.69 478.64 397.97 478.65 397.82 478.89"/><path class="cls-1" d="M399.9,477.73c-.38,.08-.76,.17-1.14,.25,.15-.29,.3-.59,.44-.88,.23,.21,.47,.42,.7,.63Z"/><path class="cls-5" d="M406.16,386.99c2.01,1.91,3.46,2.74,4.12,4,2.31,4.4,4.42,8.91,6.47,13.45,1.01,2.23,0,3.75-2.15,4.71s-4.05,.73-4.95-1.51c-2.03-5.11-3.98-10.26-5.54-15.52-.34-1.15,1.07-2.82,2.05-5.12h0Z"/><path class="cls-5" d="M306.47,459.1c1.5-1.78,2.67-4.27,4.58-5.15,2.08-.95,6.54,4.65,6.06,7.82-.21,1.37-1.86,3.08-3.24,3.57-2.03,.72-6.46-3.39-7.4-6.24h0Z"/><path class="cls-5" d="M335.33,464.65c.95,1.61,2.8,3.34,2.62,4.81-.19,1.5-2.38,2.75-3.69,4.11-1.35-1.34-3.75-2.65-3.79-4.03-.04-1.63,1.95-3.31,3.07-4.96,.6,.02,1.19,.05,1.79,.07Z"/><path class="cls-5" d="M314.76,429.17c1.63,2.17,3.59,3.71,3.35,4.74-.32,1.39-2.22,3.1-3.65,3.32-.91,.14-3.01-2.1-3.1-3.38-.09-1.21,1.75-2.55,3.39-4.68h0Z"/></g></svg>