<?xml version="1.0" encoding="utf-8"?>
<!-- Generator: Adobe Illustrator 27.0.1, SVG Export Plug-In . SVG Version: 6.00 Build 0)  -->
<svg version="1.1" id="Layer_1" xmlns="http://www.w3.org/2000/svg" xmlns:xlink="http://www.w3.org/1999/xlink" x="0px" y="0px"
	 viewBox="0 0 175 190" style="enable-background:new 0 0 175 190;" xml:space="preserve">
<style type="text/css">
	.st0{fill:#A5A49F;}
	.st1{fill:#FFFFFF;}
	.st2{fill:#524C4C;}
	.st3{fill:#828A43;}
	.st4{fill:#B3BD80;}
	.st5{fill:#677432;}
	.st6{fill:#7F7474;}
	.st7{enable-background:new    ;}
</style>
<g>
	<polygon class="st3" points="162.5,138.3 87.5,181.6 12.5,138.3 12.5,51.7 87.5,8.4 162.5,51.7 	"/>
	<g class="st7">
		<path class="st1" d="M71.7,72.7h-2.1v-4.4h-3v4.4h-2.1V62.5h2.1v4.1h3v-4.1h2.1V72.7z"/>
		<path class="st1" d="M73.1,68.7c0-1.1,0.3-2.1,0.8-2.7c0.5-0.7,1.3-1,2.3-1c1,0,1.7,0.3,2.3,1c0.5,0.7,0.8,1.6,0.8,2.7v0.5
			c0,1.2-0.3,2.1-0.8,2.7c-0.5,0.6-1.3,1-2.3,1c-1,0-1.7-0.3-2.3-1c-0.5-0.7-0.8-1.6-0.8-2.7V68.7z M75.1,69.2c0,1.4,0.4,2,1.1,2
			c0.7,0,1-0.6,1.1-1.7l0-0.8c0-0.7-0.1-1.2-0.3-1.5c-0.2-0.3-0.5-0.5-0.8-0.5c-0.3,0-0.6,0.2-0.8,0.5c-0.2,0.3-0.3,0.8-0.3,1.5
			V69.2z"/>
		<path class="st1" d="M84.2,72c-0.4,0.6-1,0.8-1.7,0.8c-0.7,0-1.2-0.2-1.6-0.7c-0.4-0.5-0.5-1.2-0.5-2.1v-4.9h2v5
			c0,0.7,0.3,1.1,0.7,1.1c0.5,0,0.8-0.2,1-0.6v-5.5h2v7.6h-1.9L84.2,72z"/>
		<path class="st1" d="M90.9,70.7c0-0.2-0.1-0.3-0.2-0.5c-0.2-0.1-0.5-0.3-1.1-0.6c-0.8-0.3-1.4-0.7-1.7-1c-0.3-0.4-0.5-0.8-0.5-1.3
			c0-0.7,0.2-1.2,0.7-1.6c0.5-0.4,1.1-0.6,1.9-0.6c0.8,0,1.5,0.2,2,0.6c0.5,0.4,0.8,1,0.8,1.7h-2c0-0.6-0.3-0.9-0.8-0.9
			c-0.2,0-0.4,0.1-0.5,0.2c-0.1,0.1-0.2,0.3-0.2,0.5c0,0.2,0.1,0.3,0.2,0.4c0.1,0.1,0.5,0.3,1.1,0.6c0.8,0.3,1.4,0.6,1.7,1
			c0.3,0.4,0.5,0.8,0.5,1.4c0,0.7-0.3,1.2-0.8,1.6c-0.5,0.4-1.2,0.6-2,0.6c-0.6,0-1-0.1-1.5-0.3c-0.4-0.2-0.8-0.5-1-0.9
			c-0.2-0.4-0.4-0.8-0.4-1.3h1.9c0,0.3,0.1,0.6,0.2,0.8c0.2,0.2,0.4,0.3,0.7,0.3C90.6,71.4,90.9,71.2,90.9,70.7z"/>
		<path class="st1" d="M94,63.2c0-0.3,0.1-0.6,0.3-0.8c0.2-0.2,0.5-0.3,0.8-0.3c0.3,0,0.6,0.1,0.8,0.3c0.2,0.2,0.3,0.4,0.3,0.8
			c0,0.3-0.1,0.6-0.3,0.8c-0.2,0.2-0.5,0.3-0.8,0.3c-0.3,0-0.6-0.1-0.8-0.3C94.1,63.7,94,63.5,94,63.2z M96.1,72.7h-2v-7.6h2V72.7z"
			/>
		<path class="st1" d="M99.5,65.1l0.1,0.8c0.4-0.6,1-0.9,1.8-0.9c1.3,0,2,0.9,2,2.7v5h-2v-4.8c0-0.4-0.1-0.7-0.2-0.9
			c-0.1-0.2-0.4-0.3-0.7-0.3c-0.4,0-0.6,0.2-0.8,0.6v5.5h-2v-7.6H99.5z"/>
		<path class="st1" d="M104.5,68.7c0-1.2,0.2-2.2,0.7-2.8c0.4-0.6,1.1-0.9,1.9-0.9c0.7,0,1.2,0.3,1.6,0.8l0.1-0.7h1.8v7.6
			c0,1-0.3,1.7-0.8,2.2c-0.5,0.5-1.3,0.8-2.3,0.8c-0.4,0-0.9-0.1-1.3-0.2c-0.5-0.2-0.8-0.4-1-0.6l0.7-1.4c0.2,0.2,0.4,0.4,0.7,0.5
			c0.3,0.1,0.6,0.2,0.8,0.2c0.4,0,0.8-0.1,1-0.3c0.2-0.2,0.3-0.6,0.3-1v-0.7c-0.4,0.5-0.9,0.7-1.5,0.7c-0.8,0-1.4-0.3-1.9-0.9
			c-0.4-0.6-0.7-1.5-0.7-2.7V68.7z M106.5,69.2c0,0.7,0.1,1.2,0.3,1.5c0.2,0.3,0.5,0.5,0.9,0.5c0.4,0,0.7-0.1,0.9-0.4v-3.6
			c-0.2-0.3-0.5-0.5-0.9-0.5c-0.4,0-0.7,0.2-0.9,0.5c-0.2,0.3-0.3,0.8-0.3,1.6V69.2z"/>
	</g>
	<g class="st7">
		<path class="st1" d="M69,106.9h-0.9v-3.1h-2.7v3.1h-0.9v-6.8h0.9v2.9h2.7v-2.9H69V106.9z"/>
		<path class="st1" d="M70.2,104.1c0-0.7,0.2-1.3,0.5-1.7c0.4-0.4,0.8-0.6,1.4-0.6c0.6,0,1.1,0.2,1.4,0.6c0.4,0.4,0.5,1,0.5,1.7v0.5
			c0,0.7-0.2,1.3-0.5,1.7c-0.4,0.4-0.8,0.6-1.4,0.6c-0.6,0-1.1-0.2-1.4-0.6c-0.4-0.4-0.5-1-0.5-1.7V104.1z M71,104.6
			c0,0.5,0.1,0.9,0.3,1.2c0.2,0.3,0.5,0.4,0.8,0.4c0.7,0,1.1-0.5,1.1-1.6v-0.6c0-0.5-0.1-0.9-0.3-1.2c-0.2-0.3-0.5-0.5-0.8-0.5
			c-0.3,0-0.6,0.2-0.8,0.5c-0.2,0.3-0.3,0.7-0.3,1.2V104.6z"/>
		<path class="st1" d="M77.7,106.5c-0.3,0.4-0.7,0.5-1.2,0.5c-0.5,0-0.8-0.2-1-0.5s-0.4-0.8-0.4-1.4v-3.3H76v3.2
			c0,0.8,0.2,1.2,0.7,1.2c0.5,0,0.8-0.2,1-0.7v-3.7h0.8v5.1h-0.8L77.7,106.5z"/>
		<path class="st1" d="M82.2,105.6c0-0.2-0.1-0.3-0.2-0.5c-0.1-0.1-0.4-0.3-0.8-0.4c-0.4-0.2-0.8-0.3-0.9-0.5
			c-0.2-0.1-0.3-0.3-0.4-0.4c-0.1-0.2-0.1-0.4-0.1-0.6c0-0.4,0.2-0.8,0.5-1c0.3-0.3,0.7-0.4,1.2-0.4c0.5,0,0.9,0.1,1.2,0.4
			c0.3,0.3,0.4,0.7,0.4,1.1h-0.8c0-0.2-0.1-0.4-0.2-0.6c-0.2-0.2-0.3-0.2-0.6-0.2c-0.2,0-0.4,0.1-0.6,0.2c-0.1,0.1-0.2,0.3-0.2,0.5
			c0,0.2,0.1,0.3,0.2,0.4c0.1,0.1,0.3,0.2,0.7,0.4c0.6,0.2,1,0.5,1.3,0.7c0.2,0.2,0.3,0.5,0.3,0.9c0,0.4-0.2,0.8-0.5,1.1
			c-0.3,0.3-0.7,0.4-1.2,0.4c-0.5,0-1-0.2-1.3-0.5c-0.3-0.3-0.5-0.7-0.5-1.2h0.8c0,0.3,0.1,0.5,0.3,0.7c0.2,0.2,0.4,0.2,0.7,0.2
			c0.3,0,0.5-0.1,0.6-0.2C82.2,106,82.2,105.8,82.2,105.6z"/>
		<path class="st1" d="M85.1,100.5c0,0.1,0,0.3-0.1,0.4c-0.1,0.1-0.2,0.1-0.4,0.1c-0.2,0-0.3,0-0.4-0.1c-0.1-0.1-0.1-0.2-0.1-0.4
			c0-0.1,0-0.3,0.1-0.4c0.1-0.1,0.2-0.1,0.4-0.1c0.2,0,0.3,0,0.4,0.1C85.1,100.2,85.1,100.4,85.1,100.5z M85,106.9h-0.8v-5.1H85
			V106.9z"/>
		<path class="st1" d="M87.1,101.8l0,0.5c0.3-0.4,0.7-0.6,1.2-0.6c0.9,0,1.3,0.6,1.4,1.8v3.4h-0.8v-3.3c0-0.4-0.1-0.7-0.2-0.8
			c-0.1-0.2-0.3-0.2-0.6-0.2c-0.2,0-0.4,0.1-0.6,0.2c-0.2,0.1-0.3,0.3-0.4,0.5v3.7h-0.8v-5.1H87.1z"/>
		<path class="st1" d="M90.8,104.1c0-0.8,0.1-1.4,0.4-1.8c0.3-0.4,0.7-0.6,1.3-0.6c0.5,0,0.9,0.2,1.2,0.7l0-0.6h0.7v5.1
			c0,0.6-0.2,1.1-0.5,1.4c-0.3,0.3-0.8,0.5-1.3,0.5c-0.2,0-0.5-0.1-0.8-0.2c-0.3-0.1-0.5-0.3-0.7-0.5l0.3-0.6
			c0.3,0.3,0.7,0.5,1.1,0.5c0.7,0,1-0.4,1.1-1.1v-0.7c-0.3,0.4-0.6,0.6-1.1,0.6c-0.5,0-0.9-0.2-1.2-0.6c-0.3-0.4-0.4-1-0.5-1.7
			V104.1z M91.6,104.6c0,0.6,0.1,1,0.2,1.2c0.2,0.3,0.4,0.4,0.8,0.4c0.4,0,0.7-0.2,0.9-0.6v-2.5c-0.2-0.4-0.5-0.6-0.9-0.6
			c-0.4,0-0.7,0.1-0.8,0.4c-0.2,0.3-0.3,0.7-0.3,1.2V104.6z"/>
		<path class="st1" d="M100.5,106.9c0-0.1-0.1-0.3-0.1-0.6c-0.3,0.4-0.7,0.6-1.1,0.6c-0.5,0-0.8-0.1-1.1-0.4s-0.4-0.6-0.4-1.1
			c0-0.5,0.2-0.9,0.5-1.2c0.3-0.3,0.8-0.5,1.4-0.5h0.6v-0.5c0-0.3-0.1-0.5-0.2-0.6c-0.1-0.1-0.3-0.2-0.6-0.2c-0.2,0-0.5,0.1-0.6,0.2
			c-0.2,0.1-0.2,0.3-0.2,0.6h-0.8c0-0.3,0.1-0.5,0.2-0.7c0.2-0.2,0.4-0.4,0.6-0.6c0.3-0.1,0.5-0.2,0.9-0.2c0.5,0,0.9,0.1,1.2,0.4
			c0.3,0.3,0.4,0.6,0.4,1.1v2.6c0,0.4,0.1,0.7,0.2,1v0.1H100.5z M99.4,106.2c0.2,0,0.4-0.1,0.6-0.2c0.2-0.1,0.3-0.3,0.4-0.4v-1.2
			h-0.5c-0.4,0-0.7,0.1-0.9,0.3c-0.2,0.2-0.3,0.4-0.3,0.7c0,0.3,0.1,0.5,0.2,0.6C98.9,106.2,99.1,106.2,99.4,106.2z"/>
		<path class="st1" d="M103.2,101.8l0,0.5c0.3-0.4,0.7-0.6,1.2-0.6c0.9,0,1.3,0.6,1.4,1.8v3.4H105v-3.3c0-0.4-0.1-0.7-0.2-0.8
			c-0.1-0.2-0.3-0.2-0.6-0.2c-0.2,0-0.4,0.1-0.6,0.2c-0.2,0.1-0.3,0.3-0.4,0.5v3.7h-0.8v-5.1H103.2z"/>
		<path class="st1" d="M106.9,104.1c0-0.8,0.1-1.4,0.4-1.8c0.3-0.4,0.7-0.6,1.3-0.6c0.5,0,0.9,0.2,1.1,0.6v-2.6h0.8v7.2h-0.8l0-0.5
			c-0.3,0.4-0.7,0.6-1.2,0.6c-0.5,0-0.9-0.2-1.2-0.6c-0.3-0.4-0.4-1-0.5-1.7V104.1z M107.7,104.6c0,0.6,0.1,1,0.3,1.2
			c0.2,0.3,0.4,0.4,0.8,0.4c0.4,0,0.7-0.2,0.9-0.6v-2.5c-0.2-0.4-0.5-0.6-0.9-0.6c-0.4,0-0.7,0.1-0.8,0.4c-0.2,0.3-0.3,0.7-0.3,1.2
			V104.6z"/>
	</g>
	<g class="st7">
		<path class="st1" d="M45.3,116.2c0,0.7-0.2,1.3-0.6,1.7c-0.4,0.4-0.9,0.6-1.6,0.6c-0.7,0-1.2-0.3-1.6-0.8
			c-0.4-0.5-0.6-1.2-0.6-2.1v-1.2c0-0.9,0.2-1.6,0.6-2.1c0.4-0.5,1-0.8,1.7-0.8c0.7,0,1.2,0.2,1.5,0.6c0.4,0.4,0.6,1,0.6,1.7h-0.9
			c0-0.6-0.2-1-0.4-1.2s-0.5-0.4-0.9-0.4c-0.5,0-0.8,0.2-1.1,0.5c-0.2,0.4-0.4,0.9-0.4,1.6v1.2c0,0.7,0.1,1.2,0.3,1.6
			c0.2,0.4,0.6,0.6,1,0.6c0.4,0,0.8-0.1,1-0.3s0.3-0.6,0.4-1.2H45.3z"/>
		<path class="st1" d="M46.1,115.6c0-0.7,0.2-1.3,0.5-1.7c0.4-0.4,0.8-0.6,1.4-0.6c0.6,0,1.1,0.2,1.4,0.6c0.4,0.4,0.5,1,0.5,1.7v0.5
			c0,0.7-0.2,1.3-0.5,1.7c-0.4,0.4-0.8,0.6-1.4,0.6c-0.6,0-1.1-0.2-1.4-0.6c-0.4-0.4-0.5-1-0.5-1.7V115.6z M47,116.1
			c0,0.5,0.1,0.9,0.3,1.2c0.2,0.3,0.5,0.4,0.8,0.4c0.7,0,1.1-0.5,1.1-1.6v-0.6c0-0.5-0.1-0.9-0.3-1.2c-0.2-0.3-0.5-0.5-0.8-0.5
			c-0.3,0-0.6,0.2-0.8,0.5c-0.2,0.3-0.3,0.7-0.3,1.2V116.1z"/>
		<path class="st1" d="M51.9,113.3l0,0.5c0.3-0.4,0.7-0.6,1.2-0.6c0.6,0,1,0.2,1.2,0.7c0.3-0.5,0.8-0.7,1.3-0.7
			c0.9,0,1.4,0.6,1.4,1.7v3.4h-0.8v-3.3c0-0.4-0.1-0.6-0.2-0.8c-0.1-0.2-0.4-0.3-0.7-0.3c-0.2,0-0.5,0.1-0.6,0.3
			c-0.2,0.2-0.2,0.4-0.3,0.7v3.4h-0.8V115c0-0.7-0.3-1.1-0.9-1.1c-0.4,0-0.7,0.2-0.9,0.6v3.8h-0.8v-5.1H51.9z"/>
		<path class="st1" d="M59.1,113.3l0,0.5c0.3-0.4,0.7-0.6,1.2-0.6c0.6,0,1,0.2,1.2,0.7c0.3-0.5,0.8-0.7,1.3-0.7
			c0.9,0,1.4,0.6,1.4,1.7v3.4h-0.8v-3.3c0-0.4-0.1-0.6-0.2-0.8c-0.1-0.2-0.4-0.3-0.7-0.3c-0.2,0-0.5,0.1-0.6,0.3
			c-0.2,0.2-0.2,0.4-0.3,0.7v3.4h-0.8V115c0-0.7-0.3-1.1-0.9-1.1c-0.4,0-0.7,0.2-0.9,0.6v3.8h-0.8v-5.1H59.1z"/>
		<path class="st1" d="M68.1,117.9c-0.3,0.4-0.7,0.5-1.2,0.5c-0.5,0-0.8-0.2-1-0.5c-0.2-0.3-0.4-0.8-0.4-1.4v-3.3h0.8v3.2
			c0,0.8,0.2,1.2,0.7,1.2c0.5,0,0.8-0.2,1-0.7v-3.7h0.8v5.1h-0.8L68.1,117.9z"/>
		<path class="st1" d="M70.9,113.3l0,0.5c0.3-0.4,0.7-0.6,1.2-0.6c0.9,0,1.3,0.6,1.4,1.8v3.4h-0.8v-3.3c0-0.4-0.1-0.7-0.2-0.8
			c-0.1-0.2-0.3-0.2-0.6-0.2c-0.2,0-0.4,0.1-0.6,0.2c-0.2,0.1-0.3,0.3-0.4,0.5v3.7h-0.8v-5.1H70.9z"/>
		<path class="st1" d="M75.8,112c0,0.1,0,0.3-0.1,0.4c-0.1,0.1-0.2,0.1-0.4,0.1c-0.2,0-0.3,0-0.4-0.1c-0.1-0.1-0.1-0.2-0.1-0.4
			c0-0.1,0-0.3,0.1-0.4c0.1-0.1,0.2-0.1,0.4-0.1c0.2,0,0.3,0,0.4,0.1C75.7,111.7,75.8,111.9,75.8,112z M75.7,118.4h-0.8v-5.1h0.8
			V118.4z"/>
		<path class="st1" d="M78.1,112.1v1.2h0.8v0.7h-0.8v3.1c0,0.2,0,0.4,0.1,0.5c0.1,0.1,0.2,0.2,0.3,0.2c0.1,0,0.2,0,0.3-0.1l0,0.7
			c-0.2,0.1-0.4,0.1-0.6,0.1c-0.3,0-0.6-0.1-0.7-0.4s-0.3-0.6-0.3-1V114h-0.8v-0.7h0.8v-1.2H78.1z"/>
		<path class="st1" d="M81.2,117l0.9-3.7H83l-1.7,5.8c-0.1,0.4-0.3,0.8-0.5,1c-0.2,0.2-0.5,0.3-0.8,0.3c-0.1,0-0.3,0-0.4-0.1v-0.7
			l0.2,0c0.2,0,0.4-0.1,0.6-0.2c0.1-0.1,0.2-0.3,0.3-0.6l0.2-0.6l-1.5-5h0.9L81.2,117z"/>
		<path class="st1" d="M86.1,118.4v-6.8h1.6c0.8,0,1.4,0.2,1.9,0.7c0.4,0.5,0.7,1.2,0.7,2.1v1.1c0,0.9-0.2,1.6-0.7,2.1
			c-0.4,0.5-1.1,0.7-1.9,0.7H86.1z M87,112.3v5.3h0.7c0.6,0,1-0.2,1.3-0.5c0.3-0.3,0.4-0.9,0.4-1.5v-1.2c0-0.7-0.1-1.2-0.4-1.6
			c-0.3-0.3-0.7-0.5-1.3-0.5H87z"/>
	</g>
	<g class="st7">
		<path class="st1" d="M93.3,118.5c-0.6,0-1.1-0.2-1.4-0.6c-0.3-0.4-0.5-0.9-0.5-1.7v-0.6c0-0.8,0.2-1.3,0.5-1.8
			c0.3-0.4,0.8-0.6,1.4-0.6c0.6,0,1,0.2,1.3,0.6c0.3,0.4,0.4,1,0.4,1.8v0.5h-2.8v0.1c0,0.5,0.1,0.9,0.3,1.2c0.2,0.2,0.5,0.4,0.9,0.4
			c0.2,0,0.5,0,0.6-0.1c0.2-0.1,0.4-0.2,0.5-0.4l0.4,0.5C94.6,118.2,94,118.5,93.3,118.5z M93.2,114c-0.3,0-0.6,0.1-0.8,0.4
			c-0.2,0.2-0.3,0.6-0.3,1.1h2v-0.1c0-0.5-0.1-0.8-0.3-1C93.7,114.1,93.5,114,93.2,114z"/>
	</g>
	<g class="st7">
		<path class="st1" d="M97.3,117.1l1-3.8h0.8l-1.5,5.1H97l-1.5-5.1h0.8L97.3,117.1z"/>
		<path class="st1" d="M101.8,118.5c-0.6,0-1.1-0.2-1.5-0.6c-0.3-0.4-0.5-0.9-0.5-1.7v-0.6c0-0.8,0.2-1.3,0.5-1.8
			c0.3-0.4,0.8-0.6,1.4-0.6c0.6,0,1,0.2,1.3,0.6c0.3,0.4,0.4,1,0.4,1.8v0.5h-2.8v0.1c0,0.5,0.1,0.9,0.3,1.2c0.2,0.2,0.5,0.4,0.9,0.4
			c0.2,0,0.5,0,0.6-0.1c0.2-0.1,0.4-0.2,0.5-0.4l0.4,0.5C103.1,118.2,102.5,118.5,101.8,118.5z M101.7,114c-0.3,0-0.6,0.1-0.8,0.4
			c-0.2,0.2-0.3,0.6-0.3,1.1h2v-0.1c0-0.5-0.1-0.8-0.3-1C102.2,114.1,102,114,101.7,114z"/>
		<path class="st1" d="M105.4,118.4h-0.8v-7.2h0.8V118.4z"/>
		<path class="st1" d="M106.5,115.6c0-0.7,0.2-1.3,0.5-1.7c0.4-0.4,0.8-0.6,1.4-0.6c0.6,0,1.1,0.2,1.4,0.6c0.4,0.4,0.5,1,0.5,1.7
			v0.5c0,0.7-0.2,1.3-0.5,1.7c-0.4,0.4-0.8,0.6-1.4,0.6c-0.6,0-1.1-0.2-1.4-0.6c-0.4-0.4-0.5-1-0.5-1.7V115.6z M107.3,116.1
			c0,0.5,0.1,0.9,0.3,1.2c0.2,0.3,0.5,0.4,0.8,0.4c0.7,0,1.1-0.5,1.1-1.6v-0.6c0-0.5-0.1-0.9-0.3-1.2c-0.2-0.3-0.5-0.5-0.8-0.5
			c-0.3,0-0.6,0.2-0.8,0.5c-0.2,0.3-0.3,0.7-0.3,1.2V116.1z"/>
		<path class="st1" d="M115.1,116.1c0,0.8-0.1,1.4-0.4,1.8c-0.3,0.4-0.7,0.6-1.2,0.6c-0.5,0-0.9-0.2-1.2-0.6v2.4h-0.8v-7h0.7l0,0.6
			c0.3-0.4,0.7-0.7,1.2-0.7c0.6,0,1,0.2,1.2,0.6c0.3,0.4,0.4,1,0.4,1.7V116.1z M114.3,115.6c0-0.6-0.1-1-0.3-1.3
			c-0.2-0.3-0.5-0.4-0.8-0.4c-0.4,0-0.7,0.2-0.9,0.6v2.6c0.2,0.4,0.5,0.6,0.9,0.6c0.4,0,0.6-0.1,0.8-0.4c0.2-0.3,0.3-0.7,0.3-1.2
			V115.6z"/>
		<path class="st1" d="M117,113.3l0,0.5c0.3-0.4,0.7-0.6,1.2-0.6c0.6,0,1,0.2,1.2,0.7c0.3-0.5,0.8-0.7,1.3-0.7
			c0.9,0,1.4,0.6,1.4,1.7v3.4h-0.8v-3.3c0-0.4-0.1-0.6-0.2-0.8c-0.1-0.2-0.4-0.3-0.7-0.3c-0.2,0-0.5,0.1-0.6,0.3
			c-0.2,0.2-0.2,0.4-0.3,0.7v3.4h-0.8V115c0-0.7-0.3-1.1-0.9-1.1c-0.4,0-0.7,0.2-0.9,0.6v3.8h-0.8v-5.1H117z"/>
		<path class="st1" d="M125.2,118.5c-0.6,0-1.1-0.2-1.5-0.6c-0.3-0.4-0.5-0.9-0.5-1.7v-0.6c0-0.8,0.2-1.3,0.5-1.8
			c0.3-0.4,0.8-0.6,1.4-0.6c0.6,0,1,0.2,1.3,0.6c0.3,0.4,0.4,1,0.4,1.8v0.5h-2.8v0.1c0,0.5,0.1,0.9,0.3,1.2c0.2,0.2,0.5,0.4,0.9,0.4
			c0.2,0,0.5,0,0.6-0.1c0.2-0.1,0.4-0.2,0.5-0.4l0.4,0.5C126.5,118.2,125.9,118.5,125.2,118.5z M125.1,114c-0.3,0-0.6,0.1-0.8,0.4
			c-0.2,0.2-0.3,0.6-0.3,1.1h2v-0.1c0-0.5-0.1-0.8-0.3-1C125.6,114.1,125.4,114,125.1,114z"/>
		<path class="st1" d="M128.7,113.3l0,0.5c0.3-0.4,0.7-0.6,1.2-0.6c0.9,0,1.3,0.6,1.4,1.8v3.4h-0.8v-3.3c0-0.4-0.1-0.7-0.2-0.8
			c-0.1-0.2-0.3-0.2-0.6-0.2c-0.2,0-0.4,0.1-0.6,0.2c-0.2,0.1-0.3,0.3-0.4,0.5v3.7h-0.8v-5.1H128.7z"/>
		<path class="st1" d="M133.6,112.1v1.2h0.8v0.7h-0.8v3.1c0,0.2,0,0.4,0.1,0.5c0.1,0.1,0.2,0.2,0.3,0.2c0.1,0,0.2,0,0.3-0.1l0,0.7
			c-0.2,0.1-0.4,0.1-0.6,0.1c-0.3,0-0.6-0.1-0.7-0.4s-0.3-0.6-0.3-1V114H132v-0.7h0.8v-1.2H133.6z"/>
	</g>
</g>
</svg>
