<?xml version="1.0" encoding="utf-8"?>
<!-- Generator: Adobe Illustrator 27.0.1, SVG Export Plug-In . SVG Version: 6.00 Build 0)  -->
<svg version="1.1" id="Layer_1" xmlns="http://www.w3.org/2000/svg" xmlns:xlink="http://www.w3.org/1999/xlink" x="0px" y="0px"
	 viewBox="0 0 225 225" style="enable-background:new 0 0 225 225;" xml:space="preserve">
<style type="text/css">
	.st0{fill:#828A43;}
	.st1{fill:#FFFFFF;}
	.st2{fill:#A5A49F;}
	.st3{fill:#524C4C;}
	.st4{fill:#B3BD80;}
	.st5{fill:#677432;}
	.st6{fill:#7F7474;}
	.st7{enable-background:new    ;}
</style>
<g>
	<polygon class="st2" points="203.6,165.1 112.5,217.7 21.4,165.1 21.4,59.9 112.5,7.3 203.6,59.9 	"/>
	<g>
		<path class="st3" d="M106.6,163c-0.3,1.1-0.4,2.1-0.8,3c-1.6,3.2-6.2,4.4-9.3,2.2c-1.4-1-2.7-2.2-3.8-3.1c-1,0.4-2,1.1-3,1.1
			c-1,0-2-0.7-3.2-1.1c-2.2,2.8-5.3,3.6-9,3c-3.9-0.6-5.9-3-7.1-6.4c-0.1,0-0.2-0.1-0.3,0c-2.7,2.3-5.9,2.8-9.2,2
			c-1.3-0.3-2.7-0.9-3.7-1.7c-2.2-1.7-4.1-3.7-6.2-5.5c-0.8,0.7-1.7,1.6-2.7,2.3c-2.9,2.1-6,2.1-9,0.5c-2.9-1.6-5.8-3.4-7.1-6.7
			c-0.4-1.1-0.7-2.3-0.7-3.4c0-1.8,0.3-3.5,0.5-5.3c0.2-1.4,0.8-2.6,2.1-3.6c-0.9-0.3-1.7-0.7-2.5-0.9c-7.3-2.6-12.7-7.4-16.6-14.1
			c-1.6-2.7-2.1-5.7-2.4-8.7c-0.8-6.8-0.2-13.4,2.2-19.9c0.1-0.2,0.2-0.4,0.2-0.5c1-2.1,2-2.7,4.3-2.3c2.2,0.4,4.5,0.7,6.7,0.9
			c0.6,0.1,1.4-0.2,2-0.5c0.9-0.4,1.6-1,2.4-1.6c2.3-1.5,4.6-3,6.9-4.6c3.2-2.2,6.9-3.1,10.7-3.3c7.6-0.5,15,0.8,22,3.8
			c4.5,1.9,8.3,4.7,11.2,8.7c0.1,0.2,0.4,0.4,0.6,0.4c4.4,0.3,8.8,0.5,13.3,0.7c0.7,0,1.4,0,1.8,0c2-5.2,4-10.2,6-15.2
			c0.7-1.7,1.8-3.3,2.7-5c0.7-1.2,1.6-2.4,2.2-3.7c1.3-3.2,3.9-4.2,7-4.1c5.7,0.2,11.3,1,16.5,3.2c10.1,4.3,20.5,7.1,31.4,8.4
			c10.1,1.2,20.2,1.2,30.3,1.1c4.5-0.1,9.1-0.8,13.6-1.2c3.6-0.3,7,0.2,10.2,1.8c0.9,0.4,1.2,1,1,2c-1.5,7.8-2.9,15.5-4.3,23.3
			c-0.2,1-0.1,2-0.1,3c0.2,4.2,0.5,8.5-1.3,12.5c-0.5,1-1,2.1-1.7,3c-3.1,3.8-6,7.7-9.4,11.1c-4,4.1-8.3,8-12.7,11.6
			c-6.1,5-12.4,9.8-18.8,14.4c-2,1.5-4.4,2.5-6.7,3.5c-3.8,1.6-7.7,3.2-11.6,4.6c-3.8,1.3-7.6,2.2-11.7,1.2c-4-0.9-8.3-1-12.3-2
			c-4.7-1.2-9.2-3-13.7-4.6c-0.8-0.3-1.6-0.4-2.3-0.8c-1.2-0.7-2.3-1.5-3.4-2.3C107.3,163.9,107,163.5,106.6,163L106.6,163z
			 M129.6,143.8c0.3-0.1,0.6-0.3,0.8-0.4c5.3-2.9,10.5-6,15.9-8.8c9.5-5,19.6-8.8,28.3-15.2c0.4-0.3,1.4-0.1,1.8,0.2
			c0.7,0.5,0.6,1.4,0,1.9c-0.7,0.7-1.5,1.4-2.4,2c-5.4,3.7-11,6.9-16.9,9.6c-6.1,2.8-12.3,5.5-18.3,8.6c-4.3,2.3-8.2,5.3-12.3,7.9
			c2.9,5.3-0.1,12.8-7,16.7c2.6,0.6,5.2,1.1,7.7,1.6c5.2,1.1,10.6,1.6,15.7,3.4c0.4,0.1,0.9,0,1.3-0.1c5.6-2.2,11.2-4.4,16.7-6.7
			c2.2-0.9,4.4-1.9,6.2-3.3c6.4-4.8,12.7-9.7,18.9-14.7c4.3-3.6,8.4-7.4,12.4-11.3c3.2-3.3,6-6.9,8.9-10.5c0.6-0.7,0.9-1.5,1.3-2.3
			c1.4-3.2,1.2-6.6,1.3-9.9c0.1-1.8,0.2-3.7,0.5-5.5c0.4-2.3,1.1-4.7,1.7-7c0.6-2.4,1.1-4.8,1.9-7.1c0.5-1.4,1.2-2.7,1.2-4.3
			c0-2.3,0-2.4-2.3-2.9c-0.1,0-0.2,0-0.3-0.1c-3.5-0.9-7,0-10.5,0.2c-4,0.2-7.9,0.9-11.9,1c-4.1,0.1-8.2-0.3-12.3-0.2
			c-6.6,0-13.2-0.9-19.7-2c-7.2-1.3-14.5-2.6-21.2-5.7c-2.1-1-4.4-1.7-6.7-2.5c-2,4.9-4,9.7-5.9,14.5c-0.7,1.7-1.3,3.4-2,5
			c-0.4,0.8-0.9,1.5-1.5,2.2c-0.2,0.3-0.9,0.4-1.2,0.2c-0.2-0.1-0.3-0.7-0.3-1.1c0-0.5,0.2-0.9,0.3-1.4c1.1-6,2.5-12,4.9-17.6
			c0.5-1.1,0.8-2.3,1.3-3.8c-3.8-0.4-7.4-0.9-11-1.2c-1.8-0.1-3.3,0.6-4,2.4c-0.5,1.2-1.3,2.3-2,3.5c-1.1,2-2.3,4-3.3,6.1
			c-1.8,4.2-3.5,8.5-5.3,12.7c-0.4,0.8-0.2,1.2,0.7,1.6c4.3,2.1,7.9,5.1,10.8,9c0.9,1.2,1.9,2.2,2.7,3.2c0.4-1.2,0.7-2.4,1.3-3.4
			c1.7-2.7,4-4.8,6.8-6.2c1.6-0.8,3.4-0.4,4.7,0.8c0.2,0.2,0.4,0.5,0.7,0.9c2.4-2,4.7-3.9,7.1-5.8c2.5-2.1,5.3-4,8.6-4.1
			c6.4-0.2,12.2,1.9,17.5,5.3c0.2,0.1,0.4,0.3,0.5,0.4c2,1.6,3.1,3.8,3.3,6.4c0.1,1.6,0,3.1,0,4.9c1.8-1,3.4-1.8,5-2.9
			c1.5-0.9,2.9-2,4.2-3.1c1-0.9,1.8-1.8,3.3-1.5c0.4,0.1,0.9,0.1,1,0.4c0.2,0.3,0.1,0.8-0.1,1.1c-0.5,0.8-1.1,1.5-1.7,2.2
			c-3.4,4.2-8.3,6.2-12.7,8.8c-5,3-10.4,5.4-14.6,9.7c-1,1.1-2,2.2-3.2,3.2c-2.5,2.1-5.1,4.2-7.5,6.3c-3.2,2.7-6.3,5.5-9.4,8.2
			c0,0.1-0.1,0.2-0.1,0.3C129.4,143.9,129.5,143.9,129.6,143.8L129.6,143.8z M76.3,99c-1.3-2.2-2.8-3.8-5-4.7
			c-0.5-0.2-1-0.6-1.5-0.9c-4.7-3.2-10.1-4.5-15.7-4.9c-4.9-0.4-9.5,0.7-13.9,2.9c-4.5,2.3-9.2,4.4-10.9,9.8
			c-0.3,0.8-1.1,0.8-1.6,0.1c-0.4-0.5-0.7-1.1-1-1.7c-0.5-0.8-1-1.3-2-1.5c-2.2-0.4-4.4-1-6.5-1.6c-0.9-0.3-1.2-0.1-1.5,0.8
			c-1.8,6-2.4,12.1-1.8,18.3c0.6,6.7,4.1,11.7,9,16c3.4,3,7.4,4.6,11.7,5.9c1.1,0.4,2.3,0.8,3.4,0.9c1.6,0.2,3.2,0.1,4.8,0
			c0.4,0,0.9-0.2,1.3-0.4c1.3-0.6,2.5-1.4,3.7-2c0.8-0.4,1.8-0.5,2.7-0.7c-0.4-0.5-0.7-0.8-1-1.2c-1.7-2-1.6-4.2-0.4-6.4
			c0.5-0.9,1.3-1.5,1.9-2.3c0.6-0.7,1.4-1.2,1-2.4c-0.1-0.4,0.2-1,0.3-1.5c0.3-0.8,0.7-1.5,1-2.3c0.5-1.8,1.1-3.7,1.5-5.6
			c0.6-3.1,2.7-5.3,4.5-7.6c2.3-2.8,5.3-4.7,8.5-6.1C71.1,99.1,73.5,98.5,76.3,99L76.3,99z M111.2,121c0.5-1.4,1-2.9,1.4-4.3
			c0.1-0.4-0.2-0.9-0.4-1.3c-0.3-0.5-0.7-0.9-1-1.4c-1.5-2.6-2.9-5.2-5.2-7.1c-1.3-1.1-2.8-2.1-4.1-3.2c-1.6-1.3-3.5-1.9-5.4-1.9
			c-6.6,0.1-13.3,0.3-19.9,0.4c-0.2,0-0.4,0-0.6,0.1c-1.6,0.3-3.3,0.7-4.9,0.8c-2.9,0.1-5.1,1.5-7.2,3.3c-3.6,3-4.7,7.3-5.9,11.5
			c-0.3,1.2-0.7,2.4-0.8,3.6c-0.1,0.9-0.2,2,0.1,2.8c0.5,1.1,1.5,2,2.3,2.9c1.2,1.3,2.4,2.6,3.8,3.7c1.3,1.2,2.8,2.2,4.2,3.3
			c0.4,0.3,0.9,0.7,1.3,0.8c1.5,0.2,3,0.4,4.5,0.5c1.9,0.1,3.5,0.7,4.9,2c1.5,1.4,3.2,2.5,4.9,3.6c1.2,0.8,2.4,1.5,3.7,2.1
			c0.4,0.2,0.8,0.9,1.6,0.2c1.3-1.1,2.8-1.9,4.2-2.9c0.8-0.5,1.5-1,2.2-1.4c-1.5-1.8-3-3.2-4-4.9c-1.3-2.3-2.3-4.8-3.4-7.2
			c-0.1-0.3-0.4-0.7-0.8-0.8c-2.1-0.9-4.1-2-6.5-2c-0.6,0-1.3-0.6-1.9-0.9c0-0.2,0.1-0.3,0.1-0.5c2.4-1.1,4.7,0.1,7.1,0.3
			c-0.9-1-1.8-1.9-2.8-2.7c-0.4-0.4-1.1-0.6-1.6-0.7c-1.2-0.4-2.5-0.7-4.1-1.1c0.8-0.6,1.2-1.1,1.7-1.2c3-0.4,5.6,0.4,7.7,2.7
			c0.1-0.3,0.2-0.4,0.1-0.5c-0.6-1.6-1.2-3.2-1.7-4.9c-0.2-0.7-0.3-1.5,0.9-2.1c1.5,3.6,3.1,7.1,4.7,10.7c0.4-0.2,0.5-0.2,0.7-0.3
			c2.7-1.8,5.6-2.1,8.5-0.9c0.9,0.4,1.4,0.2,1.8-0.6c0.6-1.2,1.5-1.8,2.6-2.2c1.6-0.7,3.2-1.1,4.9,0.1
			C109.7,120.1,110.4,120.5,111.2,121L111.2,121z M146.4,113.1c-0.7-0.4-1.2-0.8-1.7-0.9c-1.6-0.3-3.2-0.6-4.7-0.8
			c-2.2-0.2-2.5-0.6-1.9-2.6c0.2-0.7,0-1.1-0.8-1.1c-0.5,0-1.1-0.1-1.6,0.1c-3.7,1.2-7.4,2.5-11.1,3.7c-0.3,0.1-0.9,0-1.1-0.2
			c-0.2-0.2-0.2-0.7-0.1-1c0.1-0.4,0.5-0.6,0.8-1c0.5-0.8,1.2-1.6,1.5-2.5c0.5-1.6-0.8-2.9-2.4-2.5c-0.6,0.1-1.3,0.5-1.7,0.9
			c-1.2,1.3-2.5,2.7-3.5,4.1c-2,2.7-2.4,5.9-3.3,9c-0.9,3-0.6,6.2-0.1,9.3c0.7,4.3,2.8,7.9,4.8,11.6c0.2,0.3,0.5,0.6,0.8,0.8
			c2.1,1.1,4.3,1.4,6.6,1.4c0.3,0,0.7-0.2,0.9-0.4c2.8-2.7,5.6-5.4,8.3-8.2c0.2-0.2,0.1-0.7,0.2-1c0.1-0.4,0-1.1,0.2-1.2
			c0.3-0.2,0.9-0.1,1.4-0.1c0.2,0,0.3,0.2,0.3,0.2c3.5-2.9,6.9-5.7,10.3-8.6c0.3-0.3,0.6-1.1,0.4-1.3c-0.7-1-0.9-2-0.2-3.1
			c-1.5-0.2-3.1,0.3-3.7-1.3C144.1,114.9,145.3,114.1,146.4,113.1L146.4,113.1z M102.9,126.6c-0.4-0.3-0.7-0.4-0.9-0.6
			c-2.2-2.6-5.6-2.3-8.1-1.2c-1.3,0.5-1.9,1.5-1.6,2.9c0.7,2.6,1.1,5.3,3.1,7.5c1.1,1.2,1.5,2.9,2.6,4.1c1.1,1.2,2.7,1.9,4,2.9
			c0.5,0.4,0.9,1.1,1.5,1.4c1.9,1.2,3.8,2.3,5.8,3.4c0.8,0.4,1.8,0.8,2.7,0.7c3.1-0.3,6.2-0.8,9.3-1.2c0.2-1.5-0.4-2.8-1.8-3.9
			c-0.8-0.6-1.7-1.2-2.2-2c-1.1-1.7-2.2-3.4-3.1-5.3c-1.8-3.6-3.8-7.3-4.2-11.4c-0.2-1.6-2.1-2.9-3.6-2.4
			C103.8,122.2,103,124,102.9,126.6L102.9,126.6z M91.4,163.2c-1-1.8-1-3.6-0.2-5.4c0.8-1.8,1.7-3.6,2.5-5.4
			c-0.9-0.7-1.8-1.4-2.8-2.2c-3-2.2-6.1-4.3-9.1-6.5c-1.7-1.2-3.3-2.5-5-3.7c-0.9-0.6-1.8-0.9-2.9-0.9c-3.2-0.2-6.1-1.1-9.1-2.5
			c-0.5,0.4-1.1,0.8-1.7,1.3c-0.2,0.1-0.4,0.5-0.3,0.6c0.2,0.8,0.5,1.6,0.9,2.3c0.7,1.2,1.5,2.2,2.3,3.3c0.5,0.6,0.9,1.4,1.5,1.7
			c2.5,1.4,4.6,3.3,6,5.7c3.1-0.9,6.1-1.3,9,0.2c4.1,2.1,6.3,5.6,5.6,9.5c-0.1,0.8-0.2,1.5,0.7,2C89.5,163.8,90.4,164,91.4,163.2
			L91.4,163.2z M95.6,150.7c0,0.1,0.1,0.3,0.1,0.4c2.6-1.8,5.2-1.3,7.7-0.1c2.2,1,3.5,2.7,3.4,5.1c-0.1,3.1,1.4,5.2,3.7,6.9
			c0.9,0.6,2.1,1,3.2,1.1c3.4,0.3,6.5-0.6,8.6-3.7c0.3-0.5,0.8-0.9,1.1-1.5c1.7-2.6,2.5-5.3,0.8-8.3c-0.4-0.8-0.9-1.3-1.8-1.3
			c-2.2,0-4.4-0.2-6.5,0.2c-3.4,0.6-6.6,0.3-9.5-1.6c-1.4-0.9-2.8-1.7-4.2-2.5C99.9,147.2,97.8,149,95.6,150.7L95.6,150.7z
			 M52,146.5c-1.2-1.4-2.2-2.7-3.4-3.9c-2.7-2.8-7.4-4.4-11.2-0.9c-0.4,0.3-0.8,0.6-1.3,0.8c-0.8,0.4-1.1,1-1.2,1.8
			c-0.1,1.4-0.3,2.8-0.4,4.3c0,0.8-0.1,1.6,0.2,2.3c1.7,3.5,4.3,5.9,8.2,6.6c2.7,0.5,5.9-2.1,6.1-4.8
			C49.3,150.3,49.8,148.1,52,146.5L52,146.5z M63.8,160.9c3.3,0.1,5.9-1.8,6.9-5c0.2-0.5,0.3-1,0.5-1.4c0.3-0.8,0.2-1.4-0.3-2
			c-2.5-3.8-6.2-5.6-10.6-5.6c-2.4,0-4.8,0.7-6.5,2.7c-0.9,0.9-0.7,2-0.9,3.1c-0.2,0.9,0,1.6,0.7,2.2c1.6,1.4,3.2,2.8,4.8,4.2
			C59.9,160.4,61.7,160.9,63.8,160.9L63.8,160.9z M71.9,160.5c2.9,3.9,3.3,4.2,7.5,4.6c2.3,0.2,4.7-0.9,5.5-2.8
			c1-2.6,0.6-4.4-1.2-6.3c-2.8-2.8-6.1-3-9.6-2.5C73.4,155.8,72.7,158,71.9,160.5L71.9,160.5z M98.9,152.3c-0.5,0.2-1.5,0.4-2.2,0.9
			c-1.7,1.3-2.8,2.8-3,5.2c-0.2,3.1,2.3,6.9,5.4,7.5c0.1,0,0.3,0,0.5,0c2.1,0.4,4.3-1.9,4.7-3.5c0.4-1.6,0.7-3.2,0.9-4.8
			c0.1-0.6,0-1.5-0.4-2C103.2,154,101.6,152.5,98.9,152.3L98.9,152.3z M48,139.7c1.2,0.9,2.3,1.5,3.3,2.4c1,0.9,1.7,2,2.6,2.9
			c0.2,0.2,0.6,0.2,0.9,0.1c1.1-0.2,2.2-0.6,3.3-0.7c1.8-0.1,3.6,0,5.3,0c-0.8-1.4-1.6-2.8-2.5-4.2c-0.4-0.6-1-1.4-1.7-1.6
			C55.4,137.4,51.7,137.6,48,139.7L48,139.7z M62.9,134.5c-3.4-2.5-6.4-5.3-8.3-9c-0.5,0.6-0.8,1-1.1,1.4c-2.4,3.2-2.3,4.9-0.2,7.4
			c0.3,0.3,0.8,0.5,1.2,0.6c1.3,0.2,2.7,0.2,3.9,0.7c1.6,0.7,2.8,1,3.9-0.7C62.4,134.8,62.6,134.8,62.9,134.5L62.9,134.5z
			 M129,144.2L129,144.2L129,144.2L129,144.2z"/>
		<path class="st1" d="M129.4,143.7c3.1-2.7,6.2-5.5,9.4-8.2c2.5-2.1,5.1-4.2,7.5-6.3c1.1-1,2.1-2.1,3.2-3.2
			c4.2-4.3,9.6-6.7,14.6-9.7c4.4-2.7,9.4-4.6,12.7-8.8c0.6-0.7,1.2-1.4,1.7-2.2c0.2-0.3,0.3-0.9,0.1-1.1c-0.1-0.2-0.7-0.3-1-0.4
			c-1.4-0.3-2.3,0.6-3.3,1.5c-1.3,1.2-2.8,2.2-4.2,3.1c-1.6,1-3.3,1.9-5,2.9c0-1.7,0.1-3.3,0-4.9c-0.2-2.6-1.3-4.7-3.3-6.4
			c-0.2-0.1-0.4-0.3-0.5-0.4c-5.4-3.4-11.1-5.5-17.5-5.3c-3.4,0.1-6.1,2-8.6,4.1c-2.4,1.9-4.7,3.9-7.1,5.8c-0.3-0.3-0.5-0.6-0.7-0.9
			c-1.2-1.3-3-1.6-4.7-0.8c-2.9,1.4-5.1,3.5-6.8,6.2c-0.6,1-0.8,2.2-1.3,3.4c-0.8-1-1.8-2-2.7-3.2c-2.9-3.9-6.5-6.9-10.8-9
			c-0.8-0.4-1-0.7-0.7-1.6c1.8-4.2,3.4-8.5,5.3-12.7c0.9-2.1,2.1-4.1,3.3-6.1c0.7-1.2,1.5-2.3,2-3.5c0.8-1.9,2.2-2.6,4-2.4
			c3.6,0.3,7.2,0.8,11,1.2c-0.5,1.5-0.9,2.7-1.3,3.8c-2.4,5.7-3.8,11.6-4.9,17.6c-0.1,0.5-0.3,0.9-0.3,1.4c0,0.4,0.1,1,0.3,1.1
			c0.3,0.1,1,0,1.2-0.2c0.6-0.6,1.1-1.4,1.5-2.2c0.7-1.6,1.3-3.4,2-5c2-4.8,3.9-9.6,5.9-14.5c2.3,0.9,4.6,1.5,6.7,2.5
			c6.7,3.2,14,4.5,21.2,5.7c6.5,1.1,13,2,19.7,2c4.1,0,8.2,0.4,12.3,0.2c4-0.1,7.9-0.7,11.9-1c3.5-0.2,7-1.1,10.5-0.2
			c0.1,0,0.2,0,0.3,0.1c2.3,0.5,2.3,0.6,2.3,2.9c0,1.6-0.6,2.8-1.2,4.3c-0.8,2.3-1.3,4.7-1.9,7.1c-0.6,2.3-1.2,4.6-1.7,7
			c-0.3,1.8-0.5,3.7-0.5,5.5c-0.1,3.4,0.1,6.7-1.3,9.9c-0.4,0.8-0.7,1.7-1.3,2.3c-2.9,3.5-5.7,7.2-8.9,10.5c-3.9,4-8,7.8-12.4,11.3
			c-6.2,5.1-12.5,9.9-18.9,14.7c-1.9,1.4-4.1,2.4-6.2,3.3c-5.5,2.3-11.1,4.5-16.7,6.7c-0.4,0.2-1,0.3-1.3,0.1
			c-5.1-1.9-10.4-2.3-15.7-3.4c-2.5-0.5-5.1-1.1-7.7-1.6c6.9-4,9.9-11.5,7-16.7c4.1-2.7,8-5.7,12.3-7.9c5.9-3.2,12.2-5.8,18.3-8.6
			c5.9-2.7,11.5-5.9,16.9-9.6c0.9-0.6,1.7-1.3,2.4-2c0.6-0.6,0.7-1.5,0-1.9c-0.5-0.3-1.5-0.5-1.8-0.2c-8.7,6.4-18.8,10.2-28.3,15.2
			c-5.3,2.8-10.6,5.9-15.9,8.8c-0.3,0.1-0.5,0.3-0.8,0.4C129.5,143.8,129.5,143.7,129.4,143.7L129.4,143.7z"/>
		<path class="st4" d="M76.3,99c-2.7-0.4-5.2,0.1-7.5,1.1c-3.3,1.4-6.3,3.3-8.5,6.1c-1.8,2.3-3.9,4.5-4.5,7.6
			c-0.3,1.9-0.9,3.7-1.5,5.6c-0.2,0.8-0.7,1.6-1,2.3c-0.2,0.5-0.5,1.1-0.3,1.5c0.4,1.2-0.3,1.7-1,2.4c-0.7,0.7-1.5,1.4-1.9,2.3
			c-1.2,2.2-1.2,4.3,0.4,6.4c0.3,0.4,0.6,0.8,1,1.2c-1,0.2-1.9,0.3-2.7,0.7c-1.3,0.6-2.5,1.3-3.7,2c-0.4,0.2-0.8,0.4-1.3,0.4
			c-1.6,0-3.2,0.1-4.8,0c-1.2-0.1-2.3-0.5-3.4-0.9c-4.2-1.3-8.3-2.9-11.7-5.9c-4.8-4.3-8.3-9.4-9-16c-0.6-6.2,0-12.3,1.8-18.3
			c0.3-0.9,0.6-1,1.5-0.8c2.1,0.6,4.3,1.2,6.5,1.6c1,0.2,1.6,0.7,2,1.5c0.3,0.6,0.6,1.1,1,1.7c0.5,0.7,1.4,0.7,1.6-0.1
			c1.7-5.4,6.3-7.6,10.9-9.8c4.4-2.2,9-3.2,13.9-2.9c5.6,0.4,11,1.7,15.7,4.9c0.5,0.3,1,0.7,1.5,0.9C73.5,95.2,75,96.8,76.3,99
			L76.3,99z"/>
		<path class="st5" d="M111.2,121c-0.8-0.5-1.5-0.9-2.2-1.4c-1.6-1.2-3.2-0.8-4.9-0.1c-1.1,0.5-2.1,1-2.6,2.2
			c-0.4,0.7-0.9,0.9-1.8,0.6c-3-1.2-5.9-0.8-8.5,0.9c-0.2,0.1-0.3,0.2-0.7,0.3c-1.6-3.6-3.1-7.2-4.7-10.7c-1.2,0.5-1.1,1.4-0.9,2.1
			c0.5,1.6,1.1,3.2,1.7,4.9c0,0.1,0,0.2-0.1,0.5c-2.1-2.4-4.7-3.1-7.7-2.7c-0.5,0.1-0.9,0.6-1.7,1.2c1.6,0.4,2.8,0.7,4.1,1.1
			c0.6,0.2,1.2,0.4,1.6,0.7c1,0.8,1.9,1.8,2.8,2.7c-2.4-0.2-4.8-1.4-7.1-0.3c0,0.2-0.1,0.3-0.1,0.5c0.6,0.3,1.3,0.9,1.9,0.9
			c2.4,0,4.5,1,6.5,2c0.3,0.1,0.6,0.5,0.8,0.8c1.1,2.4,2.1,4.9,3.4,7.2c1,1.7,2.5,3.1,4,4.9c-0.7,0.4-1.4,0.9-2.2,1.4
			c-1.4,0.9-3,1.8-4.2,2.9c-0.8,0.7-1.2,0-1.6-0.2c-1.3-0.6-2.5-1.3-3.7-2.1c-1.7-1.1-3.4-2.3-4.9-3.6c-1.4-1.3-3.1-1.8-4.9-2
			c-1.5-0.1-3-0.3-4.5-0.5c-0.5-0.1-0.9-0.5-1.3-0.8c-1.4-1.1-2.9-2.1-4.2-3.3c-1.3-1.2-2.6-2.5-3.8-3.7c-0.9-0.9-1.8-1.8-2.3-2.9
			c-0.4-0.8-0.3-1.9-0.1-2.8c0.2-1.2,0.5-2.4,0.8-3.6c1.1-4.3,2.3-8.5,5.9-11.5c2.1-1.8,4.3-3.1,7.2-3.3c1.6-0.1,3.3-0.5,4.9-0.8
			c0.2,0,0.4-0.1,0.6-0.1c6.6-0.2,13.3-0.4,19.9-0.4c2,0,3.8,0.7,5.4,1.9c1.4,1.1,2.8,2.1,4.1,3.2c2.3,2,3.8,4.6,5.2,7.1
			c0.3,0.5,0.7,0.9,1,1.4c0.2,0.4,0.5,1,0.4,1.3C112.2,118.1,111.7,119.5,111.2,121L111.2,121z"/>
		<path class="st1" d="M146.4,113.1c-1.1,1.1-2.2,1.8-1.7,3.3c0.7,1.7,2.2,1.2,3.7,1.3c-0.6,1.1-0.5,2.1,0.2,3.1
			c0.2,0.2-0.1,1-0.4,1.3c-3.4,2.9-6.8,5.7-10.3,8.6c0,0-0.2-0.2-0.3-0.2c-0.5,0-1-0.1-1.4,0.1c-0.2,0.2-0.2,0.8-0.2,1.2
			c-0.1,0.4,0,0.8-0.2,1c-2.8,2.8-5.5,5.5-8.3,8.2c-0.2,0.2-0.6,0.4-0.9,0.4c-2.3,0-4.5-0.3-6.6-1.4c-0.3-0.2-0.6-0.5-0.8-0.8
			c-2-3.7-4.2-7.4-4.8-11.6c-0.5-3.1-0.8-6.3,0.1-9.3c0.9-3,1.4-6.3,3.3-9c1.1-1.4,2.3-2.8,3.5-4.1c0.4-0.4,1.1-0.8,1.7-0.9
			c1.6-0.4,2.9,0.9,2.4,2.5c-0.3,0.9-1,1.7-1.5,2.5c-0.2,0.3-0.6,0.6-0.8,1c-0.1,0.3-0.1,0.9,0.1,1c0.3,0.2,0.8,0.3,1.1,0.2
			c3.7-1.2,7.4-2.5,11.1-3.7c0.5-0.2,1.1-0.1,1.6-0.1c0.8,0,1,0.4,0.8,1.1c-0.6,2.1-0.3,2.4,1.9,2.6c1.6,0.2,3.2,0.4,4.7,0.8
			C145.2,112.3,145.7,112.7,146.4,113.1L146.4,113.1z M131.4,117.2c-0.3,0.7-0.7,1.2-0.6,1.5c0.5,1.5,1,3.1,1.6,4.5
			c0.3,0.7,0.8,0.7,1.5,0.4c0.6-0.3,0.9-0.7,0.6-1.4c-0.6-1.3-1.2-2.7-1.9-3.9C132.4,118,132,117.8,131.4,117.2L131.4,117.2z"/>
		<path class="st1" d="M102.9,126.6c0.1-2.6,0.9-4.4,3.4-5.1c1.5-0.4,3.5,0.9,3.6,2.4c0.4,4.2,2.4,7.8,4.2,11.4
			c0.9,1.8,2,3.6,3.1,5.3c0.5,0.8,1.4,1.4,2.2,2c1.4,1,1.9,2.3,1.8,3.9c-3.1,0.4-6.2,0.9-9.3,1.2c-0.9,0.1-1.9-0.3-2.7-0.7
			c-2-1-3.9-2.2-5.8-3.4c-0.6-0.4-0.9-1-1.5-1.4c-1.3-1-2.9-1.7-4-2.9c-1.1-1.2-1.5-2.9-2.6-4.1c-1.9-2.2-2.3-4.9-3.1-7.5
			c-0.4-1.3,0.2-2.3,1.6-2.9c2.5-1,5.9-1.3,8.1,1.2C102.2,126.2,102.5,126.3,102.9,126.6L102.9,126.6z M102.2,138.4
			c0.3,0.8,1.6,2,2.2,1.8c0.4-0.1,0.9-0.6,0.9-1c0.1-0.9-1.2-2.6-1.8-2.3C103,137.1,102.6,137.9,102.2,138.4L102.2,138.4z
			 M110.7,140c-0.2,0-0.3,0-0.5,0c-0.3,0.5-0.9,1-0.9,1.5c0,0.4,0.7,0.8,1.1,1.2c0.4-0.4,1-0.8,1.1-1.2
			C111.5,141,110.9,140.5,110.7,140z M104.6,129.6c-0.5,0.6-1,1-1,1.4c0,0.4,0.6,1,0.9,1c0.4-0.1,1-0.6,1.1-1
			C105.7,130.7,105.1,130.2,104.6,129.6L104.6,129.6z"/>
		<path class="st1" d="M91.4,163.2c-1,0.8-1.8,0.6-2.8,0.1c-0.9-0.5-0.8-1.2-0.7-2c0.6-3.9-1.5-7.4-5.6-9.5c-2.9-1.5-5.9-1.1-9-0.2
			c-1.4-2.5-3.4-4.3-6-5.7c-0.6-0.3-1-1.1-1.5-1.7c-0.8-1.1-1.6-2.2-2.3-3.3c-0.4-0.7-0.6-1.5-0.9-2.3c0-0.2,0.1-0.5,0.3-0.6
			c0.6-0.5,1.2-0.9,1.7-1.3c3,1.4,6,2.3,9.1,2.5c1.1,0.1,2,0.3,2.9,0.9c1.7,1.2,3.3,2.5,5,3.7c3,2.2,6.1,4.3,9.1,6.5
			c1,0.7,1.9,1.5,2.8,2.2c-0.8,1.7-1.6,3.6-2.5,5.4C90.4,159.6,90.3,161.4,91.4,163.2L91.4,163.2z"/>
		<path class="st1" d="M95.6,150.7c2.2-1.7,4.3-3.5,6.6-5.3c1.4,0.8,2.8,1.6,4.2,2.5c3,1.9,6.1,2.2,9.5,1.6c2.1-0.4,4.4-0.2,6.5-0.2
			c0.9,0,1.4,0.5,1.8,1.3c1.7,3,0.8,5.7-0.8,8.3c-0.3,0.5-0.8,0.9-1.1,1.5c-2.1,3.1-5.1,3.9-8.6,3.7c-1.1-0.1-2.3-0.5-3.2-1.1
			c-2.3-1.7-3.9-3.8-3.7-6.9c0.1-2.4-1.2-4.1-3.4-5.1c-2.5-1.2-5.1-1.7-7.7,0.1C95.7,151,95.6,150.8,95.6,150.7L95.6,150.7z"/>
		<path class="st1" d="M52,146.5c-2.2,1.6-2.7,3.8-2.9,6.2c-0.2,2.7-3.4,5.3-6.1,4.8c-3.9-0.7-6.5-3.1-8.2-6.6
			c-0.3-0.6-0.2-1.5-0.2-2.3c0.1-1.4,0.3-2.8,0.4-4.3c0.1-0.9,0.4-1.4,1.2-1.8c0.4-0.2,0.9-0.5,1.3-0.8c3.8-3.4,8.5-1.9,11.2,0.9
			C49.8,143.8,50.8,145.1,52,146.5L52,146.5z"/>
		<path class="st1" d="M63.8,160.9c-2,0-3.9-0.5-5.5-1.9c-1.6-1.4-3.2-2.8-4.8-4.2c-0.7-0.6-0.9-1.3-0.7-2.2
			c0.2-1.1,0.1-2.2,0.9-3.1c1.8-1.9,4.1-2.7,6.5-2.7c4.4,0,8.1,1.7,10.6,5.6c0.4,0.7,0.6,1.3,0.3,2c-0.2,0.5-0.3,0.9-0.5,1.4
			C69.7,159.1,67.1,160.9,63.8,160.9L63.8,160.9z"/>
		<path class="st1" d="M71.9,160.5c0.8-2.5,1.5-4.7,2.2-7c3.5-0.5,6.8-0.3,9.6,2.5c1.8,1.8,2.2,3.7,1.2,6.3
			c-0.7,1.9-3.2,3.1-5.5,2.8C75.2,164.7,74.8,164.4,71.9,160.5L71.9,160.5z"/>
		<path class="st1" d="M98.9,152.3c2.7,0.3,4.3,1.7,5.8,3.3c0.4,0.4,0.5,1.3,0.4,2c-0.2,1.6-0.4,3.2-0.9,4.8
			c-0.4,1.6-2.6,3.9-4.7,3.5c-0.1,0-0.3,0-0.5,0c-3-0.6-5.6-4.4-5.4-7.5c0.2-2.3,1.3-3.9,3-5.2C97.4,152.6,98.4,152.5,98.9,152.3
			L98.9,152.3z"/>
		<path class="st1" d="M48,139.7c3.7-2,7.4-2.3,11.2-1c0.7,0.2,1.3,1,1.7,1.6c0.9,1.3,1.6,2.7,2.5,4.2c-1.7,0-3.5-0.1-5.3,0
			c-1.1,0.1-2.2,0.5-3.3,0.7c-0.3,0.1-0.7,0-0.9-0.1c-0.9-0.9-1.6-2-2.6-2.9C50.3,141.2,49.2,140.5,48,139.7L48,139.7z"/>
		<path class="st1" d="M62.9,134.5c-0.3,0.2-0.5,0.3-0.6,0.4c-1.1,1.7-2.3,1.4-3.9,0.7c-1.2-0.5-2.6-0.4-3.9-0.7
			c-0.4-0.1-1-0.3-1.2-0.6c-2.1-2.6-2.2-4.3,0.2-7.4c0.3-0.4,0.7-0.8,1.1-1.4C56.5,129.3,59.5,132,62.9,134.5L62.9,134.5z"/>
		<polygon class="st1" points="129,144.2 129,144.1 129,144.1 		"/>
		<path class="st1" d="M129.6,143.8c-0.1,0-0.2,0-0.3,0.1c0-0.1,0.1-0.2,0.1-0.3C129.5,143.7,129.5,143.8,129.6,143.8z"/>
		<path class="st3" d="M131.4,117.2c0.6,0.6,1,0.8,1.2,1.2c0.7,1.3,1.3,2.6,1.9,3.9c0.3,0.7,0,1.1-0.6,1.4s-1.2,0.2-1.5-0.4
			c-0.6-1.5-1.2-3-1.6-4.5C130.7,118.4,131.1,117.9,131.4,117.2L131.4,117.2z"/>
		<path class="st3" d="M102.2,138.4c0.4-0.5,0.8-1.3,1.3-1.5c0.6-0.3,1.9,1.4,1.8,2.3c-0.1,0.4-0.5,0.9-0.9,1
			C103.8,140.4,102.5,139.2,102.2,138.4L102.2,138.4z"/>
		<path class="st3" d="M110.7,140c0.3,0.5,0.8,1,0.8,1.4c-0.1,0.4-0.7,0.8-1.1,1.2c-0.4-0.4-1.1-0.8-1.1-1.2c0-0.5,0.6-1,0.9-1.5
			C110.3,140,110.5,140,110.7,140z"/>
		<path class="st3" d="M104.6,129.6c0.5,0.6,1.1,1.1,1,1.4c-0.1,0.4-0.7,0.9-1.1,1c-0.3,0-0.9-0.6-0.9-1
			C103.6,130.6,104.2,130.2,104.6,129.6L104.6,129.6z"/>
	</g>
</g>
</svg>
