<?xml version="1.0" encoding="utf-8"?>
<!-- Generator: Adobe Illustrator 27.0.1, SVG Export Plug-In . SVG Version: 6.00 Build 0)  -->
<svg version="1.1" id="Layer_1" xmlns="http://www.w3.org/2000/svg" xmlns:xlink="http://www.w3.org/1999/xlink" x="0px" y="0px"
	 viewBox="0 0 175 190" style="enable-background:new 0 0 175 190;" xml:space="preserve">
<style type="text/css">
	.st0{fill:#A5A49F;}
	.st1{fill:#FFFFFF;}
	.st2{fill:#524C4C;}
	.st3{fill:#828A43;}
	.st4{fill:#B3BD80;}
	.st5{fill:#677432;}
	.st6{fill:#7F7474;}
	.st7{enable-background:new    ;}
</style>
<g>
	<polygon class="st0" points="162.5,138.3 87.5,181.6 12.5,138.3 12.5,51.7 87.5,8.4 162.5,51.7 	"/>
	<g>
		<path class="st2" d="M80.4,136.6c-0.2,0.9-0.3,1.7-0.7,2.4c-1.3,2.7-5.1,3.6-7.6,1.8c-1.2-0.8-2.2-1.8-3.1-2.6
			c-0.9,0.3-1.7,0.9-2.5,0.9c-0.8,0-1.6-0.5-2.6-0.9c-1.8,2.3-4.3,3-7.4,2.5c-3.2-0.5-4.8-2.5-5.8-5.3c-0.1,0-0.2,0-0.2,0
			c-2.2,1.9-4.8,2.3-7.6,1.6c-1.1-0.3-2.2-0.7-3.1-1.4c-1.8-1.4-3.4-3-5.1-4.5c-0.7,0.6-1.4,1.3-2.2,1.9c-2.3,1.7-4.9,1.8-7.4,0.4
			c-2.4-1.3-4.7-2.8-5.8-5.5c-0.3-0.9-0.5-1.9-0.5-2.8c0-1.5,0.2-2.9,0.4-4.4c0.1-1.2,0.7-2.2,1.7-2.9c-0.7-0.3-1.4-0.5-2-0.8
			c-6-2.1-10.4-6.1-13.6-11.6c-1.3-2.2-1.7-4.7-2-7.2C2.5,92.8,3,87.3,5,82c0.1-0.1,0.1-0.3,0.2-0.4c0.8-1.8,1.7-2.2,3.5-1.9
			c1.8,0.3,3.7,0.6,5.6,0.8c0.5,0.1,1.1-0.2,1.6-0.4c0.7-0.4,1.3-0.9,2-1.3c1.9-1.3,3.8-2.5,5.7-3.8c2.7-1.8,5.7-2.5,8.8-2.7
			c6.3-0.4,12.4,0.7,18.1,3.1c3.7,1.6,6.9,3.8,9.2,7.1c0.1,0.2,0.3,0.3,0.5,0.3c3.6,0.2,7.3,0.4,10.9,0.6c0.6,0,1.1,0,1.5,0
			c1.7-4.3,3.3-8.4,5-12.5c0.6-1.4,1.5-2.7,2.2-4.1c0.6-1,1.3-2,1.8-3c1.1-2.6,3.2-3.5,5.7-3.4c4.7,0.1,9.3,0.8,13.6,2.6
			c8.3,3.5,16.9,5.8,25.8,6.9c8.3,1,16.6,1,24.9,0.9c3.7,0,7.5-0.7,11.2-1c2.9-0.3,5.8,0.1,8.4,1.5c0.7,0.4,1,0.8,0.8,1.7
			c-1.2,6.4-2.4,12.8-3.6,19.2c-0.1,0.8-0.1,1.6-0.1,2.5c0.1,3.5,0.4,7-1.1,10.3c-0.4,0.9-0.8,1.8-1.4,2.5c-2.5,3.1-4.9,6.3-7.7,9.2
			c-3.3,3.4-6.8,6.6-10.5,9.5c-5,4.1-10.2,8-15.5,11.9c-1.7,1.2-3.6,2.1-5.5,2.9c-3.1,1.4-6.3,2.6-9.6,3.8c-3.1,1.1-6.2,1.8-9.6,1
			c-3.3-0.8-6.8-0.8-10.1-1.6c-3.8-1-7.5-2.5-11.3-3.8c-0.6-0.2-1.3-0.3-1.9-0.7c-1-0.6-1.9-1.2-2.8-1.9
			C81.1,137.3,80.8,137,80.4,136.6L80.4,136.6z M99.4,120.8c0.2-0.1,0.5-0.2,0.7-0.3c4.4-2.4,8.7-4.9,13.1-7.3
			c7.8-4.1,16.1-7.2,23.3-12.5c0.3-0.2,1.1-0.1,1.5,0.1c0.6,0.4,0.5,1.1,0,1.6c-0.6,0.6-1.3,1.2-2,1.7c-4.4,3-9,5.7-13.9,7.9
			c-5,2.3-10.2,4.5-15.1,7.1c-3.5,1.9-6.8,4.3-10.1,6.5c2.4,4.3-0.1,10.5-5.8,13.8c2.2,0.5,4.3,0.9,6.3,1.3
			c4.3,0.9,8.7,1.3,12.9,2.8c0.3,0.1,0.8,0,1.1-0.1c4.6-1.8,9.2-3.6,13.8-5.5c1.8-0.7,3.6-1.6,5.1-2.7c5.3-3.9,10.5-7.9,15.5-12.1
			c3.5-2.9,6.9-6.1,10.2-9.3c2.6-2.7,4.9-5.7,7.4-8.6c0.5-0.5,0.8-1.2,1-1.9c1.1-2.6,1-5.4,1-8.2c0-1.5,0.2-3,0.4-4.5
			c0.4-1.9,0.9-3.8,1.4-5.7c0.5-2,0.9-4,1.6-5.8c0.4-1.2,1-2.2,0.9-3.5c0-1.9,0-2-1.9-2.4c-0.1,0-0.2,0-0.3,0
			c-2.9-0.7-5.8,0-8.6,0.2c-3.3,0.2-6.5,0.7-9.8,0.8c-3.4,0.1-6.7-0.2-10.1-0.2c-5.5,0-10.8-0.7-16.2-1.6c-6-1-11.9-2.1-17.5-4.7
			c-1.8-0.8-3.6-1.4-5.5-2.1c-1.6,4-3.3,8-4.9,11.9c-0.6,1.4-1,2.8-1.7,4.1c-0.3,0.6-0.7,1.2-1.2,1.8c-0.2,0.2-0.7,0.3-1,0.2
			c-0.2-0.1-0.3-0.6-0.3-0.9c0-0.4,0.1-0.7,0.2-1.1c0.9-5,2.1-9.8,4-14.5c0.4-0.9,0.7-1.9,1.1-3.1c-3.2-0.3-6.1-0.7-9.1-1
			c-1.5-0.1-2.7,0.5-3.3,2c-0.4,1-1.1,1.9-1.6,2.9c-0.9,1.7-1.9,3.3-2.7,5c-1.5,3.5-2.9,7-4.3,10.5c-0.3,0.7-0.1,0.9,0.5,1.3
			c3.6,1.7,6.5,4.2,8.9,7.4c0.7,1,1.5,1.8,2.2,2.6c0.4-1,0.5-2,1-2.8c1.4-2.2,3.3-4,5.6-5.1c1.3-0.7,2.8-0.3,3.8,0.7
			c0.2,0.2,0.4,0.4,0.6,0.7c2-1.6,3.9-3.2,5.8-4.8c2.1-1.7,4.3-3.3,7.1-3.3c5.3-0.1,10,1.6,14.4,4.4c0.2,0.1,0.3,0.2,0.4,0.4
			c1.7,1.4,2.6,3.1,2.7,5.3c0.1,1.3,0,2.6,0,4c1.4-0.8,2.8-1.5,4.1-2.3c1.2-0.8,2.4-1.6,3.5-2.6c0.8-0.7,1.5-1.5,2.7-1.2
			c0.3,0.1,0.7,0.1,0.9,0.3c0.1,0.2,0.1,0.7-0.1,0.9c-0.4,0.6-0.9,1.2-1.4,1.8c-2.8,3.5-6.8,5.1-10.5,7.3c-4.1,2.5-8.6,4.5-12,8
			c-0.9,0.9-1.7,1.8-2.6,2.6c-2,1.8-4.2,3.4-6.2,5.2c-2.6,2.2-5.2,4.5-7.7,6.8c0,0.1-0.1,0.1-0.1,0.2
			C99.2,120.8,99.3,120.8,99.4,120.8L99.4,120.8z M55.5,83.9c-1.1-1.8-2.3-3.1-4.1-3.9c-0.4-0.2-0.8-0.5-1.2-0.7
			c-3.9-2.6-8.3-3.7-12.9-4c-4-0.3-7.8,0.6-11.4,2.4c-3.7,1.9-7.5,3.6-9,8.1c-0.2,0.7-0.9,0.7-1.3,0.1c-0.3-0.4-0.6-0.9-0.8-1.4
			c-0.4-0.6-0.8-1.1-1.7-1.2c-1.8-0.3-3.6-0.8-5.3-1.3c-0.7-0.2-1-0.1-1.2,0.6c-1.5,4.9-2,9.9-1.5,15c0.5,5.5,3.4,9.7,7.4,13.2
			c2.8,2.5,6.1,3.8,9.6,4.9c0.9,0.3,1.9,0.6,2.8,0.7c1.3,0.1,2.6,0.1,4,0c0.3,0,0.7-0.1,1-0.3c1-0.5,2-1.1,3.1-1.6
			c0.7-0.3,1.4-0.4,2.2-0.6c-0.3-0.4-0.6-0.7-0.8-1c-1.4-1.7-1.3-3.5-0.4-5.2c0.4-0.7,1-1.3,1.6-1.9c0.5-0.6,1.1-1,0.8-1.9
			c-0.1-0.3,0.1-0.9,0.3-1.3c0.2-0.7,0.6-1.3,0.8-1.9c0.5-1.5,0.9-3,1.2-4.6c0.5-2.6,2.2-4.3,3.7-6.2c1.9-2.3,4.3-3.9,7-5.1
			C51.2,83.9,53.2,83.5,55.5,83.9L55.5,83.9z M84.3,102c0.4-1.2,0.8-2.3,1.1-3.5c0.1-0.3-0.1-0.8-0.3-1.1c-0.2-0.4-0.6-0.7-0.8-1.1
			c-1.2-2.1-2.4-4.3-4.3-5.9c-1.1-0.9-2.3-1.8-3.4-2.7c-1.3-1-2.9-1.6-4.5-1.6c-5.5,0-10.9,0.2-16.4,0.4c-0.2,0-0.3,0-0.5,0.1
			c-1.3,0.2-2.7,0.6-4,0.7c-2.4,0.1-4.2,1.2-5.9,2.7c-2.9,2.5-3.9,6-4.8,9.5c-0.3,1-0.6,2-0.7,3c-0.1,0.8-0.2,1.7,0.1,2.3
			c0.4,0.9,1.2,1.6,1.9,2.4c1,1.1,2,2.1,3.1,3.1c1.1,1,2.3,1.8,3.4,2.7c0.3,0.3,0.7,0.6,1.1,0.6c1.2,0.2,2.5,0.3,3.7,0.4
			c1.5,0.1,2.9,0.6,4.1,1.6c1.2,1.1,2.7,2,4,3c1,0.7,2,1.3,3,1.8c0.3,0.1,0.6,0.7,1.3,0.2c1.1-0.9,2.3-1.6,3.5-2.4
			c0.6-0.4,1.3-0.8,1.8-1.2c-1.2-1.5-2.5-2.6-3.3-4.1c-1.1-1.9-1.9-3.9-2.8-5.9c-0.1-0.3-0.4-0.5-0.6-0.7c-1.7-0.8-3.4-1.6-5.4-1.6
			c-0.5,0-1-0.5-1.6-0.7c0-0.1,0.1-0.3,0.1-0.4c2-0.9,3.9,0.1,5.9,0.3c-0.7-0.8-1.5-1.6-2.3-2.3c-0.4-0.3-0.9-0.5-1.3-0.6
			c-1-0.3-2-0.5-3.3-0.9c0.6-0.5,1-0.9,1.4-1c2.4-0.3,4.6,0.3,6.3,2.3c0.1-0.3,0.1-0.4,0.1-0.4c-0.5-1.3-1-2.6-1.4-4
			c-0.2-0.6-0.3-1.3,0.8-1.7c1.3,2.9,2.5,5.9,3.8,8.8c0.3-0.1,0.4-0.2,0.6-0.3c2.2-1.4,4.6-1.8,7-0.8c0.7,0.3,1.2,0.2,1.5-0.5
			c0.5-1,1.2-1.4,2.2-1.8c1.4-0.6,2.7-0.9,4,0.1C83,101.2,83.6,101.6,84.3,102L84.3,102z M113.2,95.5c-0.6-0.3-1-0.7-1.4-0.7
			c-1.3-0.3-2.6-0.5-3.9-0.6c-1.8-0.2-2-0.5-1.6-2.2c0.2-0.6,0-0.9-0.7-0.9c-0.4,0-0.9,0-1.3,0.1c-3.1,1-6.1,2-9.2,3
			c-0.3,0.1-0.7,0-0.9-0.2c-0.2-0.1-0.2-0.6-0.1-0.8c0.1-0.3,0.4-0.5,0.6-0.8c0.4-0.7,1-1.3,1.3-2c0.4-1.3-0.6-2.4-2-2
			c-0.5,0.1-1,0.4-1.4,0.8c-1,1.1-2,2.2-2.9,3.4c-1.6,2.2-2,4.9-2.8,7.4c-0.8,2.5-0.5,5.1-0.1,7.6c0.6,3.5,2.3,6.5,4,9.6
			c0.1,0.3,0.4,0.5,0.6,0.7c1.7,0.9,3.5,1.1,5.4,1.2c0.2,0,0.6-0.1,0.7-0.3c2.3-2.2,4.6-4.5,6.9-6.7c0.2-0.2,0.1-0.6,0.2-0.9
			c0.1-0.4,0-0.9,0.2-1c0.3-0.2,0.7-0.1,1.1-0.1c0.1,0,0.3,0.2,0.3,0.2c2.9-2.4,5.7-4.7,8.5-7.1c0.3-0.2,0.5-0.9,0.3-1.1
			c-0.6-0.8-0.7-1.6-0.2-2.6c-1.2-0.2-2.5,0.3-3.1-1.1C111.3,97,112.3,96.3,113.2,95.5L113.2,95.5z M77.4,106.6
			c-0.3-0.2-0.6-0.3-0.7-0.5c-1.8-2.1-4.6-1.9-6.7-1c-1.1,0.5-1.6,1.3-1.3,2.4c0.6,2.1,0.9,4.4,2.5,6.1c0.9,1,1.2,2.4,2.1,3.4
			c0.9,1,2.2,1.6,3.3,2.4c0.4,0.3,0.7,0.9,1.2,1.2c1.6,1,3.1,1.9,4.8,2.8c0.7,0.3,1.5,0.6,2.2,0.6c2.5-0.2,5.1-0.6,7.6-1
			c0.1-1.3-0.3-2.3-1.5-3.2c-0.7-0.5-1.4-1-1.8-1.6c-0.9-1.4-1.8-2.8-2.5-4.3c-1.5-3-3.1-6-3.5-9.4c-0.1-1.3-1.7-2.3-3-2
			C78.1,103,77.5,104.5,77.4,106.6L77.4,106.6z M67.9,136.7c-0.9-1.5-0.8-3-0.1-4.5c0.7-1.5,1.4-3,2-4.4c-0.7-0.6-1.5-1.2-2.3-1.8
			c-2.5-1.8-5-3.6-7.5-5.4c-1.4-1-2.7-2-4.1-3.1c-0.7-0.5-1.5-0.7-2.4-0.8c-2.6-0.1-5-0.9-7.5-2.1c-0.4,0.3-0.9,0.6-1.4,1
			c-0.1,0.1-0.3,0.4-0.3,0.5c0.2,0.7,0.4,1.3,0.7,1.9c0.6,1,1.2,1.8,1.9,2.7c0.4,0.5,0.7,1.2,1.2,1.4c2.1,1.1,3.8,2.7,4.9,4.7
			c2.6-0.7,5-1,7.4,0.2c3.4,1.7,5.2,4.6,4.6,7.9c-0.1,0.7-0.2,1.2,0.6,1.6C66.4,137.2,67.1,137.4,67.9,136.7L67.9,136.7z
			 M71.4,126.4c0,0.1,0.1,0.2,0.1,0.3c2.1-1.5,4.2-1,6.3-0.1c1.8,0.8,2.8,2.2,2.8,4.2c-0.1,2.5,1.2,4.3,3.1,5.6
			c0.7,0.5,1.7,0.9,2.6,0.9c2.8,0.2,5.4-0.5,7-3c0.3-0.4,0.7-0.8,0.9-1.2c1.4-2.1,2.1-4.3,0.7-6.8c-0.4-0.6-0.8-1.1-1.5-1.1
			c-1.8,0-3.6-0.1-5.4,0.2c-2.8,0.5-5.4,0.2-7.8-1.3c-1.1-0.7-2.3-1.4-3.4-2.1C75,123.6,73.2,125,71.4,126.4L71.4,126.4z M35.5,123
			c-1-1.1-1.8-2.2-2.8-3.2c-2.2-2.3-6.1-3.6-9.2-0.8c-0.3,0.3-0.7,0.5-1,0.7c-0.6,0.3-0.9,0.8-1,1.5c-0.1,1.2-0.3,2.3-0.3,3.5
			c0,0.6-0.1,1.3,0.1,1.9c1.4,2.9,3.5,4.8,6.7,5.4c2.2,0.4,4.9-1.7,5-3.9C33.3,126.1,33.7,124.3,35.5,123L35.5,123z M45.2,134.8
			c2.8,0,4.9-1.5,5.7-4.1c0.1-0.4,0.2-0.8,0.4-1.2c0.3-0.6,0.1-1.1-0.2-1.7c-2-3.2-5.1-4.6-8.7-4.6c-2,0-3.9,0.6-5.4,2.2
			c-0.7,0.8-0.6,1.7-0.8,2.6c-0.2,0.7,0,1.3,0.6,1.8c1.3,1.1,2.6,2.3,3.9,3.5C42,134.4,43.5,134.8,45.2,134.8L45.2,134.8z
			 M51.9,134.5c2.4,3.2,2.7,3.4,6.2,3.8c1.9,0.2,3.9-0.7,4.5-2.3c0.8-2.1,0.5-3.7-1-5.2c-2.3-2.3-5-2.5-7.9-2.1
			C53.1,130.7,52.5,132.5,51.9,134.5L51.9,134.5z M74.1,127.7c-0.4,0.2-1.2,0.3-1.8,0.7c-1.4,1-2.3,2.3-2.5,4.2
			c-0.2,2.5,1.9,5.6,4.4,6.1c0.1,0,0.3,0,0.4,0c1.7,0.3,3.5-1.6,3.9-2.9c0.3-1.3,0.6-2.6,0.7-3.9c0.1-0.5,0-1.3-0.3-1.6
			C77.7,129.1,76.3,127.9,74.1,127.7L74.1,127.7z M32.2,117.4c1,0.7,1.9,1.3,2.7,2c0.8,0.7,1.4,1.6,2.1,2.4c0.1,0.1,0.5,0.2,0.8,0.1
			c0.9-0.2,1.8-0.5,2.7-0.5c1.5-0.1,3,0,4.4,0c-0.7-1.2-1.3-2.3-2-3.4c-0.4-0.5-0.9-1.1-1.4-1.3C38.3,115.5,35.2,115.7,32.2,117.4
			L32.2,117.4z M44.5,113.1c-2.8-2.1-5.3-4.3-6.9-7.4c-0.4,0.5-0.7,0.8-0.9,1.2c-2,2.6-1.9,4-0.2,6.1c0.2,0.3,0.6,0.4,1,0.5
			c1.1,0.2,2.3,0.1,3.2,0.6c1.3,0.5,2.3,0.8,3.2-0.6C44,113.4,44.2,113.3,44.5,113.1L44.5,113.1z M98.9,121.1L98.9,121.1L98.9,121.1
			L98.9,121.1z"/>
		<path class="st1" d="M99.2,120.6c2.6-2.3,5.1-4.5,7.7-6.8c2-1.8,4.2-3.4,6.2-5.2c0.9-0.8,1.7-1.7,2.6-2.6c3.4-3.5,7.9-5.5,12-8
			c3.7-2.2,7.7-3.8,10.5-7.3c0.5-0.6,1-1.2,1.4-1.8c0.2-0.2,0.2-0.7,0.1-0.9c-0.1-0.2-0.6-0.2-0.9-0.3c-1.2-0.2-1.9,0.5-2.7,1.2
			c-1.1,1-2.3,1.8-3.5,2.6c-1.3,0.8-2.7,1.5-4.1,2.3c0-1.4,0.1-2.7,0-4c-0.1-2.1-1-3.9-2.7-5.3c-0.1-0.1-0.3-0.3-0.4-0.4
			c-4.4-2.8-9.2-4.5-14.4-4.4c-2.8,0.1-5,1.7-7.1,3.3c-1.9,1.6-3.9,3.2-5.8,4.8c-0.2-0.3-0.4-0.5-0.6-0.7c-1-1-2.5-1.3-3.8-0.7
			c-2.4,1.2-4.2,2.9-5.6,5.1c-0.5,0.8-0.7,1.8-1,2.8c-0.7-0.8-1.5-1.7-2.2-2.6c-2.4-3.2-5.3-5.7-8.9-7.4c-0.7-0.3-0.8-0.6-0.5-1.3
			c1.5-3.5,2.8-7,4.3-10.5c0.8-1.7,1.8-3.4,2.7-5c0.5-1,1.2-1.9,1.6-2.9c0.6-1.5,1.8-2.1,3.3-2c3,0.2,5.9,0.6,9.1,1
			c-0.4,1.2-0.7,2.2-1.1,3.1c-1.9,4.7-3.1,9.5-4,14.5c-0.1,0.4-0.2,0.7-0.2,1.1c0,0.3,0.1,0.8,0.3,0.9c0.3,0.1,0.8,0,1-0.2
			c0.5-0.5,0.9-1.1,1.2-1.8c0.6-1.4,1.1-2.8,1.7-4.1c1.6-4,3.2-7.9,4.9-11.9c1.9,0.7,3.8,1.2,5.5,2.1c5.6,2.6,11.5,3.7,17.5,4.7
			c5.3,0.9,10.7,1.7,16.2,1.6c3.4,0,6.7,0.3,10.1,0.2c3.3-0.1,6.5-0.6,9.8-0.8c2.9-0.2,5.7-0.9,8.6-0.2c0.1,0,0.2,0,0.3,0
			c1.9,0.4,1.9,0.5,1.9,2.4c0,1.3-0.5,2.3-0.9,3.5c-0.7,1.9-1.1,3.9-1.6,5.8c-0.5,1.9-1,3.8-1.4,5.7c-0.3,1.5-0.4,3-0.4,4.5
			c-0.1,2.8,0.1,5.5-1,8.2c-0.3,0.7-0.6,1.4-1,1.9c-2.4,2.9-4.7,5.9-7.4,8.6c-3.2,3.3-6.6,6.4-10.2,9.3c-5.1,4.2-10.3,8.2-15.5,12.1
			c-1.5,1.1-3.3,2-5.1,2.7c-4.6,1.9-9.2,3.7-13.8,5.5c-0.3,0.1-0.8,0.2-1.1,0.1c-4.2-1.5-8.6-1.9-12.9-2.8c-2.1-0.4-4.2-0.9-6.3-1.3
			c5.7-3.3,8.1-9.5,5.8-13.8c3.3-2.2,6.6-4.7,10.1-6.5c4.9-2.6,10-4.8,15.1-7.1c4.9-2.2,9.5-4.9,13.9-7.9c0.7-0.5,1.4-1,2-1.7
			c0.5-0.5,0.5-1.2,0-1.6c-0.4-0.3-1.2-0.4-1.5-0.1c-7.2,5.3-15.5,8.4-23.3,12.5c-4.4,2.3-8.7,4.8-13.1,7.3
			c-0.2,0.1-0.5,0.2-0.7,0.3C99.3,120.7,99.3,120.7,99.2,120.6L99.2,120.6z"/>
		<path class="st4" d="M55.5,83.9c-2.2-0.3-4.3,0.1-6.2,0.9c-2.7,1.2-5.2,2.7-7,5.1c-1.5,1.9-3.2,3.7-3.7,6.2
			c-0.3,1.5-0.8,3.1-1.2,4.6c-0.2,0.7-0.6,1.3-0.8,1.9c-0.1,0.4-0.4,0.9-0.3,1.3c0.3,1-0.3,1.4-0.8,1.9c-0.6,0.6-1.2,1.2-1.6,1.9
			c-1,1.8-1,3.6,0.4,5.2c0.3,0.3,0.5,0.6,0.8,1c-0.8,0.2-1.6,0.3-2.2,0.6c-1.1,0.5-2,1.1-3.1,1.6c-0.3,0.2-0.7,0.3-1,0.3
			c-1.3,0-2.7,0.1-4,0c-1-0.1-1.9-0.4-2.8-0.7c-3.5-1.1-6.8-2.4-9.6-4.9c-4-3.5-6.8-7.7-7.4-13.2c-0.5-5.1,0-10.1,1.5-15
			c0.2-0.7,0.5-0.9,1.2-0.6c1.8,0.5,3.5,1,5.3,1.3c0.8,0.2,1.3,0.6,1.7,1.2c0.3,0.5,0.5,0.9,0.8,1.4c0.4,0.6,1.1,0.6,1.3-0.1
			c1.4-4.4,5.2-6.2,9-8.1c3.6-1.8,7.4-2.7,11.4-2.4c4.6,0.3,9,1.4,12.9,4c0.4,0.3,0.8,0.5,1.2,0.7C53.2,80.7,54.4,82.1,55.5,83.9
			L55.5,83.9z"/>
		<path class="st5" d="M84.3,102c-0.7-0.4-1.3-0.8-1.8-1.2c-1.3-1-2.6-0.7-4-0.1c-0.9,0.4-1.7,0.9-2.2,1.8c-0.3,0.6-0.7,0.7-1.5,0.5
			c-2.5-1-4.8-0.7-7,0.8c-0.1,0.1-0.3,0.1-0.6,0.3c-1.3-3-2.6-5.9-3.8-8.8c-1,0.4-0.9,1.1-0.8,1.7c0.4,1.3,0.9,2.7,1.4,4
			c0,0.1,0,0.2-0.1,0.4c-1.7-1.9-3.9-2.6-6.3-2.3c-0.4,0.1-0.7,0.5-1.4,1c1.3,0.3,2.3,0.6,3.3,0.9c0.5,0.1,1,0.3,1.3,0.6
			c0.8,0.7,1.6,1.4,2.3,2.3c-2-0.2-3.9-1.2-5.9-0.3c0,0.1-0.1,0.3-0.1,0.4c0.5,0.3,1,0.7,1.6,0.7c2,0,3.7,0.8,5.4,1.6
			c0.3,0.1,0.5,0.4,0.6,0.7c0.9,2,1.7,4,2.8,5.9c0.8,1.4,2.1,2.6,3.3,4.1c-0.6,0.4-1.2,0.8-1.8,1.2c-1.2,0.8-2.4,1.5-3.5,2.4
			c-0.7,0.6-1,0-1.3-0.2c-1.1-0.5-2.1-1.1-3-1.8c-1.4-0.9-2.8-1.9-4-3c-1.2-1.1-2.5-1.5-4.1-1.6c-1.2-0.1-2.5-0.2-3.7-0.4
			c-0.4-0.1-0.8-0.4-1.1-0.6c-1.2-0.9-2.3-1.8-3.4-2.7c-1.1-1-2.1-2-3.1-3.1c-0.7-0.8-1.5-1.5-1.9-2.4c-0.3-0.6-0.2-1.5-0.1-2.3
			c0.1-1,0.4-2,0.7-3c0.9-3.5,1.9-7,4.8-9.5c1.7-1.4,3.5-2.6,5.9-2.7c1.4,0,2.7-0.4,4-0.7c0.2,0,0.3-0.1,0.5-0.1
			c5.5-0.1,10.9-0.3,16.4-0.4c1.6,0,3.2,0.5,4.5,1.6c1.1,0.9,2.3,1.7,3.4,2.7c1.9,1.6,3.1,3.7,4.3,5.9c0.2,0.4,0.6,0.7,0.8,1.1
			c0.2,0.3,0.4,0.8,0.3,1.1C85.1,99.6,84.6,100.8,84.3,102L84.3,102z"/>
		<path class="st1" d="M113.2,95.5c-0.9,0.9-1.8,1.5-1.4,2.7c0.5,1.4,1.8,1,3.1,1.1c-0.5,0.9-0.4,1.7,0.2,2.6
			c0.1,0.2-0.1,0.9-0.3,1.1c-2.8,2.4-5.6,4.7-8.5,7.1c0,0-0.1-0.2-0.3-0.2c-0.4,0-0.9-0.1-1.1,0.1c-0.2,0.1-0.1,0.7-0.2,1
			c-0.1,0.3,0,0.7-0.2,0.9c-2.3,2.3-4.6,4.5-6.9,6.7c-0.2,0.2-0.5,0.3-0.7,0.3c-1.9,0-3.7-0.3-5.4-1.2c-0.3-0.1-0.5-0.4-0.6-0.7
			c-1.7-3-3.4-6.1-4-9.6c-0.4-2.5-0.7-5.1,0.1-7.6c0.8-2.5,1.1-5.2,2.8-7.4c0.9-1.2,1.9-2.3,2.9-3.4c0.3-0.4,0.9-0.7,1.4-0.8
			c1.3-0.3,2.4,0.7,2,2c-0.2,0.7-0.8,1.4-1.3,2c-0.2,0.3-0.5,0.5-0.6,0.8c-0.1,0.3-0.1,0.7,0.1,0.8c0.2,0.2,0.6,0.2,0.9,0.2
			c3.1-1,6.1-2,9.2-3c0.4-0.1,0.9-0.1,1.3-0.1c0.6,0,0.8,0.3,0.7,0.9c-0.5,1.7-0.2,2,1.6,2.2c1.3,0.1,2.6,0.4,3.9,0.6
			C112.2,94.8,112.6,95.2,113.2,95.5L113.2,95.5z M100.9,98.9c-0.2,0.6-0.6,1-0.5,1.2c0.4,1.3,0.8,2.5,1.3,3.7
			c0.2,0.5,0.7,0.6,1.2,0.4c0.5-0.2,0.8-0.6,0.5-1.1c-0.5-1.1-1-2.2-1.6-3.2C101.7,99.6,101.4,99.4,100.9,98.9L100.9,98.9z"/>
		<path class="st1" d="M77.4,106.6c0.1-2.2,0.8-3.6,2.8-4.2c1.3-0.3,2.9,0.7,3,2c0.3,3.4,1.9,6.4,3.5,9.4c0.8,1.5,1.6,2.9,2.5,4.3
			c0.4,0.6,1.2,1.1,1.8,1.6c1.1,0.8,1.6,1.9,1.5,3.2c-2.6,0.3-5.1,0.7-7.6,1c-0.7,0.1-1.6-0.2-2.2-0.6c-1.6-0.9-3.2-1.8-4.8-2.8
			c-0.5-0.3-0.8-0.8-1.2-1.2c-1.1-0.8-2.4-1.4-3.3-2.4c-0.9-1-1.3-2.4-2.1-3.4c-1.6-1.8-1.9-4-2.5-6.1c-0.3-1.1,0.2-1.9,1.3-2.4
			c2-0.8,4.8-1.1,6.7,1C76.8,106.3,77,106.4,77.4,106.6L77.4,106.6z M76.8,116.3c0.2,0.7,1.3,1.7,1.8,1.5c0.3-0.1,0.7-0.5,0.8-0.9
			c0.1-0.8-1-2.1-1.5-1.9C77.5,115.3,77.2,115.9,76.8,116.3L76.8,116.3z M83.8,117.6c-0.1,0-0.3,0-0.4,0c-0.3,0.4-0.8,0.8-0.7,1.2
			c0,0.3,0.6,0.6,0.9,1c0.3-0.3,0.8-0.6,0.9-1C84.5,118.4,84,118,83.8,117.6z M78.8,109.1c-0.4,0.5-0.8,0.8-0.8,1.1
			c0,0.3,0.5,0.8,0.7,0.8c0.3-0.1,0.8-0.5,0.9-0.8C79.7,110,79.2,109.6,78.8,109.1L78.8,109.1z"/>
		<path class="st1" d="M67.9,136.7c-0.8,0.6-1.5,0.5-2.3,0.1c-0.7-0.4-0.7-1-0.6-1.6c0.5-3.2-1.2-6.1-4.6-7.9
			c-2.4-1.2-4.8-0.9-7.4-0.2c-1.1-2-2.8-3.6-4.9-4.7c-0.5-0.3-0.8-0.9-1.2-1.4c-0.7-0.9-1.3-1.8-1.9-2.7c-0.3-0.6-0.5-1.3-0.7-1.9
			c0-0.1,0.1-0.4,0.3-0.5c0.5-0.4,1-0.7,1.4-1c2.5,1.1,4.9,1.9,7.5,2.1c0.9,0,1.7,0.2,2.4,0.8c1.4,1,2.7,2.1,4.1,3.1
			c2.5,1.8,5,3.6,7.5,5.4c0.8,0.6,1.6,1.2,2.3,1.8c-0.6,1.4-1.3,2.9-2,4.4C67.1,133.8,67,135.2,67.9,136.7L67.9,136.7z"/>
		<path class="st1" d="M71.4,126.4c1.8-1.4,3.6-2.9,5.4-4.3c1.1,0.7,2.3,1.3,3.4,2.1c2.4,1.5,5,1.8,7.8,1.3c1.8-0.3,3.6-0.1,5.4-0.2
			c0.7,0,1.1,0.4,1.5,1.1c1.4,2.5,0.7,4.7-0.7,6.8c-0.3,0.4-0.7,0.8-0.9,1.2c-1.7,2.5-4.2,3.2-7,3c-0.9-0.1-1.9-0.4-2.6-0.9
			c-1.9-1.4-3.2-3.1-3.1-5.6c0.1-2-1-3.4-2.8-4.2c-2.1-1-4.2-1.4-6.3,0.1C71.5,126.6,71.4,126.5,71.4,126.4L71.4,126.4z"/>
		<path class="st1" d="M35.5,123c-1.8,1.3-2.2,3.1-2.4,5.1c-0.2,2.2-2.8,4.3-5,3.9c-3.2-0.6-5.4-2.5-6.7-5.4
			c-0.2-0.5-0.2-1.2-0.1-1.9c0.1-1.2,0.2-2.3,0.3-3.5c0-0.7,0.3-1.2,1-1.5c0.4-0.2,0.7-0.4,1-0.7c3.1-2.8,7-1.5,9.2,0.8
			C33.7,120.8,34.5,121.9,35.5,123L35.5,123z"/>
		<path class="st1" d="M45.2,134.8c-1.7,0-3.2-0.4-4.5-1.6c-1.3-1.2-2.6-2.3-3.9-3.5c-0.6-0.5-0.7-1-0.6-1.8
			c0.2-0.9,0.1-1.8,0.8-2.6c1.5-1.6,3.4-2.2,5.4-2.2c3.6,0,6.6,1.4,8.7,4.6c0.4,0.6,0.5,1.1,0.2,1.7c-0.2,0.4-0.3,0.8-0.4,1.2
			C50.1,133.3,47.9,134.9,45.2,134.8L45.2,134.8z"/>
		<path class="st1" d="M51.9,134.5c0.7-2.1,1.2-3.9,1.8-5.8c2.9-0.4,5.6-0.3,7.9,2.1c1.5,1.5,1.8,3,1,5.2c-0.6,1.6-2.6,2.5-4.5,2.3
			C54.6,138,54.3,137.7,51.9,134.5L51.9,134.5z"/>
		<path class="st1" d="M74.1,127.7c2.2,0.2,3.6,1.4,4.8,2.7c0.3,0.3,0.4,1.1,0.3,1.6c-0.2,1.3-0.4,2.6-0.7,3.9
			c-0.4,1.4-2.2,3.2-3.9,2.9c-0.1,0-0.3,0-0.4,0c-2.5-0.5-4.6-3.6-4.4-6.1c0.1-1.9,1.1-3.2,2.5-4.2C72.9,128,73.7,127.9,74.1,127.7
			L74.1,127.7z"/>
		<path class="st1" d="M32.2,117.4c3-1.7,6.1-1.9,9.2-0.8c0.6,0.2,1.1,0.8,1.4,1.3c0.7,1.1,1.3,2.3,2,3.4c-1.4,0-2.9-0.1-4.4,0
			c-0.9,0.1-1.8,0.4-2.7,0.5c-0.2,0-0.6,0-0.8-0.1c-0.7-0.8-1.4-1.7-2.1-2.4C34.1,118.6,33.2,118.1,32.2,117.4L32.2,117.4z"/>
		<path class="st1" d="M44.5,113.1c-0.3,0.2-0.5,0.2-0.5,0.4c-0.9,1.4-1.9,1.1-3.2,0.6c-1-0.4-2.2-0.3-3.2-0.6
			c-0.4-0.1-0.8-0.2-1-0.5c-1.7-2.1-1.8-3.5,0.2-6.1c0.3-0.3,0.5-0.7,0.9-1.2C39.2,108.8,41.7,111.1,44.5,113.1L44.5,113.1z"/>
		<polygon class="st1" points="98.9,121.1 98.8,121 98.9,121 		"/>
		<path class="st1" d="M99.4,120.8c-0.1,0-0.2,0-0.3,0.1c0-0.1,0.1-0.1,0.1-0.2C99.3,120.7,99.3,120.7,99.4,120.8z"/>
		<path class="st2" d="M100.9,98.9c0.5,0.5,0.8,0.7,1,1c0.6,1.1,1.1,2.1,1.6,3.2c0.2,0.5,0,0.9-0.5,1.1s-1,0.2-1.2-0.4
			c-0.5-1.2-1-2.5-1.3-3.7C100.3,99.9,100.6,99.5,100.9,98.9L100.9,98.9z"/>
		<path class="st2" d="M76.8,116.3c0.4-0.4,0.6-1,1.1-1.2c0.5-0.2,1.6,1.1,1.5,1.9c-0.1,0.3-0.4,0.7-0.8,0.9
			C78.1,118,77.1,117,76.8,116.3L76.8,116.3z"/>
		<path class="st2" d="M83.8,117.6c0.2,0.4,0.7,0.8,0.6,1.2c0,0.4-0.6,0.7-0.9,1c-0.3-0.3-0.9-0.6-0.9-1c0-0.4,0.5-0.8,0.7-1.2
			C83.5,117.6,83.6,117.6,83.8,117.6z"/>
		<path class="st2" d="M78.8,109.1c0.4,0.5,0.9,0.9,0.8,1.1c-0.1,0.3-0.5,0.7-0.9,0.8c-0.2,0-0.7-0.5-0.7-0.8
			C78,109.9,78.4,109.6,78.8,109.1L78.8,109.1z"/>
	</g>
</g>
</svg>
