<?xml version="1.0" encoding="UTF-8"?><svg id="Layer_1" xmlns="http://www.w3.org/2000/svg" viewBox="0 0 175.77 173.21"><defs><style>.cls-1{fill:#fefefe;}.cls-2{fill:#667323;}.cls-3{fill:#b2bc7f;}.cls-4{fill:#a5a5a0;}.cls-5{fill:#514b4b;}</style></defs><polygon class="cls-4" points="161.48 129.9 86.48 173.21 11.48 129.9 11.48 43.3 86.48 0 161.48 43.3 161.48 129.9"/><g><path class="cls-5" d="M80.56,127.08c-.25,.93-.36,1.8-.72,2.54-1.34,2.76-5.28,3.72-7.94,1.9-1.22-.83-2.28-1.87-3.26-2.69-.89,.35-1.74,.94-2.59,.95-.84,.01-1.69-.56-2.7-.93-1.88,2.38-4.51,3.08-7.68,2.6-3.32-.51-5.03-2.59-6.07-5.47-.12-.01-.2-.05-.24-.02-2.33,1.98-5.03,2.39-7.9,1.7-1.12-.27-2.29-.75-3.19-1.45-1.85-1.46-3.54-3.13-5.27-4.69-.71,.62-1.47,1.37-2.33,2-2.44,1.79-5.13,1.83-7.66,.46-2.47-1.34-4.92-2.93-6.03-5.75-.36-.91-.57-1.96-.56-2.94,.01-1.51,.26-3.02,.42-4.53,.13-1.24,.7-2.25,1.79-3.05-.77-.29-1.43-.56-2.11-.79-6.25-2.21-10.85-6.34-14.15-12.03-1.35-2.32-1.76-4.89-2.08-7.47-.71-5.81-.15-11.5,1.85-17.02,.06-.16,.14-.3,.21-.45,.84-1.83,1.72-2.28,3.68-1.96,1.92,.31,3.84,.59,5.77,.78,.55,.05,1.19-.18,1.71-.44,.73-.37,1.39-.89,2.07-1.34,1.97-1.31,3.96-2.6,5.92-3.93,2.76-1.87,5.9-2.62,9.14-2.83,6.53-.42,12.83,.68,18.83,3.26,3.81,1.63,7.12,4,9.57,7.42,.11,.16,.35,.3,.54,.32,3.78,.22,7.56,.42,11.34,.62,.59,.03,1.18,0,1.54,0,1.75-4.44,3.4-8.74,5.16-12.99,.61-1.48,1.51-2.84,2.3-4.25,.6-1.06,1.38-2.04,1.84-3.15,1.12-2.71,3.32-3.6,5.95-3.53,4.84,.14,9.62,.84,14.09,2.75,8.61,3.69,17.51,6.04,26.82,7.14,8.62,1.02,17.24,1.04,25.88,.93,3.87-.05,7.74-.7,11.61-1.07,3.05-.29,5.98,.13,8.75,1.51,.77,.38,1.01,.87,.84,1.73-1.26,6.63-2.5,13.26-3.7,19.9-.15,.83-.1,1.7-.07,2.55,.13,3.63,.41,7.27-1.14,10.71-.4,.89-.82,1.83-1.43,2.58-2.62,3.22-5.12,6.57-8.01,9.52-3.43,3.5-7.08,6.82-10.88,9.92-5.23,4.27-10.64,8.34-16.08,12.34-1.73,1.27-3.76,2.18-5.75,3.03-3.27,1.41-6.58,2.72-9.93,3.91-3.23,1.15-6.47,1.88-10.01,1.05-3.45-.81-7.1-.82-10.53-1.69-3.99-1.01-7.84-2.58-11.75-3.9-.67-.23-1.39-.36-1.98-.7-1.01-.59-1.96-1.29-2.9-1.99-.36-.27-.63-.66-.99-1.06v-.02Zm19.66-16.37c.24-.12,.47-.23,.7-.35,4.52-2.52,8.99-5.12,13.56-7.54,8.08-4.28,16.73-7.5,24.18-12.97,.33-.24,1.19-.12,1.58,.15,.58,.41,.5,1.17,.03,1.67-.61,.64-1.3,1.22-2.03,1.71-4.58,3.12-9.37,5.87-14.42,8.18-5.24,2.39-10.55,4.66-15.64,7.36-3.68,1.95-7.03,4.51-10.51,6.79,2.46,4.49-.12,10.9-6,14.31,2.25,.48,4.42,.94,6.59,1.4,4.48,.93,9.07,1.33,13.4,2.93,.33,.12,.79,.03,1.14-.11,4.78-1.89,9.57-3.75,14.31-5.73,1.84-.77,3.73-1.62,5.31-2.81,5.46-4.1,10.88-8.25,16.14-12.6,3.68-3.04,7.21-6.29,10.56-9.68,2.74-2.79,5.13-5.92,7.64-8.94,.47-.57,.78-1.29,1.08-1.98,1.18-2.71,1.01-5.61,1.09-8.47,.05-1.57,.16-3.15,.44-4.69,.37-2,.92-3.98,1.42-5.96,.51-2.03,.91-4.11,1.64-6.07,.44-1.2,1-2.31,.98-3.64-.02-1.99-.02-2.05-1.97-2.51-.1-.02-.2-.02-.29-.05-3-.75-5.97-.02-8.95,.16-3.39,.21-6.76,.73-10.14,.82-3.49,.1-6.99-.22-10.49-.21-5.67,.03-11.25-.73-16.8-1.69-6.19-1.08-12.38-2.19-18.15-4.91-1.82-.86-3.79-1.43-5.76-2.16-1.71,4.16-3.4,8.26-5.08,12.37-.59,1.43-1.09,2.9-1.73,4.31-.31,.67-.78,1.3-1.28,1.85-.2,.22-.73,.31-1.03,.2-.19-.07-.29-.59-.29-.91,0-.39,.15-.77,.22-1.16,.92-5.15,2.17-10.22,4.18-15.07,.4-.95,.69-1.95,1.13-3.23-3.29-.36-6.35-.77-9.43-1.01-1.54-.12-2.78,.48-3.43,2.09-.43,1.06-1.15,2-1.7,3.01-.95,1.73-2,3.42-2.78,5.22-1.57,3.59-2.98,7.25-4.49,10.87-.3,.72-.14,.98,.56,1.33,3.7,1.82,6.78,4.39,9.25,7.7,.75,1,1.6,1.91,2.3,2.74,.37-1.01,.56-2.04,1.08-2.87,1.43-2.3,3.38-4.12,5.83-5.32,1.38-.68,2.91-.36,3.98,.72,.2,.21,.38,.44,.63,.73,2.04-1.68,4.03-3.35,6.05-4.99,2.17-1.76,4.51-3.4,7.38-3.47,5.46-.14,10.41,1.67,14.99,4.56,.17,.11,.31,.24,.47,.37,1.74,1.4,2.68,3.24,2.82,5.46,.08,1.33,.02,2.67,.02,4.15,1.5-.85,2.93-1.58,4.28-2.44,1.26-.81,2.5-1.68,3.63-2.67,.84-.74,1.58-1.51,2.82-1.28,.32,.06,.78,.11,.89,.32,.14,.24,.07,.72-.09,.98-.42,.67-.93,1.28-1.43,1.89-2.88,3.6-7.09,5.29-10.89,7.56-4.29,2.56-8.89,4.63-12.46,8.27-.9,.92-1.74,1.89-2.71,2.73-2.12,1.84-4.32,3.58-6.44,5.4-2.7,2.32-5.36,4.69-8.03,7.03-.04,.07-.08,.15-.11,.22,.1-.02,.19-.04,.29-.06h0Zm-45.59-38.37c-1.12-1.88-2.41-3.25-4.24-4.03-.45-.19-.87-.47-1.28-.75-4.05-2.75-8.65-3.84-13.43-4.2-4.16-.31-8.11,.61-11.86,2.46-3.89,1.93-7.83,3.78-9.3,8.4-.22,.68-.96,.7-1.39,.09-.32-.46-.57-.96-.87-1.44-.41-.66-.88-1.12-1.74-1.29-1.87-.35-3.72-.83-5.55-1.35-.76-.22-1.05-.05-1.26,.67-1.53,5.11-2.05,10.3-1.54,15.62,.55,5.71,3.51,10.03,7.65,13.71,2.88,2.56,6.35,3.95,9.96,5.07,.97,.3,1.95,.67,2.94,.76,1.36,.13,2.75,.06,4.12,.03,.36-.01,.74-.15,1.07-.32,1.07-.54,2.1-1.19,3.2-1.68,.7-.31,1.5-.4,2.31-.61-.33-.4-.59-.72-.86-1.05-1.44-1.72-1.38-3.59-.37-5.44,.4-.73,1.08-1.32,1.67-1.94,.55-.57,1.17-1.03,.83-2.02-.12-.36,.14-.89,.3-1.31,.25-.68,.62-1.32,.82-2.01,.47-1.57,.98-3.14,1.27-4.75,.48-2.66,2.27-4.5,3.83-6.47,1.92-2.44,4.5-4.05,7.3-5.26,1.98-.85,4.08-1.29,6.42-.93h0Zm29.88,18.83c.41-1.24,.85-2.44,1.17-3.67,.09-.34-.16-.8-.35-1.15-.23-.42-.61-.75-.84-1.17-1.24-2.22-2.48-4.44-4.45-6.11-1.14-.96-2.35-1.84-3.53-2.76-1.37-1.08-2.97-1.65-4.65-1.64-5.68,.05-11.36,.23-17.05,.37-.16,0-.33,.04-.49,.06-1.4,.24-2.79,.63-4.19,.68-2.47,.09-4.37,1.28-6.14,2.78-3.05,2.58-4.05,6.22-5.01,9.86-.27,1.03-.58,2.05-.72,3.1-.11,.79-.2,1.74,.13,2.4,.46,.93,1.28,1.71,2.01,2.49,1.04,1.1,2.09,2.2,3.22,3.2,1.14,1.01,2.37,1.91,3.57,2.83,.35,.27,.73,.6,1.14,.66,1.27,.2,2.56,.32,3.85,.42,1.59,.12,2.97,.58,4.21,1.7,1.28,1.17,2.76,2.12,4.2,3.1,1.01,.68,2.06,1.32,3.16,1.83,.34,.16,.66,.78,1.35,.19,1.1-.94,2.4-1.65,3.62-2.45,.65-.43,1.3-.84,1.88-1.22-1.26-1.52-2.56-2.74-3.42-4.21-1.14-1.94-1.93-4.09-2.89-6.13-.13-.27-.38-.56-.65-.68-1.79-.8-3.55-1.67-5.6-1.67-.55,0-1.09-.5-1.64-.78,.04-.14,.09-.28,.13-.42,2.03-.95,4.04,.1,6.1,.27-.75-.85-1.52-1.65-2.37-2.35-.38-.31-.91-.48-1.39-.62-1.05-.31-2.12-.56-3.48-.91,.65-.49,1-.98,1.41-1.04,2.53-.33,4.77,.33,6.57,2.35,.07-.26,.14-.37,.11-.44-.49-1.38-1.04-2.75-1.47-4.15-.19-.6-.28-1.32,.78-1.76,1.32,3.05,2.64,6.09,3.98,9.18,.32-.15,.47-.2,.6-.29,2.3-1.5,4.75-1.82,7.3-.81,.76,.3,1.24,.17,1.54-.47,.47-1,1.3-1.5,2.26-1.9,1.41-.59,2.78-.94,4.15,.1,.56,.43,1.18,.78,1.86,1.22h0Zm30.05-6.76c-.59-.32-1.01-.68-1.49-.78-1.34-.28-2.69-.51-4.05-.65-1.85-.19-2.1-.48-1.62-2.25,.17-.63-.02-.97-.68-.97-.46,0-.95-.05-1.37,.09-3.18,1.04-6.33,2.12-9.51,3.16-.28,.09-.74,.02-.95-.16-.17-.14-.18-.62-.08-.88,.12-.32,.45-.54,.64-.84,.46-.7,1.06-1.36,1.3-2.13,.43-1.36-.67-2.44-2.08-2.1-.52,.13-1.07,.42-1.43,.81-1.06,1.13-2.11,2.28-3.03,3.52-1.69,2.27-2.06,5.07-2.86,7.67-.8,2.58-.54,5.28-.11,7.93,.59,3.63,2.39,6.79,4.14,9.95,.15,.27,.4,.55,.67,.69,1.76,.91,3.66,1.18,5.61,1.21,.26,0,.58-.13,.77-.31,2.39-2.31,4.77-4.64,7.13-6.99,.18-.18,.13-.59,.18-.9,.06-.37,0-.9,.21-1.06,.28-.2,.77-.11,1.17-.09,.14,0,.26,.16,.29,.18,2.97-2.47,5.9-4.88,8.78-7.34,.26-.22,.48-.91,.34-1.11-.6-.85-.74-1.71-.21-2.67-1.28-.16-2.63,.28-3.19-1.15-.49-1.25,.51-1.91,1.43-2.81h0Zm-37.18,11.56c-.36-.22-.62-.3-.77-.48-1.88-2.19-4.79-1.94-6.92-1.06-1.14,.47-1.66,1.32-1.34,2.45,.63,2.21,.98,4.52,2.61,6.38,.9,1.03,1.28,2.52,2.21,3.51,.94,1.01,2.28,1.65,3.41,2.5,.46,.35,.76,.91,1.24,1.21,1.62,1.01,3.25,2.01,4.94,2.89,.69,.36,1.56,.67,2.31,.6,2.64-.24,5.26-.65,7.94-1,.15-1.31-.33-2.43-1.51-3.29-.68-.49-1.41-1.01-1.87-1.68-.97-1.43-1.86-2.94-2.65-4.49-1.58-3.12-3.24-6.21-3.59-9.78-.14-1.34-1.8-2.44-3.12-2.09-2.1,.55-2.82,2.09-2.89,4.32h0Zm-9.84,31.31c-.89-1.58-.86-3.09-.15-4.63,.72-1.56,1.42-3.12,2.1-4.6-.75-.57-1.56-1.23-2.41-1.84-2.58-1.86-5.19-3.7-7.76-5.57-1.44-1.04-2.85-2.13-4.28-3.19-.73-.54-1.52-.73-2.47-.78-2.7-.14-5.24-.97-7.79-2.14-.42,.3-.96,.67-1.47,1.08-.15,.12-.32,.4-.27,.55,.2,.68,.39,1.39,.74,2,.58,.99,1.28,1.91,1.95,2.84,.39,.53,.73,1.2,1.27,1.49,2.17,1.18,3.9,2.78,5.09,4.88,2.66-.73,5.19-1.09,7.7,.19,3.53,1.79,5.35,4.82,4.83,8.15-.11,.68-.19,1.28,.58,1.67,.78,.4,1.52,.57,2.36-.1h0Zm3.61-10.72c.04,.11,.09,.23,.13,.34,2.22-1.57,4.41-1.07,6.59-.08,1.85,.85,2.96,2.28,2.87,4.33-.12,2.64,1.23,4.45,3.19,5.86,.75,.54,1.79,.89,2.72,.97,2.95,.23,5.56-.51,7.32-3.15,.29-.44,.69-.81,.97-1.25,1.42-2.23,2.18-4.51,.72-7.06-.38-.67-.8-1.12-1.58-1.11-1.87,.02-3.78-.15-5.6,.16-2.93,.51-5.61,.23-8.14-1.37-1.19-.75-2.41-1.45-3.57-2.14-1.91,1.53-3.76,3.01-5.62,4.49h0Zm-37.28-3.56c-1.02-1.19-1.9-2.3-2.87-3.32-2.28-2.4-6.3-3.74-9.55-.81-.31,.28-.69,.5-1.07,.7-.65,.34-.95,.84-1,1.58-.08,1.22-.26,2.43-.33,3.64-.04,.64-.12,1.39,.14,1.93,1.41,2.99,3.69,5.01,7,5.62,2.27,.42,5.06-1.78,5.22-4.08,.14-2.04,.56-3.92,2.46-5.26h0Zm10.06,12.27c2.86,.05,5.06-1.53,5.92-4.25,.13-.41,.24-.83,.41-1.22,.29-.65,.13-1.18-.24-1.75-2.12-3.29-5.26-4.77-9.02-4.78-2.07,0-4.06,.63-5.59,2.29-.74,.8-.61,1.74-.8,2.65-.17,.78,0,1.34,.58,1.85,1.37,1.19,2.72,2.4,4.08,3.6,1.33,1.17,2.92,1.6,4.66,1.62h0Zm6.97-.29c2.45,3.32,2.83,3.56,6.42,3.94,1.98,.21,4.04-.78,4.67-2.43,.85-2.23,.52-3.8-.99-5.36-2.36-2.43-5.25-2.59-8.21-2.14-.62,1.94-1.22,3.84-1.89,5.98h0Zm23.07-7.07c-.45,.17-1.26,.31-1.86,.75-1.47,1.07-2.43,2.41-2.57,4.41-.18,2.62,1.97,5.87,4.58,6.38,.13,.03,.26,0,.39,.03,1.77,.3,3.65-1.61,4.03-3.02,.35-1.33,.57-2.7,.73-4.06,.07-.55,0-1.32-.33-1.69-1.25-1.35-2.64-2.57-4.96-2.8h0Zm-43.52-10.76c1.02,.73,1.99,1.3,2.81,2.05,.82,.74,1.46,1.68,2.22,2.48,.15,.15,.53,.17,.78,.12,.94-.17,1.86-.51,2.8-.57,1.54-.1,3.09-.03,4.55-.03-.71-1.22-1.34-2.43-2.1-3.56-.37-.55-.89-1.17-1.47-1.37-3.26-1.09-6.45-.87-9.6,.87h0Zm12.76-4.38c-2.9-2.16-5.46-4.49-7.12-7.69-.41,.51-.71,.86-.98,1.22-2.05,2.7-1.94,4.15-.18,6.37,.22,.27,.67,.43,1.04,.5,1.12,.21,2.34,.15,3.36,.58,1.35,.56,2.42,.82,3.32-.6,.08-.13,.27-.19,.55-.37h0Zm56.48,8.24l.04-.06h-.07l.03,.06Z"/><path class="cls-1" d="M100.04,110.55c2.68-2.35,5.33-4.71,8.03-7.03,2.13-1.83,4.33-3.57,6.44-5.4,.97-.84,1.81-1.81,2.71-2.73,3.57-3.64,8.17-5.71,12.46-8.27,3.79-2.27,8.01-3.96,10.89-7.56,.49-.62,1.01-1.23,1.43-1.89,.16-.26,.23-.74,.09-.98-.12-.21-.57-.26-.89-.32-1.24-.23-1.97,.54-2.82,1.28-1.13,.99-2.36,1.86-3.63,2.67-1.35,.86-2.78,1.6-4.28,2.44,0-1.47,.07-2.81-.02-4.15-.14-2.21-1.08-4.05-2.82-5.46-.15-.13-.3-.26-.47-.37-4.58-2.89-9.53-4.7-14.99-4.56-2.87,.08-5.21,1.71-7.38,3.47-2.02,1.64-4.01,3.31-6.05,4.99-.26-.3-.43-.53-.63-.73-1.07-1.08-2.6-1.4-3.98-.72-2.45,1.21-4.4,3.02-5.83,5.32-.52,.83-.71,1.86-1.08,2.87-.7-.83-1.56-1.74-2.3-2.74-2.47-3.31-5.56-5.88-9.25-7.7-.7-.34-.86-.61-.56-1.33,1.51-3.62,2.92-7.28,4.49-10.87,.79-1.8,1.83-3.49,2.78-5.22,.56-1.01,1.27-1.95,1.7-3.01,.65-1.61,1.89-2.21,3.43-2.09,3.07,.25,6.14,.65,9.43,1.01-.45,1.28-.74,2.28-1.13,3.23-2.01,4.85-3.25,9.92-4.18,15.07-.07,.39-.22,.77-.22,1.16,0,.32,.1,.85,.29,.91,.29,.1,.83,.02,1.03-.2,.5-.55,.97-1.17,1.28-1.85,.64-1.41,1.14-2.88,1.73-4.31,1.68-4.11,3.37-8.21,5.08-12.37,1.97,.73,3.94,1.3,5.76,2.16,5.77,2.72,11.96,3.83,18.15,4.91,5.55,.96,11.14,1.72,16.8,1.69,3.5-.02,6.99,.31,10.49,.21,3.39-.1,6.76-.61,10.14-.82,2.98-.19,5.95-.92,8.95-.16,.1,.03,.2,.02,.29,.05,1.96,.46,1.95,.52,1.97,2.51,.01,1.33-.54,2.44-.98,3.64-.72,1.96-1.12,4.03-1.64,6.07-.5,1.98-1.06,3.95-1.42,5.96-.28,1.54-.4,3.13-.44,4.69-.08,2.86,.09,5.76-1.09,8.47-.3,.69-.61,1.41-1.08,1.98-2.5,3.02-4.89,6.15-7.64,8.94-3.35,3.4-6.88,6.65-10.56,9.68-5.26,4.34-10.68,8.5-16.14,12.6-1.58,1.19-3.47,2.04-5.31,2.81-4.74,1.98-9.53,3.84-14.31,5.73-.35,.14-.81,.23-1.14,.11-4.33-1.6-8.92-2-13.4-2.93-2.17-.45-4.34-.92-6.59-1.4,5.88-3.41,8.46-9.82,6-14.31,3.48-2.28,6.83-4.83,10.51-6.79,5.08-2.7,10.4-4.97,15.64-7.36,5.05-2.3,9.84-5.05,14.42-8.18,.73-.5,1.42-1.08,2.03-1.71,.48-.5,.56-1.26-.03-1.67-.39-.27-1.25-.39-1.58-.15-7.45,5.47-16.1,8.69-24.18,12.97-4.57,2.42-9.04,5.02-13.56,7.54-.23,.13-.47,.24-.7,.35-.06-.05-.12-.11-.18-.16h0Z"/><path class="cls-3" d="M54.63,72.34c-2.34-.36-4.44,.08-6.42,.93-2.81,1.21-5.38,2.82-7.3,5.26-1.56,1.98-3.35,3.81-3.83,6.47-.29,1.61-.8,3.18-1.27,4.75-.21,.69-.58,1.33-.82,2.01-.16,.43-.42,.95-.3,1.31,.33,.99-.29,1.45-.83,2.02-.59,.62-1.27,1.21-1.67,1.94-1,1.85-1.07,3.72,.37,5.44,.27,.33,.54,.65,.86,1.05-.82,.21-1.61,.3-2.31,.61-1.1,.48-2.12,1.13-3.2,1.68-.33,.17-.71,.31-1.07,.32-1.37,.04-2.76,.11-4.12-.03-1-.1-1.97-.46-2.94-.76-3.61-1.12-7.08-2.51-9.96-5.07-4.14-3.68-7.1-8-7.65-13.71-.51-5.32,0-10.51,1.54-15.62,.22-.73,.51-.89,1.26-.67,1.83,.52,3.68,1,5.55,1.35,.86,.16,1.33,.63,1.74,1.29,.3,.48,.55,.98,.87,1.44,.43,.61,1.18,.6,1.39-.09,1.47-4.62,5.41-6.47,9.3-8.4,3.74-1.86,7.7-2.78,11.86-2.46,4.78,.36,9.37,1.45,13.43,4.2,.41,.28,.83,.56,1.28,.75,1.83,.78,3.12,2.15,4.24,4.03h0Z"/><path class="cls-2" d="M84.51,91.16c-.68-.44-1.3-.79-1.86-1.22-1.37-1.04-2.74-.69-4.15-.1-.96,.4-1.79,.9-2.26,1.9-.3,.64-.77,.78-1.54,.47-2.55-1.01-5-.69-7.3,.81-.13,.09-.28,.14-.6,.29-1.34-3.09-2.66-6.13-3.98-9.18-1.06,.44-.97,1.16-.78,1.76,.44,1.4,.98,2.76,1.47,4.15,.03,.07-.04,.18-.11,.44-1.8-2.02-4.04-2.68-6.57-2.35-.41,.05-.76,.54-1.41,1.04,1.36,.35,2.43,.6,3.48,.91,.49,.14,1.01,.31,1.39,.62,.85,.7,1.62,1.5,2.37,2.35-2.06-.18-4.07-1.22-6.1-.27-.04,.14-.09,.28-.13,.42,.55,.27,1.09,.78,1.64,.78,2.05,0,3.81,.87,5.6,1.67,.27,.12,.52,.41,.65,.68,.97,2.04,1.76,4.19,2.89,6.13,.86,1.47,2.16,2.68,3.42,4.21-.58,.38-1.24,.79-1.88,1.22-1.22,.8-2.52,1.51-3.62,2.45-.69,.59-1.01-.03-1.35-.19-1.1-.51-2.16-1.14-3.16-1.83-1.44-.98-2.92-1.93-4.2-3.1-1.24-1.13-2.62-1.58-4.21-1.7-1.29-.1-2.58-.22-3.85-.42-.41-.07-.79-.4-1.14-.66-1.21-.92-2.44-1.82-3.57-2.83-1.13-1-2.18-2.1-3.22-3.2-.73-.78-1.55-1.56-2.01-2.49-.33-.67-.23-1.61-.13-2.4,.14-1.05,.45-2.07,.72-3.1,.96-3.65,1.96-7.29,5.01-9.86,1.77-1.5,3.67-2.69,6.14-2.78,1.4-.05,2.8-.44,4.19-.68,.16-.03,.32-.06,.49-.06,5.68-.14,11.36-.32,17.05-.37,1.68-.02,3.29,.56,4.65,1.64,1.17,.93,2.39,1.8,3.53,2.76,1.98,1.67,3.21,3.89,4.45,6.11,.23,.42,.61,.75,.84,1.17,.19,.35,.43,.82,.35,1.15-.32,1.24-.77,2.44-1.17,3.67h0Z"/><path class="cls-1" d="M114.56,84.4c-.92,.9-1.92,1.56-1.43,2.81,.56,1.43,1.91,.99,3.19,1.15-.53,.96-.4,1.81,.21,2.67,.14,.2-.08,.89-.34,1.11-2.88,2.46-5.8,4.86-8.78,7.34-.03-.02-.15-.17-.29-.18-.4-.02-.9-.11-1.17,.09-.21,.15-.15,.69-.21,1.06-.05,.31,0,.72-.18,.9-2.35,2.35-4.73,4.68-7.13,6.99-.19,.18-.51,.31-.77,.31-1.95-.03-3.86-.3-5.61-1.21-.27-.14-.52-.42-.67-.69-1.75-3.16-3.55-6.32-4.14-9.95-.43-2.64-.69-5.35,.11-7.93,.8-2.6,1.18-5.41,2.86-7.67,.92-1.24,1.97-2.39,3.03-3.52,.36-.38,.91-.68,1.43-.81,1.4-.34,2.51,.74,2.08,2.1-.25,.77-.84,1.43-1.3,2.13-.2,.3-.52,.52-.64,.84-.1,.26-.09,.73,.08,.88,.22,.18,.67,.26,.95,.16,3.18-1.03,6.33-2.12,9.51-3.16,.42-.14,.91-.09,1.37-.09,.67,0,.85,.35,.68,.97-.48,1.77-.23,2.06,1.62,2.25,1.36,.14,2.72,.37,4.05,.65,.48,.1,.9,.46,1.49,.78h0Zm-12.78,3.56c-.24,.58-.6,.99-.51,1.28,.39,1.32,.88,2.61,1.39,3.89,.22,.56,.7,.62,1.24,.38,.54-.24,.79-.62,.54-1.18-.51-1.14-1.04-2.27-1.62-3.37-.17-.31-.53-.52-1.03-1h0Z"/><path class="cls-1" d="M77.38,95.96c.07-2.24,.79-3.77,2.89-4.32,1.31-.35,2.98,.75,3.12,2.09,.36,3.57,2.02,6.67,3.59,9.78,.78,1.55,1.67,3.05,2.65,4.49,.46,.67,1.2,1.19,1.87,1.68,1.18,.86,1.66,1.98,1.51,3.29-2.68,.35-5.3,.76-7.94,1-.75,.07-1.61-.24-2.31-.6-1.69-.89-3.33-1.88-4.94-2.89-.48-.3-.78-.86-1.24-1.21-1.13-.85-2.47-1.49-3.41-2.5-.92-.99-1.31-2.49-2.21-3.51-1.63-1.86-1.97-4.17-2.61-6.38-.32-1.12,.2-1.97,1.34-2.45,2.13-.88,5.03-1.12,6.92,1.06,.15,.18,.41,.26,.77,.48h0Zm-.58,10.07c.24,.71,1.35,1.74,1.85,1.56,.35-.12,.76-.55,.81-.89,.12-.8-1-2.2-1.52-1.96-.48,.22-.77,.84-1.15,1.29h0Zm7.23,1.39c-.15,0-.3-.01-.45-.02-.28,.42-.78,.84-.77,1.24,.01,.35,.61,.67,.95,1.01,.33-.34,.88-.65,.92-1.03,.05-.37-.42-.8-.66-1.21Zm-5.15-8.89c-.41,.53-.87,.87-.85,1.17,.02,.32,.55,.88,.78,.85,.36-.06,.83-.48,.91-.83,.06-.26-.43-.64-.84-1.19h0Z"/><path class="cls-1" d="M67.54,127.27c-.83,.67-1.57,.5-2.36,.1-.76-.39-.68-.99-.58-1.67,.53-3.33-1.29-6.36-4.83-8.15-2.51-1.27-5.04-.92-7.7-.19-1.19-2.1-2.92-3.7-5.09-4.88-.54-.29-.88-.96-1.27-1.49-.68-.93-1.37-1.85-1.95-2.84-.36-.6-.54-1.32-.74-2-.04-.15,.12-.43,.27-.55,.51-.41,1.06-.78,1.47-1.08,2.55,1.18,5.09,2,7.79,2.14,.94,.05,1.74,.24,2.47,.78,1.43,1.06,2.84,2.15,4.28,3.19,2.58,1.87,5.18,3.71,7.76,5.57,.85,.61,1.66,1.27,2.41,1.84-.67,1.48-1.38,3.04-2.1,4.6-.71,1.54-.75,3.05,.15,4.63h0Z"/><path class="cls-1" d="M71.15,116.55c1.85-1.48,3.71-2.96,5.62-4.49,1.16,.69,2.38,1.39,3.57,2.14,2.53,1.6,5.21,1.87,8.14,1.37,1.82-.32,3.73-.14,5.6-.16,.78-.01,1.19,.44,1.58,1.11,1.46,2.55,.7,4.83-.72,7.06-.28,.44-.68,.81-.97,1.25-1.76,2.64-4.37,3.38-7.32,3.15-.93-.07-1.97-.42-2.72-.97-1.96-1.41-3.3-3.22-3.19-5.86,.09-2.06-1.02-3.49-2.87-4.33-2.18-.99-4.37-1.49-6.59,.08-.04-.11-.09-.23-.13-.34h0Z"/><path class="cls-1" d="M33.87,112.99c-1.89,1.34-2.32,3.22-2.46,5.26-.16,2.3-2.94,4.5-5.22,4.08-3.32-.61-5.59-2.63-7-5.62-.26-.55-.18-1.29-.14-1.93,.07-1.22,.25-2.43,.33-3.64,.05-.73,.35-1.24,1-1.58,.38-.2,.76-.42,1.07-.7,3.25-2.92,7.27-1.59,9.55,.81,.97,1.02,1.85,2.13,2.87,3.32h0Z"/><path class="cls-1" d="M43.93,125.26c-1.74-.02-3.33-.45-4.66-1.62-1.36-1.2-2.71-2.41-4.08-3.6-.58-.51-.74-1.07-.58-1.85,.2-.91,.07-1.85,.8-2.65,1.52-1.66,3.52-2.29,5.59-2.29,3.77,.01,6.91,1.49,9.02,4.78,.37,.57,.53,1.11,.24,1.75-.18,.39-.28,.81-.41,1.22-.86,2.72-3.06,4.3-5.92,4.25h0Z"/><path class="cls-1" d="M50.9,124.97c.68-2.14,1.28-4.03,1.89-5.98,2.97-.46,5.85-.3,8.21,2.14,1.51,1.56,1.84,3.13,.99,5.36-.63,1.65-2.7,2.64-4.67,2.43-3.59-.39-3.97-.62-6.42-3.94h0Z"/><path class="cls-1" d="M73.97,117.9c2.33,.23,3.72,1.45,4.96,2.8,.34,.36,.4,1.13,.33,1.69-.16,1.37-.38,2.74-.73,4.06-.38,1.41-2.26,3.32-4.03,3.02-.13-.02-.27,0-.39-.03-2.61-.52-4.76-3.76-4.58-6.38,.14-2,1.1-3.34,2.57-4.41,.6-.44,1.42-.58,1.86-.75h0Z"/><path class="cls-1" d="M30.45,107.13c3.14-1.74,6.33-1.96,9.6-.87,.58,.2,1.1,.82,1.47,1.37,.76,1.13,1.39,2.34,2.1,3.56-1.46,0-3.01-.07-4.55,.03-.94,.06-1.86,.4-2.8,.57-.25,.05-.63,.03-.78-.12-.76-.8-1.41-1.74-2.22-2.48-.82-.75-1.79-1.32-2.81-2.05h0Z"/><path class="cls-1" d="M43.21,102.75c-.28,.19-.47,.25-.55,.37-.9,1.42-1.98,1.16-3.32,.6-1.02-.43-2.24-.36-3.36-.58-.37-.07-.82-.23-1.04-.5-1.77-2.22-1.88-3.66,.18-6.37,.27-.36,.57-.71,.98-1.22,1.66,3.19,4.22,5.53,7.12,7.69h0Z"/><polygon class="cls-1" points="99.7 111 99.66 110.93 99.73 110.93 99.7 111"/><path class="cls-1" d="M100.22,110.7c-.1,.02-.19,.04-.29,.06,.04-.07,.08-.15,.11-.22,.06,.05,.12,.11,.18,.16Z"/><path class="cls-5" d="M101.79,87.96c.5,.48,.87,.69,1.03,1,.58,1.1,1.11,2.23,1.62,3.37,.25,.56,0,.94-.54,1.18s-1.01,.18-1.24-.38c-.51-1.28-1-2.57-1.39-3.89-.09-.29,.27-.71,.51-1.28h0Z"/><path class="cls-5" d="M76.8,106.04c.38-.45,.67-1.07,1.15-1.29,.52-.24,1.64,1.17,1.52,1.96-.05,.34-.47,.77-.81,.89-.51,.18-1.62-.85-1.85-1.56h0Z"/><path class="cls-5" d="M84.04,107.43c.24,.4,.7,.84,.66,1.21-.05,.38-.6,.69-.92,1.03-.34-.34-.94-.66-.95-1.01-.01-.41,.49-.83,.77-1.24,.15,0,.3,.01,.45,.02Z"/><path class="cls-5" d="M78.88,98.53c.41,.54,.9,.93,.84,1.19-.08,.35-.56,.78-.91,.83-.23,.04-.75-.53-.78-.85-.02-.3,.44-.64,.85-1.17h0Z"/></g></svg>