<?xml version="1.0" encoding="utf-8"?>
<!-- Generator: Adobe Illustrator 27.0.1, SVG Export Plug-In . SVG Version: 6.00 Build 0)  -->
<svg version="1.1" id="Layer_1" xmlns="http://www.w3.org/2000/svg" xmlns:xlink="http://www.w3.org/1999/xlink" x="0px" y="0px"
	 viewBox="0 0 175 190" style="enable-background:new 0 0 175 190;" xml:space="preserve">
<style type="text/css">
	.st0{fill:#A5A49F;}
	.st1{fill:#FFFFFF;}
	.st2{fill:#524C4C;}
	.st3{fill:#828A43;}
	.st4{fill:#B3BD80;}
	.st5{fill:#677432;}
	.st6{fill:#7F7474;}
	.st7{enable-background:new    ;}
</style>
<polygon class="st3" points="162.5,137.9 87.5,181.2 12.5,137.9 12.5,51.3 87.5,8 162.5,51.3 "/>
<g class="st7">
	<path class="st1" d="M62.8,57.5v3.6h-2.1V50.9h3.5c1,0,1.8,0.3,2.4,0.9s0.9,1.4,0.9,2.4c0,1-0.3,1.8-0.9,2.4
		c-0.6,0.6-1.4,0.9-2.5,0.9H62.8z M62.8,55.8h1.4c0.4,0,0.7-0.1,0.9-0.4c0.2-0.3,0.3-0.6,0.3-1.1c0-0.5-0.1-0.9-0.3-1.2
		c-0.2-0.3-0.5-0.5-0.9-0.5h-1.4V55.8z"/>
</g>
<g class="st7">
	<path class="st1" d="M72.3,61.1c-0.1-0.1-0.1-0.3-0.2-0.6c-0.4,0.5-0.8,0.7-1.4,0.7c-0.6,0-1.2-0.2-1.6-0.6c-0.4-0.4-0.6-1-0.6-1.6
		c0-0.8,0.3-1.4,0.8-1.8c0.5-0.4,1.2-0.7,2.2-0.7H72v-0.6c0-0.3-0.1-0.6-0.2-0.7c-0.1-0.1-0.3-0.2-0.5-0.2c-0.5,0-0.7,0.3-0.7,0.9
		h-2c0-0.7,0.3-1.3,0.8-1.7c0.5-0.5,1.2-0.7,2-0.7c0.8,0,1.5,0.2,1.9,0.6c0.5,0.4,0.7,1.1,0.7,1.9v3.6c0,0.7,0.1,1.2,0.3,1.5v0.1
		H72.3z M71.1,59.7c0.2,0,0.4,0,0.6-0.1c0.2-0.1,0.3-0.2,0.3-0.3v-1.6h-0.5c-0.3,0-0.6,0.1-0.8,0.3c-0.2,0.2-0.3,0.5-0.3,0.9
		C70.5,59.4,70.7,59.7,71.1,59.7z"/>
	<path class="st1" d="M77.9,57.8l1-4.3H81l-2.5,8.7c-0.4,1.3-1.1,1.9-2.1,1.9c-0.2,0-0.5,0-0.8-0.1v-1.6l0.2,0
		c0.3,0,0.5-0.1,0.7-0.2c0.2-0.1,0.3-0.3,0.4-0.6l0.2-0.5l-2.2-7.7H77L77.9,57.8z"/>
	<path class="st1" d="M83.7,53.5l0.1,0.7c0.4-0.6,1-0.8,1.8-0.8c0.8,0,1.3,0.3,1.6,1c0.4-0.7,1.1-1,1.9-1c1.3,0,2,0.9,2,2.8v5h-2
		v-4.8c0-0.4-0.1-0.8-0.2-0.9c-0.1-0.2-0.3-0.3-0.6-0.3c-0.4,0-0.6,0.2-0.8,0.7l0,0.2v5.1h-2v-4.8c0-0.4-0.1-0.7-0.2-0.9
		C85.2,55.1,85,55,84.7,55c-0.3,0-0.6,0.2-0.8,0.6v5.5h-2v-7.6H83.7z"/>
	<path class="st1" d="M95.6,61.2c-1,0-1.8-0.3-2.4-0.9c-0.6-0.6-0.9-1.5-0.9-2.6v-0.6c0-1.2,0.3-2.1,0.8-2.8c0.5-0.6,1.3-1,2.3-1
		c1,0,1.7,0.3,2.2,0.9c0.5,0.6,0.7,1.5,0.7,2.7v1h-3.9c0,0.6,0.2,1,0.4,1.2c0.2,0.3,0.6,0.4,1,0.4c0.7,0,1.2-0.2,1.7-0.7l0.8,1.2
		c-0.2,0.3-0.6,0.6-1.1,0.8C96.6,61.1,96.1,61.2,95.6,61.2z M94.3,56.6h2v-0.2c0-0.5-0.1-0.8-0.2-1C96,55.1,95.7,55,95.4,55
		c-0.3,0-0.6,0.1-0.8,0.4C94.5,55.6,94.4,56,94.3,56.6z"/>
	<path class="st1" d="M101.2,53.5l0.1,0.8c0.4-0.6,1-0.9,1.8-0.9c1.3,0,2,0.9,2,2.7v5h-2v-4.8c0-0.4-0.1-0.7-0.2-0.9
		c-0.1-0.2-0.4-0.3-0.7-0.3c-0.4,0-0.6,0.2-0.8,0.6v5.5h-2v-7.6H101.2z"/>
	<path class="st1" d="M108.8,51.6v1.9h1V55h-1v3.8c0,0.3,0,0.5,0.1,0.6c0.1,0.1,0.2,0.2,0.5,0.2c0.2,0,0.3,0,0.5,0l0,1.5
		c-0.3,0.1-0.7,0.2-1.1,0.2c-1.3,0-1.9-0.7-1.9-2.2v-4h-0.9v-1.5h0.9v-1.9H108.8z"/>
	<path class="st1" d="M114.2,59c0-0.2-0.1-0.3-0.2-0.5c-0.2-0.1-0.5-0.3-1.1-0.6c-0.8-0.3-1.4-0.7-1.7-1c-0.3-0.4-0.5-0.8-0.5-1.3
		c0-0.7,0.2-1.2,0.7-1.6c0.5-0.4,1.1-0.6,1.9-0.6c0.8,0,1.5,0.2,2,0.6c0.5,0.4,0.8,1,0.8,1.7h-2c0-0.6-0.3-0.9-0.8-0.9
		c-0.2,0-0.4,0.1-0.5,0.2c-0.1,0.1-0.2,0.3-0.2,0.5c0,0.2,0.1,0.3,0.2,0.4c0.1,0.1,0.5,0.3,1.1,0.6c0.8,0.3,1.4,0.6,1.7,1
		c0.3,0.4,0.5,0.8,0.5,1.4c0,0.7-0.3,1.2-0.8,1.6c-0.5,0.4-1.2,0.6-2,0.6c-0.6,0-1-0.1-1.5-0.3c-0.4-0.2-0.8-0.5-1-0.9
		c-0.2-0.4-0.4-0.8-0.4-1.3h1.9c0,0.3,0.1,0.6,0.2,0.8c0.2,0.2,0.4,0.3,0.7,0.3C114,59.8,114.2,59.5,114.2,59z"/>
</g>
<g>
	<path class="st1" d="M44.3,77.1h-1.8v6.1h-0.9v-6.1h-1.8v-0.7h4.4L44.3,77.1L44.3,77.1z"/>
	<path class="st1" d="M47,83.3c-0.6,0-1.1-0.2-1.4-0.6C45.2,82.3,45,81.8,45,81v-0.6c0-0.8,0.2-1.3,0.5-1.8c0.3-0.4,0.8-0.6,1.4-0.6
		c0.6,0,1,0.2,1.3,0.6c0.3,0.4,0.4,1,0.5,1.8v0.5h-2.8V81c0,0.5,0.1,0.9,0.3,1.2c0.2,0.2,0.5,0.4,0.9,0.4c0.2,0,0.5,0,0.6-0.1
		c0.2-0.1,0.4-0.2,0.5-0.4l0.4,0.5C48.3,83,47.7,83.2,47,83.3L47,83.3z M46.9,78.7c-0.3,0-0.6,0.1-0.8,0.4c-0.2,0.2-0.3,0.6-0.3,1.1
		h2v-0.1c0-0.5-0.1-0.8-0.3-1C47.4,78.8,47.2,78.7,46.9,78.7L46.9,78.7z"/>
	<path class="st1" d="M50.5,78.1l0,0.5c0.3-0.4,0.7-0.6,1.2-0.6c0.6,0,1,0.2,1.2,0.7c0.3-0.5,0.8-0.7,1.3-0.7c0.9,0,1.4,0.6,1.4,1.7
		v3.4h-0.8v-3.3c0-0.4-0.1-0.6-0.2-0.8c-0.1-0.2-0.4-0.3-0.7-0.3c-0.2,0-0.5,0.1-0.6,0.3s-0.2,0.4-0.3,0.7v3.4h-0.8v-3.4
		c0-0.7-0.3-1.1-0.9-1.1c-0.4,0-0.7,0.2-0.9,0.6v3.8h-0.8v-5.1L50.5,78.1L50.5,78.1z"/>
	<path class="st1" d="M60.5,80.9c0,0.8-0.1,1.4-0.4,1.8c-0.3,0.4-0.7,0.6-1.2,0.6c-0.5,0-0.9-0.2-1.2-0.6v2.4h-0.8v-7h0.7l0,0.6
		c0.3-0.4,0.7-0.7,1.2-0.7c0.6,0,1,0.2,1.2,0.6c0.3,0.4,0.4,1,0.4,1.7L60.5,80.9L60.5,80.9z M59.7,80.4c0-0.6-0.1-1-0.3-1.3
		c-0.2-0.3-0.5-0.4-0.8-0.4c-0.4,0-0.7,0.2-0.9,0.6V82c0.2,0.4,0.5,0.6,0.9,0.6c0.4,0,0.6-0.1,0.8-0.4c0.2-0.3,0.3-0.7,0.3-1.2
		L59.7,80.4L59.7,80.4z"/>
	<path class="st1" d="M61.4,80.4c0-0.7,0.2-1.3,0.5-1.7c0.4-0.4,0.8-0.6,1.4-0.6c0.6,0,1.1,0.2,1.4,0.6s0.5,1,0.5,1.7v0.5
		c0,0.7-0.2,1.3-0.5,1.7c-0.4,0.4-0.8,0.6-1.4,0.6S62.3,83,62,82.6c-0.4-0.4-0.5-1-0.5-1.7L61.4,80.4L61.4,80.4z M62.3,80.9
		c0,0.5,0.1,0.9,0.3,1.2c0.2,0.3,0.5,0.4,0.8,0.4c0.7,0,1.1-0.5,1.1-1.6v-0.6c0-0.5-0.1-0.9-0.3-1.2c-0.2-0.3-0.5-0.5-0.8-0.5
		s-0.6,0.2-0.8,0.5c-0.2,0.3-0.3,0.7-0.3,1.2V80.9L62.3,80.9z"/>
	<path class="st1" d="M68.5,78.9c-0.1,0-0.2,0-0.4,0c-0.4,0-0.7,0.2-0.9,0.7v3.6h-0.8v-5.1h0.8l0,0.5c0.2-0.4,0.5-0.6,0.9-0.6
		c0.1,0,0.2,0,0.3,0.1L68.5,78.9L68.5,78.9z"/>
	<path class="st1" d="M71.7,83.2c-0.1-0.1-0.1-0.3-0.1-0.6c-0.3,0.4-0.7,0.6-1.1,0.6s-0.8-0.1-1.1-0.4S69,82.2,69,81.8
		c0-0.5,0.2-0.9,0.5-1.2c0.3-0.3,0.8-0.5,1.4-0.5h0.6v-0.5c0-0.3-0.1-0.5-0.2-0.6c-0.1-0.1-0.3-0.2-0.6-0.2c-0.2,0-0.5,0.1-0.6,0.2
		C70,79.1,70,79.3,70,79.5h-0.8c0-0.3,0.1-0.5,0.2-0.7c0.2-0.2,0.4-0.4,0.6-0.6s0.5-0.2,0.9-0.2c0.5,0,0.9,0.1,1.2,0.4
		c0.3,0.3,0.4,0.6,0.4,1.1v2.6c0,0.4,0.1,0.7,0.2,1v0.1L71.7,83.2L71.7,83.2z M70.6,82.5c0.2,0,0.4-0.1,0.6-0.2
		c0.2-0.1,0.3-0.3,0.4-0.4v-1.2h-0.5c-0.4,0-0.7,0.1-0.9,0.3s-0.3,0.4-0.3,0.7c0,0.3,0.1,0.5,0.2,0.6C70.2,82.4,70.4,82.5,70.6,82.5
		L70.6,82.5z"/>
	<path class="st1" d="M75.8,78.9c-0.1,0-0.2,0-0.4,0c-0.4,0-0.7,0.2-0.9,0.7v3.6h-0.8v-5.1h0.8l0,0.5c0.2-0.4,0.5-0.6,0.9-0.6
		c0.1,0,0.2,0,0.3,0.1L75.8,78.9L75.8,78.9z"/>
	<path class="st1" d="M78,81.8l0.9-3.7h0.9l-1.7,5.8c-0.1,0.4-0.3,0.8-0.5,1c-0.2,0.2-0.5,0.3-0.8,0.3c-0.1,0-0.3,0-0.4-0.1v-0.7
		l0.2,0c0.2,0,0.4-0.1,0.6-0.2s0.2-0.3,0.3-0.6l0.2-0.6l-1.5-5h0.9L78,81.8L78,81.8z"/>
	<path class="st1" d="M86.1,81.4h-2.3l-0.5,1.8h-0.9l2.2-6.8h0.7l2.2,6.8h-0.9L86.1,81.4z M84,80.6h1.9L85,77.5L84,80.6L84,80.6z"/>
	<path class="st1" d="M90.8,81.9c0-0.2-0.1-0.3-0.2-0.5c-0.1-0.1-0.4-0.3-0.8-0.5c-0.4-0.2-0.8-0.3-0.9-0.5
		c-0.2-0.1-0.3-0.3-0.4-0.4c-0.1-0.2-0.1-0.4-0.1-0.6c0-0.4,0.2-0.8,0.5-1c0.3-0.3,0.7-0.4,1.2-0.4c0.5,0,0.9,0.1,1.2,0.4
		c0.3,0.3,0.5,0.7,0.5,1.1h-0.8c0-0.2-0.1-0.4-0.2-0.6c-0.2-0.2-0.3-0.2-0.6-0.2c-0.2,0-0.4,0.1-0.6,0.2c-0.1,0.1-0.2,0.3-0.2,0.5
		c0,0.2,0.1,0.3,0.2,0.4c0.1,0.1,0.3,0.2,0.7,0.4c0.6,0.2,1,0.5,1.3,0.7c0.2,0.2,0.3,0.5,0.3,0.9c0,0.4-0.2,0.8-0.5,1.1
		c-0.3,0.3-0.7,0.4-1.2,0.4s-1-0.2-1.3-0.5c-0.3-0.3-0.5-0.7-0.5-1.1H89c0,0.3,0.1,0.5,0.3,0.7c0.2,0.2,0.4,0.2,0.7,0.2
		c0.3,0,0.5-0.1,0.6-0.2C90.7,82.2,90.8,82.1,90.8,81.9L90.8,81.9z"/>
	<path class="st1" d="M95.1,81.9c0-0.2-0.1-0.3-0.2-0.5c-0.1-0.1-0.4-0.3-0.8-0.5c-0.4-0.2-0.8-0.3-0.9-0.5
		c-0.2-0.1-0.3-0.3-0.4-0.4c-0.1-0.2-0.1-0.4-0.1-0.6c0-0.4,0.2-0.8,0.5-1c0.3-0.3,0.7-0.4,1.2-0.4c0.5,0,0.9,0.1,1.2,0.4
		s0.5,0.7,0.5,1.1h-0.8c0-0.2-0.1-0.4-0.2-0.6c-0.2-0.2-0.3-0.2-0.6-0.2c-0.2,0-0.4,0.1-0.6,0.2c-0.1,0.1-0.2,0.3-0.2,0.5
		c0,0.2,0.1,0.3,0.2,0.4c0.1,0.1,0.3,0.2,0.7,0.4c0.6,0.2,1,0.5,1.3,0.7c0.2,0.2,0.3,0.5,0.3,0.9c0,0.4-0.2,0.8-0.5,1.1
		c-0.3,0.3-0.7,0.4-1.2,0.4s-1-0.2-1.3-0.5c-0.3-0.3-0.5-0.7-0.5-1.1h0.8c0,0.3,0.1,0.5,0.3,0.7c0.2,0.2,0.4,0.2,0.7,0.2
		c0.3,0,0.5-0.1,0.6-0.2C95.1,82.2,95.1,82.1,95.1,81.9L95.1,81.9z"/>
	<path class="st1" d="M98,76.8c0,0.1,0,0.3-0.1,0.3c-0.1,0.1-0.2,0.1-0.4,0.1c-0.2,0-0.3,0-0.3-0.1c-0.1-0.1-0.1-0.2-0.1-0.3
		c0-0.1,0-0.3,0.1-0.4c0.1-0.1,0.2-0.1,0.3-0.1c0.2,0,0.3,0.1,0.4,0.1C98,76.5,98,76.6,98,76.8z M97.9,83.2h-0.8v-5.1h0.8V83.2z"/>
	<path class="st1" d="M101.7,81.9c0-0.2-0.1-0.3-0.2-0.5c-0.1-0.1-0.4-0.3-0.8-0.5c-0.4-0.2-0.8-0.3-0.9-0.5
		c-0.2-0.1-0.3-0.3-0.4-0.4c-0.1-0.2-0.1-0.4-0.1-0.6c0-0.4,0.2-0.8,0.5-1c0.3-0.3,0.7-0.4,1.2-0.4c0.5,0,0.9,0.1,1.2,0.4
		c0.3,0.3,0.5,0.7,0.5,1.1h-0.8c0-0.2-0.1-0.4-0.2-0.6c-0.2-0.2-0.3-0.2-0.6-0.2c-0.2,0-0.4,0.1-0.6,0.2c-0.1,0.1-0.2,0.3-0.2,0.5
		c0,0.2,0.1,0.3,0.2,0.4c0.1,0.1,0.3,0.2,0.7,0.4c0.6,0.2,1,0.5,1.3,0.7c0.2,0.2,0.3,0.5,0.3,0.9c0,0.4-0.2,0.8-0.5,1.1
		c-0.3,0.3-0.7,0.4-1.2,0.4s-1-0.2-1.3-0.5c-0.3-0.3-0.5-0.7-0.5-1.1h0.8c0,0.3,0.1,0.5,0.3,0.7c0.2,0.2,0.4,0.2,0.7,0.2
		c0.3,0,0.5-0.1,0.6-0.2C101.6,82.2,101.7,82.1,101.7,81.9L101.7,81.9z"/>
	<path class="st1" d="M104.7,76.9v1.2h0.8v0.7h-0.8v3.1c0,0.2,0,0.4,0.1,0.5c0.1,0.1,0.2,0.2,0.3,0.2c0.1,0,0.2,0,0.3-0.1l0,0.7
		c-0.2,0.1-0.4,0.1-0.6,0.1c-0.3,0-0.6-0.1-0.7-0.3c-0.2-0.2-0.3-0.6-0.3-1v-3.1h-0.8v-0.7h0.8v-1.2L104.7,76.9L104.7,76.9z"/>
	<path class="st1" d="M109,83.2c-0.1-0.1-0.1-0.3-0.1-0.6c-0.3,0.4-0.7,0.6-1.1,0.6c-0.5,0-0.8-0.1-1.1-0.4
		c-0.3-0.3-0.4-0.6-0.4-1.1c0-0.5,0.2-0.9,0.5-1.2c0.3-0.3,0.8-0.5,1.4-0.5h0.6v-0.5c0-0.3-0.1-0.5-0.2-0.6
		c-0.1-0.1-0.3-0.2-0.6-0.2c-0.2,0-0.5,0.1-0.6,0.2c-0.2,0.1-0.2,0.3-0.2,0.6h-0.8c0-0.3,0.1-0.5,0.2-0.7c0.2-0.2,0.4-0.4,0.6-0.6
		s0.5-0.2,0.9-0.2c0.5,0,0.9,0.1,1.2,0.4c0.3,0.3,0.4,0.6,0.4,1.1v2.6c0,0.4,0.1,0.7,0.2,1v0.1L109,83.2L109,83.2z M107.9,82.5
		c0.2,0,0.4-0.1,0.6-0.2s0.3-0.3,0.4-0.4v-1.2h-0.5c-0.4,0-0.7,0.1-0.9,0.3s-0.3,0.4-0.3,0.7c0,0.3,0.1,0.5,0.2,0.6
		C107.5,82.4,107.7,82.5,107.9,82.5L107.9,82.5z"/>
	<path class="st1" d="M111.8,78.1l0,0.5c0.3-0.4,0.7-0.6,1.2-0.6c0.9,0,1.3,0.6,1.4,1.8v3.4h-0.8v-3.3c0-0.4-0.1-0.7-0.2-0.8
		c-0.1-0.2-0.3-0.2-0.6-0.2c-0.2,0-0.4,0.1-0.6,0.2c-0.2,0.1-0.3,0.3-0.4,0.5v3.7H111v-5.1H111.8L111.8,78.1z"/>
	<path class="st1" d="M117.4,82.5c0.3,0,0.5-0.1,0.7-0.3c0.2-0.2,0.3-0.4,0.3-0.7h0.8c0,0.5-0.2,0.9-0.5,1.2
		c-0.3,0.3-0.7,0.5-1.2,0.5c-0.6,0-1.1-0.2-1.4-0.6c-0.3-0.4-0.5-1-0.5-1.8v-0.6c0-0.8,0.2-1.3,0.5-1.7s0.8-0.6,1.4-0.6
		c0.5,0,0.9,0.2,1.2,0.5c0.3,0.3,0.5,0.8,0.5,1.3h-0.8c0-0.4-0.1-0.7-0.3-0.8c-0.2-0.2-0.4-0.3-0.7-0.3c-0.4,0-0.6,0.1-0.8,0.4
		c-0.2,0.2-0.3,0.6-0.3,1.2v0.6c0,0.6,0.1,1,0.3,1.3C116.8,82.4,117,82.5,117.4,82.5L117.4,82.5z"/>
	<path class="st1" d="M121.9,83.3c-0.6,0-1.1-0.2-1.4-0.6s-0.5-0.9-0.5-1.7v-0.6c0-0.8,0.2-1.3,0.5-1.8c0.3-0.4,0.8-0.6,1.4-0.6
		s1,0.2,1.3,0.6c0.3,0.4,0.4,1,0.5,1.8v0.5h-2.8V81c0,0.5,0.1,0.9,0.3,1.2c0.2,0.2,0.5,0.4,0.9,0.4c0.2,0,0.5,0,0.6-0.1
		c0.2-0.1,0.4-0.2,0.5-0.4l0.4,0.5C123.2,83,122.6,83.2,121.9,83.3L121.9,83.3z M121.8,78.7c-0.3,0-0.6,0.1-0.8,0.4
		c-0.2,0.2-0.3,0.6-0.3,1.1h2v-0.1c0-0.5-0.1-0.8-0.3-1S122.1,78.7,121.8,78.7L121.8,78.7z"/>
	<path class="st1" d="M127.1,83.2v-4.4h-0.7v-0.7h0.7v-0.6c0-0.5,0.1-0.9,0.4-1.2s0.6-0.4,1.1-0.4c0.2,0,0.3,0,0.5,0.1l0,0.7
		c-0.1,0-0.2,0-0.4,0c-0.5,0-0.7,0.3-0.7,1v0.5h0.9v0.7h-0.9v4.4L127.1,83.2L127.1,83.2z"/>
	<path class="st1" d="M129.6,80.4c0-0.7,0.2-1.3,0.5-1.7c0.4-0.4,0.8-0.6,1.4-0.6c0.6,0,1.1,0.2,1.4,0.6c0.4,0.4,0.5,1,0.5,1.7v0.5
		c0,0.7-0.2,1.3-0.5,1.7c-0.4,0.4-0.8,0.6-1.4,0.6c-0.6,0-1.1-0.2-1.4-0.6s-0.5-1-0.5-1.7L129.6,80.4L129.6,80.4z M130.4,80.9
		c0,0.5,0.1,0.9,0.3,1.2c0.2,0.3,0.5,0.4,0.8,0.4c0.7,0,1.1-0.5,1.1-1.6v-0.6c0-0.5-0.1-0.9-0.3-1.2s-0.5-0.5-0.8-0.5
		s-0.6,0.2-0.8,0.5c-0.2,0.3-0.3,0.7-0.3,1.2L130.4,80.9L130.4,80.9z"/>
	<path class="st1" d="M136.7,78.9c-0.1,0-0.2,0-0.4,0c-0.4,0-0.7,0.2-0.9,0.7v3.6h-0.8v-5.1h0.8l0,0.5c0.2-0.4,0.5-0.6,0.9-0.6
		c0.1,0,0.2,0,0.3,0.1L136.7,78.9L136.7,78.9z"/>
	<path class="st1" d="M64.7,94.6h-0.9l-2.7-5.2v5.2h-0.9v-6.8h0.9l2.7,5.3v-5.3h0.8L64.7,94.6L64.7,94.6z"/>
	<path class="st1" d="M67.8,94.7c-0.6,0-1.1-0.2-1.4-0.6c-0.3-0.4-0.5-0.9-0.5-1.7v-0.6c0-0.8,0.2-1.3,0.5-1.8
		c0.3-0.4,0.8-0.6,1.4-0.6s1,0.2,1.3,0.6c0.3,0.4,0.4,1,0.5,1.8v0.5h-2.8v0.1c0,0.5,0.1,0.9,0.3,1.2s0.5,0.4,0.9,0.4
		c0.2,0,0.5,0,0.6-0.1c0.2-0.1,0.4-0.2,0.5-0.4l0.4,0.5C69.1,94.5,68.6,94.7,67.8,94.7L67.8,94.7z M67.8,90.2
		c-0.3,0-0.6,0.1-0.8,0.4s-0.3,0.6-0.3,1.1h2v-0.1c0-0.5-0.1-0.8-0.3-1C68.3,90.3,68.1,90.2,67.8,90.2L67.8,90.2z"/>
	<path class="st1" d="M72.3,94.7c-0.6,0-1.1-0.2-1.4-0.6c-0.3-0.4-0.5-0.9-0.5-1.7v-0.6c0-0.8,0.2-1.3,0.5-1.8
		c0.3-0.4,0.8-0.6,1.4-0.6s1,0.2,1.3,0.6c0.3,0.4,0.4,1,0.5,1.8v0.5h-2.8v0.1c0,0.5,0.1,0.9,0.3,1.2S72,94,72.4,94
		c0.2,0,0.5,0,0.6-0.1c0.2-0.1,0.4-0.2,0.5-0.4L74,94C73.6,94.5,73.1,94.7,72.3,94.7L72.3,94.7z M72.2,90.2c-0.3,0-0.6,0.1-0.8,0.4
		s-0.3,0.6-0.3,1.1h2v-0.1c0-0.5-0.1-0.8-0.3-1C72.8,90.3,72.6,90.2,72.2,90.2L72.2,90.2z"/>
	<path class="st1" d="M74.8,91.9c0-0.8,0.1-1.4,0.4-1.8c0.3-0.4,0.7-0.6,1.3-0.6c0.5,0,0.9,0.2,1.1,0.6v-2.6h0.8v7.2h-0.8l0-0.5
		c-0.3,0.4-0.7,0.6-1.2,0.6s-0.9-0.2-1.2-0.6c-0.3-0.4-0.5-1-0.5-1.7L74.8,91.9L74.8,91.9z M75.7,92.4c0,0.6,0.1,1,0.3,1.2
		s0.4,0.4,0.8,0.4c0.4,0,0.7-0.2,0.9-0.6v-2.5c-0.2-0.4-0.5-0.6-0.9-0.6s-0.7,0.1-0.8,0.4c-0.2,0.3-0.3,0.7-0.3,1.2V92.4L75.7,92.4z
		"/>
	<path class="st1" d="M81.1,93.3l0.9-3.7h0.9l-1.7,5.8c-0.1,0.4-0.3,0.8-0.5,1c-0.2,0.2-0.5,0.3-0.8,0.3c-0.1,0-0.3,0-0.4-0.1v-0.7
		l0.2,0c0.2,0,0.4-0.1,0.6-0.2s0.2-0.3,0.3-0.6l0.2-0.6l-1.5-5h0.9L81.1,93.3L81.1,93.3z"/>
	<path class="st1" d="M89.2,91.6h-2.3v3h-0.9v-6.8h3.5v0.7h-2.7v2.3h2.3L89.2,91.6L89.2,91.6z"/>
	<path class="st1" d="M93,94.6c-0.1-0.1-0.1-0.3-0.1-0.6c-0.3,0.4-0.7,0.6-1.1,0.6s-0.8-0.1-1.1-0.4c-0.3-0.3-0.4-0.6-0.4-1.1
		c0-0.5,0.2-0.9,0.5-1.2c0.3-0.3,0.8-0.5,1.4-0.5h0.6V91c0-0.3-0.1-0.5-0.2-0.6c-0.1-0.1-0.3-0.2-0.6-0.2c-0.2,0-0.5,0.1-0.6,0.2
		c-0.2,0.1-0.2,0.3-0.2,0.6h-0.8c0-0.3,0.1-0.5,0.2-0.7c0.2-0.2,0.4-0.4,0.6-0.6c0.3-0.1,0.5-0.2,0.9-0.2c0.5,0,0.9,0.1,1.2,0.4
		c0.3,0.3,0.4,0.6,0.4,1.1v2.6c0,0.4,0.1,0.7,0.2,1v0.1L93,94.6L93,94.6z M91.9,94c0.2,0,0.4-0.1,0.6-0.2s0.3-0.3,0.4-0.4v-1.2h-0.5
		c-0.4,0-0.7,0.1-0.9,0.3s-0.3,0.4-0.3,0.7c0,0.3,0.1,0.5,0.2,0.6S91.6,94,91.9,94L91.9,94z"/>
	<path class="st1" d="M95.7,89.6l0,0.5c0.3-0.4,0.7-0.6,1.2-0.6c0.6,0,1,0.2,1.2,0.7c0.3-0.5,0.8-0.7,1.3-0.7c0.9,0,1.4,0.6,1.4,1.7
		v3.4h-0.8v-3.3c0-0.4-0.1-0.6-0.2-0.8c-0.1-0.2-0.4-0.3-0.7-0.3c-0.2,0-0.5,0.1-0.6,0.3c-0.2,0.2-0.2,0.4-0.3,0.7v3.4h-0.8v-3.4
		c0-0.7-0.3-1.1-0.9-1.1c-0.4,0-0.7,0.2-0.9,0.6v3.8H95v-5.1L95.7,89.6L95.7,89.6z"/>
	<path class="st1" d="M103.1,88.2c0,0.1,0,0.3-0.1,0.3c-0.1,0.1-0.2,0.1-0.4,0.1c-0.2,0-0.3,0-0.3-0.1c-0.1-0.1-0.1-0.2-0.1-0.3
		s0-0.3,0.1-0.4c0.1-0.1,0.2-0.1,0.3-0.1c0.2,0,0.3,0.1,0.4,0.1C103.1,88,103.1,88.1,103.1,88.2z M103.1,94.6h-0.8v-5.1h0.8V94.6z"
		/>
	<path class="st1" d="M105.3,94.6h-0.8v-7.2h0.8V94.6z"/>
	<path class="st1" d="M107.5,88.2c0,0.1,0,0.3-0.1,0.3c-0.1,0.1-0.2,0.1-0.4,0.1c-0.2,0-0.3,0-0.3-0.1c-0.1-0.1-0.1-0.2-0.1-0.3
		s0-0.3,0.1-0.4c0.1-0.1,0.2-0.1,0.3-0.1c0.2,0,0.3,0.1,0.4,0.1C107.5,88,107.5,88.1,107.5,88.2z M107.5,94.6h-0.8v-5.1h0.8V94.6z"
		/>
	<path class="st1" d="M110.6,94.7c-0.6,0-1.1-0.2-1.4-0.6c-0.3-0.4-0.5-0.9-0.5-1.7v-0.6c0-0.8,0.2-1.3,0.5-1.8
		c0.3-0.4,0.8-0.6,1.4-0.6c0.6,0,1,0.2,1.3,0.6c0.3,0.4,0.4,1,0.5,1.8v0.5h-2.8v0.1c0,0.5,0.1,0.9,0.3,1.2c0.2,0.2,0.5,0.4,0.9,0.4
		c0.2,0,0.5,0,0.6-0.1c0.2-0.1,0.4-0.2,0.5-0.4l0.4,0.5C111.8,94.5,111.3,94.7,110.6,94.7L110.6,94.7z M110.5,90.2
		c-0.3,0-0.6,0.1-0.8,0.4c-0.2,0.2-0.3,0.6-0.3,1.1h2v-0.1c0-0.5-0.1-0.8-0.3-1C111,90.3,110.8,90.2,110.5,90.2L110.5,90.2z"/>
	<path class="st1" d="M115.7,93.4c0-0.2-0.1-0.3-0.2-0.5c-0.1-0.1-0.4-0.3-0.8-0.5c-0.4-0.2-0.8-0.3-0.9-0.5
		c-0.2-0.1-0.3-0.3-0.4-0.4c-0.1-0.2-0.1-0.4-0.1-0.6c0-0.4,0.2-0.8,0.5-1c0.3-0.3,0.7-0.4,1.2-0.4c0.5,0,0.9,0.1,1.2,0.4
		c0.3,0.3,0.5,0.7,0.5,1.1h-0.8c0-0.2-0.1-0.4-0.2-0.6c-0.2-0.2-0.3-0.2-0.6-0.2c-0.2,0-0.4,0.1-0.6,0.2c-0.1,0.1-0.2,0.3-0.2,0.5
		c0,0.2,0.1,0.3,0.2,0.4c0.1,0.1,0.3,0.2,0.7,0.4c0.6,0.2,1,0.5,1.3,0.7c0.2,0.2,0.3,0.5,0.3,0.9c0,0.4-0.2,0.8-0.5,1.1
		s-0.7,0.4-1.2,0.4s-1-0.2-1.3-0.5c-0.3-0.3-0.5-0.7-0.5-1.1h0.8c0,0.3,0.1,0.5,0.3,0.7c0.2,0.2,0.4,0.2,0.7,0.2
		c0.3,0,0.5-0.1,0.6-0.2C115.6,93.7,115.7,93.6,115.7,93.4L115.7,93.4z"/>
	<path class="st1" d="M64.1,104.4c0-0.3-0.1-0.6-0.3-0.8c-0.2-0.2-0.5-0.4-1-0.5c-0.5-0.2-0.8-0.4-1.1-0.5c-0.3-0.2-0.4-0.4-0.6-0.6
		c-0.1-0.2-0.2-0.5-0.2-0.8c0-0.5,0.2-1,0.5-1.3c0.4-0.3,0.8-0.5,1.4-0.5c0.4,0,0.8,0.1,1.1,0.3c0.3,0.2,0.6,0.4,0.7,0.7
		c0.2,0.3,0.3,0.7,0.3,1h-0.9c0-0.4-0.1-0.7-0.3-1c-0.2-0.2-0.5-0.3-0.9-0.3c-0.3,0-0.6,0.1-0.8,0.3c-0.2,0.2-0.3,0.5-0.3,0.8
		c0,0.3,0.1,0.5,0.3,0.7c0.2,0.2,0.5,0.4,1,0.5c0.7,0.2,1.1,0.5,1.4,0.8c0.3,0.3,0.4,0.7,0.4,1.3c0,0.6-0.2,1-0.5,1.3
		c-0.4,0.3-0.8,0.5-1.5,0.5c-0.4,0-0.8-0.1-1.1-0.3s-0.6-0.4-0.8-0.7c-0.2-0.3-0.3-0.7-0.3-1.1h0.9c0,0.4,0.1,0.7,0.4,1
		c0.2,0.2,0.6,0.3,1,0.3c0.4,0,0.7-0.1,0.8-0.3C64,105,64.1,104.7,64.1,104.4L64.1,104.4z"/>
	<path class="st1" d="M65.8,103.4c0-0.7,0.2-1.3,0.5-1.7c0.4-0.4,0.8-0.6,1.4-0.6c0.6,0,1.1,0.2,1.4,0.6c0.4,0.4,0.5,1,0.5,1.7v0.5
		c0,0.7-0.2,1.3-0.5,1.7c-0.4,0.4-0.8,0.6-1.4,0.6s-1.1-0.2-1.4-0.6c-0.4-0.4-0.5-1-0.5-1.7L65.8,103.4L65.8,103.4z M66.6,103.9
		c0,0.5,0.1,0.9,0.3,1.2c0.2,0.3,0.5,0.4,0.8,0.4c0.7,0,1.1-0.5,1.1-1.6v-0.6c0-0.5-0.1-0.9-0.3-1.2s-0.5-0.5-0.8-0.5
		c-0.3,0-0.6,0.2-0.8,0.5c-0.2,0.3-0.3,0.7-0.3,1.2V103.9L66.6,103.9z"/>
	<path class="st1" d="M72.5,105.5c0.3,0,0.5-0.1,0.7-0.3c0.2-0.2,0.3-0.4,0.3-0.7h0.8c0,0.5-0.2,0.9-0.5,1.2
		c-0.3,0.3-0.7,0.5-1.2,0.5c-0.6,0-1.1-0.2-1.4-0.6c-0.3-0.4-0.5-1-0.5-1.8v-0.6c0-0.8,0.2-1.3,0.5-1.7s0.8-0.6,1.4-0.6
		c0.5,0,0.9,0.2,1.2,0.5c0.3,0.3,0.5,0.8,0.5,1.3h-0.8c0-0.4-0.1-0.7-0.3-0.8c-0.2-0.2-0.4-0.3-0.7-0.3c-0.4,0-0.6,0.1-0.8,0.4
		c-0.2,0.2-0.3,0.6-0.3,1.2v0.6c0,0.6,0.1,1,0.3,1.3C71.8,105.4,72.1,105.5,72.5,105.5L72.5,105.5z"/>
	<path class="st1" d="M76.1,99.7c0,0.1,0,0.3-0.1,0.3c-0.1,0.1-0.2,0.1-0.4,0.1s-0.3,0-0.3-0.1c-0.1-0.1-0.1-0.2-0.1-0.3
		s0-0.3,0.1-0.4c0.1-0.1,0.2-0.1,0.3-0.1c0.2,0,0.3,0.1,0.4,0.1C76.1,99.5,76.1,99.6,76.1,99.7z M76.1,106.1h-0.8v-5.1h0.8V106.1z"
		/>
	<path class="st1" d="M80,106.1c-0.1-0.1-0.1-0.3-0.1-0.6c-0.3,0.4-0.7,0.6-1.1,0.6s-0.8-0.1-1.1-0.4s-0.4-0.6-0.4-1.1
		c0-0.5,0.2-0.9,0.5-1.2c0.3-0.3,0.8-0.5,1.4-0.5h0.6v-0.5c0-0.3-0.1-0.5-0.2-0.6c-0.1-0.1-0.3-0.2-0.6-0.2c-0.2,0-0.5,0.1-0.6,0.2
		c-0.2,0.1-0.2,0.3-0.2,0.6h-0.8c0-0.3,0.1-0.5,0.2-0.7c0.2-0.2,0.4-0.4,0.6-0.6c0.3-0.1,0.5-0.2,0.9-0.2c0.5,0,0.9,0.1,1.2,0.4
		c0.3,0.3,0.4,0.6,0.4,1.1v2.6c0,0.4,0.1,0.7,0.2,1v0.1L80,106.1L80,106.1z M78.8,105.5c0.2,0,0.4-0.1,0.6-0.2s0.3-0.3,0.4-0.4v-1.2
		h-0.5c-0.4,0-0.7,0.1-0.9,0.3s-0.3,0.4-0.3,0.7c0,0.3,0.1,0.5,0.2,0.6C78.4,105.4,78.6,105.5,78.8,105.5L78.8,105.5z"/>
	<path class="st1" d="M82.8,106.1H82V99h0.8V106.1z"/>
	<path class="st1" d="M89.4,104.4c0-0.3-0.1-0.6-0.3-0.8c-0.2-0.2-0.5-0.4-1-0.5c-0.5-0.2-0.8-0.4-1.1-0.5c-0.3-0.2-0.4-0.4-0.6-0.6
		c-0.1-0.2-0.2-0.5-0.2-0.8c0-0.5,0.2-1,0.5-1.3s0.8-0.5,1.4-0.5c0.4,0,0.8,0.1,1.1,0.3c0.3,0.2,0.6,0.4,0.7,0.7
		c0.2,0.3,0.3,0.7,0.3,1h-0.9c0-0.4-0.1-0.7-0.3-1s-0.5-0.3-0.9-0.3c-0.3,0-0.6,0.1-0.8,0.3c-0.2,0.2-0.3,0.5-0.3,0.8
		c0,0.3,0.1,0.5,0.3,0.7c0.2,0.2,0.5,0.4,1,0.5c0.7,0.2,1.1,0.5,1.4,0.8c0.3,0.3,0.4,0.7,0.4,1.3c0,0.6-0.2,1-0.5,1.3
		c-0.4,0.3-0.8,0.5-1.5,0.5c-0.4,0-0.8-0.1-1.1-0.3s-0.6-0.4-0.8-0.7s-0.3-0.7-0.3-1.1H87c0,0.4,0.1,0.7,0.4,1
		c0.2,0.2,0.6,0.3,1,0.3c0.4,0,0.7-0.1,0.8-0.3C89.3,105,89.4,104.7,89.4,104.4L89.4,104.4z"/>
	<path class="st1" d="M93.1,106.2c-0.6,0-1.1-0.2-1.4-0.6c-0.3-0.4-0.5-0.9-0.5-1.7v-0.6c0-0.8,0.2-1.3,0.5-1.8
		c0.3-0.4,0.8-0.6,1.4-0.6s1,0.2,1.3,0.6c0.3,0.4,0.4,1,0.5,1.8v0.5H92v0.1c0,0.5,0.1,0.9,0.3,1.2c0.2,0.2,0.5,0.4,0.9,0.4
		c0.2,0,0.5,0,0.6-0.1c0.2-0.1,0.4-0.2,0.5-0.4l0.4,0.5C94.4,106,93.8,106.2,93.1,106.2L93.1,106.2z M93,101.7
		c-0.3,0-0.6,0.1-0.8,0.4c-0.2,0.2-0.3,0.6-0.3,1.1h2V103c0-0.5-0.1-0.8-0.3-1C93.5,101.8,93.3,101.7,93,101.7L93,101.7z"/>
	<path class="st1" d="M97.5,105.5c0.3,0,0.5-0.1,0.7-0.3s0.3-0.4,0.3-0.7h0.8c0,0.5-0.2,0.9-0.5,1.2c-0.3,0.3-0.7,0.5-1.2,0.5
		c-0.6,0-1.1-0.2-1.4-0.6c-0.3-0.4-0.5-1-0.5-1.8v-0.6c0-0.8,0.2-1.3,0.5-1.7c0.3-0.4,0.8-0.6,1.4-0.6c0.5,0,0.9,0.2,1.2,0.5
		s0.5,0.8,0.5,1.3h-0.8c0-0.4-0.1-0.7-0.3-0.8c-0.2-0.2-0.4-0.3-0.7-0.3c-0.4,0-0.6,0.1-0.8,0.4c-0.2,0.2-0.3,0.6-0.3,1.2v0.6
		c0,0.6,0.1,1,0.3,1.3C96.9,105.4,97.1,105.5,97.5,105.5L97.5,105.5z"/>
	<path class="st1" d="M102.8,105.7c-0.3,0.4-0.7,0.5-1.2,0.5c-0.5,0-0.8-0.2-1-0.5c-0.2-0.3-0.4-0.8-0.4-1.4v-3.3h0.8v3.2
		c0,0.8,0.2,1.2,0.7,1.2c0.5,0,0.8-0.2,1-0.7v-3.7h0.8v5.1h-0.8L102.8,105.7L102.8,105.7z"/>
	<path class="st1" d="M106.9,101.9c-0.1,0-0.2,0-0.4,0c-0.4,0-0.7,0.2-0.9,0.7v3.6h-0.8v-5.1h0.8l0,0.5c0.2-0.4,0.5-0.6,0.9-0.6
		c0.1,0,0.2,0,0.3,0.1L106.9,101.9L106.9,101.9z"/>
	<path class="st1" d="M108.7,99.7c0,0.1,0,0.3-0.1,0.3c-0.1,0.1-0.2,0.1-0.4,0.1s-0.3,0-0.3-0.1c-0.1-0.1-0.1-0.2-0.1-0.3
		s0-0.3,0.1-0.4c0.1-0.1,0.2-0.1,0.3-0.1c0.2,0,0.3,0.1,0.4,0.1C108.6,99.5,108.7,99.6,108.7,99.7z M108.6,106.1h-0.8v-5.1h0.8
		V106.1z"/>
	<path class="st1" d="M111,99.9v1.2h0.8v0.7H111v3.1c0,0.2,0,0.4,0.1,0.5c0.1,0.1,0.2,0.2,0.3,0.2c0.1,0,0.2,0,0.3-0.1l0,0.7
		c-0.2,0.1-0.4,0.1-0.6,0.1c-0.3,0-0.6-0.1-0.7-0.3c-0.2-0.2-0.3-0.6-0.3-1v-3.1h-0.8v-0.7h0.8v-1.2L111,99.9L111,99.9z"/>
	<path class="st1" d="M114.1,104.8l0.9-3.7h0.9l-1.7,5.8c-0.1,0.4-0.3,0.8-0.5,1c-0.2,0.2-0.5,0.3-0.8,0.3c-0.1,0-0.3,0-0.4-0.1
		v-0.7l0.2,0c0.2,0,0.4-0.1,0.6-0.2s0.2-0.3,0.3-0.6l0.2-0.6l-1.5-5h0.9L114.1,104.8L114.1,104.8z"/>
	<path class="st1" d="M72.3,111.6h-1.8v6.1h-0.9v-6.1h-1.8v-0.7h4.4L72.3,111.6L72.3,111.6z"/>
	<path class="st1" d="M75.2,117.6c-0.1-0.1-0.1-0.3-0.1-0.6c-0.3,0.4-0.7,0.6-1.1,0.6s-0.8-0.1-1.1-0.4c-0.3-0.3-0.4-0.6-0.4-1.1
		c0-0.5,0.2-0.9,0.5-1.2c0.3-0.3,0.8-0.5,1.4-0.5h0.6V114c0-0.3-0.1-0.5-0.2-0.6c-0.1-0.1-0.3-0.2-0.6-0.2c-0.2,0-0.5,0.1-0.6,0.2
		c-0.2,0.1-0.2,0.3-0.2,0.6h-0.8c0-0.3,0.1-0.5,0.2-0.7c0.2-0.2,0.4-0.4,0.6-0.6c0.3-0.1,0.5-0.2,0.9-0.2c0.5,0,0.9,0.1,1.2,0.4
		c0.3,0.3,0.4,0.6,0.4,1.1v2.6c0,0.4,0.1,0.7,0.2,1v0.1L75.2,117.6L75.2,117.6z M74.1,117c0.2,0,0.4-0.1,0.6-0.2s0.3-0.3,0.4-0.4
		v-1.2h-0.5c-0.4,0-0.7,0.1-0.9,0.3s-0.3,0.4-0.3,0.7c0,0.3,0.1,0.5,0.2,0.6S73.8,117,74.1,117L74.1,117z"/>
	<path class="st1" d="M78.7,114.4l0.9-1.8h1l-1.4,2.5l1.4,2.6h-0.9l-0.9-1.9l-0.9,1.9h-1l1.4-2.6l-1.4-2.5h0.9L78.7,114.4
		L78.7,114.4z"/>
	<path class="st1" d="M85.4,117c0.3,0,0.5-0.1,0.7-0.3c0.2-0.2,0.3-0.4,0.3-0.7h0.8c0,0.5-0.2,0.9-0.5,1.2c-0.3,0.3-0.7,0.5-1.2,0.5
		c-0.6,0-1.1-0.2-1.4-0.6c-0.3-0.4-0.5-1-0.5-1.8v-0.6c0-0.8,0.2-1.3,0.5-1.7c0.3-0.4,0.8-0.6,1.4-0.6c0.5,0,0.9,0.2,1.2,0.5
		c0.3,0.3,0.5,0.8,0.5,1.3h-0.8c0-0.4-0.1-0.7-0.3-0.8c-0.2-0.2-0.4-0.3-0.7-0.3c-0.4,0-0.6,0.1-0.8,0.4c-0.2,0.2-0.3,0.6-0.3,1.2
		v0.6c0,0.6,0.1,1,0.3,1.3C84.7,116.9,85,117,85.4,117L85.4,117z"/>
	<path class="st1" d="M90.1,113.3c-0.1,0-0.2,0-0.4,0c-0.4,0-0.7,0.2-0.9,0.7v3.6H88v-5.1h0.8l0,0.5c0.2-0.4,0.5-0.6,0.9-0.6
		c0.1,0,0.2,0,0.3,0.1L90.1,113.3L90.1,113.3z"/>
	<path class="st1" d="M92.7,117.7c-0.6,0-1.1-0.2-1.4-0.6s-0.5-0.9-0.5-1.7v-0.6c0-0.8,0.2-1.3,0.5-1.8s0.8-0.6,1.4-0.6
		s1,0.2,1.3,0.6c0.3,0.4,0.4,1,0.5,1.8v0.5h-2.8v0.1c0,0.5,0.1,0.9,0.3,1.2c0.2,0.2,0.5,0.4,0.9,0.4c0.2,0,0.5,0,0.6-0.1
		c0.2-0.1,0.4-0.2,0.5-0.4l0.4,0.5C94,117.5,93.5,117.7,92.7,117.7L92.7,117.7z M92.6,113.2c-0.3,0-0.6,0.1-0.8,0.4
		c-0.2,0.2-0.3,0.6-0.3,1.1h2v-0.1c0-0.5-0.1-0.8-0.3-1S93,113.2,92.6,113.2L92.6,113.2z"/>
	<path class="st1" d="M95.2,114.9c0-0.8,0.1-1.4,0.4-1.8c0.3-0.4,0.7-0.6,1.3-0.6c0.5,0,0.9,0.2,1.1,0.6v-2.6h0.8v7.2h-0.8l0-0.5
		c-0.3,0.4-0.7,0.6-1.2,0.6s-0.9-0.2-1.2-0.6c-0.3-0.4-0.5-1-0.5-1.7L95.2,114.9L95.2,114.9z M96.1,115.3c0,0.6,0.1,1,0.3,1.2
		c0.2,0.3,0.4,0.4,0.8,0.4c0.4,0,0.7-0.2,0.9-0.6v-2.5c-0.2-0.4-0.5-0.6-0.9-0.6c-0.4,0-0.7,0.1-0.8,0.4c-0.2,0.3-0.3,0.7-0.3,1.2
		V115.3L96.1,115.3z"/>
	<path class="st1" d="M101.1,111.2c0,0.1,0,0.3-0.1,0.3c-0.1,0.1-0.2,0.1-0.4,0.1c-0.2,0-0.3,0-0.3-0.1c-0.1-0.1-0.1-0.2-0.1-0.3
		s0-0.3,0.1-0.4c0.1-0.1,0.2-0.1,0.3-0.1c0.2,0,0.3,0.1,0.4,0.1C101.1,111,101.1,111.1,101.1,111.2z M101.1,117.6h-0.8v-5.1h0.8
		V117.6z"/>
	<path class="st1" d="M103.4,111.3v1.2h0.8v0.7h-0.8v3.1c0,0.2,0,0.4,0.1,0.5c0.1,0.1,0.2,0.2,0.3,0.2c0.1,0,0.2,0,0.3-0.1l0,0.7
		c-0.2,0.1-0.4,0.1-0.6,0.1c-0.3,0-0.6-0.1-0.7-0.3c-0.2-0.2-0.3-0.6-0.3-1v-3.1h-0.8v-0.7h0.8v-1.2L103.4,111.3L103.4,111.3z"/>
	<path class="st1" d="M107.6,116.3c0-0.2-0.1-0.3-0.2-0.5c-0.1-0.1-0.4-0.3-0.8-0.5c-0.4-0.2-0.8-0.3-0.9-0.5
		c-0.2-0.1-0.3-0.3-0.4-0.4c-0.1-0.2-0.1-0.4-0.1-0.6c0-0.4,0.2-0.8,0.5-1c0.3-0.3,0.7-0.4,1.2-0.4c0.5,0,0.9,0.1,1.2,0.4
		c0.3,0.3,0.5,0.7,0.5,1.1h-0.8c0-0.2-0.1-0.4-0.2-0.6c-0.2-0.2-0.3-0.2-0.6-0.2s-0.4,0.1-0.6,0.2c-0.1,0.1-0.2,0.3-0.2,0.5
		c0,0.2,0.1,0.3,0.2,0.4c0.1,0.1,0.3,0.2,0.7,0.4c0.6,0.2,1,0.5,1.3,0.7c0.2,0.2,0.3,0.5,0.3,0.9c0,0.4-0.2,0.8-0.5,1.1
		s-0.7,0.4-1.2,0.4s-1-0.2-1.3-0.5c-0.3-0.3-0.5-0.7-0.5-1.1h0.8c0,0.3,0.1,0.5,0.3,0.7c0.2,0.2,0.4,0.2,0.7,0.2
		c0.3,0,0.5-0.1,0.6-0.2S107.6,116.5,107.6,116.3L107.6,116.3z"/>
	<path class="st1" d="M64.7,122.3v4.8c0,0.6-0.2,1.1-0.6,1.5c-0.4,0.4-0.9,0.5-1.5,0.5c-0.7,0-1.2-0.2-1.5-0.5
		c-0.4-0.4-0.5-0.9-0.5-1.5v-4.8h0.8v4.8c0,0.5,0.1,0.8,0.3,1c0.2,0.2,0.5,0.3,0.9,0.3c0.4,0,0.8-0.1,0.9-0.3c0.2-0.2,0.3-0.6,0.3-1
		v-4.8L64.7,122.3L64.7,122.3z"/>
	<path class="st1" d="M66.7,124.1l0,0.5c0.3-0.4,0.7-0.6,1.2-0.6c0.9,0,1.3,0.6,1.4,1.8v3.4h-0.8v-3.3c0-0.4-0.1-0.7-0.2-0.8
		c-0.1-0.2-0.3-0.2-0.6-0.2c-0.2,0-0.4,0.1-0.6,0.2c-0.2,0.1-0.3,0.3-0.4,0.5v3.7H66v-5.1L66.7,124.1L66.7,124.1z"/>
	<path class="st1" d="M72.4,129.2c-0.6,0-1.1-0.2-1.4-0.6c-0.3-0.4-0.5-0.9-0.5-1.7v-0.6c0-0.8,0.2-1.3,0.5-1.8
		c0.3-0.4,0.8-0.6,1.4-0.6s1,0.2,1.3,0.6c0.3,0.4,0.4,1,0.5,1.8v0.5h-2.8v0.1c0,0.5,0.1,0.9,0.3,1.2c0.2,0.2,0.5,0.4,0.9,0.4
		c0.2,0,0.5,0,0.6-0.1c0.2-0.1,0.4-0.2,0.5-0.4l0.4,0.5C73.7,129,73.1,129.2,72.4,129.2L72.4,129.2z M72.3,124.7
		c-0.3,0-0.6,0.1-0.8,0.4c-0.2,0.2-0.3,0.6-0.3,1.1h2V126c0-0.5-0.1-0.8-0.3-1C72.8,124.8,72.6,124.7,72.3,124.7L72.3,124.7z"/>
	<path class="st1" d="M75.8,124.1l0,0.5c0.3-0.4,0.7-0.6,1.2-0.6c0.6,0,1,0.2,1.2,0.7c0.3-0.5,0.8-0.7,1.3-0.7
		c0.9,0,1.4,0.6,1.4,1.7v3.4h-0.8v-3.3c0-0.4-0.1-0.6-0.2-0.8c-0.1-0.2-0.4-0.3-0.7-0.3c-0.2,0-0.5,0.1-0.6,0.3
		c-0.2,0.2-0.2,0.4-0.3,0.7v3.4h-0.8v-3.4c0-0.7-0.3-1.1-0.9-1.1c-0.4,0-0.7,0.2-0.9,0.6v3.8h-0.8v-5.1L75.8,124.1L75.8,124.1z"/>
	<path class="st1" d="M85.9,126.8c0,0.8-0.1,1.4-0.4,1.8c-0.3,0.4-0.7,0.6-1.2,0.6s-0.9-0.2-1.2-0.6v2.4h-0.8v-7H83l0,0.6
		c0.3-0.4,0.7-0.7,1.2-0.7c0.6,0,1,0.2,1.2,0.6c0.3,0.4,0.4,1,0.4,1.7L85.9,126.8L85.9,126.8z M85.1,126.4c0-0.6-0.1-1-0.3-1.3
		c-0.2-0.3-0.5-0.4-0.8-0.4s-0.7,0.2-0.9,0.6v2.6c0.2,0.4,0.5,0.6,0.9,0.6c0.4,0,0.6-0.1,0.8-0.4c0.2-0.3,0.3-0.7,0.3-1.2
		L85.1,126.4L85.1,126.4z"/>
	<path class="st1" d="M87.9,129.1h-0.8v-7.2h0.8V129.1z"/>
	<path class="st1" d="M89,126.4c0-0.7,0.2-1.3,0.5-1.7c0.4-0.4,0.8-0.6,1.4-0.6s1.1,0.2,1.4,0.6c0.4,0.4,0.5,1,0.5,1.7v0.5
		c0,0.7-0.2,1.3-0.5,1.7c-0.4,0.4-0.8,0.6-1.4,0.6s-1.1-0.2-1.4-0.6c-0.4-0.4-0.5-1-0.5-1.7L89,126.4L89,126.4z M89.8,126.8
		c0,0.5,0.1,0.9,0.3,1.2c0.2,0.3,0.5,0.4,0.8,0.4c0.7,0,1.1-0.5,1.1-1.6v-0.6c0-0.5-0.1-0.9-0.3-1.2c-0.2-0.3-0.5-0.5-0.8-0.5
		c-0.3,0-0.6,0.2-0.8,0.5c-0.2,0.3-0.3,0.7-0.3,1.2V126.8L89.8,126.8z"/>
	<path class="st1" d="M95.4,127.7l0.9-3.7h0.9l-1.7,5.8c-0.1,0.4-0.3,0.8-0.5,1c-0.2,0.2-0.5,0.3-0.8,0.3c-0.1,0-0.3,0-0.4-0.1v-0.7
		l0.2,0c0.2,0,0.4-0.1,0.6-0.2c0.1-0.1,0.2-0.3,0.3-0.6l0.2-0.6l-1.5-5h0.9L95.4,127.7L95.4,127.7z"/>
	<path class="st1" d="M98.8,124.1l0,0.5c0.3-0.4,0.7-0.6,1.2-0.6c0.6,0,1,0.2,1.2,0.7c0.3-0.5,0.8-0.7,1.3-0.7
		c0.9,0,1.4,0.6,1.4,1.7v3.4h-0.8v-3.3c0-0.4-0.1-0.6-0.2-0.8c-0.1-0.2-0.4-0.3-0.7-0.3c-0.2,0-0.5,0.1-0.6,0.3
		c-0.2,0.2-0.2,0.4-0.3,0.7v3.4h-0.8v-3.4c0-0.7-0.3-1.1-0.9-1.1c-0.4,0-0.7,0.2-0.9,0.6v3.8H98v-5.1L98.8,124.1L98.8,124.1z"/>
	<path class="st1" d="M107,129.2c-0.6,0-1.1-0.2-1.4-0.6c-0.3-0.4-0.5-0.9-0.5-1.7v-0.6c0-0.8,0.2-1.3,0.5-1.8
		c0.3-0.4,0.8-0.6,1.4-0.6s1,0.2,1.3,0.6c0.3,0.4,0.4,1,0.5,1.8v0.5h-2.8v0.1c0,0.5,0.1,0.9,0.3,1.2c0.2,0.2,0.5,0.4,0.9,0.4
		c0.2,0,0.5,0,0.6-0.1c0.2-0.1,0.4-0.2,0.5-0.4l0.4,0.5C108.3,129,107.7,129.2,107,129.2L107,129.2z M106.9,124.7
		c-0.3,0-0.6,0.1-0.8,0.4s-0.3,0.6-0.3,1.1h2V126c0-0.5-0.1-0.8-0.3-1C107.4,124.8,107.2,124.7,106.9,124.7L106.9,124.7z"/>
	<path class="st1" d="M110.4,124.1l0,0.5c0.3-0.4,0.7-0.6,1.2-0.6c0.9,0,1.3,0.6,1.4,1.8v3.4h-0.8v-3.3c0-0.4-0.1-0.7-0.2-0.8
		c-0.1-0.2-0.3-0.2-0.6-0.2c-0.2,0-0.4,0.1-0.6,0.2s-0.3,0.3-0.4,0.5v3.7h-0.8v-5.1L110.4,124.1L110.4,124.1z"/>
	<path class="st1" d="M115.4,122.8v1.2h0.8v0.7h-0.8v3.1c0,0.2,0,0.4,0.1,0.5c0.1,0.1,0.2,0.2,0.3,0.2c0.1,0,0.2,0,0.3-0.1l0,0.7
		c-0.2,0.1-0.4,0.1-0.6,0.1c-0.3,0-0.6-0.1-0.7-0.3c-0.2-0.2-0.3-0.6-0.3-1v-3.1h-0.8v-0.7h0.8v-1.2L115.4,122.8L115.4,122.8z"/>
	<path class="st1" d="M46.4,138.5l0.1,0.8l0.1-0.7l1.1-4.7h0.7l1.1,4.7l0.1,0.7l0.1-0.8l0.8-4.7h0.9l-1.4,6.8h-0.8l-1.1-5l-0.1-0.4
		l-0.1,0.4l-1.2,5H46l-1.4-6.8h0.9L46.4,138.5L46.4,138.5z"/>
	<path class="st1" d="M51.9,137.8c0-0.7,0.2-1.3,0.5-1.7s0.8-0.6,1.4-0.6c0.6,0,1.1,0.2,1.4,0.6c0.4,0.4,0.5,1,0.5,1.7v0.5
		c0,0.7-0.2,1.3-0.5,1.7c-0.4,0.4-0.8,0.6-1.4,0.6s-1.1-0.2-1.4-0.6c-0.4-0.4-0.5-1-0.5-1.7L51.9,137.8L51.9,137.8z M52.7,138.3
		c0,0.5,0.1,0.9,0.3,1.2c0.2,0.3,0.5,0.4,0.8,0.4c0.7,0,1.1-0.5,1.1-1.6v-0.6c0-0.5-0.1-0.9-0.3-1.2c-0.2-0.3-0.5-0.5-0.8-0.5
		c-0.3,0-0.6,0.2-0.8,0.5c-0.2,0.3-0.3,0.7-0.3,1.2V138.3L52.7,138.3z"/>
	<path class="st1" d="M59,136.3c-0.1,0-0.2,0-0.4,0c-0.4,0-0.7,0.2-0.9,0.7v3.6h-0.8v-5.1h0.8l0,0.5c0.2-0.4,0.5-0.6,0.9-0.6
		c0.1,0,0.2,0,0.3,0.1L59,136.3L59,136.3z"/>
	<path class="st1" d="M61.1,138.3l-0.4,0.5v1.8h-0.8v-7.2h0.8v4.3l1.6-2.2h1l-1.6,2.1l1.8,2.9h-1L61.1,138.3L61.1,138.3z"/>
	<path class="st1" d="M65.9,140.7c-0.6,0-1.1-0.2-1.4-0.6c-0.3-0.4-0.5-0.9-0.5-1.7v-0.6c0-0.8,0.2-1.3,0.5-1.8
		c0.3-0.4,0.8-0.6,1.4-0.6s1,0.2,1.3,0.6c0.3,0.4,0.4,1,0.5,1.8v0.5h-2.8v0.1c0,0.5,0.1,0.9,0.3,1.2c0.2,0.2,0.5,0.4,0.9,0.4
		c0.2,0,0.5,0,0.6-0.1c0.2-0.1,0.4-0.2,0.5-0.4l0.4,0.5C67.2,140.4,66.7,140.7,65.9,140.7L65.9,140.7z M65.8,136.2
		c-0.3,0-0.6,0.1-0.8,0.4c-0.2,0.2-0.3,0.6-0.3,1.1h2v-0.1c0-0.5-0.1-0.8-0.3-1C66.4,136.3,66.2,136.2,65.8,136.2L65.8,136.2z"/>
	<path class="st1" d="M70.7,136.3c-0.1,0-0.2,0-0.4,0c-0.4,0-0.7,0.2-0.9,0.7v3.6h-0.8v-5.1h0.8l0,0.5c0.2-0.4,0.5-0.6,0.9-0.6
		c0.1,0,0.2,0,0.3,0.1L70.7,136.3L70.7,136.3z"/>
	<path class="st1" d="M74,139.3c0-0.2-0.1-0.3-0.2-0.5c-0.1-0.1-0.4-0.3-0.8-0.5c-0.4-0.2-0.8-0.3-0.9-0.5c-0.2-0.1-0.3-0.3-0.4-0.4
		c-0.1-0.2-0.1-0.4-0.1-0.6c0-0.4,0.2-0.8,0.5-1c0.3-0.3,0.7-0.4,1.2-0.4c0.5,0,0.9,0.1,1.2,0.4c0.3,0.3,0.5,0.7,0.5,1.1h-0.8
		c0-0.2-0.1-0.4-0.2-0.6c-0.2-0.2-0.3-0.2-0.6-0.2c-0.2,0-0.4,0.1-0.6,0.2c-0.1,0.1-0.2,0.3-0.2,0.5c0,0.2,0.1,0.3,0.2,0.4
		c0.1,0.1,0.3,0.2,0.7,0.4c0.6,0.2,1,0.5,1.3,0.7c0.2,0.2,0.3,0.5,0.3,0.9c0,0.4-0.2,0.8-0.5,1.1c-0.3,0.3-0.7,0.4-1.2,0.4
		s-1-0.2-1.3-0.5c-0.3-0.3-0.5-0.7-0.5-1.1h0.8c0,0.3,0.1,0.5,0.3,0.7c0.2,0.2,0.4,0.2,0.7,0.2c0.3,0,0.5-0.1,0.6-0.2
		C73.9,139.7,74,139.5,74,139.3L74,139.3z"/>
	<path class="st1" d="M82.5,138.4c0,0.7-0.2,1.3-0.6,1.7s-0.9,0.6-1.6,0.6s-1.2-0.3-1.6-0.8c-0.4-0.5-0.6-1.2-0.6-2.1v-1.2
		c0-0.9,0.2-1.6,0.6-2.1c0.4-0.5,1-0.8,1.7-0.8c0.7,0,1.2,0.2,1.5,0.6s0.6,1,0.6,1.7h-0.9c0-0.6-0.2-1-0.3-1.2s-0.5-0.4-0.9-0.4
		c-0.5,0-0.8,0.2-1.1,0.5c-0.2,0.4-0.4,0.9-0.4,1.6v1.2c0,0.7,0.1,1.2,0.3,1.6c0.2,0.4,0.6,0.6,1,0.6s0.8-0.1,1-0.3
		c0.2-0.2,0.3-0.6,0.4-1.2L82.5,138.4L82.5,138.4z"/>
	<path class="st1" d="M83.3,137.8c0-0.7,0.2-1.3,0.5-1.7c0.4-0.4,0.8-0.6,1.4-0.6c0.6,0,1.1,0.2,1.4,0.6c0.4,0.4,0.5,1,0.5,1.7v0.5
		c0,0.7-0.2,1.3-0.5,1.7c-0.4,0.4-0.8,0.6-1.4,0.6s-1.1-0.2-1.4-0.6c-0.4-0.4-0.5-1-0.5-1.7V137.8L83.3,137.8z M84.2,138.3
		c0,0.5,0.1,0.9,0.3,1.2c0.2,0.3,0.5,0.4,0.8,0.4c0.7,0,1.1-0.5,1.1-1.6v-0.6c0-0.5-0.1-0.9-0.3-1.2s-0.5-0.5-0.8-0.5
		c-0.3,0-0.6,0.2-0.8,0.5c-0.2,0.3-0.3,0.7-0.3,1.2V138.3L84.2,138.3z"/>
	<path class="st1" d="M89.1,135.6l0,0.5c0.3-0.4,0.7-0.6,1.2-0.6c0.6,0,1,0.2,1.2,0.7c0.3-0.5,0.8-0.7,1.3-0.7
		c0.9,0,1.4,0.6,1.4,1.7v3.4h-0.8v-3.3c0-0.4-0.1-0.6-0.2-0.8c-0.1-0.2-0.4-0.3-0.7-0.3c-0.2,0-0.5,0.1-0.6,0.3
		c-0.2,0.2-0.2,0.4-0.3,0.7v3.4h-0.8v-3.4c0-0.7-0.3-1.1-0.9-1.1c-0.4,0-0.7,0.2-0.9,0.6v3.8h-0.8v-5.1L89.1,135.6L89.1,135.6z"/>
	<path class="st1" d="M99.2,138.3c0,0.8-0.1,1.4-0.4,1.8c-0.3,0.4-0.7,0.6-1.2,0.6c-0.5,0-0.9-0.2-1.2-0.6v2.4h-0.8v-7h0.7l0,0.6
		c0.3-0.4,0.7-0.7,1.2-0.7c0.6,0,1,0.2,1.2,0.6c0.3,0.4,0.4,1,0.4,1.7L99.2,138.3L99.2,138.3z M98.3,137.9c0-0.6-0.1-1-0.3-1.3
		c-0.2-0.3-0.5-0.4-0.8-0.4s-0.7,0.2-0.9,0.6v2.6c0.2,0.4,0.5,0.6,0.9,0.6c0.4,0,0.6-0.1,0.8-0.4s0.3-0.7,0.3-1.2L98.3,137.9
		L98.3,137.9z"/>
	<path class="st1" d="M102,140.7c-0.6,0-1.1-0.2-1.4-0.6c-0.3-0.4-0.5-0.9-0.5-1.7v-0.6c0-0.8,0.2-1.3,0.5-1.8s0.8-0.6,1.4-0.6
		s1,0.2,1.3,0.6c0.3,0.4,0.4,1,0.5,1.8v0.5h-2.8v0.1c0,0.5,0.1,0.9,0.3,1.2c0.2,0.2,0.5,0.4,0.9,0.4c0.2,0,0.5,0,0.6-0.1
		c0.2-0.1,0.4-0.2,0.5-0.4l0.4,0.5C103.3,140.4,102.8,140.7,102,140.7L102,140.7z M102,136.2c-0.3,0-0.6,0.1-0.8,0.4
		c-0.2,0.2-0.3,0.6-0.3,1.1h2v-0.1c0-0.5-0.1-0.8-0.3-1C102.5,136.3,102.3,136.2,102,136.2L102,136.2z"/>
	<path class="st1" d="M105.5,135.6l0,0.5c0.3-0.4,0.7-0.6,1.2-0.6c0.9,0,1.3,0.6,1.4,1.8v3.4h-0.8v-3.3c0-0.4-0.1-0.7-0.2-0.8
		s-0.3-0.2-0.6-0.2c-0.2,0-0.4,0.1-0.6,0.2c-0.2,0.1-0.3,0.3-0.4,0.5v3.7h-0.8v-5.1L105.5,135.6L105.5,135.6z"/>
	<path class="st1" d="M111.8,139.3c0-0.2-0.1-0.3-0.2-0.5c-0.1-0.1-0.4-0.3-0.8-0.5c-0.4-0.2-0.8-0.3-0.9-0.5
		c-0.2-0.1-0.3-0.3-0.4-0.4s-0.1-0.4-0.1-0.6c0-0.4,0.2-0.8,0.5-1c0.3-0.3,0.7-0.4,1.2-0.4c0.5,0,0.9,0.1,1.2,0.4s0.5,0.7,0.5,1.1
		h-0.8c0-0.2-0.1-0.4-0.2-0.6c-0.2-0.2-0.3-0.2-0.6-0.2c-0.2,0-0.4,0.1-0.6,0.2c-0.1,0.1-0.2,0.3-0.2,0.5c0,0.2,0.1,0.3,0.2,0.4
		c0.1,0.1,0.3,0.2,0.7,0.4c0.6,0.2,1,0.5,1.3,0.7c0.2,0.2,0.3,0.5,0.3,0.9c0,0.4-0.2,0.8-0.5,1.1c-0.3,0.3-0.7,0.4-1.2,0.4
		s-1-0.2-1.3-0.5c-0.3-0.3-0.5-0.7-0.5-1.1h0.8c0,0.3,0.1,0.5,0.3,0.7c0.2,0.2,0.4,0.2,0.7,0.2c0.3,0,0.5-0.1,0.6-0.2
		C111.7,139.7,111.8,139.5,111.8,139.3L111.8,139.3z"/>
	<path class="st1" d="M116.3,140.6c-0.1-0.1-0.1-0.3-0.1-0.6c-0.3,0.4-0.7,0.6-1.1,0.6s-0.8-0.1-1.1-0.4c-0.3-0.3-0.4-0.6-0.4-1.1
		c0-0.5,0.2-0.9,0.5-1.2c0.3-0.3,0.8-0.5,1.4-0.5h0.6V137c0-0.3-0.1-0.5-0.2-0.6c-0.1-0.1-0.3-0.2-0.6-0.2c-0.2,0-0.5,0.1-0.6,0.2
		c-0.2,0.1-0.2,0.3-0.2,0.6h-0.8c0-0.3,0.1-0.5,0.2-0.7c0.2-0.2,0.4-0.4,0.6-0.6s0.5-0.2,0.9-0.2c0.5,0,0.9,0.1,1.2,0.4
		c0.3,0.3,0.4,0.6,0.4,1.1v2.6c0,0.4,0.1,0.7,0.2,1v0.1H116.3L116.3,140.6z M115.2,140c0.2,0,0.4-0.1,0.6-0.2
		c0.2-0.1,0.3-0.3,0.4-0.4v-1.2h-0.5c-0.4,0-0.7,0.1-0.9,0.3c-0.2,0.2-0.3,0.4-0.3,0.7c0,0.3,0.1,0.5,0.2,0.6
		C114.7,139.9,114.9,140,115.2,140L115.2,140z"/>
	<path class="st1" d="M119.4,134.3v1.2h0.8v0.7h-0.8v3.1c0,0.2,0,0.4,0.1,0.5c0.1,0.1,0.2,0.2,0.3,0.2c0.1,0,0.2,0,0.3-0.1l0,0.7
		c-0.2,0.1-0.4,0.1-0.6,0.1c-0.3,0-0.6-0.1-0.7-0.3c-0.2-0.2-0.3-0.6-0.3-1v-3.1h-0.8v-0.7h0.8v-1.2L119.4,134.3L119.4,134.3z"/>
	<path class="st1" d="M122.1,134.2c0,0.1,0,0.3-0.1,0.3c-0.1,0.1-0.2,0.1-0.4,0.1s-0.3,0-0.3-0.1c-0.1-0.1-0.1-0.2-0.1-0.3
		c0-0.1,0-0.3,0.1-0.4c0.1-0.1,0.2-0.1,0.3-0.1c0.2,0,0.3,0.1,0.4,0.1S122.1,134.1,122.1,134.2z M122,140.6h-0.8v-5.1h0.8V140.6z"/>
	<path class="st1" d="M123.2,137.8c0-0.7,0.2-1.3,0.5-1.7c0.4-0.4,0.8-0.6,1.4-0.6s1.1,0.2,1.4,0.6c0.4,0.4,0.5,1,0.5,1.7v0.5
		c0,0.7-0.2,1.3-0.5,1.7c-0.4,0.4-0.8,0.6-1.4,0.6s-1.1-0.2-1.4-0.6c-0.4-0.4-0.5-1-0.5-1.7L123.2,137.8L123.2,137.8z M124,138.3
		c0,0.5,0.1,0.9,0.3,1.2c0.2,0.3,0.5,0.4,0.8,0.4c0.7,0,1.1-0.5,1.1-1.6v-0.6c0-0.5-0.1-0.9-0.3-1.2s-0.5-0.5-0.8-0.5
		c-0.3,0-0.6,0.2-0.8,0.5c-0.2,0.3-0.3,0.7-0.3,1.2L124,138.3L124,138.3z"/>
	<path class="st1" d="M128.9,135.6l0,0.5c0.3-0.4,0.7-0.6,1.2-0.6c0.9,0,1.3,0.6,1.4,1.8v3.4h-0.8v-3.3c0-0.4-0.1-0.7-0.2-0.8
		c-0.1-0.2-0.3-0.2-0.6-0.2c-0.2,0-0.4,0.1-0.6,0.2c-0.2,0.1-0.3,0.3-0.4,0.5v3.7h-0.8v-5.1L128.9,135.6L128.9,135.6z"/>
</g>
</svg>
