<?xml version="1.0" encoding="utf-8"?>
<!-- Generator: Adobe Illustrator 27.0.1, SVG Export Plug-In . SVG Version: 6.00 Build 0)  -->
<svg version="1.1" id="Layer_1" xmlns="http://www.w3.org/2000/svg" xmlns:xlink="http://www.w3.org/1999/xlink" x="0px" y="0px"
	 viewBox="0 0 225 225" style="enable-background:new 0 0 225 225;" xml:space="preserve">
<style type="text/css">
	.st0{fill:#828A43;}
	.st1{fill:#FFFFFF;}
	.st2{fill:#A5A49F;}
	.st3{fill:#524C4C;}
	.st4{fill:#B3BD80;}
	.st5{fill:#677432;}
	.st6{fill:#7F7474;}
	.st7{enable-background:new    ;}
</style>
<polygon class="st0" points="203.6,165.1 112.5,217.7 21.4,165.1 21.4,59.9 112.5,7.3 203.6,59.9 "/>
<g>
	<path class="st1" d="M59.1,95.8h-2.2v7.4h-1v-7.4h-2.2v-0.9h5.4L59.1,95.8L59.1,95.8z"/>
	<path class="st1" d="M62.3,103.3c-0.8,0-1.4-0.2-1.8-0.7c-0.4-0.5-0.6-1.1-0.6-2v-0.7c0-0.9,0.2-1.6,0.6-2.2c0.4-0.5,1-0.8,1.7-0.8
		s1.3,0.2,1.6,0.7c0.4,0.5,0.5,1.2,0.5,2.1v0.7H61v0.1c0,0.7,0.1,1.1,0.4,1.4c0.2,0.3,0.6,0.4,1.1,0.4c0.3,0,0.6-0.1,0.8-0.2
		c0.2-0.1,0.4-0.3,0.6-0.5l0.5,0.6C63.9,103,63.2,103.3,62.3,103.3L62.3,103.3z M62.2,97.8c-0.4,0-0.7,0.1-0.9,0.4
		C61.1,98.5,61,99,61,99.6h2.4v-0.1c0-0.6-0.1-1-0.3-1.3C62.9,97.9,62.6,97.8,62.2,97.8L62.2,97.8z"/>
	<path class="st1" d="M66.5,97.1l0,0.6c0.4-0.5,0.9-0.7,1.5-0.7c0.7,0,1.2,0.3,1.4,0.9c0.4-0.6,0.9-0.9,1.6-0.9
		c1.1,0,1.7,0.7,1.7,2.1v4.1h-1v-4c0-0.4-0.1-0.8-0.2-1c-0.2-0.2-0.4-0.3-0.8-0.3c-0.3,0-0.5,0.1-0.7,0.4s-0.3,0.5-0.3,0.9v4.1h-1
		v-4.1c0-0.9-0.4-1.3-1-1.3c-0.5,0-0.9,0.3-1.1,0.8v4.6h-1v-6.1L66.5,97.1L66.5,97.1z"/>
	<path class="st1" d="M78.8,100.4c0,1-0.2,1.7-0.5,2.2c-0.3,0.5-0.8,0.7-1.5,0.7c-0.6,0-1.1-0.2-1.4-0.7v2.9h-1v-8.5h0.9l0.1,0.7
		c0.3-0.5,0.8-0.8,1.4-0.8c0.7,0,1.2,0.2,1.5,0.7c0.3,0.5,0.5,1.2,0.5,2.1L78.8,100.4L78.8,100.4z M77.8,99.9c0-0.7-0.1-1.2-0.3-1.5
		c-0.2-0.3-0.6-0.5-1-0.5s-0.8,0.2-1.1,0.7v3.2c0.2,0.5,0.6,0.7,1.1,0.7c0.5,0,0.8-0.2,1-0.5c0.2-0.3,0.3-0.8,0.3-1.5L77.8,99.9
		L77.8,99.9z"/>
	<path class="st1" d="M79.9,99.9c0-0.9,0.2-1.6,0.7-2.1c0.4-0.5,1-0.8,1.7-0.8c0.7,0,1.3,0.3,1.7,0.8c0.4,0.5,0.7,1.2,0.7,2.1v0.6
		c0,0.9-0.2,1.6-0.6,2.1c-0.4,0.5-1,0.8-1.7,0.8c-0.7,0-1.3-0.3-1.7-0.8s-0.7-1.2-0.7-2L79.9,99.9L79.9,99.9z M80.9,100.4
		c0,0.6,0.1,1.1,0.4,1.5c0.2,0.4,0.6,0.5,1,0.5c0.9,0,1.3-0.6,1.4-1.9v-0.7c0-0.6-0.1-1.1-0.4-1.5c-0.3-0.4-0.6-0.5-1-0.5
		c-0.4,0-0.7,0.2-1,0.5c-0.2,0.4-0.4,0.9-0.4,1.5V100.4L80.9,100.4z"/>
	<path class="st1" d="M88.5,98c-0.1,0-0.3,0-0.5,0c-0.5,0-0.9,0.3-1.1,0.8v4.4h-1v-6.1h1l0,0.6c0.3-0.5,0.6-0.7,1.1-0.7
		c0.2,0,0.3,0,0.4,0.1L88.5,98L88.5,98z"/>
	<path class="st1" d="M92.4,103.2c-0.1-0.1-0.1-0.4-0.1-0.7c-0.4,0.5-0.8,0.8-1.4,0.8s-1-0.2-1.3-0.5c-0.3-0.3-0.5-0.8-0.5-1.3
		c0-0.6,0.2-1.1,0.6-1.5c0.4-0.4,1-0.6,1.7-0.6h0.7v-0.7c0-0.4-0.1-0.6-0.2-0.8c-0.2-0.2-0.4-0.2-0.7-0.2c-0.3,0-0.5,0.1-0.7,0.3
		c-0.2,0.2-0.3,0.4-0.3,0.7h-1c0-0.3,0.1-0.6,0.3-0.9c0.2-0.3,0.4-0.5,0.8-0.7s0.7-0.2,1.1-0.2c0.6,0,1.1,0.2,1.4,0.5
		c0.3,0.3,0.5,0.8,0.5,1.4v3.1c0,0.5,0.1,0.9,0.2,1.2v0.1L92.4,103.2L92.4,103.2z M91.1,102.4c0.2,0,0.5-0.1,0.7-0.2
		c0.2-0.1,0.4-0.3,0.5-0.5v-1.5h-0.6c-0.5,0-0.9,0.1-1.1,0.3c-0.3,0.2-0.4,0.5-0.4,0.9c0,0.3,0.1,0.6,0.2,0.8
		C90.5,102.3,90.7,102.4,91.1,102.4L91.1,102.4z"/>
	<path class="st1" d="M97.3,98c-0.1,0-0.3,0-0.5,0c-0.5,0-0.9,0.3-1.1,0.8v4.4h-1v-6.1h1l0,0.6c0.3-0.5,0.6-0.7,1.1-0.7
		c0.2,0,0.3,0,0.4,0.1L97.3,98L97.3,98z"/>
	<path class="st1" d="M100,101.6l1.1-4.5h1.1l-2,7c-0.2,0.5-0.4,0.9-0.6,1.2c-0.3,0.3-0.6,0.4-0.9,0.4c-0.1,0-0.3,0-0.5-0.1v-0.9
		l0.2,0c0.3,0,0.5-0.1,0.7-0.2c0.2-0.1,0.3-0.4,0.4-0.7l0.2-0.7l-1.8-6.1h1.1L100,101.6L100,101.6z"/>
	<path class="st1" d="M109.9,101.1h-2.8l-0.6,2.2h-1.1l2.7-8.3h0.9l2.7,8.3h-1.1L109.9,101.1z M107.3,100.2h2.3l-1.1-3.8
		L107.3,100.2L107.3,100.2z"/>
	<path class="st1" d="M115.6,101.6c0-0.2-0.1-0.4-0.2-0.6c-0.2-0.2-0.5-0.3-0.9-0.5c-0.5-0.2-0.9-0.4-1.1-0.6
		c-0.2-0.2-0.4-0.3-0.5-0.5c-0.1-0.2-0.2-0.4-0.2-0.7c0-0.5,0.2-0.9,0.5-1.2c0.4-0.3,0.8-0.5,1.4-0.5c0.6,0,1.1,0.2,1.4,0.5
		c0.4,0.3,0.5,0.8,0.5,1.3h-1c0-0.3-0.1-0.5-0.3-0.7c-0.2-0.2-0.4-0.3-0.7-0.3s-0.5,0.1-0.7,0.2c-0.2,0.2-0.3,0.4-0.3,0.6
		c0,0.2,0.1,0.4,0.2,0.5c0.1,0.1,0.4,0.3,0.9,0.5c0.7,0.3,1.3,0.6,1.5,0.9c0.3,0.3,0.4,0.6,0.4,1.1c0,0.5-0.2,1-0.5,1.3
		c-0.4,0.3-0.9,0.5-1.5,0.5s-1.2-0.2-1.6-0.5c-0.4-0.4-0.6-0.8-0.6-1.4h1c0,0.3,0.1,0.6,0.3,0.8c0.2,0.2,0.5,0.3,0.8,0.3
		c0.3,0,0.6-0.1,0.8-0.2C115.5,102.1,115.5,101.9,115.6,101.6L115.6,101.6z"/>
	<path class="st1" d="M120.9,101.6c0-0.2-0.1-0.4-0.2-0.6s-0.5-0.3-0.9-0.5c-0.5-0.2-0.9-0.4-1.1-0.6c-0.2-0.2-0.4-0.3-0.5-0.5
		c-0.1-0.2-0.2-0.4-0.2-0.7c0-0.5,0.2-0.9,0.5-1.2c0.4-0.3,0.8-0.5,1.4-0.5c0.6,0,1.1,0.2,1.4,0.5s0.5,0.8,0.5,1.3h-1
		c0-0.3-0.1-0.5-0.3-0.7c-0.2-0.2-0.4-0.3-0.7-0.3s-0.5,0.1-0.7,0.2s-0.3,0.4-0.3,0.6c0,0.2,0.1,0.4,0.2,0.5
		c0.1,0.1,0.4,0.3,0.9,0.5c0.7,0.3,1.3,0.6,1.5,0.9c0.3,0.3,0.4,0.6,0.4,1.1c0,0.5-0.2,1-0.5,1.3c-0.4,0.3-0.9,0.5-1.5,0.5
		s-1.2-0.2-1.6-0.5c-0.4-0.4-0.6-0.8-0.6-1.4h1c0,0.3,0.1,0.6,0.3,0.8c0.2,0.2,0.5,0.3,0.8,0.3c0.3,0,0.6-0.1,0.8-0.2
		C120.8,102.1,120.8,101.9,120.9,101.6L120.9,101.6z"/>
	<path class="st1" d="M124.3,95.4c0,0.2,0,0.3-0.1,0.4c-0.1,0.1-0.2,0.2-0.4,0.2c-0.2,0-0.3-0.1-0.4-0.2c-0.1-0.1-0.1-0.3-0.1-0.4
		c0-0.2,0-0.3,0.1-0.4c0.1-0.1,0.2-0.2,0.4-0.2s0.3,0.1,0.4,0.2C124.3,95.1,124.3,95.3,124.3,95.4z M124.2,103.2h-1v-6.1h1V103.2z"
		/>
	<path class="st1" d="M128.8,101.6c0-0.2-0.1-0.4-0.2-0.6s-0.5-0.3-0.9-0.5c-0.5-0.2-0.9-0.4-1.1-0.6c-0.2-0.2-0.4-0.3-0.5-0.5
		c-0.1-0.2-0.2-0.4-0.2-0.7c0-0.5,0.2-0.9,0.5-1.2c0.4-0.3,0.8-0.5,1.4-0.5c0.6,0,1.1,0.2,1.4,0.5s0.5,0.8,0.5,1.3h-1
		c0-0.3-0.1-0.5-0.3-0.7c-0.2-0.2-0.4-0.3-0.7-0.3c-0.3,0-0.5,0.1-0.7,0.2c-0.2,0.2-0.3,0.4-0.3,0.6c0,0.2,0.1,0.4,0.2,0.5
		c0.1,0.1,0.4,0.3,0.9,0.5c0.7,0.3,1.3,0.6,1.5,0.9c0.3,0.3,0.4,0.6,0.4,1.1c0,0.5-0.2,1-0.5,1.3c-0.4,0.3-0.9,0.5-1.5,0.5
		c-0.6,0-1.2-0.2-1.6-0.5c-0.4-0.4-0.6-0.8-0.6-1.4h1c0,0.3,0.1,0.6,0.3,0.8c0.2,0.2,0.5,0.3,0.8,0.3c0.3,0,0.6-0.1,0.8-0.2
		C128.7,102.1,128.8,101.9,128.8,101.6L128.8,101.6z"/>
	<path class="st1" d="M132.4,95.6v1.5h0.9v0.8h-0.9v3.8c0,0.2,0,0.4,0.1,0.6c0.1,0.1,0.2,0.2,0.4,0.2c0.1,0,0.3,0,0.4-0.1l0,0.8
		c-0.2,0.1-0.5,0.1-0.7,0.1c-0.4,0-0.7-0.1-0.9-0.4c-0.2-0.3-0.3-0.7-0.3-1.2v-3.8h-0.9v-0.8h0.9v-1.5L132.4,95.6L132.4,95.6z"/>
	<path class="st1" d="M137.7,103.2c-0.1-0.1-0.1-0.4-0.1-0.7c-0.4,0.5-0.8,0.8-1.4,0.8c-0.6,0-1-0.2-1.3-0.5
		c-0.3-0.3-0.5-0.8-0.5-1.3c0-0.6,0.2-1.1,0.6-1.5c0.4-0.4,1-0.6,1.7-0.6h0.7v-0.7c0-0.4-0.1-0.6-0.2-0.8c-0.2-0.2-0.4-0.2-0.7-0.2
		c-0.3,0-0.5,0.1-0.7,0.3c-0.2,0.2-0.3,0.4-0.3,0.7h-1c0-0.3,0.1-0.6,0.3-0.9c0.2-0.3,0.4-0.5,0.8-0.7s0.7-0.2,1.1-0.2
		c0.6,0,1.1,0.2,1.4,0.5c0.3,0.3,0.5,0.8,0.5,1.4v3.1c0,0.5,0.1,0.9,0.2,1.2v0.1L137.7,103.2L137.7,103.2z M136.4,102.4
		c0.2,0,0.5-0.1,0.7-0.2c0.2-0.1,0.4-0.3,0.5-0.5v-1.5H137c-0.5,0-0.9,0.1-1.1,0.3c-0.3,0.2-0.4,0.5-0.4,0.9c0,0.3,0.1,0.6,0.2,0.8
		C135.8,102.3,136.1,102.4,136.4,102.4L136.4,102.4z"/>
	<path class="st1" d="M141.1,97.1l0,0.7c0.4-0.5,0.9-0.8,1.5-0.8c1.1,0,1.6,0.7,1.7,2.2v4.1h-1v-4c0-0.5-0.1-0.8-0.2-1
		s-0.4-0.3-0.7-0.3c-0.3,0-0.5,0.1-0.7,0.3c-0.2,0.2-0.4,0.4-0.5,0.7v4.5h-1v-6.1H141.1L141.1,97.1z"/>
	<path class="st1" d="M147.9,102.5c0.3,0,0.6-0.1,0.8-0.3s0.3-0.5,0.3-0.9h0.9c0,0.6-0.2,1.1-0.6,1.5c-0.4,0.4-0.9,0.6-1.5,0.6
		c-0.8,0-1.3-0.2-1.7-0.7c-0.4-0.5-0.6-1.2-0.6-2.1v-0.7c0-0.9,0.2-1.6,0.6-2.1c0.4-0.5,1-0.7,1.7-0.7c0.6,0,1.1,0.2,1.5,0.6
		c0.4,0.4,0.6,0.9,0.6,1.6H149c0-0.5-0.1-0.8-0.3-1c-0.2-0.2-0.5-0.3-0.8-0.3c-0.4,0-0.8,0.1-1,0.4c-0.2,0.3-0.3,0.8-0.3,1.4v0.8
		c0,0.7,0.1,1.2,0.3,1.5C147.1,102.3,147.4,102.5,147.9,102.5L147.9,102.5z"/>
	<path class="st1" d="M153.3,103.3c-0.8,0-1.4-0.2-1.8-0.7c-0.4-0.5-0.6-1.1-0.6-2v-0.7c0-0.9,0.2-1.6,0.6-2.2
		c0.4-0.5,1-0.8,1.7-0.8c0.7,0,1.3,0.2,1.6,0.7c0.4,0.5,0.5,1.2,0.5,2.1v0.7H152v0.1c0,0.7,0.1,1.1,0.4,1.4c0.2,0.3,0.6,0.4,1.1,0.4
		c0.3,0,0.6-0.1,0.8-0.2c0.2-0.1,0.4-0.3,0.6-0.5l0.5,0.6C154.9,103,154.2,103.3,153.3,103.3L153.3,103.3z M153.2,97.8
		c-0.4,0-0.7,0.1-0.9,0.4c-0.2,0.3-0.3,0.7-0.3,1.3h2.4v-0.1c0-0.6-0.1-1-0.3-1.3C153.9,97.9,153.6,97.8,153.2,97.8L153.2,97.8z"/>
	<path class="st1" d="M159.7,103.2v-5.3h-0.8v-0.8h0.8v-0.7c0-0.6,0.2-1.1,0.5-1.5s0.7-0.5,1.3-0.5c0.2,0,0.4,0,0.6,0.1l-0.1,0.8
		c-0.1,0-0.3-0.1-0.5-0.1c-0.6,0-0.9,0.4-0.9,1.2v0.6h1.1v0.8h-1.1v5.3L159.7,103.2L159.7,103.2z"/>
	<path class="st1" d="M162.7,99.9c0-0.9,0.2-1.6,0.7-2.1c0.4-0.5,1-0.8,1.7-0.8s1.3,0.3,1.7,0.8s0.7,1.2,0.7,2.1v0.6
		c0,0.9-0.2,1.6-0.6,2.1c-0.4,0.5-1,0.8-1.7,0.8c-0.7,0-1.3-0.3-1.7-0.8c-0.4-0.5-0.7-1.2-0.7-2L162.7,99.9L162.7,99.9z
		 M163.7,100.4c0,0.6,0.1,1.1,0.4,1.5c0.2,0.4,0.6,0.5,1,0.5c0.9,0,1.3-0.6,1.4-1.9v-0.7c0-0.6-0.1-1.1-0.4-1.5
		c-0.3-0.4-0.6-0.5-1-0.5c-0.4,0-0.7,0.2-1,0.5c-0.2,0.4-0.4,0.9-0.4,1.5L163.7,100.4L163.7,100.4z"/>
	<path class="st1" d="M171.3,98c-0.1,0-0.3,0-0.5,0c-0.5,0-0.9,0.3-1.1,0.8v4.4h-1v-6.1h1l0,0.6c0.3-0.5,0.6-0.7,1.1-0.7
		c0.2,0,0.3,0,0.4,0.1L171.3,98L171.3,98z"/>
	<path class="st1" d="M83.8,117.2h-1l-3.3-6.4v6.4h-1v-8.3h1l3.3,6.4v-6.4h1L83.8,117.2L83.8,117.2z"/>
	<path class="st1" d="M87.7,117.3c-0.8,0-1.4-0.2-1.8-0.7c-0.4-0.5-0.6-1.1-0.6-2v-0.7c0-0.9,0.2-1.6,0.6-2.2c0.4-0.5,1-0.8,1.7-0.8
		c0.7,0,1.3,0.2,1.6,0.7c0.4,0.5,0.5,1.2,0.5,2.1v0.7h-3.4v0.1c0,0.7,0.1,1.1,0.4,1.4c0.2,0.3,0.6,0.4,1.1,0.4
		c0.3,0,0.6-0.1,0.8-0.2c0.2-0.1,0.4-0.3,0.6-0.5l0.5,0.6C89.2,117,88.6,117.3,87.7,117.3L87.7,117.3z M87.6,111.8
		c-0.4,0-0.7,0.1-0.9,0.4c-0.2,0.3-0.3,0.7-0.3,1.3h2.4v-0.1c0-0.6-0.1-1-0.3-1.3C88.2,111.9,87.9,111.8,87.6,111.8L87.6,111.8z"/>
	<path class="st1" d="M93.1,117.3c-0.8,0-1.4-0.2-1.8-0.7s-0.6-1.1-0.6-2v-0.7c0-0.9,0.2-1.6,0.6-2.2c0.4-0.5,1-0.8,1.7-0.8
		s1.3,0.2,1.6,0.7c0.4,0.5,0.5,1.2,0.5,2.1v0.7h-3.4v0.1c0,0.7,0.1,1.1,0.4,1.4s0.6,0.4,1.1,0.4c0.3,0,0.6-0.1,0.8-0.2
		c0.2-0.1,0.4-0.3,0.6-0.5l0.5,0.6C94.7,117,94,117.3,93.1,117.3L93.1,117.3z M93,111.8c-0.4,0-0.7,0.1-0.9,0.4
		c-0.2,0.3-0.3,0.7-0.3,1.3h2.4v-0.1c0-0.6-0.1-1-0.3-1.3C93.7,111.9,93.4,111.8,93,111.8L93,111.8z"/>
	<path class="st1" d="M96.2,113.8c0-0.9,0.2-1.7,0.5-2.2c0.4-0.5,0.9-0.7,1.5-0.7c0.6,0,1,0.2,1.4,0.7v-3.2h1v8.7h-0.9l-0.1-0.7
		c-0.3,0.5-0.8,0.8-1.4,0.8c-0.6,0-1.1-0.2-1.5-0.7c-0.4-0.5-0.5-1.2-0.6-2.1L96.2,113.8L96.2,113.8z M97.2,114.4
		c0,0.7,0.1,1.2,0.3,1.5c0.2,0.3,0.5,0.5,1,0.5c0.5,0,0.9-0.3,1.1-0.8v-3.1c-0.3-0.5-0.6-0.7-1.1-0.7c-0.5,0-0.8,0.2-1,0.5
		c-0.2,0.3-0.3,0.8-0.3,1.5V114.4L97.2,114.4z"/>
	<path class="st1" d="M103.8,115.5l1.1-4.5h1.1l-2,7c-0.2,0.5-0.4,0.9-0.6,1.2c-0.3,0.3-0.6,0.4-0.9,0.4c-0.1,0-0.3,0-0.5-0.1v-0.9
		l0.2,0c0.3,0,0.5-0.1,0.7-0.2c0.2-0.1,0.3-0.4,0.4-0.7l0.2-0.7l-1.8-6.1h1.1L103.8,115.5L103.8,115.5z"/>
	<path class="st1" d="M113.6,113.5h-2.8v3.7h-1v-8.3h4.3v0.9h-3.3v2.8h2.8L113.6,113.5L113.6,113.5z"/>
	<path class="st1" d="M118.2,117.2c-0.1-0.1-0.1-0.4-0.1-0.7c-0.4,0.5-0.8,0.8-1.4,0.8s-1-0.2-1.3-0.5c-0.3-0.3-0.5-0.8-0.5-1.3
		c0-0.6,0.2-1.1,0.6-1.5c0.4-0.4,1-0.6,1.7-0.6h0.7v-0.7c0-0.4-0.1-0.6-0.2-0.8c-0.2-0.2-0.4-0.2-0.7-0.2c-0.3,0-0.5,0.1-0.7,0.3
		c-0.2,0.2-0.3,0.4-0.3,0.7h-1c0-0.3,0.1-0.6,0.3-0.9c0.2-0.3,0.4-0.5,0.8-0.7s0.7-0.2,1.1-0.2c0.6,0,1.1,0.2,1.4,0.5
		c0.3,0.3,0.5,0.8,0.5,1.4v3.1c0,0.5,0.1,0.9,0.2,1.2v0.1L118.2,117.2L118.2,117.2z M116.9,116.4c0.2,0,0.5-0.1,0.7-0.2
		s0.4-0.3,0.5-0.5v-1.5h-0.6c-0.5,0-0.9,0.1-1.1,0.3s-0.4,0.5-0.4,0.9c0,0.3,0.1,0.6,0.2,0.8S116.5,116.4,116.9,116.4L116.9,116.4z"
		/>
	<path class="st1" d="M121.6,111l0,0.6c0.4-0.5,0.9-0.7,1.5-0.7c0.7,0,1.2,0.3,1.4,0.9c0.4-0.6,0.9-0.9,1.6-0.9
		c1.1,0,1.7,0.7,1.7,2.1v4.1h-1v-4c0-0.4-0.1-0.8-0.2-1c-0.2-0.2-0.4-0.3-0.8-0.3c-0.3,0-0.5,0.1-0.7,0.4c-0.2,0.2-0.3,0.5-0.3,0.9
		v4.1h-1v-4.1c0-0.9-0.4-1.3-1-1.3c-0.5,0-0.9,0.3-1.1,0.8v4.6h-1V111L121.6,111L121.6,111z"/>
	<path class="st1" d="M130.5,109.4c0,0.2,0,0.3-0.1,0.4c-0.1,0.1-0.2,0.2-0.4,0.2c-0.2,0-0.3-0.1-0.4-0.2c-0.1-0.1-0.1-0.3-0.1-0.4
		c0-0.2,0-0.3,0.1-0.4c0.1-0.1,0.2-0.2,0.4-0.2c0.2,0,0.3,0.1,0.4,0.2S130.5,109.2,130.5,109.4z M130.5,117.2h-1V111h1V117.2z"/>
	<path class="st1" d="M133.1,117.2h-1v-8.7h1V117.2z"/>
	<path class="st1" d="M135.9,109.4c0,0.2,0,0.3-0.1,0.4c-0.1,0.1-0.2,0.2-0.4,0.2c-0.2,0-0.3-0.1-0.4-0.2c-0.1-0.1-0.1-0.3-0.1-0.4
		c0-0.2,0-0.3,0.1-0.4c0.1-0.1,0.2-0.2,0.4-0.2c0.2,0,0.3,0.1,0.4,0.2C135.8,109.1,135.9,109.2,135.9,109.4z M135.8,117.2h-1V111h1
		V117.2z"/>
	<path class="st1" d="M139.6,117.3c-0.8,0-1.4-0.2-1.8-0.7c-0.4-0.5-0.6-1.1-0.6-2v-0.7c0-0.9,0.2-1.6,0.6-2.2
		c0.4-0.5,1-0.8,1.7-0.8c0.7,0,1.3,0.2,1.6,0.7c0.4,0.5,0.5,1.2,0.5,2.1v0.7h-3.4v0.1c0,0.7,0.1,1.1,0.4,1.4s0.6,0.4,1.1,0.4
		c0.3,0,0.6-0.1,0.8-0.2c0.2-0.1,0.4-0.3,0.6-0.5l0.5,0.6C141.1,117,140.5,117.3,139.6,117.3L139.6,117.3z M139.5,111.8
		c-0.4,0-0.7,0.1-0.9,0.4c-0.2,0.3-0.3,0.7-0.3,1.3h2.4v-0.1c0-0.6-0.1-1-0.3-1.3C140.1,111.9,139.8,111.8,139.5,111.8L139.5,111.8z
		"/>
	<path class="st1" d="M145.8,115.6c0-0.2-0.1-0.4-0.2-0.6c-0.2-0.2-0.5-0.3-0.9-0.5c-0.5-0.2-0.9-0.4-1.1-0.6
		c-0.2-0.2-0.4-0.3-0.5-0.5c-0.1-0.2-0.2-0.4-0.2-0.7c0-0.5,0.2-0.9,0.5-1.2c0.4-0.3,0.8-0.5,1.4-0.5c0.6,0,1.1,0.2,1.4,0.5
		s0.5,0.8,0.5,1.3h-1c0-0.3-0.1-0.5-0.3-0.7c-0.2-0.2-0.4-0.3-0.7-0.3s-0.5,0.1-0.7,0.2s-0.3,0.4-0.3,0.6c0,0.2,0.1,0.4,0.2,0.5
		c0.1,0.1,0.4,0.3,0.9,0.5c0.7,0.3,1.3,0.6,1.5,0.9c0.3,0.3,0.4,0.6,0.4,1.1c0,0.5-0.2,1-0.5,1.3c-0.4,0.3-0.9,0.5-1.5,0.5
		s-1.2-0.2-1.6-0.5c-0.4-0.4-0.6-0.8-0.6-1.4h1c0,0.3,0.1,0.6,0.3,0.8c0.2,0.2,0.5,0.3,0.8,0.3c0.3,0,0.6-0.1,0.8-0.2
		C145.7,116.1,145.8,115.9,145.8,115.6L145.8,115.6z"/>
	<path class="st1" d="M83.1,129.1c0-0.4-0.1-0.7-0.3-0.9c-0.2-0.2-0.6-0.4-1.2-0.6c-0.6-0.2-1-0.4-1.3-0.7s-0.5-0.5-0.7-0.8
		c-0.2-0.3-0.2-0.6-0.2-1c0-0.7,0.2-1.2,0.7-1.6c0.4-0.4,1-0.6,1.7-0.6c0.5,0,0.9,0.1,1.3,0.3c0.4,0.2,0.7,0.5,0.9,0.9
		c0.2,0.4,0.3,0.8,0.3,1.3h-1c0-0.5-0.1-0.9-0.4-1.2c-0.2-0.3-0.6-0.4-1.1-0.4c-0.4,0-0.7,0.1-1,0.4c-0.2,0.2-0.3,0.6-0.3,1
		c0,0.3,0.1,0.6,0.4,0.9c0.3,0.2,0.6,0.4,1.2,0.6c0.8,0.3,1.4,0.6,1.7,1c0.4,0.4,0.5,0.9,0.5,1.5c0,0.7-0.2,1.2-0.7,1.6
		c-0.4,0.4-1,0.6-1.8,0.6c-0.5,0-0.9-0.1-1.3-0.3s-0.7-0.5-1-0.9s-0.3-0.8-0.3-1.3h1c0,0.5,0.1,0.9,0.4,1.2c0.3,0.3,0.7,0.4,1.2,0.4
		c0.5,0,0.8-0.1,1-0.4C83,129.8,83.1,129.4,83.1,129.1L83.1,129.1z"/>
	<path class="st1" d="M85.1,127.8c0-0.9,0.2-1.6,0.7-2.1c0.4-0.5,1-0.8,1.7-0.8c0.7,0,1.3,0.3,1.7,0.8c0.4,0.5,0.7,1.2,0.7,2.1v0.6
		c0,0.9-0.2,1.6-0.6,2.1c-0.4,0.5-1,0.8-1.7,0.8c-0.7,0-1.3-0.3-1.7-0.8s-0.7-1.2-0.7-2L85.1,127.8L85.1,127.8z M86.1,128.4
		c0,0.6,0.1,1.1,0.4,1.5c0.2,0.4,0.6,0.5,1,0.5c0.9,0,1.3-0.6,1.4-1.9v-0.7c0-0.6-0.1-1.1-0.4-1.5c-0.3-0.4-0.6-0.5-1-0.5
		c-0.4,0-0.7,0.2-1,0.5c-0.2,0.4-0.4,0.9-0.4,1.5V128.4L86.1,128.4z"/>
	<path class="st1" d="M93.3,130.4c0.3,0,0.6-0.1,0.8-0.3s0.3-0.5,0.3-0.9h0.9c0,0.6-0.2,1.1-0.6,1.5c-0.4,0.4-0.9,0.6-1.5,0.6
		c-0.8,0-1.3-0.2-1.7-0.7c-0.4-0.5-0.6-1.2-0.6-2.1v-0.7c0-0.9,0.2-1.6,0.6-2.1c0.4-0.5,1-0.7,1.7-0.7c0.6,0,1.1,0.2,1.5,0.6
		c0.4,0.4,0.6,0.9,0.6,1.6h-0.9c0-0.5-0.1-0.8-0.3-1c-0.2-0.2-0.5-0.3-0.8-0.3c-0.4,0-0.8,0.1-1,0.4c-0.2,0.3-0.3,0.8-0.3,1.4v0.8
		c0,0.7,0.1,1.2,0.3,1.5C92.5,130.3,92.9,130.4,93.3,130.4L93.3,130.4z"/>
	<path class="st1" d="M97.7,123.4c0,0.2,0,0.3-0.1,0.4c-0.1,0.1-0.2,0.2-0.4,0.2c-0.2,0-0.3-0.1-0.4-0.2c-0.1-0.1-0.1-0.3-0.1-0.4
		c0-0.2,0-0.3,0.1-0.4c0.1-0.1,0.2-0.2,0.4-0.2c0.2,0,0.3,0.1,0.4,0.2C97.7,123.1,97.7,123.2,97.7,123.4z M97.6,131.1h-1V125h1
		V131.1z"/>
	<path class="st1" d="M102.4,131.1c-0.1-0.1-0.1-0.4-0.1-0.7c-0.4,0.5-0.8,0.8-1.4,0.8s-1-0.2-1.3-0.5c-0.3-0.3-0.5-0.8-0.5-1.3
		c0-0.6,0.2-1.1,0.6-1.5c0.4-0.4,1-0.6,1.7-0.6h0.7v-0.7c0-0.4-0.1-0.6-0.2-0.8c-0.2-0.2-0.4-0.2-0.7-0.2c-0.3,0-0.5,0.1-0.7,0.3
		c-0.2,0.2-0.3,0.4-0.3,0.7h-1c0-0.3,0.1-0.6,0.3-0.9c0.2-0.3,0.4-0.5,0.8-0.7c0.3-0.2,0.7-0.2,1.1-0.2c0.6,0,1.1,0.2,1.4,0.5
		c0.3,0.3,0.5,0.8,0.5,1.4v3.1c0,0.5,0.1,0.9,0.2,1.2v0.1H102.4L102.4,131.1z M101,130.3c0.2,0,0.5-0.1,0.7-0.2
		c0.2-0.1,0.4-0.3,0.5-0.5v-1.5h-0.6c-0.5,0-0.9,0.1-1.1,0.3c-0.3,0.2-0.4,0.5-0.4,0.9c0,0.3,0.1,0.6,0.2,0.8
		C100.5,130.3,100.7,130.3,101,130.3L101,130.3z"/>
	<path class="st1" d="M105.9,131.1h-1v-8.7h1V131.1z"/>
	<path class="st1" d="M113.9,129.1c0-0.4-0.1-0.7-0.3-0.9c-0.2-0.2-0.6-0.4-1.2-0.6c-0.6-0.2-1-0.4-1.3-0.7s-0.5-0.5-0.7-0.8
		c-0.2-0.3-0.2-0.6-0.2-1c0-0.7,0.2-1.2,0.7-1.6c0.4-0.4,1-0.6,1.7-0.6c0.5,0,0.9,0.1,1.3,0.3c0.4,0.2,0.7,0.5,0.9,0.9
		c0.2,0.4,0.3,0.8,0.3,1.3h-1c0-0.5-0.1-0.9-0.4-1.2c-0.2-0.3-0.6-0.4-1.1-0.4c-0.4,0-0.7,0.1-1,0.4c-0.2,0.2-0.3,0.6-0.3,1
		c0,0.3,0.1,0.6,0.4,0.9c0.3,0.2,0.6,0.4,1.2,0.6c0.8,0.3,1.4,0.6,1.7,1c0.4,0.4,0.5,0.9,0.5,1.5c0,0.7-0.2,1.2-0.7,1.6
		c-0.4,0.4-1,0.6-1.8,0.6c-0.5,0-0.9-0.1-1.3-0.3c-0.4-0.2-0.7-0.5-1-0.9c-0.2-0.4-0.3-0.8-0.3-1.3h1c0,0.5,0.1,0.9,0.4,1.2
		s0.7,0.4,1.2,0.4c0.5,0,0.8-0.1,1-0.4C113.8,129.8,113.9,129.4,113.9,129.1L113.9,129.1z"/>
	<path class="st1" d="M118.4,131.3c-0.8,0-1.4-0.2-1.8-0.7s-0.6-1.1-0.6-2v-0.7c0-0.9,0.2-1.6,0.6-2.2c0.4-0.5,1-0.8,1.7-0.8
		c0.7,0,1.3,0.2,1.6,0.7c0.4,0.5,0.5,1.2,0.5,2.1v0.7H117v0.1c0,0.7,0.1,1.1,0.4,1.4c0.2,0.3,0.6,0.4,1.1,0.4c0.3,0,0.6-0.1,0.8-0.2
		c0.2-0.1,0.4-0.3,0.6-0.5l0.5,0.6C119.9,130.9,119.3,131.3,118.4,131.3L118.4,131.3z M118.2,125.7c-0.4,0-0.7,0.1-0.9,0.4
		c-0.2,0.3-0.3,0.7-0.3,1.3h2.4v-0.1c0-0.6-0.1-1-0.3-1.3C118.9,125.9,118.6,125.7,118.2,125.7L118.2,125.7z"/>
	<path class="st1" d="M123.7,130.4c0.3,0,0.6-0.1,0.8-0.3s0.3-0.5,0.3-0.9h0.9c0,0.6-0.2,1.1-0.6,1.5c-0.4,0.4-0.9,0.6-1.5,0.6
		c-0.8,0-1.3-0.2-1.7-0.7c-0.4-0.5-0.6-1.2-0.6-2.1v-0.7c0-0.9,0.2-1.6,0.6-2.1s1-0.7,1.7-0.7c0.6,0,1.1,0.2,1.5,0.6
		s0.6,0.9,0.6,1.6h-0.9c0-0.5-0.1-0.8-0.3-1c-0.2-0.2-0.5-0.3-0.8-0.3c-0.4,0-0.8,0.1-1,0.4c-0.2,0.3-0.3,0.8-0.3,1.4v0.8
		c0,0.7,0.1,1.2,0.3,1.5C122.9,130.3,123.3,130.4,123.7,130.4L123.7,130.4z"/>
	<path class="st1" d="M130.1,130.6c-0.3,0.4-0.8,0.7-1.5,0.7c-0.6,0-1-0.2-1.3-0.6c-0.3-0.4-0.4-0.9-0.4-1.7v-4h1v3.9
		c0,1,0.3,1.4,0.9,1.4c0.6,0,1-0.3,1.3-0.8V125h1v6.1h-1L130.1,130.6L130.1,130.6z"/>
	<path class="st1" d="M135.1,125.9c-0.1,0-0.3,0-0.5,0c-0.5,0-0.9,0.3-1.1,0.8v4.4h-1V125h1l0,0.6c0.3-0.5,0.6-0.7,1.1-0.7
		c0.2,0,0.3,0,0.4,0.1L135.1,125.9L135.1,125.9z"/>
	<path class="st1" d="M137.3,123.4c0,0.2,0,0.3-0.1,0.4c-0.1,0.1-0.2,0.2-0.4,0.2s-0.3-0.1-0.4-0.2c-0.1-0.1-0.1-0.3-0.1-0.4
		c0-0.2,0-0.3,0.1-0.4c0.1-0.1,0.2-0.2,0.4-0.2c0.2,0,0.3,0.1,0.4,0.2C137.3,123.1,137.3,123.2,137.3,123.4z M137.2,131.1h-1V125h1
		V131.1z"/>
	<path class="st1" d="M140.1,123.5v1.5h0.9v0.8h-0.9v3.8c0,0.2,0,0.4,0.1,0.6c0.1,0.1,0.2,0.2,0.4,0.2c0.1,0,0.3,0,0.4-0.1l0,0.8
		c-0.2,0.1-0.5,0.1-0.7,0.1c-0.4,0-0.7-0.1-0.9-0.4c-0.2-0.3-0.3-0.7-0.3-1.2v-3.8h-0.9V125h0.9v-1.5L140.1,123.5L140.1,123.5z"/>
	<path class="st1" d="M143.9,129.5l1.1-4.5h1.1l-2,7c-0.2,0.5-0.4,0.9-0.6,1.2c-0.3,0.3-0.6,0.4-0.9,0.4c-0.1,0-0.3,0-0.5-0.1v-0.9
		l0.2,0c0.3,0,0.5-0.1,0.7-0.2s0.3-0.4,0.4-0.7l0.2-0.7l-1.8-6.1h1.1L143.9,129.5L143.9,129.5z"/>
	<path class="st1" d="M93,137.7h-2.2v7.4h-1v-7.4h-2.2v-0.9H93L93,137.7L93,137.7z"/>
	<path class="st1" d="M96.6,145.1c-0.1-0.1-0.1-0.4-0.1-0.7c-0.4,0.5-0.8,0.8-1.4,0.8c-0.6,0-1-0.2-1.3-0.5
		c-0.3-0.3-0.5-0.8-0.5-1.3c0-0.6,0.2-1.1,0.6-1.5c0.4-0.4,1-0.6,1.7-0.6h0.7v-0.7c0-0.4-0.1-0.6-0.2-0.8c-0.2-0.2-0.4-0.2-0.7-0.2
		c-0.3,0-0.5,0.1-0.7,0.3c-0.2,0.2-0.3,0.4-0.3,0.7h-1c0-0.3,0.1-0.6,0.3-0.9c0.2-0.3,0.4-0.5,0.8-0.7c0.3-0.2,0.7-0.2,1.1-0.2
		c0.6,0,1.1,0.2,1.4,0.5c0.3,0.3,0.5,0.8,0.5,1.4v3.1c0,0.5,0.1,0.9,0.2,1.2v0.1H96.6L96.6,145.1z M95.3,144.3
		c0.2,0,0.5-0.1,0.7-0.2c0.2-0.1,0.4-0.3,0.5-0.5v-1.5h-0.6c-0.5,0-0.9,0.1-1.1,0.3s-0.4,0.5-0.4,0.9c0,0.3,0.1,0.6,0.2,0.8
		C94.7,144.2,95,144.3,95.3,144.3L95.3,144.3z"/>
	<path class="st1" d="M100.8,141.2l1.1-2.2h1.2l-1.7,3l1.7,3.1h-1.2l-1.1-2.3l-1.1,2.3h-1.2l1.7-3.1l-1.7-3h1.2L100.8,141.2
		L100.8,141.2z"/>
	<path class="st1" d="M108.9,144.4c0.3,0,0.6-0.1,0.8-0.3c0.2-0.2,0.3-0.5,0.3-0.9h0.9c0,0.6-0.2,1.1-0.6,1.5
		c-0.4,0.4-0.9,0.6-1.5,0.6c-0.8,0-1.3-0.2-1.7-0.7c-0.4-0.5-0.6-1.2-0.6-2.1v-0.7c0-0.9,0.2-1.6,0.6-2.1c0.4-0.5,1-0.7,1.7-0.7
		c0.6,0,1.1,0.2,1.5,0.6c0.4,0.4,0.6,0.9,0.6,1.6h-0.9c0-0.5-0.1-0.8-0.3-1c-0.2-0.2-0.5-0.3-0.8-0.3c-0.4,0-0.8,0.1-1,0.4
		s-0.3,0.8-0.3,1.4v0.8c0,0.7,0.1,1.2,0.3,1.5C108.1,144.2,108.5,144.4,108.9,144.4L108.9,144.4z"/>
	<path class="st1" d="M114.7,139.9c-0.1,0-0.3,0-0.5,0c-0.5,0-0.9,0.3-1.1,0.8v4.4h-1V139h1l0,0.6c0.3-0.5,0.6-0.7,1.1-0.7
		c0.2,0,0.3,0,0.4,0.1L114.7,139.9L114.7,139.9z"/>
	<path class="st1" d="M117.9,145.2c-0.8,0-1.4-0.2-1.8-0.7c-0.4-0.5-0.6-1.1-0.6-2v-0.7c0-0.9,0.2-1.6,0.6-2.2
		c0.4-0.5,1-0.8,1.7-0.8c0.7,0,1.3,0.2,1.6,0.7c0.4,0.5,0.5,1.2,0.5,2.1v0.7h-3.4v0.1c0,0.7,0.1,1.1,0.4,1.4
		c0.2,0.3,0.6,0.4,1.1,0.4c0.3,0,0.6-0.1,0.8-0.2c0.2-0.1,0.4-0.3,0.6-0.5l0.5,0.6C119.5,144.9,118.8,145.2,117.9,145.2L117.9,145.2
		z M117.8,139.7c-0.4,0-0.7,0.1-0.9,0.4c-0.2,0.3-0.3,0.7-0.3,1.3h2.4v-0.1c0-0.6-0.1-1-0.3-1.3
		C118.5,139.8,118.2,139.7,117.8,139.7L117.8,139.7z"/>
	<path class="st1" d="M121,141.8c0-0.9,0.2-1.7,0.5-2.2c0.4-0.5,0.9-0.7,1.5-0.7c0.6,0,1,0.2,1.4,0.7v-3.2h1v8.7h-0.9l-0.1-0.7
		c-0.3,0.5-0.8,0.8-1.4,0.8c-0.6,0-1.1-0.2-1.5-0.7c-0.4-0.5-0.5-1.2-0.6-2.1L121,141.8L121,141.8z M122,142.3
		c0,0.7,0.1,1.2,0.3,1.5c0.2,0.3,0.5,0.5,1,0.5c0.5,0,0.9-0.3,1.1-0.8v-3.1c-0.3-0.5-0.6-0.7-1.1-0.7c-0.5,0-0.8,0.2-1,0.5
		c-0.2,0.3-0.3,0.8-0.3,1.5V142.3L122,142.3z"/>
	<path class="st1" d="M128.1,137.3c0,0.2,0,0.3-0.1,0.4c-0.1,0.1-0.2,0.2-0.4,0.2c-0.2,0-0.3-0.1-0.4-0.2c-0.1-0.1-0.1-0.3-0.1-0.4
		s0-0.3,0.1-0.4c0.1-0.1,0.2-0.2,0.4-0.2s0.3,0.1,0.4,0.2C128.1,137,128.1,137.2,128.1,137.3z M128,145.1h-1V139h1V145.1z"/>
	<path class="st1" d="M130.9,137.5v1.5h0.9v0.8h-0.9v3.8c0,0.2,0,0.4,0.1,0.6c0.1,0.1,0.2,0.2,0.4,0.2c0.1,0,0.3,0,0.4-0.1l0,0.8
		c-0.2,0.1-0.5,0.1-0.7,0.1c-0.4,0-0.7-0.1-0.9-0.4c-0.2-0.3-0.3-0.7-0.3-1.2v-3.8H129V139h0.9v-1.5L130.9,137.5L130.9,137.5z"/>
	<path class="st1" d="M136,143.5c0-0.2-0.1-0.4-0.2-0.6s-0.5-0.3-0.9-0.5c-0.5-0.2-0.9-0.4-1.1-0.6s-0.4-0.3-0.5-0.5
		c-0.1-0.2-0.2-0.4-0.2-0.7c0-0.5,0.2-0.9,0.5-1.2c0.4-0.3,0.8-0.5,1.4-0.5c0.6,0,1.1,0.2,1.4,0.5c0.4,0.3,0.5,0.8,0.5,1.3h-1
		c0-0.3-0.1-0.5-0.3-0.7c-0.2-0.2-0.4-0.3-0.7-0.3c-0.3,0-0.5,0.1-0.7,0.2c-0.2,0.2-0.3,0.4-0.3,0.6c0,0.2,0.1,0.4,0.2,0.5
		c0.1,0.1,0.4,0.3,0.9,0.5c0.7,0.3,1.3,0.6,1.5,0.9c0.3,0.3,0.4,0.6,0.4,1.1c0,0.5-0.2,1-0.5,1.3c-0.4,0.3-0.9,0.5-1.5,0.5
		s-1.2-0.2-1.6-0.5c-0.4-0.4-0.6-0.8-0.6-1.4h1c0,0.3,0.1,0.6,0.3,0.8c0.2,0.2,0.5,0.3,0.8,0.3c0.3,0,0.6-0.1,0.8-0.2
		C135.9,144,136,143.8,136,143.5L136,143.5z"/>
	<path class="st1" d="M83.9,150.8v5.9c0,0.8-0.2,1.4-0.7,1.8c-0.4,0.4-1.1,0.7-1.9,0.7s-1.4-0.2-1.9-0.7c-0.4-0.4-0.7-1.1-0.7-1.9
		v-5.9h1v5.8c0,0.6,0.1,1,0.4,1.2c0.2,0.3,0.6,0.4,1.1,0.4c0.5,0,0.9-0.1,1.2-0.4c0.2-0.3,0.4-0.7,0.4-1.2v-5.8L83.9,150.8
		L83.9,150.8z"/>
	<path class="st1" d="M86.3,152.9l0,0.7c0.4-0.5,0.9-0.8,1.5-0.8c1.1,0,1.6,0.7,1.7,2.2v4.1h-1v-4c0-0.5-0.1-0.8-0.2-1
		s-0.4-0.3-0.7-0.3c-0.3,0-0.5,0.1-0.7,0.3c-0.2,0.2-0.4,0.4-0.5,0.7v4.5h-1v-6.1L86.3,152.9L86.3,152.9z"/>
	<path class="st1" d="M93.2,159.2c-0.8,0-1.4-0.2-1.8-0.7c-0.4-0.5-0.6-1.1-0.6-2v-0.7c0-0.9,0.2-1.6,0.6-2.2c0.4-0.5,1-0.8,1.7-0.8
		s1.3,0.2,1.6,0.7c0.4,0.5,0.5,1.2,0.5,2.1v0.7h-3.4v0.1c0,0.7,0.1,1.1,0.4,1.4s0.6,0.4,1.1,0.4c0.3,0,0.6-0.1,0.8-0.2
		c0.2-0.1,0.4-0.3,0.6-0.5l0.5,0.6C94.8,158.9,94.1,159.2,93.2,159.2L93.2,159.2z M93.1,153.7c-0.4,0-0.7,0.1-0.9,0.4
		s-0.3,0.7-0.3,1.3h2.4v-0.1c0-0.6-0.1-1-0.3-1.3C93.7,153.8,93.5,153.7,93.1,153.7L93.1,153.7z"/>
	<path class="st1" d="M97.4,152.9l0,0.6c0.4-0.5,0.9-0.7,1.5-0.7c0.7,0,1.2,0.3,1.4,0.9c0.4-0.6,0.9-0.9,1.6-0.9
		c1.1,0,1.7,0.7,1.7,2.1v4.1h-1v-4c0-0.4-0.1-0.8-0.2-1s-0.4-0.3-0.8-0.3c-0.3,0-0.5,0.1-0.7,0.4c-0.2,0.2-0.3,0.5-0.3,0.9v4.1h-1
		V155c0-0.9-0.4-1.3-1-1.3c-0.5,0-0.9,0.3-1.1,0.8v4.6h-1v-6.1L97.4,152.9L97.4,152.9z"/>
	<path class="st1" d="M109.6,156.3c0,1-0.2,1.7-0.5,2.2c-0.3,0.5-0.8,0.7-1.5,0.7c-0.6,0-1.1-0.2-1.4-0.7v2.9h-1v-8.5h0.9l0.1,0.7
		c0.3-0.5,0.8-0.8,1.4-0.8c0.7,0,1.2,0.2,1.5,0.7c0.3,0.5,0.5,1.2,0.5,2.1L109.6,156.3L109.6,156.3z M108.6,155.7
		c0-0.7-0.1-1.2-0.3-1.5c-0.2-0.3-0.6-0.5-1-0.5c-0.5,0-0.8,0.2-1.1,0.7v3.2c0.2,0.5,0.6,0.7,1.1,0.7c0.5,0,0.8-0.2,1-0.5
		c0.2-0.3,0.3-0.8,0.3-1.5L108.6,155.7L108.6,155.7z"/>
	<path class="st1" d="M112,159.1h-1v-8.7h1V159.1z"/>
	<path class="st1" d="M113.4,155.7c0-0.9,0.2-1.6,0.7-2.1c0.4-0.5,1-0.8,1.7-0.8s1.3,0.3,1.7,0.8s0.7,1.2,0.7,2.1v0.6
		c0,0.9-0.2,1.6-0.6,2.1c-0.4,0.5-1,0.8-1.7,0.8c-0.7,0-1.3-0.3-1.7-0.8c-0.4-0.5-0.7-1.2-0.7-2L113.4,155.7L113.4,155.7z
		 M114.4,156.3c0,0.6,0.1,1.1,0.4,1.5c0.2,0.4,0.6,0.5,1,0.5c0.9,0,1.3-0.6,1.4-1.9v-0.7c0-0.6-0.1-1.1-0.4-1.5s-0.6-0.5-1-0.5
		s-0.7,0.2-1,0.5c-0.2,0.4-0.4,0.9-0.4,1.5V156.3L114.4,156.3z"/>
	<path class="st1" d="M121.1,157.4l1.1-4.5h1.1l-2,7c-0.2,0.5-0.4,0.9-0.6,1.2c-0.3,0.3-0.6,0.4-0.9,0.4c-0.1,0-0.3,0-0.5-0.1v-0.9
		l0.2,0c0.3,0,0.5-0.1,0.7-0.2s0.3-0.4,0.4-0.7l0.2-0.7l-1.8-6.1h1.1L121.1,157.4L121.1,157.4z"/>
	<path class="st1" d="M125.2,152.9l0,0.6c0.4-0.5,0.9-0.7,1.5-0.7c0.7,0,1.2,0.3,1.4,0.9c0.4-0.6,0.9-0.9,1.6-0.9
		c1.1,0,1.7,0.7,1.7,2.1v4.1h-1v-4c0-0.4-0.1-0.8-0.2-1c-0.2-0.2-0.4-0.3-0.8-0.3c-0.3,0-0.5,0.1-0.7,0.4c-0.2,0.2-0.3,0.5-0.3,0.9
		v4.1h-1V155c0-0.9-0.4-1.3-1-1.3c-0.5,0-0.9,0.3-1.1,0.8v4.6h-1v-6.1L125.2,152.9L125.2,152.9z"/>
	<path class="st1" d="M135.2,159.2c-0.8,0-1.4-0.2-1.8-0.7c-0.4-0.5-0.6-1.1-0.6-2v-0.7c0-0.9,0.2-1.6,0.6-2.2
		c0.4-0.5,1-0.8,1.7-0.8s1.3,0.2,1.6,0.7c0.4,0.5,0.5,1.2,0.5,2.1v0.7h-3.4v0.1c0,0.7,0.1,1.1,0.4,1.4s0.6,0.4,1.1,0.4
		c0.3,0,0.6-0.1,0.8-0.2c0.2-0.1,0.4-0.3,0.6-0.5l0.5,0.6C136.8,158.9,136.1,159.2,135.2,159.2L135.2,159.2z M135.1,153.7
		c-0.4,0-0.7,0.1-0.9,0.4s-0.3,0.7-0.3,1.3h2.4v-0.1c0-0.6-0.1-1-0.3-1.3C135.8,153.8,135.5,153.7,135.1,153.7L135.1,153.7z"/>
	<path class="st1" d="M139.4,152.9l0,0.7c0.4-0.5,0.9-0.8,1.5-0.8c1.1,0,1.6,0.7,1.7,2.2v4.1h-1v-4c0-0.5-0.1-0.8-0.2-1
		s-0.4-0.3-0.7-0.3c-0.3,0-0.5,0.1-0.7,0.3c-0.2,0.2-0.4,0.4-0.5,0.7v4.5h-1v-6.1L139.4,152.9L139.4,152.9z"/>
	<path class="st1" d="M145.4,151.4v1.5h0.9v0.8h-0.9v3.8c0,0.2,0,0.4,0.1,0.6c0.1,0.1,0.2,0.2,0.4,0.2c0.1,0,0.3,0,0.4-0.1l0,0.8
		c-0.2,0.1-0.5,0.1-0.7,0.1c-0.4,0-0.7-0.1-0.9-0.4c-0.2-0.3-0.3-0.7-0.3-1.2v-3.8h-0.9v-0.8h0.9v-1.5L145.4,151.4L145.4,151.4z"/>
	<path class="st1" d="M61.6,170.4l0.1,0.9l0.2-0.8l1.3-5.8H64l1.3,5.8l0.2,0.8l0.1-1l1-5.7h1L66,173h-0.9l-1.4-6l-0.1-0.5l-0.1,0.5
		l-1.4,6h-0.9l-1.6-8.3h1L61.6,170.4L61.6,170.4z"/>
	<path class="st1" d="M68.3,169.7c0-0.9,0.2-1.6,0.7-2.1c0.4-0.5,1-0.8,1.7-0.8c0.7,0,1.3,0.3,1.7,0.8s0.7,1.2,0.7,2.1v0.6
		c0,0.9-0.2,1.6-0.6,2.1c-0.4,0.5-1,0.8-1.7,0.8s-1.3-0.3-1.7-0.8c-0.4-0.5-0.7-1.2-0.7-2L68.3,169.7L68.3,169.7z M69.3,170.3
		c0,0.6,0.1,1.1,0.4,1.5c0.2,0.4,0.6,0.5,1,0.5c0.9,0,1.3-0.6,1.4-1.9v-0.7c0-0.6-0.1-1.1-0.4-1.5s-0.6-0.5-1-0.5
		c-0.4,0-0.7,0.2-1,0.5c-0.2,0.4-0.4,0.9-0.4,1.5V170.3L69.3,170.3z"/>
	<path class="st1" d="M76.9,167.8c-0.1,0-0.3,0-0.5,0c-0.5,0-0.9,0.3-1.1,0.8v4.4h-1v-6.1h1l0,0.6c0.3-0.5,0.6-0.7,1.1-0.7
		c0.2,0,0.3,0,0.4,0.1L76.9,167.8L76.9,167.8z"/>
	<path class="st1" d="M79.5,170.2l-0.5,0.6v2.2h-1v-8.7h1v5.2l1.9-2.6H82l-2,2.6l2.2,3.6h-1.2L79.5,170.2L79.5,170.2z"/>
	<path class="st1" d="M85.4,173.1c-0.8,0-1.4-0.2-1.8-0.7c-0.4-0.5-0.6-1.1-0.6-2v-0.7c0-0.9,0.2-1.6,0.6-2.2c0.4-0.5,1-0.8,1.7-0.8
		c0.7,0,1.3,0.2,1.6,0.7c0.4,0.5,0.5,1.2,0.5,2.1v0.7H84v0.1c0,0.7,0.1,1.1,0.4,1.4s0.6,0.4,1.1,0.4c0.3,0,0.6-0.1,0.8-0.2
		c0.2-0.1,0.4-0.3,0.6-0.5l0.5,0.6C86.9,172.8,86.3,173.1,85.4,173.1L85.4,173.1z M85.2,167.6c-0.4,0-0.7,0.1-0.9,0.4
		s-0.3,0.7-0.3,1.3h2.4v-0.1c0-0.6-0.1-1-0.3-1.3C85.9,167.8,85.6,167.6,85.2,167.6L85.2,167.6z"/>
	<path class="st1" d="M91.1,167.8c-0.1,0-0.3,0-0.5,0c-0.5,0-0.9,0.3-1.1,0.8v4.4h-1v-6.1h1l0,0.6c0.3-0.5,0.6-0.7,1.1-0.7
		c0.2,0,0.3,0,0.4,0.1L91.1,167.8L91.1,167.8z"/>
	<path class="st1" d="M95.1,171.5c0-0.2-0.1-0.4-0.2-0.6c-0.2-0.2-0.5-0.3-0.9-0.5c-0.5-0.2-0.9-0.4-1.1-0.6
		c-0.2-0.2-0.4-0.3-0.5-0.5c-0.1-0.2-0.2-0.4-0.2-0.7c0-0.5,0.2-0.9,0.5-1.2c0.4-0.3,0.8-0.5,1.4-0.5c0.6,0,1.1,0.2,1.4,0.5
		s0.5,0.8,0.5,1.3h-1c0-0.3-0.1-0.5-0.3-0.7c-0.2-0.2-0.4-0.3-0.7-0.3s-0.5,0.1-0.7,0.2c-0.2,0.2-0.3,0.4-0.3,0.6
		c0,0.2,0.1,0.4,0.2,0.5c0.1,0.1,0.4,0.3,0.9,0.5c0.7,0.3,1.3,0.6,1.5,0.9c0.3,0.3,0.4,0.6,0.4,1.1c0,0.5-0.2,1-0.5,1.3
		c-0.4,0.3-0.9,0.5-1.5,0.5s-1.2-0.2-1.6-0.5c-0.4-0.4-0.6-0.8-0.6-1.4h1c0,0.3,0.1,0.6,0.3,0.8c0.2,0.2,0.5,0.3,0.8,0.3
		c0.3,0,0.6-0.1,0.8-0.2C95,171.9,95.1,171.7,95.1,171.5L95.1,171.5z"/>
	<path class="st1" d="M105.4,170.4c0,0.9-0.3,1.6-0.7,2c-0.5,0.5-1.1,0.7-1.9,0.7s-1.5-0.3-2-0.9s-0.7-1.5-0.7-2.6v-1.5
		c0-1.1,0.3-1.9,0.8-2.6c0.5-0.6,1.2-0.9,2.1-0.9c0.8,0,1.4,0.2,1.9,0.7c0.4,0.5,0.7,1.2,0.7,2.1h-1.1c0-0.7-0.2-1.2-0.4-1.4
		c-0.2-0.3-0.6-0.4-1.1-0.4c-0.6,0-1,0.2-1.3,0.7s-0.5,1.1-0.5,1.9v1.5c0,0.8,0.1,1.5,0.4,1.9c0.3,0.4,0.7,0.7,1.2,0.7
		c0.5,0,0.9-0.1,1.2-0.4c0.2-0.3,0.4-0.8,0.4-1.4L105.4,170.4L105.4,170.4z"/>
	<path class="st1" d="M106.5,169.7c0-0.9,0.2-1.6,0.7-2.1s1-0.8,1.7-0.8s1.3,0.3,1.7,0.8c0.4,0.5,0.7,1.2,0.7,2.1v0.6
		c0,0.9-0.2,1.6-0.6,2.1c-0.4,0.5-1,0.8-1.7,0.8c-0.7,0-1.3-0.3-1.7-0.8c-0.4-0.5-0.7-1.2-0.7-2L106.5,169.7L106.5,169.7z
		 M107.5,170.3c0,0.6,0.1,1.1,0.4,1.5c0.2,0.4,0.6,0.5,1,0.5c0.9,0,1.3-0.6,1.4-1.9v-0.7c0-0.6-0.1-1.1-0.4-1.5s-0.6-0.5-1-0.5
		s-0.7,0.2-1,0.5c-0.2,0.4-0.4,0.9-0.4,1.5V170.3L107.5,170.3z"/>
	<path class="st1" d="M113.5,166.9l0,0.6c0.4-0.5,0.9-0.7,1.5-0.7c0.7,0,1.2,0.3,1.4,0.9c0.4-0.6,0.9-0.9,1.6-0.9
		c1.1,0,1.7,0.7,1.7,2.1v4.1h-1v-4c0-0.4-0.1-0.8-0.2-1c-0.2-0.2-0.4-0.3-0.8-0.3c-0.3,0-0.5,0.1-0.7,0.4c-0.2,0.2-0.3,0.5-0.3,0.9
		v4.1h-1v-4.1c0-0.9-0.4-1.3-1-1.3c-0.5,0-0.9,0.3-1.1,0.8v4.6h-1v-6.1L113.5,166.9L113.5,166.9z"/>
	<path class="st1" d="M125.7,170.3c0,1-0.2,1.7-0.5,2.2c-0.3,0.5-0.8,0.7-1.5,0.7s-1.1-0.2-1.4-0.7v2.9h-1v-8.5h0.9l0.1,0.7
		c0.3-0.5,0.8-0.8,1.4-0.8c0.7,0,1.2,0.2,1.5,0.7c0.3,0.5,0.5,1.2,0.5,2.1L125.7,170.3L125.7,170.3z M124.7,169.7
		c0-0.7-0.1-1.2-0.3-1.5c-0.2-0.3-0.6-0.5-1-0.5s-0.8,0.2-1.1,0.7v3.2c0.2,0.5,0.6,0.7,1.1,0.7c0.5,0,0.8-0.2,1-0.5
		c0.2-0.3,0.3-0.8,0.3-1.5L124.7,169.7L124.7,169.7z"/>
	<path class="st1" d="M129.2,173.1c-0.8,0-1.4-0.2-1.8-0.7c-0.4-0.5-0.6-1.1-0.6-2v-0.7c0-0.9,0.2-1.6,0.6-2.2
		c0.4-0.5,1-0.8,1.7-0.8s1.3,0.2,1.6,0.7c0.4,0.5,0.5,1.2,0.5,2.1v0.7h-3.4v0.1c0,0.7,0.1,1.1,0.4,1.4s0.6,0.4,1.1,0.4
		c0.3,0,0.6-0.1,0.8-0.2c0.2-0.1,0.4-0.3,0.6-0.5l0.5,0.6C130.8,172.8,130.1,173.1,129.2,173.1L129.2,173.1z M129.1,167.6
		c-0.4,0-0.7,0.1-0.9,0.4s-0.3,0.7-0.3,1.3h2.4v-0.1c0-0.6-0.1-1-0.3-1.3C129.8,167.8,129.5,167.6,129.1,167.6L129.1,167.6z"/>
	<path class="st1" d="M133.4,166.9l0,0.7c0.4-0.5,0.9-0.8,1.5-0.8c1.1,0,1.6,0.7,1.7,2.2v4.1h-1v-4c0-0.5-0.1-0.8-0.2-1
		s-0.4-0.3-0.7-0.3c-0.3,0-0.5,0.1-0.7,0.3c-0.2,0.2-0.4,0.4-0.5,0.7v4.5h-1v-6.1L133.4,166.9L133.4,166.9z"/>
	<path class="st1" d="M141.1,171.5c0-0.2-0.1-0.4-0.2-0.6c-0.2-0.2-0.5-0.3-0.9-0.5c-0.5-0.2-0.9-0.4-1.1-0.6s-0.4-0.3-0.5-0.5
		c-0.1-0.2-0.2-0.4-0.2-0.7c0-0.5,0.2-0.9,0.5-1.2c0.4-0.3,0.8-0.5,1.4-0.5c0.6,0,1.1,0.2,1.4,0.5s0.5,0.8,0.5,1.3h-1
		c0-0.3-0.1-0.5-0.3-0.7c-0.2-0.2-0.4-0.3-0.7-0.3c-0.3,0-0.5,0.1-0.7,0.2c-0.2,0.2-0.3,0.4-0.3,0.6c0,0.2,0.1,0.4,0.2,0.5
		c0.1,0.1,0.4,0.3,0.9,0.5c0.7,0.3,1.3,0.6,1.5,0.9c0.3,0.3,0.4,0.6,0.4,1.1c0,0.5-0.2,1-0.5,1.3c-0.4,0.3-0.9,0.5-1.5,0.5
		s-1.2-0.2-1.6-0.5c-0.4-0.4-0.6-0.8-0.6-1.4h1c0,0.3,0.1,0.6,0.3,0.8c0.2,0.2,0.5,0.3,0.8,0.3c0.3,0,0.6-0.1,0.8-0.2
		C141,171.9,141.1,171.7,141.1,171.5L141.1,171.5z"/>
	<path class="st1" d="M146.6,173c-0.1-0.1-0.1-0.4-0.1-0.7c-0.4,0.5-0.8,0.8-1.4,0.8c-0.6,0-1-0.2-1.3-0.5c-0.3-0.3-0.5-0.8-0.5-1.3
		c0-0.6,0.2-1.1,0.6-1.5c0.4-0.4,1-0.6,1.7-0.6h0.7v-0.7c0-0.4-0.1-0.6-0.2-0.8c-0.2-0.2-0.4-0.2-0.7-0.2c-0.3,0-0.5,0.1-0.7,0.3
		c-0.2,0.2-0.3,0.4-0.3,0.7h-1c0-0.3,0.1-0.6,0.3-0.9c0.2-0.3,0.4-0.5,0.8-0.7c0.3-0.2,0.7-0.2,1.1-0.2c0.6,0,1.1,0.2,1.4,0.5
		c0.3,0.3,0.5,0.8,0.5,1.4v3.1c0,0.5,0.1,0.9,0.2,1.2v0.1H146.6L146.6,173z M145.2,172.2c0.2,0,0.5-0.1,0.7-0.2
		c0.2-0.1,0.4-0.3,0.5-0.5V170h-0.6c-0.5,0-0.9,0.1-1.1,0.3c-0.3,0.2-0.4,0.5-0.4,0.9c0,0.3,0.1,0.6,0.2,0.8
		S144.9,172.2,145.2,172.2L145.2,172.2z"/>
	<path class="st1" d="M150.3,165.4v1.5h0.9v0.8h-0.9v3.8c0,0.2,0,0.4,0.1,0.6c0.1,0.1,0.2,0.2,0.4,0.2c0.1,0,0.3,0,0.4-0.1l0,0.8
		c-0.2,0.1-0.5,0.1-0.7,0.1c-0.4,0-0.7-0.1-0.9-0.4c-0.2-0.3-0.3-0.7-0.3-1.2v-3.8h-0.9v-0.8h0.9v-1.5L150.3,165.4L150.3,165.4z"/>
	<path class="st1" d="M153.6,165.3c0,0.2,0,0.3-0.1,0.4s-0.2,0.2-0.4,0.2c-0.2,0-0.3-0.1-0.4-0.2c-0.1-0.1-0.1-0.3-0.1-0.4
		c0-0.2,0-0.3,0.1-0.4c0.1-0.1,0.2-0.2,0.4-0.2s0.3,0.1,0.4,0.2C153.5,164.9,153.6,165.1,153.6,165.3z M153.5,173h-1v-6.1h1V173z"/>
	<path class="st1" d="M154.9,169.7c0-0.9,0.2-1.6,0.7-2.1s1-0.8,1.7-0.8s1.3,0.3,1.7,0.8c0.4,0.5,0.7,1.2,0.7,2.1v0.6
		c0,0.9-0.2,1.6-0.6,2.1c-0.4,0.5-1,0.8-1.7,0.8s-1.3-0.3-1.7-0.8c-0.4-0.5-0.7-1.2-0.7-2L154.9,169.7L154.9,169.7z M155.9,170.3
		c0,0.6,0.1,1.1,0.4,1.5c0.2,0.4,0.6,0.5,1,0.5c0.9,0,1.3-0.6,1.4-1.9v-0.7c0-0.6-0.1-1.1-0.4-1.5c-0.3-0.4-0.6-0.5-1-0.5
		s-0.7,0.2-1,0.5c-0.2,0.4-0.4,0.9-0.4,1.5L155.9,170.3L155.9,170.3z"/>
	<path class="st1" d="M161.9,166.9l0,0.7c0.4-0.5,0.9-0.8,1.5-0.8c1.1,0,1.6,0.7,1.7,2.2v4.1h-1v-4c0-0.5-0.1-0.8-0.2-1
		s-0.4-0.3-0.7-0.3c-0.3,0-0.5,0.1-0.7,0.3c-0.2,0.2-0.4,0.4-0.5,0.7v4.5h-1v-6.1L161.9,166.9L161.9,166.9z"/>
</g>
<g class="st7">
	<path class="st1" d="M81.3,66.7V71h-2.5V58.6H83c1.2,0,2.2,0.4,2.9,1.1c0.7,0.8,1.1,1.7,1.1,3s-0.4,2.2-1.1,2.9
		c-0.7,0.7-1.7,1.1-3,1.1H81.3z M81.3,64.6H83c0.5,0,0.8-0.2,1.1-0.5s0.4-0.8,0.4-1.4c0-0.6-0.1-1.1-0.4-1.5
		c-0.3-0.4-0.6-0.6-1.1-0.6h-1.7V64.6z"/>
</g>
<g class="st7">
	<path class="st1" d="M92.9,71c-0.1-0.1-0.1-0.4-0.2-0.7c-0.4,0.6-1,0.9-1.8,0.9c-0.8,0-1.4-0.3-1.9-0.8c-0.5-0.5-0.8-1.2-0.8-2
		c0-1,0.3-1.7,0.9-2.2c0.6-0.5,1.5-0.8,2.7-0.8h0.7v-0.7c0-0.4-0.1-0.7-0.2-0.9c-0.1-0.2-0.3-0.3-0.6-0.3c-0.6,0-0.9,0.4-0.9,1.1
		h-2.4c0-0.9,0.3-1.6,1-2.1c0.6-0.6,1.4-0.8,2.4-0.8c1,0,1.8,0.3,2.3,0.8c0.6,0.5,0.8,1.3,0.8,2.3V69c0,0.8,0.1,1.4,0.3,1.9V71H92.9
		z M91.5,69.3c0.3,0,0.5-0.1,0.7-0.2c0.2-0.1,0.3-0.2,0.4-0.4v-1.9H92c-0.4,0-0.7,0.1-1,0.4c-0.2,0.3-0.4,0.6-0.4,1
		C90.7,69,90.9,69.3,91.5,69.3z"/>
	<path class="st1" d="M99.7,67l1.2-5.2h2.6l-3,10.6c-0.5,1.6-1.3,2.3-2.6,2.3c-0.3,0-0.6-0.1-1-0.2v-1.9l0.3,0
		c0.4,0,0.7-0.1,0.8-0.2c0.2-0.1,0.3-0.4,0.4-0.8l0.2-0.6L96,61.8h2.6L99.7,67z"/>
	<path class="st1" d="M106.8,61.8l0.1,0.9c0.5-0.7,1.3-1,2.1-1c0.9,0,1.6,0.4,2,1.2c0.5-0.8,1.3-1.2,2.3-1.2c1.6,0,2.4,1.1,2.5,3.3
		v6h-2.4v-5.9c0-0.5-0.1-0.9-0.2-1.1c-0.1-0.2-0.4-0.3-0.8-0.3c-0.4,0-0.8,0.3-1,0.8l0,0.3V71h-2.4v-5.9c0-0.5-0.1-0.9-0.2-1.1
		c-0.1-0.2-0.4-0.4-0.8-0.4c-0.4,0-0.7,0.2-1,0.7V71h-2.4v-9.2H106.8z"/>
	<path class="st1" d="M121.2,71.2c-1.2,0-2.2-0.4-2.9-1.1c-0.7-0.7-1-1.8-1-3.2v-0.7c0-1.5,0.3-2.6,1-3.4c0.6-0.8,1.5-1.2,2.7-1.2
		c1.2,0,2,0.4,2.6,1.1c0.6,0.7,0.9,1.8,0.9,3.3v1.2h-4.8c0,0.7,0.2,1.2,0.5,1.5c0.3,0.3,0.7,0.5,1.2,0.5c0.8,0,1.5-0.3,2-0.8
		l0.9,1.5c-0.3,0.4-0.7,0.7-1.3,1C122.5,71.1,121.9,71.2,121.2,71.2z M119.7,65.5h2.4v-0.2c0-0.6-0.1-1-0.3-1.3
		c-0.2-0.3-0.5-0.4-0.9-0.4c-0.4,0-0.7,0.2-0.9,0.5C119.8,64.4,119.7,64.9,119.7,65.5z"/>
	<path class="st1" d="M128,61.8l0.1,0.9c0.5-0.7,1.3-1.1,2.1-1.1c1.6,0,2.4,1.1,2.4,3.3V71h-2.4v-5.9c0-0.5-0.1-0.9-0.2-1.1
		c-0.2-0.2-0.4-0.4-0.8-0.4c-0.4,0-0.8,0.2-1,0.7V71h-2.4v-9.2H128z"/>
	<path class="st1" d="M137.2,59.5v2.3h1.2v1.8h-1.2v4.6c0,0.4,0,0.6,0.1,0.8c0.1,0.1,0.3,0.2,0.6,0.2c0.2,0,0.4,0,0.6-0.1l0,1.9
		c-0.4,0.2-0.9,0.2-1.3,0.2c-1.6,0-2.3-0.9-2.4-2.7v-4.9h-1.1v-1.8h1.1v-2.3H137.2z"/>
	<path class="st1" d="M143.9,68.6c0-0.2-0.1-0.4-0.3-0.6c-0.2-0.2-0.6-0.4-1.3-0.7c-1-0.4-1.7-0.8-2-1.3c-0.4-0.4-0.6-1-0.6-1.6
		c0-0.8,0.3-1.5,0.9-2c0.6-0.5,1.4-0.8,2.3-0.8c1,0,1.8,0.3,2.4,0.8c0.6,0.5,0.9,1.2,0.9,2.1h-2.4c0-0.8-0.3-1.1-0.9-1.1
		c-0.3,0-0.5,0.1-0.6,0.2c-0.2,0.2-0.2,0.4-0.2,0.7c0,0.2,0.1,0.4,0.3,0.5c0.2,0.2,0.6,0.4,1.3,0.7c1,0.4,1.7,0.8,2.1,1.2
		c0.4,0.4,0.6,1,0.6,1.7c0,0.8-0.3,1.5-0.9,2c-0.6,0.5-1.4,0.8-2.4,0.8c-0.7,0-1.3-0.1-1.8-0.4c-0.5-0.3-0.9-0.6-1.2-1.1
		c-0.3-0.5-0.4-1-0.4-1.5h2.3c0,0.4,0.1,0.7,0.3,0.9c0.2,0.2,0.5,0.3,0.9,0.3C143.5,69.4,143.9,69.1,143.9,68.6z"/>
</g>
</svg>
