<?xml version="1.0" encoding="UTF-8"?><svg id="Layer_1" xmlns="http://www.w3.org/2000/svg" viewBox="0 0 626.61 723.55"><defs><style>.cls-1{fill:#fefefe;}.cls-2{fill:#667323;}.cls-3{fill:#b2bc7f;}.cls-4{fill:#a5a5a0;}.cls-5{fill:#514b4b;}</style></defs><polygon class="cls-4" points="626.61 542.66 313.3 723.55 0 542.66 0 180.88 313.3 0 626.61 180.88 626.61 542.66"/><g><path class="cls-5" d="M530.46,225.71c11.98-.76,23.79-1.66,35.63-2.21,7.99-.38,13.34,4.81,13.56,12.69,1.68,59.52,3.29,119.03,5.05,178.55,.74,25.15,1.77,50.3,2.73,75.45,.3,7.8-1.13,10.09-8.64,10.91-23.52,2.58-47.07,4.93-70.6,7.36-22.33,2.3-44.66,4.7-67.01,6.86-19.92,1.92-39.87,3.48-59.79,5.38-18.69,1.78-37.35,3.82-56.04,5.69-18.28,1.83-36.57,3.56-54.85,5.39-22.75,2.27-45.48,4.68-68.24,6.88-15.65,1.51-31.33,2.7-46.99,4.15-18.7,1.73-37.36,4-56.09,5.23-14.33,.94-28.74,.87-43.1,.62-2-.04-5.4-3.54-5.67-5.75-2.44-20.06-4.36-40.18-6.38-60.29-1.8-17.87-3.56-35.74-5.31-53.61-1.53-15.64-2.96-31.28-4.51-46.91-1.81-18.27-3.71-36.54-5.57-54.81-1.85-18.27-3.57-36.55-5.6-54.8-.81-7.25-1.65-14.26,1.69-21.26,1.7-3.58,3.66-5.56,7.67-5.72,29.43-1.17,58.86-3.42,88.28-3.26,16.39,.09,30.79-6.27,46.1-9.47,20.58-4.3,40.9-9.95,61.19-15.54,39.81-10.98,80.45-17.68,121.06-24.7,29.26-5.06,58.46-10.51,87.66-15.92,19.8-3.67,39.58-7.51,59.34-11.4,9.31-1.84,11.41-.8,14.69,7.95,6.47,17.28,12.98,34.55,19.74,52.56v-.02Zm37.19,11.19c-177.99,7.03-355.93,14.06-534.09,21.1,9.61,94.28,19.18,188.2,28.65,281.2,171.21-16.8,341.57-33.52,512.69-50.32-2.41-83.79-4.82-167.56-7.25-251.99h0Zm-381.61-.55c.04,.52,.07,1.04,.11,1.56,1.96,.09,3.94,.34,5.89,.23,14.62-.76,29.23-1.64,43.85-2.38,22.17-1.12,44.33,.94,66.61-2.08,21.91-2.96,44.25,.93,66.49-2.5,17.21-2.66,34.92-2.17,52.42-2.76,28.74-.98,57.49-1.68,86.24-2.58,2.94-.09,5.86-.74,8.79-1.13-1.25-2.34-2.5-4.68-3.76-7.02-.1-.18-.23-.35-.3-.54-3.44-10.35-6.72-20.76-10.43-31.02-.93-2.57-2.9-6.17-4.99-6.64-4.25-.96-8.99-.62-13.39,.09-13.06,2.1-26.04,4.67-39.06,6.99-6.09,1.09-12.23,1.94-18.31,3.06-7.33,1.35-14.6,2.98-21.94,4.27-6.52,1.15-13.12,1.89-19.65,3.03-7.67,1.34-15.28,3-22.94,4.36-5.9,1.05-11.87,1.67-17.75,2.8-6.99,1.34-13.87,3.27-20.88,4.49-6.96,1.21-14.03,1.76-21.03,2.78-4.98,.72-9.96,1.59-14.88,2.66-6.18,1.34-12.26,3.13-18.45,4.4-9.35,1.91-18.82,3.3-28.13,5.36-9.12,2.02-18.07,4.79-27.17,6.89-9.07,2.1-18.24,3.79-27.36,5.67h.02Z"/><path class="cls-1" d="M567.65,236.91c2.43,84.43,4.84,168.2,7.25,251.99-171.12,16.8-341.47,33.51-512.69,50.32-9.48-93-19.05-186.93-28.65-281.2,178.16-7.04,356.11-14.07,534.09-21.1h0ZM255.19,397.38c19.94-1.21,39.53-2.24,59.1-3.65,24.24-1.74,48.46-3.83,72.69-5.73,21.59-1.69,43.18-3.3,64.76-5.07,1.74-.14,3.59-.98,5.05-1.98,3.78-2.57,3.55-7.33-.57-9.27-1.9-.89-4.34-1.09-6.49-.94-16.09,1.14-32.17,2.37-48.25,3.72-21.57,1.81-43.13,3.75-64.7,5.64-20.54,1.81-41.08,3.59-61.61,5.46-7.51,.69-15.05,1.34-22.47,2.6-2.13,.36-3.89,2.83-5.83,4.33,1.87,1.5,3.67,3.11,5.66,4.43,.77,.51,1.98,.35,2.65,.45h0Zm14.29,38.51c10.35-.48,22.2-.86,34.02-1.61,21.8-1.38,43.58-3.13,65.39-4.44,24.87-1.49,49.76-2.63,74.64-4.05,2.38-.14,5.13-.58,6.94-1.92,1.66-1.23,3.31-4.02,3.06-5.85-.26-1.87-2.58-3.96-4.51-4.94-1.62-.83-3.99-.35-6.01-.2-24.83,1.88-49.64,3.98-74.48,5.68-27.9,1.91-55.83,3.32-83.73,5.26-9.13,.64-18.22,2.07-27.26,3.6-1.46,.25-3.63,2.99-3.48,4.37,.16,1.49,2.48,3.57,4.15,3.91,3.15,.63,6.51,.18,11.26,.18h.01Zm5.31-69.95c9.87-.55,20.28-1.05,30.68-1.74,21.61-1.43,43.2-3,64.81-4.43,17.53-1.16,35.07-2.27,52.62-3.28,4.42-.25,8.09-1.66,7.64-6.59-.44-4.86-4.08-6.53-8.87-6.13-17.1,1.43-34.2,2.8-51.31,4.08-26.48,1.98-52.96,3.83-79.44,5.82-8.54,.64-17.1,1.28-25.56,2.55-1.88,.28-3.37,3.21-5.03,4.92,1.98,1.6,3.75,3.85,6.01,4.61,2.39,.8,5.26,.18,8.46,.18h-.01Zm265.07-111.92c-1.66-.26-3.08-.78-4.44-.64-17.82,1.85-35.63,3.79-53.45,5.73-5.01,.55-8.41,2.81-8.57,8.37-.09,3.06-.46,6.13-.25,9.17,.59,8.55,1.37,17.09,2.14,25.63,.82,9.09,1.72,18.18,2.69,28.3,22.57-1.07,44.69-2.12,67.33-3.2-1.82-24.44-3.62-48.61-5.46-73.36h.01Zm-399.67,81.89c-.17-1.13-.33-2.25-.5-3.38-7.62-.27-15.27-1.09-22.86-.68-14.06,.77-28.07,2.28-42.1,3.47-3.66,.31-7.27,1.04-7.49,5.53-.24,4.92,3.65,5.82,7.43,6.26,1.59,.19,3.26-.11,4.87-.31,11.11-1.41,22.29-2.46,33.31-4.39,9.21-1.62,18.23-4.29,27.34-6.49h0Zm4.4-61.93c-.09-.36-.18-.71-.26-1.07-.52-.11-1.05-.35-1.56-.32-14.23,.8-28.46,1.65-42.69,2.45-13.43,.76-26.86,1.49-40.3,2.2-3.29,.17-6.24,.58-6.04,4.99,.2,4.58,3.93,4.56,6.68,4.41,24.96-1.39,49.91-3.07,74.17-9.79,3.34-.93,6.67-1.91,10-2.87Zm.87,25.72c-.13-.7-.26-1.41-.38-2.11-15.22,1.17-30.45,2.3-45.67,3.53-9.34,.76-18.73,1.25-27.95,2.76-3.36,.55-9.68,.4-8.75,6.18,.9,5.57,6.48,4.6,10.58,4,15.47-2.24,30.96-4.42,46.31-7.32,8.75-1.65,17.25-4.65,25.87-7.04h0Z"/><path class="cls-2" d="M186.04,236.34c9.13-1.87,18.29-3.56,27.36-5.67,9.1-2.11,18.05-4.88,27.17-6.89,9.32-2.06,18.78-3.45,28.13-5.36,6.19-1.27,12.27-3.06,18.45-4.4,4.92-1.07,9.89-1.94,14.88-2.66,7-1.02,14.07-1.57,21.03-2.78,7.01-1.22,13.89-3.14,20.88-4.49,5.88-1.13,11.86-1.76,17.75-2.8,7.66-1.36,15.27-3.02,22.94-4.36,6.53-1.14,13.12-1.88,19.65-3.03,7.33-1.29,14.61-2.92,21.94-4.27,6.09-1.12,12.22-1.98,18.31-3.06,13.02-2.32,26-4.89,39.06-6.99,4.39-.71,9.14-1.05,13.39-.09,2.09,.47,4.05,4.06,4.99,6.64,3.71,10.26,6.99,20.67,10.43,31.02,.06,.19,.2,.36,.3,.54,1.25,2.34,2.5,4.68,3.76,7.02-2.93,.39-5.85,1.04-8.79,1.13-28.75,.9-57.5,1.6-86.24,2.58-17.5,.6-35.21,.11-52.42,2.76-22.24,3.43-44.58-.46-66.49,2.5-22.28,3.01-44.43,.95-66.61,2.08-14.62,.74-29.23,1.62-43.85,2.38-1.95,.1-3.93-.15-5.89-.23-.04-.52-.07-1.04-.11-1.56h-.02Z"/><path class="cls-5" d="M255.19,397.38c-.67-.1-1.88,.06-2.65-.45-1.99-1.32-3.78-2.93-5.66-4.43,1.93-1.5,3.7-3.97,5.83-4.33,7.42-1.27,14.96-1.92,22.47-2.6,20.53-1.88,41.07-3.66,61.61-5.46,21.56-1.9,43.12-3.83,64.7-5.64,16.07-1.35,32.16-2.58,48.25-3.72,2.15-.15,4.59,.04,6.49,.94,4.13,1.94,4.36,6.7,.57,9.27-1.47,1-3.32,1.83-5.05,1.98-21.58,1.77-43.18,3.38-64.76,5.07-24.23,1.9-48.45,3.98-72.69,5.73-19.57,1.41-39.17,2.43-59.1,3.65h-.01Z"/><path class="cls-5" d="M269.47,435.88c-4.76,0-8.12,.45-11.26-.18-1.67-.33-3.99-2.41-4.15-3.91-.15-1.38,2.01-4.12,3.48-4.37,9.03-1.53,18.13-2.97,27.26-3.6,27.9-1.94,55.83-3.35,83.73-5.26,24.84-1.7,49.65-3.8,74.48-5.68,2.02-.15,4.39-.63,6.01,.2,1.93,.98,4.25,3.07,4.51,4.94,.26,1.83-1.4,4.62-3.06,5.85-1.81,1.34-4.56,1.78-6.94,1.92-24.87,1.42-49.77,2.55-74.64,4.05-21.81,1.31-43.59,3.06-65.39,4.44-11.82,.75-23.67,1.13-34.02,1.61h-.01Z"/><path class="cls-5" d="M274.78,365.93c-3.2,0-6.07,.62-8.46-.18-2.26-.76-4.03-3.01-6.01-4.61,1.67-1.71,3.15-4.64,5.03-4.92,8.46-1.27,17.02-1.91,25.56-2.55,26.47-1.99,52.96-3.84,79.44-5.82,17.11-1.28,34.21-2.65,51.31-4.08,4.79-.4,8.43,1.26,8.87,6.13,.45,4.93-3.22,6.33-7.64,6.59-17.54,1.01-35.08,2.12-52.62,3.28-21.61,1.43-43.2,3-64.81,4.43-10.4,.69-20.81,1.18-30.68,1.74h.01Z"/><path class="cls-5" d="M539.85,254c1.84,24.76,3.64,48.92,5.46,73.36-22.64,1.08-44.76,2.13-67.33,3.2-.96-10.12-1.86-19.21-2.69-28.3-.77-8.54-1.56-17.07-2.14-25.63-.21-3.04,.16-6.11,.25-9.17,.16-5.56,3.56-7.82,8.57-8.37,17.81-1.94,35.63-3.88,53.45-5.73,1.35-.14,2.78,.38,4.44,.64h-.01Zm-.12,67.63c-1.51-19.17-3.06-38.77-4.71-59.76-18.42,1.57-36.37,3.1-55.66,4.75,1.47,17.59,2.81,34.6,4.47,51.58,.12,1.26,2.58,3.27,3.97,3.28,16.73,.23,33.47,.15,51.93,.15h0Z"/><path class="cls-5" d="M140.18,335.89c-9.11,2.2-18.13,4.87-27.34,6.49-11.02,1.94-22.19,2.99-33.31,4.39-1.62,.2-3.28,.5-4.87,.31-3.79-.44-7.67-1.34-7.43-6.26,.22-4.49,3.83-5.22,7.49-5.53,14.03-1.18,28.05-2.69,42.1-3.47,7.58-.42,15.24,.41,22.86,.68,.17,1.13,.33,2.25,.5,3.38h0Z"/><path class="cls-5" d="M144.58,273.97c-3.33,.96-6.66,1.94-10,2.87-24.26,6.72-49.21,8.39-74.17,9.79-2.75,.15-6.48,.17-6.68-4.41-.2-4.41,2.75-4.82,6.04-4.99,13.43-.71,26.87-1.44,40.3-2.2,14.23-.8,28.46-1.65,42.69-2.45,.51-.03,1.04,.21,1.56,.32,.09,.36,.18,.71,.26,1.07Z"/><path class="cls-5" d="M145.45,299.69c-8.61,2.39-17.11,5.39-25.87,7.04-15.35,2.9-30.84,5.08-46.31,7.32-4.09,.59-9.68,1.56-10.58-4-.94-5.78,5.38-5.63,8.75-6.18,9.22-1.5,18.62-2,27.95-2.76,15.22-1.23,30.44-2.36,45.67-3.53,.13,.7,.26,1.41,.38,2.11h0Z"/><path class="cls-3" d="M539.74,321.63c-18.46,0-35.2,.08-51.93-.15-1.39-.02-3.85-2.02-3.97-3.28-1.67-16.98-3-33.99-4.47-51.58,19.29-1.64,37.24-3.17,55.66-4.75,1.66,20.99,3.2,40.59,4.71,59.76h0Z"/></g></svg>