<?xml version="1.0" encoding="UTF-8"?><svg id="Layer_1" xmlns="http://www.w3.org/2000/svg" viewBox="0 0 626.62 723.56"><defs><style>.cls-1{fill:#fff;}.cls-2{fill:#818943;}</style></defs><polygon class="cls-2" points="626.62 542.67 313.31 723.56 0 542.67 0 180.89 313.31 0 626.62 180.89 626.62 542.67"/><g><path class="cls-1" d="M127.94,287.53h-7.48v25.37h-3.57v-25.37h-7.46v-3.07h18.52v3.07h0Z"/><path class="cls-1" d="M139.21,313.29c-2.63,0-4.65-.78-6.05-2.35s-2.12-3.87-2.15-6.9v-2.56c0-3.15,.69-5.62,2.06-7.41s3.29-2.69,5.75-2.69,4.32,.79,5.55,2.36c1.22,1.58,1.85,4.03,1.88,7.36v2.27h-11.8v.49c0,2.27,.43,3.91,1.28,4.94s2.08,1.54,3.68,1.54c1.02,0,1.91-.19,2.69-.58,.78-.38,1.5-.99,2.18-1.83l1.8,2.19c-1.5,2.11-3.78,3.16-6.86,3.16h0Zm-.39-18.94c-1.43,0-2.49,.49-3.18,1.47-.69,.98-1.08,2.51-1.17,4.58h8.32v-.47c-.09-2-.45-3.44-1.08-4.3s-1.59-1.29-2.88-1.29h0Z"/><path class="cls-1" d="M153.64,291.77l.08,1.95c1.29-1.56,2.99-2.34,5.1-2.34,2.36,0,4,1.02,4.94,3.07,1.33-2.04,3.18-3.07,5.55-3.07,3.89,0,5.89,2.43,5.98,7.29v14.24h-3.44v-13.91c0-1.54-.27-2.68-.82-3.43s-1.47-1.12-2.77-1.12c-1.04,0-1.89,.4-2.54,1.21s-1.03,1.84-1.13,3.09v14.16h-3.48v-14.06c-.04-2.93-1.23-4.39-3.57-4.39-1.74,0-2.97,.87-3.69,2.62v15.84h-3.44v-21.13h3.24v-.02Z"/><path class="cls-1" d="M195.75,303.35c0,3.35-.6,5.84-1.81,7.48-1.2,1.64-2.91,2.46-5.11,2.46s-3.76-.8-4.9-2.4v10.14h-3.44v-29.26h3.12l.18,2.34c1.16-1.82,2.82-2.73,4.98-2.73,2.32,0,4.05,.81,5.2,2.42,1.15,1.61,1.74,4.03,1.78,7.25v2.3h0Zm-3.44-1.97c0-2.37-.36-4.12-1.09-5.24-.73-1.13-1.9-1.69-3.52-1.69s-2.91,.83-3.77,2.48v11c.85,1.61,2.12,2.42,3.81,2.42,1.56,0,2.71-.56,3.45-1.69,.74-1.13,1.11-2.85,1.12-5.17v-2.11h0Z"/><path class="cls-1" d="M199.48,301.36c0-3.07,.75-5.5,2.24-7.29s3.46-2.69,5.91-2.69,4.42,.87,5.91,2.62,2.26,4.12,2.29,7.13v2.23c0,3.06-.74,5.48-2.23,7.27s-3.46,2.68-5.94,2.68-4.41-.87-5.89-2.6-2.24-4.08-2.29-7.03v-2.32Zm3.46,1.99c0,2.17,.43,3.88,1.28,5.13,.85,1.24,2,1.87,3.45,1.87,3.05,0,4.62-2.2,4.71-6.6v-2.38c0-2.16-.43-3.87-1.29-5.13s-2.01-1.88-3.46-1.88-2.55,.63-3.41,1.88c-.85,1.26-1.28,2.96-1.28,5.11v2.01h0Z"/><path class="cls-1" d="M229.01,295.01c-.48-.09-1-.14-1.56-.14-1.77,0-3.01,.97-3.71,2.91v15.12h-3.46v-21.13h3.36l.06,2.15c.92-1.69,2.23-2.54,3.93-2.54,.55,0,1,.09,1.37,.27l.02,3.36h0Z"/><path class="cls-1" d="M242.55,312.9c-.21-.46-.36-1.22-.45-2.3-1.22,1.8-2.79,2.7-4.69,2.7s-3.41-.54-4.48-1.61-1.61-2.59-1.61-4.54c0-2.15,.73-3.85,2.19-5.12,1.46-1.26,3.46-1.91,6-1.93h2.54v-2.25c0-1.26-.28-2.16-.84-2.7-.56-.53-1.41-.8-2.56-.8-1.04,0-1.89,.31-2.54,.93s-.98,1.4-.98,2.35h-3.46c0-1.08,.32-2.11,.96-3.1,.64-.98,1.5-1.75,2.58-2.31s2.29-.84,3.61-.84c2.16,0,3.81,.54,4.93,1.61,1.13,1.07,1.7,2.64,1.73,4.7v10.66c.01,1.63,.23,3.04,.66,4.24v.31h-3.59Zm-4.61-2.75c.85,0,1.65-.23,2.42-.7,.77-.47,1.33-1.05,1.68-1.76v-5.04h-1.95c-1.64,.03-2.94,.39-3.89,1.1s-1.43,1.7-1.43,2.98c0,1.2,.24,2.07,.72,2.61,.48,.54,1.3,.81,2.44,.81h.01Z"/><path class="cls-1" d="M259.56,295.01c-.48-.09-1-.14-1.56-.14-1.77,0-3.01,.97-3.71,2.91v15.12h-3.46v-21.13h3.36l.06,2.15c.92-1.69,2.23-2.54,3.93-2.54,.55,0,1,.09,1.37,.27l.02,3.36h0Z"/><path class="cls-1" d="M268.78,307.16l3.85-15.39h3.67l-6.91,24.12c-.52,1.81-1.26,3.19-2.21,4.13-.95,.94-2.03,1.42-3.24,1.42-.47,0-1.07-.1-1.8-.31v-2.93l.76,.08c1,0,1.79-.24,2.35-.71s1.03-1.3,1.38-2.47l.68-2.36-6.21-20.96h3.77l3.91,15.39h0Z"/><path class="cls-1" d="M302.57,305.46h-9.61l-2.21,7.44h-3.67l9.16-28.44h3.07l9.18,28.44h-3.67l-2.25-7.44Zm-8.67-3.07h7.75l-3.89-12.93-3.87,12.93h.01Z"/><path class="cls-1" d="M322.14,307.49c0-.74-.28-1.38-.84-1.91s-1.64-1.16-3.24-1.88c-1.86-.77-3.17-1.43-3.94-1.97s-1.33-1.17-1.71-1.87c-.38-.7-.57-1.53-.57-2.49,0-1.72,.63-3.15,1.88-4.29,1.26-1.14,2.86-1.71,4.81-1.71,2.06,0,3.71,.6,4.96,1.8s1.88,2.73,1.88,4.61h-3.44c0-.95-.32-1.76-.96-2.43-.64-.67-1.45-1.01-2.44-1.01s-1.81,.26-2.39,.79c-.58,.53-.87,1.23-.87,2.11,0,.7,.21,1.27,.63,1.69,.42,.43,1.44,.99,3.06,1.69,2.57,1,4.31,1.99,5.23,2.94,.92,.96,1.39,2.17,1.39,3.65,0,1.84-.63,3.31-1.89,4.41s-2.96,1.65-5.08,1.65-3.98-.63-5.35-1.89-2.05-2.86-2.05-4.8h3.48c.04,1.17,.4,2.09,1.07,2.75,.68,.66,1.63,1,2.85,1,1.15,0,2.02-.26,2.62-.77,.6-.51,.9-1.21,.9-2.08h0Z"/><path class="cls-1" d="M340.36,307.49c0-.74-.28-1.38-.84-1.91s-1.64-1.16-3.24-1.88c-1.86-.77-3.17-1.43-3.94-1.97s-1.33-1.17-1.71-1.87c-.38-.7-.57-1.53-.57-2.49,0-1.72,.63-3.15,1.88-4.29,1.26-1.14,2.86-1.71,4.81-1.71,2.06,0,3.71,.6,4.96,1.8s1.88,2.73,1.88,4.61h-3.44c0-.95-.32-1.76-.96-2.43-.64-.67-1.45-1.01-2.44-1.01s-1.81,.26-2.39,.79c-.58,.53-.87,1.23-.87,2.11,0,.7,.21,1.27,.63,1.69,.42,.43,1.44,.99,3.06,1.69,2.57,1,4.31,1.99,5.23,2.94,.92,.96,1.39,2.17,1.39,3.65,0,1.84-.63,3.31-1.89,4.41s-2.96,1.65-5.08,1.65-3.98-.63-5.35-1.89-2.05-2.86-2.05-4.8h3.48c.04,1.17,.4,2.09,1.07,2.75,.68,.66,1.63,1,2.85,1,1.15,0,2.02-.26,2.62-.77,.6-.51,.9-1.21,.9-2.08h0Z"/><path class="cls-1" d="M352.31,286.16c0,.59-.16,1.07-.49,1.46-.33,.39-.82,.59-1.48,.59s-1.14-.2-1.46-.59c-.33-.39-.49-.88-.49-1.46s.16-1.08,.49-1.48c.33-.4,.81-.61,1.46-.61s1.14,.21,1.47,.62,.5,.9,.5,1.47Zm-.27,26.74h-3.46v-21.13h3.46v21.13Z"/><path class="cls-1" d="M367.74,307.49c0-.74-.28-1.38-.84-1.91s-1.64-1.16-3.24-1.88c-1.86-.77-3.17-1.43-3.94-1.97s-1.33-1.17-1.71-1.87c-.38-.7-.57-1.53-.57-2.49,0-1.72,.63-3.15,1.88-4.29,1.26-1.14,2.86-1.71,4.81-1.71,2.06,0,3.71,.6,4.96,1.8s1.88,2.73,1.88,4.61h-3.44c0-.95-.32-1.76-.96-2.43-.64-.67-1.45-1.01-2.44-1.01s-1.81,.26-2.39,.79c-.58,.53-.87,1.23-.87,2.11,0,.7,.21,1.27,.63,1.69,.42,.43,1.44,.99,3.06,1.69,2.57,1,4.31,1.99,5.23,2.94,.92,.96,1.39,2.17,1.39,3.65,0,1.84-.63,3.31-1.89,4.41s-2.96,1.65-5.08,1.65-3.98-.63-5.35-1.89-2.05-2.86-2.05-4.8h3.48c.04,1.17,.4,2.09,1.07,2.75,.68,.66,1.63,1,2.85,1,1.15,0,2.02-.26,2.62-.77,.6-.51,.9-1.21,.9-2.08h0Z"/><path class="cls-1" d="M380.22,286.65v5.12h3.18v2.79h-3.18v13.12c0,.83,.14,1.47,.41,1.9s.74,.65,1.41,.65c.46,0,.92-.08,1.39-.23l-.04,2.91c-.78,.26-1.58,.39-2.4,.39-1.37,0-2.41-.49-3.12-1.46-.72-.98-1.07-2.36-1.07-4.14v-13.12h-3.22v-2.79h3.22v-5.12h3.44l-.02-.02Z"/><path class="cls-1" d="M398.39,312.9c-.21-.46-.36-1.22-.45-2.3-1.22,1.8-2.79,2.7-4.69,2.7s-3.41-.54-4.48-1.61-1.61-2.59-1.61-4.54c0-2.15,.73-3.85,2.19-5.12,1.46-1.26,3.46-1.91,6-1.93h2.54v-2.25c0-1.26-.28-2.16-.84-2.7-.56-.53-1.41-.8-2.56-.8-1.04,0-1.89,.31-2.54,.93s-.98,1.4-.98,2.35h-3.46c0-1.08,.32-2.11,.96-3.1,.64-.98,1.5-1.75,2.58-2.31s2.29-.84,3.61-.84c2.16,0,3.81,.54,4.93,1.61,1.13,1.07,1.7,2.64,1.73,4.7v10.66c.01,1.63,.23,3.04,.66,4.24v.31h-3.59Zm-4.61-2.75c.85,0,1.65-.23,2.42-.7,.77-.47,1.33-1.05,1.68-1.76v-5.04h-1.95c-1.64,.03-2.94,.39-3.89,1.1s-1.43,1.7-1.43,2.98c0,1.2,.24,2.07,.72,2.61,.48,.54,1.3,.81,2.44,.81h.01Z"/><path class="cls-1" d="M409.93,291.77l.1,2.29c1.34-1.78,3.05-2.68,5.14-2.68,3.74,0,5.63,2.49,5.68,7.48v14.04h-3.44v-13.89c0-1.65-.28-2.83-.83-3.53s-1.38-1.04-2.49-1.04c-.86,0-1.63,.29-2.31,.86s-1.23,1.32-1.65,2.25v15.35h-3.46v-21.13h3.26Z"/><path class="cls-1" d="M433.37,310.34c1.15,0,2.06-.35,2.75-1.06s1.07-1.72,1.13-3.04h3.26c-.08,2.03-.8,3.71-2.16,5.05-1.36,1.33-3.02,2-4.99,2-2.62,0-4.61-.82-5.99-2.47-1.37-1.65-2.06-4.1-2.06-7.35v-2.32c0-3.19,.68-5.62,2.05-7.28s3.36-2.49,5.98-2.49c2.16,0,3.88,.68,5.15,2.05s1.94,3.24,2.02,5.61h-3.26c-.08-1.56-.45-2.73-1.12-3.52-.67-.78-1.6-1.17-2.78-1.17-1.54,0-2.68,.5-3.42,1.51s-1.13,2.67-1.15,4.97v2.7c0,2.49,.37,4.25,1.1,5.27,.74,1.03,1.9,1.54,3.49,1.54h0Z"/><path class="cls-1" d="M452.06,313.29c-2.63,0-4.65-.78-6.05-2.35s-2.12-3.87-2.15-6.9v-2.56c0-3.15,.69-5.62,2.06-7.41s3.29-2.69,5.75-2.69,4.32,.79,5.55,2.36c1.22,1.58,1.85,4.03,1.88,7.36v2.27h-11.8v.49c0,2.27,.43,3.91,1.28,4.94,.85,1.03,2.08,1.54,3.68,1.54,1.02,0,1.91-.19,2.69-.58,.78-.38,1.5-.99,2.18-1.83l1.8,2.19c-1.5,2.11-3.78,3.16-6.86,3.16h-.01Zm-.39-18.94c-1.43,0-2.49,.49-3.18,1.47s-1.08,2.51-1.17,4.58h8.32v-.47c-.09-2-.45-3.44-1.08-4.3s-1.59-1.29-2.88-1.29h-.01Z"/><path class="cls-1" d="M473.91,312.9v-18.34h-2.75v-2.79h2.75v-2.44c.04-2.15,.58-3.83,1.63-5.03s2.53-1.81,4.44-1.81c.69,0,1.39,.11,2.09,.33l-.18,2.91c-.49-.12-1.02-.18-1.58-.18-1.97,0-2.95,1.4-2.95,4.21v2h3.61v2.79h-3.61v18.34h-3.45Z"/><path class="cls-1" d="M484.32,301.36c0-3.07,.75-5.5,2.24-7.29s3.46-2.69,5.91-2.69,4.42,.87,5.91,2.62,2.26,4.12,2.29,7.13v2.23c0,3.06-.74,5.48-2.23,7.27s-3.46,2.68-5.94,2.68-4.41-.87-5.89-2.6c-1.48-1.73-2.24-4.08-2.29-7.03v-2.32Zm3.46,1.99c0,2.17,.43,3.88,1.28,5.13,.85,1.24,2,1.87,3.45,1.87,3.05,0,4.62-2.2,4.71-6.6v-2.38c0-2.16-.43-3.87-1.29-5.13s-2.01-1.88-3.46-1.88-2.55,.63-3.41,1.88c-.85,1.26-1.28,2.96-1.28,5.11v2.01h0Z"/><path class="cls-1" d="M513.86,295.01c-.48-.09-1-.14-1.56-.14-1.77,0-3.01,.97-3.71,2.91v15.12h-3.46v-21.13h3.36l.06,2.15c.92-1.69,2.23-2.54,3.93-2.54,.55,0,1,.09,1.37,.27l.02,3.36h0Z"/><path class="cls-1" d="M213.05,360.9h-3.59l-11.39-21.91v21.91h-3.59v-28.44h3.59l11.43,22.01v-22.01h3.55v28.44h0Z"/><path class="cls-1" d="M226.32,361.29c-2.63,0-4.65-.78-6.05-2.35s-2.12-3.87-2.15-6.9v-2.56c0-3.15,.69-5.62,2.06-7.41s3.29-2.69,5.75-2.69,4.32,.79,5.55,2.36c1.22,1.58,1.85,4.03,1.88,7.36v2.27h-11.8v.49c0,2.27,.43,3.91,1.28,4.94s2.08,1.54,3.68,1.54c1.02,0,1.91-.19,2.69-.58,.78-.38,1.5-.99,2.18-1.83l1.8,2.19c-1.5,2.11-3.78,3.16-6.86,3.16h-.01Zm-.39-18.94c-1.43,0-2.49,.49-3.18,1.47s-1.08,2.51-1.17,4.58h8.32v-.47c-.09-2-.45-3.44-1.08-4.3-.63-.86-1.59-1.29-2.88-1.29h-.01Z"/><path class="cls-1" d="M245.05,361.29c-2.63,0-4.65-.78-6.05-2.35s-2.12-3.87-2.15-6.9v-2.56c0-3.15,.69-5.62,2.06-7.41s3.29-2.69,5.75-2.69,4.32,.79,5.55,2.36c1.22,1.58,1.85,4.03,1.88,7.36v2.27h-11.8v.49c0,2.27,.43,3.91,1.28,4.94s2.08,1.54,3.68,1.54c1.02,0,1.91-.19,2.69-.58,.78-.38,1.5-.99,2.18-1.83l1.8,2.19c-1.5,2.11-3.78,3.16-6.86,3.16h-.01Zm-.39-18.94c-1.43,0-2.49,.49-3.18,1.47s-1.08,2.51-1.17,4.58h8.32v-.47c-.09-2-.45-3.44-1.08-4.3-.63-.86-1.59-1.29-2.88-1.29h-.01Z"/><path class="cls-1" d="M255.5,349.38c0-3.25,.61-5.74,1.83-7.44,1.22-1.71,2.97-2.56,5.24-2.56,2.02,0,3.59,.82,4.73,2.46v-10.94h3.46v30h-3.16l-.18-2.27c-1.13,1.77-2.75,2.66-4.86,2.66s-3.9-.85-5.15-2.55c-1.24-1.7-1.88-4.1-1.9-7.2v-2.17h-.01Zm3.46,1.97c0,2.37,.35,4.11,1.05,5.22,.7,1.11,1.85,1.67,3.44,1.67,1.72,0,3-.86,3.85-2.59v-10.65c-.88-1.69-2.16-2.54-3.83-2.54s-2.73,.56-3.44,1.67-1.06,2.82-1.07,5.12v2.11h0Z"/><path class="cls-1" d="M281.84,355.16l3.85-15.39h3.67l-6.91,24.12c-.52,1.81-1.26,3.19-2.21,4.13-.95,.94-2.03,1.42-3.24,1.42-.47,0-1.07-.1-1.8-.31v-2.93l.76,.08c1,0,1.79-.24,2.35-.71s1.03-1.3,1.38-2.47l.68-2.36-6.21-20.96h3.77l3.91,15.39h0Z"/><path class="cls-1" d="M315.55,348.34h-9.61v12.56h-3.57v-28.44h14.8v3.07h-11.23v9.75h9.61v3.07h0Z"/><path class="cls-1" d="M331.32,360.9c-.21-.46-.36-1.22-.45-2.3-1.22,1.8-2.79,2.7-4.69,2.7s-3.41-.54-4.48-1.61-1.61-2.59-1.61-4.54c0-2.15,.73-3.85,2.19-5.12,1.46-1.26,3.46-1.91,6-1.93h2.54v-2.25c0-1.26-.28-2.16-.84-2.7-.56-.53-1.41-.8-2.56-.8-1.04,0-1.89,.31-2.54,.93s-.98,1.4-.98,2.35h-3.46c0-1.08,.32-2.11,.96-3.1,.64-.98,1.5-1.75,2.58-2.31s2.29-.84,3.61-.84c2.16,0,3.81,.54,4.93,1.61,1.13,1.07,1.7,2.64,1.73,4.7v10.66c.01,1.63,.23,3.04,.66,4.24v.31h-3.59Zm-4.61-2.75c.85,0,1.65-.23,2.42-.7,.77-.47,1.33-1.05,1.68-1.76v-5.04h-1.95c-1.64,.03-2.94,.39-3.89,1.1s-1.43,1.7-1.43,2.98c0,1.2,.24,2.07,.72,2.61,.48,.54,1.3,.81,2.44,.81h.01Z"/><path class="cls-1" d="M342.86,339.77l.08,1.95c1.29-1.56,2.99-2.34,5.1-2.34,2.36,0,4,1.02,4.94,3.07,1.33-2.04,3.18-3.07,5.55-3.07,3.89,0,5.89,2.43,5.98,7.29v14.24h-3.44v-13.91c0-1.54-.27-2.68-.82-3.43s-1.47-1.12-2.77-1.12c-1.04,0-1.89,.4-2.54,1.21s-1.03,1.84-1.13,3.09v14.16h-3.48v-14.06c-.04-2.93-1.23-4.39-3.57-4.39-1.74,0-2.97,.87-3.69,2.62v15.84h-3.44v-21.13h3.24v-.02Z"/><path class="cls-1" d="M373.7,334.16c0,.59-.16,1.07-.49,1.46-.33,.39-.82,.59-1.48,.59s-1.14-.2-1.46-.59c-.33-.39-.49-.88-.49-1.46s.16-1.08,.49-1.48c.33-.4,.81-.61,1.46-.61s1.14,.21,1.47,.62,.5,.9,.5,1.47Zm-.27,26.74h-3.46v-21.13h3.46v21.13Z"/><path class="cls-1" d="M382.59,360.9h-3.46v-30h3.46v30Z"/><path class="cls-1" d="M392.02,334.16c0,.59-.16,1.07-.49,1.46-.33,.39-.82,.59-1.48,.59s-1.14-.2-1.46-.59c-.33-.39-.49-.88-.49-1.46s.16-1.08,.49-1.48c.33-.4,.81-.61,1.46-.61s1.14,.21,1.47,.62,.5,.9,.5,1.47Zm-.27,26.74h-3.46v-21.13h3.46v21.13Z"/><path class="cls-1" d="M404.73,361.29c-2.63,0-4.65-.78-6.05-2.35s-2.12-3.87-2.15-6.9v-2.56c0-3.15,.69-5.62,2.06-7.41s3.29-2.69,5.75-2.69,4.32,.79,5.55,2.36c1.22,1.58,1.85,4.03,1.88,7.36v2.27h-11.8v.49c0,2.27,.43,3.91,1.28,4.94s2.08,1.54,3.68,1.54c1.02,0,1.91-.19,2.69-.58,.78-.38,1.5-.99,2.18-1.83l1.8,2.19c-1.5,2.11-3.78,3.16-6.86,3.16h-.01Zm-.39-18.94c-1.43,0-2.49,.49-3.18,1.47s-1.08,2.51-1.17,4.58h8.32v-.47c-.09-2-.45-3.44-1.08-4.3-.63-.86-1.59-1.29-2.88-1.29h-.01Z"/><path class="cls-1" d="M426.18,355.49c0-.74-.28-1.38-.84-1.91s-1.64-1.16-3.24-1.88c-1.86-.77-3.17-1.43-3.94-1.97s-1.33-1.17-1.71-1.87c-.38-.7-.57-1.53-.57-2.49,0-1.72,.63-3.15,1.88-4.29,1.26-1.14,2.86-1.71,4.81-1.71,2.06,0,3.71,.6,4.96,1.8s1.88,2.73,1.88,4.61h-3.44c0-.95-.32-1.76-.96-2.43-.64-.67-1.45-1.01-2.44-1.01s-1.81,.26-2.39,.79c-.58,.53-.87,1.23-.87,2.11,0,.7,.21,1.27,.63,1.69,.42,.43,1.44,.99,3.06,1.69,2.57,1,4.31,1.99,5.23,2.94,.92,.96,1.39,2.17,1.39,3.65,0,1.84-.63,3.31-1.89,4.41s-2.96,1.65-5.08,1.65-3.98-.63-5.35-1.89-2.05-2.86-2.05-4.8h3.48c.04,1.17,.4,2.09,1.07,2.75,.68,.66,1.63,1,2.85,1,1.15,0,2.02-.26,2.62-.77,.6-.51,.9-1.21,.9-2.08h0Z"/><path class="cls-1" d="M210.48,401.71c0-1.42-.38-2.51-1.15-3.26s-2.15-1.49-4.16-2.21c-2-.72-3.54-1.47-4.6-2.26s-1.86-1.69-2.38-2.7-.79-2.17-.79-3.47c0-2.25,.75-4.11,2.26-5.57s3.47-2.19,5.91-2.19c1.67,0,3.15,.37,4.45,1.12,1.3,.74,2.3,1.78,3.01,3.11s1.05,2.78,1.05,4.37h-3.59c0-1.76-.42-3.12-1.27-4.08-.85-.96-2.06-1.45-3.65-1.45-1.45,0-2.56,.4-3.36,1.21-.79,.81-1.19,1.94-1.19,3.4,0,1.2,.43,2.21,1.29,3.01s2.19,1.53,3.98,2.17c2.8,.93,4.8,2.07,6.01,3.42,1.21,1.35,1.81,3.12,1.81,5.31,0,2.3-.75,4.15-2.25,5.54s-3.54,2.08-6.11,2.08c-1.65,0-3.18-.36-4.58-1.08s-2.5-1.74-3.3-3.05-1.2-2.81-1.2-4.5h3.59c0,1.76,.49,3.12,1.47,4.1s2.32,1.46,4.01,1.46c1.58,0,2.76-.4,3.55-1.21,.79-.81,1.19-1.91,1.19-3.3v.03Z"/><path class="cls-1" d="M217.57,397.36c0-3.07,.75-5.5,2.24-7.29s3.46-2.69,5.91-2.69,4.42,.87,5.91,2.62,2.26,4.12,2.29,7.13v2.23c0,3.06-.74,5.48-2.23,7.27s-3.46,2.68-5.94,2.68-4.41-.87-5.89-2.6-2.24-4.08-2.29-7.03v-2.32Zm3.46,1.99c0,2.17,.43,3.88,1.28,5.13,.85,1.24,2,1.87,3.45,1.87,3.05,0,4.62-2.2,4.71-6.6v-2.38c0-2.16-.43-3.87-1.29-5.13s-2.01-1.88-3.46-1.88-2.55,.63-3.41,1.88c-.85,1.26-1.28,2.96-1.28,5.11v2.01h0Z"/><path class="cls-1" d="M245.71,406.34c1.15,0,2.06-.35,2.75-1.06s1.07-1.72,1.13-3.04h3.26c-.08,2.03-.8,3.71-2.16,5.05-1.36,1.33-3.02,2-4.99,2-2.62,0-4.61-.82-5.99-2.47-1.37-1.65-2.06-4.1-2.06-7.35v-2.32c0-3.19,.68-5.62,2.05-7.28s3.36-2.49,5.98-2.49c2.16,0,3.88,.68,5.15,2.05s1.94,3.24,2.02,5.61h-3.26c-.08-1.56-.45-2.73-1.12-3.52-.67-.78-1.6-1.17-2.78-1.17-1.54,0-2.68,.5-3.42,1.51s-1.13,2.67-1.15,4.97v2.7c0,2.49,.37,4.25,1.1,5.27,.74,1.03,1.9,1.54,3.49,1.54h0Z"/><path class="cls-1" d="M260.85,382.16c0,.59-.16,1.07-.49,1.46-.33,.39-.82,.59-1.48,.59s-1.14-.2-1.46-.59c-.33-.39-.49-.88-.49-1.46s.16-1.08,.49-1.48c.33-.4,.81-.61,1.46-.61s1.14,.21,1.47,.62,.5,.9,.5,1.47Zm-.27,26.74h-3.46v-21.13h3.46v21.13Z"/><path class="cls-1" d="M276.88,408.9c-.21-.46-.36-1.22-.45-2.3-1.22,1.8-2.79,2.7-4.69,2.7s-3.41-.54-4.48-1.61-1.61-2.59-1.61-4.54c0-2.15,.73-3.85,2.19-5.12,1.46-1.26,3.46-1.91,6-1.93h2.54v-2.25c0-1.26-.28-2.16-.84-2.7-.56-.53-1.41-.8-2.56-.8-1.04,0-1.89,.31-2.54,.93s-.98,1.4-.98,2.35h-3.46c0-1.08,.32-2.11,.96-3.1,.64-.98,1.5-1.75,2.58-2.31s2.29-.84,3.61-.84c2.16,0,3.81,.54,4.93,1.61,1.13,1.07,1.7,2.64,1.73,4.7v10.66c.01,1.63,.23,3.04,.66,4.24v.31h-3.59Zm-4.61-2.75c.85,0,1.65-.23,2.42-.7,.77-.47,1.33-1.05,1.68-1.76v-5.04h-1.95c-1.64,.03-2.94,.39-3.89,1.1s-1.43,1.7-1.43,2.98c0,1.2,.24,2.07,.72,2.61,.48,.54,1.3,.81,2.44,.81h.01Z"/><path class="cls-1" d="M288.89,408.9h-3.46v-30h3.46v30Z"/><path class="cls-1" d="M316.39,401.71c0-1.42-.38-2.51-1.15-3.26s-2.15-1.49-4.16-2.21c-2-.72-3.54-1.47-4.6-2.26s-1.86-1.69-2.38-2.7-.79-2.17-.79-3.47c0-2.25,.75-4.11,2.26-5.57s3.47-2.19,5.91-2.19c1.67,0,3.15,.37,4.45,1.12,1.3,.74,2.3,1.78,3.01,3.11s1.05,2.78,1.05,4.37h-3.59c0-1.76-.42-3.12-1.27-4.08-.85-.96-2.06-1.45-3.65-1.45-1.45,0-2.56,.4-3.36,1.21-.79,.81-1.19,1.94-1.19,3.4,0,1.2,.43,2.21,1.29,3.01s2.19,1.53,3.98,2.17c2.8,.93,4.8,2.07,6.01,3.42,1.21,1.35,1.81,3.12,1.81,5.31,0,2.3-.75,4.15-2.25,5.54s-3.54,2.08-6.11,2.08c-1.65,0-3.18-.36-4.58-1.08s-2.5-1.74-3.3-3.05-1.2-2.81-1.2-4.5h3.59c0,1.76,.49,3.12,1.47,4.1s2.32,1.46,4.01,1.46c1.58,0,2.76-.4,3.55-1.21,.79-.81,1.19-1.91,1.19-3.3v.03Z"/><path class="cls-1" d="M331.77,409.29c-2.63,0-4.65-.78-6.05-2.35s-2.12-3.87-2.15-6.9v-2.56c0-3.15,.69-5.62,2.06-7.41s3.29-2.69,5.75-2.69,4.32,.79,5.55,2.36c1.22,1.58,1.85,4.03,1.88,7.36v2.27h-11.8v.49c0,2.27,.43,3.91,1.28,4.94s2.08,1.54,3.68,1.54c1.02,0,1.91-.19,2.69-.58,.78-.38,1.5-.99,2.18-1.83l1.8,2.19c-1.5,2.11-3.78,3.16-6.86,3.16h-.01Zm-.39-18.94c-1.43,0-2.49,.49-3.18,1.47s-1.08,2.51-1.17,4.58h8.32v-.47c-.09-2-.45-3.44-1.08-4.3-.63-.86-1.59-1.29-2.88-1.29h-.01Z"/><path class="cls-1" d="M350.28,406.34c1.15,0,2.06-.35,2.75-1.06s1.07-1.72,1.13-3.04h3.26c-.08,2.03-.8,3.71-2.16,5.05-1.36,1.33-3.02,2-4.99,2-2.62,0-4.61-.82-5.99-2.47-1.37-1.65-2.06-4.1-2.06-7.35v-2.32c0-3.19,.68-5.62,2.05-7.28s3.36-2.49,5.98-2.49c2.16,0,3.88,.68,5.15,2.05s1.94,3.24,2.02,5.61h-3.26c-.08-1.56-.45-2.73-1.12-3.52-.67-.78-1.6-1.17-2.78-1.17-1.54,0-2.68,.5-3.42,1.51s-1.13,2.67-1.15,4.97v2.7c0,2.49,.37,4.25,1.1,5.27,.74,1.03,1.9,1.54,3.49,1.54h0Z"/><path class="cls-1" d="M372.2,407.04c-1.15,1.5-2.82,2.25-5.02,2.25-1.91,0-3.36-.66-4.34-1.98s-1.47-3.25-1.48-5.77v-13.77h3.44v13.52c0,3.29,.99,4.94,2.97,4.94,2.1,0,3.54-.94,4.34-2.81v-15.64h3.46v21.13h-3.28l-.08-1.86h-.01Z"/><path class="cls-1" d="M389.48,391.01c-.48-.09-1-.14-1.56-.14-1.77,0-3.01,.97-3.71,2.91v15.12h-3.46v-21.13h3.36l.06,2.15c.92-1.69,2.23-2.54,3.93-2.54,.55,0,1,.09,1.37,.27l.02,3.36h0Z"/><path class="cls-1" d="M396.92,382.16c0,.59-.16,1.07-.49,1.46-.33,.39-.82,.59-1.48,.59s-1.14-.2-1.46-.59c-.33-.39-.49-.88-.49-1.46s.16-1.08,.49-1.48c.33-.4,.81-.61,1.46-.61s1.14,.21,1.47,.62,.5,.9,.5,1.47Zm-.27,26.74h-3.46v-21.13h3.46v21.13Z"/><path class="cls-1" d="M406.61,382.65v5.12h3.18v2.79h-3.18v13.12c0,.83,.14,1.47,.41,1.9s.74,.65,1.41,.65c.46,0,.92-.08,1.39-.23l-.04,2.91c-.78,.26-1.58,.39-2.4,.39-1.37,0-2.41-.49-3.12-1.46-.72-.98-1.07-2.36-1.07-4.14v-13.12h-3.22v-2.79h3.22v-5.12h3.44l-.02-.02Z"/><path class="cls-1" d="M419.68,403.16l3.85-15.39h3.67l-6.91,24.12c-.52,1.81-1.26,3.19-2.21,4.13-.95,.94-2.03,1.42-3.24,1.42-.47,0-1.07-.1-1.8-.31v-2.93l.76,.08c1,0,1.79-.24,2.35-.71s1.03-1.3,1.38-2.47l.68-2.36-6.21-20.96h3.77l3.91,15.39h0Z"/><path class="cls-1" d="M244.71,431.53h-7.48v25.37h-3.57v-25.37h-7.46v-3.07h18.52v3.07h0Z"/><path class="cls-1" d="M257.1,456.9c-.21-.46-.36-1.22-.45-2.3-1.22,1.8-2.79,2.7-4.69,2.7s-3.41-.54-4.48-1.61-1.61-2.59-1.61-4.54c0-2.15,.73-3.85,2.19-5.12,1.46-1.26,3.46-1.91,6-1.93h2.54v-2.25c0-1.26-.28-2.16-.84-2.7-.56-.53-1.41-.8-2.56-.8-1.04,0-1.89,.31-2.54,.93s-.98,1.4-.98,2.35h-3.46c0-1.08,.32-2.11,.96-3.1,.64-.98,1.5-1.75,2.58-2.31s2.29-.84,3.61-.84c2.16,0,3.81,.54,4.93,1.61,1.13,1.07,1.7,2.64,1.73,4.7v10.66c.01,1.63,.23,3.04,.66,4.24v.31h-3.59Zm-4.61-2.75c.85,0,1.65-.23,2.42-.7,.77-.47,1.33-1.05,1.68-1.76v-5.04h-1.95c-1.64,.03-2.94,.39-3.89,1.1s-1.43,1.7-1.43,2.98c0,1.2,.24,2.07,.72,2.61,.48,.54,1.3,.81,2.44,.81h.01Z"/><path class="cls-1" d="M271.49,443.48l3.61-7.71h4l-5.74,10.45,5.88,10.68h-3.96l-3.73-7.91-3.75,7.91h-3.98l5.88-10.68-5.72-10.45h3.96l3.55,7.71h0Z"/><path class="cls-1" d="M299.44,454.34c1.15,0,2.06-.35,2.75-1.06s1.07-1.72,1.13-3.04h3.26c-.08,2.03-.8,3.71-2.16,5.05-1.36,1.33-3.02,2-4.99,2-2.62,0-4.61-.82-5.99-2.47-1.37-1.65-2.06-4.1-2.06-7.35v-2.32c0-3.19,.68-5.62,2.05-7.28s3.36-2.49,5.98-2.49c2.16,0,3.88,.68,5.15,2.05s1.94,3.24,2.02,5.61h-3.26c-.08-1.56-.45-2.73-1.12-3.52-.67-.78-1.6-1.17-2.78-1.17-1.54,0-2.68,.5-3.42,1.51s-1.13,2.67-1.15,4.97v2.7c0,2.49,.37,4.25,1.1,5.27,.74,1.03,1.9,1.54,3.49,1.54h0Z"/><path class="cls-1" d="M319.3,439.01c-.48-.09-1-.14-1.56-.14-1.77,0-3.01,.97-3.71,2.91v15.12h-3.46v-21.13h3.36l.06,2.15c.92-1.69,2.23-2.54,3.93-2.54,.55,0,1,.09,1.37,.27l.02,3.36h0Z"/><path class="cls-1" d="M330.3,457.29c-2.63,0-4.65-.78-6.05-2.35s-2.12-3.87-2.15-6.9v-2.56c0-3.15,.69-5.62,2.06-7.41s3.29-2.69,5.75-2.69,4.32,.79,5.55,2.36c1.22,1.58,1.85,4.03,1.88,7.36v2.27h-11.8v.49c0,2.27,.43,3.91,1.28,4.94s2.08,1.54,3.68,1.54c1.02,0,1.91-.19,2.69-.58,.78-.38,1.5-.99,2.18-1.83l1.8,2.19c-1.5,2.11-3.78,3.16-6.86,3.16h-.01Zm-.39-18.94c-1.43,0-2.49,.49-3.18,1.47s-1.08,2.51-1.17,4.58h8.32v-.47c-.09-2-.45-3.44-1.08-4.3-.63-.86-1.59-1.29-2.88-1.29h-.01Z"/><path class="cls-1" d="M340.75,445.38c0-3.25,.61-5.74,1.83-7.44,1.22-1.71,2.97-2.56,5.24-2.56,2.02,0,3.59,.82,4.73,2.46v-10.94h3.46v30h-3.16l-.18-2.27c-1.13,1.77-2.75,2.66-4.86,2.66s-3.9-.85-5.15-2.55c-1.24-1.7-1.88-4.1-1.9-7.2v-2.17h-.01Zm3.46,1.97c0,2.37,.35,4.11,1.05,5.22,.7,1.11,1.85,1.67,3.44,1.67,1.72,0,3-.86,3.85-2.59v-10.65c-.88-1.69-2.16-2.54-3.83-2.54s-2.73,.56-3.44,1.67-1.06,2.82-1.07,5.12v2.11h0Z"/><path class="cls-1" d="M365.32,430.16c0,.59-.16,1.07-.49,1.46-.33,.39-.82,.59-1.48,.59s-1.14-.2-1.46-.59c-.33-.39-.49-.88-.49-1.46s.16-1.08,.49-1.48c.33-.4,.81-.61,1.46-.61s1.14,.21,1.47,.62,.5,.9,.5,1.47Zm-.27,26.74h-3.46v-21.13h3.46v21.13Z"/><path class="cls-1" d="M375.01,430.65v5.12h3.18v2.79h-3.18v13.12c0,.83,.14,1.47,.41,1.9s.74,.65,1.41,.65c.46,0,.92-.08,1.39-.23l-.04,2.91c-.78,.26-1.58,.39-2.4,.39-1.37,0-2.41-.49-3.12-1.46-.72-.98-1.07-2.36-1.07-4.14v-13.12h-3.22v-2.79h3.22v-5.12h3.44l-.02-.02Z"/><path class="cls-1" d="M392.57,451.49c0-.74-.28-1.38-.84-1.91s-1.64-1.16-3.24-1.88c-1.86-.77-3.17-1.43-3.94-1.97s-1.33-1.17-1.71-1.87c-.38-.7-.57-1.53-.57-2.49,0-1.72,.63-3.15,1.88-4.29,1.26-1.14,2.86-1.71,4.81-1.71,2.06,0,3.71,.6,4.96,1.8s1.88,2.73,1.88,4.61h-3.44c0-.95-.32-1.76-.96-2.43-.64-.67-1.45-1.01-2.44-1.01s-1.81,.26-2.39,.79c-.58,.53-.87,1.23-.87,2.11,0,.7,.21,1.27,.63,1.69,.42,.43,1.44,.99,3.06,1.69,2.57,1,4.31,1.99,5.23,2.94,.92,.96,1.39,2.17,1.39,3.65,0,1.84-.63,3.31-1.89,4.41s-2.96,1.65-5.08,1.65-3.98-.63-5.35-1.89-2.05-2.86-2.05-4.8h3.48c.04,1.17,.4,2.09,1.07,2.75,.68,.66,1.63,1,2.85,1,1.15,0,2.02-.26,2.62-.77,.6-.51,.9-1.21,.9-2.08h0Z"/><path class="cls-1" d="M213.37,476.46v20.21c-.03,2.7-.81,4.8-2.34,6.33-1.54,1.52-3.68,2.29-6.43,2.29s-4.96-.75-6.45-2.24-2.24-3.62-2.27-6.38v-20.21h3.55v20.06c0,1.91,.41,3.34,1.22,4.28s2.13,1.42,3.94,1.42,3.14-.47,3.96-1.42c.81-.94,1.22-2.37,1.22-4.28v-20.06h3.6Z"/><path class="cls-1" d="M221.65,483.77l.1,2.29c1.34-1.78,3.05-2.68,5.14-2.68,3.74,0,5.63,2.49,5.68,7.48v14.04h-3.44v-13.89c0-1.65-.28-2.83-.83-3.53s-1.38-1.04-2.49-1.04c-.86,0-1.63,.29-2.31,.86s-1.23,1.32-1.65,2.25v15.35h-3.46v-21.13h3.26Z"/><path class="cls-1" d="M245.3,505.29c-2.63,0-4.65-.78-6.05-2.35s-2.12-3.87-2.15-6.9v-2.56c0-3.15,.69-5.62,2.06-7.41s3.29-2.69,5.75-2.69,4.32,.79,5.55,2.36c1.22,1.58,1.85,4.03,1.88,7.36v2.27h-11.8v.49c0,2.27,.43,3.91,1.28,4.94s2.08,1.54,3.68,1.54c1.02,0,1.91-.19,2.69-.58,.78-.38,1.5-.99,2.18-1.83l1.8,2.19c-1.5,2.11-3.78,3.16-6.86,3.16h-.01Zm-.39-18.94c-1.43,0-2.49,.49-3.18,1.47s-1.08,2.51-1.17,4.58h8.32v-.47c-.09-2-.45-3.44-1.08-4.3-.63-.86-1.59-1.29-2.88-1.29h-.01Z"/><path class="cls-1" d="M259.73,483.77l.08,1.95c1.29-1.56,2.99-2.34,5.1-2.34,2.36,0,4,1.02,4.94,3.07,1.33-2.04,3.18-3.07,5.55-3.07,3.89,0,5.89,2.43,5.98,7.29v14.24h-3.44v-13.91c0-1.54-.27-2.68-.82-3.43s-1.47-1.12-2.77-1.12c-1.04,0-1.89,.4-2.54,1.21s-1.03,1.84-1.13,3.09v14.16h-3.48v-14.06c-.04-2.93-1.23-4.39-3.57-4.39-1.74,0-2.97,.87-3.69,2.62v15.84h-3.44v-21.13h3.24v-.02Z"/><path class="cls-1" d="M301.84,495.35c0,3.35-.6,5.84-1.81,7.48-1.2,1.64-2.91,2.46-5.11,2.46s-3.76-.8-4.9-2.4v10.14h-3.44v-29.26h3.12l.18,2.34c1.16-1.82,2.82-2.73,4.98-2.73,2.32,0,4.05,.81,5.2,2.42,1.15,1.61,1.74,4.03,1.78,7.25v2.3h0Zm-3.44-1.97c0-2.37-.36-4.12-1.09-5.24-.73-1.13-1.9-1.69-3.52-1.69s-2.91,.83-3.77,2.48v11c.85,1.61,2.12,2.42,3.81,2.42,1.56,0,2.71-.56,3.45-1.69,.74-1.13,1.11-2.85,1.12-5.17v-2.11h0Z"/><path class="cls-1" d="M310.03,504.9h-3.46v-30h3.46v30Z"/><path class="cls-1" d="M314.73,493.36c0-3.07,.75-5.5,2.24-7.29s3.46-2.69,5.91-2.69,4.42,.87,5.91,2.62,2.26,4.12,2.29,7.13v2.23c0,3.06-.74,5.48-2.23,7.27s-3.46,2.68-5.94,2.68-4.41-.87-5.89-2.6-2.24-4.08-2.29-7.03v-2.32Zm3.46,1.99c0,2.17,.43,3.88,1.28,5.13,.85,1.24,2,1.87,3.45,1.87,3.05,0,4.62-2.2,4.71-6.6v-2.38c0-2.16-.43-3.87-1.29-5.13s-2.01-1.88-3.46-1.88-2.55,.63-3.41,1.88c-.85,1.26-1.28,2.96-1.28,5.11v2.01h0Z"/><path class="cls-1" d="M341.32,499.16l3.85-15.39h3.67l-6.91,24.12c-.52,1.81-1.26,3.19-2.21,4.13-.95,.94-2.03,1.42-3.24,1.42-.47,0-1.07-.1-1.8-.31v-2.93l.76,.08c1,0,1.79-.24,2.35-.71s1.03-1.3,1.38-2.47l.68-2.36-6.21-20.96h3.77l3.91,15.39h0Z"/><path class="cls-1" d="M355.46,483.77l.08,1.95c1.29-1.56,2.99-2.34,5.1-2.34,2.36,0,4,1.02,4.94,3.07,1.33-2.04,3.18-3.07,5.55-3.07,3.89,0,5.89,2.43,5.98,7.29v14.24h-3.44v-13.91c0-1.54-.27-2.68-.82-3.43s-1.47-1.12-2.77-1.12c-1.04,0-1.89,.4-2.54,1.21s-1.03,1.84-1.13,3.09v14.16h-3.48v-14.06c-.04-2.93-1.23-4.39-3.57-4.39-1.74,0-2.97,.87-3.69,2.62v15.84h-3.44v-21.13h3.24v-.02Z"/><path class="cls-1" d="M389.85,505.29c-2.63,0-4.65-.78-6.05-2.35s-2.12-3.87-2.15-6.9v-2.56c0-3.15,.69-5.62,2.06-7.41s3.29-2.69,5.75-2.69,4.32,.79,5.55,2.36c1.22,1.58,1.85,4.03,1.88,7.36v2.27h-11.8v.49c0,2.27,.43,3.91,1.28,4.94s2.08,1.54,3.68,1.54c1.02,0,1.91-.19,2.69-.58,.78-.38,1.5-.99,2.18-1.83l1.8,2.19c-1.5,2.11-3.78,3.16-6.86,3.16h-.01Zm-.39-18.94c-1.43,0-2.49,.49-3.18,1.47s-1.08,2.51-1.17,4.58h8.32v-.47c-.09-2-.45-3.44-1.08-4.3-.63-.86-1.59-1.29-2.88-1.29h-.01Z"/><path class="cls-1" d="M404.28,483.77l.1,2.29c1.34-1.78,3.05-2.68,5.14-2.68,3.74,0,5.63,2.49,5.68,7.48v14.04h-3.44v-13.89c0-1.65-.28-2.83-.83-3.53s-1.38-1.04-2.49-1.04c-.86,0-1.63,.29-2.31,.86s-1.23,1.32-1.65,2.25v15.35h-3.46v-21.13h3.26Z"/><path class="cls-1" d="M424.91,478.65v5.12h3.18v2.79h-3.18v13.12c0,.83,.14,1.47,.41,1.9,.27,.43,.74,.65,1.41,.65,.46,0,.92-.08,1.39-.23l-.04,2.91c-.78,.26-1.58,.39-2.4,.39-1.37,0-2.41-.49-3.12-1.46-.72-.98-1.07-2.36-1.07-4.14v-13.12h-3.22v-2.79h3.22v-5.12h3.44l-.02-.02Z"/><path class="cls-1" d="M136.54,543.93l.37,3.18,.57-2.81,4.55-19.84h2.99l4.41,19.84,.57,2.89,.41-3.28,3.48-19.45h3.57l-5.66,28.44h-3.22l-4.75-20.72-.29-1.68-.29,1.68-4.92,20.72h-3.24l-5.64-28.44h3.57l3.54,19.47h-.02Z"/><path class="cls-1" d="M159.76,541.36c0-3.07,.75-5.5,2.24-7.29s3.46-2.69,5.91-2.69,4.42,.87,5.91,2.62,2.26,4.12,2.29,7.13v2.23c0,3.06-.74,5.48-2.23,7.27s-3.46,2.68-5.94,2.68-4.41-.87-5.89-2.6-2.24-4.08-2.29-7.03v-2.32Zm3.46,1.99c0,2.17,.43,3.88,1.28,5.13,.85,1.24,2,1.87,3.45,1.87,3.05,0,4.62-2.2,4.71-6.6v-2.38c0-2.16-.43-3.87-1.29-5.13s-2.01-1.88-3.46-1.88-2.55,.63-3.41,1.88c-.85,1.26-1.28,2.96-1.28,5.11v2.01h0Z"/><path class="cls-1" d="M189.29,535.01c-.48-.09-1-.14-1.56-.14-1.77,0-3.01,.97-3.71,2.91v15.12h-3.46v-21.13h3.36l.06,2.15c.92-1.69,2.23-2.54,3.93-2.54,.55,0,1,.09,1.37,.27l.02,3.36h0Z"/><path class="cls-1" d="M198.04,543.23l-1.84,2.11v7.56h-3.46v-30h3.46v17.95l6.58-9.08h4.14l-6.72,8.83,7.6,12.3h-4.02l-5.74-9.67h0Z"/><path class="cls-1" d="M218.32,553.29c-2.63,0-4.65-.78-6.05-2.35s-2.12-3.87-2.15-6.9v-2.56c0-3.15,.69-5.62,2.06-7.41s3.29-2.69,5.75-2.69,4.32,.79,5.55,2.36c1.22,1.58,1.85,4.03,1.88,7.36v2.27h-11.8v.49c0,2.27,.43,3.91,1.28,4.94s2.08,1.54,3.68,1.54c1.02,0,1.91-.19,2.69-.58,.78-.38,1.5-.99,2.18-1.83l1.8,2.19c-1.5,2.11-3.78,3.16-6.86,3.16h-.01Zm-.39-18.94c-1.43,0-2.49,.49-3.18,1.47s-1.08,2.51-1.17,4.58h8.32v-.47c-.09-2-.45-3.44-1.08-4.3-.63-.86-1.59-1.29-2.88-1.29h-.01Z"/><path class="cls-1" d="M238.22,535.01c-.48-.09-1-.14-1.56-.14-1.77,0-3.01,.97-3.71,2.91v15.12h-3.46v-21.13h3.36l.06,2.15c.92-1.69,2.23-2.54,3.93-2.54,.55,0,1,.09,1.37,.27l.02,3.36h0Z"/><path class="cls-1" d="M251.93,547.49c0-.74-.28-1.38-.84-1.91-.56-.53-1.64-1.16-3.24-1.88-1.86-.77-3.17-1.43-3.94-1.97s-1.33-1.17-1.71-1.87-.57-1.53-.57-2.49c0-1.72,.63-3.15,1.88-4.29,1.26-1.14,2.86-1.71,4.81-1.71,2.06,0,3.71,.6,4.96,1.8s1.88,2.73,1.88,4.61h-3.44c0-.95-.32-1.76-.96-2.43-.64-.67-1.45-1.01-2.44-1.01s-1.81,.26-2.39,.79c-.58,.53-.87,1.23-.87,2.11,0,.7,.21,1.27,.63,1.69,.42,.43,1.44,.99,3.06,1.69,2.57,1,4.31,1.99,5.23,2.94,.92,.96,1.39,2.17,1.39,3.65,0,1.84-.63,3.31-1.89,4.41s-2.96,1.65-5.08,1.65-3.98-.63-5.35-1.89-2.05-2.86-2.05-4.8h3.48c.04,1.17,.4,2.09,1.07,2.75,.68,.66,1.63,1,2.85,1,1.15,0,2.02-.26,2.62-.77s.9-1.21,.9-2.08h0Z"/><path class="cls-1" d="M287.36,543.86c-.16,3.05-1.01,5.38-2.57,7s-3.75,2.43-6.59,2.43-5.12-1.08-6.8-3.25-2.52-5.11-2.52-8.82v-5.16c0-3.7,.86-6.62,2.59-8.77s4.08-3.22,7.06-3.22c2.75,0,4.87,.82,6.38,2.46s2.32,3.99,2.45,7.05h-3.61c-.16-2.32-.64-3.97-1.46-4.96s-2.07-1.48-3.75-1.48c-1.94,0-3.43,.76-4.47,2.28s-1.56,3.74-1.56,6.67v5.21c0,2.88,.49,5.08,1.46,6.62s2.39,2.3,4.25,2.3,3.2-.46,4.02-1.39,1.33-2.58,1.52-4.98h3.6Z"/><path class="cls-1" d="M290.99,541.36c0-3.07,.75-5.5,2.24-7.29s3.46-2.69,5.91-2.69,4.42,.87,5.91,2.62,2.26,4.12,2.29,7.13v2.23c0,3.06-.74,5.48-2.23,7.27s-3.46,2.68-5.94,2.68-4.41-.87-5.89-2.6-2.24-4.08-2.29-7.03v-2.32Zm3.46,1.99c0,2.17,.43,3.88,1.28,5.13,.85,1.24,2,1.87,3.45,1.87,3.05,0,4.62-2.2,4.71-6.6v-2.38c0-2.16-.43-3.87-1.29-5.13s-2.01-1.88-3.46-1.88-2.55,.63-3.41,1.88c-.85,1.26-1.28,2.96-1.28,5.11v2.01h0Z"/><path class="cls-1" d="M315.06,531.77l.08,1.95c1.29-1.56,2.99-2.34,5.1-2.34,2.36,0,4,1.02,4.94,3.07,1.33-2.04,3.18-3.07,5.55-3.07,3.89,0,5.89,2.43,5.98,7.29v14.24h-3.44v-13.91c0-1.54-.27-2.68-.82-3.43s-1.47-1.12-2.77-1.12c-1.04,0-1.89,.4-2.54,1.21s-1.03,1.84-1.13,3.09v14.16h-3.48v-14.06c-.04-2.93-1.23-4.39-3.57-4.39-1.74,0-2.97,.87-3.69,2.62v15.84h-3.44v-21.13h3.24v-.02Z"/><path class="cls-1" d="M357.17,543.35c0,3.35-.6,5.84-1.81,7.48-1.2,1.64-2.91,2.46-5.11,2.46s-3.76-.8-4.9-2.4v10.14h-3.44v-29.26h3.12l.18,2.34c1.16-1.82,2.82-2.73,4.98-2.73,2.32,0,4.05,.81,5.2,2.42,1.15,1.61,1.74,4.03,1.78,7.25v2.3h0Zm-3.44-1.97c0-2.37-.36-4.12-1.09-5.24-.73-1.13-1.9-1.69-3.52-1.69s-2.91,.83-3.77,2.48v11c.85,1.61,2.12,2.42,3.81,2.42,1.56,0,2.71-.56,3.45-1.69,.74-1.13,1.11-2.85,1.12-5.17v-2.11h0Z"/><path class="cls-1" d="M369.18,553.29c-2.63,0-4.65-.78-6.05-2.35s-2.12-3.87-2.15-6.9v-2.56c0-3.15,.69-5.62,2.06-7.41s3.29-2.69,5.75-2.69,4.32,.79,5.55,2.36c1.22,1.58,1.85,4.03,1.88,7.36v2.27h-11.8v.49c0,2.27,.43,3.91,1.28,4.94s2.08,1.54,3.68,1.54c1.02,0,1.91-.19,2.69-.58,.78-.38,1.5-.99,2.18-1.83l1.8,2.19c-1.5,2.11-3.78,3.16-6.86,3.16h-.01Zm-.39-18.94c-1.43,0-2.49,.49-3.18,1.47s-1.08,2.51-1.17,4.58h8.32v-.47c-.09-2-.45-3.44-1.08-4.3-.63-.86-1.59-1.29-2.88-1.29h-.01Z"/><path class="cls-1" d="M383.61,531.77l.1,2.29c1.34-1.78,3.05-2.68,5.14-2.68,3.74,0,5.63,2.49,5.68,7.48v14.04h-3.44v-13.89c0-1.65-.28-2.83-.83-3.53s-1.38-1.04-2.49-1.04c-.86,0-1.63,.29-2.31,.86s-1.23,1.32-1.65,2.25v15.35h-3.46v-21.13h3.26Z"/><path class="cls-1" d="M409.98,547.49c0-.74-.28-1.38-.84-1.91-.56-.53-1.64-1.16-3.24-1.88-1.86-.77-3.17-1.43-3.94-1.97s-1.33-1.17-1.71-1.87-.57-1.53-.57-2.49c0-1.72,.63-3.15,1.88-4.29,1.26-1.14,2.86-1.71,4.81-1.71,2.06,0,3.71,.6,4.96,1.8s1.88,2.73,1.88,4.61h-3.44c0-.95-.32-1.76-.96-2.43-.64-.67-1.45-1.01-2.44-1.01s-1.81,.26-2.39,.79c-.58,.53-.87,1.23-.87,2.11,0,.7,.21,1.27,.63,1.69,.42,.43,1.44,.99,3.06,1.69,2.57,1,4.31,1.99,5.23,2.94,.92,.96,1.39,2.17,1.39,3.65,0,1.84-.63,3.31-1.89,4.41s-2.96,1.65-5.08,1.65-3.98-.63-5.35-1.89-2.05-2.86-2.05-4.8h3.48c.04,1.17,.4,2.09,1.07,2.75,.68,.66,1.63,1,2.85,1,1.15,0,2.02-.26,2.62-.77s.9-1.21,.9-2.08h0Z"/><path class="cls-1" d="M428.81,552.9c-.21-.46-.36-1.22-.45-2.3-1.22,1.8-2.79,2.7-4.69,2.7s-3.41-.54-4.48-1.61-1.61-2.59-1.61-4.54c0-2.15,.73-3.85,2.19-5.12,1.46-1.26,3.46-1.91,6-1.93h2.54v-2.25c0-1.26-.28-2.16-.84-2.7-.56-.53-1.41-.8-2.56-.8-1.04,0-1.89,.31-2.54,.93s-.98,1.4-.98,2.35h-3.46c0-1.08,.32-2.11,.96-3.1,.64-.98,1.5-1.75,2.58-2.31s2.29-.84,3.61-.84c2.16,0,3.81,.54,4.93,1.61,1.13,1.07,1.7,2.64,1.73,4.7v10.66c.01,1.63,.23,3.04,.66,4.24v.31h-3.59Zm-4.61-2.75c.85,0,1.65-.23,2.42-.7,.77-.47,1.33-1.05,1.68-1.76v-5.04h-1.95c-1.64,.03-2.94,.39-3.89,1.1-.95,.71-1.43,1.7-1.43,2.98,0,1.2,.24,2.07,.72,2.61s1.3,.81,2.44,.81h.01Z"/><path class="cls-1" d="M441.62,526.65v5.12h3.18v2.79h-3.18v13.12c0,.83,.14,1.47,.41,1.9,.27,.43,.74,.65,1.41,.65,.46,0,.92-.08,1.39-.23l-.04,2.91c-.78,.26-1.58,.39-2.4,.39-1.37,0-2.41-.49-3.12-1.46-.72-.98-1.07-2.36-1.07-4.14v-13.12h-3.22v-2.79h3.22v-5.12h3.44l-.02-.02Z"/><path class="cls-1" d="M452.91,526.16c0,.59-.16,1.07-.49,1.46s-.82,.59-1.48,.59-1.14-.2-1.46-.59c-.33-.39-.49-.88-.49-1.46s.16-1.08,.49-1.48c.33-.4,.81-.61,1.46-.61s1.14,.21,1.47,.62,.5,.9,.5,1.47Zm-.27,26.74h-3.46v-21.13h3.46v21.13Z"/><path class="cls-1" d="M457.34,541.36c0-3.07,.75-5.5,2.24-7.29s3.46-2.69,5.91-2.69,4.42,.87,5.91,2.62,2.26,4.12,2.29,7.13v2.23c0,3.06-.74,5.48-2.23,7.27s-3.46,2.68-5.94,2.68-4.41-.87-5.89-2.6c-1.48-1.73-2.24-4.08-2.29-7.03v-2.32Zm3.46,1.99c0,2.17,.43,3.88,1.28,5.13,.85,1.24,2,1.87,3.45,1.87,3.05,0,4.62-2.2,4.71-6.6v-2.38c0-2.16-.43-3.87-1.29-5.13s-2.01-1.88-3.46-1.88-2.55,.63-3.41,1.88c-.85,1.26-1.28,2.96-1.28,5.11v2.01h0Z"/><path class="cls-1" d="M481.4,531.77l.1,2.29c1.34-1.78,3.05-2.68,5.14-2.68,3.74,0,5.63,2.49,5.68,7.48v14.04h-3.44v-13.89c0-1.65-.28-2.83-.83-3.53s-1.38-1.04-2.49-1.04c-.86,0-1.63,.29-2.31,.86s-1.23,1.32-1.65,2.25v15.35h-3.46v-21.13h3.26Z"/></g></svg>