<?xml version="1.0" encoding="utf-8"?>
<!-- Generator: Adobe Illustrator 27.0.1, SVG Export Plug-In . SVG Version: 6.00 Build 0)  -->
<svg version="1.1" id="Layer_1" xmlns="http://www.w3.org/2000/svg" xmlns:xlink="http://www.w3.org/1999/xlink" x="0px" y="0px"
	 viewBox="0 0 225 225" style="enable-background:new 0 0 225 225;" xml:space="preserve">
<style type="text/css">
	.st0{fill:#828A43;}
	.st1{fill:#FFFFFF;}
	.st2{fill:#A5A49F;}
	.st3{fill:#524C4C;}
	.st4{fill:#B3BD80;}
	.st5{fill:#677432;}
	.st6{fill:#7F7474;}
	.st7{enable-background:new    ;}
</style>
<g>
	<polygon class="st2" points="203.6,165.1 112.5,217.7 21.4,165.1 21.4,59.9 112.5,7.3 203.6,59.9 	"/>
	<g>
		<path class="st3" d="M175.7,72.9c3.5-0.2,6.9-0.5,10.4-0.6c2.3-0.1,3.9,1.4,3.9,3.7c0.5,17.3,1,34.6,1.5,51.9
			c0.2,7.3,0.5,14.6,0.8,21.9c0.1,2.3-0.3,2.9-2.5,3.2c-6.8,0.8-13.7,1.4-20.5,2.1c-6.5,0.7-13,1.4-19.5,2c-5.8,0.6-11.6,1-17.4,1.6
			c-5.4,0.5-10.9,1.1-16.3,1.7c-5.3,0.5-10.6,1-16,1.6c-6.6,0.7-13.2,1.4-19.8,2c-4.6,0.4-9.1,0.8-13.7,1.2
			c-5.4,0.5-10.9,1.2-16.3,1.5c-4.2,0.3-8.4,0.3-12.5,0.2c-0.6,0-1.6-1-1.6-1.7c-0.7-5.8-1.3-11.7-1.9-17.5
			c-0.5-5.2-1-10.4-1.5-15.6c-0.4-4.5-0.9-9.1-1.3-13.6c-0.5-5.3-1.1-10.6-1.6-15.9c-0.5-5.3-1-10.6-1.6-15.9
			c-0.2-2.1-0.5-4.1,0.5-6.2c0.5-1,1.1-1.6,2.2-1.7c8.6-0.3,17.1-1,25.7-0.9c4.8,0,9-1.8,13.4-2.8c6-1.3,11.9-2.9,17.8-4.5
			c11.6-3.2,23.4-5.1,35.2-7.2c8.5-1.5,17-3.1,25.5-4.6c5.8-1.1,11.5-2.2,17.3-3.3c2.7-0.5,3.3-0.2,4.3,2.3
			C171.8,62.7,173.7,67.7,175.7,72.9L175.7,72.9z M186.5,76.2c-51.8,2-103.5,4.1-155.3,6.1c2.8,27.4,5.6,54.7,8.3,81.8
			c49.8-4.9,99.4-9.7,149.1-14.6C187.9,125.1,187.2,100.7,186.5,76.2L186.5,76.2z M75.5,76c0,0.2,0,0.3,0,0.5c0.6,0,1.1,0.1,1.7,0.1
			c4.3-0.2,8.5-0.5,12.8-0.7c6.4-0.3,12.9,0.3,19.4-0.6c6.4-0.9,12.9,0.3,19.3-0.7c5-0.8,10.2-0.6,15.2-0.8
			c8.4-0.3,16.7-0.5,25.1-0.8c0.9,0,1.7-0.2,2.6-0.3c-0.4-0.7-0.7-1.4-1.1-2c0-0.1-0.1-0.1-0.1-0.2c-1-3-2-6-3-9
			c-0.3-0.7-0.8-1.8-1.5-1.9c-1.2-0.3-2.6-0.2-3.9,0c-3.8,0.6-7.6,1.4-11.4,2c-1.8,0.3-3.6,0.6-5.3,0.9c-2.1,0.4-4.2,0.9-6.4,1.2
			c-1.9,0.3-3.8,0.5-5.7,0.9c-2.2,0.4-4.4,0.9-6.7,1.3c-1.7,0.3-3.5,0.5-5.2,0.8c-2,0.4-4,1-6.1,1.3c-2,0.4-4.1,0.5-6.1,0.8
			c-1.4,0.2-2.9,0.5-4.3,0.8c-1.8,0.4-3.6,0.9-5.4,1.3c-2.7,0.6-5.5,1-8.2,1.6c-2.7,0.6-5.3,1.4-7.9,2C80.8,75,78.1,75.5,75.5,76
			L75.5,76z"/>
		<path class="st1" d="M186.5,76.2c0.7,24.6,1.4,48.9,2.1,73.3c-49.8,4.9-99.3,9.7-149.1,14.6c-2.8-27.1-5.5-54.4-8.3-81.8
			C83,80.3,134.7,78.2,186.5,76.2L186.5,76.2z M95.6,122.9c5.8-0.4,11.5-0.7,17.2-1.1c7.1-0.5,14.1-1.1,21.1-1.7
			c6.3-0.5,12.6-1,18.8-1.5c0.5,0,1-0.3,1.5-0.6c1.1-0.7,1-2.1-0.2-2.7c-0.6-0.3-1.3-0.3-1.9-0.3c-4.7,0.3-9.4,0.7-14,1.1
			c-6.3,0.5-12.5,1.1-18.8,1.6c-6,0.5-11.9,1-17.9,1.6c-2.2,0.2-4.4,0.4-6.5,0.8c-0.6,0.1-1.1,0.8-1.7,1.3c0.5,0.4,1.1,0.9,1.6,1.3
			C95,122.9,95.4,122.8,95.6,122.9L95.6,122.9z M99.8,134.1c3-0.1,6.5-0.3,9.9-0.5c6.3-0.4,12.7-0.9,19-1.3
			c7.2-0.4,14.5-0.8,21.7-1.2c0.7,0,1.5-0.2,2-0.6c0.5-0.4,1-1.2,0.9-1.7c-0.1-0.5-0.8-1.2-1.3-1.4c-0.5-0.2-1.2-0.1-1.7-0.1
			c-7.2,0.5-14.4,1.2-21.7,1.7c-8.1,0.6-16.2,1-24.4,1.5c-2.7,0.2-5.3,0.6-7.9,1c-0.4,0.1-1.1,0.9-1,1.3c0,0.4,0.7,1,1.2,1.1
			C97.4,134.2,98.4,134.1,99.8,134.1L99.8,134.1z M101.3,113.7c2.9-0.2,5.9-0.3,8.9-0.5c6.3-0.4,12.6-0.9,18.9-1.3
			c5.1-0.3,10.2-0.7,15.3-1c1.3-0.1,2.4-0.5,2.2-1.9c-0.1-1.4-1.2-1.9-2.6-1.8c-5,0.4-9.9,0.8-14.9,1.2c-7.7,0.6-15.4,1.1-23.1,1.7
			c-2.5,0.2-5,0.4-7.4,0.7c-0.5,0.1-1,0.9-1.5,1.4c0.6,0.5,1.1,1.1,1.7,1.3C99.5,113.9,100.4,113.7,101.3,113.7L101.3,113.7z
			 M178.4,81.1c-0.5-0.1-0.9-0.2-1.3-0.2c-5.2,0.5-10.4,1.1-15.5,1.7c-1.5,0.2-2.4,0.8-2.5,2.4c0,0.9-0.1,1.8-0.1,2.7
			c0.2,2.5,0.4,5,0.6,7.5c0.2,2.6,0.5,5.3,0.8,8.2c6.6-0.3,13-0.6,19.6-0.9C179.5,95.4,178.9,88.3,178.4,81.1L178.4,81.1z M62.1,105
			c0-0.3-0.1-0.7-0.1-1c-2.2-0.1-4.4-0.3-6.6-0.2c-4.1,0.2-8.2,0.7-12.2,1c-1.1,0.1-2.1,0.3-2.2,1.6c-0.1,1.4,1.1,1.7,2.2,1.8
			c0.5,0.1,0.9,0,1.4-0.1c3.2-0.4,6.5-0.7,9.7-1.3C56.9,106.4,59.5,105.6,62.1,105L62.1,105z M63.4,87c0-0.1-0.1-0.2-0.1-0.3
			c-0.2,0-0.3-0.1-0.5-0.1c-4.1,0.2-8.3,0.5-12.4,0.7c-3.9,0.2-7.8,0.4-11.7,0.6c-1,0-1.8,0.2-1.8,1.5c0.1,1.3,1.1,1.3,1.9,1.3
			c7.3-0.4,14.5-0.9,21.6-2.8C61.5,87.5,62.5,87.2,63.4,87z M63.7,94.4c0-0.2-0.1-0.4-0.1-0.6c-4.4,0.3-8.9,0.7-13.3,1
			c-2.7,0.2-5.4,0.4-8.1,0.8c-1,0.2-2.8,0.1-2.5,1.8c0.3,1.6,1.9,1.3,3.1,1.2c4.5-0.7,9-1.3,13.5-2.1C58.7,96,61.2,95.1,63.7,94.4
			L63.7,94.4z"/>
		<path class="st5" d="M75.5,76c2.7-0.5,5.3-1,8-1.6c2.6-0.6,5.3-1.4,7.9-2c2.7-0.6,5.5-1,8.2-1.6c1.8-0.4,3.6-0.9,5.4-1.3
			c1.4-0.3,2.9-0.6,4.3-0.8c2-0.3,4.1-0.5,6.1-0.8c2-0.4,4-0.9,6.1-1.3c1.7-0.3,3.4-0.5,5.2-0.8c2.2-0.4,4.4-0.9,6.7-1.3
			c1.9-0.3,3.8-0.5,5.7-0.9c2.1-0.4,4.2-0.8,6.4-1.2c1.8-0.3,3.6-0.6,5.3-0.9c3.8-0.7,7.6-1.4,11.4-2c1.3-0.2,2.7-0.3,3.9,0
			c0.6,0.1,1.2,1.2,1.5,1.9c1.1,3,2,6,3,9c0,0.1,0.1,0.1,0.1,0.2c0.4,0.7,0.7,1.4,1.1,2c-0.9,0.1-1.7,0.3-2.6,0.3
			c-8.4,0.3-16.7,0.5-25.1,0.8c-5.1,0.2-10.2,0-15.2,0.8c-6.5,1-13-0.1-19.3,0.7c-6.5,0.9-12.9,0.3-19.4,0.6
			c-4.3,0.2-8.5,0.5-12.8,0.7c-0.6,0-1.1,0-1.7-0.1C75.5,76.3,75.5,76.2,75.5,76L75.5,76z"/>
		<path class="st3" d="M95.6,122.9c-0.2,0-0.5,0-0.8-0.1c-0.6-0.4-1.1-0.9-1.6-1.3c0.6-0.4,1.1-1.2,1.7-1.3c2.2-0.4,4.4-0.6,6.5-0.8
			c6-0.5,11.9-1.1,17.9-1.6c6.3-0.6,12.5-1.1,18.8-1.6c4.7-0.4,9.4-0.8,14-1.1c0.6,0,1.3,0,1.9,0.3c1.2,0.6,1.3,1.9,0.2,2.7
			c-0.4,0.3-1,0.5-1.5,0.6c-6.3,0.5-12.6,1-18.8,1.5c-7,0.6-14.1,1.2-21.1,1.7C107.1,122.2,101.4,122.5,95.6,122.9L95.6,122.9z"/>
		<path class="st3" d="M99.7,134.1c-1.4,0-2.4,0.1-3.3-0.1c-0.5-0.1-1.2-0.7-1.2-1.1c0-0.4,0.6-1.2,1-1.3c2.6-0.4,5.3-0.9,7.9-1
			c8.1-0.6,16.2-1,24.4-1.5c7.2-0.5,14.4-1.1,21.7-1.7c0.6,0,1.3-0.2,1.7,0.1c0.6,0.3,1.2,0.9,1.3,1.4c0.1,0.5-0.4,1.3-0.9,1.7
			c-0.5,0.4-1.3,0.5-2,0.6c-7.2,0.4-14.5,0.7-21.7,1.2c-6.3,0.4-12.7,0.9-19,1.3C106.2,133.8,102.8,133.9,99.7,134.1L99.7,134.1z"/>
		<path class="st3" d="M101.3,113.7c-0.9,0-1.8,0.2-2.5-0.1c-0.7-0.2-1.2-0.9-1.7-1.3c0.5-0.5,0.9-1.3,1.5-1.4
			c2.5-0.4,5-0.6,7.4-0.7c7.7-0.6,15.4-1.1,23.1-1.7c5-0.4,10-0.8,14.9-1.2c1.4-0.1,2.5,0.4,2.6,1.8c0.1,1.4-0.9,1.8-2.2,1.9
			c-5.1,0.3-10.2,0.6-15.3,1c-6.3,0.4-12.6,0.9-18.9,1.3C107.2,113.4,104.2,113.5,101.3,113.7L101.3,113.7z"/>
		<path class="st3" d="M178.4,81.2c0.5,7.2,1.1,14.2,1.6,21.3c-6.6,0.3-13,0.6-19.6,0.9c-0.3-2.9-0.5-5.6-0.8-8.2
			c-0.2-2.5-0.5-5-0.6-7.5c-0.1-0.9,0-1.8,0.1-2.7c0-1.6,1-2.3,2.5-2.4c5.2-0.6,10.4-1.1,15.5-1.7C177.5,80.9,177.9,81.1,178.4,81.2
			L178.4,81.2z M178.4,100.8c-0.4-5.6-0.9-11.3-1.4-17.4c-5.4,0.5-10.6,0.9-16.2,1.4c0.4,5.1,0.8,10.1,1.3,15c0,0.4,0.8,1,1.2,1
			C168.1,100.8,173,100.8,178.4,100.8L178.4,100.8z"/>
		<path class="st3" d="M62.1,105c-2.6,0.6-5.3,1.4-8,1.9c-3.2,0.6-6.5,0.9-9.7,1.3c-0.5,0.1-1,0.1-1.4,0.1c-1.1-0.1-2.2-0.4-2.2-1.8
			c0.1-1.3,1.1-1.5,2.2-1.6c4.1-0.3,8.2-0.8,12.2-1c2.2-0.1,4.4,0.1,6.6,0.2C62,104.3,62.1,104.6,62.1,105L62.1,105z"/>
		<path class="st3" d="M63.4,87c-1,0.3-1.9,0.6-2.9,0.8c-7.1,2-14.3,2.4-21.6,2.8c-0.8,0-1.9,0-1.9-1.3c-0.1-1.3,0.8-1.4,1.8-1.5
			c3.9-0.2,7.8-0.4,11.7-0.6c4.1-0.2,8.3-0.5,12.4-0.7c0.1,0,0.3,0.1,0.5,0.1C63.4,86.8,63.4,86.9,63.4,87z"/>
		<path class="st3" d="M63.7,94.4c-2.5,0.7-5,1.6-7.5,2c-4.5,0.8-9,1.5-13.5,2.1c-1.2,0.2-2.8,0.5-3.1-1.2c-0.3-1.7,1.6-1.6,2.5-1.8
			c2.7-0.4,5.4-0.6,8.1-0.8c4.4-0.4,8.9-0.7,13.3-1C63.6,94,63.6,94.2,63.7,94.4L63.7,94.4z"/>
		<path class="st4" d="M178.4,100.8c-5.4,0-10.2,0-15.1,0c-0.4,0-1.1-0.6-1.2-1c-0.5-4.9-0.9-9.9-1.3-15c5.6-0.5,10.8-0.9,16.2-1.4
			C177.5,89.5,177.9,95.2,178.4,100.8L178.4,100.8z"/>
	</g>
</g>
</svg>
