<?xml version="1.0" encoding="utf-8"?>
<!-- Generator: Adobe Illustrator 27.0.1, SVG Export Plug-In . SVG Version: 6.00 Build 0)  -->
<svg version="1.1" id="Layer_1" xmlns="http://www.w3.org/2000/svg" xmlns:xlink="http://www.w3.org/1999/xlink" x="0px" y="0px"
	 viewBox="0 0 175 190" style="enable-background:new 0 0 175 190;" xml:space="preserve">
<style type="text/css">
	.st0{fill:#A5A49F;}
	.st1{fill:#FFFFFF;}
	.st2{fill:#524C4C;}
	.st3{fill:#828A43;}
	.st4{fill:#B3BD80;}
	.st5{fill:#677432;}
	.st6{fill:#7F7474;}
	.st7{enable-background:new    ;}
</style>
<g>
	<polygon class="st0" points="162.5,138.3 87.5,181.6 12.5,138.3 12.5,51.7 87.5,8.4 162.5,51.7 	"/>
	<g>
		<path class="st2" d="M139.5,62.4c2.9-0.2,5.7-0.4,8.5-0.5c1.9-0.1,3.2,1.2,3.2,3c0.4,14.2,0.8,28.5,1.2,42.7
			c0.2,6,0.4,12,0.7,18.1c0.1,1.9-0.3,2.4-2.1,2.6c-5.6,0.6-11.3,1.2-16.9,1.8c-5.3,0.6-10.7,1.1-16,1.6c-4.8,0.5-9.5,0.8-14.3,1.3
			c-4.5,0.4-8.9,0.9-13.4,1.4c-4.4,0.4-8.8,0.9-13.1,1.3c-5.4,0.5-10.9,1.1-16.3,1.6c-3.7,0.4-7.5,0.6-11.2,1
			c-4.5,0.4-8.9,1-13.4,1.3c-3.4,0.2-6.9,0.2-10.3,0.1c-0.5,0-1.3-0.8-1.4-1.4c-0.6-4.8-1-9.6-1.5-14.4c-0.4-4.3-0.9-8.6-1.3-12.8
			c-0.4-3.7-0.7-7.5-1.1-11.2c-0.4-4.4-0.9-8.7-1.3-13.1c-0.4-4.4-0.9-8.7-1.3-13.1c-0.2-1.7-0.4-3.4,0.4-5.1
			c0.4-0.9,0.9-1.3,1.8-1.4c7-0.3,14.1-0.8,21.1-0.8c3.9,0,7.4-1.5,11-2.3c4.9-1,9.8-2.4,14.6-3.7c9.5-2.6,19.3-4.2,29-5.9
			c7-1.2,14-2.5,21-3.8c4.7-0.9,9.5-1.8,14.2-2.7c2.2-0.4,2.7-0.2,3.5,1.9C136.3,54,137.9,58.1,139.5,62.4L139.5,62.4z M148.4,65.1
			c-42.6,1.7-85.2,3.4-127.9,5.1c2.3,22.6,4.6,45.1,6.9,67.3c41-4,81.8-8,122.7-12C149.5,105.4,149,85.3,148.4,65.1L148.4,65.1z
			 M57,65c0,0.1,0,0.2,0,0.4c0.5,0,0.9,0.1,1.4,0.1c3.5-0.2,7-0.4,10.5-0.6c5.3-0.3,10.6,0.2,15.9-0.5c5.2-0.7,10.6,0.2,15.9-0.6
			c4.1-0.6,8.4-0.5,12.5-0.7c6.9-0.2,13.8-0.4,20.6-0.6c0.7,0,1.4-0.2,2.1-0.3c-0.3-0.6-0.6-1.1-0.9-1.7c0,0-0.1-0.1-0.1-0.1
			c-0.8-2.5-1.6-5-2.5-7.4c-0.2-0.6-0.7-1.5-1.2-1.6c-1-0.2-2.2-0.1-3.2,0c-3.1,0.5-6.2,1.1-9.4,1.7c-1.5,0.3-2.9,0.5-4.4,0.7
			c-1.8,0.3-3.5,0.7-5.3,1c-1.6,0.3-3.1,0.5-4.7,0.7c-1.8,0.3-3.7,0.7-5.5,1c-1.4,0.3-2.8,0.4-4.2,0.7c-1.7,0.3-3.3,0.8-5,1.1
			c-1.7,0.3-3.4,0.4-5,0.7c-1.2,0.2-2.4,0.4-3.6,0.6c-1.5,0.3-2.9,0.7-4.4,1.1c-2.2,0.5-4.5,0.8-6.7,1.3c-2.2,0.5-4.3,1.1-6.5,1.6
			C61.4,64.1,59.2,64.5,57,65L57,65z"/>
		<path class="st1" d="M148.4,65.1c0.6,20.2,1.2,40.3,1.7,60.3c-41,4-81.7,8-122.7,12c-2.3-22.3-4.6-44.7-6.9-67.3
			C63.2,68.5,105.8,66.8,148.4,65.1L148.4,65.1z M73.6,103.5c4.8-0.3,9.5-0.5,14.1-0.9c5.8-0.4,11.6-0.9,17.4-1.4
			c5.2-0.4,10.3-0.8,15.5-1.2c0.4,0,0.9-0.2,1.2-0.5c0.9-0.6,0.8-1.8-0.1-2.2c-0.5-0.2-1-0.3-1.6-0.2c-3.9,0.3-7.7,0.6-11.6,0.9
			c-5.2,0.4-10.3,0.9-15.5,1.4c-4.9,0.4-9.8,0.9-14.7,1.3c-1.8,0.2-3.6,0.3-5.4,0.6c-0.5,0.1-0.9,0.7-1.4,1c0.4,0.4,0.9,0.7,1.4,1.1
			C73.1,103.5,73.4,103.5,73.6,103.5L73.6,103.5z M77,112.7c2.5-0.1,5.3-0.2,8.1-0.4c5.2-0.3,10.4-0.7,15.7-1.1
			c6-0.4,11.9-0.6,17.9-1c0.6,0,1.2-0.1,1.7-0.5c0.4-0.3,0.8-1,0.7-1.4c-0.1-0.4-0.6-0.9-1.1-1.2c-0.4-0.2-1-0.1-1.4,0
			c-5.9,0.5-11.9,1-17.8,1.4c-6.7,0.5-13.4,0.8-20,1.3c-2.2,0.2-4.4,0.5-6.5,0.9c-0.3,0.1-0.9,0.7-0.8,1c0,0.4,0.6,0.9,1,0.9
			C75.1,112.8,75.9,112.7,77,112.7L77,112.7z M78.3,96c2.4-0.1,4.9-0.3,7.3-0.4c5.2-0.3,10.3-0.7,15.5-1.1c4.2-0.3,8.4-0.5,12.6-0.8
			c1.1-0.1,1.9-0.4,1.8-1.6c-0.1-1.2-1-1.6-2.1-1.5c-4.1,0.3-8.2,0.7-12.3,1c-6.3,0.5-12.7,0.9-19,1.4c-2,0.2-4.1,0.3-6.1,0.6
			c-0.5,0.1-0.8,0.8-1.2,1.2c0.5,0.4,0.9,0.9,1.4,1.1C76.8,96.1,77.5,96,78.3,96L78.3,96z M141.7,69.2c-0.4-0.1-0.7-0.2-1.1-0.2
			c-4.3,0.4-8.5,0.9-12.8,1.4c-1.2,0.1-2,0.7-2.1,2c0,0.7-0.1,1.5-0.1,2.2c0.1,2,0.3,4.1,0.5,6.1c0.2,2.2,0.4,4.4,0.6,6.8
			c5.4-0.3,10.7-0.5,16.1-0.8C142.6,80.9,142.2,75.1,141.7,69.2L141.7,69.2z M46.1,88.8c0-0.3-0.1-0.5-0.1-0.8
			c-1.8-0.1-3.7-0.3-5.5-0.2c-3.4,0.2-6.7,0.5-10.1,0.8c-0.9,0.1-1.7,0.2-1.8,1.3c-0.1,1.2,0.9,1.4,1.8,1.5c0.4,0,0.8,0,1.2-0.1
			c2.7-0.3,5.3-0.6,8-1.1C41.7,90,43.9,89.3,46.1,88.8L46.1,88.8z M47.1,74c0-0.1,0-0.2-0.1-0.3c-0.1,0-0.3-0.1-0.4-0.1
			c-3.4,0.2-6.8,0.4-10.2,0.6c-3.2,0.2-6.4,0.4-9.6,0.5c-0.8,0-1.5,0.1-1.4,1.2c0,1.1,0.9,1.1,1.6,1.1c6-0.3,11.9-0.7,17.8-2.3
			C45.5,74.4,46.3,74.2,47.1,74z M47.3,80.1c0-0.2-0.1-0.3-0.1-0.5c-3.6,0.3-7.3,0.6-10.9,0.8c-2.2,0.2-4.5,0.3-6.7,0.7
			c-0.8,0.1-2.3,0.1-2.1,1.5c0.2,1.3,1.6,1.1,2.5,1c3.7-0.5,7.4-1.1,11.1-1.8C43.2,81.4,45.3,80.7,47.3,80.1L47.3,80.1z"/>
		<path class="st5" d="M57,65c2.2-0.4,4.4-0.9,6.5-1.4c2.2-0.5,4.3-1.2,6.5-1.6c2.2-0.5,4.5-0.8,6.7-1.3c1.5-0.3,2.9-0.7,4.4-1.1
			c1.2-0.3,2.4-0.5,3.6-0.6c1.7-0.2,3.4-0.4,5-0.7c1.7-0.3,3.3-0.8,5-1.1c1.4-0.3,2.8-0.4,4.2-0.7c1.8-0.3,3.7-0.7,5.5-1
			c1.6-0.3,3.1-0.5,4.7-0.7c1.8-0.3,3.5-0.7,5.3-1c1.5-0.3,2.9-0.5,4.4-0.7c3.1-0.6,6.2-1.2,9.4-1.7c1.1-0.2,2.2-0.3,3.2,0
			c0.5,0.1,1,1,1.2,1.6c0.9,2.5,1.7,4.9,2.5,7.4c0,0,0,0.1,0.1,0.1c0.3,0.6,0.6,1.1,0.9,1.7c-0.7,0.1-1.4,0.2-2.1,0.3
			c-6.9,0.2-13.8,0.4-20.6,0.6c-4.2,0.1-8.4,0-12.5,0.7c-5.3,0.8-10.7-0.1-15.9,0.6c-5.3,0.7-10.6,0.2-15.9,0.5
			c-3.5,0.2-7,0.4-10.5,0.6c-0.5,0-0.9,0-1.4-0.1C57.1,65.2,57,65.1,57,65L57,65z"/>
		<path class="st2" d="M73.6,103.5c-0.2,0-0.5,0-0.6-0.1c-0.5-0.3-0.9-0.7-1.4-1.1c0.5-0.4,0.9-1,1.4-1c1.8-0.3,3.6-0.5,5.4-0.6
			c4.9-0.5,9.8-0.9,14.7-1.3c5.2-0.5,10.3-0.9,15.5-1.4c3.8-0.3,7.7-0.6,11.6-0.9c0.5,0,1.1,0,1.6,0.2c1,0.5,1,1.6,0.1,2.2
			c-0.4,0.2-0.8,0.4-1.2,0.5c-5.2,0.4-10.3,0.8-15.5,1.2c-5.8,0.5-11.6,1-17.4,1.4C83.1,103,78.4,103.2,73.6,103.5L73.6,103.5z"/>
		<path class="st2" d="M77,112.7c-1.1,0-1.9,0.1-2.7,0c-0.4-0.1-1-0.6-1-0.9c0-0.3,0.5-1,0.8-1c2.2-0.4,4.3-0.7,6.5-0.9
			c6.7-0.5,13.4-0.8,20-1.3c5.9-0.4,11.9-0.9,17.8-1.4c0.5,0,1.1-0.2,1.4,0c0.5,0.2,1,0.7,1.1,1.2c0.1,0.4-0.3,1.1-0.7,1.4
			c-0.4,0.3-1.1,0.4-1.7,0.5c-6,0.3-11.9,0.6-17.9,1c-5.2,0.3-10.4,0.7-15.7,1.1C82.3,112.5,79.5,112.6,77,112.7L77,112.7z"/>
		<path class="st2" d="M78.3,96c-0.8,0-1.5,0.1-2,0c-0.5-0.2-1-0.7-1.4-1.1c0.4-0.4,0.8-1.1,1.2-1.2c2-0.3,4.1-0.5,6.1-0.6
			c6.3-0.5,12.7-0.9,19-1.4c4.1-0.3,8.2-0.6,12.3-1c1.1-0.1,2,0.3,2.1,1.5c0.1,1.2-0.8,1.5-1.8,1.6c-4.2,0.2-8.4,0.5-12.6,0.8
			c-5.2,0.3-10.3,0.7-15.5,1.1C83.1,95.7,80.6,95.9,78.3,96L78.3,96z"/>
		<path class="st2" d="M141.7,69.2c0.4,5.9,0.9,11.7,1.3,17.6c-5.4,0.3-10.7,0.5-16.1,0.8c-0.2-2.4-0.4-4.6-0.6-6.8
			c-0.2-2-0.4-4.1-0.5-6.1c-0.1-0.7,0-1.5,0.1-2.2c0-1.3,0.9-1.9,2.1-2c4.3-0.5,8.5-0.9,12.8-1.4C141,69,141.3,69.1,141.7,69.2
			L141.7,69.2z M141.7,85.4c-0.4-4.6-0.7-9.3-1.1-14.3c-4.4,0.4-8.7,0.7-13.3,1.1c0.4,4.2,0.7,8.3,1.1,12.3c0,0.3,0.6,0.8,1,0.8
			C133.3,85.4,137.3,85.4,141.7,85.4L141.7,85.4z"/>
		<path class="st2" d="M46.1,88.8c-2.2,0.5-4.3,1.2-6.5,1.6c-2.6,0.5-5.3,0.7-8,1.1c-0.4,0-0.8,0.1-1.2,0.1
			c-0.9-0.1-1.8-0.3-1.8-1.5c0.1-1.1,0.9-1.2,1.8-1.3c3.4-0.3,6.7-0.6,10.1-0.8c1.8-0.1,3.6,0.1,5.5,0.2C46,88.3,46,88.5,46.1,88.8
			L46.1,88.8z"/>
		<path class="st2" d="M47.1,74c-0.8,0.2-1.6,0.5-2.4,0.7c-5.8,1.6-11.8,2-17.8,2.3c-0.7,0-1.6,0-1.6-1.1c0-1.1,0.7-1.2,1.4-1.2
			c3.2-0.2,6.4-0.3,9.6-0.5c3.4-0.2,6.8-0.4,10.2-0.6c0.1,0,0.2,0.1,0.4,0.1C47.1,73.8,47.1,73.9,47.1,74z"/>
		<path class="st2" d="M47.3,80.1c-2.1,0.6-4.1,1.3-6.2,1.7c-3.7,0.7-7.4,1.2-11.1,1.8c-1,0.1-2.3,0.4-2.5-1
			c-0.2-1.4,1.3-1.3,2.1-1.5c2.2-0.4,4.5-0.5,6.7-0.7c3.6-0.3,7.3-0.6,10.9-0.8C47.3,79.8,47.3,80,47.3,80.1L47.3,80.1z"/>
		<path class="st4" d="M141.7,85.4c-4.4,0-8.4,0-12.4,0c-0.3,0-0.9-0.5-1-0.8c-0.4-4.1-0.7-8.1-1.1-12.3c4.6-0.4,8.9-0.8,13.3-1.1
			C141,76.1,141.3,80.8,141.7,85.4L141.7,85.4z"/>
	</g>
</g>
</svg>
