<?xml version="1.0" encoding="utf-8"?>
<!-- Generator: Adobe Illustrator 27.0.1, SVG Export Plug-In . SVG Version: 6.00 Build 0)  -->
<svg version="1.1" id="Layer_1" xmlns="http://www.w3.org/2000/svg" xmlns:xlink="http://www.w3.org/1999/xlink" x="0px" y="0px"
	 viewBox="0 0 225 225" style="enable-background:new 0 0 225 225;" xml:space="preserve">
<style type="text/css">
	.st0{fill:#828A43;}
	.st1{fill:#FFFFFF;}
	.st2{fill:#A5A49F;}
	.st3{fill:#524C4C;}
	.st4{fill:#B3BD80;}
	.st5{fill:#677432;}
	.st6{fill:#7F7474;}
	.st7{enable-background:new    ;}
</style>
<g>
	<polygon class="st0" points="203.6,165.1 112.5,217.7 21.4,165.1 21.4,59.9 112.5,7.3 203.6,59.9 	"/>
	<g class="st7">
		<path class="st1" d="M62.2,90.2v4.4h-2.5V82.1h4.2c1.2,0,2.2,0.4,2.9,1.1c0.7,0.8,1.1,1.7,1.1,3s-0.4,2.2-1.1,2.9
			c-0.7,0.7-1.7,1.1-3,1.1H62.2z M62.2,88.1h1.7c0.5,0,0.8-0.2,1.1-0.5c0.3-0.3,0.4-0.8,0.4-1.4c0-0.6-0.1-1.1-0.4-1.5
			s-0.6-0.6-1.1-0.6h-1.7V88.1z"/>
		<path class="st1" d="M74,93.7c-0.5,0.7-1.2,1-2,1c-0.8,0-1.5-0.3-1.9-0.9c-0.4-0.6-0.7-1.4-0.7-2.5v-6h2.4v6
			c0,0.9,0.3,1.3,0.9,1.3c0.6,0,0.9-0.2,1.2-0.7v-6.7h2.4v9.2h-2.3L74,93.7z"/>
		<path class="st1" d="M85.2,90.2c0,1.5-0.2,2.6-0.7,3.4c-0.5,0.7-1.2,1.1-2.2,1.1c-0.8,0-1.4-0.4-1.9-1.1l-0.1,0.9H78V81.5h2.4v4.6
			c0.5-0.6,1.1-0.9,1.8-0.9c1,0,1.8,0.4,2.2,1.1c0.5,0.7,0.7,1.8,0.7,3.3V90.2z M82.8,89.6c0-1-0.1-1.6-0.3-2
			c-0.2-0.3-0.5-0.5-1-0.5c-0.5,0-0.9,0.2-1.1,0.7v4.2c0.2,0.4,0.6,0.6,1.1,0.6c0.5,0,0.8-0.1,1-0.5c0.2-0.3,0.3-0.9,0.3-1.8V89.6z"
			/>
		<path class="st1" d="M89.2,94.5h-2.4V81.5h2.4V94.5z"/>
		<path class="st1" d="M91.1,82.9c0-0.4,0.1-0.7,0.4-0.9c0.2-0.2,0.6-0.4,1-0.4c0.4,0,0.7,0.1,1,0.4c0.2,0.2,0.4,0.5,0.4,0.9
			c0,0.4-0.1,0.7-0.4,0.9c-0.2,0.2-0.6,0.4-1,0.4c-0.4,0-0.7-0.1-1-0.4C91.2,83.6,91.1,83.3,91.1,82.9z M93.6,94.5h-2.4v-9.2h2.4
			V94.5z"/>
		<path class="st1" d="M98.8,92.7c0.7,0,1.1-0.5,1.1-1.4h2.3c0,1-0.3,1.8-0.9,2.4s-1.4,0.9-2.4,0.9c-1.2,0-2.1-0.4-2.7-1.1
			c-0.6-0.7-0.9-1.8-1-3.3v-0.7c0-1.4,0.3-2.6,0.9-3.3c0.6-0.8,1.5-1.1,2.7-1.1c1,0,1.8,0.3,2.4,0.9c0.6,0.6,0.9,1.5,0.9,2.7h-2.3
			c0-0.5-0.1-0.9-0.3-1.2c-0.2-0.3-0.4-0.4-0.8-0.4c-0.4,0-0.7,0.1-0.9,0.4c-0.2,0.3-0.3,0.9-0.3,1.7v0.9c0,0.8,0,1.3,0.1,1.6
			c0.1,0.3,0.2,0.5,0.4,0.7C98.3,92.6,98.5,92.7,98.8,92.7z"/>
		<path class="st1" d="M111.6,92.1c0-0.2-0.1-0.4-0.3-0.6c-0.2-0.2-0.6-0.4-1.3-0.7c-1-0.4-1.7-0.8-2-1.3c-0.4-0.4-0.6-1-0.6-1.6
			c0-0.8,0.3-1.5,0.9-2c0.6-0.5,1.4-0.8,2.3-0.8c1,0,1.8,0.3,2.4,0.8c0.6,0.5,0.9,1.2,0.9,2.1h-2.4c0-0.7-0.3-1.1-0.9-1.1
			c-0.3,0-0.5,0.1-0.6,0.2c-0.2,0.2-0.2,0.4-0.2,0.7c0,0.2,0.1,0.4,0.3,0.5c0.2,0.2,0.6,0.4,1.3,0.7c1,0.4,1.7,0.8,2.1,1.2
			c0.4,0.4,0.6,1,0.6,1.7c0,0.8-0.3,1.5-0.9,2c-0.6,0.5-1.4,0.7-2.4,0.7c-0.7,0-1.3-0.1-1.8-0.4c-0.5-0.3-0.9-0.6-1.2-1.1
			c-0.3-0.5-0.4-1-0.4-1.5h2.3c0,0.4,0.1,0.7,0.3,0.9c0.2,0.2,0.5,0.3,0.9,0.3C111.3,93,111.6,92.7,111.6,92.1z"/>
		<path class="st1" d="M119.2,94.7c-1.2,0-2.2-0.4-2.9-1.1c-0.7-0.7-1-1.8-1-3.2v-0.7c0-1.5,0.3-2.6,1-3.4c0.6-0.8,1.5-1.2,2.7-1.2
			c1.2,0,2,0.4,2.6,1.1c0.6,0.7,0.9,1.8,0.9,3.3v1.2h-4.8c0,0.7,0.2,1.2,0.5,1.5c0.3,0.3,0.7,0.5,1.2,0.5c0.8,0,1.5-0.3,2-0.8
			l0.9,1.5c-0.3,0.4-0.7,0.7-1.3,1C120.4,94.6,119.8,94.7,119.2,94.7z M117.7,89.1h2.4v-0.2c0-0.6-0.1-1-0.3-1.3
			c-0.2-0.3-0.5-0.4-0.9-0.4c-0.4,0-0.7,0.2-0.9,0.5C117.8,87.9,117.7,88.4,117.7,89.1z"/>
	</g>
	<g class="st7">
		<path class="st1" d="M128.4,87.7l-0.8-0.1c-0.7,0-1.1,0.3-1.3,0.9v6.1h-2.4v-9.2h2.3l0.1,1c0.4-0.8,0.9-1.2,1.6-1.2
			c0.3,0,0.5,0,0.7,0.1L128.4,87.7z"/>
	</g>
	<g class="st7">
		<path class="st1" d="M132.8,91.1l1.2-5.8h2.5l-2.5,9.2h-2.3l-2.5-9.2h2.5L132.8,91.1z"/>
		<path class="st1" d="M137.6,82.9c0-0.4,0.1-0.7,0.4-0.9c0.2-0.2,0.6-0.4,1-0.4c0.4,0,0.7,0.1,1,0.4c0.2,0.2,0.4,0.5,0.4,0.9
			c0,0.4-0.1,0.7-0.4,0.9c-0.2,0.2-0.6,0.4-1,0.4s-0.7-0.1-1-0.4C137.7,83.6,137.6,83.3,137.6,82.9z M140.1,94.5h-2.4v-9.2h2.4V94.5
			z"/>
		<path class="st1" d="M145.3,92.7c0.7,0,1.1-0.5,1.1-1.4h2.3c0,1-0.3,1.8-0.9,2.4c-0.6,0.6-1.4,0.9-2.4,0.9c-1.2,0-2.1-0.4-2.7-1.1
			s-0.9-1.8-1-3.3v-0.7c0-1.4,0.3-2.6,0.9-3.3c0.6-0.8,1.5-1.1,2.7-1.1c1,0,1.8,0.3,2.4,0.9c0.6,0.6,0.9,1.5,0.9,2.7h-2.3
			c0-0.5-0.1-0.9-0.3-1.2c-0.2-0.3-0.4-0.4-0.8-0.4c-0.4,0-0.7,0.1-0.9,0.4c-0.2,0.3-0.3,0.9-0.3,1.7v0.9c0,0.8,0,1.3,0.1,1.6
			c0.1,0.3,0.2,0.5,0.4,0.7C144.8,92.6,145,92.7,145.3,92.7z"/>
		<path class="st1" d="M153.7,94.7c-1.2,0-2.2-0.4-2.9-1.1c-0.7-0.7-1-1.8-1-3.2v-0.7c0-1.5,0.3-2.6,1-3.4c0.6-0.8,1.5-1.2,2.7-1.2
			c1.2,0,2,0.4,2.6,1.1c0.6,0.7,0.9,1.8,0.9,3.3v1.2h-4.8c0,0.7,0.2,1.2,0.5,1.5c0.3,0.3,0.7,0.5,1.2,0.5c0.8,0,1.5-0.3,2-0.8
			l0.9,1.5c-0.3,0.4-0.7,0.7-1.3,1C155,94.6,154.4,94.7,153.7,94.7z M152.2,89.1h2.4v-0.2c0-0.6-0.1-1-0.3-1.3
			c-0.2-0.3-0.5-0.4-0.9-0.4c-0.4,0-0.7,0.2-0.9,0.5C152.4,87.9,152.3,88.4,152.2,89.1z"/>
		<path class="st1" d="M162.4,92.1c0-0.2-0.1-0.4-0.3-0.6c-0.2-0.2-0.6-0.4-1.3-0.7c-1-0.4-1.7-0.8-2.1-1.3c-0.4-0.4-0.6-1-0.6-1.6
			c0-0.8,0.3-1.5,0.9-2c0.6-0.5,1.4-0.8,2.3-0.8c1,0,1.8,0.3,2.4,0.8c0.6,0.5,0.9,1.2,0.9,2.1h-2.4c0-0.7-0.3-1.1-0.9-1.1
			c-0.3,0-0.5,0.1-0.6,0.2c-0.2,0.2-0.2,0.4-0.2,0.7c0,0.2,0.1,0.4,0.3,0.5c0.2,0.2,0.6,0.4,1.3,0.7c1,0.4,1.7,0.8,2.1,1.2
			c0.4,0.4,0.6,1,0.6,1.7c0,0.8-0.3,1.5-0.9,2c-0.6,0.5-1.4,0.7-2.4,0.7c-0.7,0-1.3-0.1-1.8-0.4c-0.5-0.3-0.9-0.6-1.2-1.1
			c-0.3-0.5-0.4-1-0.4-1.5h2.3c0,0.4,0.1,0.7,0.3,0.9c0.2,0.2,0.5,0.3,0.9,0.3C162.1,93,162.4,92.7,162.4,92.1z"/>
	</g>
	<g class="st7">
		<path class="st1" d="M94.1,120.3h3.2v0.9H93V113h1V120.3z"/>
		<path class="st1" d="M99.6,113.5c0,0.2,0,0.3-0.1,0.4c-0.1,0.1-0.2,0.2-0.4,0.2c-0.2,0-0.3-0.1-0.4-0.2c-0.1-0.1-0.1-0.3-0.1-0.4
			c0-0.2,0-0.3,0.1-0.4c0.1-0.1,0.2-0.2,0.4-0.2c0.2,0,0.3,0.1,0.4,0.2C99.5,113.1,99.6,113.3,99.6,113.5z M99.5,121.2h-1v-6.1h1
			V121.2z"/>
		<path class="st1" d="M105.5,118.5c0,1-0.2,1.7-0.5,2.2c-0.3,0.5-0.8,0.7-1.5,0.7c-0.7,0-1.1-0.3-1.5-0.8l-0.1,0.7h-0.9v-8.7h1v3.3
			c0.3-0.5,0.8-0.8,1.4-0.8c0.7,0,1.2,0.2,1.5,0.7c0.3,0.5,0.5,1.2,0.5,2.2V118.5z M104.5,117.9c0-0.7-0.1-1.2-0.3-1.6
			c-0.2-0.3-0.5-0.5-1-0.5c-0.5,0-0.9,0.3-1.2,0.8v2.9c0.2,0.6,0.6,0.8,1.2,0.8c0.5,0,0.8-0.2,1-0.5c0.2-0.3,0.3-0.8,0.3-1.5V117.9z
			"/>
	</g>
	<g class="st7">
		<path class="st1" d="M109.4,116c-0.1,0-0.3,0-0.5,0c-0.5,0-0.9,0.3-1.1,0.8v4.4h-1v-6.1h1l0,0.6c0.3-0.5,0.6-0.7,1.1-0.7
			c0.2,0,0.3,0,0.4,0.1L109.4,116z"/>
	</g>
	<g class="st7">
		<path class="st1" d="M113.3,121.2c-0.1-0.1-0.1-0.4-0.1-0.7c-0.4,0.5-0.8,0.8-1.4,0.8c-0.6,0-1-0.2-1.3-0.5
			c-0.3-0.3-0.5-0.8-0.5-1.3c0-0.6,0.2-1.1,0.6-1.5c0.4-0.4,1-0.6,1.7-0.6h0.7v-0.7c0-0.4-0.1-0.6-0.2-0.8c-0.2-0.2-0.4-0.2-0.7-0.2
			c-0.3,0-0.5,0.1-0.7,0.3c-0.2,0.2-0.3,0.4-0.3,0.7h-1c0-0.3,0.1-0.6,0.3-0.9c0.2-0.3,0.4-0.5,0.7-0.7c0.3-0.2,0.7-0.2,1.1-0.2
			c0.6,0,1.1,0.2,1.4,0.5c0.3,0.3,0.5,0.8,0.5,1.4v3.1c0,0.5,0.1,0.9,0.2,1.2v0.1H113.3z M112,120.4c0.2,0,0.5-0.1,0.7-0.2
			c0.2-0.1,0.4-0.3,0.5-0.5v-1.5h-0.6c-0.5,0-0.9,0.1-1.1,0.3s-0.4,0.5-0.4,0.9c0,0.3,0.1,0.6,0.2,0.8
			C111.4,120.4,111.6,120.4,112,120.4z"/>
		<path class="st1" d="M118.3,116c-0.1,0-0.3,0-0.5,0c-0.5,0-0.9,0.3-1.1,0.8v4.4h-1v-6.1h1l0,0.6c0.3-0.5,0.6-0.7,1.1-0.7
			c0.2,0,0.3,0,0.4,0.1L118.3,116z"/>
		<path class="st1" d="M120.4,113.5c0,0.2,0,0.3-0.1,0.4c-0.1,0.1-0.2,0.2-0.4,0.2c-0.2,0-0.3-0.1-0.4-0.2c-0.1-0.1-0.1-0.3-0.1-0.4
			c0-0.2,0-0.3,0.1-0.4c0.1-0.1,0.2-0.2,0.4-0.2c0.2,0,0.3,0.1,0.4,0.2C120.4,113.1,120.4,113.3,120.4,113.5z M120.3,121.2h-1v-6.1
			h1V121.2z"/>
		<path class="st1" d="M124.1,121.3c-0.8,0-1.4-0.2-1.8-0.7c-0.4-0.5-0.6-1.1-0.6-2v-0.7c0-0.9,0.2-1.6,0.6-2.2
			c0.4-0.5,1-0.8,1.7-0.8c0.7,0,1.3,0.2,1.6,0.7c0.4,0.5,0.5,1.2,0.5,2.1v0.7h-3.4v0.1c0,0.7,0.1,1.1,0.4,1.4
			c0.2,0.3,0.6,0.4,1.1,0.4c0.3,0,0.6-0.1,0.8-0.2c0.2-0.1,0.4-0.3,0.6-0.5l0.5,0.6C125.7,121,125,121.3,124.1,121.3z M124,115.8
			c-0.4,0-0.7,0.1-0.9,0.4c-0.2,0.3-0.3,0.7-0.3,1.3h2.4v-0.1c0-0.6-0.1-1-0.3-1.2C124.7,116,124.4,115.8,124,115.8z"/>
		<path class="st1" d="M130.4,119.7c0-0.2-0.1-0.4-0.2-0.6c-0.2-0.2-0.5-0.3-0.9-0.5c-0.5-0.2-0.9-0.4-1.1-0.6
			c-0.2-0.2-0.4-0.3-0.5-0.5c-0.1-0.2-0.2-0.4-0.2-0.7c0-0.5,0.2-0.9,0.5-1.2c0.4-0.3,0.8-0.5,1.4-0.5c0.6,0,1.1,0.2,1.4,0.5
			c0.4,0.3,0.5,0.8,0.5,1.3h-1c0-0.3-0.1-0.5-0.3-0.7c-0.2-0.2-0.4-0.3-0.7-0.3c-0.3,0-0.5,0.1-0.7,0.2c-0.2,0.2-0.3,0.4-0.3,0.6
			c0,0.2,0.1,0.4,0.2,0.5c0.1,0.1,0.4,0.3,0.9,0.5c0.7,0.3,1.3,0.6,1.5,0.9c0.3,0.3,0.4,0.6,0.4,1.1c0,0.5-0.2,1-0.6,1.3
			c-0.4,0.3-0.9,0.5-1.5,0.5c-0.6,0-1.2-0.2-1.6-0.6c-0.4-0.4-0.6-0.8-0.6-1.4h1c0,0.3,0.1,0.6,0.3,0.8c0.2,0.2,0.5,0.3,0.8,0.3
			c0.3,0,0.6-0.1,0.8-0.2C130.3,120.1,130.4,119.9,130.4,119.7z"/>
	</g>
	<g class="st7">
		<path class="st1" d="M65.2,132v3.2h-1v-8.3h2.6c0.8,0,1.4,0.2,1.8,0.7s0.7,1.1,0.7,1.8c0,0.8-0.2,1.4-0.6,1.8
			c-0.4,0.4-1,0.7-1.8,0.7H65.2z M65.2,131.1h1.6c0.5,0,0.8-0.1,1.1-0.4c0.2-0.3,0.4-0.7,0.4-1.2c0-0.5-0.1-0.9-0.4-1.2
			c-0.3-0.3-0.6-0.4-1-0.4h-1.6V131.1z"/>
	</g>
	<g class="st7">
		<path class="st1" d="M73.6,135.2c-0.1-0.1-0.1-0.4-0.1-0.7c-0.4,0.5-0.8,0.8-1.4,0.8c-0.6,0-1-0.2-1.3-0.5
			c-0.3-0.3-0.5-0.8-0.5-1.3c0-0.6,0.2-1.1,0.6-1.5c0.4-0.4,1-0.6,1.7-0.6h0.7v-0.7c0-0.4-0.1-0.6-0.2-0.8c-0.2-0.2-0.4-0.2-0.7-0.2
			c-0.3,0-0.5,0.1-0.7,0.3c-0.2,0.2-0.3,0.4-0.3,0.7h-1c0-0.3,0.1-0.6,0.3-0.9c0.2-0.3,0.4-0.5,0.7-0.7c0.3-0.2,0.7-0.2,1.1-0.2
			c0.6,0,1.1,0.2,1.4,0.5c0.3,0.3,0.5,0.8,0.5,1.4v3.1c0,0.5,0.1,0.9,0.2,1.2v0.1H73.6z M72.3,134.4c0.2,0,0.5-0.1,0.7-0.2
			c0.2-0.1,0.4-0.3,0.5-0.5v-1.5h-0.6c-0.5,0-0.9,0.1-1.1,0.3c-0.3,0.2-0.4,0.5-0.4,0.9c0,0.3,0.1,0.6,0.2,0.8
			C71.7,134.3,71.9,134.4,72.3,134.4z"/>
		<path class="st1" d="M78.5,130c-0.1,0-0.3,0-0.5,0c-0.5,0-0.9,0.3-1.1,0.8v4.4h-1V129h1l0,0.6c0.3-0.5,0.6-0.7,1.1-0.7
			c0.2,0,0.3,0,0.4,0.1L78.5,130z"/>
		<path class="st1" d="M81.1,132.4l-0.5,0.6v2.2h-1v-8.7h1v5.2l1.9-2.6h1.2l-2,2.6l2.2,3.6h-1.2L81.1,132.4z"/>
		<path class="st1" d="M87.8,133.6c0-0.2-0.1-0.4-0.2-0.6c-0.2-0.2-0.5-0.3-0.9-0.5c-0.5-0.2-0.9-0.4-1.1-0.6
			c-0.2-0.2-0.4-0.3-0.5-0.5c-0.1-0.2-0.2-0.4-0.2-0.7c0-0.5,0.2-0.9,0.5-1.2c0.4-0.3,0.8-0.5,1.4-0.5c0.6,0,1.1,0.2,1.4,0.5
			c0.4,0.3,0.5,0.8,0.5,1.3h-1c0-0.3-0.1-0.5-0.3-0.7c-0.2-0.2-0.4-0.3-0.7-0.3c-0.3,0-0.5,0.1-0.7,0.2c-0.2,0.2-0.3,0.4-0.3,0.6
			c0,0.2,0.1,0.4,0.2,0.5c0.1,0.1,0.4,0.3,0.9,0.5c0.7,0.3,1.3,0.6,1.5,0.9c0.3,0.3,0.4,0.6,0.4,1.1c0,0.5-0.2,1-0.6,1.3
			c-0.4,0.3-0.9,0.5-1.5,0.5c-0.6,0-1.2-0.2-1.6-0.6c-0.4-0.4-0.6-0.8-0.6-1.4h1c0,0.3,0.1,0.6,0.3,0.8c0.2,0.2,0.5,0.3,0.8,0.3
			c0.3,0,0.6-0.1,0.8-0.2C87.7,134.1,87.8,133.9,87.8,133.6z"/>
		<path class="st1" d="M95.9,135.2c-0.1-0.1-0.1-0.4-0.1-0.7c-0.4,0.5-0.8,0.8-1.4,0.8c-0.6,0-1-0.2-1.3-0.5
			c-0.3-0.3-0.5-0.8-0.5-1.3c0-0.6,0.2-1.1,0.6-1.5c0.4-0.4,1-0.6,1.7-0.6h0.7v-0.7c0-0.4-0.1-0.6-0.2-0.8c-0.2-0.2-0.4-0.2-0.7-0.2
			c-0.3,0-0.5,0.1-0.7,0.3c-0.2,0.2-0.3,0.4-0.3,0.7h-1c0-0.3,0.1-0.6,0.3-0.9c0.2-0.3,0.4-0.5,0.7-0.7c0.3-0.2,0.7-0.2,1.1-0.2
			c0.6,0,1.1,0.2,1.4,0.5c0.3,0.3,0.5,0.8,0.5,1.4v3.1c0,0.5,0.1,0.9,0.2,1.2v0.1H95.9z M94.6,134.4c0.2,0,0.5-0.1,0.7-0.2
			c0.2-0.1,0.4-0.3,0.5-0.5v-1.5h-0.6c-0.5,0-0.9,0.1-1.1,0.3c-0.3,0.2-0.4,0.5-0.4,0.9c0,0.3,0.1,0.6,0.2,0.8
			C94,134.3,94.2,134.4,94.6,134.4z"/>
		<path class="st1" d="M99.3,129l0,0.7c0.4-0.5,0.9-0.8,1.5-0.8c1.1,0,1.6,0.7,1.7,2.2v4.1h-1v-4c0-0.5-0.1-0.8-0.2-1
			c-0.2-0.2-0.4-0.3-0.7-0.3c-0.2,0-0.5,0.1-0.7,0.2c-0.2,0.2-0.4,0.4-0.5,0.7v4.5h-1V129H99.3z"/>
		<path class="st1" d="M103.7,131.8c0-0.9,0.2-1.7,0.5-2.2c0.4-0.5,0.9-0.7,1.5-0.7c0.6,0,1,0.2,1.4,0.7v-3.2h1v8.7h-0.9l-0.1-0.7
			c-0.3,0.5-0.8,0.8-1.4,0.8c-0.6,0-1.1-0.2-1.5-0.7c-0.4-0.5-0.5-1.2-0.6-2.1V131.8z M104.7,132.4c0,0.7,0.1,1.2,0.3,1.5
			c0.2,0.3,0.5,0.5,1,0.5c0.5,0,0.9-0.3,1.1-0.8v-3.1c-0.3-0.5-0.6-0.7-1.1-0.7c-0.5,0-0.8,0.2-1,0.5c-0.2,0.3-0.3,0.8-0.3,1.5
			V132.4z"/>
		<path class="st1" d="M115,131.8h-1.5v3.3h-1v-8.3h2.3c0.8,0,1.4,0.2,1.8,0.6c0.4,0.4,0.6,1,0.6,1.9c0,0.5-0.1,1-0.3,1.3
			c-0.2,0.4-0.5,0.7-1,0.9l1.6,3.5v0.1h-1.1L115,131.8z M113.6,131h1.3c0.4,0,0.8-0.1,1-0.4c0.3-0.3,0.4-0.7,0.4-1.1
			c0-1.1-0.5-1.6-1.4-1.6h-1.2V131z"/>
		<path class="st1" d="M120.8,135.3c-0.8,0-1.4-0.2-1.8-0.7c-0.4-0.5-0.6-1.1-0.6-2v-0.7c0-0.9,0.2-1.6,0.6-2.2
			c0.4-0.5,1-0.8,1.7-0.8c0.7,0,1.3,0.2,1.6,0.7c0.4,0.5,0.5,1.2,0.5,2.1v0.7h-3.4v0.1c0,0.7,0.1,1.1,0.4,1.4
			c0.2,0.3,0.6,0.4,1.1,0.4c0.3,0,0.6-0.1,0.8-0.2c0.2-0.1,0.4-0.3,0.6-0.5l0.5,0.6C122.3,135,121.7,135.3,120.8,135.3z
			 M120.6,129.8c-0.4,0-0.7,0.1-0.9,0.4c-0.2,0.3-0.3,0.7-0.3,1.3h2.4v-0.1c0-0.6-0.1-1-0.3-1.2C121.3,129.9,121,129.8,120.6,129.8z
			"/>
		<path class="st1" d="M126.1,134.5c0.3,0,0.6-0.1,0.8-0.3c0.2-0.2,0.3-0.5,0.3-0.9h0.9c0,0.6-0.2,1.1-0.6,1.5
			c-0.4,0.4-0.9,0.6-1.5,0.6c-0.8,0-1.3-0.2-1.7-0.7s-0.6-1.2-0.6-2.1v-0.7c0-0.9,0.2-1.6,0.6-2.1c0.4-0.5,1-0.7,1.7-0.7
			c0.6,0,1.1,0.2,1.5,0.6c0.4,0.4,0.6,0.9,0.6,1.6h-0.9c0-0.5-0.1-0.8-0.3-1s-0.5-0.3-0.8-0.3c-0.4,0-0.8,0.1-1,0.4
			c-0.2,0.3-0.3,0.8-0.3,1.4v0.8c0,0.7,0.1,1.2,0.3,1.5C125.3,134.3,125.7,134.5,126.1,134.5z"/>
		<path class="st1" d="M131.9,130c-0.1,0-0.3,0-0.5,0c-0.5,0-0.9,0.3-1.1,0.8v4.4h-1V129h1l0,0.6c0.3-0.5,0.6-0.7,1.1-0.7
			c0.2,0,0.3,0,0.4,0.1L131.9,130z"/>
		<path class="st1" d="M135.1,135.3c-0.8,0-1.4-0.2-1.8-0.7c-0.4-0.5-0.6-1.1-0.6-2v-0.7c0-0.9,0.2-1.6,0.6-2.2
			c0.4-0.5,1-0.8,1.7-0.8c0.7,0,1.3,0.2,1.6,0.7c0.4,0.5,0.5,1.2,0.5,2.1v0.7h-3.4v0.1c0,0.7,0.1,1.1,0.4,1.4
			c0.2,0.3,0.6,0.4,1.1,0.4c0.3,0,0.6-0.1,0.8-0.2c0.2-0.1,0.4-0.3,0.6-0.5l0.5,0.6C136.7,135,136,135.3,135.1,135.3z M135,129.8
			c-0.4,0-0.7,0.1-0.9,0.4c-0.2,0.3-0.3,0.7-0.3,1.3h2.4v-0.1c0-0.6-0.1-1-0.3-1.2C135.7,129.9,135.4,129.8,135,129.8z"/>
		<path class="st1" d="M141.5,135.2c-0.1-0.1-0.1-0.4-0.1-0.7c-0.4,0.5-0.8,0.8-1.4,0.8c-0.6,0-1-0.2-1.3-0.5
			c-0.3-0.3-0.5-0.8-0.5-1.3c0-0.6,0.2-1.1,0.6-1.5c0.4-0.4,1-0.6,1.7-0.6h0.7v-0.7c0-0.4-0.1-0.6-0.2-0.8c-0.2-0.2-0.4-0.2-0.7-0.2
			c-0.3,0-0.5,0.1-0.7,0.3c-0.2,0.2-0.3,0.4-0.3,0.7h-1c0-0.3,0.1-0.6,0.3-0.9c0.2-0.3,0.4-0.5,0.7-0.7c0.3-0.2,0.7-0.2,1.1-0.2
			c0.6,0,1.1,0.2,1.4,0.5c0.3,0.3,0.5,0.8,0.5,1.4v3.1c0,0.5,0.1,0.9,0.2,1.2v0.1H141.5z M140.2,134.4c0.2,0,0.5-0.1,0.7-0.2
			c0.2-0.1,0.4-0.3,0.5-0.5v-1.5h-0.6c-0.5,0-0.9,0.1-1.1,0.3c-0.3,0.2-0.4,0.5-0.4,0.9c0,0.3,0.1,0.6,0.2,0.8
			C139.6,134.3,139.9,134.4,140.2,134.4z"/>
		<path class="st1" d="M145.3,127.6v1.5h0.9v0.8h-0.9v3.8c0,0.2,0,0.4,0.1,0.6c0.1,0.1,0.2,0.2,0.4,0.2c0.1,0,0.3,0,0.4-0.1l0,0.8
			c-0.2,0.1-0.5,0.1-0.7,0.1c-0.4,0-0.7-0.1-0.9-0.4c-0.2-0.3-0.3-0.7-0.3-1.2v-3.8h-0.9V129h0.9v-1.5H145.3z"/>
		<path class="st1" d="M148.5,127.4c0,0.2,0,0.3-0.1,0.4c-0.1,0.1-0.2,0.2-0.4,0.2c-0.2,0-0.3-0.1-0.4-0.2c-0.1-0.1-0.1-0.3-0.1-0.4
			c0-0.2,0-0.3,0.1-0.4c0.1-0.1,0.2-0.2,0.4-0.2c0.2,0,0.3,0.1,0.4,0.2C148.5,127.1,148.5,127.3,148.5,127.4z M148.5,135.2h-1V129h1
			V135.2z"/>
		<path class="st1" d="M149.8,131.8c0-0.9,0.2-1.6,0.7-2.1c0.4-0.5,1-0.8,1.7-0.8c0.7,0,1.3,0.3,1.7,0.8c0.4,0.5,0.7,1.2,0.7,2.1
			v0.6c0,0.9-0.2,1.6-0.6,2.1c-0.4,0.5-1,0.8-1.7,0.8c-0.7,0-1.3-0.3-1.7-0.8c-0.4-0.5-0.7-1.2-0.7-2V131.8z M150.8,132.4
			c0,0.6,0.1,1.1,0.4,1.5c0.2,0.4,0.6,0.5,1,0.5c0.9,0,1.3-0.6,1.4-1.9v-0.7c0-0.6-0.1-1.1-0.4-1.5c-0.3-0.4-0.6-0.5-1-0.5
			c-0.4,0-0.7,0.2-1,0.5c-0.2,0.4-0.4,0.9-0.4,1.5V132.4z"/>
		<path class="st1" d="M156.8,129l0,0.7c0.4-0.5,0.9-0.8,1.5-0.8c1.1,0,1.6,0.7,1.7,2.2v4.1h-1v-4c0-0.5-0.1-0.8-0.2-1
			c-0.2-0.2-0.4-0.3-0.7-0.3c-0.2,0-0.5,0.1-0.7,0.2c-0.2,0.2-0.4,0.4-0.5,0.7v4.5h-1V129H156.8z"/>
	</g>
</g>
</svg>
