<?xml version="1.0" encoding="utf-8"?>
<!-- Generator: Adobe Illustrator 27.0.1, SVG Export Plug-In . SVG Version: 6.00 Build 0)  -->
<svg version="1.1" id="Layer_1" xmlns="http://www.w3.org/2000/svg" xmlns:xlink="http://www.w3.org/1999/xlink" x="0px" y="0px"
	 viewBox="0 0 175 190" style="enable-background:new 0 0 175 190;" xml:space="preserve">
<style type="text/css">
	.st0{fill:#A5A49F;}
	.st1{fill:#FFFFFF;}
	.st2{fill:#524C4C;}
	.st3{fill:#828A43;}
	.st4{fill:#B3BD80;}
	.st5{fill:#677432;}
	.st6{fill:#7F7474;}
	.st7{enable-background:new    ;}
</style>
<g>
	<polygon class="st3" points="162.5,138.3 87.5,181.6 12.5,138.3 12.5,51.7 87.5,8.4 162.5,51.7 	"/>
	<g class="st7">
		<path class="st1" d="M46.1,76.6v3.6H44V70h3.5c1,0,1.8,0.3,2.4,0.9c0.6,0.6,0.9,1.4,0.9,2.4c0,1-0.3,1.8-0.9,2.4
			c-0.6,0.6-1.4,0.9-2.5,0.9H46.1z M46.1,74.9h1.4c0.4,0,0.7-0.1,0.9-0.4c0.2-0.3,0.3-0.6,0.3-1.1c0-0.5-0.1-0.9-0.3-1.2
			c-0.2-0.3-0.5-0.5-0.9-0.5h-1.4V74.9z"/>
		<path class="st1" d="M55.8,79.5c-0.4,0.6-1,0.8-1.7,0.8c-0.7,0-1.2-0.2-1.6-0.7c-0.4-0.5-0.5-1.2-0.5-2.1v-4.9h2v5
			c0,0.7,0.3,1.1,0.7,1.1c0.5,0,0.8-0.2,1-0.6v-5.5h2v7.6h-1.9L55.8,79.5z"/>
		<path class="st1" d="M65.1,76.7c0,1.2-0.2,2.2-0.6,2.8c-0.4,0.6-1,0.9-1.9,0.9c-0.7,0-1.2-0.3-1.6-0.9L61,80.2h-1.8V69.5h2v3.8
			c0.4-0.5,0.9-0.8,1.5-0.8c0.8,0,1.5,0.3,1.9,0.9c0.4,0.6,0.6,1.5,0.6,2.7V76.7z M63.1,76.2c0-0.8-0.1-1.3-0.2-1.6
			c-0.2-0.3-0.4-0.4-0.8-0.4c-0.4,0-0.7,0.2-0.9,0.6v3.5c0.2,0.4,0.5,0.5,0.9,0.5c0.4,0,0.6-0.1,0.8-0.4c0.1-0.2,0.2-0.7,0.2-1.4
			V76.2z"/>
		<path class="st1" d="M68.3,80.2h-2V69.5h2V80.2z"/>
		<path class="st1" d="M69.9,70.7c0-0.3,0.1-0.6,0.3-0.8c0.2-0.2,0.5-0.3,0.8-0.3s0.6,0.1,0.8,0.3c0.2,0.2,0.3,0.4,0.3,0.8
			c0,0.3-0.1,0.6-0.3,0.8c-0.2,0.2-0.5,0.3-0.8,0.3c-0.3,0-0.6-0.1-0.8-0.3C70,71.2,69.9,71,69.9,70.7z M72,80.2h-2v-7.6h2V80.2z"/>
		<path class="st1" d="M76.2,78.7c0.6,0,0.9-0.4,0.9-1.1H79c0,0.8-0.3,1.5-0.8,2c-0.5,0.5-1.1,0.8-1.9,0.8c-1,0-1.7-0.3-2.2-0.9
			c-0.5-0.6-0.8-1.5-0.8-2.7v-0.6c0-1.2,0.3-2.1,0.8-2.7c0.5-0.6,1.3-0.9,2.2-0.9c0.8,0,1.5,0.3,2,0.8c0.5,0.5,0.7,1.3,0.7,2.2h-1.9
			c0-0.4-0.1-0.8-0.2-1c-0.1-0.2-0.4-0.3-0.7-0.3c-0.3,0-0.6,0.1-0.7,0.4s-0.2,0.7-0.2,1.4v0.8c0,0.6,0,1,0.1,1.3
			c0.1,0.2,0.2,0.4,0.3,0.5C75.8,78.7,76,78.7,76.2,78.7z"/>
		<path class="st1" d="M86.8,78.2c0-0.2-0.1-0.3-0.2-0.5c-0.2-0.1-0.5-0.3-1.1-0.6c-0.8-0.3-1.4-0.7-1.7-1c-0.3-0.4-0.5-0.8-0.5-1.3
			c0-0.7,0.2-1.2,0.7-1.6c0.5-0.4,1.1-0.6,1.9-0.6c0.8,0,1.5,0.2,2,0.6s0.8,1,0.8,1.7h-2c0-0.6-0.3-0.9-0.8-0.9
			c-0.2,0-0.4,0.1-0.5,0.2c-0.1,0.1-0.2,0.3-0.2,0.5c0,0.2,0.1,0.3,0.2,0.4c0.1,0.1,0.5,0.3,1.1,0.6c0.8,0.3,1.4,0.6,1.7,1
			c0.3,0.4,0.5,0.8,0.5,1.4c0,0.7-0.3,1.2-0.8,1.6c-0.5,0.4-1.2,0.6-2,0.6c-0.6,0-1-0.1-1.5-0.3c-0.4-0.2-0.8-0.5-1-0.9
			c-0.2-0.4-0.4-0.8-0.4-1.3H85c0,0.3,0.1,0.6,0.2,0.8s0.4,0.3,0.7,0.3C86.5,78.9,86.8,78.7,86.8,78.2z"/>
		<path class="st1" d="M93,80.4c-1,0-1.8-0.3-2.4-0.9c-0.6-0.6-0.9-1.5-0.9-2.6v-0.6c0-1.2,0.3-2.1,0.8-2.8c0.5-0.7,1.3-1,2.3-1
			c1,0,1.7,0.3,2.2,0.9c0.5,0.6,0.7,1.5,0.7,2.7v1h-3.9c0,0.6,0.2,1,0.4,1.2c0.2,0.3,0.6,0.4,1,0.4c0.7,0,1.2-0.2,1.7-0.7l0.8,1.2
			c-0.2,0.3-0.6,0.6-1.1,0.8C94,80.3,93.5,80.4,93,80.4z M91.7,75.7h2v-0.2c0-0.5-0.1-0.8-0.2-1c-0.1-0.2-0.4-0.4-0.7-0.4
			s-0.6,0.1-0.8,0.4C91.9,74.8,91.8,75.2,91.7,75.7z"/>
	</g>
	<g class="st7">
		<path class="st1" d="M100.6,74.5l-0.7-0.1c-0.5,0-0.9,0.2-1.1,0.7v5h-2v-7.6h1.9l0.1,0.8c0.3-0.6,0.7-1,1.3-1c0.2,0,0.4,0,0.5,0.1
			L100.6,74.5z"/>
	</g>
	<g class="st7">
		<path class="st1" d="M104.2,77.4l1-4.8h2.1l-2.1,7.6h-1.9l-2.1-7.6h2.1L104.2,77.4z"/>
		<path class="st1" d="M108.1,70.7c0-0.3,0.1-0.6,0.3-0.8c0.2-0.2,0.5-0.3,0.8-0.3c0.3,0,0.6,0.1,0.8,0.3c0.2,0.2,0.3,0.4,0.3,0.8
			c0,0.3-0.1,0.6-0.3,0.8c-0.2,0.2-0.5,0.3-0.8,0.3c-0.3,0-0.6-0.1-0.8-0.3C108.2,71.2,108.1,71,108.1,70.7z M110.2,80.2h-2v-7.6h2
			V80.2z"/>
		<path class="st1" d="M114.5,78.7c0.6,0,0.9-0.4,0.9-1.1h1.9c0,0.8-0.3,1.5-0.8,2c-0.5,0.5-1.1,0.8-1.9,0.8c-1,0-1.7-0.3-2.2-0.9
			c-0.5-0.6-0.8-1.5-0.8-2.7v-0.6c0-1.2,0.3-2.1,0.8-2.7c0.5-0.6,1.3-0.9,2.2-0.9c0.8,0,1.5,0.3,2,0.8c0.5,0.5,0.7,1.3,0.7,2.2h-1.9
			c0-0.4-0.1-0.8-0.2-1c-0.1-0.2-0.4-0.3-0.7-0.3c-0.3,0-0.6,0.1-0.7,0.4c-0.2,0.2-0.2,0.7-0.2,1.4v0.8c0,0.6,0,1,0.1,1.3
			c0.1,0.2,0.2,0.4,0.3,0.5C114.1,78.7,114.3,78.7,114.5,78.7z"/>
		<path class="st1" d="M121.4,80.4c-1,0-1.8-0.3-2.4-0.9c-0.6-0.6-0.9-1.5-0.9-2.6v-0.6c0-1.2,0.3-2.1,0.8-2.8c0.5-0.7,1.3-1,2.3-1
			c1,0,1.7,0.3,2.2,0.9c0.5,0.6,0.7,1.5,0.7,2.7v1h-3.9c0,0.6,0.2,1,0.4,1.2c0.2,0.3,0.6,0.4,1,0.4c0.7,0,1.2-0.2,1.7-0.7l0.8,1.2
			c-0.2,0.3-0.6,0.6-1.1,0.8C122.5,80.3,122,80.4,121.4,80.4z M120.2,75.7h2v-0.2c0-0.5-0.1-0.8-0.2-1c-0.1-0.2-0.4-0.4-0.7-0.4
			c-0.3,0-0.6,0.1-0.8,0.4C120.3,74.8,120.2,75.2,120.2,75.7z"/>
		<path class="st1" d="M128.6,78.2c0-0.2-0.1-0.3-0.2-0.5c-0.2-0.1-0.5-0.3-1.1-0.6c-0.8-0.3-1.4-0.7-1.7-1
			c-0.3-0.4-0.5-0.8-0.5-1.3c0-0.7,0.2-1.2,0.7-1.6c0.5-0.4,1.1-0.6,1.9-0.6c0.8,0,1.5,0.2,2,0.6c0.5,0.4,0.8,1,0.8,1.7h-2
			c0-0.6-0.3-0.9-0.8-0.9c-0.2,0-0.4,0.1-0.5,0.2c-0.1,0.1-0.2,0.3-0.2,0.5c0,0.2,0.1,0.3,0.2,0.4c0.1,0.1,0.5,0.3,1.1,0.6
			c0.8,0.3,1.4,0.6,1.7,1c0.3,0.4,0.5,0.8,0.5,1.4c0,0.7-0.3,1.2-0.8,1.6c-0.5,0.4-1.2,0.6-2,0.6c-0.6,0-1-0.1-1.5-0.3
			c-0.4-0.2-0.8-0.5-1-0.9c-0.2-0.4-0.4-0.8-0.4-1.3h1.9c0,0.3,0.1,0.6,0.2,0.8c0.2,0.2,0.4,0.3,0.7,0.3
			C128.3,78.9,128.6,78.7,128.6,78.2z"/>
	</g>
	<g class="st7">
		<path class="st1" d="M72.3,101.5H75v0.7h-3.5v-6.8h0.9V101.5z"/>
		<path class="st1" d="M76.9,95.8c0,0.1,0,0.3-0.1,0.4c-0.1,0.1-0.2,0.1-0.4,0.1c-0.2,0-0.3,0-0.4-0.1c-0.1-0.1-0.1-0.2-0.1-0.4
			c0-0.1,0-0.3,0.1-0.4c0.1-0.1,0.2-0.1,0.4-0.1c0.2,0,0.3,0,0.4,0.1C76.8,95.5,76.9,95.7,76.9,95.8z M76.8,102.2H76v-5.1h0.8V102.2
			z"/>
		<path class="st1" d="M81.8,99.9c0,0.8-0.1,1.4-0.4,1.8c-0.3,0.4-0.7,0.6-1.2,0.6c-0.5,0-0.9-0.2-1.2-0.7l0,0.6h-0.8V95h0.8v2.7
			c0.3-0.4,0.7-0.7,1.2-0.7c0.6,0,1,0.2,1.2,0.6c0.3,0.4,0.4,1,0.4,1.8V99.9z M81,99.4c0-0.6-0.1-1-0.2-1.3
			c-0.2-0.3-0.4-0.4-0.8-0.4c-0.4,0-0.7,0.2-1,0.7v2.4c0.2,0.5,0.5,0.7,1,0.7c0.4,0,0.6-0.1,0.8-0.4c0.2-0.3,0.2-0.7,0.2-1.2V99.4z"
			/>
	</g>
	<g class="st7">
		<path class="st1" d="M84.9,97.9c-0.1,0-0.2,0-0.4,0c-0.4,0-0.7,0.2-0.9,0.7v3.6h-0.8v-5.1h0.8l0,0.5c0.2-0.4,0.5-0.6,0.9-0.6
			c0.1,0,0.2,0,0.3,0.1L84.9,97.9z"/>
	</g>
	<g class="st7">
		<path class="st1" d="M88.2,102.2c0-0.1-0.1-0.3-0.1-0.6c-0.3,0.4-0.7,0.6-1.1,0.6c-0.5,0-0.8-0.1-1.1-0.4
			c-0.3-0.3-0.4-0.6-0.4-1.1c0-0.5,0.2-0.9,0.5-1.2c0.3-0.3,0.8-0.5,1.4-0.5H88v-0.5c0-0.3-0.1-0.5-0.2-0.6
			c-0.1-0.1-0.3-0.2-0.6-0.2c-0.2,0-0.5,0.1-0.6,0.2c-0.2,0.1-0.2,0.3-0.2,0.6h-0.8c0-0.3,0.1-0.5,0.2-0.7c0.2-0.2,0.4-0.4,0.6-0.6
			S87,97,87.3,97c0.5,0,0.9,0.1,1.2,0.4c0.3,0.3,0.4,0.6,0.4,1.1v2.6c0,0.4,0.1,0.7,0.2,1v0.1H88.2z M87.1,101.5
			c0.2,0,0.4-0.1,0.6-0.2c0.2-0.1,0.3-0.3,0.4-0.4v-1.2h-0.5c-0.4,0-0.7,0.1-0.9,0.3c-0.2,0.2-0.3,0.4-0.3,0.7
			c0,0.3,0.1,0.5,0.2,0.6C86.6,101.5,86.8,101.5,87.1,101.5z"/>
		<path class="st1" d="M92.2,97.9c-0.1,0-0.2,0-0.4,0c-0.4,0-0.7,0.2-0.9,0.7v3.6h-0.8v-5.1h0.8l0,0.5c0.2-0.4,0.5-0.6,0.9-0.6
			c0.1,0,0.2,0,0.3,0.1L92.2,97.9z"/>
		<path class="st1" d="M94,95.8c0,0.1,0,0.3-0.1,0.4c-0.1,0.1-0.2,0.1-0.4,0.1c-0.2,0-0.3,0-0.4-0.1c-0.1-0.1-0.1-0.2-0.1-0.4
			c0-0.1,0-0.3,0.1-0.4c0.1-0.1,0.2-0.1,0.4-0.1c0.2,0,0.3,0,0.4,0.1C94,95.5,94,95.7,94,95.8z M94,102.2h-0.8v-5.1H94V102.2z"/>
		<path class="st1" d="M97.1,102.3c-0.6,0-1.1-0.2-1.4-0.6c-0.3-0.4-0.5-0.9-0.5-1.7v-0.6c0-0.8,0.2-1.3,0.5-1.8
			c0.3-0.4,0.8-0.6,1.4-0.6c0.6,0,1,0.2,1.3,0.6c0.3,0.4,0.4,1,0.4,1.8v0.5h-2.8v0.1c0,0.5,0.1,0.9,0.3,1.2c0.2,0.2,0.5,0.4,0.9,0.4
			c0.2,0,0.5,0,0.6-0.1c0.2-0.1,0.4-0.2,0.5-0.4l0.4,0.5C98.3,102,97.8,102.3,97.1,102.3z M97,97.7c-0.3,0-0.6,0.1-0.8,0.4
			c-0.2,0.2-0.3,0.6-0.3,1.1h2v-0.1c0-0.5-0.1-0.8-0.3-1C97.5,97.8,97.3,97.7,97,97.7z"/>
		<path class="st1" d="M102.2,100.9c0-0.2-0.1-0.3-0.2-0.5c-0.1-0.1-0.4-0.3-0.8-0.4c-0.4-0.2-0.8-0.3-0.9-0.5
			c-0.2-0.1-0.3-0.3-0.4-0.4c-0.1-0.2-0.1-0.4-0.1-0.6c0-0.4,0.2-0.8,0.5-1c0.3-0.3,0.7-0.4,1.2-0.4c0.5,0,0.9,0.1,1.2,0.4
			c0.3,0.3,0.4,0.7,0.4,1.1h-0.8c0-0.2-0.1-0.4-0.2-0.6c-0.2-0.2-0.3-0.2-0.6-0.2c-0.2,0-0.4,0.1-0.6,0.2c-0.1,0.1-0.2,0.3-0.2,0.5
			c0,0.2,0.1,0.3,0.2,0.4s0.3,0.2,0.7,0.4c0.6,0.2,1,0.5,1.3,0.7c0.2,0.2,0.3,0.5,0.3,0.9c0,0.4-0.2,0.8-0.5,1.1
			c-0.3,0.3-0.7,0.4-1.2,0.4c-0.5,0-1-0.2-1.3-0.5c-0.3-0.3-0.5-0.7-0.5-1.2h0.8c0,0.3,0.1,0.5,0.3,0.7c0.2,0.2,0.4,0.2,0.7,0.2
			c0.3,0,0.5-0.1,0.6-0.2C102.1,101.3,102.2,101.1,102.2,100.9z"/>
	</g>
	<g class="st7">
		<path class="st1" d="M48.6,111v2.7h-0.9v-6.8h2.2c0.6,0,1.1,0.2,1.5,0.6c0.4,0.4,0.5,0.9,0.5,1.5c0,0.7-0.2,1.2-0.5,1.5
			c-0.3,0.4-0.8,0.5-1.5,0.6H48.6z M48.6,110.3h1.3c0.4,0,0.7-0.1,0.9-0.3c0.2-0.2,0.3-0.6,0.3-1c0-0.4-0.1-0.7-0.3-1
			c-0.2-0.2-0.5-0.4-0.9-0.4h-1.3V110.3z"/>
	</g>
	<g class="st7">
		<path class="st1" d="M55.5,113.7c0-0.1-0.1-0.3-0.1-0.6c-0.3,0.4-0.7,0.6-1.1,0.6c-0.5,0-0.8-0.1-1.1-0.4
			c-0.3-0.3-0.4-0.6-0.4-1.1c0-0.5,0.2-0.9,0.5-1.2c0.3-0.3,0.8-0.5,1.4-0.5h0.6v-0.5c0-0.3-0.1-0.5-0.2-0.6
			c-0.1-0.1-0.3-0.2-0.6-0.2c-0.2,0-0.5,0.1-0.6,0.2c-0.2,0.1-0.2,0.3-0.2,0.6h-0.8c0-0.3,0.1-0.5,0.2-0.7c0.2-0.2,0.4-0.4,0.6-0.6
			s0.5-0.2,0.9-0.2c0.5,0,0.9,0.1,1.2,0.4c0.3,0.3,0.4,0.6,0.4,1.1v2.6c0,0.4,0.1,0.7,0.2,1v0.1H55.5z M54.4,113
			c0.2,0,0.4-0.1,0.6-0.2c0.2-0.1,0.3-0.3,0.4-0.4v-1.2h-0.5c-0.4,0-0.7,0.1-0.9,0.3s-0.3,0.4-0.3,0.7c0,0.3,0.1,0.5,0.2,0.6
			C53.9,113,54.1,113,54.4,113z"/>
		<path class="st1" d="M59.6,109.4c-0.1,0-0.2,0-0.4,0c-0.4,0-0.7,0.2-0.9,0.7v3.6h-0.8v-5.1h0.8l0,0.5c0.2-0.4,0.5-0.6,0.9-0.6
			c0.1,0,0.2,0,0.3,0.1L59.6,109.4z"/>
		<path class="st1" d="M61.6,111.4l-0.4,0.5v1.8h-0.8v-7.2h0.8v4.3l1.6-2.2h1l-1.6,2.1l1.8,2.9h-1L61.6,111.4z"/>
		<path class="st1" d="M67.1,112.4c0-0.2-0.1-0.3-0.2-0.5c-0.1-0.1-0.4-0.3-0.8-0.4c-0.4-0.2-0.8-0.3-0.9-0.5
			c-0.2-0.1-0.3-0.3-0.4-0.4c-0.1-0.2-0.1-0.4-0.1-0.6c0-0.4,0.2-0.8,0.5-1c0.3-0.3,0.7-0.4,1.2-0.4c0.5,0,0.9,0.1,1.2,0.4
			c0.3,0.3,0.4,0.7,0.4,1.1h-0.8c0-0.2-0.1-0.4-0.2-0.6c-0.2-0.2-0.3-0.2-0.6-0.2c-0.2,0-0.4,0.1-0.6,0.2c-0.1,0.1-0.2,0.3-0.2,0.5
			c0,0.2,0.1,0.3,0.2,0.4s0.3,0.2,0.7,0.4c0.6,0.2,1,0.5,1.3,0.7s0.3,0.5,0.3,0.9c0,0.4-0.2,0.8-0.5,1.1c-0.3,0.3-0.7,0.4-1.2,0.4
			c-0.5,0-1-0.2-1.3-0.5c-0.3-0.3-0.5-0.7-0.5-1.2h0.8c0,0.3,0.1,0.5,0.3,0.7c0.2,0.2,0.4,0.2,0.7,0.2c0.3,0,0.5-0.1,0.6-0.2
			C67.1,112.8,67.1,112.6,67.1,112.4z"/>
		<path class="st1" d="M73.8,113.7c0-0.1-0.1-0.3-0.1-0.6c-0.3,0.4-0.7,0.6-1.1,0.6c-0.5,0-0.8-0.1-1.1-0.4
			c-0.3-0.3-0.4-0.6-0.4-1.1c0-0.5,0.2-0.9,0.5-1.2c0.3-0.3,0.8-0.5,1.4-0.5h0.6v-0.5c0-0.3-0.1-0.5-0.2-0.6
			c-0.1-0.1-0.3-0.2-0.6-0.2c-0.2,0-0.5,0.1-0.6,0.2c-0.2,0.1-0.2,0.3-0.2,0.6h-0.8c0-0.3,0.1-0.5,0.2-0.7c0.2-0.2,0.4-0.4,0.6-0.6
			s0.5-0.2,0.9-0.2c0.5,0,0.9,0.1,1.2,0.4c0.3,0.3,0.4,0.6,0.4,1.1v2.6c0,0.4,0.1,0.7,0.2,1v0.1H73.8z M72.7,113
			c0.2,0,0.4-0.1,0.6-0.2c0.2-0.1,0.3-0.3,0.4-0.4v-1.2h-0.5c-0.4,0-0.7,0.1-0.9,0.3c-0.2,0.2-0.3,0.4-0.3,0.7
			c0,0.3,0.1,0.5,0.2,0.6C72.3,113,72.5,113,72.7,113z"/>
		<path class="st1" d="M76.6,108.6l0,0.5c0.3-0.4,0.7-0.6,1.2-0.6c0.9,0,1.3,0.6,1.4,1.8v3.4h-0.8v-3.3c0-0.4-0.1-0.7-0.2-0.8
			c-0.1-0.2-0.3-0.2-0.6-0.2c-0.2,0-0.4,0.1-0.6,0.2c-0.2,0.1-0.3,0.3-0.4,0.5v3.7h-0.8v-5.1H76.6z"/>
		<path class="st1" d="M80.3,110.9c0-0.8,0.1-1.4,0.4-1.8c0.3-0.4,0.7-0.6,1.3-0.6c0.5,0,0.9,0.2,1.1,0.6v-2.6h0.8v7.2h-0.8l0-0.5
			c-0.3,0.4-0.7,0.6-1.2,0.6c-0.5,0-0.9-0.2-1.2-0.6c-0.3-0.4-0.4-1-0.5-1.7V110.9z M81.1,111.4c0,0.6,0.1,1,0.3,1.2
			c0.2,0.3,0.4,0.4,0.8,0.4c0.4,0,0.7-0.2,0.9-0.6v-2.5c-0.2-0.4-0.5-0.6-0.9-0.6c-0.4,0-0.7,0.1-0.8,0.4c-0.2,0.3-0.3,0.7-0.3,1.2
			V111.4z"/>
		<path class="st1" d="M89.6,110.9h-1.2v2.8h-0.9v-6.8h1.9c0.7,0,1.2,0.2,1.5,0.5c0.3,0.3,0.5,0.9,0.5,1.5c0,0.4-0.1,0.8-0.3,1.1
			c-0.2,0.3-0.4,0.5-0.8,0.7l1.3,2.9v0.1h-0.9L89.6,110.9z M88.4,110.2h1c0.4,0,0.6-0.1,0.9-0.3c0.2-0.2,0.3-0.5,0.3-0.9
			c0-0.9-0.4-1.3-1.2-1.3h-1V110.2z"/>
		<path class="st1" d="M94.3,113.8c-0.6,0-1.1-0.2-1.4-0.6c-0.3-0.4-0.5-0.9-0.5-1.7v-0.6c0-0.8,0.2-1.3,0.5-1.8
			c0.3-0.4,0.8-0.6,1.4-0.6c0.6,0,1,0.2,1.3,0.6c0.3,0.4,0.4,1,0.4,1.8v0.5h-2.8v0.1c0,0.5,0.1,0.9,0.3,1.2c0.2,0.2,0.5,0.4,0.9,0.4
			c0.2,0,0.5,0,0.6-0.1c0.2-0.1,0.4-0.2,0.5-0.4l0.4,0.5C95.6,113.5,95,113.8,94.3,113.8z M94.2,109.2c-0.3,0-0.6,0.1-0.8,0.4
			c-0.2,0.2-0.3,0.6-0.3,1.1h2v-0.1c0-0.5-0.1-0.8-0.3-1C94.7,109.3,94.5,109.2,94.2,109.2z"/>
		<path class="st1" d="M98.7,113.1c0.3,0,0.5-0.1,0.7-0.3c0.2-0.2,0.3-0.4,0.3-0.7h0.8c0,0.5-0.2,0.9-0.5,1.2
			c-0.3,0.3-0.7,0.5-1.2,0.5c-0.6,0-1.1-0.2-1.4-0.6c-0.3-0.4-0.5-1-0.5-1.8v-0.6c0-0.8,0.2-1.3,0.5-1.7c0.3-0.4,0.8-0.6,1.4-0.6
			c0.5,0,0.9,0.2,1.2,0.5c0.3,0.3,0.5,0.8,0.5,1.3h-0.8c0-0.4-0.1-0.7-0.3-0.8c-0.2-0.2-0.4-0.3-0.7-0.3c-0.4,0-0.6,0.1-0.8,0.4
			c-0.2,0.2-0.3,0.6-0.3,1.2v0.6c0,0.6,0.1,1,0.3,1.3C98.1,112.9,98.4,113.1,98.7,113.1z"/>
		<path class="st1" d="M103.5,109.4c-0.1,0-0.2,0-0.4,0c-0.4,0-0.7,0.2-0.9,0.7v3.6h-0.8v-5.1h0.8l0,0.5c0.2-0.4,0.5-0.6,0.9-0.6
			c0.1,0,0.2,0,0.3,0.1L103.5,109.4z"/>
		<path class="st1" d="M106.1,113.8c-0.6,0-1.1-0.2-1.4-0.6c-0.3-0.4-0.5-0.9-0.5-1.7v-0.6c0-0.8,0.2-1.3,0.5-1.8
			c0.3-0.4,0.8-0.6,1.4-0.6c0.6,0,1,0.2,1.3,0.6c0.3,0.4,0.4,1,0.4,1.8v0.5H105v0.1c0,0.5,0.1,0.9,0.3,1.2c0.2,0.2,0.5,0.4,0.9,0.4
			c0.2,0,0.5,0,0.6-0.1c0.2-0.1,0.4-0.2,0.5-0.4l0.4,0.5C107.4,113.5,106.9,113.8,106.1,113.8z M106,109.2c-0.3,0-0.6,0.1-0.8,0.4
			c-0.2,0.2-0.3,0.6-0.3,1.1h2v-0.1c0-0.5-0.1-0.8-0.3-1C106.6,109.3,106.3,109.2,106,109.2z"/>
		<path class="st1" d="M111.4,113.7c-0.1-0.1-0.1-0.3-0.1-0.6c-0.3,0.4-0.7,0.6-1.1,0.6c-0.5,0-0.8-0.1-1.1-0.4
			c-0.3-0.3-0.4-0.6-0.4-1.1c0-0.5,0.2-0.9,0.5-1.2c0.3-0.3,0.8-0.5,1.4-0.5h0.6v-0.5c0-0.3-0.1-0.5-0.2-0.6
			c-0.1-0.1-0.3-0.2-0.6-0.2c-0.2,0-0.5,0.1-0.6,0.2c-0.2,0.1-0.2,0.3-0.2,0.6h-0.8c0-0.3,0.1-0.5,0.2-0.7c0.2-0.2,0.4-0.4,0.6-0.6
			s0.5-0.2,0.9-0.2c0.5,0,0.9,0.1,1.2,0.4c0.3,0.3,0.4,0.6,0.4,1.1v2.6c0,0.4,0.1,0.7,0.2,1v0.1H111.4z M110.3,113
			c0.2,0,0.4-0.1,0.6-0.2c0.2-0.1,0.3-0.3,0.4-0.4v-1.2h-0.5c-0.4,0-0.7,0.1-0.9,0.3s-0.3,0.4-0.3,0.7c0,0.3,0.1,0.5,0.2,0.6
			C109.8,113,110,113,110.3,113z"/>
		<path class="st1" d="M114.5,107.4v1.2h0.8v0.7h-0.8v3.1c0,0.2,0,0.4,0.1,0.5c0.1,0.1,0.2,0.2,0.3,0.2c0.1,0,0.2,0,0.3-0.1l0,0.7
			c-0.2,0.1-0.4,0.1-0.6,0.1c-0.3,0-0.6-0.1-0.7-0.4c-0.2-0.2-0.3-0.6-0.3-1v-3.1h-0.8v-0.7h0.8v-1.2H114.5z"/>
		<path class="st1" d="M117.2,107.3c0,0.1,0,0.3-0.1,0.4c-0.1,0.1-0.2,0.1-0.4,0.1c-0.2,0-0.3,0-0.4-0.1c-0.1-0.1-0.1-0.2-0.1-0.4
			c0-0.1,0-0.3,0.1-0.4c0.1-0.1,0.2-0.1,0.4-0.1c0.2,0,0.3,0,0.4,0.1C117.1,107,117.2,107.1,117.2,107.3z M117.1,113.7h-0.8v-5.1
			h0.8V113.7z"/>
		<path class="st1" d="M118.2,110.9c0-0.7,0.2-1.3,0.5-1.7c0.4-0.4,0.8-0.6,1.4-0.6c0.6,0,1.1,0.2,1.4,0.6c0.4,0.4,0.5,1,0.5,1.7
			v0.5c0,0.7-0.2,1.3-0.5,1.7c-0.4,0.4-0.8,0.6-1.4,0.6c-0.6,0-1.1-0.2-1.4-0.6c-0.4-0.4-0.5-1-0.5-1.7V110.9z M119.1,111.4
			c0,0.5,0.1,0.9,0.3,1.2c0.2,0.3,0.5,0.4,0.8,0.4c0.7,0,1.1-0.5,1.1-1.6v-0.6c0-0.5-0.1-0.9-0.3-1.2c-0.2-0.3-0.5-0.5-0.8-0.5
			c-0.3,0-0.6,0.2-0.8,0.5c-0.2,0.3-0.3,0.7-0.3,1.2V111.4z"/>
		<path class="st1" d="M124,108.6l0,0.5c0.3-0.4,0.7-0.6,1.2-0.6c0.9,0,1.3,0.6,1.4,1.8v3.4h-0.8v-3.3c0-0.4-0.1-0.7-0.2-0.8
			c-0.1-0.2-0.3-0.2-0.6-0.2c-0.2,0-0.4,0.1-0.6,0.2c-0.2,0.1-0.3,0.3-0.4,0.5v3.7h-0.8v-5.1H124z"/>
	</g>
</g>
</svg>
