<?xml version="1.0" encoding="utf-8"?>
<!-- Generator: Adobe Illustrator 27.0.1, SVG Export Plug-In . SVG Version: 6.00 Build 0)  -->
<svg version="1.1" id="Layer_1" xmlns="http://www.w3.org/2000/svg" xmlns:xlink="http://www.w3.org/1999/xlink" x="0px" y="0px"
	 viewBox="0 0 175 190" style="enable-background:new 0 0 175 190;" xml:space="preserve">
<style type="text/css">
	.st0{fill:#A5A49F;}
	.st1{fill:#FFFFFF;}
	.st2{fill:#524C4C;}
	.st3{fill:#828A43;}
	.st4{fill:#B3BD80;}
	.st5{fill:#677432;}
	.st6{fill:#7F7474;}
	.st7{enable-background:new    ;}
</style>
<g>
	<polygon class="st0" points="162.5,138.3 87.5,181.6 12.5,138.3 12.5,51.7 87.5,8.4 162.5,51.7 	"/>
	<g>
		<path class="st2" d="M16.6,142.8c-0.1-0.3-0.2-0.6-0.3-0.8c-1-1.7-0.6-3.2,0.8-4.5c0.6-0.6,1.3-0.7,2-0.1c1.5,1.2,2.9,2.6,4.5,3.8
			c1,0.9,2.2,1.6,3.2,2.4c0.7,0.5,1.4,1.1,2,1.7c1.5,1.5,3.4,2,5.4,2.4c0.3,0.1,0.6-0.1,0.9-0.3c12.2-5.9,24.3-11.8,36.5-17.7
			c1.4-0.7,2.7-1.7,4-2.5c0.2-0.1,0.3-0.4,0.3-0.6c-0.2-1.6,0-3.1,0.3-4.6c0.6-2.8,1-5.6,1.5-8.4c0-0.1,0-0.2,0-0.3
			c0.8-1.5,0-2.6-0.8-3.8c-1-1.4-1.9-2.9-2.8-4.4c-0.2-0.4-0.3-0.9-0.5-1.4c-1.3-0.6-2.7-1-4-1.8c-1.5-0.8-2.8-1.8-3.6-3.4
			c-0.5-1-0.6-2-0.1-3.1c-3.2-2.7-6.3-5.5-9.5-8.1c-9.5-7.7-18.7-15.8-27.8-24c-6.3-5.6-12.9-11-19.4-16.5c-1.3-1.1-2.4-2.3-3.5-3.5
			C5.1,43,4.8,42.5,4.8,42c0-0.8,0.9-1.3,1.7-0.9c0.3,0.1,0.5,0.3,0.7,0.5c6.8,6.6,14.1,12.8,21.5,18.8c4.5,3.6,8.6,7.7,13.1,11.4
			C47.9,77,54.1,82,60.2,87.1c2.4,2,4.7,4.2,7,6.3c0.2,0.2,0.5,0.3,0.7,0.2c1.6-0.5,3.2,0.1,4.7,0.5c1.2,0.4,2.4,0.8,3.8,1.3
			c-0.2-0.3-0.4-0.6-0.6-0.9c-0.9-1.5-2.1-2.8-2.2-4.6c-0.1-0.7,0.1-1.4,0-2.1c-0.1-0.5-0.5-1-0.9-1.4c-1.6-1.6-3.3-3-4.9-4.6
			C55,69.1,42.4,56.3,29.7,43.7c-4.5-4.5-9.2-8.9-13.8-13.4c-1.1-1.1-2-2.4-3-3.6c-0.2-0.3-0.3-0.7-0.3-1.1c1.6,1.2,3.1,2.5,4.7,3.7
			c6.2,4.7,11.5,10.2,17,15.7c12.7,12.6,25.3,25.3,37.9,38c1.1,1.1,2.3,2.2,3.4,3.3c3.7-0.5,7.1-0.1,9.6,2.6c0.8-0.1,1.4-0.4,2-0.4
			c4.4,0.2,8.8,0.6,13.1,1.7c0.8,0.2,1.5,0.1,2-0.6c0.1-0.2,0.4-0.3,0.5-0.5c2-1.5,3.9-3.1,5.9-4.6c0.2-0.1,0.4-0.4,0.3-0.6
			c-0.1-0.2-0.3-0.5-0.5-0.5c-0.5-0.1-1-0.1-1.5-0.1c-1.6,0-2.9-0.7-3.9-1.8c-1.4-1.5-2.1-3.3-2.4-5.3c-0.5-2.8-0.5-2.8,1.8-4.5
			c0.7-0.5,1.1-1,1.1-2c0-2.6,1.1-4.7,3.3-6.3c1-0.7,1.8-1.8,2.4-2.8c1.4-2.3,3.4-3.5,5.9-4.2c2.2-0.6,4.5-0.9,6.8-0.9
			c5.4,0.2,10.7-0.6,16-2c1.7-0.4,3.3-0.9,4.7-1.9c0.3-0.2,0.9-0.1,1.4-0.1c-0.4,2,0.6,3.2,2.5,3.3c2.6,0.2,4.9-1,7.2-1.8
			c0.4-0.1,0.9-0.3,1.3-0.4c0.3-0.1,0.7-0.1,0.9,0.1c1.8,1.7,4.1,1.9,6.3,2.4c2.1,0.5,4.1,0.2,6.2-0.1c0.6-0.1,1.3-0.2,1.7,0.5
			c0.4,0.8-0.2,1.2-0.7,1.7c-1.3,1.4-2.7,2.8-3.9,4.3c-1.3,1.8-1.3,3.8-0.6,5.9c0.3,1,0.9,2,1.3,3c0.8,2.1,0.5,4-1,5.6
			c-1.3,1.3-2.8,2.4-4.1,3.6c-0.7,0.7-1.2,1.6-1.8,2.4c-0.8,1.3-1.6,1.3-2.5,0.1c-0.9-1.1-2.2-1.5-3.5-1.8c-3.6-1-7.3-1-11-0.4
			c-3.6,0.5-7.2,1.3-10.8,2c-3.1,0.6-6.3,1-9.6,0.2c0.3,1,0.5,1.9,0.8,2.7c1.5,3.6,1.8,7.3,1.6,11.1c-0.1,2-1.1,3.6-1.9,5.3
			c-1.7,3.8-3.3,7.7-4.9,11.6c-1.3,3.2-2.7,6.4-4,9.6c-0.9,2.3-1.5,4.6-1.4,7.1c0.1,2.5-0.7,4.6-2.7,6.2c-0.5,0.4-1.1,0.9-1.6,1.3
			c-0.1,0.1-0.3,0.3-0.3,0.4c-0.1,1.5-1.1,2.3-2.2,2.8c-1.8,0.8-3.7,1.5-5.7,2.2c-3.2,1.1-6.5,2.1-9.7,3.1c-0.5,0.2-1,0.3-1.5,0.4
			c-1.5,0.2-2-0.1-2.4-1.8c-1.5,0.4-3,0.8-4.5,1.3c-9.5,3.3-18.9,6.6-28.3,10c-4.8,1.7-9.6,3.6-14.4,5.3c-0.4,0.1-0.7,0.4-1,0.6
			c-1.7,1-3.4,2.1-5.2,2.8c-2.5,1-4.9,0.2-7-1.3c-0.2-0.2-0.4-0.5-0.5-0.9c-0.8-3.6-2.8-6.2-5.5-8.6c-2.8-2.5-4.9-5.7-7.3-8.7
			c-0.7-0.9-0.6-1.8,0.1-2.4c0.8-0.8,1.8-0.8,2.7-0.2C15.5,142.2,16,142.5,16.6,142.8c0,0,0,0.1,0,0.1c0,0,0.1,0,0.1,0
			C16.6,142.9,16.6,142.8,16.6,142.8L16.6,142.8z M157.4,79.1c1.5-1.3,2.9-2.5,4.3-3.6c2.7-2.2,2.9-2.8,1.4-6
			c-0.7-1.4-1.1-2.9-1.1-4.5c0-2.2,0.5-4.2,2.5-5.6c0.5-0.3,1-0.7,1.4-1.2c0.2-0.3,0.4-0.8,0.3-1.1c-0.1-0.3-0.6-0.5-0.9-0.6
			c-2.4-0.2-4.7-0.6-6.9-1.4c-1-0.4-2-0.8-3.1-1.1c-0.4-0.1-0.8-0.1-1.1,0c-0.5,0.1-0.9,0.4-1.4,0.6c-2.6,1.2-5.4,1.9-8.3,1.7
			c-1.8-0.1-2.6-0.7-3-2c-2,0.5-3.9,1.2-5.9,1.4c-3,0.4-6,0.4-9,0.6c-2.1,0.1-4.2,0.3-6.2,0.6c-1.6,0.3-3.1,0.8-4.6,1.2
			c-2.5,0.7-4.1,2.4-5.5,4.5c3.9,2.2,3.9,5.8,3.6,9.6c0.4-0.2,0.8-0.4,1.2-0.4c0.4,0,1.1,0.1,1.3,0.4c0.7,0.9,0.5,2.1,0.2,3.1
			c-0.2,0.5-0.8,0.8-1.2,1.2c0.2,0.3,0.4,0.8,0.8,1.2c2.2,2.8,5.3,3.8,8.6,3.7c2.4-0.1,4.9-0.7,7.2-1.4c6.1-1.9,12.3-2.5,18.6-2.1
			C152.9,77.8,155.4,77.9,157.4,79.1L157.4,79.1z M110.3,124.9c0.3-1.2,0.5-2.3,0.9-3.3c1.2-3.1,2.4-6.2,3.6-9.2
			c1.3-3.3,2.6-6.5,4-9.8c1.2-2.7,2.5-5.2,2.6-8.2c0.1-3.9,0-7.6-1.3-11.3c-0.1-0.3-0.4-0.6-0.7-0.6c-2.5,0-5,0.2-7.3,1
			c-0.2,0.1-0.4,0.3-0.6,0.5c-0.6,0.5-1.1,1.2-1.7,1.6c-1.9,1.4-3.8,2.8-5.7,4.2c0.8,0.9,1.5,1.6,2,2.4c0.3,0.4,0.3,0.9,0.4,1.4
			c-0.5-0.1-1-0.1-1.5-0.3c-0.5-0.2-0.9-0.6-1.4-0.9c0.3,1.1,0.6,2.1,0.8,3.1c0,0.2-0.2,0.5-0.3,0.8c-0.3-0.1-0.6-0.2-0.8-0.4
			c-0.3-0.4-0.5-0.9-0.7-1.3c-0.3-0.7-0.6-1.3-1-2c-0.8,0.6-1.4,1.1-2.1,1.5c-0.2,0.1-0.5,0.1-0.8,0.1c0-0.2,0-0.5,0.2-0.7
			c0.4-0.6,0.8-1.3,1.4-2.1c-4.4-0.3-8.6-0.6-12.8-0.9c-0.2,2.4-0.3,4.7-0.5,7.1c0.5,0.1,0.9,0.2,1.4,0.2c5.5,0.4,11,0.8,16.4,1.1
			c0.8,0,1.8-0.1,2.6-0.5c1.8-0.9,3.5-2.1,5.3-3.1c1.2-0.6,2.1-1.4,2.8-2.5c0.5-0.7,1-1.3,1.6-1.9c0.2-0.2,0.6-0.2,0.9-0.3
			c0,0.3,0.1,0.7-0.1,1c-0.5,0.9-1.1,1.8-1.7,2.9c0.8-0.3,1.5-0.7,2.2-0.9c0.2-0.1,0.7,0.1,0.8,0.3c0.1,0.2-0.1,0.6-0.2,0.9
			c-0.2,0.2-0.5,0.4-0.8,0.5c-1,0.4-2,0.7-3,1.2c-2.8,1.4-5.5,2.9-8.3,4.3c-0.5,0.3-1.2,0.3-1.8,0.3c-1.6-0.1-3.2-0.2-4.8-0.3
			c-0.3,0-0.6,0.2-0.8,0.4c-1.2,1.7-2.3,3.5-3.4,5.2c-0.7,1.1-1.5,2.2-2.3,3.5c1-0.1,1.9-0.2,2.4,0.6c0.6,0.9,1.1,1.8,1.5,2.8
			c1,2.1,1.9,4.3,2.7,6.4c0.4,1,0.9,2,2.2,2c0.1,0,0.3,0.1,0.4,0.2C105.4,122.7,107.8,123.8,110.3,124.9L110.3,124.9z M38.3,159.8
			c0.9-0.6,1.4-1.1,2.1-1.4c1.6-0.7,3.3-1.4,4.9-2c2.4-1,4.8-2,7.2-3c2.3-0.9,4.6-1.9,6.8-2.8c2.1-0.9,4.2-1.7,6.3-2.5
			c2.4-0.9,4.9-1.9,7.3-2.8c1.4-0.5,2.9-1.1,4.4-1.6c2.6-0.9,5.2-1.7,7.7-2.5c0.2-0.1,0.5-0.5,0.5-0.7c0-1.1,0-2.2-0.2-3.2
			c-0.4-2.2-0.8-4.4-1.3-6.6c-0.2-1.2-0.5-2.3-0.9-3.5c-0.1-0.4-0.3-0.9-1-0.5c-1.6,0.8-3.2,1.5-4.8,2.2c-1.7,0.8-3.4,1.6-5.1,2.4
			c-2.9,1.4-5.9,2.8-8.8,4.2c-2.9,1.4-5.8,2.8-8.7,4.2c-1.9,1-3.8,2-5.6,3c-0.2,0.1-0.3,0.2-0.5,0.3c-2.6,1.3-5.3,2.5-7.9,3.8
			c-0.5,0.2-1,0.4-1.4,0.5c-1,0.4-2.1,0.8-3.1,1.2c-0.2,0.1-0.3,0.3-0.4,0.4c-0.7,1.1-1,2.2-1,3.5c0,1.8,0.6,3.3,1.3,4.7
			C36.7,158.2,37.6,159,38.3,159.8L38.3,159.8z M116.4,80.4c-0.7-0.9-1.4-1.8-2-2.7c-0.3-0.5-0.5-1.1-0.7-1.7
			c-0.2-0.5,0-0.8,0.6-0.9c1.3-0.2,1.6-0.7,1.2-2.3c-0.3,0.1-0.6,0.2-0.8,0.4c-0.6,0.5-1.1,0.1-1.6-0.1c-0.2-0.1-0.1-0.7-0.1-1.1
			c0-0.5,0.1-1,0.2-1.4c0.2-2.9-1.1-5.3-3.5-6.5c-0.6-0.3-0.9-0.2-1.4,0.2c-2,1.5-2.9,3.5-3.3,5.8c-0.1,0.6-0.5,1.2-0.9,1.6
			c-0.8,0.9-1.8,1.6-2.8,2.5c0.6,1.7,1,3.6,1.8,5.2c0.8,1.6,2.3,2.9,4.3,2.9c0.9,0,1.7,0.1,2.6,0.2c0.7,0.1,1.5-0.8,2.4-1
			C113.7,80.9,115.1,80.7,116.4,80.4L116.4,80.4z M96.9,100.3c-0.2-0.1-0.4-0.1-0.6-0.1c-2.4-0.2-4.9-0.4-7.3-0.7
			c-0.9-0.1-1.8-0.4-2.7-0.7c-0.6-0.2-1.2-0.7-1.8-0.8c-1.7-0.1-3.3-0.1-5-0.1c-0.4,1.1-0.8,2.3-1.2,3.6c0.5,0.2,1,0.4,1.5,0.6
			c2.6,0.9,5.2,1.6,7.7,2.6c1.6,0.7,3.1,0.4,4.7,0.2c0.1,0,0.3-0.1,0.4-0.2C94,103.3,95.4,101.8,96.9,100.3L96.9,100.3z M84.8,96.2
			c0.1-1.5,0-2.9,0.3-4.1c0.2-1-0.1-1.7-0.8-2.3c-2-1.7-4.5-2.4-7.1-2c-2.1,0.3-2.6,1.5-1.5,3.3c0.8,1.4,1.7,2.7,2.8,3.9
			c0.5,0.5,1.3,0.9,2.1,1C81.9,96.2,83.3,96.1,84.8,96.2L84.8,96.2z M77.8,96.9c-1.1-0.2-2.2-0.5-3.3-0.7c-1.7-0.4-3.3-0.9-5-1.3
			c-1.7-0.3-3,0.8-2.5,2.2c0.2,0.5,0.5,0.9,0.8,1.3c1.4,1.7,3.2,2.7,5.2,3.4c1.9,0.6,3.3-0.1,3.8-2C77.2,98.9,77.5,97.9,77.8,96.9
			L77.8,96.9z M102.4,123.5c1.7,3.9,3.4,7.5,5,11.2c1.7-1.4,2.9-2.9,2.7-5.2c-0.1-1,0-2.1-1.1-2.7c-0.6-0.3-1.2-0.6-1.8-0.9
			c-0.7-0.4-1.4-0.9-2.2-1.2C104.2,124.3,103.4,123.9,102.4,123.5L102.4,123.5z M84.7,106.2c-0.6,2.3-1.2,4.6-1.8,6.9
			c3-1,5.9-1.8,8.6-2.7c0.1-1.1,0.2-2.1,0.4-3.3C89.3,108,86.9,107.2,84.7,106.2L84.7,106.2z M81.1,112c0.1,0,0.2-0.1,0.2-0.1
			c0.6-2.2,1.1-4.3,1.7-6.5c-1.5-0.7-3.1-1.3-4.5-2.1c-1.1-0.6-2-0.3-3,0.3C77.4,106.4,79.2,109.2,81.1,112z M81.5,120.1
			c-0.5-2.2-1.1-4.3-1.6-6.4l-0.2,0.1c-0.5,2.4-0.9,4.8-1.4,7.3C79.4,120.7,80.4,120.4,81.5,120.1L81.5,120.1z"/>
		<path class="st1" d="M157.4,79.1c-2-1.3-4.5-1.3-7-1.5c-6.3-0.4-12.5,0.2-18.6,2.1c-2.3,0.7-4.8,1.3-7.2,1.4
			c-3.3,0.2-6.4-0.9-8.6-3.7c-0.3-0.4-0.6-0.9-0.8-1.2c0.4-0.4,1-0.8,1.2-1.2c0.3-1,0.5-2.1-0.2-3.1c-0.2-0.3-0.8-0.4-1.3-0.4
			c-0.4,0-0.7,0.2-1.2,0.4c0.4-3.8,0.3-7.4-3.6-9.6c1.4-2.1,3-3.8,5.5-4.5c1.5-0.4,3-1,4.6-1.2c2.1-0.3,4.2-0.5,6.2-0.6
			c3-0.2,6-0.2,9-0.6c2-0.2,4-0.9,5.9-1.4c0.4,1.3,1.2,1.9,3,2c2.9,0.1,5.7-0.5,8.3-1.7c0.4-0.2,0.9-0.4,1.4-0.6
			c0.4-0.1,0.8-0.1,1.1,0c1,0.3,2,0.8,3.1,1.1c2.2,0.8,4.5,1.2,6.9,1.4c0.3,0,0.8,0.3,0.9,0.6c0.1,0.3,0,0.9-0.3,1.1
			c-0.4,0.5-0.9,0.9-1.4,1.2c-2,1.3-2.5,3.3-2.5,5.6c0,1.6,0.5,3.1,1.1,4.5c1.5,3.2,1.3,3.7-1.4,6C160.3,76.6,158.9,77.9,157.4,79.1
			L157.4,79.1z M162.1,58.4c0-0.1-0.1-0.2-0.1-0.3c-0.7,0-1.6-0.4-2.1-0.1c-3.8,1.8-7.8,2.6-11.9,2.9c-4.7,0.4-9.5,0.7-14.3,0.9
			c-3.9,0.1-7.5,1.2-10.8,3.2c-2,1.2-3.6,2.9-4.3,5.1c-0.2,0.5-0.4,1.1,0.3,1.5c1.1-2.6,3.2-4.2,5.4-5.5c3.1-1.9,6.6-2.2,10.1-2.2
			c5.4-0.1,10.8-0.1,16.1-0.9c2.8-0.4,5.5-1,8-2.4C159.7,60,160.9,59.2,162.1,58.4L162.1,58.4z M119.3,76.8c0,0.1,0,0.2,0,0.3
			c0.1,0.1,0.2,0.1,0.3,0.2c0.3,0.1,0.6,0.2,0.9,0.2c2.6,0.3,5.1,0.2,7.6-0.6c0.8-0.3,1.6-0.6,2.4-0.8c7.5-1.9,15.2-2.4,22.9-1.8
			c1.2,0.1,2.4,0.2,3.6,0.2c0.2,0,0.5-0.2,0.8-0.4c-0.2-0.2-0.4-0.4-0.6-0.6c-2.7-1.2-5.5-1.6-8.4-1.7c-7.5-0.1-14.9,1-22,3.5
			c-0.8,0.3-1.7,0.5-2.6,0.6C122.6,76.3,120.9,76.5,119.3,76.8L119.3,76.8z M159.2,65.6c-0.5,0-0.9-0.2-1.2-0.1
			c-0.9,0.2-1.8,0.5-2.8,0.6c-4.5,0.5-9,0.9-13.5,0.6c-4-0.3-7.9-0.6-11.8,0.6c-3.6,1.2-6.8,2.9-8.7,6.4c-0.2,0.3-0.1,0.7-0.1,1.1
			c0.4-0.1,0.8-0.2,1.1-0.3c0.2-0.1,0.3-0.4,0.4-0.6c0.7-0.8,1.4-1.6,2.3-2.3c3.6-2.7,7.8-3.7,12.2-3.5c4.1,0.3,8.2,0.7,12.4,0.2
			c2.3-0.3,4.6-0.4,6.8-0.8C157.3,67.3,158.4,66.7,159.2,65.6L159.2,65.6z M148.4,58.8c-0.4,0-0.7,0-1.1,0c-3.1,0.3-6.2,0.1-9.3-0.4
			c-1.7-0.2-3.4-0.4-5.1-0.3c-4.5,0.4-8.8,1.9-12.8,4.1c-1.8,1-3.3,2.5-4.9,3.8c-0.2,0.2-0.1,0.9-0.2,1.3c0.4-0.1,0.8-0.1,1.1-0.3
			c4.5-4.1,10-6,15.8-7c3.1-0.5,6.2-0.2,9.2-0.1C143.6,60.1,146,59.6,148.4,58.8L148.4,58.8z M114.1,64.2c0.9-0.7,1.7-1.3,2.6-1.9
			c2.3-1.5,4.5-3.2,7.2-3.9c0.2,0,0.3-0.3,0.5-0.5c-0.2-0.1-0.4-0.4-0.5-0.4c-0.4-0.1-0.8-0.1-1.2,0c-3.8,0.8-6.6,3.2-9.2,5.9
			C113.7,63.7,113.9,64,114.1,64.2L114.1,64.2z"/>
		<path class="st4" d="M110.3,124.9c-2.6-1.2-4.9-2.2-7.2-3.3c-0.1-0.1-0.3-0.2-0.4-0.2c-1.3,0-1.7-1-2.2-2
			c-0.9-2.2-1.8-4.3-2.7-6.4c-0.4-1-1-1.9-1.5-2.8c-0.5-0.8-1.4-0.7-2.4-0.6c0.8-1.2,1.6-2.4,2.3-3.5c1.1-1.7,2.3-3.5,3.4-5.2
			c0.1-0.2,0.5-0.4,0.8-0.4c1.6,0.1,3.2,0.2,4.8,0.3c0.6,0,1.2-0.1,1.8-0.3c2.8-1.4,5.5-2.9,8.3-4.3c1-0.5,2-0.8,3-1.2
			c0.3-0.1,0.6-0.3,0.8-0.5c0.2-0.2,0.3-0.6,0.2-0.9c-0.1-0.2-0.6-0.3-0.8-0.3c-0.7,0.2-1.4,0.5-2.2,0.9c0.6-1,1.2-1.9,1.7-2.9
			c0.1-0.3,0.1-0.7,0.1-1c-0.3,0.1-0.7,0.1-0.9,0.3c-0.6,0.6-1.1,1.2-1.6,1.9c-0.7,1.1-1.7,1.9-2.8,2.5c-1.8,0.9-3.5,2.1-5.3,3.1
			c-0.8,0.4-1.7,0.5-2.6,0.5c-5.5-0.3-11-0.7-16.4-1.1c-0.4,0-0.9-0.1-1.4-0.2c0.2-2.4,0.3-4.6,0.5-7.1c4.2,0.3,8.4,0.6,12.8,0.9
			c-0.6,0.9-1,1.5-1.4,2.1c-0.1,0.2-0.1,0.5-0.2,0.7c0.3,0,0.6,0,0.8-0.1c0.7-0.4,1.3-1,2.1-1.5c0.3,0.7,0.6,1.4,1,2
			c0.2,0.4,0.4,0.9,0.7,1.3c0.2,0.2,0.5,0.2,0.8,0.4c0.1-0.3,0.3-0.5,0.3-0.8c-0.2-1-0.5-2-0.8-3.1c0.5,0.3,0.9,0.7,1.4,0.9
			c0.5,0.2,1,0.2,1.5,0.3c-0.1-0.5-0.2-1-0.4-1.4c-0.6-0.8-1.3-1.5-2-2.4c1.9-1.4,3.8-2.8,5.7-4.2c0.6-0.5,1.1-1.1,1.7-1.6
			c0.2-0.2,0.4-0.4,0.6-0.5c2.4-0.9,4.8-1,7.3-1c0.2,0,0.6,0.4,0.7,0.6c1.3,3.7,1.4,7.5,1.3,11.3c-0.1,3-1.5,5.6-2.6,8.2
			c-1.4,3.2-2.7,6.5-4,9.8c-1.2,3.1-2.4,6.1-3.6,9.2C110.8,122.7,110.6,123.8,110.3,124.9L110.3,124.9z"/>
		<path class="st3" d="M38.3,159.8c-0.7-0.8-1.7-1.6-2.2-2.6c-0.7-1.5-1.3-3-1.3-4.7c0-1.3,0.3-2.5,1-3.5c0.1-0.2,0.3-0.4,0.4-0.4
			c1-0.4,2.1-0.8,3.1-1.2c0.5-0.2,1-0.3,1.4-0.5c2.7-1.3,5.3-2.5,7.9-3.8c0.2-0.1,0.3-0.2,0.5-0.3c1.9-1,3.7-2,5.6-3
			c2.9-1.4,5.8-2.8,8.7-4.2c2.9-1.4,5.9-2.8,8.8-4.2c1.7-0.8,3.4-1.6,5.1-2.4c1.6-0.8,3.2-1.5,4.8-2.2c0.7-0.3,0.9,0.1,1,0.5
			c0.3,1.2,0.6,2.3,0.9,3.5c0.5,2.2,0.9,4.4,1.3,6.6c0.2,1.1,0.2,2.1,0.2,3.2c0,0.3-0.3,0.7-0.5,0.7c-2.6,0.9-5.2,1.7-7.7,2.5
			c-1.5,0.5-2.9,1-4.4,1.6c-2.4,0.9-4.9,1.9-7.3,2.8c-2.1,0.8-4.2,1.7-6.3,2.5c-2.3,0.9-4.6,1.9-6.8,2.8c-2.4,1-4.8,2-7.2,3
			c-1.6,0.7-3.3,1.3-4.9,2C39.8,158.7,39.2,159.2,38.3,159.8L38.3,159.8z"/>
		<path class="st1" d="M116.4,80.4c-1.3,0.3-2.7,0.6-4.1,1c-0.8,0.3-1.7,1.2-2.4,1c-0.9-0.1-1.7-0.2-2.6-0.2c-2.1,0-3.5-1.3-4.3-2.9
			c-0.9-1.6-1.2-3.5-1.8-5.2c1-0.9,2-1.6,2.8-2.5c0.4-0.4,0.8-1,0.9-1.6c0.4-2.3,1.4-4.3,3.3-5.8c0.5-0.4,0.8-0.5,1.4-0.2
			c2.4,1.2,3.7,3.7,3.5,6.5c0,0.5-0.1,1-0.2,1.4c0,0.4-0.1,1.1,0.1,1.1c0.5,0.2,1,0.6,1.6,0.1c0.2-0.2,0.5-0.3,0.8-0.4
			c0.4,1.6,0.1,2-1.2,2.3c-0.6,0.1-0.8,0.4-0.6,0.9c0.2,0.6,0.4,1.2,0.7,1.7C115,78.6,115.8,79.5,116.4,80.4L116.4,80.4z
			 M108.7,70.7c0-0.1-0.1-0.2-0.1-0.2c-0.4-0.4-0.7-0.8-1.2-1.1c-0.2-0.2-0.6-0.2-0.9-0.2c-0.1,0-0.4,0.3-0.4,0.4
			c0.1,0.3,0.2,0.8,0.4,0.8C107.3,70.5,108,70.6,108.7,70.7L108.7,70.7z"/>
		<path class="st4" d="M96.9,100.3c-1.4,1.5-2.8,3-4.2,4.4c-0.1,0.1-0.3,0.2-0.4,0.2c-1.6,0.2-3.1,0.4-4.7-0.2
			c-2.5-1-5.1-1.8-7.7-2.6c-0.5-0.2-1-0.4-1.5-0.6c0.4-1.3,0.8-2.5,1.2-3.6c1.7,0,3.3,0,5,0.1c0.6,0,1.2,0.6,1.8,0.8
			c0.9,0.3,1.8,0.6,2.7,0.7c2.4,0.3,4.9,0.4,7.3,0.7C96.5,100.2,96.6,100.2,96.9,100.3L96.9,100.3z"/>
		<path class="st1" d="M84.8,96.2c-1.5,0-2.9,0.1-4.3-0.1c-0.7-0.1-1.6-0.5-2.1-1c-1.1-1.2-2-2.5-2.8-3.9c-1-1.8-0.5-3,1.5-3.3
			c2.6-0.4,5,0.2,7.1,2c0.7,0.6,1,1.3,0.8,2.3C84.8,93.3,84.9,94.6,84.8,96.2L84.8,96.2z"/>
		<path class="st1" d="M77.8,96.9c-0.3,1-0.7,2-1,3c-0.6,1.9-1.9,2.6-3.8,2c-2.1-0.7-3.9-1.7-5.2-3.4c-0.3-0.4-0.6-0.8-0.8-1.3
			c-0.5-1.4,0.8-2.6,2.5-2.2c1.7,0.3,3.3,0.9,5,1.3C75.6,96.4,76.7,96.6,77.8,96.9L77.8,96.9z"/>
		<path class="st3" d="M102.4,123.5c1,0.5,1.9,0.8,2.7,1.2c0.7,0.4,1.4,0.8,2.2,1.2c0.6,0.3,1.2,0.6,1.8,0.9c1,0.6,1,1.7,1.1,2.7
			c0.3,2.3-1,3.8-2.7,5.2C105.7,131,104.1,127.4,102.4,123.5L102.4,123.5z"/>
		<path class="st2" d="M162.1,58.4c-1.2,0.7-2.3,1.6-3.6,2.2c-2.5,1.4-5.2,2-8,2.4c-5.3,0.8-10.7,0.9-16.1,0.9
			c-3.5,0-7,0.4-10.1,2.2c-2.2,1.4-4.3,3-5.4,5.5c-0.7-0.5-0.4-1-0.3-1.5c0.8-2.3,2.3-3.9,4.3-5.1c3.3-2,6.9-3.1,10.8-3.2
			c4.8-0.2,9.5-0.4,14.3-0.9c4.1-0.4,8.1-1.1,11.9-2.9c0.6-0.3,1.4,0.1,2.1,0.1C162,58.2,162,58.3,162.1,58.4L162.1,58.4z"/>
		<path class="st2" d="M119.3,76.8c1.6-0.3,3.3-0.5,4.9-0.8c0.9-0.2,1.7-0.3,2.6-0.6c7.1-2.5,14.5-3.6,22-3.5c2.9,0,5.7,0.4,8.4,1.7
			c0.2,0.1,0.4,0.4,0.6,0.6c-0.3,0.1-0.5,0.4-0.8,0.4c-1.2,0-2.4-0.1-3.6-0.2c-7.7-0.6-15.4-0.1-22.9,1.8c-0.8,0.2-1.6,0.5-2.4,0.8
			c-2.5,0.8-5,0.9-7.6,0.6c-0.3,0-0.6-0.1-0.9-0.2c-0.1,0-0.2-0.1-0.3-0.2C119.3,76.9,119.3,76.9,119.3,76.8L119.3,76.8z"/>
		<path class="st2" d="M159.2,65.6c-0.8,1.2-1.8,1.8-2.9,1.9c-2.3,0.4-4.5,0.5-6.8,0.8c-4.1,0.5-8.2,0-12.4-0.2
			c-4.4-0.3-8.6,0.8-12.2,3.5c-0.8,0.6-1.5,1.5-2.3,2.3c-0.2,0.2-0.2,0.5-0.4,0.6c-0.3,0.2-0.8,0.2-1.1,0.3c0-0.4,0-0.8,0.1-1.1
			c1.9-3.5,5.1-5.2,8.7-6.4c3.9-1.3,7.9-0.9,11.8-0.6c4.5,0.4,9-0.1,13.5-0.6c0.9-0.1,1.8-0.4,2.8-0.6
			C158.3,65.4,158.7,65.5,159.2,65.6L159.2,65.6z"/>
		<path class="st2" d="M148.4,58.8c-2.3,0.8-4.7,1.3-7.2,1.2c-3.1-0.1-6.2-0.5-9.2,0.1c-5.9,1-11.3,2.9-15.8,7
			c-0.2,0.2-0.7,0.2-1.1,0.3c0-0.4-0.1-1.1,0.2-1.3c1.6-1.3,3.1-2.8,4.9-3.8c4-2.2,8.2-3.7,12.8-4.1c1.7-0.1,3.4,0,5.1,0.3
			c3.1,0.4,6.2,0.7,9.3,0.4C147.6,58.8,148,58.8,148.4,58.8L148.4,58.8z"/>
		<path class="st2" d="M114.1,64.2c-0.2-0.3-0.4-0.5-0.7-0.8c2.6-2.7,5.4-5.1,9.2-5.9c0.4-0.1,0.8-0.1,1.2,0c0.2,0,0.4,0.3,0.5,0.4
			c-0.1,0.2-0.3,0.4-0.5,0.5c-2.8,0.7-5,2.4-7.2,3.9C115.8,62.9,115,63.5,114.1,64.2L114.1,64.2z"/>
		<path class="st2" d="M108.7,70.7c-0.7-0.1-1.4-0.1-2.1-0.3c-0.2-0.1-0.4-0.5-0.4-0.8c0-0.1,0.2-0.4,0.4-0.4c0.3,0,0.7,0.1,0.9,0.2
			c0.4,0.3,0.8,0.7,1.2,1.1C108.7,70.5,108.7,70.6,108.7,70.7L108.7,70.7z"/>
	</g>
</g>
</svg>
