<?xml version="1.0" encoding="UTF-8"?><svg id="Layer_1" xmlns="http://www.w3.org/2000/svg" viewBox="0 0 702.69 723.55"><defs><style>.cls-1{fill:#fefefe;}.cls-2{fill:#818943;}.cls-3{fill:#b2bc7f;}.cls-4{fill:#a5a5a0;}.cls-5{fill:#514b4b;}</style></defs><polygon class="cls-4" points="642.18 542.66 328.87 723.55 15.57 542.66 15.57 180.89 328.87 0 642.18 180.89 642.18 542.66"/><g><path class="cls-5" d="M49.84,552.58c-.45-1.21-.76-2.5-1.38-3.6-4.16-7.31-2.6-13.58,3.19-19.28,2.7-2.66,5.41-3.15,8.63-.5,6.41,5.28,12.53,10.92,18.96,16.18,4.42,3.62,9.2,6.78,13.71,10.29,2.96,2.3,5.91,4.66,8.53,7.33,6.3,6.41,14.54,8.36,22.8,10.26,1.08,.25,2.51-.54,3.65-1.09,51.67-25.04,103.37-50.04,154.95-75.26,6.03-2.95,11.48-7.08,17.11-10.8,.71-.47,1.32-1.8,1.23-2.65-.73-6.66-.07-13.07,1.42-19.66,2.66-11.78,4.35-23.78,6.44-35.68,.07-.38-.02-.83,.14-1.16,3.3-6.41-.03-11.16-3.61-16.17-4.31-6.03-8.19-12.38-12.06-18.71-1.03-1.69-1.32-3.83-1.96-5.79-5.52-2.36-11.57-4.46-17.15-7.46-6.31-3.39-11.92-7.83-15.27-14.52-2.16-4.32-2.45-8.71-.63-13.33-13.46-11.48-26.71-23.17-40.39-34.35-40.31-32.92-79.42-67.22-118.32-101.8-26.92-23.93-54.94-46.61-82.34-70-5.33-4.55-10.18-9.69-15.01-14.78-1.32-1.39-2.38-3.58-2.47-5.45-.18-3.53,3.65-5.45,7.12-3.81,1.14,.54,2.16,1.44,3.08,2.33,29.04,28.23,59.96,54.27,91.44,79.73,19.09,15.45,36.72,32.69,55.47,48.58,25.8,21.86,52.14,43.07,78.04,64.81,10.25,8.61,19.93,17.9,29.93,26.82,.73,.65,2.1,1.27,2.9,1.03,6.97-2.13,13.41,.36,19.85,2.23,5.26,1.53,10.37,3.6,16.03,5.61-.83-1.38-1.57-2.72-2.41-4-4.02-6.17-8.9-11.95-9.53-19.72-.24-2.98,.43-6.1-.19-8.97-.47-2.17-1.99-4.4-3.63-5.99-6.88-6.7-14.19-12.96-20.97-19.75-53.9-53.96-107.61-108.1-161.6-161.97-19.25-19.2-39.21-37.7-58.62-56.74-4.71-4.62-8.6-10.07-12.73-15.25-.95-1.2-1.34-2.84-1.24-4.8,6.61,5.18,13.16,10.44,19.84,15.52,26.2,19.91,49.01,43.53,72.23,66.63,53.89,53.6,107.37,107.6,161.04,161.42,4.77,4.79,9.69,9.43,14.45,14.05,15.56-2.22,29.96-.33,40.7,11.02,3.29-.62,6-1.67,8.65-1.54,18.73,.87,37.38,2.48,55.65,7.02,3.4,.85,6.44,.37,8.7-2.72,.6-.82,1.5-1.44,2.32-2.08,8.36-6.58,16.74-13.12,25.07-19.74,.71-.56,1.57-1.81,1.38-2.43-.29-.92-1.35-2.05-2.27-2.24-2.13-.45-4.37-.58-6.56-.53-6.87,.15-12.12-2.8-16.74-7.7-6.05-6.41-8.95-14.03-10.35-22.56-1.96-12.03-2.15-12.07,7.57-19.32,2.93-2.18,4.73-4.24,4.79-8.39,.15-11.01,4.67-19.85,13.88-26.58,4.14-3.02,7.59-7.47,10.22-11.94,5.78-9.82,14.62-15.08,25.01-18,9.38-2.64,18.94-4.02,28.87-3.68,23.02,.79,45.58-2.63,67.86-8.49,7.12-1.88,13.99-3.65,19.99-8.18,1.29-.97,3.83-.28,5.94-.36-1.85,8.61,2.37,13.46,10.69,14.13,11.18,.9,20.62-4.44,30.65-7.71,1.85-.6,3.65-1.44,5.54-1.8,1.18-.23,2.97-.27,3.68,.43,7.5,7.34,17.38,8.12,26.85,10.17,8.86,1.92,17.61,.66,26.39-.37,2.76-.32,5.73-.84,7.2,2.28,1.52,3.21-.73,5.22-2.77,7.39-5.61,5.95-11.54,11.7-16.41,18.22-5.64,7.54-5.37,16.34-2.41,24.97,1.47,4.3,3.64,8.35,5.35,12.58,3.57,8.85,2.18,17.1-4.39,23.84-5.41,5.56-11.89,10.07-17.45,15.5-3,2.93-5.22,6.73-7.52,10.31-3.5,5.44-6.66,5.59-10.75,.61-3.83-4.67-9.41-6.21-14.98-7.7-15.47-4.16-31.19-4.15-46.81-1.87-15.4,2.24-30.65,5.46-45.94,8.38-13.35,2.55-26.68,4.29-40.89,.65,1.24,4.1,2.04,7.96,3.54,11.54,6.36,15.23,7.79,31.08,6.87,47.37-.47,8.44-4.81,15.22-8.04,22.57-7.18,16.3-14.03,32.75-20.96,49.17-5.71,13.53-11.4,27.08-16.97,40.67-3.93,9.58-6.4,19.49-5.93,29.96,.47,10.67-2.87,19.71-11.42,26.49-2.33,1.85-4.71,3.65-7.01,5.54-.55,.45-1.2,1.16-1.24,1.79-.37,6.24-4.61,9.66-9.55,11.83-7.84,3.45-15.91,6.44-24.04,9.15-13.7,4.56-27.53,8.75-41.31,13.07-2.11,.66-4.23,1.36-6.4,1.72-6.26,1.03-8.58-.58-10.11-7.52-6.42,1.83-12.92,3.32-19.17,5.51-40.16,14.1-80.3,28.25-120.38,42.6-20.46,7.33-40.76,15.09-61.11,22.73-1.55,.58-2.87,1.75-4.35,2.56-7.39,4.06-14.51,8.78-22.26,11.97-10.76,4.42-20.65,.66-29.65-5.7-1.03-.73-1.75-2.31-2.05-3.62-3.45-15.1-11.76-26.31-23.58-36.69-11.96-10.49-21.03-24.32-31.09-36.9-3.02-3.77-2.43-7.53,.45-10.23,3.51-3.3,7.54-3.49,11.59-.8,2.19,1.46,4.6,2.59,6.91,3.87-.06,.18-.11,.37-.17,.55,.12,.02,.24,.05,.36,.07-.1-.2-.19-.4-.29-.59l-.02-.03ZM648.36,282.29c6.48-5.51,12.29-10.61,18.27-15.51,11.65-9.53,12.32-11.89,6.07-25.4-2.82-6.1-4.71-12.36-4.75-19.15-.04-9.56,2.04-18.05,10.74-23.66,2.17-1.4,4.32-3.05,5.94-5.02,1-1.21,1.64-3.46,1.2-4.86-.35-1.12-2.51-2.26-3.95-2.37-10.03-.79-19.82-2.65-29.3-6-4.38-1.55-8.66-3.4-13.07-4.87-1.49-.49-3.32-.55-4.86-.19-2,.46-3.88,1.49-5.77,2.35-11.25,5.13-23,7.94-35.42,7.33-7.7-.38-11.09-2.78-12.64-8.49-8.42,2.09-16.73,5.05-25.28,6.07-12.68,1.51-25.53,1.52-38.3,2.43-8.86,.63-17.77,1.28-26.52,2.72-6.6,1.08-12.97,3.49-19.48,5.19-10.63,2.78-17.38,10.21-23.32,18.93,16.66,9.23,16.76,24.57,15.24,40.65,1.87-.72,3.41-1.79,4.95-1.78,1.87,0,4.57,.3,5.47,1.52,2.92,3.97,2.15,8.79,.83,13.07-.64,2.07-3.3,3.52-5.06,5.26,.75,1.17,1.81,3.2,3.22,4.95,9.43,11.69,22.43,16.26,36.65,15.55,10.26-.51,20.62-3.08,30.5-6.12,25.82-7.94,52.1-10.67,78.93-8.84,10.48,.71,21.14,.89,29.68,6.24h.03Zm-199.93,194.62c1.27-4.93,2.08-9.71,3.75-14.17,4.9-13.13,10.06-26.17,15.25-39.18,5.53-13.86,10.97-27.77,16.9-41.45,4.9-11.29,10.7-22.05,11.11-34.94,.52-16.37,.21-32.5-5.47-48.08-.42-1.14-1.89-2.7-2.87-2.7-10.56,.05-21.07,.78-31.12,4.4-1,.36-1.83,1.28-2.64,2.05-2.41,2.3-4.56,4.94-7.19,6.95-8.03,6.13-16.23,12.03-24.33,18,3.26,3.72,6.19,6.66,8.61,9.99,1.15,1.58,1.3,3.89,1.9,5.87-2.1-.44-4.34-.58-6.28-1.4-1.98-.84-3.67-2.36-5.85-3.84,1.21,4.81,2.38,8.93,3.21,13.12,.19,.96-.77,2.16-1.2,3.24-1.11-.48-2.6-.67-3.24-1.5-1.24-1.63-2.03-3.62-2.95-5.48-1.4-2.83-2.75-5.69-4.16-8.61-3.3,2.43-6.05,4.62-8.98,6.52-.87,.56-2.26,.31-3.41,.43,.21-1.04,.16-2.24,.67-3.1,1.63-2.75,3.46-5.38,5.86-9.04-18.64-1.24-36.54-2.43-54.45-3.62-.73,10.32-1.41,19.99-2.12,30.03,2.08,.34,3.96,.8,5.86,.93,23.28,1.64,46.55,3.35,69.85,4.71,3.61,.21,7.72-.48,10.91-2.11,7.75-3.94,14.93-8.99,22.65-12.99,5.03-2.6,8.94-5.99,12.06-10.63,1.94-2.9,4.24-5.59,6.67-8.1,.88-.9,2.6-.98,3.94-1.44-.08,1.42,.29,3.07-.33,4.2-2.16,3.98-4.65,7.78-7.36,12.21,3.53-1.48,6.34-2.88,9.31-3.78,1-.3,3.08,.4,3.41,1.18,.4,.93-.25,2.66-.99,3.63-.74,.96-2.1,1.53-3.29,2.02-4.2,1.73-8.6,3.04-12.64,5.06-11.87,5.93-23.55,12.23-35.44,18.13-2.19,1.09-4.99,1.41-7.48,1.33-6.87-.23-13.73-.95-20.6-1.24-1.07-.05-2.61,.81-3.23,1.73-4.92,7.31-9.65,14.75-14.49,22.12-3.14,4.78-6.37,9.5-9.93,14.79,4.42-.49,8.01-.86,10.17,2.53,2.42,3.81,4.73,7.75,6.58,11.86,4.05,9.02,7.89,18.13,11.59,27.3,1.77,4.4,3.64,8.33,9.2,8.5,.61,.02,1.2,.46,1.8,.73,9.93,4.47,19.86,8.94,30.78,13.86v-.02Zm-305.96,148.31c3.78-2.57,6.16-4.7,8.93-5.95,6.86-3.09,13.92-5.74,20.87-8.64,10.17-4.24,20.31-8.56,30.48-12.8,9.66-4.03,19.34-8.03,29.04-11.97,8.93-3.62,17.87-7.19,26.85-10.68,10.36-4.03,20.74-7.98,31.14-11.89,6.14-2.31,12.29-4.59,18.51-6.67,10.93-3.66,21.93-7.09,32.83-10.8,1-.34,2.17-2.04,2.17-3.11,0-4.56-.01-9.18-.77-13.66-1.6-9.43-3.59-18.79-5.57-28.15-1.06-5-2.26-9.98-3.71-14.87-.51-1.71-1.41-3.71-4.25-2.31-6.7,3.29-13.55,6.28-20.29,9.48-7.21,3.42-14.37,6.96-21.56,10.41-12.51,6.01-25.05,11.99-37.56,18.01-12.29,5.92-24.6,11.77-36.8,17.87-8.09,4.04-16,8.46-23.99,12.71-.69,.37-1.34,.81-2.04,1.14-11.25,5.38-22.5,10.77-33.78,16.09-1.95,.92-4.04,1.54-6.05,2.33-4.39,1.73-8.78,3.44-13.12,5.27-.75,.31-1.39,1.1-1.86,1.82-2.96,4.57-4.19,9.34-4.3,15.05-.13,7.5,2.39,13.96,5.5,20.15,2.18,4.34,6.34,7.7,9.34,11.18h-.01ZM474.27,287.4c-2.78-3.7-5.94-7.54-8.67-11.67-1.44-2.17-2.29-4.78-3.14-7.29-.71-2.09,.11-3.41,2.5-3.8,5.71-.93,6.85-3.02,5.26-9.62-1.2,.6-2.53,.96-3.43,1.79-2.44,2.26-4.75,.41-6.7-.46-.75-.33-.54-3.16-.48-4.85,.08-2.06,.54-4.1,.7-6.16,.92-12.13-4.76-22.56-14.76-27.66-2.35-1.2-3.84-.79-5.89,.74-8.31,6.22-12.29,14.69-14.09,24.64-.45,2.45-1.94,5.06-3.7,6.86-3.59,3.68-7.7,6.87-12.09,10.7,2.41,7.19,4.09,15.21,7.72,22.21,3.59,6.92,9.57,12.33,18.34,12.33,3.69,0,7.19,.23,10.86,.86,3,.51,6.52-3.33,10.06-4.41,5.92-1.8,12.05-2.93,17.52-4.21h-.01Zm-83.13,84.71c-1-.26-1.71-.55-2.43-.61-10.32-.93-20.67-1.65-30.97-2.84-3.85-.44-7.63-1.81-11.34-3.05-2.68-.9-5.14-3.1-7.8-3.31-7.05-.57-14.17-.37-21.23-.47-1.56,4.74-3.28,9.95-5.06,15.36,2.13,.81,4.25,1.7,6.42,2.43,10.93,3.69,22.06,6.84,32.73,11.17,6.87,2.79,13.38,1.8,20.14,1.03,.59-.07,1.26-.43,1.67-.87,5.89-6.17,11.74-12.37,17.87-18.84h0Zm-51.35-17.5c.34-6.47,.13-12.12,1.09-17.57,.75-4.25-.46-7.23-3.39-9.72-8.71-7.41-19.04-10.1-30.08-8.3-8.76,1.43-10.9,6.3-6.54,14.05,3.34,5.95,7.41,11.59,11.88,16.74,1.99,2.29,5.66,3.86,8.76,4.26,5.84,.75,11.81,.41,18.28,.53h0Zm-29.54,3.07c-4.74-1.03-9.49-1.96-14.19-3.11-7.07-1.73-14.05-3.91-21.17-5.37-7.24-1.48-12.8,3.6-10.69,9.42,.73,2.02,2.07,3.89,3.43,5.58,5.8,7.24,13.5,11.53,22.24,14.35,8.03,2.59,13.89-.27,16.29-8.3,1.25-4.21,2.71-8.35,4.09-12.57h0Zm104.28,112.99c7.39,16.58,14.28,32.05,21.23,47.65,7.25-5.99,12.46-12.51,11.33-22.1-.49-4.18-.15-8.87-4.56-11.47-2.39-1.41-5.01-2.44-7.45-3.78-3.12-1.71-6.09-3.7-9.26-5.3-3.35-1.69-6.85-3.06-11.28-5h-.01Zm-75-73.56c-2.57,9.93-5.01,19.37-7.57,29.29,12.9-4.04,24.89-7.8,36.6-11.47,.49-4.52,.94-8.72,1.49-13.88-11.08,3.84-21.08,.25-30.51-3.94h0Zm-15.41,24.98c.33-.19,.66-.39,.99-.58,2.37-9.17,4.74-18.34,7.13-27.58-6.51-3.03-13.07-5.62-19.15-9.07-4.86-2.76-8.66-1.29-12.84,1.18,8.01,12.1,15.94,24.08,23.87,36.05Zm1.56,34.14c-2.26-9.16-4.49-18.19-6.72-27.22l-.8,.34c-1.94,10.21-3.87,20.41-5.87,30.95,4.5-1.37,8.78-2.67,13.39-4.07h0Z"/><path class="cls-1" d="M648.36,282.29c-8.54-5.35-19.2-5.52-29.68-6.24-26.83-1.83-53.11,.9-78.93,8.84-9.89,3.04-20.24,5.61-30.5,6.12-14.23,.71-27.22-3.86-36.65-15.55-1.41-1.75-2.47-3.79-3.22-4.95,1.76-1.75,4.43-3.19,5.06-5.26,1.32-4.28,2.08-9.1-.83-13.07-.9-1.23-3.6-1.52-5.47-1.52-1.54,0-3.08,1.06-4.95,1.78,1.52-16.08,1.42-31.42-15.24-40.65,5.94-8.72,12.69-16.16,23.32-18.93,6.5-1.7,12.88-4.1,19.48-5.19,8.75-1.43,17.66-2.08,26.52-2.72,12.76-.91,25.62-.92,38.3-2.43,8.54-1.02,16.86-3.98,25.27-6.07,1.56,5.72,4.94,8.12,12.65,8.49,12.42,.61,24.16-2.2,35.42-7.33,1.89-.86,3.77-1.89,5.77-2.35,1.53-.36,3.36-.3,4.86,.19,4.41,1.46,8.69,3.32,13.07,4.87,9.49,3.35,19.27,5.21,29.3,6,1.44,.11,3.6,1.25,3.95,2.37,.44,1.4-.21,3.65-1.2,4.86-1.62,1.97-3.77,3.62-5.94,5.02-8.71,5.61-10.79,14.09-10.74,23.66,.03,6.79,1.92,13.05,4.75,19.15,6.25,13.51,5.58,15.87-6.07,25.4-5.98,4.89-11.8,10-18.27,15.51h-.03Zm19.9-88.02c-.15-.41-.3-.82-.46-1.23-3.02-.21-6.6-1.59-8.97-.45-16,7.75-33.15,10.89-50.51,12.5-20.17,1.86-40.44,2.89-60.69,3.65-16.56,.62-31.66,5.13-45.75,13.75-8.65,5.29-15.13,12.15-18.47,21.8-.8,2.29-1.8,4.63,1.09,6.54,4.72-10.94,13.58-17.69,23.13-23.48,13.13-7.97,27.89-9.37,42.87-9.51,22.88-.22,45.75-.54,68.46-3.86,11.91-1.74,23.57-4.29,34.17-10.21,5.19-2.9,10.09-6.31,15.12-9.49h0Zm-181.98,77.91c0,.36,0,.73,.01,1.09,.43,.22,.85,.52,1.31,.66,1.25,.37,2.5,.82,3.78,.96,10.94,1.17,21.77,.85,32.34-2.6,3.46-1.13,6.88-2.42,10.4-3.33,32.04-8.26,64.61-10.1,97.5-7.72,5.04,.36,10.08,.68,15.13,.79,1.06,.02,2.14-1,3.2-1.55-.84-.8-1.55-1.9-2.55-2.37-11.32-5.25-23.47-6.85-35.72-7.05-31.99-.52-63.22,4.07-93.44,14.89-3.53,1.26-7.25,2.05-10.94,2.73-6.98,1.29-14,2.34-21.01,3.5h-.01Zm169.63-47.54c-2.15-.21-3.69-.68-5.12-.44-3.95,.68-7.81,2.03-11.77,2.44-19.1,1.98-38.19,3.95-57.46,2.39-16.82-1.36-33.74-2.73-50.21,2.62-15.28,4.97-29.03,12.19-36.96,27.17-.67,1.27-.37,3.04-.52,4.58,1.62-.45,3.34-.7,4.82-1.43,.82-.4,1.15-1.69,1.86-2.43,3.15-3.26,5.99-6.95,9.6-9.61,15.38-11.33,32.98-15.88,51.82-14.71,17.51,1.09,34.94,3.01,52.5,.9,9.64-1.16,19.36-1.71,28.93-3.27,4.75-.77,9.15-3.31,12.51-8.22h0Zm-45.96-28.8c-1.57,.02-3.15-.07-4.7,.09-13.28,1.32-26.43,.41-39.62-1.49-7.12-1.03-14.48-1.86-21.6-1.24-19.3,1.69-37.41,8.08-54.26,17.34-7.6,4.18-14.04,10.55-20.71,16.27-1.04,.89-.49,3.62-.68,5.49,1.54-.39,3.5-.31,4.54-1.25,19.16-17.3,42.33-25.35,67.21-29.71,13.11-2.3,26.18-.65,39.28-.31,10.43,.27,20.57-1.7,30.54-5.2h0Zm-145.44,23c3.79-2.86,7.18-5.72,10.86-8.15,9.74-6.44,19.04-13.73,30.78-16.5,.76-.18,1.29-1.35,1.92-2.06-.77-.6-1.49-1.59-2.33-1.71-1.63-.24-3.39-.23-5,.11-16.17,3.32-27.95,13.51-39.13,24.88,1.06,1.25,1.96,2.32,2.91,3.44h0Z"/><path class="cls-3" d="M448.43,476.91c-10.92-4.92-20.85-9.39-30.78-13.86-.59-.27-1.19-.71-1.8-.73-5.56-.17-7.43-4.1-9.2-8.5-3.7-9.16-7.54-18.28-11.59-27.3-1.85-4.11-4.16-8.05-6.58-11.86-2.15-3.4-5.75-3.02-10.17-2.53,3.56-5.29,6.79-10.01,9.93-14.79,4.84-7.37,9.57-14.81,14.49-22.12,.62-.92,2.15-1.78,3.23-1.73,6.87,.3,13.73,1.01,20.6,1.24,2.49,.08,5.29-.24,7.48-1.33,11.88-5.9,23.57-12.2,35.44-18.13,4.05-2.02,8.44-3.33,12.64-5.06,1.19-.49,2.55-1.07,3.29-2.02,.74-.96,1.39-2.7,.99-3.63-.33-.78-2.41-1.48-3.41-1.18-2.96,.89-5.77,2.29-9.31,3.78,2.71-4.43,5.2-8.23,7.36-12.21,.61-1.13,.24-2.79,.33-4.2-1.34,.46-3.06,.54-3.94,1.44-2.43,2.5-4.73,5.2-6.67,8.1-3.11,4.64-7.03,8.03-12.06,10.63-7.72,4-14.91,9.05-22.65,12.99-3.19,1.62-7.3,2.32-10.91,2.11-23.29-1.36-46.57-3.07-69.85-4.71-1.9-.13-3.78-.6-5.86-.93,.71-10.04,1.39-19.71,2.12-30.03,17.91,1.19,35.81,2.38,54.45,3.62-2.4,3.66-4.23,6.29-5.86,9.04-.51,.86-.46,2.06-.67,3.1,1.15-.12,2.54,.13,3.41-.43,2.93-1.9,5.68-4.09,8.98-6.52,1.41,2.92,2.76,5.78,4.16,8.61,.92,1.86,1.71,3.85,2.95,5.48,.64,.84,2.13,1.02,3.24,1.5,.43-1.09,1.39-2.28,1.2-3.24-.83-4.19-2-8.31-3.21-13.12,2.19,1.47,3.88,3,5.85,3.84,1.94,.83,4.17,.96,6.28,1.4-.6-1.98-.75-4.29-1.9-5.87-2.41-3.33-5.35-6.27-8.61-9.99,8.1-5.97,16.3-11.87,24.33-18,2.63-2.01,4.78-4.64,7.19-6.95,.81-.77,1.64-1.69,2.64-2.05,10.06-3.62,20.56-4.35,31.12-4.4,.98,0,2.46,1.56,2.87,2.7,5.68,15.58,5.99,31.71,5.47,48.08-.41,12.89-6.21,23.64-11.11,34.94-5.94,13.69-11.37,27.59-16.9,41.45-5.19,13.02-10.36,26.05-15.25,39.18-1.66,4.46-2.47,9.25-3.75,14.17v.02Z"/><path class="cls-2" d="M142.47,625.23c-3-3.48-7.16-6.84-9.34-11.18-3.1-6.18-5.63-12.65-5.5-20.15,.1-5.7,1.34-10.47,4.3-15.05,.46-.72,1.11-1.5,1.86-1.82,4.34-1.83,8.74-3.54,13.12-5.27,2.01-.79,4.1-1.41,6.05-2.33,11.28-5.32,22.53-10.71,33.78-16.09,.7-.34,1.35-.78,2.04-1.14,7.99-4.25,15.9-8.67,23.99-12.71,12.2-6.09,24.52-11.95,36.8-17.87,12.51-6.03,25.04-12,37.56-18.01,7.19-3.46,14.35-6.99,21.56-10.41,6.75-3.2,13.6-6.19,20.29-9.48,2.85-1.4,3.75,.6,4.25,2.31,1.45,4.9,2.65,9.87,3.71,14.87,1.98,9.36,3.97,18.72,5.57,28.15,.76,4.47,.76,9.1,.77,13.66,0,1.07-1.18,2.77-2.17,3.11-10.91,3.71-21.91,7.15-32.83,10.8-6.22,2.08-12.37,4.37-18.51,6.67-10.4,3.91-20.79,7.87-31.14,11.89-8.98,3.49-17.92,7.06-26.85,10.68-9.7,3.94-19.38,7.94-29.04,11.97-10.17,4.24-20.31,8.56-30.48,12.8-6.95,2.9-14.01,5.55-20.87,8.64-2.77,1.25-5.14,3.39-8.93,5.95h.01Z"/><path class="cls-1" d="M474.26,287.41c-5.47,1.28-11.59,2.41-17.52,4.21-3.54,1.08-7.06,4.92-10.06,4.41-3.67-.62-7.18-.86-10.86-.86-8.77,0-14.74-5.41-18.34-12.33-3.63-7-5.31-15.02-7.72-22.21,4.39-3.82,8.49-7.01,12.09-10.7,1.76-1.8,3.25-4.41,3.7-6.86,1.81-9.94,5.79-18.42,14.09-24.64,2.05-1.53,3.54-1.94,5.89-.74,10,5.1,15.68,15.53,14.76,27.66-.16,2.06-.62,4.1-.7,6.16-.06,1.68-.27,4.51,.48,4.85,1.96,.87,4.26,2.72,6.7,.46,.9-.83,2.23-1.19,3.43-1.79,1.59,6.6,.45,8.69-5.26,9.62-2.39,.39-3.21,1.7-2.5,3.8,.85,2.5,1.7,5.12,3.14,7.29,2.73,4.13,5.89,7.97,8.67,11.67h.01Zm-32.72-41.18c-.13-.34-.26-.69-.4-1.03-1.64-1.52-3.17-3.2-4.98-4.49-1.03-.73-2.52-1.04-3.8-1.06-.56,0-1.72,1.33-1.6,1.82,.3,1.27,.95,3.21,1.84,3.45,2.89,.78,5.95,.92,8.94,1.3h0Z"/><path class="cls-3" d="M391.14,372.11c-6.13,6.48-11.98,12.68-17.87,18.84-.42,.43-1.08,.8-1.67,.87-6.75,.77-13.27,1.75-20.14-1.03-10.66-4.33-21.8-7.48-32.73-11.17-2.17-.73-4.29-1.62-6.42-2.43,1.78-5.41,3.5-10.62,5.06-15.36,7.06,.1,14.17-.09,21.23,.47,2.67,.21,5.12,2.41,7.8,3.31,3.71,1.24,7.49,2.61,11.34,3.05,10.29,1.19,20.64,1.9,30.97,2.84,.73,.07,1.43,.35,2.43,.61h0Z"/><path class="cls-1" d="M339.78,354.61c-6.47-.12-12.44,.22-18.28-.53-3.1-.4-6.77-1.97-8.76-4.26-4.47-5.15-8.54-10.79-11.88-16.74-4.35-7.75-2.22-12.62,6.54-14.05,11.04-1.81,21.37,.89,30.08,8.3,2.93,2.49,4.14,5.47,3.39,9.72-.97,5.44-.75,11.1-1.09,17.57h0Z"/><path class="cls-1" d="M310.25,357.67c-1.38,4.21-2.83,8.36-4.09,12.57-2.4,8.03-8.25,10.89-16.29,8.3-8.74-2.82-16.44-7.11-22.24-14.35-1.36-1.7-2.7-3.57-3.43-5.58-2.12-5.83,3.44-10.91,10.69-9.42,7.13,1.46,14.1,3.64,21.17,5.37,4.7,1.15,9.45,2.08,14.19,3.11h0Z"/><path class="cls-2" d="M414.53,470.66c4.43,1.94,7.93,3.32,11.28,5,3.17,1.6,6.14,3.59,9.26,5.3,2.44,1.34,5.06,2.37,7.45,3.78,4.41,2.6,4.07,7.28,4.56,11.47,1.13,9.59-4.07,16.11-11.33,22.1-6.95-15.6-13.84-31.06-21.23-47.65h0Z"/><path class="cls-5" d="M668.26,194.27c-5.03,3.18-9.93,6.59-15.12,9.49-10.61,5.92-22.27,8.47-34.17,10.21-22.71,3.33-45.59,3.64-68.46,3.86-14.98,.15-29.74,1.54-42.87,9.51-9.55,5.79-18.41,12.54-23.13,23.48-2.89-1.92-1.89-4.25-1.09-6.54,3.35-9.65,9.83-16.51,18.47-21.8,14.09-8.62,29.19-13.13,45.75-13.75,20.25-.76,40.52-1.79,60.69-3.65,17.36-1.6,34.51-4.74,50.51-12.5,2.36-1.14,5.95,.24,8.97,.45,.15,.41,.3,.82,.46,1.23h0Z"/><path class="cls-5" d="M486.28,272.19c7-1.15,14.03-2.21,21.01-3.5,3.69-.68,7.42-1.47,10.94-2.73,30.23-10.81,61.46-15.4,93.44-14.89,12.25,.2,24.4,1.79,35.72,7.05,1,.46,1.71,1.56,2.55,2.37-1.07,.54-2.15,1.57-3.2,1.55-5.05-.1-10.09-.42-15.13-.79-32.89-2.38-65.46-.54-97.5,7.72-3.52,.91-6.94,2.2-10.4,3.33-10.57,3.45-21.4,3.78-32.34,2.6-1.28-.14-2.53-.6-3.78-.96-.46-.14-.87-.43-1.31-.66,0-.36,0-.73-.01-1.09h.01Z"/><path class="cls-5" d="M655.91,224.64c-3.37,4.91-7.76,7.45-12.51,8.22-9.57,1.55-19.29,2.11-28.93,3.27-17.55,2.11-34.99,.19-52.5-.9-18.84-1.17-36.44,3.38-51.82,14.71-3.6,2.65-6.45,6.35-9.6,9.61-.71,.74-1.04,2.03-1.86,2.43-1.48,.73-3.2,.98-4.82,1.43,.15-1.54-.15-3.32,.52-4.58,7.93-14.98,21.68-22.2,36.96-27.17,16.47-5.35,33.39-3.98,50.21-2.62,19.28,1.56,38.37-.41,57.46-2.39,3.97-.41,7.82-1.76,11.77-2.44,1.42-.24,2.97,.23,5.12,.44h0Z"/><path class="cls-5" d="M609.95,195.84c-9.97,3.49-20.11,5.47-30.54,5.2-13.1-.34-26.17-1.99-39.28,.31-24.88,4.36-48.05,12.41-67.21,29.71-1.04,.94-3.01,.86-4.54,1.25,.19-1.88-.35-4.6,.68-5.49,6.67-5.72,13.11-12.09,20.71-16.27,16.85-9.26,34.96-15.65,54.26-17.34,7.12-.62,14.47,.21,21.6,1.24,13.18,1.9,26.34,2.81,39.62,1.49,1.56-.15,3.14-.06,4.7-.09h0Z"/><path class="cls-5" d="M464.51,218.82c-.95-1.12-1.85-2.19-2.91-3.44,11.18-11.37,22.96-21.55,39.13-24.88,1.62-.33,3.37-.34,5-.11,.84,.12,1.56,1.11,2.33,1.71-.63,.71-1.16,1.88-1.92,2.06-11.73,2.77-21.04,10.06-30.78,16.5-3.68,2.43-7.07,5.29-10.86,8.15h0Z"/><path class="cls-5" d="M441.55,246.23c-2.99-.38-6.05-.52-8.94-1.3-.89-.24-1.54-2.18-1.84-3.45-.12-.49,1.04-1.83,1.6-1.82,1.29,.02,2.78,.33,3.8,1.06,1.81,1.28,3.34,2.97,4.98,4.49,.13,.34,.26,.69,.4,1.03h0Z"/></g></svg>