<?xml version="1.0" encoding="utf-8"?>
<!-- Generator: Adobe Illustrator 27.0.1, SVG Export Plug-In . SVG Version: 6.00 Build 0)  -->
<svg version="1.1" id="Layer_1" xmlns="http://www.w3.org/2000/svg" xmlns:xlink="http://www.w3.org/1999/xlink" x="0px" y="0px"
	 viewBox="0 0 225 225" style="enable-background:new 0 0 225 225;" xml:space="preserve">
<style type="text/css">
	.st0{fill:#828A43;}
	.st1{fill:#FFFFFF;}
	.st2{fill:#A5A49F;}
	.st3{fill:#524C4C;}
	.st4{fill:#B3BD80;}
	.st5{fill:#677432;}
	.st6{fill:#7F7474;}
	.st7{enable-background:new    ;}
</style>
<g>
	<polygon class="st2" points="203.6,165.1 112.5,217.7 21.4,165.1 21.4,59.9 112.5,7.3 203.6,59.9 	"/>
	<g>
		<path class="st3" d="M29.8,163.5c-0.1-0.3-0.2-0.7-0.4-1c-1.2-2.1-0.7-3.9,0.9-5.5c0.8-0.8,1.5-0.9,2.5-0.1
			c1.8,1.5,3.6,3.1,5.4,4.6c1.3,1,2.6,1.9,3.9,2.9c0.8,0.7,1.7,1.3,2.4,2.1c1.8,1.8,4.2,2.4,6.5,2.9c0.3,0.1,0.7-0.2,1-0.3
			c14.8-7.2,29.6-14.3,44.3-21.5c1.7-0.8,3.3-2,4.9-3.1c0.2-0.1,0.4-0.5,0.4-0.8c-0.2-1.9,0-3.7,0.4-5.6c0.8-3.4,1.2-6.8,1.8-10.2
			c0-0.1,0-0.2,0-0.3c0.9-1.8,0-3.2-1-4.6c-1.2-1.7-2.3-3.5-3.4-5.3c-0.3-0.5-0.4-1.1-0.6-1.7c-1.6-0.7-3.3-1.3-4.9-2.1
			c-1.8-1-3.4-2.2-4.4-4.2c-0.6-1.2-0.7-2.5-0.2-3.8c-3.8-3.3-7.6-6.6-11.5-9.8C66.4,86.7,55.2,76.9,44.1,67
			c-7.7-6.8-15.7-13.3-23.5-20c-1.5-1.3-2.9-2.8-4.3-4.2c-0.4-0.4-0.7-1-0.7-1.6c-0.1-1,1-1.6,2-1.1c0.3,0.2,0.6,0.4,0.9,0.7
			c8.3,8.1,17.1,15.5,26.1,22.8c5.5,4.4,10.5,9.3,15.9,13.9c7.4,6.3,14.9,12.3,22.3,18.5c2.9,2.5,5.7,5.1,8.6,7.7
			c0.2,0.2,0.6,0.4,0.8,0.3c2-0.6,3.8,0.1,5.7,0.6c1.5,0.4,3,1,4.6,1.6c-0.2-0.4-0.4-0.8-0.7-1.1c-1.1-1.8-2.5-3.4-2.7-5.6
			c-0.1-0.9,0.1-1.7-0.1-2.6c-0.1-0.6-0.6-1.3-1-1.7c-2-1.9-4.1-3.7-6-5.6C76.5,74,61.2,58.6,45.7,43.1C40.2,37.7,34.5,32.4,29,26.9
			c-1.3-1.3-2.5-2.9-3.6-4.4c-0.3-0.3-0.4-0.8-0.4-1.4c1.9,1.5,3.8,3,5.7,4.4c7.5,5.7,14,12.4,20.7,19.1C66.7,60,82,75.4,97.3,90.8
			c1.4,1.4,2.8,2.7,4.1,4c4.4-0.6,8.6-0.1,11.6,3.2c0.9-0.2,1.7-0.5,2.5-0.4c5.4,0.2,10.7,0.7,15.9,2c1,0.2,1.8,0.1,2.5-0.8
			c0.2-0.2,0.4-0.4,0.7-0.6c2.4-1.9,4.8-3.8,7.2-5.6c0.2-0.2,0.4-0.5,0.4-0.7c-0.1-0.3-0.4-0.6-0.6-0.6c-0.6-0.1-1.2-0.2-1.9-0.2
			c-2,0-3.5-0.8-4.8-2.2c-1.7-1.8-2.6-4-3-6.5c-0.6-3.4-0.6-3.5,2.2-5.5c0.8-0.6,1.4-1.2,1.4-2.4c0-3.1,1.3-5.7,4-7.6
			c1.2-0.9,2.2-2.1,2.9-3.4c1.7-2.8,4.2-4.3,7.2-5.1c2.7-0.8,5.4-1.1,8.3-1.1c6.6,0.2,13-0.8,19.4-2.4c2-0.5,4-1,5.7-2.3
			c0.4-0.3,1.1-0.1,1.7-0.1c-0.5,2.5,0.7,3.8,3.1,4c3.2,0.3,5.9-1.3,8.8-2.2c0.5-0.2,1-0.4,1.6-0.5c0.3-0.1,0.8-0.1,1.1,0.1
			c2.1,2.1,5,2.3,7.7,2.9c2.5,0.5,5,0.2,7.5-0.1c0.8-0.1,1.6-0.2,2.1,0.7c0.4,0.9-0.2,1.5-0.8,2.1c-1.6,1.7-3.3,3.3-4.7,5.2
			c-1.6,2.2-1.5,4.7-0.7,7.1c0.4,1.2,1,2.4,1.5,3.6c1,2.5,0.6,4.9-1.3,6.8c-1.5,1.6-3.4,2.9-5,4.4c-0.9,0.8-1.5,1.9-2.2,2.9
			c-1,1.6-1.9,1.6-3.1,0.2c-1.1-1.3-2.7-1.8-4.3-2.2c-4.4-1.2-8.9-1.2-13.4-0.5c-4.4,0.6-8.8,1.6-13.1,2.4
			c-3.8,0.7-7.6,1.2-11.7,0.2c0.4,1.2,0.6,2.3,1,3.3c1.8,4.4,2.2,8.9,2,13.5c-0.1,2.4-1.4,4.4-2.3,6.5c-2.1,4.7-4,9.4-6,14.1
			c-1.6,3.9-3.3,7.7-4.9,11.6c-1.1,2.7-1.8,5.6-1.7,8.6c0.1,3.1-0.8,5.6-3.3,7.6c-0.7,0.5-1.3,1-2,1.6c-0.2,0.1-0.3,0.3-0.4,0.5
			c-0.1,1.8-1.3,2.8-2.7,3.4c-2.2,1-4.5,1.8-6.9,2.6c-3.9,1.3-7.9,2.5-11.8,3.7c-0.6,0.2-1.2,0.4-1.8,0.5c-1.8,0.3-2.5-0.2-2.9-2.2
			c-1.8,0.5-3.7,0.9-5.5,1.6c-11.5,4-23,8.1-34.4,12.2c-5.9,2.1-11.7,4.3-17.5,6.5c-0.4,0.2-0.8,0.5-1.2,0.7
			c-2.1,1.2-4.1,2.5-6.4,3.4c-3.1,1.3-5.9,0.2-8.5-1.6c-0.3-0.2-0.5-0.7-0.6-1c-1-4.3-3.4-7.5-6.7-10.5c-3.4-3-6-7-8.9-10.6
			c-0.9-1.1-0.7-2.2,0.1-2.9c1-0.9,2.2-1,3.3-0.2C28.5,162.8,29.2,163.2,29.8,163.5c0,0.1,0,0.1,0,0.2c0,0,0.1,0,0.1,0
			C29.9,163.7,29.8,163.6,29.8,163.5L29.8,163.5z M200.9,86.3c1.9-1.6,3.5-3,5.2-4.4c3.3-2.7,3.5-3.4,1.7-7.3
			c-0.8-1.7-1.3-3.5-1.4-5.5c0-2.7,0.6-5.2,3.1-6.8c0.6-0.4,1.2-0.9,1.7-1.4c0.3-0.3,0.5-1,0.3-1.4c-0.1-0.3-0.7-0.6-1.1-0.7
			c-2.9-0.2-5.7-0.8-8.4-1.7c-1.3-0.4-2.5-1-3.7-1.4c-0.4-0.1-0.9-0.2-1.4-0.1c-0.6,0.1-1.1,0.4-1.6,0.7c-3.2,1.5-6.6,2.3-10.1,2.1
			c-2.2-0.1-3.2-0.8-3.6-2.4c-2.4,0.6-4.8,1.4-7.2,1.7c-3.6,0.4-7.3,0.4-11,0.7c-2.5,0.2-5.1,0.4-7.6,0.8c-1.9,0.3-3.7,1-5.6,1.5
			c-3,0.8-5,2.9-6.7,5.4c4.8,2.6,4.8,7,4.4,11.6c0.5-0.2,1-0.5,1.4-0.5c0.5,0,1.3,0.1,1.6,0.4c0.8,1.1,0.6,2.5,0.2,3.7
			c-0.2,0.6-0.9,1-1.4,1.5c0.2,0.3,0.5,0.9,0.9,1.4c2.7,3.3,6.4,4.6,10.5,4.4c2.9-0.1,5.9-0.9,8.7-1.7c7.4-2.3,14.9-3.1,22.6-2.5
			C195.4,84.7,198.5,84.7,200.9,86.3L200.9,86.3z M143.8,141.9c0.4-1.4,0.6-2.8,1.1-4.1c1.4-3.8,2.9-7.5,4.4-11.2
			c1.6-4,3.1-7.9,4.8-11.9c1.4-3.2,3.1-6.3,3.2-10c0.1-4.7,0.1-9.3-1.6-13.7c-0.1-0.3-0.5-0.8-0.8-0.8c-3,0-6,0.2-8.9,1.3
			c-0.3,0.1-0.5,0.4-0.8,0.6c-0.7,0.7-1.3,1.4-2.1,2c-2.3,1.8-4.6,3.4-7,5.1c0.9,1.1,1.8,1.9,2.5,2.9c0.3,0.5,0.4,1.1,0.5,1.7
			c-0.6-0.1-1.2-0.2-1.8-0.4c-0.6-0.2-1-0.7-1.7-1.1c0.3,1.4,0.7,2.6,0.9,3.8c0.1,0.3-0.2,0.6-0.3,0.9c-0.3-0.1-0.7-0.2-0.9-0.4
			c-0.4-0.5-0.6-1-0.8-1.6c-0.4-0.8-0.8-1.6-1.2-2.5c-0.9,0.7-1.7,1.3-2.6,1.9c-0.2,0.2-0.6,0.1-1,0.1c0.1-0.3,0-0.6,0.2-0.9
			c0.5-0.8,1-1.5,1.7-2.6c-5.3-0.4-10.4-0.7-15.6-1c-0.2,3-0.4,5.7-0.6,8.6c0.6,0.1,1.1,0.2,1.7,0.3c6.7,0.5,13.3,1,20,1.3
			c1,0.1,2.2-0.1,3.1-0.6c2.2-1.1,4.3-2.6,6.5-3.7c1.4-0.7,2.6-1.7,3.4-3c0.6-0.8,1.2-1.6,1.9-2.3c0.3-0.3,0.7-0.3,1.1-0.4
			c0,0.4,0.1,0.9-0.1,1.2c-0.6,1.1-1.3,2.2-2.1,3.5c1-0.4,1.8-0.8,2.7-1.1c0.3-0.1,0.9,0.1,1,0.3c0.1,0.3-0.1,0.8-0.3,1
			c-0.2,0.3-0.6,0.4-0.9,0.6c-1.2,0.5-2.5,0.9-3.6,1.4c-3.4,1.7-6.7,3.5-10.1,5.2c-0.6,0.3-1.4,0.4-2.1,0.4c-2-0.1-3.9-0.3-5.9-0.4
			c-0.3,0-0.7,0.2-0.9,0.5c-1.4,2.1-2.8,4.2-4.1,6.3c-0.9,1.4-1.8,2.7-2.8,4.2c1.3-0.1,2.3-0.2,2.9,0.7c0.7,1.1,1.4,2.2,1.9,3.4
			c1.2,2.6,2.3,5.2,3.3,7.8c0.5,1.3,1,2.4,2.6,2.4c0.2,0,0.3,0.1,0.5,0.2C137.8,139.2,140.6,140.5,143.8,141.9L143.8,141.9z
			 M56.3,184.3c1.1-0.7,1.8-1.3,2.6-1.7c2-0.9,4-1.6,6-2.5c2.9-1.2,5.8-2.4,8.7-3.7c2.8-1.2,5.5-2.3,8.3-3.4c2.6-1,5.1-2.1,7.7-3.1
			c3-1.2,5.9-2.3,8.9-3.4c1.8-0.7,3.5-1.3,5.3-1.9c3.1-1,6.3-2,9.4-3.1c0.3-0.1,0.6-0.6,0.6-0.9c0-1.3,0-2.6-0.2-3.9
			c-0.5-2.7-1-5.4-1.6-8c-0.3-1.4-0.6-2.9-1.1-4.3c-0.1-0.5-0.4-1.1-1.2-0.7c-1.9,0.9-3.9,1.8-5.8,2.7c-2.1,1-4.1,2-6.2,3
			c-3.6,1.7-7.2,3.4-10.7,5.1c-3.5,1.7-7,3.4-10.5,5.1c-2.3,1.2-4.6,2.4-6.9,3.6c-0.2,0.1-0.4,0.2-0.6,0.3c-3.2,1.5-6.4,3.1-9.7,4.6
			c-0.6,0.3-1.2,0.4-1.7,0.7c-1.3,0.5-2.5,1-3.8,1.5c-0.2,0.1-0.4,0.3-0.5,0.5c-0.8,1.3-1.2,2.7-1.2,4.3c0,2.1,0.7,4,1.6,5.8
			C54.2,182.4,55.4,183.3,56.3,184.3L56.3,184.3z M151.1,87.7c-0.8-1.1-1.7-2.2-2.5-3.3c-0.4-0.6-0.7-1.4-0.9-2.1
			c-0.2-0.6,0-1,0.7-1.1c1.6-0.3,2-0.9,1.5-2.8c-0.3,0.2-0.7,0.3-1,0.5c-0.7,0.6-1.4,0.1-1.9-0.1c-0.2-0.1-0.2-0.9-0.1-1.4
			c0-0.6,0.2-1.2,0.2-1.8c0.3-3.5-1.4-6.5-4.2-7.9c-0.7-0.3-1.1-0.2-1.7,0.2c-2.4,1.8-3.5,4.2-4,7c-0.1,0.7-0.6,1.4-1.1,2
			c-1,1.1-2.2,2-3.5,3.1c0.7,2.1,1.2,4.3,2.2,6.4c1,2,2.7,3.5,5.2,3.5c1.1,0,2.1,0.1,3.1,0.2c0.9,0.1,1.9-1,2.9-1.3
			C147.8,88.4,149.6,88.1,151.1,87.7L151.1,87.7z M127.4,111.9c-0.3-0.1-0.5-0.2-0.7-0.2c-3-0.3-5.9-0.5-8.9-0.8
			c-1.1-0.1-2.2-0.5-3.2-0.9c-0.8-0.3-1.5-0.9-2.2-0.9c-2-0.2-4.1-0.1-6.1-0.1c-0.4,1.4-0.9,2.8-1.4,4.4c0.6,0.2,1.2,0.5,1.8,0.7
			c3.1,1.1,6.3,2,9.4,3.2c2,0.8,3.8,0.5,5.8,0.3c0.2,0,0.4-0.1,0.5-0.2C124,115.6,125.6,113.8,127.4,111.9L127.4,111.9z
			 M112.7,106.9c0.1-1.8,0-3.5,0.3-5c0.2-1.2-0.1-2.1-1-2.8c-2.5-2.1-5.4-2.9-8.6-2.4c-2.5,0.4-3.1,1.8-1.9,4c1,1.7,2.1,3.3,3.4,4.8
			c0.6,0.7,1.6,1.1,2.5,1.2C109.1,107,110.8,106.9,112.7,106.9L112.7,106.9z M104.2,107.8c-1.4-0.3-2.7-0.6-4.1-0.9
			c-2-0.5-4-1.1-6.1-1.5c-2.1-0.4-3.7,1-3.1,2.7c0.2,0.6,0.6,1.1,1,1.6c1.7,2.1,3.9,3.3,6.4,4.1c2.3,0.7,4-0.1,4.7-2.4
			C103.4,110.2,103.9,109,104.2,107.8L104.2,107.8z M134.1,140.1c2.1,4.7,4.1,9.2,6.1,13.6c2.1-1.7,3.6-3.6,3.2-6.3
			c-0.1-1.2,0-2.5-1.3-3.3c-0.7-0.4-1.4-0.7-2.1-1.1c-0.9-0.5-1.7-1.1-2.6-1.5C136.3,141.1,135.3,140.7,134.1,140.1L134.1,140.1z
			 M112.6,119.1c-0.7,2.8-1.4,5.5-2.2,8.4c3.7-1.2,7.1-2.2,10.5-3.3c0.1-1.3,0.3-2.5,0.4-4C118.2,121.3,115.3,120.3,112.6,119.1
			L112.6,119.1z M108.2,126.2c0.1-0.1,0.2-0.1,0.3-0.2c0.7-2.6,1.4-5.2,2-7.9c-1.9-0.9-3.7-1.6-5.5-2.6c-1.4-0.8-2.5-0.4-3.7,0.3
			C103.7,119.4,105.9,122.8,108.2,126.2z M108.7,136c-0.6-2.6-1.3-5.2-1.9-7.8l-0.2,0.1c-0.6,2.9-1.1,5.8-1.7,8.8
			C106.1,136.8,107.3,136.4,108.7,136L108.7,136z"/>
		<path class="st1" d="M200.9,86.3c-2.4-1.5-5.5-1.6-8.5-1.8c-7.7-0.5-15.2,0.3-22.6,2.5c-2.8,0.9-5.8,1.6-8.7,1.7
			c-4.1,0.2-7.8-1.1-10.5-4.4c-0.4-0.5-0.7-1.1-0.9-1.4c0.5-0.5,1.3-0.9,1.4-1.5c0.4-1.2,0.6-2.6-0.2-3.7c-0.3-0.4-1-0.4-1.6-0.4
			c-0.4,0-0.9,0.3-1.4,0.5c0.4-4.6,0.4-9-4.4-11.6c1.7-2.5,3.6-4.6,6.7-5.4c1.9-0.5,3.7-1.2,5.6-1.5c2.5-0.4,5-0.6,7.6-0.8
			c3.6-0.3,7.3-0.3,11-0.7c2.4-0.3,4.8-1.1,7.2-1.7c0.4,1.6,1.4,2.3,3.6,2.4c3.6,0.2,6.9-0.6,10.1-2.1c0.5-0.2,1.1-0.5,1.6-0.7
			c0.4-0.1,1-0.1,1.4,0.1c1.3,0.4,2.5,0.9,3.7,1.4c2.7,1,5.5,1.5,8.4,1.7c0.4,0,1,0.4,1.1,0.7c0.1,0.4-0.1,1-0.3,1.4
			c-0.5,0.6-1.1,1-1.7,1.4c-2.5,1.6-3.1,4-3.1,6.8c0,1.9,0.5,3.7,1.4,5.5c1.8,3.9,1.6,4.5-1.7,7.3C204.4,83.2,202.8,84.7,200.9,86.3
			L200.9,86.3z M206.6,61.1c0-0.1-0.1-0.2-0.1-0.4c-0.9-0.1-1.9-0.5-2.6-0.1c-4.6,2.2-9.5,3.1-14.4,3.6c-5.8,0.5-11.6,0.8-17.4,1
			c-4.7,0.2-9.1,1.5-13.1,3.9c-2.5,1.5-4.3,3.5-5.3,6.2c-0.2,0.7-0.5,1.3,0.3,1.9c1.3-3.1,3.9-5.1,6.6-6.7c3.8-2.3,8-2.7,12.3-2.7
			c6.5-0.1,13.1-0.2,19.6-1.1c3.4-0.5,6.7-1.2,9.8-2.9C203.8,63,205.2,62,206.6,61.1L206.6,61.1z M154.6,83.4c0,0.1,0,0.2,0,0.3
			c0.1,0.1,0.2,0.1,0.4,0.2c0.4,0.1,0.7,0.2,1.1,0.3c3.1,0.3,6.2,0.2,9.2-0.7c1-0.3,2-0.7,3-1c9.2-2.4,18.5-2.9,27.9-2.2
			c1.4,0.1,2.9,0.2,4.3,0.2c0.3,0,0.6-0.3,0.9-0.4c-0.2-0.2-0.4-0.5-0.7-0.7c-3.2-1.5-6.7-2-10.2-2c-9.1-0.1-18.1,1.2-26.7,4.3
			c-1,0.4-2.1,0.6-3.1,0.8C158.6,82.7,156.6,83,154.6,83.4L154.6,83.4z M203.1,69.8c-0.6-0.1-1.1-0.2-1.5-0.1
			c-1.1,0.2-2.2,0.6-3.4,0.7c-5.5,0.6-10.9,1.1-16.4,0.7c-4.8-0.4-9.6-0.8-14.4,0.7c-4.4,1.4-8.3,3.5-10.6,7.8
			c-0.2,0.4-0.1,0.9-0.1,1.3c0.5-0.1,1-0.2,1.4-0.4c0.2-0.1,0.3-0.5,0.5-0.7c0.9-0.9,1.7-2,2.7-2.7c4.4-3.2,9.4-4.5,14.8-4.2
			c5,0.3,10,0.9,15,0.3c2.8-0.3,5.5-0.5,8.3-0.9C200.9,71.9,202.1,71.2,203.1,69.8L203.1,69.8z M189.9,61.5c-0.4,0-0.9,0-1.3,0
			c-3.8,0.4-7.6,0.1-11.3-0.4c-2-0.3-4.1-0.5-6.2-0.4c-5.5,0.5-10.7,2.3-15.5,5c-2.2,1.2-4,3-5.9,4.7c-0.3,0.3-0.1,1-0.2,1.6
			c0.4-0.1,1-0.1,1.3-0.4c5.5-4.9,12.1-7.2,19.2-8.5c3.7-0.7,7.5-0.2,11.2-0.1C184.2,63.1,187.1,62.5,189.9,61.5L189.9,61.5z
			 M148.4,68.1c1.1-0.8,2.1-1.6,3.1-2.3c2.8-1.8,5.4-3.9,8.8-4.7c0.2-0.1,0.4-0.4,0.5-0.6c-0.2-0.2-0.4-0.5-0.7-0.5
			c-0.5-0.1-1-0.1-1.4,0c-4.6,0.9-8,3.9-11.2,7.1C147.8,67.5,148.1,67.8,148.4,68.1L148.4,68.1z"/>
		<path class="st4" d="M143.8,141.9c-3.1-1.4-6-2.7-8.8-4c-0.2-0.1-0.3-0.2-0.5-0.2c-1.6,0-2.1-1.2-2.6-2.4
			c-1.1-2.6-2.2-5.2-3.3-7.8c-0.5-1.2-1.2-2.3-1.9-3.4c-0.6-1-1.6-0.9-2.9-0.7c1-1.5,1.9-2.9,2.8-4.2c1.4-2.1,2.7-4.2,4.1-6.3
			c0.2-0.3,0.6-0.5,0.9-0.5c2,0.1,3.9,0.3,5.9,0.4c0.7,0,1.5-0.1,2.1-0.4c3.4-1.7,6.7-3.5,10.1-5.2c1.2-0.6,2.4-1,3.6-1.4
			c0.3-0.1,0.7-0.3,0.9-0.6c0.2-0.3,0.4-0.8,0.3-1c-0.1-0.2-0.7-0.4-1-0.3c-0.8,0.3-1.6,0.7-2.7,1.1c0.8-1.3,1.5-2.4,2.1-3.5
			c0.2-0.3,0.1-0.8,0.1-1.2c-0.4,0.1-0.9,0.2-1.1,0.4c-0.7,0.7-1.4,1.5-1.9,2.3c-0.9,1.3-2,2.3-3.4,3c-2.2,1.1-4.3,2.6-6.5,3.7
			c-0.9,0.5-2.1,0.7-3.1,0.6c-6.7-0.4-13.3-0.9-20-1.3c-0.5,0-1.1-0.2-1.7-0.3c0.2-2.9,0.4-5.6,0.6-8.6c5.1,0.3,10.2,0.7,15.6,1
			c-0.7,1-1.2,1.8-1.7,2.6c-0.1,0.2-0.1,0.6-0.2,0.9c0.3,0,0.7,0,1-0.1c0.8-0.5,1.6-1.2,2.6-1.9c0.4,0.8,0.8,1.7,1.2,2.5
			c0.3,0.5,0.5,1.1,0.8,1.6c0.2,0.2,0.6,0.3,0.9,0.4c0.1-0.3,0.4-0.7,0.3-0.9c-0.2-1.2-0.6-2.4-0.9-3.8c0.6,0.4,1.1,0.9,1.7,1.1
			c0.6,0.2,1.2,0.3,1.8,0.4c-0.2-0.6-0.2-1.2-0.5-1.7c-0.7-1-1.5-1.8-2.5-2.9c2.3-1.7,4.7-3.4,7-5.1c0.8-0.6,1.4-1.3,2.1-2
			c0.2-0.2,0.5-0.5,0.8-0.6c2.9-1,5.9-1.2,8.9-1.3c0.3,0,0.7,0.4,0.8,0.8c1.6,4.5,1.7,9.1,1.6,13.7c-0.1,3.7-1.8,6.8-3.2,10
			c-1.7,3.9-3.3,7.9-4.8,11.9c-1.5,3.7-3,7.4-4.4,11.2C144.4,139.1,144.1,140.5,143.8,141.9L143.8,141.9z"/>
		<path class="st0" d="M56.3,184.3c-0.9-1-2-2-2.7-3.2c-0.9-1.8-1.6-3.6-1.6-5.8c0-1.6,0.4-3,1.2-4.3c0.1-0.2,0.3-0.4,0.5-0.5
			c1.2-0.5,2.5-1,3.8-1.5c0.6-0.2,1.2-0.4,1.7-0.7c3.2-1.5,6.4-3.1,9.7-4.6c0.2-0.1,0.4-0.2,0.6-0.3c2.3-1.2,4.5-2.5,6.9-3.6
			c3.5-1.7,7-3.4,10.5-5.1c3.6-1.7,7.2-3.4,10.7-5.1c2.1-1,4.1-2,6.2-3c1.9-0.9,3.9-1.8,5.8-2.7c0.8-0.4,1.1,0.2,1.2,0.7
			c0.4,1.4,0.8,2.8,1.1,4.3c0.6,2.7,1.1,5.4,1.6,8c0.2,1.3,0.2,2.6,0.2,3.9c0,0.3-0.3,0.8-0.6,0.9c-3.1,1.1-6.3,2-9.4,3.1
			c-1.8,0.6-3.5,1.2-5.3,1.9c-3,1.1-5.9,2.3-8.9,3.4c-2.6,1-5.1,2-7.7,3.1c-2.8,1.1-5.5,2.3-8.3,3.4c-2.9,1.2-5.8,2.4-8.7,3.7
			c-2,0.8-4,1.6-6,2.5C58,183,57.4,183.6,56.3,184.3L56.3,184.3z"/>
		<path class="st1" d="M151.1,87.7c-1.6,0.4-3.3,0.7-5,1.2c-1,0.3-2,1.4-2.9,1.3c-1-0.2-2.1-0.2-3.1-0.2c-2.5,0-4.2-1.5-5.2-3.5
			c-1-2-1.5-4.3-2.2-6.4c1.3-1.1,2.4-2,3.5-3.1c0.5-0.5,0.9-1.3,1.1-2c0.5-2.8,1.7-5.3,4-7c0.6-0.4,1-0.6,1.7-0.2
			c2.9,1.5,4.5,4.4,4.2,7.9c0,0.6-0.2,1.2-0.2,1.8c0,0.5-0.1,1.3,0.1,1.4c0.6,0.2,1.2,0.8,1.9,0.1c0.3-0.2,0.6-0.3,1-0.5
			c0.5,1.9,0.1,2.5-1.5,2.8c-0.7,0.1-0.9,0.5-0.7,1.1c0.2,0.7,0.5,1.5,0.9,2.1C149.4,85.6,150.3,86.7,151.1,87.7L151.1,87.7z
			 M141.8,75.9c0-0.1-0.1-0.2-0.1-0.3c-0.5-0.4-0.9-0.9-1.4-1.3c-0.3-0.2-0.7-0.3-1.1-0.3c-0.2,0-0.5,0.4-0.5,0.5
			c0.1,0.4,0.3,0.9,0.5,1C140.1,75.8,140.9,75.8,141.8,75.9L141.8,75.9z"/>
		<path class="st4" d="M127.4,111.9c-1.8,1.9-3.4,3.6-5.1,5.4c-0.1,0.1-0.3,0.2-0.5,0.2c-1.9,0.2-3.8,0.5-5.8-0.3
			c-3-1.2-6.2-2.1-9.4-3.2c-0.6-0.2-1.2-0.5-1.8-0.7c0.5-1.5,1-3,1.4-4.4c2,0,4.1,0,6.1,0.1c0.8,0.1,1.5,0.7,2.2,0.9
			c1.1,0.4,2.1,0.7,3.2,0.9c2.9,0.3,5.9,0.5,8.9,0.8C126.9,111.8,127.1,111.9,127.4,111.9L127.4,111.9z"/>
		<path class="st1" d="M112.7,106.9c-1.8,0-3.6,0.1-5.2-0.2c-0.9-0.1-1.9-0.6-2.5-1.2c-1.3-1.5-2.4-3.1-3.4-4.8
			c-1.2-2.2-0.6-3.6,1.9-4c3.2-0.5,6.1,0.3,8.6,2.4c0.8,0.7,1.2,1.6,1,2.8C112.7,103.5,112.8,105.1,112.7,106.9L112.7,106.9z"/>
		<path class="st1" d="M104.2,107.8c-0.4,1.2-0.8,2.4-1.2,3.6c-0.7,2.3-2.4,3.1-4.7,2.4c-2.5-0.8-4.7-2-6.4-4.1
			c-0.4-0.5-0.8-1-1-1.6c-0.6-1.7,1-3.1,3.1-2.7c2,0.4,4,1,6.1,1.5C101.5,107.2,102.9,107.5,104.2,107.8L104.2,107.8z"/>
		<path class="st0" d="M134.1,140.1c1.3,0.6,2.3,0.9,3.2,1.4c0.9,0.5,1.8,1,2.6,1.5c0.7,0.4,1.4,0.7,2.1,1.1
			c1.3,0.7,1.2,2.1,1.3,3.3c0.3,2.7-1.2,4.6-3.2,6.3C138.1,149.3,136.2,144.9,134.1,140.1L134.1,140.1z"/>
		<path class="st3" d="M206.6,61.1c-1.4,0.9-2.8,1.9-4.3,2.7c-3,1.7-6.4,2.4-9.8,2.9c-6.5,1-13,1-19.6,1.1c-4.3,0-8.5,0.4-12.3,2.7
			c-2.7,1.7-5.3,3.6-6.6,6.7c-0.8-0.5-0.5-1.2-0.3-1.9c1-2.8,2.8-4.7,5.3-6.2c4-2.5,8.3-3.8,13.1-3.9c5.8-0.2,11.6-0.5,17.4-1
			c5-0.5,9.9-1.4,14.4-3.6c0.7-0.3,1.7,0.1,2.6,0.1C206.5,60.9,206.6,61,206.6,61.1L206.6,61.1z"/>
		<path class="st3" d="M154.6,83.4c2-0.3,4-0.6,6-1c1.1-0.2,2.1-0.4,3.1-0.8c8.6-3.1,17.6-4.4,26.7-4.3c3.5,0.1,7,0.5,10.2,2
			c0.3,0.1,0.5,0.4,0.7,0.7c-0.3,0.2-0.6,0.4-0.9,0.4c-1.4,0-2.9-0.1-4.3-0.2c-9.4-0.7-18.7-0.2-27.9,2.2c-1,0.3-2,0.6-3,1
			c-3,1-6.1,1.1-9.2,0.7c-0.4,0-0.7-0.2-1.1-0.3c-0.1,0-0.2-0.1-0.4-0.2C154.6,83.6,154.6,83.5,154.6,83.4L154.6,83.4z"/>
		<path class="st3" d="M203.1,69.8c-1,1.4-2.2,2.1-3.6,2.4c-2.7,0.4-5.5,0.6-8.3,0.9c-5,0.6-10,0.1-15-0.3c-5.4-0.3-10.4,1-14.8,4.2
			c-1,0.8-1.8,1.8-2.7,2.7c-0.2,0.2-0.3,0.6-0.5,0.7c-0.4,0.2-0.9,0.3-1.4,0.4c0-0.4,0-0.9,0.1-1.3c2.3-4.3,6.2-6.3,10.6-7.8
			c4.7-1.5,9.5-1.1,14.4-0.7c5.5,0.4,11-0.1,16.4-0.7c1.1-0.1,2.2-0.5,3.4-0.7C202,69.6,202.5,69.7,203.1,69.8L203.1,69.8z"/>
		<path class="st3" d="M189.9,61.5c-2.9,1-5.8,1.6-8.7,1.5c-3.7-0.1-7.5-0.6-11.2,0.1c-7.1,1.2-13.7,3.5-19.2,8.5
			c-0.3,0.3-0.9,0.2-1.3,0.4c0.1-0.5-0.1-1.3,0.2-1.6c1.9-1.6,3.7-3.5,5.9-4.7c4.8-2.6,10-4.5,15.5-5c2-0.2,4.1,0.1,6.2,0.4
			c3.8,0.5,7.5,0.8,11.3,0.4C189,61.5,189.5,61.5,189.9,61.5L189.9,61.5z"/>
		<path class="st3" d="M148.4,68.1c-0.3-0.3-0.5-0.6-0.8-1c3.2-3.3,6.6-6.2,11.2-7.1c0.5-0.1,1-0.1,1.4,0c0.2,0,0.4,0.3,0.7,0.5
			c-0.2,0.2-0.3,0.5-0.5,0.6c-3.4,0.8-6,2.9-8.8,4.7C150.4,66.5,149.4,67.3,148.4,68.1L148.4,68.1z"/>
		<path class="st3" d="M141.8,75.9c-0.9-0.1-1.7-0.1-2.6-0.4c-0.3-0.1-0.4-0.6-0.5-1c0-0.1,0.3-0.5,0.5-0.5c0.4,0,0.8,0.1,1.1,0.3
			c0.5,0.4,1,0.8,1.4,1.3C141.7,75.8,141.8,75.9,141.8,75.9L141.8,75.9z"/>
	</g>
</g>
</svg>
