<?xml version="1.0" encoding="utf-8"?>
<!-- Generator: Adobe Illustrator 27.0.1, SVG Export Plug-In . SVG Version: 6.00 Build 0)  -->
<svg version="1.1" id="Layer_1" xmlns="http://www.w3.org/2000/svg" xmlns:xlink="http://www.w3.org/1999/xlink" x="0px" y="0px"
	 viewBox="0 0 417 798" style="enable-background:new 0 0 417 798;" xml:space="preserve">
<style type="text/css">
	.st0{fill:#990612;}
	.st1{fill:#A3A39E;}
	.st2{fill:#514B4B;}
	.st3{fill:#FFFFFF;}
	.st4{fill:#B2BC7F;}
	.st5{fill:#667432;}
	.st6{font-family:'RobotoCondensed-Bold';}
	.st7{font-size:25.0944px;}
	.st8{font-family:'RobotoCondensed-Regular';}
	.st9{fill:#808843;}
</style>
<g>
	<polygon class="st0" points="161,397.3 86,440.6 11,397.3 11,310.7 86,267.4 161,310.7 	"/>
</g>
<g>
	<polygon class="st0" points="402.6,744.3 327.6,787.6 252.6,744.3 252.6,657.7 327.6,614.4 402.6,657.7 	"/>
</g>
<g>
	<polygon class="st0" points="402.6,571.3 327.6,614.6 252.6,571.3 252.6,484.7 327.6,441.4 402.6,484.7 	"/>
</g>
<g>
	<polygon class="st0" points="185,744.3 110,787.6 35,744.3 35,657.7 110,614.4 185,657.7 	"/>
</g>
<g>
	<polygon class="st1" points="178.6,559.3 110.5,612.8 30.1,580.5 17.8,494.8 85.9,441.3 166.3,473.5 	"/>
	<g>
		<path class="st2" d="M97.1,569.2c-0.1,0.9-0.1,1.8-0.3,2.5c-0.9,2.8-4.5,4.3-7.3,2.9c-1.3-0.6-2.4-1.5-3.5-2.1
			c-0.8,0.5-1.5,1.1-2.3,1.3c-0.8,0.1-1.7-0.3-2.7-0.5c-1.5,2.5-3.9,3.6-7,3.5c-3.2,0-5.1-1.8-6.5-4.4c-0.1,0-0.2,0-0.2,0
			c-1.9,2.2-4.5,3-7.3,2.7c-1.1-0.1-2.3-0.4-3.2-0.9c-2-1.1-3.8-2.5-5.7-3.8c-0.6,0.7-1.2,1.5-1.9,2.2c-2.1,2-4.6,2.4-7.2,1.5
			c-2.5-0.9-5.1-2.1-6.5-4.7c-0.5-0.8-0.8-1.8-0.9-2.7c-0.2-1.4-0.2-2.9-0.2-4.4c0-1.2,0.4-2.2,1.3-3.2c-0.8-0.2-1.4-0.3-2.1-0.5
			c-6.3-1.3-11.2-4.6-15.1-9.5c-1.6-2-2.3-4.4-3-6.8c-1.5-5.4-1.7-10.9-0.6-16.5c0-0.2,0.1-0.3,0.1-0.5c0.5-1.9,1.3-2.4,3.2-2.4
			c1.9,0,3.7,0,5.6,0c0.5,0,1.1-0.3,1.6-0.7c0.6-0.5,1.2-1,1.8-1.6c1.7-1.5,3.4-3,5.1-4.6c2.4-2.2,5.3-3.3,8.3-3.9
			c6.2-1.3,12.3-1.1,18.4,0.5c3.9,1,7.3,2.8,10.1,5.8c0.1,0.1,0.4,0.2,0.6,0.2c3.6-0.3,7.3-0.6,10.9-1c0.6-0.1,1.1-0.2,1.5-0.2
			c1.1-4.5,2-8.8,3.1-13.1c0.4-1.5,1-2.9,1.6-4.4c0.4-1.1,1-2.1,1.3-3.3c0.7-2.7,2.7-3.9,5.2-4.2c4.6-0.5,9.3-0.5,13.8,0.7
			c8.7,2.3,17.5,3.4,26.5,3.1c8.4-0.2,16.6-1.4,24.8-2.6c3.7-0.6,7.3-1.7,10.9-2.6c2.9-0.7,5.7-0.7,8.5,0.2c0.8,0.3,1.1,0.7,1,1.5
			c-0.3,6.5-0.6,13-0.8,19.5c0,0.8,0.1,1.6,0.3,2.4c0.6,3.4,1.4,6.9,0.4,10.4c-0.3,0.9-0.5,1.9-1,2.7c-2.1,3.4-4,7-6.3,10.2
			c-2.8,3.8-5.8,7.5-9,10.9c-4.4,4.8-9,9.4-13.6,14c-1.5,1.4-3.3,2.6-5.1,3.7c-2.9,1.8-5.9,3.5-8.9,5.1c-2.9,1.5-5.9,2.7-9.4,2.4
			c-3.4-0.3-6.9,0.2-10.3-0.2c-3.9-0.4-7.8-1.4-11.7-2.1c-0.7-0.1-1.4-0.2-2-0.4c-1-0.4-2-1-3-1.5C97.8,569.9,97.5,569.5,97.1,569.2
			L97.1,569.2z M113.6,550.9c0.2-0.1,0.4-0.3,0.6-0.4c4-3,7.9-6.1,11.9-9c7.1-5.2,14.9-9.4,21.3-15.7c0.3-0.3,1.1-0.3,1.5-0.1
			c0.6,0.3,0.6,1,0.3,1.6c-0.5,0.7-1.1,1.3-1.7,1.9c-3.9,3.6-8.1,6.9-12.6,9.8c-4.7,3-9.4,5.9-13.9,9.1c-3.2,2.4-6.1,5.3-9.1,7.9
			c3,3.9,1.4,10.4-3.8,14.5c2.2,0.1,4.3,0.3,6.5,0.4c4.4,0.3,8.8,0,13.2,1c0.3,0.1,0.8-0.1,1.1-0.3c4.3-2.5,8.6-4.9,12.9-7.4
			c1.7-1,3.3-2.1,4.7-3.4c4.6-4.6,9.2-9.4,13.7-14.2c3.1-3.4,6-7,8.7-10.7c2.2-3,4.1-6.3,6.1-9.6c0.4-0.6,0.6-1.3,0.8-2
			c0.8-2.7,0.2-5.5-0.1-8.2c-0.2-1.5-0.3-3-0.2-4.5c0.1-2,0.3-3.9,0.5-5.9c0.2-2,0.3-4,0.7-6c0.3-1.2,0.6-2.3,0.4-3.6
			c-0.3-1.9-0.3-1.9-2.2-2.1c-0.1,0-0.2,0-0.3,0c-3-0.3-5.7,0.8-8.5,1.4c-3.2,0.7-6.3,1.6-9.6,2.2c-3.3,0.6-6.7,0.7-10,1.2
			c-5.4,0.8-10.8,0.8-16.2,0.7c-6.1-0.2-12.1-0.4-18-2.2c-1.9-0.6-3.8-0.8-5.8-1.3c-1.1,4.2-2.1,8.3-3.2,12.5
			c-0.4,1.4-0.6,2.9-1.1,4.3c-0.2,0.7-0.6,1.3-1,1.9c-0.2,0.2-0.7,0.4-1,0.3c-0.2,0-0.4-0.5-0.4-0.8c-0.1-0.4,0-0.8,0-1.1
			c0.2-5,0.7-10,1.9-14.9c0.2-1,0.4-2,0.6-3.2c-3.2,0.1-6.2,0.1-9.1,0.3c-1.5,0.1-2.6,0.8-3,2.5c-0.3,1.1-0.8,2.1-1.2,3.1
			c-0.7,1.8-1.4,3.5-1.9,5.4c-1,3.6-1.9,7.3-2.8,11c-0.2,0.7,0,1,0.7,1.2c3.8,1.2,7.1,3.3,9.9,6.1c0.8,0.9,1.8,1.6,2.6,2.3
			c0.2-1,0.3-2,0.6-2.9c1.1-2.4,2.7-4.4,4.8-5.9c1.2-0.8,2.7-0.7,3.9,0.1c0.2,0.2,0.4,0.4,0.7,0.6c1.7-1.9,3.4-3.7,5.1-5.6
			c1.8-2,3.8-3.9,6.6-4.3c5.2-0.9,10.2,0.2,14.9,2.3c0.2,0.1,0.3,0.2,0.5,0.3c1.9,1.1,3,2.7,3.4,4.8c0.3,1.3,0.4,2.5,0.6,4
			c1.3-1,2.6-1.9,3.7-2.9c1.1-0.9,2.2-1.9,3.1-3c0.7-0.8,1.3-1.7,2.5-1.6c0.3,0,0.8,0,0.9,0.2c0.2,0.2,0.2,0.7,0,0.9
			c-0.3,0.7-0.7,1.3-1.1,2c-2.3,3.8-6,6-9.3,8.7c-3.7,3-7.8,5.6-10.7,9.6c-0.7,1-1.4,2-2.2,3c-1.8,2-3.6,4-5.4,6
			c-2.3,2.6-4.5,5.2-6.7,7.8c0,0.1-0.1,0.2-0.1,0.2C113.4,551,113.5,550.9,113.6,550.9L113.6,550.9z M64.9,520.6
			c-1.3-1.6-2.7-2.8-4.6-3.3c-0.5-0.1-0.9-0.3-1.3-0.5c-4.2-2.1-8.8-2.5-13.4-2.2c-4,0.3-7.7,1.7-11,4c-3.4,2.4-6.9,4.7-7.7,9.3
			c-0.1,0.7-0.8,0.8-1.3,0.3c-0.4-0.4-0.7-0.8-1-1.3c-0.5-0.6-1-0.9-1.8-1c-1.8-0.1-3.7-0.3-5.5-0.5c-0.8-0.1-1,0.1-1.1,0.8
			c-0.8,5.1-0.6,10.1,0.7,15.1c1.3,5.4,4.7,9.1,9.2,12c3.1,2,6.6,2.9,10.2,3.5c1,0.2,1.9,0.4,2.9,0.3c1.3-0.1,2.6-0.3,3.9-0.5
			c0.3-0.1,0.7-0.2,1-0.4c0.9-0.7,1.8-1.4,2.8-2c0.6-0.4,1.4-0.6,2.1-0.9c-0.4-0.3-0.7-0.6-1-0.9c-1.6-1.4-1.8-3.2-1.1-5.1
			c0.3-0.8,0.8-1.4,1.3-2.1c0.4-0.6,1-1.1,0.5-2c-0.2-0.3,0-0.9,0.1-1.3c0.1-0.7,0.4-1.3,0.5-2c0.2-1.6,0.5-3.1,0.6-4.7
			c0.1-2.6,1.6-4.6,2.8-6.7c1.5-2.6,3.7-4.5,6.2-6C60.7,521.2,62.6,520.5,64.9,520.6L64.9,520.6z M96,534.4c0.2-1.2,0.5-2.4,0.6-3.7
			c0-0.3-0.3-0.7-0.5-1c-0.3-0.4-0.7-0.6-1-1c-1.5-1.9-3-3.9-5.1-5.2c-1.2-0.8-2.5-1.4-3.7-2.2c-1.4-0.8-3.1-1.2-4.7-0.9
			c-5.4,0.8-10.8,1.8-16.2,2.7c-0.2,0-0.3,0.1-0.5,0.1c-1.3,0.4-2.6,1-3.9,1.2c-2.3,0.4-4,1.8-5.5,3.5c-2.6,2.9-3,6.5-3.4,10.1
			c-0.1,1-0.3,2-0.3,3.1c0,0.8,0,1.7,0.4,2.3c0.6,0.8,1.4,1.5,2.3,2.1c1.1,0.9,2.3,1.8,3.5,2.6c1.2,0.8,2.5,1.5,3.8,2.2
			c0.4,0.2,0.8,0.5,1.2,0.5c1.2,0,2.5,0,3.7-0.1c1.5-0.1,2.9,0.1,4.2,1c1.4,0.9,2.9,1.6,4.4,2.4c1.1,0.5,2.1,1,3.3,1.3
			c0.3,0.1,0.7,0.6,1.3,0c0.9-1.1,2.1-1.9,3.1-2.8c0.6-0.5,1.1-1,1.6-1.4c-1.4-1.3-2.8-2.3-3.8-3.5c-1.3-1.7-2.4-3.6-3.6-5.5
			c-0.2-0.2-0.4-0.5-0.7-0.6c-1.8-0.5-3.6-1.1-5.6-0.8c-0.5,0.1-1.1-0.3-1.7-0.5c0-0.1,0-0.3,0.1-0.4c1.8-1.2,3.9-0.5,5.9-0.6
			c-0.8-0.7-1.7-1.4-2.6-1.9c-0.4-0.2-0.9-0.3-1.4-0.4c-1-0.2-2.1-0.2-3.4-0.4c0.6-0.6,0.8-1.1,1.2-1.2c2.4-0.7,4.6-0.3,6.6,1.3
			c0-0.3,0.1-0.4,0-0.4c-0.7-1.3-1.4-2.5-2-3.8c-0.3-0.5-0.4-1.2,0.5-1.8c1.7,2.7,3.3,5.4,5,8.2c0.3-0.2,0.4-0.3,0.5-0.4
			c2-1.7,4.3-2.4,6.8-1.8c0.8,0.2,1.2,0,1.4-0.7c0.3-1,1-1.6,1.9-2.1c1.3-0.8,2.5-1.3,4-0.5C94.6,533.8,95.3,534.1,96,534.4
			L96,534.4z M123.7,523.9c-0.6-0.2-1.1-0.5-1.5-0.5c-1.3-0.1-2.6-0.1-4-0.1c-1.8,0.1-2.1-0.2-1.9-1.9c0.1-0.6-0.1-0.9-0.8-0.8
			c-0.4,0.1-0.9,0.1-1.3,0.3c-2.9,1.4-5.7,2.9-8.6,4.3c-0.3,0.1-0.7,0.1-0.9,0c-0.2-0.1-0.3-0.6-0.2-0.8c0.1-0.3,0.4-0.6,0.5-0.9
			c0.3-0.7,0.8-1.4,0.9-2.2c0.2-1.4-1-2.2-2.3-1.7c-0.5,0.2-1,0.5-1.3,1c-0.9,1.2-1.7,2.5-2.4,3.8c-1.3,2.4-1.3,5.1-1.7,7.7
			c-0.4,2.6,0.2,5.1,1,7.6c1.1,3.4,3.2,6.1,5.3,8.9c0.2,0.2,0.5,0.5,0.7,0.6c1.8,0.6,3.7,0.6,5.5,0.4c0.2,0,0.5-0.2,0.7-0.4
			c2-2.5,3.9-5.1,5.8-7.6c0.1-0.2,0-0.6,0-0.9c0-0.4-0.1-0.9,0.1-1c0.2-0.2,0.7-0.2,1.1-0.2c0.1,0,0.3,0.1,0.3,0.1
			c2.5-2.8,5-5.5,7.4-8.2c0.2-0.2,0.3-0.9,0.2-1.1c-0.7-0.7-0.9-1.5-0.6-2.5c-1.2,0-2.5,0.6-3.2-0.7
			C122.1,525.6,122.9,524.9,123.7,523.9L123.7,523.9z M89.8,540c-0.4-0.2-0.6-0.2-0.8-0.4c-2.1-1.8-4.8-1.2-6.7-0.1
			c-1,0.6-1.4,1.5-0.9,2.5c0.9,2,1.6,4.2,3.4,5.7c1,0.9,1.6,2.2,2.6,3c1,0.8,2.4,1.3,3.6,1.9c0.5,0.3,0.9,0.8,1.3,1
			c1.7,0.7,3.4,1.5,5.1,2.1c0.7,0.3,1.6,0.4,2.3,0.3c2.5-0.6,4.9-1.3,7.4-2c0-1.3-0.6-2.3-1.9-2.9c-0.7-0.4-1.5-0.8-2-1.3
			c-1.1-1.2-2.2-2.5-3.1-3.9c-1.9-2.8-3.9-5.5-4.8-8.8c-0.3-1.3-2-2.1-3.3-1.6C90.1,536.3,89.6,537.8,89.8,540L89.8,540z
			 M84.7,571.1c-1.1-1.4-1.2-2.8-0.8-4.4c0.5-1.6,0.9-3.2,1.4-4.7c-0.8-0.4-1.7-1-2.5-1.4c-2.7-1.4-5.4-2.8-8.2-4.3
			c-1.5-0.8-3-1.6-4.5-2.5c-0.8-0.4-1.6-0.5-2.5-0.4c-2.6,0.2-5.1-0.2-7.7-1c-0.4,0.3-0.8,0.8-1.3,1.2c-0.1,0.1-0.2,0.4-0.2,0.6
			c0.3,0.6,0.6,1.3,1,1.8c0.7,0.9,1.5,1.6,2.2,2.4c0.4,0.5,0.9,1,1.4,1.2c2.2,0.8,4.1,2.1,5.5,4c2.4-1.1,4.8-1.7,7.4-0.9
			c3.6,1.2,5.8,3.9,5.7,7.1c0,0.7,0,1.2,0.8,1.5C83.3,571.8,84,571.9,84.7,571.1L84.7,571.1z M86.7,560.4c0.1,0.1,0.1,0.2,0.2,0.3
			c1.9-1.8,4.1-1.6,6.3-1c1.9,0.6,3.1,1.8,3.3,3.7c0.3,2.5,1.8,4.1,3.8,5.2c0.8,0.4,1.8,0.6,2.7,0.6c2.8-0.2,5.2-1.2,6.5-4
			c0.2-0.5,0.5-0.9,0.8-1.3c1-2.3,1.5-4.6-0.3-6.8c-0.5-0.6-0.9-1-1.7-0.8c-1.8,0.3-3.6,0.4-5.3,0.9c-2.7,0.9-5.3,1-7.9-0.2
			c-1.2-0.6-2.5-1.1-3.7-1.6C89.8,557.1,88.3,558.8,86.7,560.4L86.7,560.4z M50.7,562.1c-1.1-1-2.1-1.9-3.2-2.8
			c-2.5-2-6.5-2.7-9.2,0.5c-0.3,0.3-0.6,0.6-0.9,0.8c-0.6,0.4-0.8,0.9-0.7,1.6c0.1,1.2,0.1,2.3,0.2,3.5c0.1,0.6,0.1,1.3,0.4,1.8
			c1.8,2.7,4.2,4.3,7.4,4.4c2.2,0.1,4.6-2.4,4.4-4.6C48.9,565.5,49.1,563.7,50.7,562.1L50.7,562.1z M61.9,572.5
			c2.7-0.3,4.6-2.2,5.1-4.9c0.1-0.4,0.1-0.8,0.2-1.2c0.2-0.7,0-1.1-0.5-1.6c-2.5-2.8-5.7-3.8-9.3-3.3c-2,0.3-3.8,1.2-5,2.9
			c-0.6,0.9-0.3,1.7-0.4,2.6c-0.1,0.8,0.2,1.3,0.8,1.7c1.5,1,2.9,1.9,4.4,2.9C58.7,572.5,60.3,572.7,61.9,572.5L61.9,572.5z
			 M68.5,571.2c2.8,2.8,3.2,3,6.7,2.9c1.9-0.1,3.7-1.3,4.1-3c0.5-2.2,0-3.7-1.7-5c-2.6-2-5.4-1.8-8.1-0.9
			C69.2,567.2,68.9,569.1,68.5,571.2L68.5,571.2z M89.6,561.3c-0.4,0.2-1.2,0.5-1.7,1c-1.3,1.2-2,2.6-1.8,4.6
			c0.2,2.5,2.7,5.3,5.2,5.5c0.1,0,0.3,0,0.4,0c1.7,0,3.3-2,3.4-3.4c0.2-1.3,0.2-2.7,0.1-4c0-0.5-0.2-1.3-0.5-1.6
			C93.3,562.2,91.8,561.2,89.6,561.3L89.6,561.3z M46.6,557c1.1,0.6,2.1,1,3,1.6c0.9,0.6,1.6,1.4,2.5,2.1c0.2,0.1,0.5,0.1,0.8,0
			c0.9-0.3,1.7-0.7,2.6-0.9c1.5-0.3,2.9-0.4,4.3-0.6c-0.8-1.1-1.6-2.1-2.5-3.1c-0.4-0.5-1-1-1.6-1.1C52.4,554.3,49.4,554.9,46.6,557
			L46.6,557z M58.2,551.1c-3.1-1.7-5.8-3.5-7.8-6.4c-0.3,0.5-0.6,0.9-0.8,1.3c-1.6,2.9-1.3,4.2,0.7,6.1c0.2,0.2,0.7,0.3,1.1,0.3
			c1.1,0,2.3-0.2,3.3,0.1c1.4,0.4,2.4,0.5,3.1-1C57.8,551.4,57.9,551.3,58.2,551.1L58.2,551.1z M113.1,551.3L113.1,551.3
			L113.1,551.3L113.1,551.3z"/>
		<path class="st3" d="M113.4,550.8c2.2-2.6,4.4-5.2,6.7-7.8c1.8-2,3.6-4,5.4-6c0.8-0.9,1.5-2,2.2-3c2.9-4,7-6.6,10.7-9.6
			c3.3-2.7,7.1-4.9,9.3-8.7c0.4-0.7,0.8-1.3,1.1-2c0.1-0.3,0.1-0.7,0-0.9c-0.1-0.2-0.6-0.2-0.9-0.2c-1.2-0.1-1.8,0.8-2.5,1.6
			c-0.9,1.1-2,2.1-3.1,3c-1.2,1-2.4,1.9-3.7,2.9c-0.2-1.4-0.3-2.7-0.6-4c-0.4-2.1-1.6-3.7-3.4-4.8c-0.2-0.1-0.3-0.2-0.5-0.3
			c-4.8-2.1-9.7-3.2-14.9-2.3c-2.7,0.5-4.7,2.3-6.6,4.3c-1.7,1.8-3.4,3.7-5.1,5.6c-0.3-0.2-0.5-0.4-0.7-0.6c-1.2-0.9-2.7-1-3.9-0.1
			c-2.2,1.5-3.8,3.5-4.8,5.9c-0.4,0.9-0.4,1.9-0.6,2.9c-0.8-0.7-1.7-1.5-2.6-2.3c-2.8-2.8-6.1-4.8-9.9-6.1c-0.7-0.2-0.9-0.5-0.7-1.2
			c0.9-3.7,1.8-7.3,2.8-11c0.5-1.8,1.3-3.6,1.9-5.4c0.4-1,0.9-2,1.2-3.1c0.4-1.6,1.5-2.4,3-2.5c3-0.2,5.9-0.2,9.1-0.3
			c-0.3,1.3-0.4,2.3-0.6,3.2c-1.3,4.9-1.7,9.9-1.9,14.9c0,0.4-0.1,0.8,0,1.1c0,0.3,0.2,0.8,0.4,0.8c0.3,0.1,0.8-0.1,1-0.3
			c0.4-0.6,0.8-1.3,1-1.9c0.4-1.4,0.7-2.9,1.1-4.3c1-4.1,2.1-8.3,3.2-12.5c2,0.4,3.9,0.7,5.8,1.3c5.9,1.8,11.9,2,18,2.2
			c5.4,0.2,10.8,0.1,16.2-0.7c3.3-0.5,6.7-0.7,10-1.2c3.2-0.6,6.4-1.5,9.6-2.2c2.8-0.6,5.5-1.7,8.5-1.4c0.1,0,0.2,0,0.3,0
			c1.9,0.2,1.9,0.2,2.2,2.1c0.2,1.3-0.2,2.4-0.4,3.6c-0.4,2-0.5,4-0.7,6c-0.2,2-0.5,3.9-0.5,5.9c-0.1,1.5,0,3,0.2,4.5
			c0.3,2.7,0.9,5.5,0.1,8.2c-0.2,0.7-0.4,1.4-0.8,2c-2,3.2-3.8,6.5-6.1,9.6c-2.7,3.7-5.6,7.3-8.7,10.7c-4.4,4.9-9,9.6-13.7,14.2
			c-1.3,1.4-3,2.4-4.7,3.4c-4.2,2.5-8.6,5-12.9,7.4c-0.3,0.2-0.7,0.3-1.1,0.3c-4.3-0.9-8.8-0.7-13.2-1c-2.1-0.1-4.3-0.3-6.5-0.4
			c5.1-4.1,6.7-10.5,3.8-14.5c3-2.6,5.8-5.5,9.1-7.9c4.5-3.3,9.2-6.2,13.9-9.1c4.5-2.9,8.7-6.2,12.6-9.8c0.6-0.6,1.2-1.2,1.7-1.9
			c0.4-0.5,0.4-1.3-0.3-1.6c-0.4-0.2-1.2-0.2-1.5,0.1c-6.4,6.2-14.2,10.5-21.3,15.7c-4,2.9-7.9,6-11.9,9c-0.2,0.2-0.4,0.3-0.6,0.4
			C113.5,550.9,113.5,550.8,113.4,550.8L113.4,550.8z"/>
		<path class="st4" d="M64.9,520.6c-2.3,0-4.2,0.7-6,1.8c-2.5,1.5-4.7,3.4-6.2,6c-1.2,2.1-2.7,4.1-2.8,6.7c-0.1,1.6-0.3,3.1-0.6,4.7
			c-0.1,0.7-0.4,1.3-0.5,2c-0.1,0.4-0.3,1-0.1,1.3c0.5,0.9-0.1,1.4-0.5,2c-0.5,0.7-1,1.3-1.3,2.1c-0.7,1.9-0.5,3.7,1.1,5.1
			c0.3,0.3,0.6,0.5,1,0.9c-0.8,0.3-1.5,0.5-2.1,0.9c-1,0.6-1.9,1.4-2.8,2c-0.3,0.2-0.6,0.4-1,0.4c-1.3,0.2-2.6,0.5-3.9,0.5
			c-1,0-1.9-0.2-2.9-0.3c-3.6-0.6-7.1-1.4-10.2-3.5c-4.4-2.9-7.9-6.7-9.2-12c-1.2-5-1.4-10-0.7-15.1c0.1-0.7,0.4-0.9,1.1-0.8
			c1.8,0.2,3.6,0.4,5.5,0.5c0.8,0,1.4,0.4,1.8,1c0.3,0.4,0.7,0.9,1,1.3c0.5,0.5,1.2,0.4,1.3-0.3c0.8-4.6,4.3-6.9,7.7-9.3
			c3.3-2.3,7-3.7,11-4c4.6-0.3,9.1,0.1,13.4,2.2c0.4,0.2,0.9,0.4,1.3,0.5C62.2,517.8,63.6,518.9,64.9,520.6L64.9,520.6z"/>
		<path class="st5" d="M96,534.4c-0.7-0.3-1.3-0.6-1.9-0.9c-1.4-0.8-2.7-0.3-4,0.5c-0.9,0.5-1.6,1.1-1.9,2.1
			c-0.2,0.7-0.6,0.8-1.4,0.7c-2.6-0.6-4.9,0-6.8,1.8c-0.1,0.1-0.3,0.2-0.5,0.4c-1.7-2.8-3.4-5.5-5-8.2c-1,0.6-0.8,1.2-0.5,1.8
			c0.6,1.3,1.3,2.5,2,3.8c0,0.1,0,0.2,0,0.4c-2-1.7-4.2-2-6.6-1.3c-0.4,0.1-0.6,0.6-1.2,1.2c1.3,0.1,2.4,0.2,3.4,0.4
			c0.5,0.1,1,0.2,1.4,0.4c0.9,0.6,1.7,1.2,2.6,1.9c-2,0.1-4-0.6-5.9,0.6c0,0.1,0,0.3-0.1,0.4c0.6,0.2,1.1,0.6,1.7,0.5
			c2-0.3,3.7,0.3,5.6,0.8c0.3,0.1,0.6,0.3,0.7,0.6c1.2,1.8,2.2,3.8,3.6,5.5c1,1.3,2.4,2.3,3.8,3.5c-0.5,0.4-1.1,0.9-1.6,1.4
			c-1.1,0.9-2.2,1.8-3.1,2.8c-0.6,0.7-1,0.1-1.3,0c-1.1-0.3-2.2-0.8-3.3-1.3c-1.5-0.7-3-1.4-4.4-2.4c-1.3-0.9-2.7-1.1-4.2-1
			c-1.2,0.1-2.5,0.1-3.7,0.1c-0.4,0-0.8-0.3-1.2-0.5c-1.3-0.7-2.6-1.4-3.8-2.2c-1.2-0.8-2.4-1.7-3.5-2.6c-0.8-0.6-1.7-1.3-2.3-2.1
			c-0.4-0.6-0.4-1.5-0.4-2.3c0-1,0.1-2,0.3-3.1c0.4-3.6,0.9-7.2,3.4-10.1c1.5-1.7,3.1-3.1,5.5-3.5c1.3-0.2,2.6-0.8,3.9-1.2
			c0.1,0,0.3-0.1,0.5-0.1c5.4-0.9,10.8-1.9,16.2-2.7c1.6-0.2,3.2,0.1,4.7,0.9c1.2,0.7,2.5,1.4,3.7,2.2c2.1,1.3,3.6,3.3,5.1,5.2
			c0.3,0.4,0.7,0.6,1,1c0.2,0.3,0.5,0.7,0.5,1C96.4,532,96.2,533.2,96,534.4L96,534.4z"/>
		<path class="st3" d="M123.7,523.9c-0.8,1-1.6,1.8-1,2.9c0.7,1.3,2,0.7,3.2,0.7c-0.4,1-0.1,1.8,0.6,2.5c0.2,0.2,0,0.9-0.2,1.1
			c-2.4,2.7-4.9,5.4-7.4,8.2c0,0-0.2-0.1-0.3-0.1c-0.4,0-0.9,0-1.1,0.2c-0.2,0.2,0,0.7-0.1,1c0,0.3,0.1,0.7,0,0.9
			c-1.9,2.6-3.9,5.1-5.8,7.6c-0.2,0.2-0.4,0.4-0.7,0.4c-1.9,0.2-3.7,0.2-5.5-0.4c-0.3-0.1-0.5-0.3-0.7-0.6c-2.1-2.8-4.2-5.5-5.3-8.9
			c-0.8-2.5-1.4-5-1-7.6c0.4-2.6,0.4-5.3,1.7-7.7c0.7-1.3,1.5-2.5,2.4-3.8c0.3-0.4,0.8-0.8,1.3-1c1.3-0.5,2.5,0.4,2.3,1.7
			c-0.1,0.8-0.6,1.5-0.9,2.2c-0.1,0.3-0.4,0.6-0.5,0.9c-0.1,0.3,0,0.7,0.2,0.8c0.2,0.1,0.7,0.2,0.9,0c2.9-1.4,5.7-2.9,8.6-4.3
			c0.4-0.2,0.9-0.2,1.3-0.3c0.6-0.1,0.9,0.2,0.8,0.8c-0.2,1.8,0.1,2,1.9,1.9c1.3,0,2.6,0,4,0.1C122.6,523.4,123.1,523.7,123.7,523.9
			L123.7,523.9z M112,529c-0.2,0.6-0.4,1-0.3,1.3c0.6,1.2,1.2,2.4,1.9,3.5c0.3,0.5,0.8,0.5,1.2,0.2c0.5-0.3,0.7-0.7,0.4-1.2
			c-0.6-1-1.3-2-2-3C112.9,529.5,112.5,529.4,112,529L112,529z"/>
		<path class="st3" d="M89.8,540c-0.2-2.1,0.2-3.7,2.2-4.5c1.2-0.5,2.9,0.3,3.3,1.6c0.8,3.4,2.8,6.1,4.8,8.8c1,1.4,2,2.7,3.1,3.9
			c0.5,0.6,1.3,1,2,1.3c1.2,0.7,1.9,1.7,1.9,2.9c-2.5,0.7-4.9,1.4-7.4,2c-0.7,0.2-1.6,0-2.3-0.3c-1.7-0.6-3.4-1.3-5.1-2.1
			c-0.5-0.2-0.9-0.7-1.3-1c-1.2-0.7-2.6-1.1-3.6-1.9c-1-0.8-1.6-2.2-2.6-3c-1.8-1.5-2.5-3.7-3.4-5.7c-0.5-1-0.1-1.9,0.9-2.5
			c1.9-1.1,4.6-1.8,6.7,0.1C89.2,539.8,89.4,539.8,89.8,540L89.8,540z M90.6,549.6c0.3,0.6,1.5,1.5,2,1.2c0.3-0.2,0.6-0.6,0.7-1
			c0-0.8-1.3-2-1.7-1.7C91.1,548.5,90.9,549.2,90.6,549.6L90.6,549.6z M97.7,550c-0.1,0-0.3,0-0.4,0c-0.2,0.4-0.6,0.9-0.6,1.3
			c0.1,0.3,0.7,0.6,1,0.8c0.3-0.4,0.7-0.7,0.7-1.1C98.5,550.7,98,550.3,97.7,550z M91.6,542.2c-0.3,0.6-0.7,0.9-0.6,1.2
			c0.1,0.3,0.6,0.8,0.9,0.7c0.3-0.1,0.7-0.6,0.8-0.9C92.6,543,92.1,542.7,91.6,542.2L91.6,542.2z"/>
		<path class="st3" d="M84.7,571.1c-0.7,0.8-1.4,0.7-2.2,0.4c-0.8-0.3-0.8-0.9-0.8-1.5c0-3.2-2.1-5.9-5.7-7.1
			c-2.6-0.9-4.9-0.2-7.4,0.9c-1.4-1.8-3.3-3.1-5.5-4c-0.6-0.2-1-0.8-1.4-1.2c-0.8-0.8-1.6-1.6-2.2-2.4c-0.4-0.5-0.7-1.2-1-1.8
			c-0.1-0.1,0.1-0.4,0.2-0.6c0.4-0.5,0.9-0.9,1.3-1.2c2.6,0.8,5.1,1.2,7.7,1c0.9-0.1,1.7,0,2.5,0.4c1.5,0.8,3,1.7,4.5,2.5
			c2.7,1.4,5.4,2.8,8.2,4.3c0.9,0.5,1.8,1,2.5,1.4c-0.4,1.5-0.9,3.1-1.4,4.7C83.5,568.3,83.6,569.8,84.7,571.1L84.7,571.1z"/>
		<path class="st3" d="M86.7,560.4c1.6-1.7,3.1-3.3,4.7-5c1.2,0.5,2.5,1,3.7,1.6c2.6,1.2,5.2,1.1,7.9,0.2c1.7-0.5,3.5-0.6,5.3-0.9
			c0.7-0.1,1.2,0.3,1.7,0.8c1.7,2.2,1.3,4.5,0.3,6.8c-0.2,0.5-0.5,0.9-0.8,1.3c-1.3,2.8-3.7,3.8-6.5,4c-0.9,0.1-1.9-0.1-2.7-0.6
			c-2.1-1.1-3.6-2.6-3.8-5.2c-0.2-2-1.4-3.2-3.3-3.7c-2.2-0.7-4.4-0.8-6.3,1C86.8,560.6,86.7,560.5,86.7,560.4L86.7,560.4z"/>
		<path class="st3" d="M50.7,562.1c-1.6,1.5-1.8,3.4-1.6,5.4c0.2,2.2-2.2,4.7-4.4,4.6c-3.2-0.1-5.7-1.7-7.4-4.4
			c-0.3-0.5-0.3-1.2-0.4-1.8c-0.1-1.2-0.1-2.3-0.2-3.5c-0.1-0.7,0.2-1.2,0.7-1.6c0.3-0.2,0.7-0.5,0.9-0.8c2.7-3.2,6.7-2.5,9.2-0.5
			C48.6,560.2,49.5,561.1,50.7,562.1L50.7,562.1z"/>
		<path class="st3" d="M61.9,572.5c-1.7,0.2-3.2,0-4.7-0.9c-1.5-1-2.9-1.9-4.4-2.9c-0.6-0.4-0.9-0.9-0.8-1.7
			c0.1-0.9-0.2-1.8,0.4-2.6c1.2-1.8,3-2.7,5-2.9c3.6-0.5,6.8,0.5,9.3,3.3c0.4,0.5,0.7,1,0.5,1.6c-0.1,0.4-0.2,0.8-0.2,1.2
			C66.6,570.3,64.7,572.1,61.9,572.5L61.9,572.5z"/>
		<path class="st3" d="M68.5,571.2c0.4-2.1,0.7-4,1-6c2.8-0.8,5.5-1.1,8.1,0.9c1.6,1.3,2.2,2.7,1.7,5c-0.4,1.7-2.2,2.9-4.1,3
			C71.7,574.2,71.3,574.1,68.5,571.2L68.5,571.2z"/>
		<path class="st3" d="M89.6,561.3c2.2-0.1,3.7,0.9,5.1,2c0.4,0.3,0.5,1,0.5,1.6c0,1.3,0,2.7-0.1,4c-0.2,1.4-1.7,3.5-3.4,3.4
			c-0.1,0-0.3,0-0.4,0c-2.6-0.1-5-2.9-5.2-5.5c-0.1-1.9,0.6-3.3,1.8-4.6C88.4,561.8,89.2,561.6,89.6,561.3L89.6,561.3z"/>
		<path class="st3" d="M46.6,557c2.8-2.1,5.8-2.7,9-2.1c0.6,0.1,1.2,0.6,1.6,1.1c0.9,1,1.6,2,2.5,3.1c-1.4,0.2-2.9,0.3-4.3,0.6
			c-0.9,0.2-1.7,0.6-2.6,0.9c-0.2,0.1-0.6,0.1-0.8,0c-0.8-0.7-1.6-1.5-2.5-2.1C48.7,558,47.7,557.6,46.6,557L46.6,557z"/>
		<path class="st3" d="M58.2,551.1c-0.2,0.2-0.4,0.3-0.5,0.4c-0.7,1.5-1.7,1.4-3.1,1c-1-0.3-2.2,0-3.3-0.1c-0.4,0-0.8-0.1-1.1-0.3
			c-2-1.9-2.3-3.2-0.7-6.1c0.2-0.4,0.4-0.8,0.8-1.3C52.4,547.6,55.1,549.4,58.2,551.1L58.2,551.1z"/>
		<polygon class="st3" points="113.1,551.2 113.1,551.2 113.2,551.2 		"/>
		<path class="st3" d="M113.6,550.9c-0.1,0-0.2,0.1-0.3,0.1c0-0.1,0.1-0.2,0.1-0.2C113.5,550.8,113.5,550.9,113.6,550.9z"/>
		<path class="st2" d="M112,529c0.5,0.4,0.9,0.5,1.1,0.8c0.7,1,1.4,2,2,3c0.3,0.5,0.1,0.9-0.4,1.2c-0.5,0.3-0.9,0.3-1.2-0.2
			c-0.7-1.2-1.3-2.3-1.9-3.5C111.6,530,111.8,529.6,112,529L112,529z"/>
		<path class="st2" d="M90.6,549.6c0.3-0.5,0.5-1.1,0.9-1.4c0.5-0.3,1.7,0.9,1.7,1.7c0,0.3-0.3,0.8-0.7,1
			C92.2,551.1,91,550.3,90.6,549.6L90.6,549.6z"/>
		<path class="st2" d="M97.7,550c0.3,0.4,0.8,0.7,0.8,1.1c0,0.4-0.5,0.7-0.7,1.1c-0.4-0.3-1-0.5-1-0.8c-0.1-0.4,0.4-0.9,0.6-1.3
			C97.4,550,97.6,550,97.7,550z"/>
		<path class="st2" d="M91.6,542.2c0.5,0.5,1,0.8,1,1c0,0.3-0.4,0.8-0.8,0.9c-0.2,0.1-0.8-0.4-0.9-0.7
			C90.9,543.2,91.3,542.8,91.6,542.2L91.6,542.2z"/>
	</g>
</g>
<g>
	<polygon class="st1" points="168.9,242.5 86.4,268.8 22.4,210.5 40.8,125.9 123.3,99.6 187.4,157.8 	"/>
	<g>
		<path class="st2" d="M162.6,163.4c2.8,0.4,5.6,0.8,8.4,1.3c1.9,0.3,2.9,1.8,2.5,3.7c-2.6,14-5.3,28-7.9,42
			c-1.1,5.9-2.1,11.9-3.2,17.8c-0.3,1.8-0.8,2.3-2.6,2.1c-5.6-0.6-11.3-1.2-16.9-1.9c-5.3-0.6-10.7-1.2-16-1.8
			c-4.8-0.6-9.5-1.2-14.3-1.8c-4.5-0.5-8.9-1-13.4-1.5c-4.4-0.5-8.7-1-13.1-1.5c-5.4-0.6-10.9-1.2-16.3-1.9c-3.7-0.4-7.5-1-11.2-1.4
			c-4.5-0.5-8.9-1-13.4-1.6c-3.4-0.5-6.8-1.3-10.1-2.1c-0.5-0.1-1.1-1.1-1-1.6c0.5-4.8,1-9.6,1.6-14.4c0.5-4.3,1-8.5,1.5-12.8
			c0.4-3.7,0.9-7.5,1.3-11.2c0.5-4.4,1-8.7,1.5-13.1c0.5-4.4,1-8.7,1.5-13.1c0.2-1.7,0.3-3.4,1.5-4.9c0.6-0.8,1.1-1.1,2.1-0.9
			c6.9,1.2,13.9,2.2,20.8,3.7c3.8,0.9,7.5,0.1,11.3,0.1c5,0,10.1-0.2,15.1-0.5c9.9-0.5,19.7,0,29.6,0.4c7.1,0.3,14.2,0.5,21.3,0.7
			c4.8,0.2,9.6,0.3,14.5,0.4c2.3,0,2.7,0.4,3,2.6C161.3,154.5,161.9,158.9,162.6,163.4L162.6,163.4z M170.7,167.9
			c-42-7.4-84-14.8-126-22.3c-2.6,22.5-5.1,45-7.6,67.2c40.9,4.8,81.6,9.6,122.5,14.4C163.3,207.5,167,187.8,170.7,167.9
			L170.7,167.9z M81.5,148.4c0,0.1,0,0.2-0.1,0.4c0.5,0.1,0.9,0.3,1.4,0.4c3.5,0.6,6.9,1.1,10.4,1.7c5.2,0.9,10.3,2.5,15.7,2.9
			c5.3,0.4,10.3,2.5,15.7,2.8c4.2,0.3,8.3,1.3,12.4,2c6.8,1.2,13.5,2.5,20.3,3.8c0.7,0.1,1.4,0.1,2.1,0.2c-0.2-0.6-0.3-1.2-0.5-1.8
			c0,0,0-0.1,0-0.1c-0.3-2.6-0.5-5.2-0.9-7.8c-0.1-0.6-0.4-1.6-0.8-1.8c-0.9-0.4-2.1-0.6-3.1-0.7c-3.2-0.2-6.3-0.2-9.5-0.4
			c-1.5-0.1-3-0.2-4.4-0.2c-1.8-0.1-3.6,0-5.3-0.1c-1.6-0.1-3.2-0.2-4.8-0.3c-1.9-0.1-3.7-0.1-5.6-0.1c-1.4-0.1-2.9-0.2-4.3-0.2
			c-1.7,0-3.4,0.1-5.1,0c-1.7-0.1-3.4-0.3-5.1-0.4c-1.2-0.1-2.4-0.1-3.6-0.1c-1.5,0-3,0.1-4.5,0.1c-2.3,0-4.6-0.2-6.9-0.2
			c-2.2,0-4.5,0.2-6.7,0.2C85.9,148.5,83.7,148.4,81.5,148.4L81.5,148.4z"/>
		<path class="st3" d="M170.7,167.9c-3.7,19.9-7.4,39.6-11.1,59.3c-40.9-4.8-81.6-9.6-122.5-14.4c2.5-22.2,5.1-44.7,7.6-67.2
			C86.7,153.1,128.7,160.5,170.7,167.9L170.7,167.9z M89.4,189.6c4.7,0.7,9.4,1.5,14,2.2c5.8,0.8,11.5,1.6,17.3,2.4
			c5.1,0.7,10.3,1.4,15.4,2.1c0.4,0.1,0.9,0,1.3-0.2c1-0.4,1.2-1.5,0.3-2.2c-0.4-0.3-1-0.5-1.5-0.6c-3.8-0.6-7.6-1.1-11.5-1.6
			c-5.1-0.7-10.3-1.3-15.4-2c-4.9-0.6-9.8-1.3-14.7-1.9c-1.8-0.2-3.6-0.5-5.4-0.5c-0.5,0-1.1,0.5-1.6,0.7c0.4,0.4,0.7,0.9,1.1,1.3
			C89,189.5,89.3,189.5,89.4,189.6L89.4,189.6z M90.8,199.3c2.4,0.4,5.2,0.9,8,1.4c5.2,0.8,10.4,1.5,15.5,2.3
			c5.9,0.9,11.8,1.9,17.7,2.9c0.6,0.1,1.2,0.1,1.7-0.1c0.5-0.2,1-0.8,1-1.2c0-0.5-0.4-1.1-0.8-1.4c-0.3-0.3-0.9-0.3-1.4-0.4
			c-5.9-0.8-11.8-1.6-17.7-2.5c-6.6-1-13.2-2.1-19.9-3c-2.2-0.3-4.4-0.4-6.6-0.5c-0.4,0-1,0.5-1,0.8c0,0.4,0.4,1,0.8,1.1
			C88.9,199,89.7,199,90.8,199.3L90.8,199.3z M95.6,183.2c2.3,0.4,4.8,0.8,7.3,1.2c5.1,0.8,10.3,1.5,15.4,2.3
			c4.2,0.6,8.3,1.3,12.5,1.9c1,0.2,2,0,2.1-1.2c0.1-1.2-0.6-1.7-1.8-1.9c-4.1-0.5-8.1-1.1-12.2-1.7c-6.3-0.9-12.6-1.8-18.9-2.7
			c-2-0.3-4.1-0.6-6.1-0.7c-0.5,0-1,0.6-1.4,0.9c0.4,0.5,0.7,1.1,1.2,1.4C94.2,183,94.9,183,95.6,183.2L95.6,183.2z M163.3,170.5
			c-0.4-0.1-0.7-0.3-1-0.4c-4.3-0.5-8.5-0.9-12.8-1.4c-1.2-0.1-2.1,0.2-2.4,1.5c-0.2,0.7-0.4,1.4-0.5,2.1c-0.3,2-0.6,4.1-0.8,6.1
			c-0.3,2.2-0.5,4.3-0.8,6.8c5.3,0.9,10.6,1.8,15.9,2.7C161.7,182.2,162.5,176.4,163.3,170.5L163.3,170.5z M65.7,169.3
			c0-0.3,0-0.5,0.1-0.8c-1.8-0.5-3.5-1-5.3-1.3c-3.3-0.5-6.7-0.9-10-1.3c-0.9-0.1-1.8-0.1-2,0.9c-0.3,1.1,0.6,1.5,1.4,1.8
			c0.4,0.1,0.8,0.1,1.2,0.2c2.7,0.2,5.3,0.6,8,0.7C61.2,169.5,63.4,169.4,65.7,169.3L65.7,169.3z M69.9,155.1c0-0.1,0-0.2,0-0.3
			c-0.1-0.1-0.2-0.1-0.3-0.2c-3.4-0.5-6.7-1.1-10.1-1.6c-3.2-0.5-6.4-1-9.5-1.5c-0.8-0.1-1.5-0.2-1.7,0.9c-0.2,1.1,0.7,1.3,1.3,1.4
			c5.9,0.9,11.8,1.8,17.8,1.5C68.2,155.2,69,155.1,69.9,155.1z M68.8,161.1c0-0.2,0-0.3,0-0.5c-3.6-0.5-7.2-1-10.9-1.5
			c-2.2-0.3-4.4-0.7-6.7-0.8c-0.8,0-2.3-0.4-2.4,1c-0.1,1.3,1.3,1.4,2.3,1.5c3.7,0.3,7.5,0.5,11.2,0.6
			C64.5,161.5,66.6,161.2,68.8,161.1L68.8,161.1z"/>
		<path class="st5" d="M81.5,148.4c2.2,0,4.5,0.1,6.7,0.1c2.2,0,4.5-0.2,6.7-0.2c2.3,0,4.6,0.1,6.9,0.2c1.5,0,3-0.1,4.5-0.1
			c1.2,0,2.4,0.1,3.6,0.1c1.7,0.1,3.4,0.3,5.1,0.4c1.7,0.1,3.4,0,5.1,0c1.4,0,2.9,0.2,4.3,0.2c1.9,0.1,3.7,0.1,5.6,0.1
			c1.6,0.1,3.2,0.2,4.8,0.3c1.8,0.1,3.6,0.1,5.3,0.1c1.5,0,3,0.2,4.4,0.2c3.2,0.1,6.3,0.2,9.5,0.4c1.1,0.1,2.2,0.2,3.1,0.7
			c0.5,0.2,0.7,1.2,0.8,1.8c0.3,2.6,0.6,5.2,0.9,7.8c0,0,0,0.1,0,0.1c0.2,0.6,0.3,1.2,0.5,1.8c-0.7-0.1-1.4-0.1-2.1-0.2
			c-6.8-1.3-13.5-2.6-20.3-3.8c-4.1-0.8-8.2-1.8-12.4-2c-5.4-0.3-10.4-2.4-15.7-2.8c-5.4-0.4-10.4-2-15.7-2.9
			c-3.5-0.6-6.9-1.1-10.4-1.7c-0.5-0.1-0.9-0.2-1.4-0.4C81.4,148.6,81.5,148.5,81.5,148.4L81.5,148.4z"/>
		<path class="st2" d="M89.4,189.6c-0.2-0.1-0.4-0.1-0.6-0.2c-0.4-0.4-0.7-0.9-1.1-1.3c0.5-0.3,1.1-0.7,1.6-0.7
			c1.8,0.1,3.6,0.3,5.4,0.5c4.9,0.6,9.8,1.2,14.7,1.9c5.1,0.7,10.3,1.3,15.4,2c3.8,0.5,7.7,1,11.5,1.6c0.5,0.1,1.1,0.2,1.5,0.6
			c0.9,0.7,0.7,1.8-0.3,2.2c-0.4,0.2-0.9,0.3-1.3,0.2c-5.1-0.7-10.3-1.4-15.4-2.1c-5.8-0.8-11.5-1.5-17.3-2.4
			C98.8,191.1,94.2,190.3,89.4,189.6L89.4,189.6z"/>
		<path class="st2" d="M90.8,199.3c-1.1-0.2-1.9-0.3-2.6-0.6c-0.4-0.2-0.8-0.8-0.8-1.1c0-0.3,0.7-0.9,1-0.8c2.2,0.1,4.4,0.2,6.6,0.5
			c6.6,1,13.2,2.1,19.9,3c5.9,0.9,11.8,1.6,17.7,2.5c0.5,0.1,1.1,0.1,1.4,0.4c0.4,0.3,0.8,0.9,0.8,1.4c0,0.4-0.6,1-1,1.2
			c-0.5,0.2-1.2,0.2-1.7,0.1c-5.9-0.9-11.8-1.9-17.7-2.9c-5.2-0.8-10.4-1.5-15.5-2.3C96.1,200.2,93.3,199.7,90.8,199.3L90.8,199.3z"
			/>
		<path class="st2" d="M95.6,183.2c-0.7-0.2-1.5-0.2-2-0.5c-0.5-0.3-0.8-0.9-1.2-1.4c0.5-0.3,1-0.9,1.4-0.9c2,0.1,4.1,0.4,6.1,0.7
			c6.3,0.9,12.6,1.8,18.9,2.7c4.1,0.6,8.1,1.1,12.2,1.7c1.1,0.2,1.9,0.7,1.8,1.9c-0.1,1.2-1.1,1.3-2.1,1.2
			c-4.2-0.7-8.3-1.3-12.5-1.9c-5.1-0.8-10.3-1.5-15.4-2.3C100.4,184,98,183.6,95.6,183.2L95.6,183.2z"/>
		<path class="st2" d="M163.3,170.5c-0.8,5.9-1.6,11.6-2.5,17.4c-5.4-0.9-10.6-1.8-15.9-2.7c0.3-2.4,0.5-4.6,0.8-6.8
			c0.3-2,0.5-4.1,0.8-6.1c0.1-0.7,0.3-1.4,0.5-2.1c0.3-1.3,1.2-1.6,2.4-1.5c4.3,0.5,8.5,0.9,12.8,1.4
			C162.7,170.2,163,170.4,163.3,170.5L163.3,170.5z M159.9,186.3c0.6-4.6,1.3-9.2,1.9-14.2c-4.4-0.6-8.7-1.1-13.3-1.7
			c-0.6,4.2-1.1,8.2-1.6,12.3c0,0.3,0.4,0.9,0.8,1C151.6,184.6,155.5,185.4,159.9,186.3L159.9,186.3z"/>
		<path class="st2" d="M65.7,169.3c-2.2,0.1-4.5,0.2-6.7,0.1c-2.7-0.1-5.3-0.4-8-0.7c-0.4,0-0.8-0.1-1.2-0.2
			c-0.9-0.3-1.7-0.7-1.4-1.8c0.3-1,1.2-1,2-0.9c3.3,0.4,6.7,0.8,10,1.3c1.8,0.3,3.5,0.9,5.3,1.3C65.7,168.8,65.7,169,65.7,169.3
			L65.7,169.3z"/>
		<path class="st2" d="M69.9,155.1c-0.8,0.1-1.7,0.1-2.5,0.2c-6,0.3-11.9-0.5-17.8-1.5c-0.7-0.1-1.5-0.3-1.3-1.4
			c0.2-1,0.9-1,1.7-0.9c3.2,0.5,6.4,1,9.5,1.5c3.4,0.5,6.7,1.1,10.1,1.6c0.1,0,0.2,0.1,0.3,0.2C69.9,154.9,69.9,155,69.9,155.1z"/>
		<path class="st2" d="M68.8,161.1c-2.1,0.1-4.3,0.4-6.4,0.3c-3.7-0.1-7.5-0.4-11.2-0.6c-1-0.1-2.3-0.1-2.3-1.5c0.1-1.4,1.5-1,2.4-1
			c2.2,0.1,4.5,0.5,6.7,0.8c3.6,0.5,7.2,1,10.9,1.5C68.8,160.8,68.8,160.9,68.8,161.1L68.8,161.1z"/>
		<path class="st4" d="M159.9,186.3c-4.3-0.9-8.2-1.8-12.1-2.7c-0.3-0.1-0.8-0.7-0.8-1c0.5-4.1,1-8.1,1.6-12.3
			c4.6,0.6,8.9,1.2,13.3,1.7C161.1,177.1,160.5,181.8,159.9,186.3L159.9,186.3z"/>
	</g>
</g>
<text transform="matrix(1 0 0 1 98.3193 31.0732)"><tspan x="0" y="0" class="st6 st7">4x </tspan><tspan x="-22" y="30.1" class="st8 st7">Risk of  </tspan><tspan x="-21.6" y="60.2" class="st8 st7">poverty</tspan></text>
<text transform="matrix(1 0 0 1 297.412 186.5732)"><tspan x="0" y="0" class="st6 st7">3x </tspan><tspan x="-22" y="30.1" class="st8 st7">Risk of  </tspan><tspan x="-58.2" y="60.2" class="st8 st7">unemployment</tspan></text>
<g>
	<polygon class="st1" points="393.5,379 329.4,437.3 246.9,410.9 228.5,326.3 292.5,268 375,294.4 	"/>
	<g>
		<path class="st3" d="M273.8,407.2c0.6,1.6,0.9,3.3,0.7,5c-0.1,0.9-0.5,1.6-1.2,2.1c-1.3,0.9-2.7,1.3-4.2,1.2
			c-1.2,0-2.2-0.9-2.2-2.1c0.1-1.6,0.3-3.2,0.5-4.9c0-0.2,0.4-0.5,0.6-0.6C269.9,407.8,271.8,407.5,273.8,407.2L273.8,407.2z"/>
		<g>
			<path class="st2" d="M277.8,337c0.4,0.1,0.9,0.2,1.4,0.4c0.4,0.2,1.1,0.6,1.1,1c0.1,0.4-0.3,1.1-0.7,1.4c-0.5,0.4-0.8,0.7-1,1.4
				c-0.2,0.8-0.8,1.1-2.1,1c-0.7,1-0.8,1.6,0,2.7c0.9,1.2,1.2,2.6,1.7,4c0.3,0.8,0.1,1.6-0.3,2.4c-0.9,1.7-2.3,2.8-4,3.6
				c-0.4,0.2-0.8,0.5-1.2,0.7c-0.9,0.5-1,0.9-0.5,1.8c0.7,1.4,1.5,2.8,2.2,4.2c0.5,1,0.9,1,1.6,0.1c0.5-0.7,0.9-1.4,1.5-2
				c1.1-1.1,2.2-2.2,3.5-3.1c0.7-0.5,1.4-0.2,2.2,0.1c2.1,0.9,4.2,1.8,6.4,2.6c1.5,0.5,3.2,0.7,4.7,1.2c2.5,0.8,5,1.2,7.6,1.5
				c2.6,0.4,5.1,0.9,7.6,1.5c0.5,0.1,0.8,0,1.1-0.4c1.7-2.5,2.9-5.2,3.6-8.1c0.8-3.4,1.6-6.8,2.3-10.1c0.1-0.6,0.3-1.1-0.5-1.5
				c-0.3-0.1-0.4-0.7-0.4-1.1c-0.1-1.2,0-2.4-0.1-3.8c-1.3-0.2-2.7-0.6-4.1-0.7c-3.2-0.4-5.5-2.1-7.4-4.5c-0.9-1.1-1.1-2.5-1-4
				c-0.6-0.2-1.1-0.5-1.7-0.7c-0.8-0.3-1.3-0.8-1.4-1.6c-0.2-1.8-0.4-3.7-0.7-5.5c-0.1-0.4-0.2-0.9-0.5-1.2
				c-0.8-0.9-1.6-1.7-2.5-2.5c-1.7-1.4-2.6-3.2-3-5.4c-0.5-2.5-1.2-5-1.8-7.5c-0.2-0.6-0.2-1.3-0.4-2c-1.4,0.6-1.9,0.5-2.8-0.7
				c-0.3-0.3-0.5-0.7-0.7-1.1c-0.5-0.8-0.5-1.5-0.1-2.4c2-4.5,3.8-9.1,5.9-13.5c2.6-5.4,6.2-9.9,11.9-12.3c3.5-1.5,6.9-1.4,10.4-0.2
				c1,0.3,2,0.6,3,0.8c2.7,0.4,4.9,1.9,6.8,3.6c2.8,2.5,5.3,5.3,7.3,8.4c1.4,2.2,2.4,4.6,3.2,7.1c1.5,4.6,1.5,9.3,1.3,14.1
				c-0.1,3.2,0.1,6.5,0.2,9.8c0,0.1,0.1,0.2,0.1,0.4c0.9-0.9,1.8-1.8,2.7-2.6c0.9-0.9,1.4-0.7,1.9,0.4c1.7,3.4,3.4,6.7,5.2,10.1
				c0.1,0.2,0.3,0.4,0.5,0.5c2.9,1,5.6,2.6,8.2,4.2c1.1,0.7,2.3,1.1,3.2,1.9c2.5,2.2,5.5,3.9,8.2,5.8c1.8,1.3,2.8,3.1,3.3,5.2
				c2.1,9.1,4.2,18.1,6.4,27.2c0.9,4,1.9,7.9,2.9,11.9c0.6,2.4,1.6,4.6,2.1,7c0.8,3.5,1.3,7.1,1.9,10.6c0.2,1.4,0.5,2.8,0.8,4.3
				c-1,0.5-2,1.1-3,1.6c-3.3,1.7-6.7,3.4-10,5.1c-1.1,0.6-2.4,0.7-3.6,0.8c-2.2,0.2-4.4,0.6-6.5,1c-1.9,0.3-3.8,0.9-5.7,1.1
				c-1.7,0.1-3.5-0.1-5.2-0.4c-1.3-0.2-2.5-0.1-3.7,0.5c-3.9,2.2-7.8,4.3-11.7,6.5c-0.3,0.2-0.6,0.3-0.9,0.5c-2,1-3.3-0.1-3.4-2.1
				c-0.5-6.1-0.9-12.3-1.4-18.4c-0.2-2-0.4-4-0.6-6.1c-4.8-0.1-9.5-0.1-14.2-0.2c0.2,0.8-0.2,1-0.9,1c-0.8,0-1.5,0-2.3,0.1
				c-0.8,0-1,0.3-0.8,1.1c0.2,0.7,0.4,1.3,0.7,2c2.2,5.3,4.4,10.6,6.8,15.8c1.2,2.7,2.6,5.4,4.1,7.9c0.4,0.7,1.4,1.1,2.2,1.5
				c1.9,1.2,3.9,2.2,5.7,3.5c0.9,0.6,1.6,1.5,2.2,2.4c0.8,1.1,0,2.6-1.3,3c-2.4,0.7-4.6,0.2-6.8-0.7c-3.3-1.3-6.6-2.3-10.1-2.8
				c-1.8-0.2-2.4-1.1-2.1-2.6c0-0.2,0-0.4-0.1-0.6c-3-3.9-5.3-8.3-7.4-12.8c-1.2-2.5-2.4-4.9-3.5-7.4c-0.3-0.6-0.6-0.7-1.3-0.6
				c-1.6,0.4-3.2,0.7-4.9,0.9c-0.6,0.1-1,0.3-1.3,0.8c-1.2,2.1-3.2,3-5.4,3.5c-1.6,0.3-2.8-0.4-3.7-1.6c-2.7,0.7-5.3,1.4-8,2
				c0,0.9,0,2-0.1,3.1c-0.4,3.1-3.8,4.8-6,5.2c-1.9,0.3-3.6-0.1-4.8-1.7c-0.4-0.6-0.7-1.3-1-1.8c-5.2,1-10.3,2-15.6,3
				c-0.4-2.3-0.9-4.4-1.3-6.7c2.6-0.6,5.2-1.1,7.7-1.7c-1.1-3.3-1.6-6.5-1.4-9.9c0.4-7.9,0.7-15.8,1.1-23.7c0.2-3,0.6-6.1,1.1-9.1
				c0.2-1.2,0.6-2.3,1.1-3.4c0.3-0.7-0.3-1-0.6-1.4c-0.1-0.2-0.8-0.1-1,0.1c-1.2,0.8-2.4,1.6-3.6,2.4c-1.2,0.8-2.1,0.3-2.3-1.1
				c0-0.3-0.2-0.5-0.3-0.8c-0.1,0-0.2,0-0.3,0.1c0,0.2-0.1,0.3-0.1,0.5c-0.3,1-1,1.2-1.8,0.5c-0.6-0.5-1-1.2-1.1-2
				c0-0.5-0.2-0.9-0.4-1.2c-0.4-0.3-1.1-0.4-1.2-0.8c-0.3-0.7,0.1-1.3,0.9-1.7c-0.8-0.7-1.5-0.7-2.4,0c-0.4,0.3-0.8,0.7-1.3,0.9
				c-1.1,0.5-2,0-2-1.3c0-0.7-0.2-0.8-0.8-0.8c-1.9,0-3.1-1.5-2.6-3.3c0.1-0.3,0.5-0.6,0.7-0.9c0.2-0.3,0.3-0.6,0.5-0.9
				c-0.3-0.1-0.5-0.2-0.8-0.3c-0.8-0.1-1.1-0.7-1.2-1.4c-0.1-0.8,0.5-1.6,1.2-1.8c0.4-0.1,0.8,0,1.2-0.1c0.4-0.1,0.7-0.3,1.1-0.5
				c-0.2-0.3-0.4-0.7-0.6-1c-0.2-0.3-0.6-0.4-0.8-0.6c-0.5-0.5-1-0.8-1.7-0.8c-1.4-0.1-1.8-1.1-1-2.5c-1.2-1.3-1-1.7,0.3-2.8
				c0.5-0.4,1.1-1.1,0.8-2c-0.3-0.8,0.2-1.3,1.1-1.4c0,0,0.1,0.1,0.1,0.1c0.2,0.5,0.4,1.2,1.2,0.9c0.8-0.3,0.5-1.1,0.4-1.6
				c-0.1-0.3-0.3-0.6-0.5-0.8c-0.7-0.7-0.9-1.5-0.7-2.5c0.3-1.1,0.7-2.3,1.1-3.4c0.7-1.8,2.1-2.6,4-2.7c0.3,0,0.7,0.2,1,0.4
				c0.4,0.3,0.9,0.5,1.2,0c0.2-0.3,0.2-0.8,0.1-1.2c-0.2-0.7-0.5-1.3-0.7-2c-0.2-0.9,0.6-1.6,1.6-1.4c0.9,0.2,1.6-0.2,2.4-0.5
				c0.9-0.4,1.9-0.7,2.8-0.8c1.2-0.2,1.9,0.4,2.1,1.6c0.1,0.3,0.3,0.5,0.6,0.7c0-0.8,0-1.5,0-2.3c0.1-1.4,2.1-2.6,3.4-2.1
				c0.3,0.1,0.4,0.6,0.7,1c0.7-0.8,1.6-1.9,2.8-1.3c0.9,0.5,1.7,1.4,2.6,2.1c0-0.1,0.1-0.3,0.3-0.4c0.5-0.3,1.1-0.8,1.6-0.7
				c0.6,0.1,1.4,0.2,1.7,1.1c0.2,0.7,0.5,1.3,0.8,2.1c0.9-0.9,1.7-1.9,3.2-1.4c1.1,0.3,1.8,1.4,1.9,2.8c1.8,0,2.4,0.2,2.6,1.1
				c0.3,0.9-0.1,1.5-1.4,2.3c0.1,0.7,0.3,1.3,1.3,1.1c0.9-0.1,1.7,0.4,2.3,1.1c0.7,0.8,0.5,1.7-0.3,2.6c-0.3,0.3-0.7,0.6-1.2,1.1
				c1,0.2,1.9,0.4,1.8,1.4C278.3,335.5,278,336.2,277.8,337L277.8,337z M338.7,377.8c0,0.9-0.1,1.7-0.1,2.4c0,0.7,0,1.5-0.1,2.2
				c-0.1,0.3-0.4,0.8-0.7,0.9c-0.3,0-0.8-0.4-0.9-0.7c-0.5-1.2-0.9-2.5-1.2-3.8c-0.2-0.7-0.5-0.9-1.1-0.7c-1.9,0.5-3.7,0.9-5.6,1.4
				c-6.6,1.9-13.3,3.1-19.8,5.6c0.1,0.2,0.1,0.4,0.2,0.5c1,1.4,2,2.8,3,4.2c0.7,1,1.5,1.4,2.8,1.3c4.1-0.3,8.3-0.2,12.4-0.5
				c7.7-0.5,15.3-0.9,23-0.7c0.9,0,1.4-0.3,1.6-1.2c0.3-1.2,0.8-2.4,1.1-3.7c1.2-4.5,2.3-9,3.5-13.5c0.6-2,1.3-4,1.9-6
				c1.4,0.2,1.5,0.4,1.1,1.6c-0.6,1.7-1.1,3.5-1.7,5.2c-1.8,5.9-3.8,11.8-4.8,18.1c-7.1,0.9-14.2,1.8-21.4,2.7
				c0.7,7.9,1.5,15.8,2.3,23.7c0,0,0.1,0,0.3-0.1c4.6-2.6,9.3-5.2,13.9-7.9c1.3-0.7,2.5-0.8,3.8,0c0.6,0.3,1.3,0.8,1.9,0.7
				c1.7-0.1,3.4-0.2,5.1-0.6c2.8-0.7,5.5-1.5,8.4-1.7c1.5-0.1,3.1-0.6,4.4-1.3c3.4-1.9,6.7-4,10.2-6.1c-0.3-0.8-0.8-1.6-1.1-2.5
				c-1.2-4.4-2.4-8.8-3.5-13.2c-2.2-8.8-4.3-17.6-6.5-26.5c-1.1-4.7-2.4-9.4-3.4-14.1c-0.4-1.7-1.1-2.9-2.4-3.9c-2.8-2-5.6-4-8.5-6
				c-1.8-1.2-3.7-2.4-5.5-3.5c-0.8-0.5-1.6-0.8-2.5-1.2c-0.6,1.1-1.2,2.1-1.7,3.2c-1.4,3.2-2.7,6.4-4.1,9.6
				c-0.1,0.2-0.2,0.5-0.3,0.7c-0.2,1.1-0.5,1.4-1.7,1.4c-0.5,0-1-0.1-1.5-0.1c-1.5-0.1-2.9-0.1-4.4-0.1c-0.2,2.9-0.3,5.7-0.4,8.5
				c-0.1,1.8,0,3.7,0,5.5c0,1.2-0.9,1.7-1.9,1.1c-0.2-0.1-0.3-0.2-0.6-0.4c-0.4,5.7-0.9,11.2-0.5,16.9c1.6-0.4,3-0.9,4.5-1.1
				c0.9-0.2,1.2-0.6,1.3-1.4c0.6-3.6,1.1-7.2,1.8-10.8c0.9-5,2.3-9.8,4.7-14.3c0.7-1.3,1.5-2.8,3-3.3c2-0.6,4-0.8,6-0.3
				c0.4,0.1,0.8,0.4,1.1,0.6c-1.5,0.7-2.9,1.3-4.3,1.9c-1.1,0.4-2,0.9-2.6,2c-2,3.5-3.7,7.1-4.9,10.9c-1.3,4.2-2.2,8.5-3.3,12.8
				c0,0.1,0,0.2,0.1,0.3c0.2-0.1,0.4-0.1,0.5-0.2c1.5-1.1,3.3-1.3,5-1.7c0.6-0.1,1.1,0.1,1.3,0.7c0.2,0.6-0.1,1-0.6,1.3
				c-0.3,0.2-0.7,0.3-1,0.4c-1.4,0.5-2.7,1-4.3,1.7c1.2,0.8,2.1,1.5,2.9,2.1c0.6,0.5,1.3,0.9,1.7,1.5c0.2,0.4,0.3,1.1,0,1.5
				c-0.2,0.3-0.8,0.5-1.3,0.5c-0.3,0-0.7-0.3-1-0.4C341,379.2,339.9,378.5,338.7,377.8L338.7,377.8z M296.1,315.6
				c0.4,0.4,0.8,0.8,1.2,1.2c1.1,1.2,2.2,2.3,3.2,3.6c0.2,0.3,0.3,0.8,0.4,1.2c0.1,1.4,0.1,2.7,0.3,4.1c0.1,0.4,0.4,0.9,0.7,1.2
				c0.9,0.7,1.8,0.6,2.8,0.2c1.2-0.5,2.4-1.2,3.6-1.6c2.5-0.8,4.8-1.9,6.2-4.3c0.2-0.3,0.4-0.5,0.6-0.8c2.6-3.1,3.8-6.7,4.6-10.6
				c0.3-1.5,0.2-3.1,0.2-4.6c0-0.2-0.1-0.5-0.3-0.7c-0.7-0.6-1.4-1.3-2.1-1.8c-4.7-3.5-9.4-7.1-14.1-10.6c-0.7-0.5-1.3-0.5-1.9-0.2
				c-2.5,1.3-4.8,2.8-6.4,5.2c-0.8,1.1-1.6,2.2-2.3,3.4c-0.3,0.4-0.4,1.1-0.3,1.5c0.7,3.3,1.6,6.7,2.4,10.1c0.2-0.1,0.5-0.2,0.7-0.4
				c1.1-0.7,2.2-1.5,3.2-2.2c1-0.7,1.3-0.7,2,0.4C299.2,311.8,297.1,313.3,296.1,315.6L296.1,315.6z M265.3,359.6
				c-0.5,0.8-1,1.4-1.4,2c-0.7,0.9-1.6,1.3-2.7,1.3c-0.8,0-1.6,0.1-1.9,1c-0.2,0.7-0.5,1.5-0.6,2.3c-0.3,2.2-0.6,4.4-0.8,6.6
				c-0.2,2.3-0.3,4.6-0.4,7c-0.1,1.7,0,3.5-0.1,5.2c-0.1,1.9-0.3,3.8-0.4,5.7c-0.1,2.6-0.1,5.1-0.1,7.7c0,1.2,0,2.4,0,3.6
				c0.1,1.5,0.3,2.9,0.5,4.4c0.1,0.9,1,1.8,1.6,1.7c1.4-0.2,2.8-0.4,4.2-0.7c0.5-0.1,0.8-0.4,0.7-1c-0.2-0.6-0.3-1.2-0.4-1.8
				c-0.3-1.5-0.7-3.1-0.9-4.6c-0.2-1.4-0.4-2.9-0.5-4.3c-0.1-1.1-0.1-2.3-0.2-3.4c-0.1-1.4-0.4-2.8-0.5-4.3
				c-0.1-1.4-0.1-2.7-0.2-4.1c-0.1-2-0.2-4-0.2-6c0.1-2.5,0.2-4.9,0.5-7.4c0.1-1.2,0.3-2.5,0.8-3.6c0.3-0.7,1.2-1.5,1.9-1.6
				c2.4-0.3,4.3,0.9,6,2.5c0.5,0.5,1,1.1,1.4,1.7c0.5,0.7,1.2,1.4,1.4,2.2c0.7,2.1,1.3,4.3,1.8,6.4c0.3,1.4,0.5,2.9,0.6,4.4
				c0.1,1.9,0.1,3.9,0,5.8c-0.1,3.3-0.4,6.6-1.1,9.8c-0.2,0.8-0.1,1.5,0.3,2.2c0.3,0.5,0.9,0.6,1.1,0.2c0.4-0.6,0.8-1.2,1.2-1.8
				c1.6-2.4,3.2-4.7,4.9-7.1c0.8-1.2,1.8-2.2,2.7-3.3c0.6-0.8,0.6-1.3,0.1-2.1c-0.4-0.5-0.7-1.1-1-1.6c-1.3-3-2.7-5.9-4-8.9
				c-1-2.3-2.2-4.5-3.6-6.5c-0.5-0.7-0.8-0.6-1.2,0c-0.5,0.7-1.2,0.6-1.7,0.3c-1.5-0.7-2.1-2.3-1.8-3.9c0.1-0.6,0.7-1,1.3-0.8
				c0.2,0.1,0.5,0.2,0.7,0.3c0.1,0,0.2-0.1,0.3-0.1c-0.7-2.1-1.1-4.2-2.3-6.3C269.6,360.5,267.6,361,265.3,359.6L265.3,359.6z
				 M272.9,404.5c-0.1-2.1-0.2-3.9-0.2-5.7c0-1.9,0.1-3.8,0.1-5.7c0-3.1,0.1-6.2,0.1-9.3c0-1.7-0.3-3.4-0.5-5.1
				c-0.1-0.7-0.3-1.3-0.4-2c-0.2-1-0.3-2.1-0.7-3.1c-0.6-1.5-1.4-2.8-2.2-4.2c-0.8-1.4-1.9-2.4-3.8-2.1c-1.1,0.2-2.3,1-2.3,1.9
				c0,1.3,0.1,2.7,0.2,4c0.1,1.7,0.4,3.4,0.2,5.1c-0.3,2.3-0.1,4.5,0.1,6.7c0.2,2.2,0.4,4.4,0.6,6.7c0.1,1.9,0.2,3.8,0.3,5.8
				c0.2,2.1,0.4,4.3,0.7,6.4c0.1,0.8,0.4,1.6,0.9,2.2c0.2,0.3,1.1,0.1,1.6,0.1c0.4,0,0.7-0.1,1.1-0.3c0.5-0.2,0.9-0.4,1.4-0.5
				C270.9,405.1,271.9,404.8,272.9,404.5L272.9,404.5z M340.7,317.3c-0.1,0-0.2,0-0.3,0c-0.4,0.9-0.8,1.8-1.2,2.8
				c-0.9,2.1-1.7,4.2-2.7,6.2c-1.9,3.8-3.8,7.6-5.8,11.4c-1.7,3.1-3.4,6.3-6.1,8.8c-0.3,0.2-0.5,0.6-0.8,0.9
				c2.9,2.7,5.7,5.3,8.6,7.9c0-2,0-4.1,0-6.1c0.1-2.5,0.3-5,0.5-7.5c0-0.6,0.2-0.9,1-0.8c0.6,0.1,1.3-0.1,2,0
				c2.2,0.3,3.3-0.9,4.1-2.8c1.6-3.9,3.4-7.8,5.1-11.7c0.1-0.2,0-0.6-0.1-0.8c-0.8-1.3-1.7-2.5-2.4-3.9
				C341.9,320.4,341.3,318.8,340.7,317.3L340.7,317.3z M279.8,372.4c-0.1,0-0.1,0.1-0.2,0.1c0.1,0.3,0.2,0.6,0.3,0.9
				c1.5,4,3.6,7.6,5.6,11.3c0.7,1.3,1.6,2.2,3.2,2.3c1.7,0.1,3.4,0.2,5,0.5c1.3,0.2,2.4,0.3,3.3-0.9c0.2-0.2,0.5-0.4,0.8-0.5
				c2.4-1.6,4.9-2.9,7.6-3.8c0.7-0.2,1.3-0.2,1.8,0.4c0.1,0.2,0.5,0.2,0.8,0.2c0.9-0.3,1.7-0.6,2.5-0.9c1.5-0.6,3-1.3,4.5-2
				c0.7-0.3,1.4-0.5,2-0.7c0-0.1,0-0.2,0-0.3c-4-1.2-8.1-2.5-12.1-3.7c-0.3-0.1-0.6,0-0.9,0.2c-2.6,1-4.9,2.6-7.7,3
				c-2.9,0.5-5.8,0.9-8.6-0.4c-2.8-1.3-5.5-2.9-7.6-5.3C280.1,372.7,279.9,372.6,279.8,372.4L279.8,372.4z M299,399
				c0.5-0.1,0.8-0.1,1.2-0.2c0.7-0.2,1.2-0.1,1.6,0.7c0.8,1.6,1.8,3,2.6,4.6c2.2,4.5,4.4,9.1,6.6,13.6c0.6,1.2,1.2,2.4,2,3.6
				c1.2,1.9,3.6,2.5,5.5,1.3c0.6-0.4,1.1-1.1,1.4-1.8c0.1-0.3-0.2-0.8-0.4-1.2c-0.4-0.8-0.9-1.6-1.2-2.4c-1-2.6-2-5.3-3-7.9
				c-1.2-3-2.5-5.9-3.7-8.9c-0.7-1.7-1.3-3.5-1.9-5.2c-0.2-0.5-0.3-0.6-0.8-0.6c-1.8-0.1-3.7,0-5.4,0.6c-0.6,0.2-1.4,0.1-1.7,0.5
				C300.7,396.6,299.9,397.8,299,399L299,399z M267,355.4c2.8,0.1,5.3-0.2,7.3-2.4c1.4-1.6,2.7-3.1,1.7-5.3
				c-0.1-0.2-0.1-0.5-0.2-0.8c-0.3-0.7-0.5-1.6-1.1-2.1c-0.9-0.9-1.2-1.9-1.2-3.1c0-1,0.3-2,0.2-2.9c0-0.7-0.1-1.6-0.4-2.2
				c-0.9-1.4-2.3-2.1-3.9-2.4c-1.7-0.3-3,0.6-4,1.8c-0.2,0.2-0.3,0.6-0.3,0.9c0.1,1.1-0.2,1.9-1.1,2.6c-1,0.7-1.2,1.3-0.8,2.4
				c0.3,0.9,0.1,1.5-0.6,2c-0.5,0.4-1.2,0.6-1.8,0.7c-1.7,0.2-2.2,1-1.8,2.6c0.4,1.3,1.4,1.6,2.4,1.9c1.2,0.4,1.6,0.8,1.5,2
				c-0.1,1.1,0.2,2,0.9,2.9C266.3,352.8,267.1,353.2,267,355.4L267,355.4z M328.6,367.1c0-0.2,0-0.3,0-0.5c0.2-3.2,0.2-6.4,0.5-9.7
				c0.1-1.1-0.2-1.8-1-2.4c-0.2-0.2-0.4-0.4-0.7-0.6c-1.7-1.7-3.5-3.4-5.2-5.2c-1-1.1-0.7-1.9,0.5-2.7c0.6-0.3,1.1-0.7,1.7-1.1
				c-1-1.6-3-3.2-4-3.5c-0.4,1-0.4,2.2-1.6,2.7c-0.1,0-0.1,0.3-0.1,0.5c-0.8,3.6-0.9,7.3-2.1,10.9c-0.7,2.1-1.4,4.3-2.1,6.4
				c-0.3,0.8-0.6,1.5-1,2.2C318.7,365.2,323.6,366.2,328.6,367.1L328.6,367.1z M328.6,369.9c-0.9-0.2-1.8-0.4-2.7-0.6
				c-4.3-0.9-8.7-1.8-13-2.7c-0.2,0-0.6,0-0.8,0.2c-1.8,2.2-3.6,4.5-5.3,6.8c0.1,0,0.1,0.1,0.3,0.1c4.7,1.3,9.3,2.6,14,3.9
				c0.4,0.1,0.9,0.2,1.3,0c2-0.7,4-1.5,5.9-2.3c0.1-0.1,0.3-0.3,0.3-0.5C328.6,373.2,328.6,371.6,328.6,369.9L328.6,369.9z
				 M291.6,391.9L291.6,391.9c-1,0.5-1.9,1.1-2.8,1.6c-1.4,0.8-2.2,2-2.7,3.4c-0.2,0.7-0.5,1.4-0.7,2.1c-0.7,2.4-0.3,4.7,0.8,6.9
				c0.9,1.8,1.4,2,3.6,1.2c1.7-0.6,2.6-1.8,3.5-3.2c1.6-2.5,3.1-5.1,5.1-7.2c0.6-0.6,1.1-1.6,1-2.4c-0.1-1.1-0.7-2.2-1.3-3.2
				c-0.8-1.2-1.5-1.3-2.8-0.8C294,390.7,292.8,391.3,291.6,391.9L291.6,391.9z M317.3,297.8c0.2-0.6,0.2-1.1,0.4-1.6
				c0.4-0.9,1.8-1.5,2.6-1.2c0.8,0.3,1.2,1.3,0.8,2.4c-0.2,0.5-0.5,1-0.7,1.5c-0.1,0.3-0.2,0.8-0.1,1.1c1.1,2.3,2,4.6,3.4,6.7
				c1.1,1.7,0.7,3.2,0.3,4.7c-0.8,3.6-2.1,7.1-3,10.7c-1.4,5.1-2.6,10.2-3.9,15.3c-0.3,1.2-0.6,2.5-0.7,3.8
				c-0.1,0.9,0.3,1.2,1.4,1.5c0.8,0.2,0.9-0.4,1.1-0.9c0.3-0.8,0.5-1.5,0.7-2.3c1.1-4.7,2.2-9.5,3.4-14.2c1.4-5.6,2.8-11.2,4.1-16.9
				c0.1-0.5,0.1-0.8-0.3-1.3c-1.3-1.5-2.6-3.1-3.9-4.7c-1-1.1-1.1-2-0.3-3.4c1.3-2.2,0.7-4.5-1.4-6c-1.7-1.2-4.8-0.4-5.6,1.5
				C315.3,295.5,315.6,296.4,317.3,297.8L317.3,297.8z M289.4,360.8c-2-0.7-4-1.3-6-2c-1.1-0.4-2-0.1-3,0.4
				c-2.5,1.3-3.8,3.7-5.4,5.9c-0.2,0.2-0.2,0.6-0.2,0.8c0.3,0,0.8,0.1,1,0c1.2-0.7,2.4-1.5,3.6-2.1c0.9-0.5,2-0.9,3-1
				c1.1-0.1,1.7,0.9,1,1.8c-0.6,1-1.4,1.9-2.6,2.1c-1.2,0.2-2.4,0.4-3.6,0.7c-0.3,0.1-0.6,0.2-1,0.4c0.7,0.5,1.3,0.8,1.9,1.2
				c1.1,0.7,2.3,0.8,3.5,0.3c1.4-0.5,2.8-1,4.2-1.7c0.8-0.4,1.7-0.9,2-1.6C288.5,364.5,288.8,362.7,289.4,360.8L289.4,360.8z
				 M336.1,322.4c-0.1-0.1-0.1-0.1-0.2-0.2c-0.2,0.2-0.5,0.4-0.7,0.7c-2.1,2.3-4.2,4.7-6.3,7c-2.3,2.5-4.7,5.1-7.1,7.6
				c-0.6,0.6-0.6,1.2,0,1.8c1.3,1.3,2.4,2.6,3.5,3.8C329,336.3,332.5,329.4,336.1,322.4L336.1,322.4z M295.9,370.3
				c2.1,0.6,4.1,1.2,6.1,1.7c0.2,0.1,0.5-0.1,0.7-0.2c1.8-1.9,3.6-3.9,5.4-5.9c0.1-0.1,0.1-0.2,0.2-0.4c-3.5-0.8-7-1.5-10.6-2.3
				C297.2,365.6,296.5,368,295.9,370.3L295.9,370.3z M307.8,388.2l0.2-0.1c-0.5-0.8-1-1.7-1.5-2.5c-0.1-0.2-0.4-0.4-0.6-0.4
				c-0.9,0.1-1.9,0.1-2.7,0.5c-1.3,0.6-2.5,1.4-3.7,2c-0.5,0.2-0.6,0.5-0.3,0.9c0.9,1.5,1.8,2.9,2.7,4.3c0.2,0.3,0.7,0.5,1.1,0.4
				c2-0.3,4-0.6,5.9-0.9c1.1-0.2,1.3-0.8,0.7-1.7C308.9,389.9,308.4,389,307.8,388.2L307.8,388.2z M324.4,331.4
				c3.8-4.2,7.6-8.4,11.3-12.4c-0.6-2.4-1.2-4.6-1.8-6.8C330.2,318.4,326.7,324.6,324.4,331.4z M295.5,372c-0.5,1.6-0.9,1.8-2.5,1.3
				c-1.2-0.3-2.3-0.5-3.5-0.8c-0.7-0.2-1.4-0.4-2-0.7c-0.2-0.1-0.4-0.5-0.5-0.8c0-0.7,0.1-1.3,0.1-1.8c-1.8,0.8-3.6,1.6-5.3,2.4
				c0,0.1,0,0.2,0,0.4c1.2,0.7,2.5,1.4,3.7,2.2c3.4,2.2,7.1,2.6,11,2.3c1.7-0.2,2.9-1.3,4-2.3C298.8,373.3,297.2,372.7,295.5,372
				L295.5,372z M273.6,407.2c-1.9,0.4-3.7,0.8-5.6,1.3c-0.2,0.1-0.5,0.4-0.6,0.6c-0.1,1.6-0.2,3.1-0.1,4.7c0,1.1,1.1,1.9,2.2,1.8
				c1.5-0.1,2.8-0.6,4-1.5c0.7-0.6,1-1.2,1-2.1C274.7,410.3,274.3,408.7,273.6,407.2L273.6,407.2z M277,403.2
				c0.1,0.1,0.2,0.2,0.3,0.3c1.1-0.4,2.3-0.9,3.4-1.1c1.1-0.2,1.6-0.9,1.8-1.9c0.4-2.5,1.6-4.6,2.8-6.7c0.6-1.1,1.4-1.8,2.5-2.3
				c1.1-0.6,2.2-1.3,3.3-2c0.2-0.1,0.2-0.4,0.3-0.6c-0.2-0.1-0.4-0.2-0.6-0.2c-0.6,0-1.2,0-1.8,0.1c-0.8,0.1-1.8,0.2-2.3,0.6
				c-3.9,3.6-6.6,8.1-9.4,12.6C277.1,402.4,277.1,402.8,277,403.2L277,403.2z M293.5,371.5c0.6-3.1,1.2-6,1.7-8.8
				c-1.2-0.4-2.4-0.8-3.7-1.3c-0.8,2.8-1.6,5.5-2.4,8.3C290.7,370.3,292,370.9,293.5,371.5L293.5,371.5z M277.9,366.1
				c1.4,0.5,3.7-0.8,3.9-2.3C280.5,364.6,279.3,365.3,277.9,366.1z"/>
			<path class="st3" d="M338.7,377.8c1.2,0.7,2.4,1.4,3.5,2.1c0.3,0.2,0.7,0.5,1,0.4c0.4,0,1.1-0.2,1.3-0.5c0.2-0.4,0.2-1.1,0-1.5
				c-0.4-0.6-1.1-1-1.7-1.5c-0.9-0.7-1.8-1.3-2.9-2.1c1.6-0.6,3-1.1,4.3-1.7c0.4-0.1,0.7-0.2,1-0.4c0.5-0.3,0.8-0.7,0.6-1.3
				c-0.2-0.6-0.7-0.8-1.3-0.7c-1.7,0.4-3.5,0.5-5,1.7c-0.1,0.1-0.3,0.1-0.5,0.2c0-0.1-0.1-0.2-0.1-0.3c1.1-4.3,2-8.6,3.3-12.8
				c1.1-3.8,2.9-7.4,4.9-10.9c0.6-1.1,1.5-1.6,2.6-2c1.4-0.6,2.8-1.2,4.3-1.9c-0.3-0.2-0.7-0.5-1.1-0.6c-2-0.5-4.1-0.3-6,0.3
				c-1.6,0.5-2.3,2-3,3.3c-2.4,4.5-3.8,9.3-4.7,14.3c-0.7,3.6-1.2,7.2-1.8,10.8c-0.1,0.8-0.4,1.2-1.3,1.4c-1.5,0.3-2.9,0.7-4.5,1.1
				c-0.4-5.7,0.1-11.2,0.5-16.9c0.3,0.2,0.4,0.3,0.6,0.4c1,0.6,2,0.1,1.9-1.1c0-1.8-0.1-3.7,0-5.5c0.1-2.8,0.3-5.6,0.4-8.5
				c1.5,0,3,0.1,4.4,0.1c0.5,0,1,0.1,1.5,0.1c1.2,0,1.4-0.2,1.7-1.4c0-0.3,0.2-0.5,0.3-0.7c1.4-3.2,2.7-6.4,4.1-9.6
				c0.5-1.1,1.1-2,1.7-3.2c0.9,0.4,1.8,0.8,2.5,1.2c1.9,1.1,3.7,2.3,5.5,3.5c2.9,1.9,5.7,3.9,8.5,6c1.3,0.9,2,2.2,2.4,3.9
				c1,4.7,2.2,9.4,3.4,14.1c2.2,8.8,4.3,17.7,6.5,26.5c1.1,4.4,2.3,8.8,3.5,13.2c0.2,0.9,0.7,1.7,1.1,2.5c-3.4,2.1-6.7,4.2-10.2,6.1
				c-1.3,0.7-2.9,1.2-4.4,1.3c-2.9,0.2-5.6,1-8.4,1.7c-1.7,0.4-3.4,0.5-5.1,0.6c-0.6,0-1.3-0.4-1.9-0.7c-1.3-0.8-2.5-0.8-3.8,0
				c-4.6,2.6-9.3,5.2-13.9,7.9c-0.1,0.1-0.3,0.1-0.3,0.1c-0.8-7.9-1.5-15.9-2.3-23.7c7.2-0.9,14.3-1.8,21.4-2.7
				c1-6.2,2.9-12.1,4.8-18.1c0.5-1.8,1.1-3.5,1.7-5.2c0.4-1.3,0.3-1.4-1.1-1.6c-0.6,2-1.4,4-1.9,6c-1.2,4.5-2.3,9-3.5,13.5
				c-0.3,1.2-0.7,2.5-1.1,3.7c-0.2,0.8-0.7,1.2-1.6,1.2c-7.7-0.2-15.4,0.2-23,0.7c-4.1,0.3-8.3,0.2-12.4,0.5
				c-1.3,0.1-2.1-0.3-2.8-1.3c-1-1.4-2-2.8-3-4.2c-0.1-0.1-0.1-0.3-0.2-0.5c6.5-2.5,13.2-3.8,19.8-5.6c1.8-0.5,3.7-1,5.6-1.4
				c0.7-0.2,1,0.1,1.1,0.7c0.3,1.3,0.7,2.6,1.2,3.8c0.1,0.3,0.6,0.7,0.9,0.7c0.3,0,0.7-0.5,0.7-0.9c0.1-0.7,0.1-1.4,0.1-2.2
				C338.6,379.5,338.7,378.7,338.7,377.8L338.7,377.8z"/>
			<path class="st3" d="M296.1,315.6c1-2.4,3.1-3.8,4.5-5.8c-0.7-1.1-1-1.1-2-0.4c-1.1,0.8-2.1,1.5-3.2,2.2
				c-0.2,0.2-0.5,0.3-0.7,0.4c-0.8-3.4-1.6-6.7-2.4-10.1c-0.1-0.5,0.1-1.1,0.3-1.5c0.7-1.2,1.5-2.3,2.3-3.4c1.6-2.4,4-3.9,6.4-5.2
				c0.7-0.4,1.3-0.3,1.9,0.2c4.7,3.6,9.4,7.1,14.1,10.6c0.7,0.6,1.4,1.2,2.1,1.8c0.2,0.2,0.3,0.5,0.3,0.7c0,1.5,0.1,3.1-0.2,4.6
				c-0.8,3.8-2,7.5-4.6,10.6c-0.2,0.2-0.4,0.5-0.6,0.8c-1.4,2.4-3.7,3.5-6.2,4.3c-1.2,0.4-2.4,1-3.6,1.6c-1,0.4-1.9,0.5-2.8-0.2
				c-0.3-0.3-0.6-0.8-0.7-1.2c-0.2-1.4-0.2-2.7-0.3-4.1c0-0.4-0.1-0.9-0.4-1.2c-1-1.2-2.1-2.4-3.2-3.6
				C296.9,316.4,296.5,316,296.1,315.6L296.1,315.6z"/>
			<path class="st9" d="M265.3,359.6c2.2,1.4,4.2,0.9,6.1-0.9c1.2,2,1.6,4.2,2.3,6.3c-0.1,0-0.2,0.1-0.3,0.1
				c-0.2-0.1-0.5-0.2-0.7-0.3c-0.6-0.2-1.2,0.2-1.3,0.8c-0.3,1.7,0.4,3.2,1.8,3.9c0.5,0.2,1.2,0.4,1.7-0.3c0.4-0.6,0.7-0.7,1.2,0
				c1.4,2,2.6,4.2,3.6,6.5c1.3,3,2.6,6,4,8.9c0.3,0.6,0.6,1.1,1,1.6c0.6,0.8,0.6,1.3-0.1,2.1c-0.9,1.1-1.9,2.1-2.7,3.3
				c-1.7,2.3-3.3,4.7-4.9,7.1c-0.4,0.6-0.8,1.2-1.2,1.8c-0.3,0.4-0.8,0.3-1.1-0.2c-0.4-0.7-0.5-1.4-0.3-2.2c0.7-3.2,1-6.5,1.1-9.8
				c0-1.9,0.1-3.9,0-5.8c-0.1-1.5-0.3-3-0.6-4.4c-0.5-2.2-1.1-4.3-1.8-6.4c-0.3-0.8-0.9-1.5-1.4-2.2c-0.4-0.6-0.9-1.2-1.4-1.7
				c-1.6-1.7-3.6-2.8-6-2.5c-0.7,0.1-1.5,0.9-1.9,1.6c-0.5,1.1-0.7,2.4-0.8,3.6c-0.2,2.4-0.4,4.9-0.5,7.4c0,2,0.1,4,0.2,6
				c0,1.4,0,2.7,0.2,4.1c0.1,1.4,0.4,2.9,0.5,4.3c0.1,1.1,0.1,2.3,0.2,3.4c0.1,1.4,0.3,2.9,0.5,4.3c0.2,1.5,0.6,3.1,0.9,4.6
				c0.1,0.6,0.2,1.2,0.4,1.8c0.2,0.6-0.1,0.9-0.7,1c-1.4,0.3-2.8,0.5-4.2,0.7c-0.7,0.1-1.6-0.9-1.6-1.7c-0.2-1.5-0.4-2.9-0.5-4.4
				c-0.1-1.2,0-2.4,0-3.6c0-2.6,0-5.1,0.1-7.7c0.1-1.9,0.3-3.8,0.4-5.7c0.1-1.7,0-3.5,0.1-5.2c0.1-2.3,0.2-4.7,0.4-7
				c0.2-2.2,0.5-4.4,0.8-6.6c0.1-0.8,0.3-1.5,0.6-2.3c0.3-0.9,1.1-1,1.9-1c1.1,0,2-0.5,2.7-1.3C264.4,361,264.8,360.4,265.3,359.6
				L265.3,359.6z"/>
			<path class="st9" d="M272.8,404.5c-0.9,0.3-1.9,0.6-2.9,0.9c-0.5,0.1-0.9,0.4-1.4,0.5c-0.4,0.1-0.7,0.2-1.1,0.3
				c-0.6,0-1.4,0.2-1.6-0.1c-0.5-0.6-0.7-1.4-0.9-2.2c-0.3-2.1-0.6-4.2-0.7-6.4c-0.2-1.9-0.2-3.8-0.3-5.8c-0.2-2.2-0.4-4.4-0.6-6.7
				c-0.2-2.2-0.3-4.4-0.1-6.7c0.2-1.7-0.1-3.4-0.2-5.1c-0.1-1.3-0.2-2.7-0.2-4c0-0.9,1.2-1.7,2.3-1.9c1.8-0.3,2.9,0.7,3.8,2.1
				c0.8,1.4,1.6,2.7,2.2,4.2c0.4,1,0.5,2,0.7,3.1c0.1,0.7,0.4,1.3,0.4,2c0.2,1.7,0.5,3.4,0.5,5.1c0,3.1-0.1,6.2-0.1,9.3
				c0,1.9-0.1,3.8-0.1,5.7C272.6,400.6,272.8,402.4,272.8,404.5L272.8,404.5z"/>
			<path class="st3" d="M340.7,317.3c0.7,1.5,1.2,3,2,4.4c0.7,1.3,1.6,2.6,2.4,3.9c0.1,0.2,0.2,0.6,0.1,0.8
				c-1.7,3.9-3.5,7.8-5.1,11.7c-0.8,1.9-1.9,3-4.1,2.8c-0.7-0.1-1.3,0.1-2,0c-0.7-0.1-0.9,0.2-1,0.8c-0.2,2.5-0.4,5-0.5,7.5
				c-0.1,2,0,4.1,0,6.1c-2.9-2.6-5.7-5.3-8.6-7.9c0.3-0.3,0.5-0.6,0.8-0.9c2.7-2.5,4.4-5.6,6.1-8.8c2-3.7,3.9-7.5,5.8-11.4
				c1-2,1.8-4.2,2.7-6.2c0.4-0.9,0.8-1.8,1.2-2.8C340.5,317.4,340.6,317.4,340.7,317.3L340.7,317.3z"/>
			<path class="st4" d="M299,399c1-1.2,1.8-2.4,2.7-3.3c0.4-0.4,1.2-0.3,1.7-0.5c1.8-0.7,3.6-0.8,5.4-0.6c0.4,0,0.6,0.2,0.8,0.6
				c0.6,1.8,1.2,3.5,1.9,5.2c1.2,3,2.5,5.9,3.7,8.9c1,2.6,2,5.3,3,7.9c0.3,0.8,0.8,1.6,1.2,2.4c0.2,0.4,0.5,0.9,0.4,1.2
				c-0.4,0.7-0.8,1.4-1.4,1.8c-1.9,1.2-4.3,0.6-5.5-1.3c-0.7-1.2-1.4-2.4-2-3.6c-2.2-4.5-4.4-9.1-6.6-13.6c-0.8-1.6-1.8-3-2.6-4.6
				c-0.4-0.8-0.9-0.9-1.6-0.7C299.8,398.9,299.5,398.9,299,399L299,399z"/>
			<path class="st3" d="M267,355.4c0.1-2.1-0.7-2.5-3-1.6c-0.7-0.8-1-1.8-0.9-2.9c0.1-1.3-0.3-1.7-1.5-2c-1-0.3-2-0.6-2.4-1.9
				c-0.5-1.6,0-2.4,1.8-2.6c0.6-0.1,1.3-0.3,1.8-0.7c0.7-0.5,0.9-1.1,0.6-2c-0.4-1.1-0.1-1.7,0.8-2.4c0.9-0.6,1.2-1.5,1.1-2.6
				c0-0.3,0.1-0.7,0.3-0.9c1.1-1.2,2.3-2.1,4-1.8c1.6,0.3,3,1.1,3.9,2.4c0.4,0.6,0.4,1.5,0.4,2.2c0,1-0.2,2-0.2,2.9
				c0,1.1,0.3,2.2,1.2,3.1c0.5,0.5,0.7,1.4,1.1,2.1c0.1,0.2,0.1,0.5,0.2,0.8c1,2.3-0.3,3.8-1.7,5.3
				C272.3,355.2,269.8,355.5,267,355.4L267,355.4z M268.5,341.5c0.2,1,0.8,1.4,1.8,1.4c0.4,0,0.8-0.1,1.2-0.1c1,0,1.4-0.8,0.8-1.7
				c-0.1-0.2-0.3-0.4-0.4-0.5c0,0.1,0,0.2,0,0.2c-0.6,0.1-1.1,0.1-1.7,0.2c-0.2,0-0.6,0-0.6,0.1C269.6,341.8,269,341.5,268.5,341.5
				L268.5,341.5z M267.6,339.8c1.7,0.6,3.2,0.1,4.7-0.5c0.4-0.2,0.4-0.6-0.1-0.8c-0.2-0.1-0.3-0.1-0.5-0.1
				C270.2,338.5,268.8,338.9,267.6,339.8L267.6,339.8z"/>
			<path class="st3" d="M328.6,369.9c0,1.7,0,3.3-0.1,4.9c0,0.2-0.1,0.4-0.3,0.5c-2,0.8-3.9,1.6-5.9,2.3c-0.4,0.1-0.9,0.1-1.3,0
				c-4.7-1.3-9.3-2.6-14-3.9c-0.1,0-0.2-0.1-0.3-0.1c1.8-2.3,3.5-4.5,5.3-6.8c0.1-0.2,0.5-0.2,0.8-0.2c4.3,0.9,8.7,1.8,13,2.7
				C326.8,369.5,327.7,369.7,328.6,369.9L328.6,369.9z"/>
			<path class="st3" d="M291.6,391.9c1.2-0.5,2.4-1.1,3.6-1.6c1.3-0.5,2-0.4,2.8,0.8c0.6,0.9,1.2,2.1,1.3,3.2c0.1,0.8-0.4,1.8-1,2.4
				c-2.1,2.2-3.6,4.7-5.1,7.2c-0.9,1.4-1.8,2.6-3.5,3.2c-2.2,0.8-2.7,0.6-3.6-1.2c-1.1-2.2-1.5-4.5-0.8-6.9c0.2-0.7,0.5-1.4,0.7-2.1
				c0.5-1.5,1.3-2.7,2.7-3.4C289.7,392.9,290.6,392.3,291.6,391.9L291.6,391.9L291.6,391.9z"/>
			<path class="st3" d="M317.3,297.8c-1.7-1.5-2-2.3-1.6-3.3c0.9-1.9,3.9-2.7,5.6-1.5c2,1.5,2.7,3.8,1.4,6c-0.8,1.4-0.7,2.3,0.3,3.4
				c1.4,1.5,2.6,3.1,3.9,4.7c0.4,0.4,0.4,0.8,0.3,1.3c-1.4,5.6-2.8,11.2-4.1,16.9c-1.1,4.7-2.2,9.5-3.4,14.2
				c-0.2,0.8-0.5,1.6-0.7,2.3c-0.2,0.5-0.3,1.1-1.1,0.9c-1.1-0.3-1.5-0.6-1.4-1.5c0.2-1.3,0.4-2.5,0.7-3.8
				c1.3-5.1,2.6-10.2,3.9-15.3c1-3.6,2.2-7.1,3-10.7c0.4-1.5,0.8-3.1-0.3-4.7c-1.4-2.1-2.3-4.4-3.4-6.7c-0.1-0.3,0-0.7,0.1-1.1
				c0.2-0.5,0.5-1,0.7-1.5c0.3-1-0.1-2.1-0.8-2.4c-0.8-0.3-2.3,0.3-2.6,1.2C317.6,296.7,317.5,297.2,317.3,297.8L317.3,297.8z"/>
			<path class="st3" d="M289.4,360.8c-0.5,1.9-0.9,3.7-1.6,5.3c-0.3,0.7-1.2,1.2-2,1.6c-1.4,0.7-2.8,1.2-4.2,1.7
				c-1.2,0.4-2.4,0.4-3.5-0.3c-0.6-0.4-1.2-0.7-1.9-1.2c0.4-0.2,0.7-0.4,1-0.4c1.2-0.3,2.4-0.5,3.6-0.7c1.3-0.2,2-1.1,2.6-2.1
				c0.6-1,0.1-1.9-1-1.8c-1,0.1-2.1,0.5-3,1c-1.3,0.6-2.4,1.4-3.6,2.1c-0.3,0.1-0.7,0-1,0c0.1-0.3,0.1-0.6,0.2-0.8
				c1.6-2.1,2.9-4.6,5.4-5.9c1-0.5,1.9-0.8,3-0.4C285.3,359.5,287.4,360.2,289.4,360.8L289.4,360.8z"/>
			<path class="st3" d="M336.1,322.4c-3.6,7-7.2,13.9-10.7,20.8c-1.1-1.2-2.3-2.6-3.5-3.8c-0.7-0.7-0.6-1.2,0-1.8
				c2.4-2.5,4.7-5,7.1-7.6c2.1-2.3,4.2-4.7,6.3-7c0.2-0.2,0.5-0.5,0.7-0.7C336,322.3,336.1,322.3,336.1,322.4L336.1,322.4z"/>
			<path class="st3" d="M295.9,370.3c0.6-2.4,1.3-4.7,1.9-7.1c3.5,0.8,7,1.5,10.6,2.3c-0.1,0.2-0.1,0.3-0.2,0.4
				c-1.8,2-3.6,3.9-5.4,5.9c-0.1,0.2-0.5,0.3-0.7,0.2C300,371.5,298,370.9,295.9,370.3L295.9,370.3z"/>
			<path class="st3" d="M307.8,388.2c0.6,0.8,1.1,1.7,1.7,2.5c0.6,0.9,0.4,1.5-0.7,1.7c-2,0.3-4,0.6-5.9,0.9c-0.3,0-0.9-0.1-1.1-0.4
				c-1-1.4-1.8-2.9-2.7-4.3c-0.2-0.4-0.1-0.6,0.3-0.9c1.3-0.7,2.4-1.5,3.7-2c0.8-0.4,1.8-0.4,2.7-0.5c0.2,0,0.5,0.2,0.6,0.4
				c0.5,0.8,1,1.7,1.5,2.5L307.8,388.2L307.8,388.2z"/>
			<path class="st3" d="M324.4,331.4c2.3-6.8,5.8-13,9.4-19.2c0.6,2.3,1.2,4.4,1.8,6.8C332.1,323.1,328.2,327.2,324.4,331.4
				L324.4,331.4z"/>
			<path class="st4" d="M277,403.2c0.1-0.4,0.1-0.8,0.3-1.2c2.8-4.5,5.5-9,9.4-12.6c0.5-0.5,1.5-0.5,2.3-0.6
				c0.6-0.1,1.2-0.1,1.8-0.1c0.2,0,0.4,0.1,0.6,0.2c-0.1,0.2-0.1,0.5-0.3,0.6c-1.1,0.7-2.1,1.4-3.3,2c-1.1,0.6-1.9,1.3-2.5,2.3
				c-1.2,2.1-2.4,4.3-2.8,6.7c-0.2,1-0.7,1.6-1.8,1.9c-1.2,0.3-2.3,0.7-3.4,1.1C277.1,403.4,277,403.3,277,403.2L277,403.2z"/>
			<path class="st3" d="M293.5,371.5c-1.4-0.6-2.8-1.2-4.4-1.8c0.8-2.7,1.6-5.5,2.4-8.3c1.3,0.5,2.5,0.9,3.7,1.3
				C294.6,365.5,294.1,368.4,293.5,371.5L293.5,371.5z"/>
			<path class="st2" d="M268.5,341.5c0.5,0,1.1,0.3,1.1-0.5c0,0,0.4-0.1,0.6-0.1c0.6-0.1,1.1-0.1,1.7-0.2c0-0.1,0-0.2,0-0.2
				c0.1,0.2,0.3,0.3,0.4,0.5c0.6,0.9,0.2,1.6-0.8,1.7c-0.4,0-0.8,0.1-1.2,0.1C269.3,342.9,268.7,342.5,268.5,341.5L268.5,341.5z"/>
			<path class="st2" d="M267.6,339.8c1.2-1,2.6-1.3,4.1-1.4c0.2,0,0.3,0,0.5,0.1c0.5,0.2,0.5,0.7,0.1,0.8
				C270.8,339.9,269.3,340.5,267.6,339.8L267.6,339.8z"/>
		</g>
	</g>
</g>
</svg>
