<?xml version="1.0" encoding="utf-8"?>
<!-- Generator: Adobe Illustrator 27.0.1, SVG Export Plug-In . SVG Version: 6.00 Build 0)  -->
<svg version="1.1" id="Layer_1" xmlns="http://www.w3.org/2000/svg" xmlns:xlink="http://www.w3.org/1999/xlink" x="0px" y="0px"
	 viewBox="0 0 417 705" style="enable-background:new 0 0 417 705;" xml:space="preserve">
<style type="text/css">
	.st0{fill:#990612;}
	.st1{fill:#A3A39E;}
	.st2{fill:#514B4B;}
	.st3{fill:#FFFFFF;}
	.st4{fill:#B2BC7F;}
	.st5{fill:#667432;}
	.st6{fill:#808843;}
</style>
<g>
	<polygon class="st0" points="199,137.3 124,180.6 49,137.3 49,50.7 124,7.4 199,50.7 	"/>
</g>
<g>
	<polygon class="st0" points="402.6,651.3 327.6,694.6 252.6,651.3 252.6,564.7 327.6,521.4 402.6,564.7 	"/>
</g>
<g>
	<polygon class="st0" points="399,296.5 328.7,347.2 249.8,311.7 241,225.5 311.3,174.9 390.2,210.4 	"/>
</g>
<g>
	<polygon class="st0" points="162,480.3 87,523.6 12,480.3 12,393.7 87,350.4 162,393.7 	"/>
</g>
<g>
	<polygon class="st1" points="178.6,641.3 110.5,694.8 30.1,662.5 17.8,576.8 85.9,523.3 166.3,555.5 	"/>
	<g>
		<path class="st2" d="M97.1,651.2c-0.1,0.9-0.1,1.8-0.3,2.5c-0.9,2.8-4.5,4.3-7.3,2.9c-1.3-0.6-2.4-1.5-3.5-2.1
			c-0.8,0.5-1.5,1.1-2.3,1.3c-0.8,0.1-1.7-0.3-2.7-0.5c-1.5,2.5-3.9,3.6-7,3.5c-3.2,0-5.1-1.8-6.5-4.4c-0.1,0-0.2,0-0.2,0
			c-1.9,2.2-4.5,3-7.3,2.7c-1.1-0.1-2.3-0.4-3.2-0.9c-2-1.1-3.8-2.5-5.7-3.8c-0.6,0.7-1.2,1.5-1.9,2.2c-2.1,2-4.6,2.4-7.2,1.5
			c-2.5-0.9-5.1-2.1-6.5-4.7c-0.5-0.8-0.8-1.8-0.9-2.7c-0.2-1.4-0.2-2.9-0.2-4.4c0-1.2,0.4-2.2,1.3-3.2c-0.8-0.2-1.4-0.3-2.1-0.5
			c-6.3-1.3-11.2-4.6-15.1-9.5c-1.6-2-2.3-4.4-3-6.8c-1.5-5.4-1.7-10.9-0.6-16.5c0-0.2,0.1-0.3,0.1-0.5c0.5-1.9,1.3-2.4,3.2-2.4
			c1.9,0,3.7,0,5.6,0c0.5,0,1.1-0.3,1.6-0.7c0.6-0.5,1.2-1,1.8-1.6c1.7-1.5,3.4-3,5.1-4.6c2.4-2.2,5.3-3.3,8.3-3.9
			c6.2-1.3,12.3-1.1,18.4,0.5c3.9,1,7.3,2.8,10.1,5.8c0.1,0.1,0.4,0.2,0.6,0.2c3.6-0.3,7.3-0.6,10.9-1c0.6-0.1,1.1-0.2,1.5-0.2
			c1.1-4.5,2-8.8,3.1-13.1c0.4-1.5,1-2.9,1.6-4.4c0.4-1.1,1-2.1,1.3-3.3c0.7-2.7,2.7-3.9,5.2-4.2c4.6-0.5,9.3-0.5,13.8,0.7
			c8.7,2.3,17.5,3.4,26.5,3.1c8.4-0.2,16.6-1.4,24.8-2.6c3.7-0.6,7.3-1.7,10.9-2.6c2.9-0.7,5.7-0.7,8.5,0.2c0.8,0.3,1.1,0.7,1,1.5
			c-0.3,6.5-0.6,13-0.8,19.5c0,0.8,0.1,1.6,0.3,2.4c0.6,3.4,1.4,6.9,0.4,10.4c-0.3,0.9-0.5,1.9-1,2.7c-2.1,3.4-4,7-6.3,10.2
			c-2.8,3.8-5.8,7.5-9,10.9c-4.4,4.8-9,9.4-13.6,14c-1.5,1.4-3.3,2.6-5.1,3.7c-2.9,1.8-5.9,3.5-8.9,5.1c-2.9,1.5-5.9,2.7-9.4,2.4
			c-3.4-0.3-6.9,0.2-10.3-0.2c-3.9-0.4-7.8-1.4-11.7-2.1c-0.7-0.1-1.4-0.2-2-0.4c-1-0.4-2-1-3-1.5C97.8,651.9,97.5,651.5,97.1,651.2
			L97.1,651.2z M113.6,632.9c0.2-0.1,0.4-0.3,0.6-0.4c4-3,7.9-6.1,11.9-9c7.1-5.2,14.9-9.4,21.3-15.7c0.3-0.3,1.1-0.3,1.5-0.1
			c0.6,0.3,0.6,1,0.3,1.6c-0.5,0.7-1.1,1.3-1.7,1.9c-3.9,3.6-8.1,6.9-12.6,9.8c-4.7,3-9.4,5.9-13.9,9.1c-3.2,2.4-6.1,5.3-9.1,7.9
			c3,3.9,1.4,10.4-3.8,14.5c2.2,0.1,4.3,0.3,6.5,0.4c4.4,0.3,8.8,0,13.2,1c0.3,0.1,0.8-0.1,1.1-0.3c4.3-2.5,8.6-4.9,12.9-7.4
			c1.7-1,3.3-2.1,4.7-3.4c4.6-4.6,9.2-9.4,13.7-14.2c3.1-3.4,6-7,8.7-10.7c2.2-3,4.1-6.3,6.1-9.6c0.4-0.6,0.6-1.3,0.8-2
			c0.8-2.7,0.2-5.5-0.1-8.2c-0.2-1.5-0.3-3-0.2-4.5c0.1-2,0.3-3.9,0.5-5.9c0.2-2,0.3-4,0.7-6c0.3-1.2,0.6-2.3,0.4-3.6
			c-0.3-1.9-0.3-1.9-2.2-2.1c-0.1,0-0.2,0-0.3,0c-3-0.3-5.7,0.8-8.5,1.4c-3.2,0.7-6.3,1.6-9.6,2.2c-3.3,0.6-6.7,0.7-10,1.2
			c-5.4,0.8-10.8,0.8-16.2,0.7c-6.1-0.2-12.1-0.4-18-2.2c-1.9-0.6-3.8-0.8-5.8-1.3c-1.1,4.2-2.1,8.3-3.2,12.5
			c-0.4,1.4-0.6,2.9-1.1,4.3c-0.2,0.7-0.6,1.3-1,1.9c-0.2,0.2-0.7,0.4-1,0.3c-0.2,0-0.4-0.5-0.4-0.8c-0.1-0.4,0-0.8,0-1.1
			c0.2-5,0.7-10,1.9-14.9c0.2-1,0.4-2,0.6-3.2c-3.2,0.1-6.2,0.1-9.1,0.3c-1.5,0.1-2.6,0.8-3,2.5c-0.3,1.1-0.8,2.1-1.2,3.1
			c-0.7,1.8-1.4,3.5-1.9,5.4c-1,3.6-1.9,7.3-2.8,11c-0.2,0.7,0,1,0.7,1.2c3.8,1.2,7.1,3.3,9.9,6.1c0.8,0.9,1.8,1.6,2.6,2.3
			c0.2-1,0.3-2,0.6-2.9c1.1-2.4,2.7-4.4,4.8-5.9c1.2-0.8,2.7-0.7,3.9,0.1c0.2,0.2,0.4,0.4,0.7,0.6c1.7-1.9,3.4-3.7,5.1-5.6
			c1.8-2,3.8-3.9,6.6-4.3c5.2-0.9,10.2,0.2,14.9,2.3c0.2,0.1,0.3,0.2,0.5,0.3c1.9,1.1,3,2.7,3.4,4.8c0.3,1.3,0.4,2.5,0.6,4
			c1.3-1,2.6-1.9,3.7-2.9c1.1-0.9,2.2-1.9,3.1-3c0.7-0.8,1.3-1.7,2.5-1.6c0.3,0,0.8,0,0.9,0.2c0.2,0.2,0.2,0.7,0,0.9
			c-0.3,0.7-0.7,1.3-1.1,2c-2.3,3.8-6,6-9.3,8.7c-3.7,3-7.8,5.6-10.7,9.6c-0.7,1-1.4,2-2.2,3c-1.8,2-3.6,4-5.4,6
			c-2.3,2.6-4.5,5.2-6.7,7.8c0,0.1-0.1,0.2-0.1,0.2C113.4,633,113.5,632.9,113.6,632.9L113.6,632.9z M64.9,602.6
			c-1.3-1.6-2.7-2.8-4.6-3.3c-0.5-0.1-0.9-0.3-1.3-0.5c-4.2-2.1-8.8-2.5-13.4-2.2c-4,0.3-7.7,1.7-11,4c-3.4,2.4-6.9,4.7-7.7,9.3
			c-0.1,0.7-0.8,0.8-1.3,0.3c-0.4-0.4-0.7-0.8-1-1.3c-0.5-0.6-1-0.9-1.8-1c-1.8-0.1-3.7-0.3-5.5-0.5c-0.8-0.1-1,0.1-1.1,0.8
			c-0.8,5.1-0.6,10.1,0.7,15.1c1.3,5.4,4.7,9.1,9.2,12c3.1,2,6.6,2.9,10.2,3.5c1,0.2,1.9,0.4,2.9,0.3c1.3-0.1,2.6-0.3,3.9-0.5
			c0.3-0.1,0.7-0.2,1-0.4c0.9-0.7,1.8-1.4,2.8-2c0.6-0.4,1.4-0.6,2.1-0.9c-0.4-0.3-0.7-0.6-1-0.9c-1.6-1.4-1.8-3.2-1.1-5.1
			c0.3-0.8,0.8-1.4,1.3-2.1c0.4-0.6,1-1.1,0.5-2c-0.2-0.3,0-0.9,0.1-1.3c0.1-0.7,0.4-1.3,0.5-2c0.2-1.6,0.5-3.1,0.6-4.7
			c0.1-2.6,1.6-4.6,2.8-6.7c1.5-2.6,3.7-4.5,6.2-6C60.7,603.2,62.6,602.5,64.9,602.6L64.9,602.6z M96,616.4c0.2-1.2,0.5-2.4,0.6-3.7
			c0-0.3-0.3-0.7-0.5-1c-0.3-0.4-0.7-0.6-1-1c-1.5-1.9-3-3.9-5.1-5.2c-1.2-0.8-2.5-1.4-3.7-2.2c-1.4-0.8-3.1-1.2-4.7-0.9
			c-5.4,0.8-10.8,1.8-16.2,2.7c-0.2,0-0.3,0.1-0.5,0.1c-1.3,0.4-2.6,1-3.9,1.2c-2.3,0.4-4,1.8-5.5,3.5c-2.6,2.9-3,6.5-3.4,10.1
			c-0.1,1-0.3,2-0.3,3.1c0,0.8,0,1.7,0.4,2.3c0.6,0.8,1.4,1.5,2.3,2.1c1.1,0.9,2.3,1.8,3.5,2.6c1.2,0.8,2.5,1.5,3.8,2.2
			c0.4,0.2,0.8,0.5,1.2,0.5c1.2,0,2.5,0,3.7-0.1c1.5-0.1,2.9,0.1,4.2,1c1.4,0.9,2.9,1.6,4.4,2.4c1.1,0.5,2.1,1,3.3,1.3
			c0.3,0.1,0.7,0.6,1.3,0c0.9-1.1,2.1-1.9,3.1-2.8c0.6-0.5,1.1-1,1.6-1.4c-1.4-1.3-2.8-2.3-3.8-3.5c-1.3-1.7-2.4-3.6-3.6-5.5
			c-0.2-0.2-0.4-0.5-0.7-0.6c-1.8-0.5-3.6-1.1-5.6-0.8c-0.5,0.1-1.1-0.3-1.7-0.5c0-0.1,0-0.3,0.1-0.4c1.8-1.2,3.9-0.5,5.9-0.6
			c-0.8-0.7-1.7-1.4-2.6-1.9c-0.4-0.2-0.9-0.3-1.4-0.4c-1-0.2-2.1-0.2-3.4-0.4c0.6-0.6,0.8-1.1,1.2-1.2c2.4-0.7,4.6-0.3,6.6,1.3
			c0-0.3,0.1-0.4,0-0.4c-0.7-1.3-1.4-2.5-2-3.8c-0.3-0.5-0.4-1.2,0.5-1.8c1.7,2.7,3.3,5.4,5,8.2c0.3-0.2,0.4-0.3,0.5-0.4
			c2-1.7,4.3-2.4,6.8-1.8c0.8,0.2,1.2,0,1.4-0.7c0.3-1,1-1.6,1.9-2.1c1.3-0.8,2.5-1.3,4-0.5C94.6,615.8,95.3,616.1,96,616.4
			L96,616.4z M123.7,605.9c-0.6-0.2-1.1-0.5-1.5-0.5c-1.3-0.1-2.6-0.1-4-0.1c-1.8,0.1-2.1-0.2-1.9-1.9c0.1-0.6-0.1-0.9-0.8-0.8
			c-0.4,0.1-0.9,0.1-1.3,0.3c-2.9,1.4-5.7,2.9-8.6,4.3c-0.3,0.1-0.7,0.1-0.9,0c-0.2-0.1-0.3-0.6-0.2-0.8c0.1-0.3,0.4-0.6,0.5-0.9
			c0.3-0.7,0.8-1.4,0.9-2.2c0.2-1.4-1-2.2-2.3-1.7c-0.5,0.2-1,0.5-1.3,1c-0.9,1.2-1.7,2.5-2.4,3.8c-1.3,2.4-1.3,5.1-1.7,7.7
			c-0.4,2.6,0.2,5.1,1,7.6c1.1,3.4,3.2,6.1,5.3,8.9c0.2,0.2,0.5,0.5,0.7,0.6c1.8,0.6,3.7,0.6,5.5,0.4c0.2,0,0.5-0.2,0.7-0.4
			c2-2.5,3.9-5.1,5.8-7.6c0.1-0.2,0-0.6,0-0.9c0-0.4-0.1-0.9,0.1-1c0.2-0.2,0.7-0.2,1.1-0.2c0.1,0,0.3,0.1,0.3,0.1
			c2.5-2.8,5-5.5,7.4-8.2c0.2-0.2,0.3-0.9,0.2-1.1c-0.7-0.7-0.9-1.5-0.6-2.5c-1.2,0-2.5,0.6-3.2-0.7
			C122.1,607.6,122.9,606.9,123.7,605.9L123.7,605.9z M89.8,622c-0.4-0.2-0.6-0.2-0.8-0.4c-2.1-1.8-4.8-1.2-6.7-0.1
			c-1,0.6-1.4,1.5-0.9,2.5c0.9,2,1.6,4.2,3.4,5.7c1,0.9,1.6,2.2,2.6,3c1,0.8,2.4,1.3,3.6,1.9c0.5,0.3,0.9,0.8,1.3,1
			c1.7,0.7,3.4,1.5,5.1,2.1c0.7,0.3,1.6,0.4,2.3,0.3c2.5-0.6,4.9-1.3,7.4-2c0-1.3-0.6-2.3-1.9-2.9c-0.7-0.4-1.5-0.8-2-1.3
			c-1.1-1.2-2.2-2.5-3.1-3.9c-1.9-2.8-3.9-5.5-4.8-8.8c-0.3-1.3-2-2.1-3.3-1.6C90.1,618.3,89.6,619.8,89.8,622L89.8,622z
			 M84.7,653.1c-1.1-1.4-1.2-2.8-0.8-4.4c0.5-1.6,0.9-3.2,1.4-4.7c-0.8-0.4-1.7-1-2.5-1.4c-2.7-1.4-5.4-2.8-8.2-4.3
			c-1.5-0.8-3-1.6-4.5-2.5c-0.8-0.4-1.6-0.5-2.5-0.4c-2.6,0.2-5.1-0.2-7.7-1c-0.4,0.3-0.8,0.8-1.3,1.2c-0.1,0.1-0.2,0.4-0.2,0.6
			c0.3,0.6,0.6,1.3,1,1.8c0.7,0.9,1.5,1.6,2.2,2.4c0.4,0.5,0.9,1,1.4,1.2c2.2,0.8,4.1,2.1,5.5,4c2.4-1.1,4.8-1.7,7.4-0.9
			c3.6,1.2,5.8,3.9,5.7,7.1c0,0.7,0,1.2,0.8,1.5C83.3,653.8,84,653.9,84.7,653.1L84.7,653.1z M86.7,642.4c0.1,0.1,0.1,0.2,0.2,0.3
			c1.9-1.8,4.1-1.6,6.3-1c1.9,0.6,3.1,1.8,3.3,3.7c0.3,2.5,1.8,4.1,3.8,5.2c0.8,0.4,1.8,0.6,2.7,0.6c2.8-0.2,5.2-1.2,6.5-4
			c0.2-0.5,0.5-0.9,0.8-1.3c1-2.3,1.5-4.6-0.3-6.8c-0.5-0.6-0.9-1-1.7-0.8c-1.8,0.3-3.6,0.4-5.3,0.9c-2.7,0.9-5.3,1-7.9-0.2
			c-1.2-0.6-2.5-1.1-3.7-1.6C89.8,639.1,88.3,640.8,86.7,642.4L86.7,642.4z M50.7,644.1c-1.1-1-2.1-1.9-3.2-2.8
			c-2.5-2-6.5-2.7-9.2,0.5c-0.3,0.3-0.6,0.6-0.9,0.8c-0.6,0.4-0.8,0.9-0.7,1.6c0.1,1.2,0.1,2.3,0.2,3.5c0.1,0.6,0.1,1.3,0.4,1.8
			c1.8,2.7,4.2,4.3,7.4,4.4c2.2,0.1,4.6-2.4,4.4-4.6C48.9,647.5,49.1,645.7,50.7,644.1L50.7,644.1z M61.9,654.5
			c2.7-0.3,4.6-2.2,5.1-4.9c0.1-0.4,0.1-0.8,0.2-1.2c0.2-0.7,0-1.1-0.5-1.6c-2.5-2.8-5.7-3.8-9.3-3.3c-2,0.3-3.8,1.2-5,2.9
			c-0.6,0.9-0.3,1.7-0.4,2.6c-0.1,0.8,0.2,1.3,0.8,1.7c1.5,1,2.9,1.9,4.4,2.9C58.7,654.5,60.3,654.7,61.9,654.5L61.9,654.5z
			 M68.5,653.2c2.8,2.8,3.2,3,6.7,2.9c1.9-0.1,3.7-1.3,4.1-3c0.5-2.2,0-3.7-1.7-5c-2.6-2-5.4-1.8-8.1-0.9
			C69.2,649.2,68.9,651.1,68.5,653.2L68.5,653.2z M89.6,643.3c-0.4,0.2-1.2,0.5-1.7,1c-1.3,1.2-2,2.6-1.8,4.6
			c0.2,2.5,2.7,5.3,5.2,5.5c0.1,0,0.3,0,0.4,0c1.7,0,3.3-2,3.4-3.4c0.2-1.3,0.2-2.7,0.1-4c0-0.5-0.2-1.3-0.5-1.6
			C93.3,644.2,91.8,643.2,89.6,643.3L89.6,643.3z M46.6,639c1.1,0.6,2.1,1,3,1.6c0.9,0.6,1.6,1.4,2.5,2.1c0.2,0.1,0.5,0.1,0.8,0
			c0.9-0.3,1.7-0.7,2.6-0.9c1.5-0.3,2.9-0.4,4.3-0.6c-0.8-1.1-1.6-2.1-2.5-3.1c-0.4-0.5-1-1-1.6-1.1C52.4,636.3,49.4,636.9,46.6,639
			L46.6,639z M58.2,633.1c-3.1-1.7-5.8-3.5-7.8-6.4c-0.3,0.5-0.6,0.9-0.8,1.3c-1.6,2.9-1.3,4.2,0.7,6.1c0.2,0.2,0.7,0.3,1.1,0.3
			c1.1,0,2.3-0.2,3.3,0.1c1.4,0.4,2.4,0.5,3.1-1C57.8,633.4,57.9,633.3,58.2,633.1L58.2,633.1z M113.1,633.3L113.1,633.3
			L113.1,633.3L113.1,633.3z"/>
		<path class="st3" d="M113.4,632.8c2.2-2.6,4.4-5.2,6.7-7.8c1.8-2,3.6-4,5.4-6c0.8-0.9,1.5-2,2.2-3c2.9-4,7-6.6,10.7-9.6
			c3.3-2.7,7.1-4.9,9.3-8.7c0.4-0.7,0.8-1.3,1.1-2c0.1-0.3,0.1-0.7,0-0.9c-0.1-0.2-0.6-0.2-0.9-0.2c-1.2-0.1-1.8,0.8-2.5,1.6
			c-0.9,1.1-2,2.1-3.1,3c-1.2,1-2.4,1.9-3.7,2.9c-0.2-1.4-0.3-2.7-0.6-4c-0.4-2.1-1.6-3.7-3.4-4.8c-0.2-0.1-0.3-0.2-0.5-0.3
			c-4.8-2.1-9.7-3.2-14.9-2.3c-2.7,0.5-4.7,2.3-6.6,4.3c-1.7,1.8-3.4,3.7-5.1,5.6c-0.3-0.2-0.5-0.4-0.7-0.6c-1.2-0.9-2.7-1-3.9-0.1
			c-2.2,1.5-3.8,3.5-4.8,5.9c-0.4,0.9-0.4,1.9-0.6,2.9c-0.8-0.7-1.7-1.5-2.6-2.3c-2.8-2.8-6.1-4.8-9.9-6.1c-0.7-0.2-0.9-0.5-0.7-1.2
			c0.9-3.7,1.8-7.3,2.8-11c0.5-1.8,1.3-3.6,1.9-5.4c0.4-1,0.9-2,1.2-3.1c0.4-1.6,1.5-2.4,3-2.5c3-0.2,5.9-0.2,9.1-0.3
			c-0.3,1.3-0.4,2.3-0.6,3.2c-1.3,4.9-1.7,9.9-1.9,14.9c0,0.4-0.1,0.8,0,1.1c0,0.3,0.2,0.8,0.4,0.8c0.3,0.1,0.8-0.1,1-0.3
			c0.4-0.6,0.8-1.3,1-1.9c0.4-1.4,0.7-2.9,1.1-4.3c1-4.1,2.1-8.3,3.2-12.5c2,0.4,3.9,0.7,5.8,1.3c5.9,1.8,11.9,2,18,2.2
			c5.4,0.2,10.8,0.1,16.2-0.7c3.3-0.5,6.7-0.7,10-1.2c3.2-0.6,6.4-1.5,9.6-2.2c2.8-0.6,5.5-1.7,8.5-1.4c0.1,0,0.2,0,0.3,0
			c1.9,0.2,1.9,0.2,2.2,2.1c0.2,1.3-0.2,2.4-0.4,3.6c-0.4,2-0.5,4-0.7,6c-0.2,2-0.5,3.9-0.5,5.9c-0.1,1.5,0,3,0.2,4.5
			c0.3,2.7,0.9,5.5,0.1,8.2c-0.2,0.7-0.4,1.4-0.8,2c-2,3.2-3.8,6.5-6.1,9.6c-2.7,3.7-5.6,7.3-8.7,10.7c-4.4,4.9-9,9.6-13.7,14.2
			c-1.3,1.4-3,2.4-4.7,3.4c-4.2,2.5-8.6,5-12.9,7.4c-0.3,0.2-0.7,0.3-1.1,0.3c-4.3-0.9-8.8-0.7-13.2-1c-2.1-0.1-4.3-0.3-6.5-0.4
			c5.1-4.1,6.7-10.5,3.8-14.5c3-2.6,5.8-5.5,9.1-7.9c4.5-3.3,9.2-6.2,13.9-9.1c4.5-2.9,8.7-6.2,12.6-9.8c0.6-0.6,1.2-1.2,1.7-1.9
			c0.4-0.5,0.4-1.3-0.3-1.6c-0.4-0.2-1.2-0.2-1.5,0.1c-6.4,6.2-14.2,10.5-21.3,15.7c-4,2.9-7.9,6-11.9,9c-0.2,0.2-0.4,0.3-0.6,0.4
			C113.5,632.9,113.5,632.8,113.4,632.8L113.4,632.8z"/>
		<path class="st4" d="M64.9,602.6c-2.3,0-4.2,0.7-6,1.8c-2.5,1.5-4.7,3.4-6.2,6c-1.2,2.1-2.7,4.1-2.8,6.7c-0.1,1.6-0.3,3.1-0.6,4.7
			c-0.1,0.7-0.4,1.3-0.5,2c-0.1,0.4-0.3,1-0.1,1.3c0.5,0.9-0.1,1.4-0.5,2c-0.5,0.7-1,1.3-1.3,2.1c-0.7,1.9-0.5,3.7,1.1,5.1
			c0.3,0.3,0.6,0.5,1,0.9c-0.8,0.3-1.5,0.5-2.1,0.9c-1,0.6-1.9,1.4-2.8,2c-0.3,0.2-0.6,0.4-1,0.4c-1.3,0.2-2.6,0.5-3.9,0.5
			c-1,0-1.9-0.2-2.9-0.3c-3.6-0.6-7.1-1.4-10.2-3.5c-4.4-2.9-7.9-6.7-9.2-12c-1.2-5-1.4-10-0.7-15.1c0.1-0.7,0.4-0.9,1.1-0.8
			c1.8,0.2,3.6,0.4,5.5,0.5c0.8,0,1.4,0.4,1.8,1c0.3,0.4,0.7,0.9,1,1.3c0.5,0.5,1.2,0.4,1.3-0.3c0.8-4.6,4.3-6.9,7.7-9.3
			c3.3-2.3,7-3.7,11-4c4.6-0.3,9.1,0.1,13.4,2.2c0.4,0.2,0.9,0.4,1.3,0.5C62.2,599.8,63.6,600.9,64.9,602.6L64.9,602.6z"/>
		<path class="st5" d="M96,616.4c-0.7-0.3-1.3-0.6-1.9-0.9c-1.4-0.8-2.7-0.3-4,0.5c-0.9,0.5-1.6,1.1-1.9,2.1
			c-0.2,0.7-0.6,0.8-1.4,0.7c-2.6-0.6-4.9,0-6.8,1.8c-0.1,0.1-0.3,0.2-0.5,0.4c-1.7-2.8-3.4-5.5-5-8.2c-1,0.6-0.8,1.2-0.5,1.8
			c0.6,1.3,1.3,2.5,2,3.8c0,0.1,0,0.2,0,0.4c-2-1.7-4.2-2-6.6-1.3c-0.4,0.1-0.6,0.6-1.2,1.2c1.3,0.1,2.4,0.2,3.4,0.4
			c0.5,0.1,1,0.2,1.4,0.4c0.9,0.6,1.7,1.2,2.6,1.9c-2,0.1-4-0.6-5.9,0.6c0,0.1,0,0.3-0.1,0.4c0.6,0.2,1.1,0.6,1.7,0.5
			c2-0.3,3.7,0.3,5.6,0.8c0.3,0.1,0.6,0.3,0.7,0.6c1.2,1.8,2.2,3.8,3.6,5.5c1,1.3,2.4,2.3,3.8,3.5c-0.5,0.4-1.1,0.9-1.6,1.4
			c-1.1,0.9-2.2,1.8-3.1,2.8c-0.6,0.7-1,0.1-1.3,0c-1.1-0.3-2.2-0.8-3.3-1.3c-1.5-0.7-3-1.4-4.4-2.4c-1.3-0.9-2.7-1.1-4.2-1
			c-1.2,0.1-2.5,0.1-3.7,0.1c-0.4,0-0.8-0.3-1.2-0.5c-1.3-0.7-2.6-1.4-3.8-2.2c-1.2-0.8-2.4-1.7-3.5-2.6c-0.8-0.6-1.7-1.3-2.3-2.1
			c-0.4-0.6-0.4-1.5-0.4-2.3c0-1,0.1-2,0.3-3.1c0.4-3.6,0.9-7.2,3.4-10.1c1.5-1.7,3.1-3.1,5.5-3.5c1.3-0.2,2.6-0.8,3.9-1.2
			c0.1,0,0.3-0.1,0.5-0.1c5.4-0.9,10.8-1.9,16.2-2.7c1.6-0.2,3.2,0.1,4.7,0.9c1.2,0.7,2.5,1.4,3.7,2.2c2.1,1.3,3.6,3.3,5.1,5.2
			c0.3,0.4,0.7,0.6,1,1c0.2,0.3,0.5,0.7,0.5,1C96.4,614,96.2,615.2,96,616.4L96,616.4z"/>
		<path class="st3" d="M123.7,605.9c-0.8,1-1.6,1.8-1,2.9c0.7,1.3,2,0.7,3.2,0.7c-0.4,1-0.1,1.8,0.6,2.5c0.2,0.2,0,0.9-0.2,1.1
			c-2.4,2.7-4.9,5.4-7.4,8.2c0,0-0.2-0.1-0.3-0.1c-0.4,0-0.9,0-1.1,0.2c-0.2,0.2,0,0.7-0.1,1c0,0.3,0.1,0.7,0,0.9
			c-1.9,2.6-3.9,5.1-5.8,7.6c-0.2,0.2-0.4,0.4-0.7,0.4c-1.9,0.2-3.7,0.2-5.5-0.4c-0.3-0.1-0.5-0.3-0.7-0.6c-2.1-2.8-4.2-5.5-5.3-8.9
			c-0.8-2.5-1.4-5-1-7.6c0.4-2.6,0.4-5.3,1.7-7.7c0.7-1.3,1.5-2.5,2.4-3.8c0.3-0.4,0.8-0.8,1.3-1c1.3-0.5,2.5,0.4,2.3,1.7
			c-0.1,0.8-0.6,1.5-0.9,2.2c-0.1,0.3-0.4,0.6-0.5,0.9c-0.1,0.3,0,0.7,0.2,0.8c0.2,0.1,0.7,0.2,0.9,0c2.9-1.4,5.7-2.9,8.6-4.3
			c0.4-0.2,0.9-0.2,1.3-0.3c0.6-0.1,0.9,0.2,0.8,0.8c-0.2,1.8,0.1,2,1.9,1.9c1.3,0,2.6,0,4,0.1C122.6,605.4,123.1,605.7,123.7,605.9
			L123.7,605.9z M112,611c-0.2,0.6-0.4,1-0.3,1.3c0.6,1.2,1.2,2.4,1.9,3.5c0.3,0.5,0.8,0.5,1.2,0.2c0.5-0.3,0.7-0.7,0.4-1.2
			c-0.6-1-1.3-2-2-3C112.9,611.5,112.5,611.4,112,611L112,611z"/>
		<path class="st3" d="M89.8,622c-0.2-2.1,0.2-3.7,2.2-4.5c1.2-0.5,2.9,0.3,3.3,1.6c0.8,3.4,2.8,6.1,4.8,8.8c1,1.4,2,2.7,3.1,3.9
			c0.5,0.6,1.3,1,2,1.3c1.2,0.7,1.9,1.7,1.9,2.9c-2.5,0.7-4.9,1.4-7.4,2c-0.7,0.2-1.6,0-2.3-0.3c-1.7-0.6-3.4-1.3-5.1-2.1
			c-0.5-0.2-0.9-0.7-1.3-1c-1.2-0.7-2.6-1.1-3.6-1.9c-1-0.8-1.6-2.2-2.6-3c-1.8-1.5-2.5-3.7-3.4-5.7c-0.5-1-0.1-1.9,0.9-2.5
			c1.9-1.1,4.6-1.8,6.7,0.1C89.2,621.8,89.4,621.8,89.8,622L89.8,622z M90.6,631.6c0.3,0.6,1.5,1.5,2,1.2c0.3-0.2,0.6-0.6,0.7-1
			c0-0.8-1.3-2-1.7-1.7C91.1,630.5,90.9,631.2,90.6,631.6L90.6,631.6z M97.7,632c-0.1,0-0.3,0-0.4,0c-0.2,0.4-0.6,0.9-0.6,1.3
			c0.1,0.3,0.7,0.6,1,0.8c0.3-0.4,0.7-0.7,0.7-1.1C98.5,632.7,98,632.3,97.7,632z M91.6,624.2c-0.3,0.6-0.7,0.9-0.6,1.2
			c0.1,0.3,0.6,0.8,0.9,0.7c0.3-0.1,0.7-0.6,0.8-0.9C92.6,625,92.1,624.7,91.6,624.2L91.6,624.2z"/>
		<path class="st3" d="M84.7,653.1c-0.7,0.8-1.4,0.7-2.2,0.4c-0.8-0.3-0.8-0.9-0.8-1.5c0-3.2-2.1-5.9-5.7-7.1
			c-2.6-0.9-4.9-0.2-7.4,0.9c-1.4-1.8-3.3-3.1-5.5-4c-0.6-0.2-1-0.8-1.4-1.2c-0.8-0.8-1.6-1.6-2.2-2.4c-0.4-0.5-0.7-1.2-1-1.8
			c-0.1-0.1,0.1-0.4,0.2-0.6c0.4-0.5,0.9-0.9,1.3-1.2c2.6,0.8,5.1,1.2,7.7,1c0.9-0.1,1.7,0,2.5,0.4c1.5,0.8,3,1.7,4.5,2.5
			c2.7,1.4,5.4,2.8,8.2,4.3c0.9,0.5,1.8,1,2.5,1.4c-0.4,1.5-0.9,3.1-1.4,4.7C83.5,650.3,83.6,651.8,84.7,653.1L84.7,653.1z"/>
		<path class="st3" d="M86.7,642.4c1.6-1.7,3.1-3.3,4.7-5c1.2,0.5,2.5,1,3.7,1.6c2.6,1.2,5.2,1.1,7.9,0.2c1.7-0.5,3.5-0.6,5.3-0.9
			c0.7-0.1,1.2,0.3,1.7,0.8c1.7,2.2,1.3,4.5,0.3,6.8c-0.2,0.5-0.5,0.9-0.8,1.3c-1.3,2.8-3.7,3.8-6.5,4c-0.9,0.1-1.9-0.1-2.7-0.6
			c-2.1-1.1-3.6-2.6-3.8-5.2c-0.2-2-1.4-3.2-3.3-3.7c-2.2-0.7-4.4-0.8-6.3,1C86.8,642.6,86.7,642.5,86.7,642.4L86.7,642.4z"/>
		<path class="st3" d="M50.7,644.1c-1.6,1.5-1.8,3.4-1.6,5.4c0.2,2.2-2.2,4.7-4.4,4.6c-3.2-0.1-5.7-1.7-7.4-4.4
			c-0.3-0.5-0.3-1.2-0.4-1.8c-0.1-1.2-0.1-2.3-0.2-3.5c-0.1-0.7,0.2-1.2,0.7-1.6c0.3-0.2,0.7-0.5,0.9-0.8c2.7-3.2,6.7-2.5,9.2-0.5
			C48.6,642.2,49.5,643.1,50.7,644.1L50.7,644.1z"/>
		<path class="st3" d="M61.9,654.5c-1.7,0.2-3.2,0-4.7-0.9c-1.5-1-2.9-1.9-4.4-2.9c-0.6-0.4-0.9-0.9-0.8-1.7
			c0.1-0.9-0.2-1.8,0.4-2.6c1.2-1.8,3-2.7,5-2.9c3.6-0.5,6.8,0.5,9.3,3.3c0.4,0.5,0.7,1,0.5,1.6c-0.1,0.4-0.2,0.8-0.2,1.2
			C66.6,652.3,64.7,654.1,61.9,654.5L61.9,654.5z"/>
		<path class="st3" d="M68.5,653.2c0.4-2.1,0.7-4,1-6c2.8-0.8,5.5-1.1,8.1,0.9c1.6,1.3,2.2,2.7,1.7,5c-0.4,1.7-2.2,2.9-4.1,3
			C71.7,656.2,71.3,656.1,68.5,653.2L68.5,653.2z"/>
		<path class="st3" d="M89.6,643.3c2.2-0.1,3.7,0.9,5.1,2c0.4,0.3,0.5,1,0.5,1.6c0,1.3,0,2.7-0.1,4c-0.2,1.4-1.7,3.5-3.4,3.4
			c-0.1,0-0.3,0-0.4,0c-2.6-0.1-5-2.9-5.2-5.5c-0.1-1.9,0.6-3.3,1.8-4.6C88.4,643.8,89.2,643.6,89.6,643.3L89.6,643.3z"/>
		<path class="st3" d="M46.6,639c2.8-2.1,5.8-2.7,9-2.1c0.6,0.1,1.2,0.6,1.6,1.1c0.9,1,1.6,2,2.5,3.1c-1.4,0.2-2.9,0.3-4.3,0.6
			c-0.9,0.2-1.7,0.6-2.6,0.9c-0.2,0.1-0.6,0.1-0.8,0c-0.8-0.7-1.6-1.5-2.5-2.1C48.7,640,47.7,639.6,46.6,639L46.6,639z"/>
		<path class="st3" d="M58.2,633.1c-0.2,0.2-0.4,0.3-0.5,0.4c-0.7,1.5-1.7,1.4-3.1,1c-1-0.3-2.2,0-3.3-0.1c-0.4,0-0.8-0.1-1.1-0.3
			c-2-1.9-2.3-3.2-0.7-6.1c0.2-0.4,0.4-0.8,0.8-1.3C52.4,629.6,55.1,631.4,58.2,633.1L58.2,633.1z"/>
		<polygon class="st3" points="113.1,633.2 113.1,633.2 113.2,633.2 		"/>
		<path class="st3" d="M113.6,632.9c-0.1,0-0.2,0.1-0.3,0.1c0-0.1,0.1-0.2,0.1-0.2C113.5,632.8,113.5,632.9,113.6,632.9z"/>
		<path class="st2" d="M112,611c0.5,0.4,0.9,0.5,1.1,0.8c0.7,1,1.4,2,2,3c0.3,0.5,0.1,0.9-0.4,1.2c-0.5,0.3-0.9,0.3-1.2-0.2
			c-0.7-1.2-1.3-2.3-1.9-3.5C111.6,612,111.8,611.6,112,611L112,611z"/>
		<path class="st2" d="M90.6,631.6c0.3-0.5,0.5-1.1,0.9-1.4c0.5-0.3,1.7,0.9,1.7,1.7c0,0.3-0.3,0.8-0.7,1
			C92.2,633.1,91,632.3,90.6,631.6L90.6,631.6z"/>
		<path class="st2" d="M97.7,632c0.3,0.4,0.8,0.7,0.8,1.1c0,0.4-0.5,0.7-0.7,1.1c-0.4-0.3-1-0.5-1-0.8c-0.1-0.4,0.4-0.9,0.6-1.3
			C97.4,632,97.6,632,97.7,632z"/>
		<path class="st2" d="M91.6,624.2c0.5,0.5,1,0.8,1,1c0,0.3-0.4,0.8-0.8,0.9c-0.2,0.1-0.8-0.4-0.9-0.7
			C90.9,625.2,91.3,624.8,91.6,624.2L91.6,624.2z"/>
	</g>
</g>
<g>
	<polygon class="st1" points="169.9,324.5 87.4,350.8 23.4,292.5 41.8,207.9 124.3,181.6 188.4,239.8 	"/>
	<g>
		<path class="st2" d="M163.6,245.4c2.8,0.4,5.6,0.8,8.4,1.3c1.9,0.3,2.9,1.8,2.5,3.7c-2.6,14-5.3,28-7.9,42
			c-1.1,5.9-2.1,11.9-3.2,17.8c-0.3,1.8-0.8,2.3-2.6,2.1c-5.6-0.6-11.3-1.2-16.9-1.9c-5.3-0.6-10.7-1.2-16-1.8
			c-4.8-0.6-9.5-1.2-14.3-1.8c-4.5-0.5-8.9-1-13.4-1.5c-4.4-0.5-8.7-1-13.1-1.5c-5.4-0.6-10.9-1.2-16.3-1.9c-3.7-0.4-7.5-1-11.2-1.4
			c-4.5-0.5-8.9-1-13.4-1.6c-3.4-0.5-6.8-1.3-10.1-2.1c-0.5-0.1-1.1-1.1-1-1.6c0.5-4.8,1-9.6,1.6-14.4c0.5-4.3,1-8.5,1.5-12.8
			c0.4-3.7,0.9-7.5,1.3-11.2c0.5-4.4,1-8.7,1.5-13.1c0.5-4.4,1-8.7,1.5-13.1c0.2-1.7,0.3-3.4,1.5-4.9c0.6-0.8,1.1-1.1,2.1-0.9
			c6.9,1.2,13.9,2.2,20.8,3.7c3.8,0.9,7.5,0.1,11.3,0.1c5,0,10.1-0.2,15.1-0.5c9.9-0.5,19.7,0,29.6,0.4c7.1,0.3,14.2,0.5,21.3,0.7
			c4.8,0.2,9.6,0.3,14.5,0.4c2.3,0,2.7,0.4,3,2.6C162.3,236.5,162.9,240.9,163.6,245.4L163.6,245.4z M171.7,249.9
			c-42-7.4-84-14.8-126-22.3c-2.6,22.5-5.1,45-7.6,67.2c40.9,4.8,81.6,9.6,122.5,14.4C164.3,289.5,168,269.8,171.7,249.9
			L171.7,249.9z M82.5,230.4c0,0.1,0,0.2-0.1,0.4c0.5,0.1,0.9,0.3,1.4,0.4c3.5,0.6,6.9,1.1,10.4,1.7c5.2,0.9,10.3,2.5,15.7,2.9
			c5.3,0.4,10.3,2.5,15.7,2.8c4.2,0.3,8.3,1.3,12.4,2c6.8,1.2,13.5,2.5,20.3,3.8c0.7,0.1,1.4,0.1,2.1,0.2c-0.2-0.6-0.3-1.2-0.5-1.8
			c0,0,0-0.1,0-0.1c-0.3-2.6-0.5-5.2-0.9-7.8c-0.1-0.6-0.4-1.6-0.8-1.8c-0.9-0.4-2.1-0.6-3.1-0.7c-3.2-0.2-6.3-0.2-9.5-0.4
			c-1.5-0.1-3-0.2-4.4-0.2c-1.8-0.1-3.6,0-5.3-0.1c-1.6-0.1-3.2-0.2-4.8-0.3c-1.9-0.1-3.7-0.1-5.6-0.1c-1.4-0.1-2.9-0.2-4.3-0.2
			c-1.7,0-3.4,0.1-5.1,0c-1.7-0.1-3.4-0.3-5.1-0.4c-1.2-0.1-2.4-0.1-3.6-0.1c-1.5,0-3,0.1-4.5,0.1c-2.3,0-4.6-0.2-6.9-0.2
			c-2.2,0-4.5,0.2-6.7,0.2C86.9,230.5,84.7,230.4,82.5,230.4L82.5,230.4z"/>
		<path class="st3" d="M171.7,249.9c-3.7,19.9-7.4,39.6-11.1,59.3c-40.9-4.8-81.6-9.6-122.5-14.4c2.5-22.2,5.1-44.7,7.6-67.2
			C87.7,235.1,129.7,242.5,171.7,249.9L171.7,249.9z M90.4,271.6c4.7,0.7,9.4,1.5,14,2.2c5.8,0.8,11.5,1.6,17.3,2.4
			c5.1,0.7,10.3,1.4,15.4,2.1c0.4,0.1,0.9,0,1.3-0.2c1-0.4,1.2-1.5,0.3-2.2c-0.4-0.3-1-0.5-1.5-0.6c-3.8-0.6-7.6-1.1-11.5-1.6
			c-5.1-0.7-10.3-1.3-15.4-2c-4.9-0.6-9.8-1.3-14.7-1.9c-1.8-0.2-3.6-0.5-5.4-0.5c-0.5,0-1.1,0.5-1.6,0.7c0.4,0.4,0.7,0.9,1.1,1.3
			C90,271.5,90.3,271.5,90.4,271.6L90.4,271.6z M91.8,281.3c2.4,0.4,5.2,0.9,8,1.4c5.2,0.8,10.4,1.5,15.5,2.3
			c5.9,0.9,11.8,1.9,17.7,2.9c0.6,0.1,1.2,0.1,1.7-0.1c0.5-0.2,1-0.8,1-1.2c0-0.5-0.4-1.1-0.8-1.4c-0.3-0.3-0.9-0.3-1.4-0.4
			c-5.9-0.8-11.8-1.6-17.7-2.5c-6.6-1-13.2-2.1-19.9-3c-2.2-0.3-4.4-0.4-6.6-0.5c-0.4,0-1,0.5-1,0.8c0,0.4,0.4,1,0.8,1.1
			C89.9,281,90.7,281,91.8,281.3L91.8,281.3z M96.6,265.2c2.3,0.4,4.8,0.8,7.3,1.2c5.1,0.8,10.3,1.5,15.4,2.3
			c4.2,0.6,8.3,1.3,12.5,1.9c1,0.2,2,0,2.1-1.2c0.1-1.2-0.6-1.7-1.8-1.9c-4.1-0.5-8.1-1.1-12.2-1.7c-6.3-0.9-12.6-1.8-18.9-2.7
			c-2-0.3-4.1-0.6-6.1-0.7c-0.5,0-1,0.6-1.4,0.9c0.4,0.5,0.7,1.1,1.2,1.4C95.2,265,95.9,265,96.6,265.2L96.6,265.2z M164.3,252.5
			c-0.4-0.1-0.7-0.3-1-0.4c-4.3-0.5-8.5-0.9-12.8-1.4c-1.2-0.1-2.1,0.2-2.4,1.5c-0.2,0.7-0.4,1.4-0.5,2.1c-0.3,2-0.6,4.1-0.8,6.1
			c-0.3,2.2-0.5,4.3-0.8,6.8c5.3,0.9,10.6,1.8,15.9,2.7C162.7,264.2,163.5,258.4,164.3,252.5L164.3,252.5z M66.7,251.3
			c0-0.3,0-0.5,0.1-0.8c-1.8-0.5-3.5-1-5.3-1.3c-3.3-0.5-6.7-0.9-10-1.3c-0.9-0.1-1.8-0.1-2,0.9c-0.3,1.1,0.6,1.5,1.4,1.8
			c0.4,0.1,0.8,0.1,1.2,0.2c2.7,0.2,5.3,0.6,8,0.7C62.2,251.5,64.4,251.4,66.7,251.3L66.7,251.3z M70.9,237.1c0-0.1,0-0.2,0-0.3
			c-0.1-0.1-0.2-0.1-0.3-0.2c-3.4-0.5-6.7-1.1-10.1-1.6c-3.2-0.5-6.4-1-9.5-1.5c-0.8-0.1-1.5-0.2-1.7,0.9c-0.2,1.1,0.7,1.3,1.3,1.4
			c5.9,0.9,11.8,1.8,17.8,1.5C69.2,237.2,70,237.1,70.9,237.1z M69.8,243.1c0-0.2,0-0.3,0-0.5c-3.6-0.5-7.2-1-10.9-1.5
			c-2.2-0.3-4.4-0.7-6.7-0.8c-0.8,0-2.3-0.4-2.4,1c-0.1,1.3,1.3,1.4,2.3,1.5c3.7,0.3,7.5,0.5,11.2,0.6
			C65.5,243.5,67.6,243.2,69.8,243.1L69.8,243.1z"/>
		<path class="st5" d="M82.5,230.4c2.2,0,4.5,0.1,6.7,0.1c2.2,0,4.5-0.2,6.7-0.2c2.3,0,4.6,0.1,6.9,0.2c1.5,0,3-0.1,4.5-0.1
			c1.2,0,2.4,0.1,3.6,0.1c1.7,0.1,3.4,0.3,5.1,0.4c1.7,0.1,3.4,0,5.1,0c1.4,0,2.9,0.2,4.3,0.2c1.9,0.1,3.7,0.1,5.6,0.1
			c1.6,0.1,3.2,0.2,4.8,0.3c1.8,0.1,3.6,0.1,5.3,0.1c1.5,0,3,0.2,4.4,0.2c3.2,0.1,6.3,0.2,9.5,0.4c1.1,0.1,2.2,0.2,3.1,0.7
			c0.5,0.2,0.7,1.2,0.8,1.8c0.3,2.6,0.6,5.2,0.9,7.8c0,0,0,0.1,0,0.1c0.2,0.6,0.3,1.2,0.5,1.8c-0.7-0.1-1.4-0.1-2.1-0.2
			c-6.8-1.3-13.5-2.6-20.3-3.8c-4.1-0.8-8.2-1.8-12.4-2c-5.4-0.3-10.4-2.4-15.7-2.8c-5.4-0.4-10.4-2-15.7-2.9
			c-3.5-0.6-6.9-1.1-10.4-1.7c-0.5-0.1-0.9-0.2-1.4-0.4C82.4,230.6,82.5,230.5,82.5,230.4L82.5,230.4z"/>
		<path class="st2" d="M90.4,271.6c-0.2-0.1-0.4-0.1-0.6-0.2c-0.4-0.4-0.7-0.9-1.1-1.3c0.5-0.3,1.1-0.7,1.6-0.7
			c1.8,0.1,3.6,0.3,5.4,0.5c4.9,0.6,9.8,1.2,14.7,1.9c5.1,0.7,10.3,1.3,15.4,2c3.8,0.5,7.7,1,11.5,1.6c0.5,0.1,1.1,0.2,1.5,0.6
			c0.9,0.7,0.7,1.8-0.3,2.2c-0.4,0.2-0.9,0.3-1.3,0.2c-5.1-0.7-10.3-1.4-15.4-2.1c-5.8-0.8-11.5-1.5-17.3-2.4
			C99.8,273.1,95.2,272.3,90.4,271.6L90.4,271.6z"/>
		<path class="st2" d="M91.8,281.3c-1.1-0.2-1.9-0.3-2.6-0.6c-0.4-0.2-0.8-0.8-0.8-1.1c0-0.3,0.7-0.9,1-0.8c2.2,0.1,4.4,0.2,6.6,0.5
			c6.6,1,13.2,2.1,19.9,3c5.9,0.9,11.8,1.6,17.7,2.5c0.5,0.1,1.1,0.1,1.4,0.4c0.4,0.3,0.8,0.9,0.8,1.4c0,0.4-0.6,1-1,1.2
			c-0.5,0.2-1.2,0.2-1.7,0.1c-5.9-0.9-11.8-1.9-17.7-2.9c-5.2-0.8-10.4-1.5-15.5-2.3C97.1,282.2,94.3,281.7,91.8,281.3L91.8,281.3z"
			/>
		<path class="st2" d="M96.6,265.2c-0.7-0.2-1.5-0.2-2-0.5c-0.5-0.3-0.8-0.9-1.2-1.4c0.5-0.3,1-0.9,1.4-0.9c2,0.1,4.1,0.4,6.1,0.7
			c6.3,0.9,12.6,1.8,18.9,2.7c4.1,0.6,8.1,1.1,12.2,1.7c1.1,0.2,1.9,0.7,1.8,1.9c-0.1,1.2-1.1,1.3-2.1,1.2
			c-4.2-0.7-8.3-1.3-12.5-1.9c-5.1-0.8-10.3-1.5-15.4-2.3C101.4,266,99,265.6,96.6,265.2L96.6,265.2z"/>
		<path class="st2" d="M164.3,252.5c-0.8,5.9-1.6,11.6-2.5,17.4c-5.4-0.9-10.6-1.8-15.9-2.7c0.3-2.4,0.5-4.6,0.8-6.8
			c0.3-2,0.5-4.1,0.8-6.1c0.1-0.7,0.3-1.4,0.5-2.1c0.3-1.3,1.2-1.6,2.4-1.5c4.3,0.5,8.5,0.9,12.8,1.4
			C163.7,252.2,164,252.4,164.3,252.5L164.3,252.5z M160.9,268.3c0.6-4.6,1.3-9.2,1.9-14.2c-4.4-0.6-8.7-1.1-13.3-1.7
			c-0.6,4.2-1.1,8.2-1.6,12.3c0,0.3,0.4,0.9,0.8,1C152.6,266.6,156.5,267.4,160.9,268.3L160.9,268.3z"/>
		<path class="st2" d="M66.7,251.3c-2.2,0.1-4.5,0.2-6.7,0.1c-2.7-0.1-5.3-0.4-8-0.7c-0.4,0-0.8-0.1-1.2-0.2
			c-0.9-0.3-1.7-0.7-1.4-1.8c0.3-1,1.2-1,2-0.9c3.3,0.4,6.7,0.8,10,1.3c1.8,0.3,3.5,0.9,5.3,1.3C66.7,250.8,66.7,251,66.7,251.3
			L66.7,251.3z"/>
		<path class="st2" d="M70.9,237.1c-0.8,0.1-1.7,0.1-2.5,0.2c-6,0.3-11.9-0.5-17.8-1.5c-0.7-0.1-1.5-0.3-1.3-1.4
			c0.2-1,0.9-1,1.7-0.9c3.2,0.5,6.4,1,9.5,1.5c3.4,0.5,6.7,1.1,10.1,1.6c0.1,0,0.2,0.1,0.3,0.2C70.9,236.9,70.9,237,70.9,237.1z"/>
		<path class="st2" d="M69.8,243.1c-2.1,0.1-4.3,0.4-6.4,0.3c-3.7-0.1-7.5-0.4-11.2-0.6c-1-0.1-2.3-0.1-2.3-1.5c0.1-1.4,1.5-1,2.4-1
			c2.2,0.1,4.5,0.5,6.7,0.8c3.6,0.5,7.2,1,10.9,1.5C69.8,242.8,69.8,242.9,69.8,243.1L69.8,243.1z"/>
		<path class="st4" d="M160.9,268.3c-4.3-0.9-8.2-1.8-12.1-2.7c-0.3-0.1-0.8-0.7-0.8-1c0.5-4.1,1-8.1,1.6-12.3
			c4.6,0.6,8.9,1.2,13.3,1.7C162.1,259.1,161.5,263.8,160.9,268.3L160.9,268.3z"/>
	</g>
</g>
<g>
	<polygon class="st1" points="402.6,478.6 327.3,521.3 252.6,477.4 253.3,390.8 328.6,348.1 403.3,391.9 	"/>
	<g>
		<path class="st3" d="M279.7,479.7c0.2,1.7,0.1,3.4-0.5,5.1c-0.3,0.8-0.8,1.4-1.7,1.8c-1.4,0.6-2.9,0.7-4.4,0.3
			c-1.1-0.3-2-1.4-1.6-2.5c0.4-1.6,1-3.1,1.6-4.6c0.1-0.2,0.5-0.4,0.7-0.4C275.8,479.4,277.7,479.5,279.7,479.7L279.7,479.7z"/>
		<g>
			<path class="st2" d="M299,412c0.3,0.2,0.9,0.4,1.2,0.7c0.4,0.3,0.9,0.8,0.9,1.2c0,0.5-0.5,1-1,1.3c-0.5,0.3-1,0.5-1.2,1.1
				c-0.3,0.8-1,0.9-2.3,0.5c-0.9,0.8-1.2,1.4-0.6,2.6c0.7,1.4,0.6,2.8,0.7,4.3c0.1,0.9-0.3,1.6-0.9,2.3c-1.3,1.5-2.9,2.2-4.7,2.7
				c-0.4,0.1-0.9,0.3-1.3,0.4c-1,0.3-1.2,0.6-0.9,1.6c0.4,1.6,0.8,3.1,1.2,4.6c0.3,1.1,0.7,1.2,1.5,0.4c0.6-0.5,1.2-1.2,1.9-1.7
				c1.3-0.8,2.7-1.6,4.1-2.3c0.8-0.4,1.5,0.1,2.1,0.6c1.9,1.3,3.7,2.7,5.6,3.9c1.4,0.8,2.9,1.4,4.3,2.2c2.2,1.3,4.7,2.2,7.1,3.2
				c2.4,0.9,4.8,2,7.1,3.1c0.5,0.2,0.8,0.2,1.2-0.2c2.2-2,4-4.4,5.3-7.1c1.5-3.1,3-6.2,4.5-9.4c0.3-0.5,0.5-1-0.1-1.5
				c-0.2-0.2-0.3-0.8-0.2-1.1c0.2-1.2,0.5-2.4,0.8-3.7c-1.2-0.5-2.5-1.2-3.8-1.6c-3-1.1-4.9-3.3-6.2-6c-0.6-1.3-0.5-2.7-0.1-4.1
				c-0.5-0.4-1-0.8-1.5-1.1c-0.7-0.4-1.1-1-1-1.9c0.2-1.8,0.4-3.7,0.6-5.5c0-0.4,0-0.9-0.2-1.3c-0.6-1-1.2-2-1.8-2.9
				c-1.3-1.8-1.8-3.7-1.7-5.9c0.1-2.6-0.1-5.1-0.1-7.7c0-0.7,0.1-1.3,0.1-2c-1.5,0.3-1.9,0.1-2.6-1.3c-0.2-0.4-0.3-0.8-0.5-1.2
				c-0.3-0.9-0.2-1.6,0.4-2.4c2.9-3.9,5.7-8,8.8-11.9c3.7-4.7,8.2-8.3,14.4-9.4c3.7-0.7,7,0.2,10.2,2.1c0.9,0.6,1.8,1.1,2.8,1.4
				c2.6,1,4.3,2.9,5.9,5.1c2.2,3,4,6.3,5.3,9.8c0.9,2.4,1.3,5,1.6,7.6c0.5,4.8-0.5,9.4-1.8,14c-0.8,3.1-1.3,6.4-1.9,9.6
				c0,0.1,0,0.2,0,0.4c1.1-0.7,2.1-1.3,3.2-1.9c1.1-0.6,1.5-0.4,1.8,0.8c0.9,3.7,1.9,7.3,2.8,11c0.1,0.2,0.2,0.5,0.4,0.6
				c2.6,1.6,4.9,3.7,7.1,5.9c0.9,0.9,2,1.6,2.7,2.6c2,2.7,4.5,5,6.7,7.5c1.5,1.6,2.1,3.6,2.1,5.8c0.1,9.3,0.2,18.6,0.2,27.9
				c0,4.1,0.1,8.1,0.2,12.2c0.1,2.4,0.5,4.9,0.5,7.3c0,3.6-0.3,7.2-0.5,10.8c-0.1,1.4-0.1,2.8-0.2,4.4c-1.1,0.3-2.2,0.6-3.3,0.9
				c-3.6,0.9-7.3,1.9-10.9,2.8c-1.2,0.3-2.4,0.1-3.7-0.1c-2.2-0.3-4.4-0.4-6.6-0.5c-1.9-0.1-3.9,0.1-5.7-0.2c-1.7-0.3-3.4-0.9-5-1.5
				c-1.3-0.5-2.4-0.7-3.7-0.3c-4.3,1.3-8.6,2.5-12.8,3.7c-0.3,0.1-0.7,0.2-1,0.3c-2.1,0.5-3.2-0.8-2.9-2.8
				c0.8-6.1,1.8-12.2,2.7-18.3c0.3-2,0.5-4,0.8-6.1c-4.6-1.1-9.2-2.2-13.8-3.3c0,0.9-0.4,1-1.1,0.8c-0.7-0.2-1.5-0.3-2.2-0.4
				c-0.8-0.2-1.1,0.1-1,0.9c0.1,0.7,0.1,1.4,0.3,2.1c1,5.6,2,11.3,3.1,16.9c0.6,2.9,1.4,5.8,2.3,8.7c0.2,0.8,1.2,1.4,1.8,2
				c1.6,1.6,3.3,3,4.8,4.6c0.7,0.8,1.2,1.8,1.6,2.9c0.5,1.3-0.6,2.5-1.9,2.6c-2.5,0.1-4.5-0.9-6.5-2.2c-2.9-1.9-5.9-3.7-9.2-4.9
				c-1.7-0.6-2.1-1.6-1.4-3c0.1-0.2,0.1-0.4,0-0.6c-2.1-4.5-3.3-9.3-4.4-14.1c-0.6-2.7-1.2-5.3-1.8-8c-0.1-0.7-0.5-0.9-1.1-0.9
				c-1.7,0-3.3,0-5-0.2c-0.6,0-1.1,0.1-1.5,0.5c-1.6,1.8-3.8,2.2-6,2.2c-1.6,0-2.6-1-3.3-2.3c-2.8,0.1-5.5,0.1-8.2,0.2
				c-0.2,0.9-0.4,2-0.8,3c-1,2.9-4.8,3.9-7,3.7c-1.9-0.1-3.4-0.8-4.3-2.7c-0.3-0.6-0.4-1.4-0.6-2c-5.3-0.2-10.5-0.4-15.9-0.5
				c0.1-2.3,0.1-4.5,0.2-6.8c2.7,0,5.3,0.1,7.9,0.1c-0.3-3.4-0.1-6.7,0.8-10c2.1-7.6,4.1-15.3,6.3-22.9c0.8-2.9,2-5.8,3.1-8.6
				c0.4-1.1,1.1-2.1,1.8-3.1c0.5-0.7,0-1-0.3-1.5c-0.1-0.2-0.7-0.2-1-0.1c-1.4,0.5-2.7,1.1-4.1,1.6c-1.4,0.5-2.1-0.1-2-1.6
				c0-0.3-0.1-0.6-0.2-0.8c-0.1,0-0.2,0-0.3,0c-0.1,0.1-0.1,0.3-0.2,0.4c-0.6,0.9-1.2,1-1.9,0.1c-0.5-0.7-0.7-1.4-0.6-2.2
				c0.1-0.5,0-0.9-0.1-1.2c-0.3-0.4-0.9-0.7-1-1.1c-0.1-0.8,0.4-1.3,1.2-1.4c-0.6-0.9-1.3-1-2.4-0.5c-0.5,0.2-0.9,0.5-1.4,0.6
				c-1.2,0.3-2-0.5-1.7-1.7c0.2-0.6-0.1-0.8-0.6-0.9c-1.9-0.5-2.7-2.2-1.8-3.7c0.2-0.3,0.6-0.5,0.9-0.7c0.2-0.2,0.4-0.5,0.7-0.7
				c-0.2-0.1-0.5-0.3-0.7-0.4c-0.7-0.3-1-0.9-0.9-1.6c0.1-0.8,0.8-1.5,1.6-1.5c0.4,0,0.8,0.1,1.2,0.1c0.4,0,0.8-0.2,1.2-0.3
				c-0.1-0.4-0.2-0.8-0.4-1.1c-0.2-0.3-0.5-0.5-0.7-0.8c-0.4-0.6-0.8-1-1.5-1.2c-1.4-0.4-1.5-1.5-0.4-2.6c-0.8-1.5-0.6-1.9,0.9-2.7
				c0.6-0.3,1.3-0.8,1.2-1.8c-0.1-0.9,0.4-1.2,1.4-1.1c0,0.1,0.1,0.1,0.1,0.2c0.1,0.6,0.1,1.3,1,1.1c0.9-0.1,0.8-0.9,0.7-1.5
				c0-0.3-0.1-0.6-0.3-0.9c-0.6-0.8-0.6-1.7-0.1-2.6c0.5-1.1,1.2-2.1,1.8-3.1c1.1-1.6,2.6-2.1,4.5-1.7c0.3,0.1,0.6,0.4,0.9,0.6
				c0.3,0.4,0.8,0.7,1.2,0.3c0.3-0.2,0.3-0.8,0.3-1.2c0-0.7-0.2-1.4-0.2-2c0-0.9,0.9-1.4,1.9-1c0.9,0.4,1.6,0.2,2.4,0
				c1-0.2,2-0.2,2.9-0.2c1.2,0.1,1.8,0.8,1.7,2c0,0.3,0.2,0.6,0.5,0.8c0.2-0.7,0.3-1.5,0.5-2.2c0.4-1.3,2.6-2.1,3.8-1.3
				c0.2,0.2,0.2,0.6,0.4,1.1c0.9-0.6,2-1.5,3-0.6c0.8,0.7,1.3,1.7,2,2.6c0.1-0.1,0.2-0.3,0.3-0.3c0.6-0.2,1.2-0.5,1.7-0.4
				c0.6,0.2,1.4,0.5,1.4,1.4c0,0.7,0.2,1.4,0.3,2.2c1.1-0.7,2.1-1.4,3.4-0.7c1,0.5,1.5,1.7,1.3,3.2c1.7,0.3,2.2,0.7,2.3,1.7
				c0.1,1-0.4,1.4-1.9,2c0,0.7,0,1.3,1,1.4c0.9,0.1,1.6,0.8,2,1.6c0.5,0.9,0.1,1.8-0.9,2.4c-0.4,0.2-0.8,0.5-1.4,0.8
				c0.9,0.4,1.7,0.8,1.5,1.7C299.9,410.7,299.4,411.3,299,412L299,412z M349.5,465.3c-0.2,0.9-0.4,1.6-0.6,2.4
				c-0.2,0.7-0.3,1.4-0.6,2.1c-0.1,0.3-0.6,0.7-0.9,0.7c-0.3,0-0.7-0.5-0.7-0.9c-0.2-1.3-0.3-2.7-0.3-4c0-0.7-0.3-1-1-1
				c-1.9,0.1-3.8,0.1-5.7,0.2c-6.8,0.4-13.7,0.1-20.6,1.1c0,0.2,0,0.4,0.1,0.5c0.7,1.6,1.3,3.2,2,4.8c0.4,1.1,1.1,1.7,2.4,1.9
				c4.1,0.6,8.1,1.6,12.2,2.2c7.6,1.2,15.2,2.5,22.6,4.4c0.8,0.2,1.4,0,1.8-0.8c0.6-1.1,1.3-2.2,1.9-3.4c2.1-4.1,4.2-8.3,6.3-12.4
				c1-1.9,2.1-3.7,3.2-5.5c1.3,0.5,1.3,0.7,0.7,1.8c-0.9,1.6-1.9,3.2-2.8,4.7c-3.1,5.4-6.3,10.7-8.6,16.6
				c-7.1-0.7-14.2-1.4-21.4-2.1c-1,7.8-2,15.8-3,23.6c0,0,0.1,0,0.3-0.1c5.1-1.5,10.2-3,15.3-4.6c1.4-0.4,2.6-0.2,3.7,0.8
				c0.5,0.5,1.1,1,1.7,1.1c1.7,0.3,3.4,0.6,5.1,0.5c2.9-0.1,5.7-0.2,8.6,0.2c1.5,0.2,3.1,0.1,4.6-0.3c3.8-1.1,7.4-2.5,11.3-3.7
				c-0.2-0.8-0.5-1.7-0.5-2.6c-0.2-4.6-0.4-9.1-0.5-13.7c-0.2-9.1-0.3-18.2-0.5-27.2c-0.1-4.8-0.2-9.7-0.2-14.5
				c0-1.7-0.4-3.1-1.5-4.3c-2.3-2.6-4.6-5.2-7-7.7c-1.5-1.6-3-3.1-4.6-4.6c-0.6-0.6-1.4-1.1-2.2-1.7c-0.8,1-1.6,1.8-2.3,2.7
				c-2.1,2.8-4.1,5.6-6.1,8.4c-0.2,0.2-0.3,0.4-0.4,0.7c-0.5,1.1-0.8,1.3-1.9,1c-0.5-0.1-0.9-0.3-1.4-0.5c-1.4-0.4-2.8-0.7-4.3-1.1
				c-0.8,2.8-1.6,5.5-2.3,8.2c-0.5,1.8-0.8,3.6-1.2,5.4c-0.3,1.2-1.3,1.5-2.2,0.7c-0.1-0.1-0.3-0.3-0.5-0.5
				c-1.6,5.4-3.3,10.7-4.2,16.4c1.6-0.1,3.1-0.2,4.6-0.1c0.9,0,1.3-0.3,1.6-1.1c1.3-3.4,2.7-6.8,4.1-10.1c2-4.7,4.4-9.1,7.7-12.9
				c1-1.1,2.1-2.4,3.7-2.6c2-0.2,4.1,0.1,5.9,1c0.4,0.2,0.6,0.6,0.9,0.8c-1.6,0.3-3.1,0.7-4.6,0.9c-1.1,0.2-2.1,0.5-3,1.4
				c-2.7,2.9-5.2,6.1-7.2,9.6c-2.2,3.8-4,7.8-6,11.7c0,0.1,0,0.2,0,0.3c0.2,0,0.4,0,0.6-0.1c1.7-0.8,3.5-0.6,5.2-0.5
				c0.6,0,1,0.3,1.1,0.9c0.1,0.6-0.3,1-0.9,1.2c-0.4,0.1-0.7,0.1-1.1,0.2c-1.4,0.2-2.9,0.4-4.6,0.7c0.9,1.1,1.7,1.9,2.4,2.7
				c0.5,0.6,1,1.2,1.3,1.8c0.2,0.4,0,1.1-0.3,1.5c-0.2,0.3-0.9,0.3-1.3,0.2c-0.3-0.1-0.6-0.4-0.9-0.7
				C351.5,467.2,350.5,466.3,349.5,465.3L349.5,465.3z M321.6,395.2c0.3,0.5,0.6,0.9,0.9,1.4c0.8,1.4,1.6,2.8,2.3,4.2
				c0.2,0.3,0.1,0.8,0.1,1.2c-0.2,1.4-0.5,2.7-0.6,4c0,0.4,0.1,1,0.4,1.3c0.7,0.9,1.7,1,2.7,0.8c1.3-0.3,2.5-0.6,3.8-0.7
				c2.6-0.2,5.1-0.8,7-2.9c0.2-0.2,0.5-0.4,0.7-0.6c3.2-2.4,5.2-5.7,6.8-9.3c0.6-1.4,0.8-3,1.2-4.4c0.1-0.2,0-0.6-0.1-0.7
				c-0.5-0.8-1.1-1.5-1.6-2.2c-3.8-4.5-7.6-9-11.4-13.5c-0.5-0.6-1.1-0.8-1.8-0.6c-2.7,0.7-5.3,1.7-7.4,3.7c-1,0.9-2.1,1.8-3,2.8
				c-0.3,0.4-0.7,0.9-0.7,1.4c0,3.4,0.1,6.8,0.1,10.3c0.3-0.1,0.5-0.1,0.8-0.2c1.2-0.5,2.4-1,3.6-1.5c1.2-0.5,1.4-0.4,1.9,0.8
				C325.5,392.2,323.2,393.2,321.6,395.2L321.6,395.2z M281.9,431.4c-0.7,0.6-1.2,1.2-1.8,1.7c-0.8,0.7-1.8,1-2.9,0.7
				c-0.8-0.2-1.6-0.3-2.1,0.6c-0.4,0.7-0.8,1.4-1,2.1c-0.8,2.1-1.5,4.2-2.2,6.3c-0.7,2.2-1.3,4.5-2,6.7c-0.5,1.7-0.8,3.4-1.2,5.1
				c-0.5,1.8-1.2,3.7-1.7,5.5c-0.6,2.5-1.2,5-1.7,7.5c-0.3,1.2-0.6,2.3-0.7,3.5c-0.2,1.5-0.3,2.9-0.5,4.4c-0.1,0.9,0.6,2,1.2,2
				c1.4,0.1,2.8,0.2,4.2,0.2c0.5,0,0.9-0.2,0.9-0.8c0-0.6,0-1.3,0-1.9c0-1.6,0-3.1,0.1-4.7c0.1-1.4,0.3-2.9,0.4-4.3
				c0.1-1.1,0.4-2.2,0.5-3.4c0.2-1.4,0.3-2.9,0.5-4.3c0.2-1.4,0.5-2.7,0.7-4c0.4-2,0.6-3.9,1.1-5.9c0.6-2.4,1.3-4.7,2.1-7.1
				c0.4-1.2,0.9-2.3,1.6-3.3c0.5-0.6,1.5-1.2,2.2-1.1c2.4,0.3,4,1.8,5.3,3.8c0.4,0.6,0.7,1.3,1,2c0.4,0.8,0.8,1.6,0.9,2.5
				c0.2,2.2,0.3,4.4,0.3,6.6c0,1.5-0.1,3-0.4,4.4c-0.3,1.9-0.8,3.8-1.3,5.7c-0.8,3.2-1.8,6.3-3.2,9.3c-0.3,0.7-0.4,1.4-0.1,2.2
				c0.2,0.5,0.7,0.7,1.1,0.4c0.5-0.5,1.1-1,1.6-1.5c2.1-1.9,4.2-3.9,6.3-5.8c1.1-0.9,2.2-1.8,3.4-2.6c0.8-0.6,0.9-1.1,0.5-2
				c-0.2-0.6-0.5-1.2-0.6-1.8c-0.7-3.2-1.3-6.4-1.9-9.6c-0.5-2.5-1.1-4.8-2.1-7.1c-0.3-0.8-0.7-0.8-1.2-0.3
				c-0.6,0.6-1.3,0.3-1.7-0.1c-1.3-1-1.6-2.7-0.9-4.2c0.2-0.6,0.9-0.8,1.4-0.5c0.2,0.1,0.4,0.3,0.6,0.4c0.1,0,0.2,0,0.3-0.1
				c-0.2-2.2-0.1-4.4-0.9-6.6C285.9,433.1,283.8,433.2,281.9,431.4L281.9,431.4z M279.4,476.9c0.4-2,0.7-3.8,1-5.6
				c0.4-1.9,0.9-3.7,1.3-5.5c0.7-3,1.5-6,2.1-9.1c0.4-1.7,0.5-3.4,0.7-5.1c0.1-0.7,0-1.4,0-2c0-1.1,0.2-2.1,0-3.1
				c-0.3-1.6-0.7-3.1-1.2-4.6c-0.5-1.5-1.4-2.7-3.2-2.8c-1.1-0.1-2.5,0.5-2.7,1.3c-0.3,1.3-0.5,2.6-0.7,3.9c-0.3,1.7-0.4,3.4-0.9,5
				c-0.7,2.1-1.1,4.3-1.4,6.6c-0.3,2.2-0.6,4.4-0.9,6.6c-0.3,1.9-0.7,3.8-0.9,5.7c-0.3,2.1-0.5,4.3-0.7,6.4c-0.1,0.8,0,1.7,0.4,2.4
				c0.2,0.3,1,0.4,1.6,0.5c0.4,0.1,0.7,0,1.1,0c0.5-0.1,1-0.2,1.5-0.2C277.4,477,278.4,476.9,279.4,476.9L279.4,476.9z M364.7,406.8
				c-0.1,0-0.2,0-0.3,0c-0.6,0.8-1.2,1.6-1.8,2.4c-1.3,1.8-2.6,3.7-4,5.5c-2.7,3.3-5.4,6.6-8.1,9.8c-2.3,2.7-4.7,5.4-7.9,7.2
				c-0.3,0.2-0.6,0.4-0.9,0.7c2.2,3.2,4.4,6.4,6.7,9.6c0.5-2,0.9-4,1.4-5.9c0.7-2.4,1.4-4.8,2.2-7.2c0.2-0.5,0.4-0.8,1.1-0.5
				c0.6,0.3,1.3,0.2,1.9,0.5c2.1,0.8,3.4-0.1,4.6-1.8c2.5-3.5,5.1-6.8,7.6-10.3c0.1-0.2,0.2-0.6,0.1-0.8c-0.5-1.4-1.1-2.8-1.5-4.3
				C365.3,410,365,408.4,364.7,406.8L364.7,406.8z M293.2,447.1c-0.1,0-0.1,0-0.2,0c0,0.3,0,0.6,0.1,0.9c0.6,4.2,1.9,8.2,3,12.3
				c0.4,1.4,1.1,2.5,2.6,2.9c1.6,0.5,3.2,0.9,4.8,1.6c1.2,0.5,2.3,0.8,3.4-0.1c0.2-0.2,0.6-0.3,0.9-0.4c2.7-1,5.4-1.8,8.3-2.1
				c0.7-0.1,1.3,0.1,1.7,0.8c0.1,0.2,0.5,0.3,0.7,0.3c0.9-0.1,1.8-0.2,2.7-0.3c1.6-0.3,3.2-0.6,4.8-0.9c0.7-0.1,1.4-0.2,2.2-0.3
				c0-0.1,0.1-0.2,0.1-0.3c-3.7-2.1-7.3-4.2-11-6.2c-0.2-0.1-0.6-0.1-0.9,0c-2.7,0.4-5.3,1.4-8.2,1.3c-2.9-0.1-5.9-0.4-8.3-2.2
				c-2.5-1.9-4.7-4-6.2-6.8C293.5,447.4,293.3,447.2,293.2,447.1L293.2,447.1z M306,477.2c0.5,0,0.8,0.1,1.2,0.1
				c0.7,0,1.2,0.2,1.4,1.1c0.4,1.7,1.1,3.3,1.5,5c1.2,4.9,2.3,9.9,3.5,14.8c0.3,1.3,0.7,2.6,1.1,3.9c0.7,2.1,2.9,3.2,5,2.5
				c0.7-0.2,1.3-0.9,1.8-1.4c0.2-0.2,0-0.8-0.1-1.2c-0.2-0.9-0.5-1.7-0.6-2.6c-0.4-2.8-0.8-5.6-1.2-8.4c-0.5-3.2-1.1-6.3-1.6-9.5
				c-0.3-1.8-0.5-3.7-0.7-5.5c0-0.5-0.2-0.6-0.6-0.8c-1.8-0.5-3.6-0.8-5.4-0.6c-0.6,0.1-1.3-0.2-1.8,0.1
				C308.3,475.3,307.3,476.2,306,477.2L306,477.2z M284.5,427.6c2.7,0.7,5.2,1,7.6-0.8c1.7-1.2,3.3-2.4,2.8-4.8c0-0.3,0.1-0.5,0-0.8
				c-0.2-0.8-0.2-1.7-0.6-2.3c-0.7-1.1-0.7-2.1-0.5-3.3c0.2-1,0.7-1.9,0.9-2.8c0.2-0.7,0.3-1.6,0.1-2.3c-0.6-1.5-1.8-2.6-3.2-3.2
				c-1.6-0.7-3-0.1-4.3,0.9c-0.2,0.2-0.4,0.5-0.5,0.8c-0.1,1.1-0.6,1.9-1.6,2.3c-1.1,0.5-1.5,1-1.3,2.2c0.1,0.9-0.3,1.5-1,1.8
				c-0.6,0.2-1.3,0.3-1.9,0.3c-1.7-0.2-2.4,0.5-2.3,2.2c0.1,1.3,1,1.8,1.9,2.3c1.1,0.6,1.4,1.1,1,2.3c-0.3,1.1-0.2,2,0.3,3
				C284.4,425,285.1,425.6,284.5,427.6L284.5,427.6z M342,452.7c0-0.1,0.1-0.3,0.2-0.5c0.9-3.1,1.7-6.2,2.6-9.3
				c0.3-1,0.2-1.8-0.4-2.6c-0.2-0.2-0.4-0.5-0.5-0.7c-1.3-2.1-2.7-4.1-3.9-6.2c-0.7-1.3-0.3-2.1,1.1-2.5c0.6-0.2,1.3-0.5,1.9-0.7
				c-0.7-1.8-2.2-3.8-3.2-4.3c-0.6,0.9-0.9,2-2.1,2.3c-0.1,0-0.2,0.3-0.2,0.4c-1.5,3.3-2.5,7-4.4,10.1c-1.2,1.9-2.3,3.9-3.5,5.8
				c-0.4,0.7-0.9,1.3-1.4,1.9C332.7,448.6,337.3,450.6,342,452.7L342,452.7z M341.4,455.4c-0.8-0.4-1.6-0.8-2.5-1.2
				c-4-1.9-8-3.7-12.1-5.5c-0.2-0.1-0.6-0.1-0.8,0c-2.2,1.8-4.5,3.6-6.7,5.4c0,0,0.1,0.1,0.2,0.2c4.2,2.3,8.5,4.6,12.7,6.9
				c0.4,0.2,0.8,0.4,1.2,0.3c2.1-0.3,4.2-0.6,6.3-0.9c0.1,0,0.3-0.2,0.4-0.4C340.6,458.6,341,457,341.4,455.4L341.4,455.4z
				 M300.4,468.6L300.4,468.6c-1,0.2-2,0.6-3.1,0.9c-1.6,0.4-2.6,1.4-3.4,2.8c-0.4,0.6-0.8,1.2-1.1,1.9c-1.2,2.2-1.3,4.6-0.7,6.9
				c0.5,2,0.9,2.3,3.2,2c1.8-0.2,3-1.2,4.1-2.4c2.1-2.1,4.1-4.3,6.6-5.9c0.7-0.5,1.4-1.3,1.5-2.1c0.1-1.1-0.2-2.3-0.6-3.4
				c-0.5-1.3-1.2-1.6-2.6-1.4C303,468.1,301.7,468.4,300.4,468.6L300.4,468.6z M346.3,382.6c0.3-0.6,0.5-1.1,0.8-1.5
				c0.5-0.8,2.1-1.1,2.8-0.6c0.7,0.5,0.9,1.6,0.3,2.5c-0.3,0.5-0.7,0.9-1,1.3c-0.2,0.3-0.4,0.7-0.3,1c0.6,2.4,1,4.9,1.8,7.3
				c0.7,1.9-0.1,3.3-0.7,4.7c-1.6,3.3-3.6,6.5-5.3,9.7c-2.5,4.7-4.8,9.4-7.2,14.1c-0.6,1.1-1.1,2.3-1.5,3.5c-0.3,0.9,0,1.3,1,1.8
				c0.8,0.4,1-0.2,1.3-0.6c0.4-0.7,0.9-1.4,1.2-2.1c2.2-4.4,4.3-8.7,6.4-13.1c2.6-5.2,5.2-10.4,7.8-15.5c0.2-0.4,0.3-0.8,0-1.3
				c-1-1.8-1.8-3.6-2.8-5.4c-0.7-1.3-0.6-2.2,0.4-3.4c1.8-1.9,1.6-4.3,0-6.2c-1.4-1.6-4.6-1.5-5.8,0.2
				C344.8,379.9,344.9,380.8,346.3,382.6L346.3,382.6z M305.1,437.9c-1.8-1.1-3.7-2.1-5.4-3.3c-1-0.6-1.9-0.5-3-0.3
				c-2.8,0.7-4.6,2.8-6.6,4.5c-0.2,0.2-0.3,0.5-0.4,0.8c0.3,0.1,0.7,0.3,1,0.2c1.3-0.4,2.6-0.9,4-1.2c1-0.2,2.1-0.4,3.2-0.3
				c1.1,0.1,1.4,1.2,0.6,2c-0.8,0.8-1.7,1.5-3,1.5c-1.2-0.1-2.4-0.1-3.7-0.1c-0.3,0-0.6,0.1-1.1,0.2c0.6,0.6,1.1,1.1,1.6,1.6
				c0.9,0.9,2.1,1.3,3.3,1.1c1.5-0.2,3-0.4,4.5-0.7c0.8-0.2,1.8-0.5,2.3-1.1C303.4,441.3,304.2,439.6,305.1,437.9L305.1,437.9z
				 M359.2,410.7c-0.1-0.1-0.1-0.1-0.2-0.2c-0.3,0.2-0.6,0.3-0.9,0.5c-2.6,1.8-5.1,3.7-7.7,5.5c-2.8,2-5.7,3.9-8.6,5.8
				c-0.7,0.5-0.9,1-0.4,1.8c0.9,1.5,1.8,3.1,2.6,4.5C349.1,422.7,354.2,416.7,359.2,410.7L359.2,410.7z M309.4,448.6
				c1.9,1,3.7,2.1,5.6,3c0.2,0.1,0.5,0.1,0.7-0.1c2.2-1.5,4.4-3,6.6-4.5c0.1-0.1,0.2-0.2,0.3-0.4c-3.3-1.5-6.5-3-9.8-4.5
				C311.7,444.3,310.5,446.4,309.4,448.6L309.4,448.6z M317.1,468.6l0.2-0.1c-0.3-0.9-0.6-1.9-0.9-2.8c-0.1-0.2-0.3-0.5-0.5-0.5
				c-0.9-0.1-1.9-0.3-2.7-0.1c-1.4,0.3-2.7,0.8-4.1,1.2c-0.5,0.1-0.6,0.3-0.5,0.8c0.5,1.6,1.1,3.2,1.7,4.8c0.1,0.3,0.6,0.6,0.9,0.6
				c2,0.2,4,0.3,6,0.4c1.1,0.1,1.4-0.5,1-1.5C317.8,470.5,317.5,469.6,317.1,468.6L317.1,468.6z M345.8,416.9
				c4.7-3.2,9.3-6.5,13.7-9.6c-0.1-2.5-0.2-4.7-0.3-7.1C354.2,405.5,349.5,410.8,345.8,416.9z M308.6,450.1
				c-0.8,1.4-1.3,1.5-2.7,0.7c-1.1-0.6-2.2-1-3.2-1.6c-0.6-0.3-1.3-0.7-1.8-1.2c-0.2-0.2-0.3-0.6-0.3-0.9c0.1-0.6,0.4-1.3,0.5-1.8
				c-1.9,0.4-3.8,0.8-5.7,1.1c0,0.1-0.1,0.2-0.1,0.3c1,1,2.1,2,3.1,3c2.8,2.9,6.3,4.1,10.2,4.6c1.7,0.2,3.1-0.7,4.4-1.4
				C311.5,452.1,310.1,451.2,308.6,450.1L308.6,450.1z M279.5,479.7c-1.9,0-3.8,0-5.7,0c-0.2,0-0.6,0.2-0.7,0.5
				c-0.4,1.5-0.9,3-1.2,4.6c-0.2,1.1,0.7,2.1,1.8,2.3c1.5,0.3,2.9,0,4.2-0.6c0.8-0.4,1.3-1,1.5-1.8
				C279.9,482.9,279.8,481.3,279.5,479.7L279.5,479.7z M283.7,476.5c0.1,0.1,0.1,0.2,0.2,0.3c1.2-0.1,2.4-0.4,3.6-0.3
				c1.1,0,1.8-0.5,2.2-1.4c1-2.3,2.6-4.1,4.2-5.9c0.8-0.9,1.8-1.4,3-1.7c1.2-0.3,2.4-0.8,3.6-1.2c0.2-0.1,0.3-0.3,0.4-0.5
				c-0.2-0.1-0.3-0.3-0.5-0.3c-0.6-0.1-1.2-0.3-1.8-0.3c-0.8,0-1.8-0.2-2.4,0.1c-4.6,2.7-8.3,6.5-11.9,10.2
				C284,475.7,283.9,476.1,283.7,476.5L283.7,476.5z M306.7,449.2c1.3-2.9,2.5-5.5,3.6-8.2c-1.1-0.7-2.2-1.4-3.3-2.1
				c-1.4,2.5-2.8,5.1-4.2,7.5C304.3,447.4,305.5,448.3,306.7,449.2L306.7,449.2z M292.8,440.5c1.3,0.8,3.8,0,4.3-1.4
				C295.6,439.6,294.3,440,292.8,440.5z"/>
			<path class="st3" d="M349.5,465.3c1.1,1,2,1.9,3,2.8c0.3,0.3,0.6,0.6,0.9,0.7c0.4,0.1,1.1,0.1,1.3-0.2c0.3-0.3,0.4-1.1,0.3-1.5
				c-0.3-0.7-0.8-1.3-1.3-1.8c-0.7-0.8-1.4-1.7-2.4-2.7c1.7-0.2,3.1-0.5,4.6-0.7c0.4-0.1,0.8-0.1,1.1-0.2c0.5-0.2,0.9-0.5,0.9-1.2
				c-0.1-0.6-0.5-0.9-1.1-0.9c-1.8,0-3.6-0.3-5.2,0.5c-0.2,0.1-0.3,0.1-0.6,0.1c0-0.1,0-0.3,0-0.3c2-3.9,3.8-7.9,6-11.7
				c2-3.5,4.4-6.6,7.2-9.6c0.9-0.9,1.8-1.2,3-1.4c1.5-0.2,3-0.6,4.6-0.9c-0.3-0.2-0.5-0.6-0.9-0.8c-1.9-1-3.9-1.2-5.9-1
				c-1.7,0.2-2.7,1.5-3.7,2.6c-3.3,3.8-5.7,8.3-7.7,12.9c-1.4,3.3-2.8,6.7-4.1,10.1c-0.3,0.8-0.7,1.1-1.6,1.1
				c-1.5-0.1-3,0.1-4.6,0.1c0.9-5.6,2.5-10.9,4.2-16.4c0.2,0.2,0.3,0.4,0.5,0.5c0.9,0.8,1.9,0.5,2.2-0.7c0.4-1.8,0.7-3.6,1.2-5.4
				c0.7-2.7,1.5-5.4,2.3-8.2c1.5,0.4,2.9,0.7,4.3,1.1c0.5,0.1,0.9,0.3,1.4,0.5c1.1,0.3,1.5,0.1,1.9-1c0.1-0.2,0.3-0.4,0.4-0.7
				c2-2.8,4-5.6,6.1-8.4c0.7-0.9,1.5-1.8,2.3-2.7c0.8,0.6,1.6,1.1,2.2,1.7c1.6,1.5,3.1,3,4.6,4.6c2.4,2.5,4.7,5.1,7,7.7
				c1.1,1.2,1.5,2.6,1.5,4.3c0,4.8,0.1,9.7,0.2,14.5c0.2,9.1,0.3,18.2,0.5,27.2c0.1,4.6,0.3,9.1,0.5,13.7c0,0.9,0.3,1.8,0.5,2.6
				c-3.8,1.3-7.5,2.6-11.3,3.7c-1.4,0.4-3.1,0.5-4.6,0.3c-2.9-0.4-5.7-0.2-8.6-0.2c-1.7,0-3.4-0.2-5.1-0.5c-0.6-0.1-1.2-0.7-1.7-1.1
				c-1.1-1-2.3-1.3-3.7-0.8c-5.1,1.6-10.2,3.1-15.3,4.6c-0.2,0-0.3,0.1-0.3,0.1c1-7.9,2-15.8,3-23.6c7.2,0.7,14.4,1.4,21.4,2.1
				c2.4-5.9,5.5-11.2,8.6-16.6c0.9-1.6,1.9-3.2,2.8-4.7c0.7-1.1,0.6-1.3-0.7-1.8c-1.1,1.8-2.2,3.6-3.2,5.5
				c-2.2,4.1-4.2,8.2-6.3,12.4c-0.6,1.1-1.2,2.2-1.9,3.4c-0.4,0.7-1,1-1.8,0.8c-7.4-1.9-15-3.2-22.6-4.4c-4.1-0.6-8.1-1.6-12.2-2.2
				c-1.3-0.2-2-0.7-2.4-1.9c-0.6-1.6-1.3-3.2-2-4.8c-0.1-0.2-0.1-0.3-0.1-0.5c6.9-1,13.7-0.8,20.6-1.1c1.9-0.1,3.8-0.1,5.7-0.2
				c0.7,0,0.9,0.3,1,1c0,1.3,0.2,2.7,0.3,4c0,0.3,0.5,0.8,0.7,0.9c0.3,0,0.8-0.4,0.9-0.7c0.3-0.7,0.4-1.4,0.6-2.1
				C349,466.9,349.3,466.1,349.5,465.3L349.5,465.3z"/>
			<path class="st3" d="M321.6,395.2c1.5-2.1,3.9-3,5.7-4.6c-0.5-1.2-0.7-1.3-1.9-0.8c-1.2,0.5-2.4,1-3.6,1.5
				c-0.3,0.1-0.5,0.2-0.8,0.2c0-3.5-0.1-6.9-0.1-10.3c0-0.5,0.3-1,0.7-1.4c1-1,2-1.9,3-2.8c2.1-1.9,4.7-2.9,7.4-3.7
				c0.7-0.2,1.3,0,1.8,0.6c3.8,4.5,7.6,9,11.4,13.5c0.6,0.7,1.1,1.5,1.6,2.2c0.1,0.2,0.2,0.5,0.1,0.7c-0.4,1.5-0.6,3.1-1.2,4.4
				c-1.6,3.6-3.6,6.9-6.8,9.3c-0.3,0.2-0.5,0.4-0.7,0.6c-1.9,2.1-4.4,2.6-7,2.9c-1.3,0.1-2.6,0.5-3.8,0.7c-1,0.2-2,0.1-2.7-0.8
				c-0.3-0.3-0.5-0.9-0.4-1.3c0.1-1.4,0.4-2.7,0.6-4c0.1-0.4,0.1-0.9-0.1-1.2c-0.7-1.4-1.5-2.8-2.3-4.2
				C322.3,396.2,321.9,395.7,321.6,395.2L321.6,395.2z"/>
			<path class="st6" d="M281.9,431.4c1.9,1.8,3.9,1.8,6.1,0.5c0.7,2.3,0.6,4.5,0.9,6.6c-0.1,0-0.2,0-0.3,0.1
				c-0.2-0.1-0.4-0.3-0.6-0.4c-0.5-0.3-1.2-0.1-1.4,0.5c-0.6,1.6-0.3,3.2,0.9,4.2c0.4,0.3,1.1,0.6,1.7,0.1c0.5-0.5,0.8-0.5,1.2,0.3
				c0.9,2.3,1.6,4.7,2.1,7.1c0.6,3.2,1.3,6.4,1.9,9.6c0.1,0.6,0.3,1.2,0.6,1.8c0.4,0.9,0.3,1.4-0.5,2c-1.1,0.9-2.3,1.7-3.4,2.6
				c-2.1,1.9-4.2,3.9-6.3,5.8c-0.5,0.5-1.1,1-1.6,1.5c-0.4,0.3-0.9,0.1-1.1-0.4c-0.3-0.7-0.2-1.5,0.1-2.2c1.4-3,2.4-6.1,3.2-9.3
				c0.5-1.9,0.9-3.8,1.3-5.7c0.2-1.5,0.4-3,0.4-4.4c0-2.2-0.1-4.4-0.3-6.6c-0.1-0.9-0.6-1.7-0.9-2.5c-0.3-0.7-0.6-1.4-1-2
				c-1.2-2-2.9-3.5-5.3-3.8c-0.7-0.1-1.7,0.5-2.2,1.1c-0.7,1-1.2,2.1-1.6,3.3c-0.8,2.3-1.5,4.7-2.1,7.1c-0.5,1.9-0.8,3.9-1.1,5.9
				c-0.3,1.3-0.6,2.7-0.7,4c-0.2,1.4-0.3,2.9-0.5,4.3c-0.1,1.1-0.4,2.2-0.5,3.4c-0.2,1.4-0.3,2.9-0.4,4.3c-0.1,1.6-0.1,3.1-0.1,4.7
				c0,0.6,0,1.3,0,1.9c0,0.6-0.3,0.9-0.9,0.8c-1.4-0.1-2.8-0.1-4.2-0.2c-0.7,0-1.3-1.2-1.2-2c0.2-1.5,0.3-2.9,0.5-4.4
				c0.2-1.2,0.5-2.3,0.7-3.5c0.6-2.5,1.1-5,1.7-7.5c0.5-1.9,1.2-3.7,1.7-5.5c0.5-1.7,0.8-3.4,1.2-5.1c0.6-2.2,1.2-4.5,2-6.7
				c0.7-2.1,1.4-4.2,2.2-6.3c0.3-0.7,0.7-1.4,1-2.1c0.5-0.9,1.3-0.8,2.1-0.6c1.1,0.3,2.1,0,2.9-0.7
				C280.7,432.5,281.2,432,281.9,431.4L281.9,431.4z"/>
			<path class="st6" d="M279.4,476.9c-1,0.1-2,0.1-3,0.2c-0.5,0-1,0.2-1.5,0.2c-0.4,0-0.8,0.1-1.1,0c-0.5-0.1-1.4-0.1-1.6-0.5
				c-0.3-0.7-0.4-1.6-0.4-2.4c0.2-2.1,0.4-4.3,0.7-6.4c0.3-1.9,0.7-3.8,0.9-5.7c0.3-2.2,0.5-4.4,0.9-6.6c0.3-2.2,0.6-4.4,1.4-6.6
				c0.6-1.6,0.7-3.3,0.9-5c0.2-1.3,0.4-2.6,0.7-3.9c0.2-0.9,1.6-1.4,2.7-1.3c1.9,0.1,2.7,1.3,3.2,2.8c0.5,1.5,1,3,1.2,4.6
				c0.2,1,0,2.1,0,3.1c0,0.7,0.1,1.4,0,2c-0.2,1.7-0.3,3.4-0.7,5.1c-0.6,3-1.4,6-2.1,9.1c-0.4,1.8-0.9,3.7-1.3,5.5
				C280,473,279.7,474.8,279.4,476.9L279.4,476.9z"/>
			<path class="st3" d="M364.7,406.8c0.3,1.6,0.5,3.2,1,4.8c0.4,1.5,1,2.8,1.5,4.3c0.1,0.2,0,0.6-0.1,0.8c-2.5,3.4-5.1,6.8-7.6,10.3
				c-1.2,1.7-2.5,2.6-4.6,1.8c-0.6-0.2-1.3-0.2-1.9-0.5c-0.7-0.3-0.9,0-1.1,0.5c-0.7,2.4-1.5,4.8-2.2,7.2c-0.5,2-0.9,3.9-1.4,5.9
				c-2.2-3.2-4.4-6.4-6.7-9.6c0.3-0.2,0.6-0.5,0.9-0.7c3.2-1.8,5.5-4.5,7.9-7.2c2.8-3.2,5.5-6.5,8.1-9.8c1.4-1.8,2.7-3.7,4-5.5
				c0.6-0.8,1.2-1.6,1.8-2.4C364.5,406.7,364.6,406.7,364.7,406.8L364.7,406.8z"/>
			<path class="st4" d="M306,477.2c1.2-1,2.2-1.9,3.4-2.6c0.4-0.3,1.2,0,1.8-0.1c1.9-0.3,3.6,0,5.4,0.6c0.4,0.1,0.6,0.3,0.6,0.8
				c0.2,1.9,0.4,3.7,0.7,5.5c0.5,3.2,1.1,6.3,1.6,9.5c0.4,2.8,0.8,5.6,1.2,8.4c0.1,0.9,0.4,1.7,0.6,2.6c0.1,0.4,0.3,1,0.1,1.2
				c-0.5,0.6-1.1,1.2-1.8,1.4c-2.1,0.7-4.3-0.4-5-2.5c-0.4-1.3-0.8-2.6-1.1-3.9c-1.2-4.9-2.3-9.9-3.5-14.8c-0.4-1.7-1.1-3.3-1.5-5
				c-0.2-0.9-0.7-1-1.4-1.1C306.9,477.3,306.6,477.2,306,477.2L306,477.2z"/>
			<path class="st3" d="M284.5,427.6c0.6-2-0.1-2.6-2.6-2.2c-0.5-1-0.6-2-0.3-3c0.4-1.2,0.1-1.7-1-2.3c-0.9-0.5-1.8-1-1.9-2.3
				c-0.1-1.7,0.6-2.4,2.3-2.2c0.6,0.1,1.3,0,1.9-0.3c0.8-0.3,1.1-0.9,1-1.8c-0.1-1.2,0.3-1.7,1.3-2.2c1-0.4,1.5-1.2,1.6-2.3
				c0-0.3,0.2-0.6,0.5-0.8c1.3-1,2.7-1.6,4.3-0.9c1.5,0.6,2.7,1.7,3.3,3.2c0.2,0.7,0.1,1.5-0.1,2.3c-0.2,1-0.7,1.9-0.9,2.8
				c-0.2,1.1-0.2,2.2,0.5,3.3c0.4,0.6,0.4,1.5,0.6,2.3c0,0.3-0.1,0.5,0,0.8c0.4,2.4-1.2,3.6-2.8,4.8
				C289.7,428.6,287.2,428.3,284.5,427.6L284.5,427.6z M289,414.4c0,1,0.5,1.6,1.4,1.7c0.4,0.1,0.8,0.1,1.2,0.2
				c1,0.2,1.6-0.4,1.2-1.4c-0.1-0.2-0.2-0.4-0.3-0.6c0,0.1,0,0.2-0.1,0.2c-0.6-0.1-1.1-0.1-1.7-0.2c-0.2,0-0.6-0.1-0.6-0.1
				C290,414.9,289.5,414.5,289,414.4L289,414.4z M288.5,412.6c1.5,1,3.1,0.8,4.7,0.6c0.4-0.1,0.5-0.5,0.1-0.9
				c-0.1-0.1-0.3-0.2-0.5-0.2C291.3,411.9,289.9,411.9,288.5,412.6L288.5,412.6z"/>
			<path class="st3" d="M341.4,455.4c-0.4,1.6-0.7,3.2-1.1,4.7c0,0.2-0.2,0.4-0.4,0.4c-2.1,0.3-4.2,0.7-6.3,0.9
				c-0.4,0.1-0.9-0.1-1.2-0.3c-4.3-2.3-8.5-4.6-12.7-6.9c-0.1-0.1-0.2-0.1-0.2-0.2c2.2-1.8,4.4-3.6,6.7-5.4c0.2-0.1,0.6-0.1,0.8,0
				c4,1.8,8,3.7,12.1,5.5C339.7,454.6,340.6,455,341.4,455.4L341.4,455.4z"/>
			<path class="st3" d="M300.4,468.6c1.3-0.3,2.6-0.6,3.9-0.8c1.4-0.2,2,0.1,2.6,1.4c0.4,1.1,0.7,2.3,0.6,3.4
				c-0.1,0.8-0.8,1.7-1.5,2.1c-2.5,1.6-4.5,3.8-6.6,5.9c-1.2,1.2-2.4,2.2-4.1,2.4c-2.3,0.3-2.7,0-3.2-2c-0.6-2.4-0.4-4.7,0.7-6.9
				c0.3-0.6,0.8-1.2,1.1-1.9c0.8-1.3,1.9-2.3,3.4-2.8C298.4,469.3,299.4,468.9,300.4,468.6L300.4,468.6L300.4,468.6z"/>
			<path class="st3" d="M346.3,382.6c-1.3-1.8-1.5-2.7-0.8-3.6c1.3-1.7,4.5-1.8,5.8-0.2c1.7,1.9,1.8,4.3,0,6.2
				c-1.1,1.2-1.2,2.1-0.4,3.4c1,1.8,1.8,3.6,2.8,5.4c0.3,0.5,0.2,0.8,0,1.3c-2.6,5.2-5.2,10.4-7.8,15.5c-2.2,4.4-4.3,8.7-6.4,13.1
				c-0.4,0.7-0.8,1.4-1.2,2.1c-0.3,0.5-0.5,1-1.3,0.6c-1-0.5-1.3-0.9-1-1.8c0.4-1.2,1-2.4,1.5-3.5c2.4-4.7,4.8-9.4,7.2-14.1
				c1.7-3.3,3.7-6.4,5.3-9.7c0.7-1.4,1.4-2.8,0.7-4.7c-0.9-2.3-1.3-4.8-1.8-7.3c-0.1-0.3,0.2-0.7,0.3-1c0.3-0.5,0.7-0.9,1-1.3
				c0.6-0.9,0.4-2-0.3-2.5c-0.7-0.5-2.3-0.2-2.8,0.6C346.7,381.5,346.6,382,346.3,382.6L346.3,382.6z"/>
			<path class="st3" d="M305.1,437.9c-0.9,1.7-1.7,3.4-2.8,4.9c-0.4,0.6-1.5,0.9-2.3,1.1c-1.5,0.4-3,0.6-4.5,0.7
				c-1.3,0.2-2.4-0.2-3.3-1.1c-0.5-0.5-1-1-1.6-1.6c0.5-0.1,0.8-0.2,1.1-0.2c1.2,0,2.4,0.1,3.7,0.1c1.3,0.1,2.2-0.7,3-1.5
				c0.8-0.8,0.5-1.9-0.6-2c-1-0.1-2.1,0-3.2,0.3c-1.4,0.3-2.7,0.8-4,1.2c-0.3,0.1-0.7-0.1-1-0.2c0.1-0.3,0.2-0.6,0.4-0.8
				c2-1.7,3.8-3.8,6.6-4.5c1.1-0.3,2-0.4,3,0.3C301.5,435.7,303.3,436.8,305.1,437.9L305.1,437.9z"/>
			<path class="st3" d="M359.2,410.7c-5,6-10.1,12-15,17.9c-0.8-1.4-1.7-3-2.6-4.5c-0.5-0.8-0.4-1.3,0.4-1.8
				c2.9-1.9,5.7-3.9,8.6-5.8c2.6-1.8,5.1-3.6,7.7-5.5c0.3-0.2,0.6-0.3,0.9-0.5C359.1,410.5,359.1,410.6,359.2,410.7L359.2,410.7z"/>
			<path class="st3" d="M309.4,448.6c1.1-2.2,2.3-4.3,3.4-6.5c3.3,1.5,6.5,3,9.8,4.5c-0.1,0.2-0.2,0.3-0.3,0.4
				c-2.2,1.5-4.4,3-6.6,4.5c-0.2,0.1-0.5,0.2-0.7,0.1C313.1,450.6,311.3,449.6,309.4,448.6L309.4,448.6z"/>
			<path class="st3" d="M317.1,468.6c0.4,0.9,0.7,1.9,1.1,2.8c0.4,1,0.1,1.6-1,1.5c-2-0.1-4-0.2-6-0.4c-0.3,0-0.8-0.3-0.9-0.6
				c-0.6-1.6-1.1-3.2-1.7-4.8c-0.1-0.4,0-0.7,0.5-0.8c1.4-0.4,2.7-0.9,4.1-1.2c0.9-0.2,1.8,0,2.7,0.1c0.2,0,0.5,0.3,0.5,0.5
				c0.3,0.9,0.6,1.9,0.9,2.8L317.1,468.6L317.1,468.6z"/>
			<path class="st3" d="M345.7,416.9c3.8-6.1,8.5-11.4,13.4-16.6c0.1,2.3,0.2,4.6,0.3,7.1C355.1,410.4,350.4,413.7,345.7,416.9
				L345.7,416.9z"/>
			<path class="st4" d="M283.7,476.5c0.2-0.4,0.3-0.8,0.6-1.1c3.7-3.8,7.3-7.6,11.9-10.2c0.6-0.4,1.6-0.1,2.4-0.1
				c0.6,0,1.2,0.2,1.8,0.3c0.2,0,0.4,0.2,0.5,0.3c-0.1,0.2-0.2,0.4-0.4,0.5c-1.2,0.4-2.4,0.9-3.6,1.2c-1.2,0.3-2.2,0.8-3,1.7
				c-1.6,1.8-3.3,3.6-4.2,5.9c-0.4,0.9-1.1,1.4-2.2,1.4c-1.2,0-2.4,0.2-3.6,0.3C283.8,476.7,283.7,476.6,283.7,476.5L283.7,476.5z"
				/>
			<path class="st3" d="M306.7,449.2c-1.3-0.9-2.5-1.7-3.9-2.7c1.4-2.5,2.8-5,4.2-7.5c1.2,0.7,2.2,1.4,3.3,2.1
				C309.2,443.6,308,446.3,306.7,449.2L306.7,449.2z"/>
			<path class="st2" d="M289,414.4c0.5,0.1,1,0.5,1.2-0.2c0,0,0.4,0,0.6,0.1c0.6,0.1,1.1,0.1,1.7,0.2c0-0.1,0-0.2,0.1-0.2
				c0.1,0.2,0.2,0.4,0.3,0.6c0.4,1-0.2,1.6-1.2,1.4c-0.4-0.1-0.8-0.1-1.2-0.2C289.5,416,289,415.4,289,414.4L289,414.4z"/>
			<path class="st2" d="M288.5,412.6c1.4-0.7,2.8-0.7,4.3-0.5c0.2,0,0.3,0.1,0.5,0.2c0.4,0.3,0.4,0.8-0.1,0.9
				C291.6,413.4,290,413.6,288.5,412.6L288.5,412.6z"/>
		</g>
	</g>
</g>
<g>
	<path class="st3" d="M120.4,65.8h2.5v4.7h-2.5v6.2h-5.6v-6.2h-9.5l-0.3-3.6l9.8-19h5.6V65.8z M110.4,65.8h4.4v-9.6l-0.1,0.2
		L110.4,65.8z"/>
	<path class="st3" d="M133.4,61.6l2.5-6.4h5.9L137,65.7l5.1,11h-6l-2.6-6.7l-2.6,6.7h-6l5.1-11l-4.9-10.5h6L133.4,61.6z"/>
	<path class="st3" d="M97.2,96.7h-2.8v6.3h-2V87.4h4.4c1.5,0,2.7,0.4,3.5,1.2c0.8,0.8,1.2,2,1.2,3.5c0,1-0.2,1.8-0.6,2.5
		c-0.4,0.7-1,1.3-1.8,1.6l3,6.6v0.1H100L97.2,96.7z M94.4,95h2.4c0.8,0,1.5-0.3,2-0.8c0.5-0.5,0.7-1.2,0.7-2.1c0-2-0.9-3-2.7-3h-2.4
		V95z"/>
	<path class="st3" d="M106.1,88.3c0,0.3-0.1,0.6-0.3,0.8s-0.5,0.3-0.8,0.3c-0.4,0-0.6-0.1-0.8-0.3s-0.3-0.5-0.3-0.8s0.1-0.6,0.3-0.8
		c0.2-0.2,0.4-0.3,0.8-0.3s0.6,0.1,0.8,0.3C106,87.8,106.1,88,106.1,88.3z M105.9,103.1H104V91.4h1.9V103.1z"/>
	<path class="st3" d="M114.6,100.1c0-0.4-0.2-0.8-0.5-1.1c-0.3-0.3-0.9-0.6-1.8-1c-1-0.4-1.7-0.8-2.2-1.1c-0.4-0.3-0.7-0.6-0.9-1
		c-0.2-0.4-0.3-0.8-0.3-1.4c0-0.9,0.3-1.7,1-2.4c0.7-0.6,1.6-0.9,2.6-0.9c1.1,0,2,0.3,2.7,1c0.7,0.7,1,1.5,1,2.5h-1.9
		c0-0.5-0.2-1-0.5-1.3c-0.4-0.4-0.8-0.6-1.3-0.6c-0.6,0-1,0.1-1.3,0.4c-0.3,0.3-0.5,0.7-0.5,1.2c0,0.4,0.1,0.7,0.3,0.9
		c0.2,0.2,0.8,0.5,1.7,0.9c1.4,0.6,2.4,1.1,2.9,1.6c0.5,0.5,0.8,1.2,0.8,2c0,1-0.3,1.8-1,2.4c-0.7,0.6-1.6,0.9-2.8,0.9
		c-1.2,0-2.2-0.3-2.9-1c-0.8-0.7-1.1-1.6-1.1-2.6h1.9c0,0.6,0.2,1.1,0.6,1.5s0.9,0.5,1.6,0.5c0.6,0,1.1-0.1,1.4-0.4
		C114.4,100.9,114.6,100.6,114.6,100.1z"/>
	<path class="st3" d="M121.8,97.7l-1,1.2v4.2h-1.9V86.6h1.9v9.9l3.6-5h2.3l-3.7,4.9l4.2,6.8H125L121.8,97.7z"/>
	<path class="st3" d="M133.5,96.7c0-1.7,0.4-3,1.2-4c0.8-1,1.9-1.5,3.2-1.5s2.4,0.5,3.2,1.4c0.8,1,1.2,2.3,1.3,3.9v1.2
		c0,1.7-0.4,3-1.2,4c-0.8,1-1.9,1.5-3.3,1.5c-1.3,0-2.4-0.5-3.2-1.4c-0.8-1-1.2-2.2-1.3-3.9V96.7z M135.4,97.8
		c0,1.2,0.2,2.1,0.7,2.8c0.5,0.7,1.1,1,1.9,1c1.7,0,2.5-1.2,2.6-3.6v-1.3c0-1.2-0.2-2.1-0.7-2.8c-0.5-0.7-1.1-1-1.9-1
		c-0.8,0-1.4,0.3-1.9,1c-0.5,0.7-0.7,1.6-0.7,2.8V97.8z"/>
	<path class="st3" d="M145.8,103.1V93h-1.5v-1.5h1.5v-1.3c0-1.2,0.3-2.1,0.9-2.8c0.6-0.7,1.4-1,2.4-1c0.4,0,0.8,0.1,1.1,0.2
		l-0.1,1.6c-0.3-0.1-0.6-0.1-0.9-0.1c-1.1,0-1.6,0.8-1.6,2.3v1.1h2V93h-2v10.1H145.8z"/>
	<path class="st3" d="M100.8,124.2c0,1.8-0.3,3.2-1,4.1c-0.7,0.9-1.6,1.4-2.8,1.4c-1.2,0-2.1-0.4-2.7-1.3v5.6h-1.9v-16.1h1.7
		l0.1,1.3c0.6-1,1.6-1.5,2.7-1.5c1.3,0,2.2,0.4,2.9,1.3c0.6,0.9,1,2.2,1,4V124.2z M98.9,123.1c0-1.3-0.2-2.3-0.6-2.9
		c-0.4-0.6-1-0.9-1.9-0.9c-0.9,0-1.6,0.5-2.1,1.4v6c0.5,0.9,1.2,1.3,2.1,1.3c0.9,0,1.5-0.3,1.9-0.9c0.4-0.6,0.6-1.6,0.6-2.8V123.1z"
		/>
	<path class="st3" d="M102.8,123.1c0-1.7,0.4-3,1.2-4c0.8-1,1.9-1.5,3.2-1.5s2.4,0.5,3.2,1.4c0.8,1,1.2,2.3,1.3,3.9v1.2
		c0,1.7-0.4,3-1.2,4c-0.8,1-1.9,1.5-3.3,1.5c-1.3,0-2.4-0.5-3.2-1.4c-0.8-1-1.2-2.2-1.3-3.9V123.1z M104.7,124.2
		c0,1.2,0.2,2.1,0.7,2.8c0.5,0.7,1.1,1,1.9,1c1.7,0,2.5-1.2,2.6-3.6v-1.3c0-1.2-0.2-2.1-0.7-2.8c-0.5-0.7-1.1-1-1.9-1
		c-0.8,0-1.4,0.3-1.9,1c-0.5,0.7-0.7,1.6-0.7,2.8V124.2z"/>
	<path class="st3" d="M117.4,126.6l2.2-8.7h1.9l-3.4,11.6h-1.4l-3.5-11.6h1.9L117.4,126.6z"/>
	<path class="st3" d="M127.7,129.7c-1.4,0-2.6-0.4-3.3-1.3c-0.8-0.9-1.2-2.1-1.2-3.8v-1.4c0-1.7,0.4-3.1,1.1-4.1
		c0.8-1,1.8-1.5,3.2-1.5c1.4,0,2.4,0.4,3.1,1.3c0.7,0.9,1,2.2,1,4v1.2h-6.5v0.3c0,1.2,0.2,2.2,0.7,2.7c0.5,0.6,1.1,0.8,2,0.8
		c0.6,0,1.1-0.1,1.5-0.3c0.4-0.2,0.8-0.5,1.2-1l1,1.2C130.6,129.1,129.4,129.7,127.7,129.7z M127.5,119.2c-0.8,0-1.4,0.3-1.8,0.8
		c-0.4,0.5-0.6,1.4-0.6,2.5h4.6v-0.3c0-1.1-0.2-1.9-0.6-2.4C128.7,119.5,128.2,119.2,127.5,119.2z"/>
	<path class="st3" d="M138.6,119.6c-0.3,0-0.6-0.1-0.9-0.1c-1,0-1.7,0.5-2,1.6v8.3h-1.9v-11.6h1.8l0,1.2c0.5-0.9,1.2-1.4,2.2-1.4
		c0.3,0,0.6,0.1,0.8,0.2L138.6,119.6z"/>
	<path class="st3" d="M143.5,115v2.8h1.8v1.5h-1.8v7.2c0,0.5,0.1,0.8,0.2,1c0.2,0.2,0.4,0.4,0.8,0.4c0.3,0,0.5,0,0.8-0.1l0,1.6
		c-0.4,0.1-0.9,0.2-1.3,0.2c-0.8,0-1.3-0.3-1.7-0.8s-0.6-1.3-0.6-2.3v-7.2h-1.8v-1.5h1.8V115H143.5z"/>
	<path class="st3" d="M150.7,126.3l2.1-8.5h2l-3.8,13.3c-0.3,1-0.7,1.8-1.2,2.3c-0.5,0.5-1.1,0.8-1.8,0.8c-0.3,0-0.6-0.1-1-0.2v-1.6
		l0.4,0c0.6,0,1-0.1,1.3-0.4c0.3-0.3,0.6-0.7,0.8-1.4l0.4-1.3l-3.4-11.5h2.1L150.7,126.3z"/>
</g>
<g>
	<path class="st3" d="M304.2,228.1l2.7-0.3c1-0.1,1.7-0.5,2.1-1.3c0.4-0.8,0.5-1.7,0.4-2.9c-0.1-1.1-0.5-2-1-2.6
		c-0.6-0.6-1.2-0.8-2.1-0.8c-0.8,0.1-1.4,0.4-1.8,1.1c-0.4,0.7-0.6,1.4-0.5,2.4l-5.6,0.6c-0.2-1.5,0.1-2.9,0.6-4.1
		c0.6-1.3,1.4-2.3,2.6-3.1c1.2-0.8,2.5-1.3,4-1.4c2.6-0.3,4.8,0.3,6.4,1.6c1.6,1.3,2.6,3.2,2.9,5.8c0.1,1.3-0.1,2.5-0.6,3.7
		c-0.6,1.2-1.4,2.1-2.4,2.8c1.4,0.4,2.5,1.2,3.3,2.3c0.8,1.1,1.3,2.4,1.4,4c0.3,2.5-0.3,4.7-1.8,6.4c-1.5,1.7-3.5,2.7-6.2,3
		c-2.5,0.2-4.5-0.3-6.2-1.7s-2.7-3.3-2.9-5.7l5.6-0.6c0.1,1,0.5,1.9,1.1,2.5c0.6,0.6,1.3,0.9,2.2,0.8c1-0.1,1.7-0.5,2.2-1.3
		s0.7-1.7,0.5-2.9c-0.3-2.8-1.5-4.1-3.7-3.9l-2.7,0.3L304.2,228.1z"/>
	<path class="st3" d="M327.1,227.7l1.8-6.6l5.9-0.6l-3.8,10.9l6.2,10.4l-5.9,0.6L328,236L326,243l-6,0.6l3.9-11.4l-5.9-9.9l5.9-0.6
		L327.1,227.7z"/>
	<path class="st3" d="M294.6,266.3l-2.7,0.3l0.6,6.3l-2,0.2l-1.6-15.6l4.4-0.4c1.5-0.2,2.7,0.1,3.6,0.8s1.4,1.8,1.5,3.4
		c0.1,1,0,1.8-0.4,2.6c-0.4,0.8-0.9,1.4-1.6,1.8l3.7,6.3l0,0.1l-2.1,0.2L294.6,266.3z M291.7,264.9l2.4-0.2c0.8-0.1,1.4-0.4,1.9-1
		c0.4-0.6,0.6-1.3,0.5-2.2c-0.2-2-1.2-2.9-3-2.7l-2.4,0.2L291.7,264.9z"/>
	<path class="st3" d="M302.6,257.1c0,0.3,0,0.6-0.2,0.8s-0.4,0.4-0.8,0.4c-0.4,0-0.6,0-0.8-0.2s-0.3-0.5-0.3-0.8
		c0-0.3,0-0.6,0.2-0.8c0.2-0.2,0.4-0.4,0.8-0.4c0.4,0,0.6,0,0.8,0.3C302.4,256.5,302.5,256.8,302.6,257.1z M303.9,271.7l-1.9,0.2
		l-1.2-11.6l1.9-0.2L303.9,271.7z"/>
	<path class="st3" d="M312.2,267.9c0-0.4-0.2-0.7-0.6-1s-1-0.5-1.9-0.8c-1.1-0.3-1.8-0.6-2.3-0.9c-0.4-0.3-0.8-0.6-1-0.9
		c-0.2-0.4-0.4-0.8-0.4-1.3c-0.1-0.9,0.2-1.8,0.8-2.5c0.6-0.7,1.5-1.1,2.5-1.2c1.1-0.1,2.1,0.1,2.8,0.7s1.2,1.4,1.3,2.4l-1.9,0.2
		c-0.1-0.5-0.3-0.9-0.7-1.3c-0.4-0.3-0.9-0.5-1.4-0.4c-0.6,0.1-1,0.2-1.3,0.6c-0.3,0.3-0.4,0.7-0.4,1.2c0,0.4,0.2,0.7,0.4,0.9
		s0.8,0.5,1.8,0.8c1.5,0.4,2.5,0.8,3,1.3c0.6,0.5,0.9,1.1,1,1.9c0.1,1-0.2,1.8-0.8,2.5c-0.6,0.7-1.5,1.1-2.7,1.2
		c-1.2,0.1-2.2-0.1-3-0.7c-0.8-0.6-1.3-1.5-1.4-2.5l1.9-0.2c0.1,0.6,0.3,1.1,0.7,1.4c0.4,0.3,0.9,0.5,1.6,0.4
		c0.6-0.1,1.1-0.3,1.4-0.6C312.1,268.8,312.3,268.4,312.2,267.9z"/>
	<path class="st3" d="M319.2,264.8l-0.9,1.3l0.4,4.1l-1.9,0.2l-1.7-16.4l1.9-0.2l1,9.8l3.1-5.3l2.3-0.2l-3.2,5.2l4.8,6.3l-2.2,0.2
		L319.2,264.8z"/>
	<path class="st3" d="M330.7,262.6c-0.2-1.7,0.1-3.1,0.8-4.1c0.7-1.1,1.7-1.7,3.1-1.8c1.3-0.1,2.5,0.2,3.4,1.1
		c0.9,0.9,1.5,2.1,1.7,3.8l0.1,1.2c0.2,1.7-0.1,3-0.8,4.1c-0.7,1.1-1.7,1.7-3.1,1.8c-1.3,0.1-2.5-0.2-3.4-1.1
		c-0.9-0.9-1.5-2.1-1.6-3.7L330.7,262.6z M332.7,263.5c0.1,1.2,0.4,2.1,1,2.7c0.5,0.6,1.2,0.9,2,0.8c1.7-0.2,2.4-1.5,2.2-3.9
		l-0.1-1.3c-0.1-1.2-0.5-2.1-1-2.7c-0.5-0.6-1.2-0.9-2-0.8c-0.8,0.1-1.4,0.5-1.8,1.2c-0.4,0.7-0.5,1.7-0.4,2.9L332.7,263.5z"/>
	<path class="st3" d="M343.6,267.7l-1-10l-1.5,0.2l-0.2-1.5l1.5-0.2l-0.1-1.3c-0.1-1.2,0.1-2.1,0.6-2.8s1.3-1.1,2.3-1.2
		c0.4,0,0.8,0,1.2,0.1l0.1,1.6c-0.3,0-0.6,0-0.9,0c-1.1,0.1-1.5,0.9-1.4,2.5l0.1,1.1l2-0.2l0.2,1.5l-2,0.2l1,10L343.6,267.7z"/>
	<path class="st3" d="M267.1,301c-0.5,0.9-1.4,1.4-2.6,1.5c-1,0.1-1.9-0.2-2.5-0.8c-0.6-0.7-1-1.7-1.1-3.1l-0.8-7.5l1.9-0.2l0.8,7.4
		c0.2,1.8,0.8,2.6,1.9,2.5c1.1-0.1,1.9-0.7,2.2-1.8l-0.9-8.6l1.9-0.2l1.2,11.6l-1.8,0.2L267.1,301z"/>
	<path class="st3" d="M272.5,289.8l0.2,1.2c0.6-1.1,1.5-1.6,2.7-1.7c2-0.2,3.2,1.1,3.5,3.8l0.8,7.7l-1.9,0.2l-0.8-7.6
		c-0.1-0.9-0.3-1.5-0.7-1.9c-0.3-0.4-0.8-0.5-1.4-0.4c-0.5,0-0.9,0.2-1.2,0.6c-0.3,0.4-0.6,0.8-0.8,1.3l0.9,8.4l-1.9,0.2l-1.2-11.6
		L272.5,289.8z"/>
	<path class="st3" d="M286.7,300.2c-1.4,0.1-2.6-0.2-3.4-1c-0.9-0.8-1.4-2-1.6-3.7l-0.1-1.4c-0.2-1.7,0.1-3.1,0.7-4.2
		c0.7-1.1,1.7-1.7,3-1.8c1.4-0.1,2.4,0.2,3.2,1c0.8,0.8,1.2,2.1,1.4,3.9l0.1,1.2l-6.5,0.7l0,0.3c0.1,1.2,0.5,2.1,1,2.6
		c0.5,0.5,1.2,0.7,2.1,0.6c0.6-0.1,1-0.2,1.4-0.5c0.4-0.3,0.8-0.6,1.1-1.1l1.1,1.1C289.5,299.4,288.3,300.1,286.7,300.2z
		 M285.4,289.9c-0.8,0.1-1.3,0.4-1.7,1c-0.3,0.6-0.5,1.4-0.4,2.6l4.6-0.5l0-0.3c-0.2-1.1-0.4-1.9-0.8-2.3
		C286.7,290,286.1,289.8,285.4,289.9z"/>
	<path class="st3" d="M293.4,287.7l0.2,1.1c0.6-0.9,1.5-1.4,2.7-1.6c1.3-0.1,2.2,0.3,2.9,1.4c0.6-1.2,1.6-1.9,2.9-2
		c2.1-0.2,3.4,1,3.7,3.7l0.8,7.8l-1.9,0.2l-0.8-7.6c-0.1-0.8-0.3-1.5-0.6-1.8c-0.3-0.4-0.9-0.5-1.6-0.5c-0.6,0.1-1,0.3-1.3,0.8
		c-0.3,0.5-0.5,1.1-0.4,1.8l0.8,7.7l-1.9,0.2l-0.8-7.7c-0.2-1.6-0.9-2.3-2.2-2.2c-1,0.1-1.6,0.6-1.9,1.6l0.9,8.7l-1.9,0.2l-1.2-11.6
		L293.4,287.7z"/>
	<path class="st3" d="M317.1,291.7c0.2,1.8,0,3.2-0.6,4.2c-0.6,1-1.5,1.5-2.7,1.6c-1.2,0.1-2.1-0.2-2.8-1l0.6,5.5l-1.9,0.2l-1.6-16
		l1.7-0.2l0.2,1.3c0.5-1.1,1.4-1.7,2.6-1.8c1.3-0.1,2.3,0.2,3,1c0.7,0.8,1.2,2.1,1.4,3.9L317.1,291.7z M315.1,290.8
		c-0.1-1.3-0.4-2.2-0.9-2.8c-0.5-0.6-1.1-0.8-2-0.7c-0.9,0.1-1.5,0.6-1.9,1.6l0.6,6c0.6,0.8,1.3,1.2,2.2,1.1
		c0.9-0.1,1.5-0.5,1.8-1.1c0.3-0.7,0.4-1.6,0.3-2.9L315.1,290.8z"/>
	<path class="st3" d="M322.1,296.4l-1.9,0.2l-1.7-16.4l1.9-0.2L322.1,296.4z"/>
	<path class="st3" d="M324,289.8c-0.2-1.7,0.1-3.1,0.8-4.1c0.7-1.1,1.7-1.7,3.1-1.8c1.3-0.1,2.5,0.2,3.4,1.1
		c0.9,0.9,1.5,2.1,1.7,3.8l0.1,1.2c0.2,1.7-0.1,3-0.8,4.1c-0.7,1.1-1.7,1.7-3.1,1.8c-1.3,0.1-2.5-0.2-3.4-1.1
		c-0.9-0.9-1.5-2.1-1.6-3.7L324,289.8z M326,290.7c0.1,1.2,0.4,2.1,1,2.7s1.2,0.9,2,0.8c1.7-0.2,2.4-1.5,2.2-3.9l-0.1-1.3
		c-0.1-1.2-0.4-2.1-1-2.7c-0.5-0.6-1.2-0.9-2-0.8c-0.8,0.1-1.4,0.5-1.8,1.2c-0.4,0.7-0.5,1.7-0.4,2.9L326,290.7z"/>
	<path class="st3" d="M338.9,291.5l1.3-8.6l2-0.2l-2.4,13.6c-0.2,1-0.5,1.8-1,2.4c-0.5,0.6-1,0.9-1.7,1c-0.3,0-0.6,0-1-0.1l-0.2-1.6
		l0.4,0c0.5-0.1,1-0.2,1.2-0.5c0.3-0.3,0.5-0.8,0.6-1.4l0.2-1.3l-4.6-11.1l2.1-0.2L338.9,291.5z"/>
	<path class="st3" d="M345.7,282.3l0.2,1.1c0.6-0.9,1.5-1.4,2.7-1.6c1.3-0.1,2.2,0.3,2.9,1.4c0.6-1.2,1.6-1.9,2.9-2
		c2.1-0.2,3.4,1,3.7,3.7l0.8,7.8l-1.9,0.2l-0.8-7.6c-0.1-0.8-0.3-1.5-0.6-1.8c-0.3-0.4-0.9-0.5-1.6-0.5c-0.6,0.1-1,0.3-1.3,0.8
		c-0.3,0.5-0.5,1.1-0.4,1.8l0.8,7.7l-1.9,0.2l-0.8-7.7c-0.2-1.6-0.9-2.3-2.2-2.2c-1,0.1-1.6,0.6-1.9,1.6l0.9,8.7l-1.9,0.2l-1.2-11.6
		L345.7,282.3z"/>
	<path class="st3" d="M365.8,292.2c-1.4,0.1-2.6-0.2-3.4-1c-0.9-0.8-1.4-2-1.6-3.7l-0.1-1.4c-0.2-1.7,0.1-3.1,0.7-4.2
		c0.7-1.1,1.7-1.7,3-1.8c1.4-0.1,2.4,0.2,3.2,1c0.8,0.8,1.2,2.1,1.4,3.9l0.1,1.2l-6.5,0.7l0,0.3c0.1,1.2,0.5,2.1,1,2.6
		c0.5,0.5,1.2,0.7,2.1,0.6c0.6-0.1,1-0.2,1.4-0.5c0.4-0.3,0.8-0.6,1.1-1.1l1.1,1.1C368.6,291.3,367.4,292,365.8,292.2z M364.5,281.9
		c-0.8,0.1-1.3,0.4-1.7,1c-0.3,0.6-0.5,1.4-0.4,2.6l4.6-0.5l0-0.3c-0.2-1.1-0.4-1.9-0.8-2.3C365.7,282,365.2,281.8,364.5,281.9z"/>
	<path class="st3" d="M372.5,279.6l0.2,1.2c0.6-1,1.5-1.6,2.7-1.7c2-0.2,3.2,1.1,3.5,3.8l0.8,7.7l-1.9,0.2l-0.8-7.6
		c-0.1-0.9-0.3-1.5-0.7-1.9c-0.3-0.4-0.8-0.5-1.4-0.4c-0.5,0-0.9,0.2-1.2,0.6c-0.3,0.4-0.6,0.8-0.8,1.3l0.9,8.4l-1.9,0.2l-1.2-11.6
		L372.5,279.6z"/>
	<path class="st3" d="M383.5,275.7l0.3,2.8l1.7-0.2l0.2,1.5l-1.7,0.2l0.7,7.2c0,0.5,0.2,0.8,0.3,1c0.2,0.2,0.4,0.3,0.8,0.3
		c0.2,0,0.5-0.1,0.7-0.2l0.1,1.6c-0.4,0.2-0.8,0.3-1.3,0.3c-0.7,0.1-1.3-0.1-1.8-0.6c-0.4-0.5-0.7-1.2-0.8-2.2l-0.7-7.2l-1.8,0.2
		l-0.2-1.5l1.8-0.2l-0.3-2.8L383.5,275.7z"/>
</g>
</svg>
