<?xml version="1.0" encoding="utf-8"?>
<!-- Generator: Adobe Illustrator 27.0.1, SVG Export Plug-In . SVG Version: 6.00 Build 0)  -->
<svg version="1.1" id="Layer_1" xmlns="http://www.w3.org/2000/svg" xmlns:xlink="http://www.w3.org/1999/xlink" x="0px" y="0px"
	 viewBox="0 0 1645.6 1080" style="enable-background:new 0 0 1645.6 1080;" xml:space="preserve">
<style type="text/css">
	.st0{fill:#FEFEFE;}
	.st1{fill-rule:evenodd;clip-rule:evenodd;fill:#1F425A;}
	.st2{fill-rule:evenodd;clip-rule:evenodd;fill:#1F4257;}
	.st3{enable-background:new    ;}
	.st4{fill:#FFFFFF;}
	.st5{fill-rule:evenodd;clip-rule:evenodd;fill:#802521;}
	.st6{fill:#802521;}
	.st7{fill:#A5A5A0;}
	.st8{fill:#1F4257;}
</style>
<path class="st0" d="M-71.6,203.6l0.2,0.2h-0.1C-71.6,203.7-71.6,203.7-71.6,203.6L-71.6,203.6L-71.6,203.6z"/>
<polygon class="st1" points="1405.6,37.5 1461.3,67.9 1461.3,129.6 1406.6,160.4 1349.2,129.6 1349.2,68.2 "/>
<polygon class="st2" points="63,37.5 117.8,68.8 117.8,131.9 62.1,163 5.6,131.6 5.6,68.8 "/>
<g class="st3">
	<path class="st4" d="M55.7,105.3h-9l-2.1,7h-3.4l8.6-26.6h2.9l8.6,26.6h-3.4L55.7,105.3z M47.6,102.5h7.2l-3.6-12.1L47.6,102.5z"/>
	<path class="st4" d="M70.8,100l-2.6,3.2v9.1h-3.3V85.7h3.3v12.8l2.2-2.9l7.2-9.9h4L73,97.4l9.3,14.9h-4L70.8,100z"/>
</g>
<polygon class="st1" points="1225,139 1279.7,170.4 1279.7,233.5 1223.9,264.5 1167.5,233.1 1167.5,170.4 "/>
<polygon class="st1" points="1345.2,139 1399.9,170.4 1399.9,233.5 1344.2,264.5 1287.7,233.1 1287.7,170.4 "/>
<polygon class="st1" points="306.2,243.1 360.9,273.8 360.9,335.6 305.1,366 248.7,335.3 248.7,273.8 "/>
<g class="st3">
	<path class="st4" d="M287.1,291.4L294,313l6.9-21.7h4.3v26.6h-3.3v-10.4l0.3-10.4l-7,20.7h-2.6l-6.9-20.6l0.3,10.3v10.4h-3.3v-26.6
		h4.4V291.4z"/>
	<path class="st4" d="M326.6,294.2h-7v23.7h-3.3v-23.7h-7v-2.9h17.3V294.2z"/>
</g>
<polygon class="st5" points="429,243.1 483.8,273.8 483.8,335.6 428,366 371.6,335.3 371.6,273.8 "/>
<polygon class="st2" points="1163.6,243.1 1218.3,273.8 1218.3,335.6 1162.5,366 1106.1,335.3 1106.1,273.8 "/>
<polygon class="st1" points="551.9,243.1 606.6,273.9 606.6,335.6 550.9,366 494.4,335.3 494.4,273.9 "/>
<polygon class="st5" points="672.4,243.1 726.8,273.5 726.8,335.3 673.4,366 617.3,335.3 617.3,273.9 "/>
<polygon class="st2" points="1285.1,243.1 1338.5,273.9 1338.5,335.6 1284,366 1229,335.3 1229,273.9 "/>
<polygon class="st2" points="1405.6,243.1 1461.3,273.5 1461.3,335.3 1406.6,366 1349.2,335.3 1349.2,273.9 "/>
<polygon class="st1" points="184.5,245.8 238,276.5 238,338.2 183.6,368.7 128.5,337.9 128.5,276.5 "/>
<g class="st3">
	<path class="st4" d="M164.3,309.6l0.3,3l0.5-2.6l4.3-18.5h2.8l4.1,18.5l0.5,2.7l0.4-3.1l3.2-18.2h3.3l-5.3,26.6h-3l-4.4-19.4
		l-0.3-1.6l-0.3,1.6l-4.6,19.4h-3l-5.3-26.6h3.3L164.3,309.6z"/>
	<path class="st4" d="M197.8,311h-9l-2.1,7h-3.4l8.6-26.6h2.9l8.6,26.6H200L197.8,311z M189.7,308.1h7.2l-3.6-12.1L189.7,308.1z"/>
</g>
<polygon class="st5" points="917.8,245.8 972.6,276.5 972.6,338.2 916.8,368.7 860.4,337.9 860.4,276.5 "/>
<polygon class="st5" points="243.7,347.3 299.5,377.7 299.5,439.5 244.7,470.2 187.3,439.5 187.3,378 "/>
<polygon class="st5" points="366.6,347.3 422.3,377.7 422.3,439.5 367.6,470.2 310.1,439.5 310.1,378 "/>
<polygon class="st5" points="490.5,347.3 545.2,378 545.2,439.8 489.4,470.2 433,439.5 433,378 "/>
<polygon class="st5" points="978.2,347.3 1034,377.7 1034,439.5 979.2,470.2 921.8,439.5 921.8,378 "/>
<polygon class="st5" points="1101.1,347.3 1156.8,377.7 1156.8,439.5 1102.1,470.2 1044.7,439.5 1044.7,378 "/>
<polygon class="st2" points="1225,347.3 1279.7,378 1279.7,439.8 1223.9,470.2 1167.5,439.5 1167.5,378 "/>
<polygon class="st5" points="612,347.3 665.4,378 665.4,439.8 611,470.2 555.9,439.5 555.9,378 "/>
<polygon class="st2" points="1345.2,347.3 1399.9,378 1399.9,439.8 1344.2,470.2 1287.7,439.5 1287.7,378 "/>
<polygon class="st5" points="855.4,347.3 911.1,378.4 911.1,441.5 856.4,472.9 798.9,441.5 798.9,378.7 "/>
<polygon class="st2" points="733.5,347.3 788.2,378.7 788.2,441.8 732.5,472.9 676.1,441.5 676.1,378.7 "/>
<polygon class="st1" points="306.2,448.8 360.9,480.1 360.9,543.3 305.1,574.4 248.7,543 248.7,480.1 "/>
<polygon class="st1" points="429,448.8 483.8,480.1 483.8,543.3 428,574.4 371.6,543 371.6,480.1 "/>
<polygon class="st1" points="1040.7,448.8 1095.4,480.1 1095.4,543.3 1039.7,574.4 983.2,543 983.2,480.1 "/>
<polygon class="st1" points="1163.6,448.8 1218.3,480.1 1218.3,543.3 1162.5,574.4 1106.1,543 1106.1,480.1 "/>
<polygon class="st5" points="551.9,448.8 606.6,480.2 606.6,543.3 550.9,574.4 494.4,543 494.4,480.2 "/>
<polygon class="st5" points="672.4,448.8 726.8,479.9 726.8,543 673.4,574.4 617.3,543 617.3,480.2 "/>
<polygon class="st1" points="184.5,451.5 238,482.2 238,543.9 183.6,574.4 128.5,543.6 128.5,482.2 "/>
<polygon class="st5" points="796.2,451.5 849.7,482.2 849.7,543.9 795.3,574.4 740.2,543.6 740.2,482.2 "/>
<polygon class="st5" points="917.8,451.5 972.6,482.2 972.6,543.9 916.8,574.4 860.4,543.6 860.4,482.2 "/>
<polygon class="st2" points="243.7,553 299.5,583.4 299.5,645.2 244.7,675.9 187.3,645.2 187.3,583.7 "/>
<polygon class="st5" points="366.6,553 422.3,583.4 422.3,645.2 367.6,675.9 310.1,645.2 310.1,583.7 "/>
<polygon class="st5" points="490.5,553 545.2,583.7 545.2,645.5 489.4,675.9 433,645.2 433,583.7 "/>
<polygon class="st2" points="978.2,553 1034,583.4 1034,645.2 979.2,675.9 921.8,645.2 921.8,583.7 "/>
<polygon class="st5" points="1101.1,555.7 1156.8,586 1156.8,647.8 1102.1,678.5 1044.7,647.8 1044.7,586.4 "/>
<polygon class="st2" points="612,553 665.4,584.4 665.4,647.5 611,678.5 555.9,647.2 555.9,584.4 "/>
<polygon class="st5" points="855.4,553 911.1,584 911.1,647.2 856.4,678.5 798.9,647.2 798.9,584.4 "/>
<polygon class="st5" points="733.5,555.7 788.2,586.4 788.2,648.1 732.5,678.5 676.1,647.8 676.1,586.4 "/>
<polygon class="st2" points="1468.1,555.7 1522.8,586.4 1522.8,648.1 1467,678.5 1410.6,647.8 1410.6,586.4 "/>
<polygon class="st2" points="429,657.2 483.8,687.8 483.8,749.6 428,780 371.6,749.3 371.6,687.8 "/>
<polygon class="st5" points="1040.7,657.2 1095.4,688.5 1095.4,751.6 1039.7,782.7 983.2,751.3 983.2,688.5 "/>
<polygon class="st5" points="551.9,657.2 606.6,687.9 606.6,749.6 550.9,780 494.4,749.3 494.4,687.9 "/>
<polygon class="st5" points="672.4,657.2 726.8,687.5 726.8,749.3 673.4,780 617.3,749.3 617.3,687.9 "/>
<polygon class="st5" points="796.2,657.2 849.7,688.5 849.7,751.6 795.3,782.7 740.2,751.3 740.2,688.5 "/>
<polygon class="st5" points="917.8,659.8 972.6,690.5 972.6,752.2 916.8,782.7 860.4,751.9 860.4,690.5 "/>
<polygon class="st5" points="490.5,758.7 545.2,790 545.2,853.2 489.4,884.2 433,852.8 433,790 "/>
<polygon class="st5" points="978.2,761.3 1034,791.7 1034,853.5 979.2,884.2 921.8,853.5 921.8,792 "/>
<polygon class="st2" points="1040.7,865.5 1095.4,896.2 1095.4,958 1039.7,988.4 983.2,957.7 983.2,896.2 "/>
<polygon class="st2" points="63,862.8 117.8,894.2 117.8,957.2 62.1,988.4 5.6,956.9 5.6,894.2 "/>
<g class="st3">
	<path class="st4" d="M425,317.9h-3.4L411,297.5V318h-3.4v-26.6h3.4l10.7,20.6v-20.6h3.3V317.9z"/>
	<path class="st4" d="M430.8,317.9v-26.6h6.3c3.1,0,5.5,1,7.2,2.9s2.6,4.7,2.6,8.2v4.5c0,3.5-0.9,6.2-2.6,8.2s-4.3,2.9-7.6,2.9h-5.9
		V317.9z M434.2,294.2V315h2.7c2.3,0,4.1-0.7,5.1-2c1.1-1.3,1.6-3.3,1.7-6v-4.7c0-2.8-0.5-4.9-1.6-6.2s-2.7-2-4.9-2h-3V294.2z"/>
</g>
<g class="st3">
	<path class="st4" d="M529.9,291.4l6.9,21.7l6.9-21.7h4.3V318h-3.3v-10.4l0.3-10.4l-7,20.7h-2.6l-6.9-20.6l0.3,10.3V318h-3.3v-26.6
		H529.9z"/>
	<path class="st4" d="M571.2,317.9h-3.4l-10.6-20.5v20.5h-3.4v-26.6h3.4l10.7,20.6v-20.6h3.3V317.9z"/>
</g>
<g class="st3">
	<path class="st4" d="M657.4,309.7l0.3,3l0.5-2.6l4.3-18.5h2.8l4.1,18.5l0.5,2.7l0.4-3.1l3.2-18.2h3.3l-5.3,26.6h-3l-4.4-19.4
		l-0.3-1.6l-0.3,1.6l-4.6,19.4h-3l-5.3-26.6h3.3L657.4,309.7z"/>
	<path class="st4" d="M684.3,318.1H681v-26.6h3.3V318.1z"/>
</g>
<g class="st3">
	<path class="st4" d="M905.8,291.5l6.9,21.7l6.9-21.7h4.3v26.6h-3.3v-10.4l0.3-10.4l-7,20.7h-2.6l-6.9-20.6l0.3,10.3v10.4h-3.3
		v-26.6H905.8z"/>
	<path class="st4" d="M933.2,318.1h-3.3v-26.6h3.3V318.1z"/>
</g>
<g class="st3">
	<path class="st4" d="M1159.3,317.9h-3.4l-10.6-20.5v20.5h-3.4v-26.6h3.4l10.7,20.6v-20.6h3.3V317.9z"/>
	<path class="st4" d="M1172,304.7l5.4-13.3h3.8l-7.6,16.7v9.9h-3.3v-10l-7.6-16.7h3.8L1172,304.7z"/>
</g>
<g class="st3">
	<path class="st4" d="M1266.1,291.4l6.9,21.7l6.9-21.7h4.3V318h-3.3v-10.4l0.3-10.4l-7,20.7h-2.6l-6.9-20.6l0.3,10.3V318h-3.3v-26.6
		H1266.1z"/>
	<path class="st4" d="M1302.4,311h-9l-2.1,7h-3.4l8.6-26.6h2.9l8.6,26.6h-3.4L1302.4,311z M1294.3,308.1h7.2l-3.6-12.1L1294.3,308.1
		z"/>
</g>
<g class="st3">
	<path class="st4" d="M1211.4,210.6l6.1-21.5h3.7l-8.3,26.6h-2.9l-8.3-26.6h3.7L1211.4,210.6z"/>
	<path class="st4" d="M1240.3,192h-7v23.7h-3.3V192h-7v-2.9h17.3V192z"/>
</g>
<g class="st3">
	<path class="st4" d="M1338,215.7h-3.4l-10.6-20.5v20.5h-3.4v-26.6h3.4l10.7,20.6v-20.6h3.3V215.7z"/>
	<path class="st4" d="M1361.2,215.7h-3.4v-12.3h-10.7v12.3h-3.3v-26.6h3.3v11.4h10.7v-11.4h3.4V215.7z"/>
</g>
<g class="st3">
	<path class="st4" d="M1391.1,85.7l6.9,21.7l6.9-21.7h4.3v26.6h-3.3v-10.4l0.3-10.4l-7,20.7h-2.6l-6.9-20.6l0.3,10.3v10.4h-3.3V85.7
		H1391.1z"/>
	<path class="st4" d="M1427.8,100h-9.4v9.4h11v2.9H1415V85.7h14.1v2.9h-10.8v8.6h9.4v2.8H1427.8z"/>
</g>
<g class="st3">
	<path class="st4" d="M232.7,423.2h-3.3v-26.6h3.3V423.2z"/>
	<path class="st4" d="M237.1,423.2v-26.6h6.3c3.1,0,5.5,1,7.2,2.9s2.6,4.7,2.6,8.2v4.5c0,3.5-0.9,6.2-2.6,8.2s-4.3,2.9-7.6,2.9h-5.9
		V423.2z M240.4,399.5v20.8h2.7c2.3,0,4.1-0.7,5.1-2c1.1-1.3,1.6-3.3,1.7-6v-4.7c0-2.8-0.5-4.9-1.6-6.2s-2.7-2-4.9-2h-3V399.5z"/>
</g>
<g class="st3">
	<path class="st4" d="M349.6,414.9l0.3,3l0.5-2.6l4.3-18.5h2.8l4.1,18.5l0.5,2.7l0.4-3.1l3.2-18.2h3.3l-5.3,26.6h-3l-4.4-19.4
		l-0.3-1.6l-0.3,1.6l-4.6,19.4h-3l-5.3-26.6h3.3L349.6,414.9z"/>
	<path class="st4" d="M378.4,410l5.4-13.3h3.8l-7.6,16.7v9.9h-3.3v-9.9l-7.6-16.7h3.8L378.4,410z"/>
</g>
<g class="st3">
	<path class="st4" d="M482.2,415.3c0-1.3-0.4-2.3-1.1-3s-2-1.4-3.9-2.1s-3.3-1.4-4.3-2.1s-1.7-1.6-2.2-2.5s-0.7-2-0.7-3.2
		c0-2.1,0.7-3.8,2.1-5.2c1.4-1.4,3.2-2,5.5-2c1.6,0,2.9,0.3,4.2,1c1.2,0.7,2.2,1.7,2.8,2.9c0.7,1.2,1,2.6,1,4.1h-3.4
		c0-1.6-0.4-2.9-1.2-3.8s-1.9-1.4-3.4-1.4c-1.4,0-2.4,0.4-3.1,1.1c-0.7,0.8-1.1,1.8-1.1,3.2c0,1.1,0.4,2.1,1.2,2.8s2,1.4,3.7,2
		c2.6,0.9,4.5,1.9,5.6,3.2c1.1,1.3,1.7,2.9,1.7,5c0,2.2-0.7,3.9-2.1,5.2c-1.4,1.3-3.3,1.9-5.7,1.9c-1.5,0-3-0.3-4.3-1
		s-2.3-1.6-3.1-2.8c-0.7-1.2-1.1-2.6-1.1-4.2h3.4c0,1.6,0.5,2.9,1.4,3.8s2.2,1.4,3.8,1.4c1.5,0,2.6-0.4,3.3-1.1
		C481.8,417.6,482.2,416.6,482.2,415.3z"/>
	<path class="st4" d="M488.4,422v-26.6h6.3c3.1,0,5.5,1,7.2,2.9s2.6,4.7,2.6,8.2v4.5c0,3.5-0.9,6.2-2.6,8.2s-4.3,2.9-7.6,2.9h-5.9
		V422z M491.8,398.3v20.8h2.7c2.3,0,4.1-0.7,5.1-2c1.1-1.3,1.6-3.3,1.7-6v-4.7c0-2.8-0.5-4.9-1.6-6.2s-2.7-2-4.9-2h-3V398.3z"/>
</g>
<g class="st3">
	<path class="st4" d="M602.1,423.4h-3.3v-26.6h3.3V423.4z"/>
	<path class="st4" d="M618.9,416.4h-9l-2.1,7h-3.4l8.6-26.6h2.9l8.6,26.6H621L618.9,416.4z M610.8,413.6h7.2l-3.6-12.1L610.8,413.6z
		"/>
</g>
<g class="st3">
	<path class="st4" d="M184.1,516.9c0,3.6-0.8,6.4-2.3,8.4s-3.7,2.9-6.6,2.9c-2.7,0-4.9-1-6.5-2.9s-2.4-4.6-2.5-8.1v-5
		c0-3.6,0.8-6.3,2.4-8.4c1.6-2,3.8-3,6.6-3c2.8,0,5,1,6.5,2.9c1.6,1.9,2.4,4.7,2.4,8.3V516.9z M180.8,512.3c0-2.8-0.5-4.9-1.4-6.3
		s-2.3-2.1-4.2-2.1c-1.8,0-3.2,0.7-4.2,2.1c-0.9,1.4-1.4,3.4-1.4,6.1v4.8c0,2.7,0.5,4.8,1.4,6.2s2.4,2.1,4.2,2.1s3.3-0.7,4.2-2
		s1.4-3.3,1.4-6V512.3z"/>
	<path class="st4" d="M195.8,517.1h-4.7v10.8h-3.4v-26.6h7.4c2.6,0,4.6,0.7,5.9,2c1.3,1.4,2,3.3,2,6c0,1.6-0.4,3.1-1.1,4.3
		s-1.8,2.1-3.1,2.8l5.1,11.3v0.2h-3.6L195.8,517.1z M191.1,514.3h4.1c1.4,0,2.5-0.5,3.4-1.4c0.8-0.9,1.3-2.1,1.3-3.6
		c0-3.4-1.5-5.1-4.6-5.1h-4v10.1H191.1z"/>
</g>
<g class="st3">
	<path class="st4" d="M303.1,527.9h-3.4l-10.6-20.5v20.5h-3.4v-26.6h3.4l10.7,20.6v-20.6h3.3V527.9z"/>
	<path class="st4" d="M315,522.8l6.1-21.5h3.7l-8.3,26.6h-2.9l-8.3-26.6h3.7L315,522.8z"/>
</g>
<g class="st3">
	<path class="st4" d="M241,618.3c-0.1,2.8-0.9,5-2.4,6.5s-3.5,2.3-6.2,2.3s-4.8-1-6.4-3s-2.4-4.8-2.4-8.2V611c0-3.5,0.8-6.2,2.4-8.2
		s3.8-3,6.6-3c2.6,0,4.6,0.8,6,2.3s2.2,3.7,2.3,6.6h-3.4c-0.1-2.2-0.6-3.7-1.4-4.6c-0.8-0.9-1.9-1.4-3.5-1.4c-1.8,0-3.2,0.7-4.2,2.1
		c-1,1.4-1.5,3.5-1.5,6.2v4.9c0,2.7,0.5,4.8,1.4,6.2s2.2,2.2,4,2.2s3-0.4,3.8-1.3c0.8-0.9,1.2-2.4,1.4-4.7H241z"/>
	<path class="st4" d="M256.5,619.8h-9l-2.1,7H242l8.6-26.6h2.9l8.6,26.6h-3.4L256.5,619.8z M248.4,616.9h7.2l-3.6-12.1L248.4,616.9z
		"/>
</g>
<g class="st3">
	<path class="st4" d="M358.9,620.2h-9l-2.1,7h-3.4l8.6-26.6h2.9l8.6,26.6H361L358.9,620.2z M350.8,617.3h7.2l-3.6-12.1L350.8,617.3z
		"/>
	<path class="st4" d="M369.1,624.2h12.6v2.9h-16.3v-2.6l12.1-21.1h-12v-2.9h15.7v2.6L369.1,624.2z"/>
</g>
<g class="st3">
	<path class="st4" d="M427.9,519.4c-0.1,2.8-0.9,5-2.4,6.5s-3.5,2.3-6.2,2.3s-4.8-1-6.4-3c-1.6-2-2.4-4.8-2.4-8.2v-4.8
		c0-3.5,0.8-6.2,2.4-8.2c1.6-2,3.8-3,6.6-3c2.6,0,4.6,0.8,6,2.3s2.2,3.7,2.3,6.6h-3.4c-0.1-2.2-0.6-3.7-1.4-4.6s-1.9-1.4-3.5-1.4
		c-1.8,0-3.2,0.7-4.2,2.1s-1.5,3.5-1.5,6.2v4.9c0,2.7,0.5,4.8,1.4,6.2s2.2,2.2,4,2.2s3-0.4,3.8-1.3c0.8-0.9,1.2-2.4,1.4-4.7h3.5
		V519.4z"/>
	<path class="st4" d="M448.2,516.9c0,3.6-0.8,6.4-2.3,8.4s-3.7,2.9-6.6,2.9c-2.7,0-4.9-1-6.5-2.9s-2.4-4.6-2.5-8.1v-5
		c0-3.6,0.8-6.3,2.4-8.4c1.6-2,3.8-3,6.6-3s5,1,6.5,2.9c1.6,1.9,2.4,4.7,2.4,8.3L448.2,516.9L448.2,516.9z M444.8,512.3
		c0-2.8-0.5-4.9-1.4-6.3s-2.3-2.1-4.2-2.1c-1.8,0-3.2,0.7-4.2,2.1c-0.9,1.4-1.4,3.4-1.4,6.1v4.8c0,2.7,0.5,4.8,1.4,6.2
		s2.4,2.1,4.2,2.1s3.3-0.7,4.2-2s1.4-3.3,1.4-6V512.3z"/>
</g>
<g class="st3">
	<path class="st4" d="M549.8,527.9h-3.4l-10.6-20.5v20.5h-3.4v-26.6h3.4l10.7,20.6v-20.6h3.3V527.9z"/>
	<path class="st4" d="M566.8,515.6h-9.4v9.4h11v2.9h-14.3v-26.6h14.1v2.9h-10.8v8.6h9.4V515.6z"/>
</g>
<g class="st3">
	<path class="st4" d="M488.3,600.2v18.9c0,2.5-0.8,4.5-2.2,5.9s-3.4,2.1-6,2.1s-4.6-0.7-6-2.1s-2.1-3.4-2.1-6v-18.9h3.3v18.8
		c0,1.8,0.4,3.1,1.1,4c0.8,0.9,2,1.3,3.7,1.3s2.9-0.4,3.7-1.3c0.8-0.9,1.1-2.2,1.1-4v-18.8L488.3,600.2L488.3,600.2z"/>
	<path class="st4" d="M507.5,603.1h-7v23.7h-3.3v-23.7h-7v-2.9h17.3V603.1z"/>
</g>
<g class="st3">
	<path class="st4" d="M599.1,614.5l-2.6,3.2v9.1h-3.3v-26.6h3.3V613l2.2-2.9l7.2-9.9h4l-8.6,11.7l9.3,14.9h-4L599.1,614.5z"/>
	<path class="st4" d="M623.7,620.1c0-1.3-0.4-2.3-1.1-3c-0.7-0.7-2-1.4-3.9-2.1s-3.3-1.4-4.3-2.1c-1-0.7-1.7-1.6-2.2-2.5
		s-0.7-2-0.7-3.2c0-2.1,0.7-3.8,2.1-5.2c1.4-1.4,3.2-2,5.5-2c1.6,0,2.9,0.3,4.2,1c1.2,0.7,2.2,1.7,2.8,2.9c0.7,1.2,1,2.6,1,4.1h-3.4
		c0-1.6-0.4-2.9-1.2-3.8c-0.8-0.9-1.9-1.4-3.4-1.4c-1.4,0-2.4,0.4-3.1,1.1c-0.7,0.8-1.1,1.8-1.1,3.2c0,1.1,0.4,2.1,1.2,2.8
		s2,1.4,3.7,2c2.6,0.9,4.5,1.9,5.6,3.2s1.7,2.9,1.7,5c0,2.2-0.7,3.9-2.1,5.2c-1.4,1.3-3.3,1.9-5.7,1.9c-1.5,0-3-0.3-4.3-1
		s-2.3-1.6-3.1-2.8s-1.1-2.6-1.1-4.2h3.4c0,1.6,0.5,2.9,1.4,3.8c0.9,0.9,2.2,1.4,3.8,1.4c1.5,0,2.6-0.4,3.3-1.1
		C623.3,622.4,623.7,621.4,623.7,620.1z"/>
</g>
<g class="st3">
	<path class="st4" d="M726.1,620.2h-9l-2.1,7h-3.4l8.6-26.6h2.9l8.6,26.6h-3.4L726.1,620.2z M718,617.3h7.2l-3.6-12.1L718,617.3z"/>
	<path class="st4" d="M741.8,616.4h-4.7v10.8h-3.4v-26.6h7.4c2.6,0,4.6,0.7,5.9,2c1.3,1.4,2,3.3,2,6c0,1.6-0.4,3.1-1.1,4.3
		c-0.7,1.2-1.8,2.1-3.1,2.8l5.1,11.3v0.2h-3.6L741.8,616.4z M737.1,613.5h4.1c1.4,0,2.5-0.5,3.4-1.4c0.8-0.9,1.3-2.1,1.3-3.6
		c0-3.4-1.5-5.1-4.6-5.1h-4v10.1H737.1z"/>
</g>
<g class="st3">
	<path class="st4" d="M848.3,603.4h-7v23.7H838v-23.7h-7v-2.9h17.3V603.4z"/>
	<path class="st4" d="M868,627.1h-3.4L854,606.6v20.5h-3.4v-26.6h3.4l10.7,20.6v-20.6h3.3V627.1z"/>
</g>
<g class="st3">
	<path class="st4" d="M657.7,501.3l6.9,21.7l6.9-21.7h4.3v26.6h-3.3v-10.4l0.3-10.4l-7,20.7h-2.6l-6.9-20.6l0.3,10.3v10.4h-3.3
		v-26.6L657.7,501.3L657.7,501.3z"/>
	<path class="st4" d="M697.4,516.9c0,3.6-0.8,6.4-2.3,8.4s-3.7,2.9-6.6,2.9c-2.7,0-4.9-1-6.5-2.9s-2.4-4.6-2.5-8.1v-5
		c0-3.6,0.8-6.3,2.4-8.4c1.6-2,3.8-3,6.6-3s5,1,6.5,2.9c1.6,1.9,2.4,4.7,2.4,8.3L697.4,516.9L697.4,516.9z M694.1,512.3
		c0-2.8-0.5-4.9-1.4-6.3s-2.3-2.1-4.2-2.1c-1.8,0-3.2,0.7-4.2,2.1c-0.9,1.4-1.4,3.4-1.4,6.1v4.8c0,2.7,0.5,4.8,1.4,6.2
		s2.4,2.1,4.2,2.1s3.3-0.7,4.2-2s1.4-3.3,1.4-6V512.3z"/>
</g>
<g class="st3">
	<path class="st4" d="M725.1,423.4h-3.3v-26.6h3.3V423.4z"/>
	<path class="st4" d="M732.8,420.5h10.4v2.9h-13.8v-26.6h3.4L732.8,420.5L732.8,420.5z"/>
</g>
<g class="st3">
	<path class="st4" d="M849.4,423.4h-3.3v-26.6h3.3V423.4z"/>
	<path class="st4" d="M871.1,423.4h-3.4l-10.6-20.5v20.5h-3.4v-26.6h3.4l10.7,20.6v-20.6h3.3V423.4z"/>
</g>
<g class="st3">
	<path class="st4" d="M782.7,515.6l-2.6,3.2v9.1h-3.3v-26.6h3.3v12.8l2.2-2.9l7.2-9.9h4l-8.6,11.7l9.3,14.9h-4L782.7,515.6z"/>
	<path class="st4" d="M802.5,514.6l5.4-13.3h3.8l-7.6,16.7v9.9h-3.3V518l-7.6-16.7h3.8L802.5,514.6z"/>
</g>
<g class="st3">
	<path class="st4" d="M899.3,520.5l0.3,3l0.5-2.6l4.3-18.5h2.8l4.1,18.5l0.5,2.7l0.4-3.1l3.2-18.2h3.3l-5.3,26.6h-3l-4.4-19.4
		l-0.3-1.6l-0.3,1.6l-4.6,19.4h-3l-5.3-26.6h3.3L899.3,520.5z"/>
	<path class="st4" d="M928.8,523.8l6.1-21.5h3.7l-8.3,26.6h-2.9l-8.3-26.6h3.7L928.8,523.8z"/>
</g>
<g class="st3">
	<path class="st4" d="M421.3,730.5h-3.4L407.3,710v20.5h-3.4v-26.6h3.4l10.7,20.6v-20.6h3.3V730.5z"/>
	<path class="st4" d="M429.9,703.9l6.9,21.7l6.9-21.7h4.3v26.6h-3.3v-10.4l0.3-10.4l-7,20.7h-2.6l-6.9-20.6l0.3,10.3v10.4h-3.3
		v-26.6H429.9z"/>
</g>
<g class="st3">
	<path class="st4" d="M485.6,814.1h-7v23.7h-3.3v-23.7h-7v-2.9h17.3V814.1z"/>
	<path class="st4" d="M495.5,821.4l5-10.2h3.9l-6.9,13.2l7.1,13.4h-4l-5.1-10.4l-5.1,10.4h-4l7.1-13.4l-7-13.2h3.9L495.5,821.4z"/>
</g>
<g class="st3">
	<path class="st4" d="M548.8,719.5c0,3.6-0.8,6.4-2.3,8.4s-3.7,2.9-6.6,2.9c-2.7,0-4.9-1-6.5-2.9s-2.4-4.6-2.5-8.1v-5
		c0-3.6,0.8-6.3,2.4-8.4c1.6-2,3.8-3,6.6-3s5,1,6.5,2.9c1.6,1.9,2.4,4.7,2.4,8.3L548.8,719.5L548.8,719.5z M545.4,714.9
		c0-2.8-0.5-4.9-1.4-6.3s-2.3-2.1-4.2-2.1c-1.8,0-3.2,0.7-4.2,2.1c-0.9,1.4-1.4,3.4-1.4,6.1v4.8c0,2.7,0.5,4.8,1.4,6.2
		s2.4,2.1,4.2,2.1s3.3-0.7,4.2-2s1.4-3.3,1.4-6V714.9z"/>
	<path class="st4" d="M558.4,718.2l-2.6,3.2v9.1h-3.3v-26.6h3.3v12.8l2.2-2.9l7.2-9.9h4l-8.6,11.7l9.3,14.9h-4L558.4,718.2z"/>
</g>
<g class="st3">
	<path class="st4" d="M658.4,727.9h10.4v2.9H655v-26.6h3.4V727.9z"/>
	<path class="st4" d="M684,723.8h-9l-2.1,7h-3.4l8.6-26.6h2.9l8.6,26.6h-3.4L684,723.8z M675.9,720.9h7.2l-3.6-12.1L675.9,720.9z"/>
</g>
<g class="st3">
	<path class="st4" d="M65.4,937.5H62v-12.3H51.3v12.3H48v-26.6h3.3v11.4H62v-11.4h3.4V937.5z"/>
	<path class="st4" d="M73.2,937.5h-3.3v-26.6h3.3V937.5z"/>
</g>
<g class="st3">
	<path class="st4" d="M777.9,704.2l6.9,21.7l6.9-21.7h4.3v26.6h-3.3v-10.4L793,710l-7,20.7h-2.6l-6.9-20.6l0.3,10.3v10.4h-3.3v-26.6
		H777.9z"/>
	<path class="st4" d="M812,724c0-1.3-0.4-2.3-1.1-3c-0.7-0.7-2-1.4-3.9-2.1c-1.9-0.7-3.3-1.4-4.3-2.1c-1-0.7-1.7-1.6-2.2-2.5
		s-0.7-2-0.7-3.2c0-2.1,0.7-3.8,2.1-5.2s3.2-2,5.5-2c1.6,0,2.9,0.3,4.2,1c1.2,0.7,2.2,1.7,2.8,2.9c0.7,1.2,1,2.6,1,4.1H812
		c0-1.6-0.4-2.9-1.2-3.8s-1.9-1.4-3.4-1.4c-1.4,0-2.4,0.4-3.1,1.1c-0.7,0.8-1.1,1.8-1.1,3.2c0,1.1,0.4,2.1,1.2,2.8
		c0.8,0.8,2,1.4,3.7,2c2.6,0.9,4.5,1.9,5.6,3.2s1.7,2.9,1.7,5c0,2.2-0.7,3.9-2.1,5.2s-3.3,1.9-5.7,1.9c-1.5,0-3-0.3-4.3-1
		s-2.3-1.6-3.1-2.8c-0.7-1.2-1.1-2.6-1.1-4.2h3.4c0,1.6,0.5,2.9,1.4,3.8c0.9,0.9,2.2,1.4,3.8,1.4c1.5,0,2.6-0.4,3.3-1.1
		S812,725.3,812,724z"/>
</g>
<g class="st3">
	<path class="st4" d="M910.8,724.1h-9l-2.1,7h-3.4l8.6-26.6h2.9l8.6,26.6H913L910.8,724.1z M902.7,721.2h7.2l-3.6-12.1L902.7,721.2z
		"/>
	<path class="st4" d="M921.8,728.2h10.4v2.9h-13.8v-26.6h3.4V728.2z"/>
</g>
<g class="st3">
	<path class="st4" d="M1031.9,724.3c0-1.3-0.4-2.3-1.1-3s-2-1.4-3.9-2.1c-1.9-0.7-3.3-1.4-4.3-2.1c-1-0.7-1.7-1.6-2.2-2.5
		s-0.7-2-0.7-3.2c0-2.1,0.7-3.8,2.1-5.2s3.2-2,5.5-2c1.6,0,2.9,0.3,4.2,1c1.2,0.7,2.2,1.7,2.8,2.9c0.7,1.2,1,2.6,1,4.1h-3.4
		c0-1.6-0.4-2.9-1.2-3.8s-1.9-1.4-3.4-1.4c-1.4,0-2.4,0.4-3.1,1.1c-0.7,0.8-1.1,1.8-1.1,3.2c0,1.1,0.4,2.1,1.2,2.8
		c0.8,0.8,2,1.4,3.7,2c2.6,0.9,4.5,1.9,5.6,3.2s1.7,2.9,1.7,5c0,2.2-0.7,3.9-2.1,5.2s-3.3,1.9-5.7,1.9c-1.5,0-3-0.3-4.3-1
		c-1.3-0.7-2.3-1.6-3.1-2.8c-0.7-1.2-1.1-2.6-1.1-4.2h3.4c0,1.6,0.5,2.9,1.4,3.8c0.9,0.9,2.2,1.4,3.8,1.4c1.5,0,2.6-0.4,3.3-1.1
		C1031.5,726.7,1031.9,725.6,1031.9,724.3z"/>
	<path class="st4" d="M1054.8,722.6c-0.1,2.8-0.9,5-2.4,6.5s-3.5,2.3-6.2,2.3s-4.8-1-6.4-3s-2.4-4.8-2.4-8.2v-4.8
		c0-3.5,0.8-6.2,2.4-8.2s3.8-3,6.6-3c2.6,0,4.6,0.8,6,2.3s2.2,3.7,2.3,6.6h-3.4c-0.1-2.2-0.6-3.7-1.4-4.6c-0.8-0.9-1.9-1.4-3.5-1.4
		c-1.8,0-3.2,0.7-4.2,2.1s-1.5,3.5-1.5,6.2v4.9c0,2.7,0.5,4.8,1.4,6.2s2.2,2.2,4,2.2s3-0.4,3.8-1.3c0.8-0.9,1.2-2.4,1.4-4.7
		L1054.8,722.6L1054.8,722.6z"/>
</g>
<g class="st3">
	<path class="st4" d="M976.2,834.5l-0.6,0.7c-1.7,2-4.1,2.9-7.4,2.9c-2.9,0-5.1-1-6.8-2.9c-1.6-1.9-2.5-4.6-2.5-8.1V822
		c0-3.7,0.7-6.5,2.2-8.4s3.7-2.8,6.7-2.8c2.5,0,4.5,0.7,5.9,2.1c1.4,1.4,2.2,3.4,2.4,6h-3.3c-0.1-1.7-0.6-2.9-1.4-3.9
		c-0.8-0.9-2-1.4-3.6-1.4c-1.9,0-3.3,0.6-4.2,1.9c-0.9,1.2-1.4,3.2-1.4,6v5.4c0,2.7,0.5,4.7,1.5,6.2c1,1.4,2.5,2.1,4.4,2.1
		c1.8,0,3.2-0.4,4.1-1.3l0.5-0.5v-6.1h-4.9v-2.9h8.2v10.1H976.2z"/>
	<path class="st4" d="M992.6,830.8h-9l-2.1,7h-3.4l8.6-26.6h2.9l8.6,26.6h-3.4L992.6,830.8z M984.5,828h7.2l-3.6-12.1L984.5,828z"/>
</g>
<g class="st3">
	<path class="st4" d="M1034.6,929.1h-9v11.7h-3.3v-26.6h13.8v2.9h-10.5v9.1h9V929.1z"/>
	<path class="st4" d="M1042.1,938h10.4v2.9h-13.8v-26.6h3.4V938z"/>
</g>
<g class="st3">
	<path class="st4" d="M1100,627.1h-3.4l-10.6-20.5v20.5h-3.4v-26.6h3.4l10.7,20.6v-20.6h3.3V627.1z"/>
	<path class="st4" d="M1121,618.7c-0.1,2.8-0.9,5-2.4,6.5s-3.5,2.3-6.2,2.3s-4.8-1-6.4-3s-2.4-4.8-2.4-8.2v-4.8
		c0-3.5,0.8-6.2,2.4-8.2s3.8-3,6.6-3c2.6,0,4.6,0.8,6,2.3s2.2,3.7,2.3,6.6h-3.4c-0.1-2.2-0.6-3.7-1.4-4.6s-1.9-1.4-3.5-1.4
		c-1.8,0-3.2,0.7-4.2,2.1c-1,1.4-1.5,3.5-1.5,6.2v4.9c0,2.7,0.5,4.8,1.4,6.2s2.2,2.2,4,2.2c1.7,0,3-0.4,3.8-1.3
		c0.8-0.9,1.2-2.4,1.4-4.7L1121,618.7L1121,618.7z"/>
</g>
<g class="st3">
	<path class="st4" d="M965.1,621.6l6.1-21.5h3.7l-8.3,26.6h-2.9l-8.3-26.6h3.7L965.1,621.6z"/>
	<path class="st4" d="M988,619.8h-9l-2.1,7h-3.4l8.6-26.6h2.9l8.6,26.6h-3.4L988,619.8z M979.9,616.9h7.2l-3.6-12.1L979.9,616.9z"/>
</g>
<g class="st3">
	<path class="st4" d="M1023.2,501.3l6.9,21.7l6.9-21.7h4.3v26.6h-3.3v-10.4l0.3-10.4l-7,20.7h-2.6l-6.9-20.6l0.3,10.3v10.4h-3.3
		v-26.6L1023.2,501.3L1023.2,501.3z"/>
	<path class="st4" d="M1045.7,527.9v-26.6h6.3c3.1,0,5.5,1,7.2,2.9s2.6,4.7,2.6,8.2v4.5c0,3.5-0.9,6.2-2.6,8.2
		c-1.7,1.9-4.3,2.9-7.6,2.9h-5.9V527.9z M1049,504.2V525h2.7c2.3,0,4.1-0.7,5.1-2c1.1-1.3,1.6-3.3,1.7-6v-4.7c0-2.8-0.5-4.9-1.6-6.2
		s-2.7-2-4.9-2h-3V504.2z"/>
</g>
<g class="st3">
	<path class="st4" d="M1145.2,524.6V498h6.3c3.1,0,5.5,1,7.2,2.9s2.6,4.7,2.6,8.2v4.5c0,3.5-0.9,6.2-2.6,8.2
		c-1.7,1.9-4.3,2.9-7.6,2.9h-5.9V524.6z M1148.5,500.9v20.8h2.7c2.3,0,4.1-0.7,5.1-2c1.1-1.3,1.6-3.3,1.7-6V509
		c0-2.8-0.5-4.9-1.6-6.2c-1.1-1.3-2.7-2-4.9-2h-3V500.9z"/>
	<path class="st4" d="M1177.8,512.3h-9.4v9.4h11v2.9H1165V498h14.1v2.9h-10.8v8.6h9.4v2.8H1177.8z"/>
</g>
<g class="st3">
	<path class="st4" d="M972.8,412.3c0,3.6-0.8,6.4-2.3,8.4s-3.7,2.9-6.6,2.9c-2.7,0-4.9-1-6.5-2.9s-2.4-4.6-2.5-8.1v-5
		c0-3.6,0.8-6.3,2.4-8.4c1.6-2,3.8-3,6.6-3c2.8,0,5,1,6.5,2.9c1.6,1.9,2.4,4.7,2.4,8.3V412.3z M969.4,407.6c0-2.8-0.5-4.9-1.4-6.3
		s-2.3-2.1-4.2-2.1c-1.8,0-3.2,0.7-4.2,2.1c-0.9,1.4-1.4,3.4-1.4,6.1v4.8c0,2.7,0.5,4.8,1.4,6.2c0.9,1.4,2.4,2.1,4.2,2.1
		c1.9,0,3.3-0.7,4.2-2c0.9-1.3,1.4-3.3,1.4-6V407.6z"/>
	<path class="st4" d="M993.8,423.2h-3.4V411h-10.7v12.3h-3.3v-26.6h3.3v11.4h10.7v-11.4h3.4V423.2z"/>
</g>
<g class="st3">
	<path class="st4" d="M1087.3,411.9v10.4h-3.3v-26.6h8.5c2.5,0,4.4,0.7,5.8,2.2s2.1,3.4,2.1,5.9c0,2.6-0.7,4.5-2,5.9
		s-3.2,2.1-5.7,2.1h-5.4V411.9z M1087.3,409h5.1c1.5,0,2.6-0.4,3.4-1.3s1.2-2.2,1.2-3.8c0-1.6-0.4-2.9-1.2-3.8s-1.9-1.4-3.4-1.4
		h-5.1V409z"/>
	<path class="st4" d="M1113.1,415.4h-9l-2.1,7h-3.4l8.6-26.6h2.9l8.6,26.6h-3.4L1113.1,415.4z M1105,412.5h7.2l-3.6-12.1L1105,412.5
		z"/>
</g>
<g class="st3">
	<path class="st4" d="M1219.1,422h-3.4l-10.6-20.5V422h-3.4v-26.6h3.4l10.7,20.6v-20.6h3.3V422z"/>
	<path class="st4" d="M1232.6,395.4h3.4v18.8c0,2.5-0.6,4.5-1.9,6c-1.3,1.4-3,2.2-5.2,2.2c-2.3,0-4-0.7-5.3-2
		c-1.3-1.4-1.9-3.2-1.9-5.7h3.3c0,1.5,0.3,2.7,1,3.6s1.6,1.3,2.8,1.3c1.2,0,2.1-0.5,2.8-1.4c0.7-0.9,1-2.2,1-3.9L1232.6,395.4
		L1232.6,395.4z"/>
</g>
<g class="st3">
	<path class="st4" d="M1341.3,415.1c-0.1,2.8-0.9,5-2.4,6.5s-3.5,2.3-6.2,2.3s-4.8-1-6.4-3s-2.4-4.8-2.4-8.2v-4.8
		c0-3.5,0.8-6.2,2.4-8.2s3.8-3,6.6-3c2.6,0,4.6,0.8,6,2.3s2.2,3.7,2.3,6.6h-3.4c-0.1-2.2-0.6-3.7-1.4-4.6s-1.9-1.4-3.5-1.4
		c-1.8,0-3.2,0.7-4.2,2.1s-1.5,3.5-1.5,6.2v4.9c0,2.7,0.5,4.8,1.4,6.2s2.2,2.2,4,2.2s3-0.4,3.8-1.3s1.2-2.4,1.4-4.7h3.5V415.1z"/>
	<path class="st4" d="M1359.4,399.8h-7v23.7h-3.3v-23.7h-7V397h17.3V399.8z"/>
</g>
<g class="st3">
	<path class="st4" d="M1398.3,307.3h-4.7v10.8h-3.4v-26.6h7.4c2.6,0,4.6,0.7,5.9,2c1.3,1.4,2,3.3,2,6c0,1.6-0.4,3.1-1.1,4.3
		c-0.7,1.2-1.8,2.1-3.1,2.8l5.1,11.3v0.2h-3.6L1398.3,307.3z M1393.7,304.5h4.1c1.4,0,2.5-0.5,3.3-1.4s1.3-2.1,1.3-3.6
		c0-3.4-1.5-5.1-4.6-5.1h-4v10.1H1393.7z"/>
	<path class="st4" d="M1412.1,318.1h-3.3v-26.6h3.3V318.1z"/>
</g>
<g class="st3">
	<path class="st4" d="M1449.2,627.4v-26.6h6.3c3.1,0,5.5,1,7.2,2.9s2.6,4.7,2.6,8.2v4.5c0,3.5-0.9,6.2-2.6,8.2
		c-1.7,1.9-4.3,2.9-7.6,2.9h-5.9V627.4z M1452.5,603.7v20.8h2.7c2.3,0,4.1-0.7,5.1-2c1.1-1.3,1.6-3.3,1.7-6v-4.7
		c0-2.8-0.5-4.9-1.6-6.2s-2.7-2-4.9-2h-3V603.7z"/>
	<path class="st4" d="M1485.7,619c-0.1,2.8-0.9,5-2.4,6.5s-3.5,2.3-6.2,2.3s-4.8-1-6.4-3s-2.4-4.8-2.4-8.2v-4.8
		c0-3.5,0.8-6.2,2.4-8.2s3.8-3,6.6-3c2.6,0,4.6,0.8,6,2.3s2.2,3.7,2.3,6.6h-3.4c-0.1-2.2-0.6-3.7-1.4-4.6c-0.8-0.9-1.9-1.4-3.5-1.4
		c-1.8,0-3.2,0.7-4.2,2.1s-1.5,3.5-1.5,6.2v4.9c0,2.7,0.5,4.8,1.4,6.2s2.2,2.2,4,2.2s3-0.4,3.8-1.3c0.8-0.9,1.2-2.4,1.4-4.7
		L1485.7,619L1485.7,619z"/>
</g>
<g>
	<g class="st3">
		<path class="st6" d="M1241.9,925.1v7.9h-4.5v-22.4h7.6c2.2,0,4,0.7,5.3,2.1s2,3.2,2,5.3c0,2.2-0.7,3.9-2,5.2s-3.1,1.9-5.4,1.9
			H1241.9z M1241.9,921.3h3.1c0.9,0,1.5-0.3,2-0.8c0.5-0.6,0.7-1.4,0.7-2.5s-0.2-2-0.7-2.7s-1.1-1-1.9-1h-3.2V921.3z"/>
	</g>
	<g class="st3">
		<path class="st6" d="M1263.2,920.5l-1.4-0.1c-1.2,0-2,0.5-2.4,1.6v11h-4.4v-16.6h4.1l0.1,1.8c0.7-1.4,1.6-2.1,2.8-2.1
			c0.5,0,0.9,0.1,1.2,0.2L1263.2,920.5z"/>
	</g>
	<g class="st3">
		<path class="st6" d="M1264.4,924.1c0-2.5,0.6-4.5,1.8-5.9c1.2-1.4,2.8-2.2,4.9-2.2s3.8,0.7,5,2.2c1.2,1.4,1.8,3.4,1.8,6v1.1
			c0,2.5-0.6,4.5-1.8,5.9c-1.2,1.4-2.8,2.1-4.9,2.1s-3.8-0.7-5-2.1s-1.8-3.4-1.8-6V924.1z M1268.8,925.2c0,3,0.8,4.5,2.4,4.5
			c1.5,0,2.3-1.2,2.4-3.7v-1.8c0-1.5-0.2-2.6-0.6-3.4s-1-1.1-1.8-1.1c-0.7,0-1.3,0.4-1.7,1.1c-0.4,0.7-0.6,1.9-0.6,3.4v1H1268.8z"/>
		<path class="st6" d="M1288.4,925.2h-7.5v-3.6h7.5V925.2z"/>
		<path class="st6" d="M1296.6,933h-4.4v-23.6h4.4V933z"/>
		<path class="st6" d="M1299.9,912c0-0.7,0.2-1.2,0.6-1.7c0.4-0.4,1-0.6,1.7-0.6s1.3,0.2,1.7,0.6c0.4,0.4,0.6,1,0.6,1.7
			s-0.2,1.2-0.6,1.7c-0.4,0.4-1,0.7-1.7,0.7s-1.3-0.2-1.7-0.7C1300.2,913.2,1299.9,912.7,1299.9,912z M1304.5,933h-4.4v-16.6h4.4
			V933z"/>
		<path class="st6" d="M1308.9,933v-13.4h-2v-3.3h2v-1.5c0-1.8,0.5-3.3,1.5-4.3s2.3-1.5,4-1.5c0.5,0,1.2,0.1,2,0.3v3.5
			c-0.3-0.1-0.7-0.1-1.1-0.1c-1.3,0-1.9,0.8-1.9,2.3v1.4h2.6v3.3h-2.6V933H1308.9z"/>
		<path class="st6" d="M1324.9,933.3c-2.2,0-4-0.7-5.2-2c-1.3-1.3-1.9-3.2-1.9-5.7v-1.3c0-2.6,0.6-4.6,1.7-6.1
			c1.1-1.4,2.8-2.1,4.9-2.1s3.7,0.7,4.7,2c1.1,1.3,1.6,3.3,1.6,5.9v2.1h-8.7c0.1,1.2,0.3,2.1,0.8,2.7c0.5,0.6,1.2,0.9,2.2,0.9
			c1.5,0,2.7-0.5,3.6-1.5l1.7,2.6c-0.5,0.7-1.3,1.3-2.3,1.8C1327.2,933,1326.1,933.3,1324.9,933.3z M1322.2,923.1h4.4v-0.4
			c0-1-0.2-1.7-0.5-2.3c-0.3-0.5-0.8-0.8-1.6-0.8c-0.8,0-1.3,0.3-1.7,0.8C1322.4,921,1322.2,921.9,1322.2,923.1z"/>
		<path class="st6" d="M1347.9,928.5c0-0.4-0.2-0.7-0.5-1s-1.1-0.7-2.4-1.3c-1.8-0.7-3-1.5-3.7-2.3s-1-1.7-1-2.9
			c0-1.5,0.5-2.7,1.6-3.6c1-0.9,2.4-1.4,4.2-1.4c1.8,0,3.3,0.5,4.4,1.4s1.6,2.2,1.6,3.8h-4.4c0-1.4-0.6-2-1.7-2
			c-0.5,0-0.8,0.1-1.1,0.4c-0.3,0.3-0.4,0.7-0.4,1.2c0,0.4,0.2,0.7,0.5,1s1.1,0.7,2.3,1.2c1.8,0.7,3,1.4,3.8,2.2
			c0.7,0.8,1.1,1.8,1.1,3.1c0,1.5-0.6,2.7-1.7,3.6c-1.1,0.9-2.6,1.4-4.4,1.4c-1.2,0-2.3-0.2-3.2-0.7c-0.9-0.5-1.7-1.1-2.2-2
			s-0.8-1.8-0.8-2.8h4.1c0,0.8,0.2,1.3,0.5,1.7s0.9,0.6,1.6,0.6C1347.3,930.1,1347.9,929.6,1347.9,928.5z"/>
		<path class="st6" d="M1359.9,912.2v4.1h2.2v3.3h-2.2v8.3c0,0.7,0.1,1.1,0.3,1.4c0.2,0.2,0.5,0.4,1,0.4c0.4,0,0.8,0,1-0.1v3.4
			c-0.7,0.3-1.5,0.4-2.4,0.4c-2.8,0-4.2-1.6-4.3-4.8v-8.8h-1.9v-3.3h1.9v-4.1h4.4V912.2z"/>
		<path class="st6" d="M1372.4,933c-0.1-0.3-0.2-0.7-0.4-1.3c-0.8,1.1-1.8,1.6-3.2,1.6c-1.4,0-2.5-0.5-3.5-1.4
			c-0.9-0.9-1.4-2.1-1.4-3.6c0-1.7,0.6-3.1,1.7-4s2.7-1.4,4.8-1.5h1.3v-1.3c0-0.7-0.1-1.3-0.4-1.6s-0.6-0.5-1.1-0.5
			c-1.1,0-1.6,0.6-1.6,1.9h-4.3c0-1.5,0.6-2.8,1.7-3.8s2.6-1.5,4.4-1.5s3.2,0.5,4.2,1.4s1.5,2.3,1.5,4.1v7.8c0,1.4,0.2,2.6,0.6,3.4
			v0.3L1372.4,933L1372.4,933z M1369.8,929.9c0.5,0,0.9-0.1,1.2-0.3c0.3-0.2,0.6-0.4,0.8-0.7v-3.5h-1c-0.7,0-1.3,0.2-1.7,0.7
			c-0.4,0.5-0.6,1.1-0.6,1.9C1368.4,929.2,1368.8,929.9,1369.8,929.9z"/>
		<path class="st6" d="M1384.3,912.2v4.1h2.2v3.3h-2.2v8.3c0,0.7,0.1,1.1,0.3,1.4s0.5,0.4,1,0.4c0.4,0,0.8,0,1-0.1v3.4
			c-0.7,0.3-1.5,0.4-2.4,0.4c-2.8,0-4.2-1.6-4.3-4.8v-8.8h-1.9v-3.3h1.9v-4.1h4.4V912.2z"/>
		<path class="st6" d="M1395.7,933.3c-2.2,0-4-0.7-5.2-2c-1.3-1.3-1.9-3.2-1.9-5.7v-1.3c0-2.6,0.6-4.6,1.7-6.1
			c1.1-1.4,2.8-2.1,4.9-2.1s3.7,0.7,4.7,2c1.1,1.3,1.6,3.3,1.6,5.9v2.1h-8.7c0.1,1.2,0.3,2.1,0.8,2.7c0.5,0.6,1.2,0.9,2.2,0.9
			c1.5,0,2.7-0.5,3.6-1.5l1.7,2.6c-0.5,0.7-1.3,1.3-2.3,1.8C1398,933,1396.9,933.3,1395.7,933.3z M1392.9,923.1h4.3v-0.4
			c0-1-0.2-1.7-0.5-2.3c-0.3-0.5-0.8-0.8-1.6-0.8s-1.3,0.3-1.7,0.8S1393,921.9,1392.9,923.1z"/>
		<path class="st6" d="M1411.4,928.5c0-0.4-0.2-0.7-0.5-1s-1.1-0.7-2.4-1.3c-1.8-0.7-3-1.5-3.7-2.3s-1-1.7-1-2.9
			c0-1.5,0.5-2.7,1.6-3.6c1-0.9,2.4-1.4,4.2-1.4c1.8,0,3.3,0.5,4.4,1.4s1.6,2.2,1.6,3.8h-4.4c0-1.4-0.6-2-1.7-2
			c-0.5,0-0.8,0.1-1.1,0.4c-0.3,0.3-0.4,0.7-0.4,1.2c0,0.4,0.2,0.7,0.5,1s1.1,0.7,2.3,1.2c1.8,0.7,3,1.4,3.8,2.2
			c0.7,0.8,1.1,1.8,1.1,3.1c0,1.5-0.6,2.7-1.7,3.6c-1.1,0.9-2.6,1.4-4.4,1.4c-1.2,0-2.3-0.2-3.2-0.7c-0.9-0.5-1.7-1.1-2.2-2
			s-0.8-1.8-0.8-2.8h4.1c0,0.8,0.2,1.3,0.5,1.7s0.9,0.6,1.6,0.6C1410.8,930.1,1411.4,929.6,1411.4,928.5z"/>
	</g>
	<g class="st3">
		<path class="st7" d="M1248.4,964.9h-7.6l-1.7,5.9h-2.9l7.2-22.4h2.4l7.2,22.4h-2.9L1248.4,964.9z M1241.6,962.5h6.1l-3.1-10.2
			L1241.6,962.5z"/>
		<path class="st7" d="M1267.8,963.2c0,2.6-0.5,4.5-1.4,5.9c-0.9,1.3-2.3,2-4.1,2c-1.8,0-3.1-0.8-4-2.3l-0.1,2h-2.5v-23.6h2.7v8.8
			c0.9-1.4,2.2-2.1,3.8-2.1c1.8,0,3.2,0.6,4.1,1.9s1.4,3.2,1.4,5.8L1267.8,963.2L1267.8,963.2z M1265.1,961.7c0-2-0.3-3.4-0.8-4.2
			s-1.4-1.3-2.7-1.3c-1.4,0-2.4,0.8-3.1,2.3v7.9c0.7,1.5,1.7,2.2,3.2,2.2c1.2,0,2.1-0.4,2.6-1.3c0.5-0.9,0.8-2.2,0.8-4V961.7z"/>
		<path class="st7" d="M1270.7,961.6c0-2.4,0.6-4.3,1.8-5.7s2.7-2.1,4.6-2.1s3.5,0.7,4.7,2.1c1.2,1.4,1.8,3.2,1.8,5.6v1.8
			c0,2.4-0.6,4.3-1.8,5.7c-1.2,1.4-2.7,2.1-4.7,2.1c-1.9,0-3.5-0.7-4.6-2c-1.2-1.4-1.8-3.2-1.8-5.5V961.6z M1273.4,963.2
			c0,1.7,0.3,3.1,1,4c0.7,1,1.6,1.5,2.7,1.5c2.4,0,3.6-1.7,3.7-5.2v-1.9c0-1.7-0.3-3-1-4s-1.6-1.5-2.7-1.5s-2,0.5-2.7,1.5
			s-1,2.3-1,4V963.2z"/>
	</g>
	<g class="st3">
		<path class="st7" d="M1293.9,956.7c-0.4-0.1-0.8-0.1-1.2-0.1c-1.4,0-2.4,0.8-2.9,2.3v11.9h-2.7v-16.6h2.6v1.7c0.7-1.3,1.8-2,3.1-2
			c0.4,0,0.8,0.1,1.1,0.2V956.7z"/>
	</g>
	<g class="st3">
		<path class="st7" d="M1300.9,950.1v4h2.5v2.2h-2.5v10.3c0,0.7,0.1,1.2,0.3,1.5c0.2,0.3,0.6,0.5,1.1,0.5c0.4,0,0.7-0.1,1.1-0.2v2.3
			c-0.6,0.2-1.2,0.3-1.9,0.3c-1.1,0-1.9-0.4-2.5-1.2s-0.8-1.9-0.8-3.3v-10.3h-2.5V954h2.5v-4h2.7V950.1z"/>
		<path class="st7" d="M1309.8,949.7c0,0.5-0.1,0.8-0.4,1.2c-0.3,0.3-0.6,0.5-1.2,0.5c-0.5,0-0.9-0.2-1.2-0.5
			c-0.3-0.3-0.4-0.7-0.4-1.2s0.1-0.9,0.4-1.2s0.6-0.5,1.2-0.5c0.5,0,0.9,0.2,1.2,0.5S1309.8,949.2,1309.8,949.7z M1309.6,970.7h-2.7
			v-16.6h2.7V970.7z"/>
		<path class="st7" d="M1313.3,961.6c0-2.4,0.6-4.3,1.8-5.7c1.2-1.4,2.7-2.1,4.7-2.1c1.9,0,3.5,0.7,4.6,2.1c1.2,1.4,1.8,3.2,1.8,5.6
			v1.8c0,2.4-0.6,4.3-1.8,5.7c-1.2,1.4-2.7,2.1-4.7,2.1c-1.9,0-3.5-0.7-4.6-2c-1.2-1.4-1.8-3.2-1.8-5.5V961.6z M1316,963.2
			c0,1.7,0.3,3.1,1,4s1.6,1.5,2.7,1.5c2.4,0,3.6-1.7,3.7-5.2v-1.9c0-1.7-0.3-3-1-4s-1.6-1.5-2.7-1.5s-2,0.5-2.7,1.5s-1,2.3-1,4
			V963.2z"/>
		<path class="st7" d="M1332.2,954.1l0.1,1.8c1.1-1.4,2.4-2.1,4-2.1c2.9,0,4.4,2,4.5,5.9v11.1h-2.7v-10.9c0-1.3-0.2-2.2-0.7-2.8
			s-1.1-0.8-2-0.8c-0.7,0-1.3,0.2-1.8,0.7s-1,1-1.3,1.8v12.1h-2.7v-16.6h2.6V954.1z"/>
		<path class="st7" d="M1360.7,970.7c-0.2-0.4-0.3-1-0.4-1.8c-1,1.4-2.2,2.1-3.7,2.1s-2.7-0.4-3.5-1.3c-0.8-0.8-1.3-2-1.3-3.6
			c0-1.7,0.6-3,1.7-4s2.7-1.5,4.7-1.5h2v-1.8c0-1-0.2-1.7-0.7-2.1c-0.4-0.4-1.1-0.6-2-0.6c-0.8,0-1.5,0.2-2,0.7s-0.8,1.1-0.8,1.9
			h-2.7c0-0.9,0.3-1.7,0.8-2.4c0.5-0.8,1.2-1.4,2-1.8c0.9-0.4,1.8-0.7,2.8-0.7c1.7,0,3,0.4,3.9,1.3s1.3,2.1,1.4,3.7v8.4
			c0,1.3,0.2,2.4,0.5,3.3v0.2L1360.7,970.7L1360.7,970.7z M1357.1,968.6c0.7,0,1.3-0.2,1.9-0.6s1-0.8,1.3-1.4v-4h-1.5
			c-1.3,0-2.3,0.3-3.1,0.9c-0.7,0.6-1.1,1.3-1.1,2.3c0,0.9,0.2,1.6,0.6,2.1C1355.5,968.4,1356.2,968.6,1357.1,968.6z"/>
		<path class="st7" d="M1373,968.7c0.9,0,1.6-0.3,2.2-0.8c0.5-0.6,0.8-1.4,0.9-2.4h2.6c-0.1,1.6-0.6,2.9-1.7,4s-2.4,1.6-3.9,1.6
			c-2.1,0-3.6-0.6-4.7-1.9c-1.1-1.3-1.6-3.2-1.6-5.8v-1.8c0-2.5,0.5-4.4,1.6-5.7s2.6-2,4.7-2c1.7,0,3.1,0.5,4.1,1.6s1.5,2.5,1.6,4.4
			h-2.6c-0.1-1.2-0.4-2.2-0.9-2.8s-1.3-0.9-2.2-0.9c-1.2,0-2.1,0.4-2.7,1.2s-0.9,2.1-0.9,3.9v2.1c0,2,0.3,3.3,0.9,4.2
			C1370.8,968.3,1371.7,968.7,1373,968.7z"/>
		<path class="st7" d="M1387.5,968.7c0.9,0,1.6-0.3,2.2-0.8c0.5-0.6,0.8-1.4,0.9-2.4h2.6c-0.1,1.6-0.6,2.9-1.7,4s-2.4,1.6-3.9,1.6
			c-2.1,0-3.6-0.6-4.7-1.9c-1.1-1.3-1.6-3.2-1.6-5.8v-1.8c0-2.5,0.5-4.4,1.6-5.7s2.6-2,4.7-2c1.7,0,3.1,0.5,4.1,1.6s1.5,2.5,1.6,4.4
			h-2.6c-0.1-1.2-0.4-2.2-0.9-2.8s-1.3-0.9-2.2-0.9c-1.2,0-2.1,0.4-2.7,1.2s-0.9,2.1-0.9,3.9v2.1c0,2,0.3,3.3,0.9,4.2
			C1385.4,968.3,1386.3,968.7,1387.5,968.7z"/>
		<path class="st7" d="M1402.2,971c-2.1,0-3.7-0.6-4.8-1.9c-1.1-1.2-1.7-3-1.7-5.4v-2c0-2.5,0.5-4.4,1.6-5.8s2.6-2.1,4.5-2.1
			s3.4,0.6,4.4,1.9c1,1.2,1.5,3.2,1.5,5.8v1.8h-9.3v0.4c0,1.8,0.3,3.1,1,3.9c0.7,0.8,1.6,1.2,2.9,1.2c0.8,0,1.5-0.2,2.1-0.5
			s1.2-0.8,1.7-1.4l1.4,1.7C1406.4,970.2,1404.6,971,1402.2,971z M1401.9,956.1c-1.1,0-2,0.4-2.5,1.2s-0.9,2-0.9,3.6h6.5v-0.4
			c-0.1-1.6-0.4-2.7-0.9-3.4C1403.7,956.5,1402.9,956.1,1401.9,956.1z"/>
		<path class="st7" d="M1419.1,966.5c0-0.6-0.2-1.1-0.7-1.5c-0.4-0.4-1.3-0.9-2.6-1.5c-1.5-0.6-2.5-1.1-3.1-1.6
			c-0.6-0.4-1-0.9-1.3-1.5c-0.3-0.5-0.4-1.2-0.4-2c0-1.4,0.5-2.5,1.5-3.4s2.3-1.3,3.8-1.3c1.6,0,2.9,0.5,3.9,1.4s1.5,2.2,1.5,3.6
			h-2.7c0-0.7-0.3-1.4-0.8-1.9s-1.1-0.8-1.9-0.8s-1.4,0.2-1.9,0.6c-0.5,0.4-0.7,1-0.7,1.7c0,0.6,0.2,1,0.5,1.3s1.1,0.8,2.4,1.3
			c2,0.8,3.4,1.6,4.1,2.3s1.1,1.7,1.1,2.9c0,1.4-0.5,2.6-1.5,3.5s-2.3,1.3-4,1.3s-3.1-0.5-4.2-1.5s-1.6-2.3-1.6-3.8h2.7
			c0,0.9,0.3,1.6,0.8,2.2c0.5,0.5,1.3,0.8,2.2,0.8c0.9,0,1.6-0.2,2.1-0.6C1418.9,967.7,1419.1,967.2,1419.1,966.5z"/>
		<path class="st7" d="M1433.4,966.5c0-0.6-0.2-1.1-0.7-1.5c-0.4-0.4-1.3-0.9-2.6-1.5c-1.5-0.6-2.5-1.1-3.1-1.6
			c-0.6-0.4-1-0.9-1.3-1.5c-0.3-0.5-0.4-1.2-0.4-2c0-1.4,0.5-2.5,1.5-3.4s2.3-1.3,3.8-1.3c1.6,0,2.9,0.5,3.9,1.4s1.5,2.2,1.5,3.6
			h-2.7c0-0.7-0.3-1.4-0.8-1.9s-1.1-0.8-1.9-0.8s-1.4,0.2-1.9,0.6c-0.5,0.4-0.7,1-0.7,1.7c0,0.6,0.2,1,0.5,1.3s1.1,0.8,2.4,1.3
			c2,0.8,3.4,1.6,4.1,2.3c0.7,0.8,1.1,1.7,1.1,2.9c0,1.4-0.5,2.6-1.5,3.5s-2.3,1.3-4,1.3s-3.1-0.5-4.2-1.5s-1.6-2.3-1.6-3.8h2.7
			c0,0.9,0.3,1.6,0.8,2.2c0.5,0.5,1.3,0.8,2.2,0.8c0.9,0,1.6-0.2,2.1-0.6C1433.2,967.7,1433.4,967.2,1433.4,966.5z"/>
		<path class="st7" d="M1450.1,949.7c0,0.5-0.1,0.8-0.4,1.2c-0.3,0.3-0.6,0.5-1.2,0.5c-0.5,0-0.9-0.2-1.2-0.5
			c-0.3-0.3-0.4-0.7-0.4-1.2s0.1-0.9,0.4-1.2s0.6-0.5,1.2-0.5c0.5,0,0.9,0.2,1.2,0.5C1449.9,948.8,1450.1,949.2,1450.1,949.7z
			 M1449.9,970.7h-2.7v-16.6h2.7V970.7z"/>
		<path class="st7" d="M1462.2,966.5c0-0.6-0.2-1.1-0.7-1.5c-0.4-0.4-1.3-0.9-2.6-1.5c-1.5-0.6-2.5-1.1-3.1-1.6
			c-0.6-0.4-1-0.9-1.3-1.5c-0.3-0.5-0.4-1.2-0.4-2c0-1.4,0.5-2.5,1.5-3.4s2.3-1.3,3.8-1.3c1.6,0,2.9,0.5,3.9,1.4s1.5,2.2,1.5,3.6
			h-2.7c0-0.7-0.3-1.4-0.8-1.9s-1.1-0.8-1.9-0.8s-1.4,0.2-1.9,0.6c-0.5,0.4-0.7,1-0.7,1.7c0,0.6,0.2,1,0.5,1.3s1.1,0.8,2.4,1.3
			c2,0.8,3.4,1.6,4.1,2.3s1.1,1.7,1.1,2.9c0,1.4-0.5,2.6-1.5,3.5s-2.3,1.3-4,1.3s-3.1-0.5-4.2-1.5s-1.6-2.3-1.6-3.8h2.7
			c0,0.9,0.3,1.6,0.8,2.2c0.5,0.5,1.3,0.8,2.2,0.8c0.9,0,1.6-0.2,2.1-0.6C1462,967.7,1462.2,967.2,1462.2,966.5z"/>
		<path class="st7" d="M1478.2,954.1l0.1,1.8c1.1-1.4,2.4-2.1,4-2.1c2.9,0,4.4,2,4.5,5.9v11.1h-2.7v-10.9c0-1.3-0.2-2.2-0.7-2.8
			s-1.1-0.8-2-0.8c-0.7,0-1.3,0.2-1.8,0.7s-1,1-1.3,1.8v12.1h-2.7v-16.6h2.6V954.1z"/>
		<path class="st7" d="M1490.3,961.6c0-2.4,0.6-4.3,1.8-5.7c1.2-1.4,2.7-2.1,4.6-2.1s3.5,0.7,4.6,2.1c1.2,1.4,1.8,3.2,1.8,5.6v1.8
			c0,2.4-0.6,4.3-1.8,5.7c-1.2,1.4-2.7,2.1-4.7,2.1c-1.9,0-3.5-0.7-4.6-2c-1.2-1.4-1.8-3.2-1.8-5.5L1490.3,961.6L1490.3,961.6z
			 M1493.1,963.2c0,1.7,0.3,3.1,1,4c0.7,1,1.6,1.5,2.7,1.5c2.4,0,3.6-1.7,3.7-5.2v-1.9c0-1.7-0.3-3-1-4s-1.6-1.5-2.7-1.5
			s-2,0.5-2.7,1.5s-1,2.3-1,4V963.2z"/>
		<path class="st7" d="M1510.3,950.1v4h2.5v2.2h-2.5v10.3c0,0.7,0.1,1.2,0.3,1.5c0.2,0.3,0.6,0.5,1.1,0.5c0.4,0,0.7-0.1,1.1-0.2v2.3
			c-0.6,0.2-1.2,0.3-1.9,0.3c-1.1,0-1.9-0.4-2.5-1.2s-0.8-1.9-0.8-3.3v-10.3h-2.5V954h2.5v-4h2.7V950.1z"/>
		<path class="st7" d="M1535.2,963.2c0,2.6-0.5,4.6-1.4,5.9c-0.9,1.3-2.3,1.9-4,1.9s-3-0.6-3.9-1.9v8h-2.7v-23h2.5l0.1,1.8
			c0.9-1.4,2.2-2.2,3.9-2.2c1.8,0,3.2,0.6,4.1,1.9c0.9,1.3,1.4,3.2,1.4,5.7V963.2z M1532.5,961.7c0-1.9-0.3-3.2-0.9-4.1
			c-0.6-0.9-1.5-1.3-2.8-1.3s-2.3,0.7-3,2v8.7c0.7,1.3,1.7,1.9,3,1.9c1.2,0,2.1-0.4,2.7-1.3c0.6-0.9,0.9-2.2,0.9-4.1v-1.8H1532.5z"
			/>
	</g>
	<g class="st3">
		<path class="st7" d="M1545.6,956.7c-0.4-0.1-0.8-0.1-1.2-0.1c-1.4,0-2.4,0.8-2.9,2.3v11.9h-2.7v-16.6h2.6v1.7c0.7-1.3,1.8-2,3.1-2
			c0.4,0,0.8,0.1,1.1,0.2V956.7z"/>
	</g>
	<g class="st3">
		<path class="st7" d="M1547.4,961.6c0-2.4,0.6-4.3,1.8-5.7c1.2-1.4,2.7-2.1,4.7-2.1c1.9,0,3.5,0.7,4.6,2.1c1.2,1.4,1.8,3.2,1.8,5.6
			v1.8c0,2.4-0.6,4.3-1.8,5.7c-1.2,1.4-2.7,2.1-4.7,2.1c-1.9,0-3.5-0.7-4.6-2c-1.2-1.4-1.8-3.2-1.8-5.5V961.6z M1550.1,963.2
			c0,1.7,0.3,3.1,1,4s1.6,1.5,2.7,1.5c2.4,0,3.6-1.7,3.7-5.2v-1.9c0-1.7-0.3-3-1-4s-1.6-1.5-2.7-1.5s-2,0.5-2.7,1.5s-1,2.3-1,4
			V963.2z"/>
		<path class="st7" d="M1567.3,950.1v4h2.5v2.2h-2.5v10.3c0,0.7,0.1,1.2,0.3,1.5c0.2,0.3,0.6,0.5,1.1,0.5c0.4,0,0.7-0.1,1.1-0.2v2.3
			c-0.6,0.2-1.2,0.3-1.9,0.3c-1.1,0-1.9-0.4-2.5-1.2s-0.8-1.9-0.8-3.3v-10.3h-2.5V954h2.5v-4h2.7V950.1z"/>
		<path class="st7" d="M1579,971c-2.1,0-3.7-0.6-4.8-1.9c-1.1-1.2-1.7-3-1.7-5.4v-2c0-2.5,0.5-4.4,1.6-5.8s2.6-2.1,4.5-2.1
			s3.4,0.6,4.4,1.9c1,1.2,1.5,3.2,1.5,5.8v1.8h-9.3v0.4c0,1.8,0.3,3.1,1,3.9c0.7,0.8,1.6,1.2,2.9,1.2c0.8,0,1.5-0.2,2.1-0.5
			s1.2-0.8,1.7-1.4l1.4,1.7C1583.2,970.2,1581.4,971,1579,971z M1578.7,956.1c-1.1,0-2,0.4-2.5,1.2s-0.9,2-0.9,3.6h6.5v-0.4
			c-0.1-1.6-0.4-2.7-0.9-3.4C1580.5,956.5,1579.7,956.1,1578.7,956.1z"/>
		<path class="st7" d="M1593.6,968.7c0.9,0,1.6-0.3,2.2-0.8s0.8-1.4,0.9-2.4h2.6c-0.1,1.6-0.6,2.9-1.7,4s-2.4,1.6-3.9,1.6
			c-2.1,0-3.6-0.6-4.7-1.9c-1.1-1.3-1.6-3.2-1.6-5.8v-1.8c0-2.5,0.5-4.4,1.6-5.7s2.6-2,4.7-2c1.7,0,3.1,0.5,4,1.6
			c1,1.1,1.5,2.5,1.6,4.4h-2.6c-0.1-1.2-0.4-2.2-0.9-2.8s-1.3-0.9-2.2-0.9c-1.2,0-2.1,0.4-2.7,1.2s-0.9,2.1-0.9,3.9v2.1
			c0,2,0.3,3.3,0.9,4.2S1592.3,968.7,1593.6,968.7z"/>
		<path class="st7" d="M1605.9,950.1v4h2.5v2.2h-2.5v10.3c0,0.7,0.1,1.2,0.3,1.5c0.2,0.3,0.6,0.5,1.1,0.5c0.4,0,0.7-0.1,1.1-0.2v2.3
			c-0.6,0.2-1.2,0.3-1.9,0.3c-1.1,0-1.9-0.4-2.5-1.2s-0.8-1.9-0.8-3.3v-10.3h-2.5V954h2.5v-4h2.7V950.1z"/>
		<path class="st7" d="M1617.6,971c-2.1,0-3.7-0.6-4.8-1.9c-1.1-1.2-1.7-3-1.7-5.4v-2c0-2.5,0.5-4.4,1.6-5.8
			c1.1-1.4,2.6-2.1,4.5-2.1s3.4,0.6,4.4,1.9c1,1.2,1.5,3.2,1.5,5.8v1.8h-9.3v0.4c0,1.8,0.3,3.1,1,3.9s1.6,1.2,2.9,1.2
			c0.8,0,1.5-0.2,2.1-0.5s1.2-0.8,1.7-1.4l1.4,1.7C1621.8,970.2,1620,971,1617.6,971z M1617.3,956.1c-1.1,0-2,0.4-2.5,1.2
			s-0.9,2-0.9,3.6h6.5v-0.4c-0.1-1.6-0.4-2.7-0.9-3.4C1619.1,956.5,1618.3,956.1,1617.3,956.1z"/>
		<path class="st7" d="M1625.8,961.7c0-2.6,0.5-4.5,1.4-5.9c1-1.3,2.3-2,4.1-2c1.6,0,2.8,0.6,3.7,1.9v-8.6h2.7v23.6h-2.5l-0.1-1.8
			c-0.9,1.4-2.2,2.1-3.8,2.1c-1.7,0-3.1-0.7-4.1-2s-1.5-3.2-1.5-5.7v-1.6H1625.8z M1628.5,963.2c0,1.9,0.3,3.2,0.8,4.1
			c0.6,0.9,1.5,1.3,2.7,1.3c1.4,0,2.4-0.7,3-2v-8.4c-0.7-1.3-1.7-2-3-2c-1.2,0-2.2,0.4-2.7,1.3c-0.6,0.9-0.8,2.2-0.8,4V963.2z"/>
	</g>
	<g class="st3">
		<path class="st7" d="M1237,999.4c0-2.4,0.6-4.3,1.8-5.7c1.2-1.4,2.7-2.1,4.7-2.1c1.9,0,3.5,0.7,4.6,2.1s1.8,3.2,1.8,5.6v1.8
			c0,2.4-0.6,4.3-1.8,5.7c-1.2,1.4-2.7,2.1-4.7,2.1c-1.9,0-3.5-0.7-4.6-2c-1.2-1.4-1.8-3.2-1.8-5.5V999.4z M1239.7,1001
			c0,1.7,0.3,3.1,1,4s1.6,1.5,2.7,1.5c2.4,0,3.6-1.7,3.7-5.2v-1.9c0-1.7-0.3-3-1-4s-1.6-1.5-2.7-1.5s-2,0.5-2.7,1.5s-1,2.3-1,4V1001
			z"/>
		<path class="st7" d="M1260.2,994.4c-0.4-0.1-0.8-0.1-1.2-0.1c-1.4,0-2.4,0.8-2.9,2.3v11.9h-2.7v-16.6h2.6v1.7c0.7-1.3,1.8-2,3.1-2
			c0.4,0,0.8,0.1,1.1,0.2V994.4z"/>
		<path class="st7" d="M1273.3,987.5c0,0.5-0.1,0.8-0.4,1.2c-0.3,0.3-0.6,0.5-1.2,0.5c-0.5,0-0.9-0.2-1.2-0.5
			c-0.3-0.3-0.4-0.7-0.4-1.2s0.1-0.9,0.4-1.2s0.6-0.5,1.2-0.5c0.5,0,0.9,0.2,1.2,0.5S1273.3,987,1273.3,987.5z M1273.1,1008.5h-2.7
			v-16.6h2.7V1008.5z"/>
		<path class="st7" d="M1280.9,987.8v4h2.5v2.2h-2.5v10.3c0,0.7,0.1,1.2,0.3,1.5c0.2,0.3,0.6,0.5,1.1,0.5c0.4,0,0.7-0.1,1.1-0.2v2.3
			c-0.6,0.2-1.2,0.3-1.9,0.3c-1.1,0-1.9-0.4-2.5-1.2s-0.8-1.9-0.8-3.3v-10.3h-2.5v-2.2h2.5v-4h2.7V987.8z"/>
		<path class="st7" d="M1297,987.5c0,0.5-0.1,0.8-0.4,1.2c-0.3,0.3-0.6,0.5-1.2,0.5c-0.5,0-0.9-0.2-1.2-0.5
			c-0.3-0.3-0.4-0.7-0.4-1.2s0.1-0.9,0.4-1.2s0.6-0.5,1.2-0.5s0.9,0.2,1.2,0.5C1296.9,986.6,1297,987,1297,987.5z M1296.8,1008.5
			h-2.7v-16.6h2.7V1008.5z"/>
		<path class="st7" d="M1309.2,1004.2c0-0.6-0.2-1.1-0.7-1.5c-0.4-0.4-1.3-0.9-2.6-1.5c-1.5-0.6-2.5-1.1-3.1-1.6
			c-0.6-0.4-1-0.9-1.3-1.5c-0.3-0.5-0.4-1.2-0.4-2c0-1.4,0.5-2.5,1.5-3.4s2.3-1.3,3.8-1.3c1.6,0,2.9,0.5,3.9,1.4s1.5,2.2,1.5,3.6
			h-2.7c0-0.7-0.3-1.4-0.8-1.9s-1.1-0.8-1.9-0.8s-1.4,0.2-1.9,0.6c-0.5,0.4-0.7,1-0.7,1.7c0,0.6,0.2,1,0.5,1.3s1.1,0.8,2.4,1.3
			c2,0.8,3.4,1.6,4.1,2.3c0.7,0.8,1.1,1.7,1.1,2.9c0,1.4-0.5,2.6-1.5,3.5s-2.3,1.3-4,1.3s-3.1-0.5-4.2-1.5s-1.6-2.3-1.6-3.8h2.7
			c0,0.9,0.3,1.6,0.8,2.2s1.3,0.8,2.2,0.8c0.9,0,1.6-0.2,2.1-0.6C1308.9,1005.5,1309.2,1004.9,1309.2,1004.2z"/>
		<path class="st7" d="M1330.7,1004.2c0-0.6-0.2-1.1-0.7-1.5c-0.4-0.4-1.3-0.9-2.6-1.5c-1.5-0.6-2.5-1.1-3.1-1.6
			c-0.6-0.4-1-0.9-1.3-1.5c-0.3-0.5-0.4-1.2-0.4-2c0-1.4,0.5-2.5,1.5-3.4s2.3-1.3,3.8-1.3c1.6,0,2.9,0.5,3.9,1.4s1.5,2.2,1.5,3.6
			h-2.7c0-0.7-0.3-1.4-0.8-1.9s-1.1-0.8-1.9-0.8s-1.4,0.2-1.9,0.6c-0.5,0.4-0.7,1-0.7,1.7c0,0.6,0.2,1,0.5,1.3s1.1,0.8,2.4,1.3
			c2,0.8,3.4,1.6,4.1,2.3c0.7,0.8,1.1,1.7,1.1,2.9c0,1.4-0.5,2.6-1.5,3.5s-2.3,1.3-4,1.3s-3.1-0.5-4.2-1.5s-1.6-2.3-1.6-3.8h2.7
			c0,0.9,0.3,1.6,0.8,2.2c0.5,0.5,1.3,0.8,2.2,0.8c0.9,0,1.6-0.2,2.1-0.6C1330.5,1005.5,1330.7,1004.9,1330.7,1004.2z"/>
	</g>
	<g class="st3">
		<path class="st7" d="M1342.9,1008.8c-2.1,0-3.7-0.6-4.8-1.9c-1.1-1.2-1.7-3-1.7-5.4v-2c0-2.5,0.5-4.4,1.6-5.8s2.6-2.1,4.5-2.1
			s3.4,0.6,4.4,1.9c1,1.2,1.5,3.2,1.5,5.8v1.8h-9.3v0.4c0,1.8,0.3,3.1,1,3.9c0.7,0.8,1.6,1.2,2.9,1.2c0.8,0,1.5-0.2,2.1-0.5
			s1.2-0.8,1.7-1.4l1.4,1.7C1347.1,1008,1345.3,1008.8,1342.9,1008.8z M1342.6,993.9c-1.1,0-2,0.4-2.5,1.2s-0.9,2-0.9,3.6h6.5v-0.4
			c-0.1-1.6-0.4-2.7-0.9-3.4C1344.4,994.2,1343.6,993.9,1342.6,993.9z"/>
	</g>
	<g class="st3">
		<path class="st7" d="M1356.2,1004.4l3.2-12.5h2.8l-4.9,16.6h-2l-5-16.6h2.8L1356.2,1004.4z"/>
		<path class="st7" d="M1370.9,1008.8c-2.1,0-3.7-0.6-4.8-1.9c-1.1-1.2-1.7-3-1.7-5.4v-2c0-2.5,0.5-4.4,1.6-5.8s2.6-2.1,4.5-2.1
			s3.4,0.6,4.4,1.9c1,1.2,1.5,3.2,1.5,5.8v1.8h-9.3v0.4c0,1.8,0.3,3.1,1,3.9c0.7,0.8,1.6,1.2,2.9,1.2c0.8,0,1.5-0.2,2.1-0.5
			s1.2-0.8,1.7-1.4l1.4,1.7C1375.1,1008,1373.3,1008.8,1370.9,1008.8z M1370.6,993.9c-1.1,0-2,0.4-2.5,1.2s-0.9,2-0.9,3.6h6.5v-0.4
			c-0.1-1.6-0.4-2.7-0.9-3.4C1372.4,994.2,1371.6,993.9,1370.6,993.9z"/>
		<path class="st7" d="M1386.6,994.4c-0.4-0.1-0.8-0.1-1.2-0.1c-1.4,0-2.4,0.8-2.9,2.3v11.9h-2.7v-16.6h2.6v1.7c0.7-1.3,1.8-2,3.1-2
			c0.4,0,0.8,0.1,1.1,0.2V994.4z"/>
		<path class="st7" d="M1395.2,1008.8c-2.1,0-3.7-0.6-4.8-1.9c-1.1-1.2-1.7-3-1.7-5.4v-2c0-2.5,0.5-4.4,1.6-5.8s2.6-2.1,4.5-2.1
			s3.4,0.6,4.4,1.9c1,1.2,1.5,3.2,1.5,5.8v1.8h-9.3v0.4c0,1.8,0.3,3.1,1,3.9c0.7,0.8,1.6,1.2,2.9,1.2c0.8,0,1.5-0.2,2.1-0.5
			s1.2-0.8,1.7-1.4l1.4,1.7C1399.4,1008,1397.6,1008.8,1395.2,1008.8z M1394.9,993.9c-1.1,0-2,0.4-2.5,1.2s-0.9,2-0.9,3.6h6.5v-0.4
			c-0.1-1.6-0.4-2.7-0.9-3.4C1396.7,994.2,1395.9,993.9,1394.9,993.9z"/>
		<path class="st7" d="M1407,1008.5h-2.7v-23.6h2.7V1008.5z"/>
		<path class="st7" d="M1415.8,1004l3-12.1h2.9l-5.4,19c-0.4,1.4-1,2.5-1.7,3.3s-1.6,1.1-2.6,1.1c-0.4,0-0.8-0.1-1.4-0.2v-2.3
			l0.6,0.1c0.8,0,1.4-0.2,1.9-0.6c0.4-0.4,0.8-1,1.1-1.9l0.5-1.9l-4.9-16.5h3L1415.8,1004z"/>
		<path class="st7" d="M1438.4,994.4c-0.4-0.1-0.8-0.1-1.2-0.1c-1.4,0-2.4,0.8-2.9,2.3v11.9h-2.7v-16.6h2.6v1.7c0.7-1.3,1.8-2,3.1-2
			c0.4,0,0.8,0.1,1.1,0.2V994.4z"/>
		<path class="st7" d="M1447.1,1008.8c-2.1,0-3.7-0.6-4.8-1.9c-1.1-1.2-1.7-3-1.7-5.4v-2c0-2.5,0.5-4.4,1.6-5.8s2.6-2.1,4.5-2.1
			s3.4,0.6,4.4,1.9c1,1.2,1.5,3.2,1.5,5.8v1.8h-9.3v0.4c0,1.8,0.3,3.1,1,3.9c0.7,0.8,1.6,1.2,2.9,1.2c0.8,0,1.5-0.2,2.1-0.5
			s1.2-0.8,1.7-1.4l1.4,1.7C1451.3,1008,1449.5,1008.8,1447.1,1008.8z M1446.8,993.9c-1.1,0-2,0.4-2.5,1.2s-0.9,2-0.9,3.6h6.5v-0.4
			c-0.1-1.6-0.4-2.7-0.9-3.4C1448.5,994.2,1447.8,993.9,1446.8,993.9z"/>
		<path class="st7" d="M1464,1004.2c0-0.6-0.2-1.1-0.7-1.5c-0.4-0.4-1.3-0.9-2.6-1.5c-1.5-0.6-2.5-1.1-3.1-1.6
			c-0.6-0.4-1-0.9-1.3-1.5c-0.3-0.5-0.4-1.2-0.4-2c0-1.4,0.5-2.5,1.5-3.4s2.3-1.3,3.8-1.3c1.6,0,2.9,0.5,3.9,1.4s1.5,2.2,1.5,3.6
			h-2.7c0-0.7-0.3-1.4-0.8-1.9s-1.1-0.8-1.9-0.8s-1.4,0.2-1.9,0.6c-0.5,0.4-0.7,1-0.7,1.7c0,0.6,0.2,1,0.5,1.3s1.1,0.8,2.4,1.3
			c2,0.8,3.4,1.6,4.1,2.3s1.1,1.7,1.1,2.9c0,1.4-0.5,2.6-1.5,3.5s-2.3,1.3-4,1.3s-3.1-0.5-4.2-1.5s-1.6-2.3-1.6-3.8h2.7
			c0,0.9,0.3,1.6,0.8,2.2c0.5,0.5,1.3,0.8,2.2,0.8c0.9,0,1.6-0.2,2.1-0.6C1463.7,1005.5,1464,1004.9,1464,1004.2z"/>
		<path class="st7" d="M1473.8,987.8v4h2.5v2.2h-2.5v10.3c0,0.7,0.1,1.2,0.3,1.5c0.2,0.3,0.6,0.5,1.1,0.5c0.4,0,0.7-0.1,1.1-0.2v2.3
			c-0.6,0.2-1.2,0.3-1.9,0.3c-1.1,0-1.9-0.4-2.5-1.2s-0.8-1.9-0.8-3.3v-10.3h-2.5v-2.2h2.5v-4h2.7V987.8z"/>
		<path class="st7" d="M1486.4,994.4c-0.4-0.1-0.8-0.1-1.2-0.1c-1.4,0-2.4,0.8-2.9,2.3v11.9h-2.7v-16.6h2.6v1.7c0.7-1.3,1.8-2,3.1-2
			c0.4,0,0.8,0.1,1.1,0.2V994.4z"/>
		<path class="st7" d="M1492.2,987.5c0,0.5-0.1,0.8-0.4,1.2c-0.3,0.3-0.6,0.5-1.2,0.5c-0.5,0-0.9-0.2-1.2-0.5
			c-0.3-0.3-0.4-0.7-0.4-1.2s0.1-0.9,0.4-1.2s0.6-0.5,1.2-0.5c0.5,0,0.9,0.2,1.2,0.5C1492.1,986.6,1492.2,987,1492.2,987.5z
			 M1492,1008.5h-2.7v-16.6h2.7V1008.5z"/>
		<path class="st7" d="M1502.1,1006.5c0.9,0,1.6-0.3,2.2-0.8s0.8-1.4,0.9-2.4h2.6c-0.1,1.6-0.6,2.9-1.7,4s-2.4,1.6-3.9,1.6
			c-2.1,0-3.6-0.6-4.7-1.9c-1.1-1.3-1.6-3.2-1.6-5.8v-1.8c0-2.5,0.5-4.4,1.6-5.7s2.6-2,4.7-2c1.7,0,3.1,0.5,4,1.6
			c1,1.1,1.5,2.5,1.6,4.4h-2.6c-0.1-1.2-0.4-2.2-0.9-2.8s-1.3-0.9-2.2-0.9c-1.2,0-2.1,0.4-2.7,1.2s-0.9,2.1-0.9,3.9v2.1
			c0,2,0.3,3.3,0.9,4.2S1500.8,1006.5,1502.1,1006.5z"/>
		<path class="st7" d="M1514.4,987.8v4h2.5v2.2h-2.5v10.3c0,0.7,0.1,1.2,0.3,1.5c0.2,0.3,0.6,0.5,1.1,0.5c0.4,0,0.7-0.1,1.1-0.2v2.3
			c-0.6,0.2-1.2,0.3-1.9,0.3c-1.1,0-1.9-0.4-2.5-1.2s-0.8-1.9-0.8-3.3v-10.3h-2.5v-2.2h2.5v-4h2.7V987.8z"/>
		<path class="st7" d="M1526.1,1008.8c-2.1,0-3.7-0.6-4.8-1.9c-1.1-1.2-1.7-3-1.7-5.4v-2c0-2.5,0.5-4.4,1.6-5.8
			c1.1-1.4,2.6-2.1,4.5-2.1s3.4,0.6,4.4,1.9c1,1.2,1.5,3.2,1.5,5.8v1.8h-9.3v0.4c0,1.8,0.3,3.1,1,3.9s1.6,1.2,2.9,1.2
			c0.8,0,1.5-0.2,2.1-0.5s1.2-0.8,1.7-1.4l1.4,1.7C1530.3,1008,1528.5,1008.8,1526.1,1008.8z M1525.8,993.9c-1.1,0-2,0.4-2.5,1.2
			s-0.9,2-0.9,3.6h6.5v-0.4c-0.1-1.6-0.4-2.7-0.9-3.4C1527.5,994.2,1526.8,993.9,1525.8,993.9z"/>
		<path class="st7" d="M1534.3,999.4c0-2.6,0.5-4.5,1.4-5.9c1-1.3,2.3-2,4.1-2c1.6,0,2.8,0.6,3.7,1.9v-8.6h2.7v23.6h-2.5l-0.1-1.8
			c-0.9,1.4-2.2,2.1-3.8,2.1c-1.7,0-3.1-0.7-4.1-2s-1.5-3.2-1.5-5.7v-1.6H1534.3z M1537,1001c0,1.9,0.3,3.2,0.8,4.1
			c0.6,0.9,1.5,1.3,2.7,1.3c1.4,0,2.4-0.7,3-2V996c-0.7-1.3-1.7-2-3-2c-1.2,0-2.2,0.4-2.7,1.3c-0.6,0.9-0.8,2.2-0.8,4V1001z"/>
	</g>
	<g class="st3">
		<path class="st8" d="M1242.3,786.1v7.9h-4.5v-22.4h7.6c2.2,0,4,0.7,5.3,2.1c1.3,1.4,2,3.2,2,5.3c0,2.2-0.7,3.9-2,5.2
			s-3.1,1.9-5.4,1.9H1242.3z M1242.3,782.3h3.1c0.9,0,1.5-0.3,2-0.8c0.5-0.6,0.7-1.4,0.7-2.5s-0.2-2-0.7-2.7s-1.1-1-1.9-1h-3.2
			V782.3z"/>
	</g>
	<g class="st3">
		<path class="st8" d="M1263.6,781.5l-1.4-0.1c-1.2,0-2,0.5-2.4,1.6v11h-4.4v-16.6h4.1l0.1,1.8c0.7-1.4,1.6-2.1,2.8-2.1
			c0.5,0,0.9,0.1,1.2,0.2L1263.6,781.5z"/>
	</g>
	<g class="st3">
		<path class="st8" d="M1264.8,785.1c0-2.5,0.6-4.5,1.8-5.9c1.2-1.4,2.8-2.2,4.9-2.2s3.8,0.7,5,2.2s1.8,3.4,1.8,6v1.1
			c0,2.5-0.6,4.5-1.8,5.9c-1.2,1.4-2.8,2.1-5,2.1c-2.1,0-3.8-0.7-5-2.1s-1.8-3.4-1.8-6L1264.8,785.1L1264.8,785.1z M1269.2,786.2
			c0,3,0.8,4.5,2.4,4.5c1.5,0,2.3-1.2,2.4-3.7v-1.8c0-1.5-0.2-2.6-0.6-3.4c-0.4-0.7-1-1.1-1.8-1.1c-0.7,0-1.3,0.4-1.7,1.1
			s-0.6,1.9-0.6,3.4v1H1269.2z"/>
		<path class="st8" d="M1288.8,786.2h-7.5v-3.6h7.5V786.2z"/>
		<path class="st8" d="M1298.4,790.6c1.3,0,1.9-0.8,1.9-2.5h4.1c0,1.8-0.6,3.3-1.7,4.4c-1.1,1.1-2.5,1.7-4.2,1.7
			c-2.1,0-3.8-0.7-4.9-2s-1.7-3.3-1.7-5.9V785c0-2.6,0.6-4.6,1.7-6s2.8-2.1,4.9-2.1c1.8,0,3.3,0.6,4.3,1.7c1.1,1.1,1.6,2.7,1.6,4.8
			h-4.1c0-0.9-0.2-1.6-0.5-2.2s-0.8-0.8-1.5-0.8c-0.8,0-1.3,0.3-1.6,0.8c-0.3,0.5-0.5,1.6-0.5,3.1v1.7c0,1.4,0.1,2.3,0.2,2.8
			s0.4,0.9,0.7,1.2C1297.4,790.5,1297.9,790.6,1298.4,790.6z"/>
		<path class="st8" d="M1311.1,778.8c0.9-1.2,2.1-1.8,3.5-1.8c1.5,0,2.7,0.5,3.5,1.6s1.2,2.7,1.2,4.8V794h-4.4v-10.5
			c0-1-0.2-1.7-0.5-2.1c-0.3-0.4-0.8-0.7-1.5-0.7c-0.8,0-1.4,0.4-1.8,1.1V794h-4.4v-23.6h4.4L1311.1,778.8L1311.1,778.8z"/>
		<path class="st8" d="M1321.9,785.1c0-2.5,0.6-4.5,1.8-5.9c1.2-1.4,2.8-2.2,4.9-2.2s3.8,0.7,5,2.2c1.2,1.4,1.8,3.4,1.8,6v1.1
			c0,2.5-0.6,4.5-1.8,5.9c-1.2,1.4-2.8,2.1-4.9,2.1s-3.8-0.7-5-2.1s-1.8-3.4-1.8-6V785.1z M1326.3,786.2c0,3,0.8,4.5,2.4,4.5
			c1.5,0,2.3-1.2,2.4-3.7v-1.8c0-1.5-0.2-2.6-0.6-3.4s-1-1.1-1.8-1.1c-0.7,0-1.3,0.4-1.7,1.1s-0.6,1.9-0.6,3.4v1H1326.3z"/>
		<path class="st8" d="M1338.1,773c0-0.7,0.2-1.2,0.6-1.7c0.4-0.4,1-0.6,1.7-0.6s1.3,0.2,1.7,0.6c0.4,0.4,0.6,1,0.6,1.7
			s-0.2,1.2-0.6,1.7s-1,0.7-1.7,0.7s-1.3-0.2-1.7-0.7S1338.1,773.7,1338.1,773z M1342.6,794h-4.4v-16.6h4.4V794z"/>
		<path class="st8" d="M1352,790.6c1.3,0,1.9-0.8,1.9-2.5h4.1c0,1.8-0.6,3.3-1.7,4.4c-1.1,1.1-2.5,1.7-4.2,1.7c-2.1,0-3.8-0.7-4.9-2
			s-1.7-3.3-1.7-5.9V785c0-2.6,0.6-4.6,1.7-6s2.8-2.1,4.9-2.1c1.8,0,3.3,0.6,4.3,1.7c1.1,1.1,1.6,2.7,1.6,4.8h-4.1
			c0-0.9-0.2-1.6-0.5-2.2s-0.8-0.8-1.5-0.8c-0.8,0-1.3,0.3-1.6,0.8c-0.3,0.5-0.5,1.6-0.5,3.1v1.7c0,1.4,0.1,2.3,0.2,2.8
			s0.4,0.9,0.7,1.2C1351,790.5,1351.4,790.6,1352,790.6z"/>
		<path class="st8" d="M1367.2,794.3c-2.2,0-4-0.7-5.2-2s-1.9-3.2-1.9-5.7v-1.3c0-2.6,0.6-4.6,1.7-6.1c1.1-1.4,2.8-2.1,4.9-2.1
			s3.7,0.7,4.7,2c1.1,1.3,1.6,3.3,1.6,5.9v2.1h-8.7c0.1,1.2,0.3,2.1,0.8,2.7c0.5,0.6,1.2,0.9,2.2,0.9c1.5,0,2.7-0.5,3.6-1.5l1.7,2.6
			c-0.5,0.7-1.3,1.3-2.3,1.8C1369.5,794,1368.4,794.3,1367.2,794.3z M1364.5,784.1h4.4v-0.4c0-1-0.2-1.7-0.5-2.3
			c-0.3-0.5-0.8-0.8-1.6-0.8c-0.8,0-1.3,0.3-1.7,0.8C1364.7,782,1364.5,782.9,1364.5,784.1z"/>
		<path class="st8" d="M1390.2,789.5c0-0.4-0.2-0.7-0.5-1s-1.1-0.7-2.4-1.3c-1.8-0.7-3-1.5-3.7-2.3s-1-1.7-1-2.9
			c0-1.5,0.5-2.7,1.6-3.6c1.1-0.9,2.4-1.4,4.2-1.4c1.8,0,3.3,0.5,4.4,1.4s1.6,2.2,1.6,3.8h-4.4c0-1.4-0.6-2-1.7-2
			c-0.5,0-0.8,0.1-1.1,0.4c-0.3,0.3-0.4,0.7-0.4,1.2c0,0.4,0.2,0.7,0.5,1s1.1,0.7,2.3,1.2c1.8,0.7,3,1.4,3.8,2.2
			c0.7,0.8,1.1,1.8,1.1,3.1c0,1.5-0.6,2.7-1.7,3.6c-1.1,0.9-2.6,1.4-4.4,1.4c-1.2,0-2.3-0.2-3.2-0.7s-1.7-1.1-2.2-2
			s-0.8-1.8-0.8-2.8h4.1c0,0.8,0.2,1.3,0.5,1.7s0.9,0.6,1.6,0.6C1389.6,791.1,1390.2,790.5,1390.2,789.5z"/>
		<path class="st8" d="M1402.1,773.2v4.1h2.2v3.3h-2.2v8.3c0,0.7,0.1,1.1,0.3,1.4c0.2,0.2,0.5,0.4,1,0.4c0.4,0,0.8,0,1-0.1v3.4
			c-0.7,0.3-1.5,0.4-2.4,0.4c-2.8,0-4.2-1.6-4.3-4.8v-8.8h-1.9v-3.3h1.9v-4.1h4.4V773.2z"/>
		<path class="st8" d="M1414.7,794c-0.1-0.3-0.2-0.7-0.4-1.3c-0.8,1.1-1.8,1.6-3.2,1.6c-1.4,0-2.5-0.5-3.5-1.4
			c-0.9-0.9-1.4-2.1-1.4-3.6c0-1.7,0.6-3.1,1.7-4c1.1-1,2.7-1.4,4.8-1.5h1.3v-1.3c0-0.7-0.1-1.3-0.4-1.6s-0.6-0.5-1.1-0.5
			c-1.1,0-1.6,0.6-1.6,1.9h-4.4c0-1.5,0.6-2.8,1.7-3.8c1.2-1,2.6-1.5,4.4-1.5s3.2,0.5,4.2,1.4s1.5,2.3,1.5,4.1v7.8
			c0,1.4,0.2,2.6,0.6,3.4v0.3L1414.7,794L1414.7,794z M1412.1,790.8c0.5,0,0.9-0.1,1.2-0.3c0.3-0.2,0.6-0.4,0.8-0.7v-3.5h-1
			c-0.7,0-1.3,0.2-1.7,0.7c-0.4,0.5-0.6,1.1-0.6,1.9C1410.6,790.2,1411.1,790.8,1412.1,790.8z"/>
		<path class="st8" d="M1426.6,773.2v4.1h2.2v3.3h-2.2v8.3c0,0.7,0.1,1.1,0.3,1.4c0.2,0.2,0.5,0.4,1,0.4c0.4,0,0.8,0,1-0.1v3.4
			c-0.7,0.3-1.5,0.4-2.4,0.4c-2.8,0-4.2-1.6-4.3-4.8v-8.8h-1.9v-3.3h1.9v-4.1h4.4V773.2z"/>
		<path class="st8" d="M1438,794.3c-2.2,0-4-0.7-5.2-2s-1.9-3.2-1.9-5.7v-1.3c0-2.6,0.6-4.6,1.7-6.1c1.1-1.4,2.8-2.1,4.9-2.1
			s3.7,0.7,4.7,2c1.1,1.3,1.6,3.3,1.6,5.9v2.1h-8.7c0.1,1.2,0.3,2.1,0.8,2.7c0.5,0.6,1.2,0.9,2.2,0.9c1.5,0,2.7-0.5,3.6-1.5l1.7,2.6
			c-0.5,0.7-1.3,1.3-2.3,1.8C1440.2,794,1439.1,794.3,1438,794.3z M1435.2,784.1h4.4v-0.4c0-1-0.2-1.7-0.5-2.3
			c-0.3-0.5-0.8-0.8-1.6-0.8c-0.8,0-1.3,0.3-1.7,0.8C1435.5,782,1435.3,782.9,1435.2,784.1z"/>
		<path class="st8" d="M1453.7,789.5c0-0.4-0.2-0.7-0.5-1s-1.1-0.7-2.4-1.3c-1.8-0.7-3-1.5-3.7-2.3s-1-1.7-1-2.9
			c0-1.5,0.5-2.7,1.6-3.6c1-0.9,2.4-1.4,4.2-1.4c1.8,0,3.3,0.5,4.4,1.4s1.6,2.2,1.6,3.8h-4.3c0-1.4-0.6-2-1.7-2
			c-0.5,0-0.8,0.1-1.1,0.4c-0.3,0.3-0.4,0.7-0.4,1.2c0,0.4,0.2,0.7,0.5,1s1.1,0.7,2.3,1.2c1.8,0.7,3,1.4,3.8,2.2
			c0.7,0.8,1.1,1.8,1.1,3.1c0,1.5-0.6,2.7-1.7,3.6c-1.1,0.9-2.6,1.4-4.4,1.4c-1.2,0-2.3-0.2-3.2-0.7c-0.9-0.5-1.7-1.1-2.2-2
			s-0.8-1.8-0.8-2.8h4.1c0,0.8,0.2,1.3,0.5,1.7s0.9,0.6,1.6,0.6C1453.1,791.1,1453.7,790.5,1453.7,789.5z"/>
	</g>
	<g class="st3">
		<path class="st7" d="M1248.8,825.9h-7.6l-1.7,5.9h-2.9l7.2-22.4h2.4l7.2,22.4h-2.9L1248.8,825.9z M1242,823.5h6.1l-3.1-10.2
			L1242,823.5z"/>
		<path class="st7" d="M1268.2,824.2c0,2.6-0.5,4.5-1.4,5.9s-2.3,2-4.1,2c-1.8,0-3.1-0.8-4-2.3l-0.1,2h-2.5v-23.6h2.7v8.8
			c0.9-1.4,2.2-2.1,3.8-2.1c1.8,0,3.2,0.6,4.1,1.9s1.4,3.2,1.4,5.8L1268.2,824.2L1268.2,824.2z M1265.5,822.6c0-2-0.3-3.4-0.8-4.2
			s-1.4-1.3-2.7-1.3c-1.4,0-2.4,0.8-3.1,2.3v7.9c0.7,1.5,1.7,2.2,3.2,2.2c1.2,0,2.1-0.4,2.6-1.3c0.5-0.9,0.8-2.2,0.8-4V822.6z"/>
		<path class="st7" d="M1271.1,822.6c0-2.4,0.6-4.3,1.8-5.7c1.2-1.4,2.7-2.1,4.6-2.1s3.5,0.7,4.6,2.1c1.2,1.4,1.8,3.2,1.8,5.6v1.8
			c0,2.4-0.6,4.3-1.8,5.7c-1.2,1.4-2.7,2.1-4.7,2.1c-1.9,0-3.5-0.7-4.6-2c-1.2-1.4-1.8-3.2-1.8-5.5L1271.1,822.6L1271.1,822.6z
			 M1273.8,824.2c0,1.7,0.3,3.1,1,4c0.7,1,1.6,1.5,2.7,1.5c2.4,0,3.6-1.7,3.7-5.2v-1.9c0-1.7-0.3-3-1-4s-1.6-1.5-2.7-1.5
			s-2,0.5-2.7,1.5s-1,2.3-1,4V824.2z"/>
	</g>
	<g class="st3">
		<path class="st7" d="M1294.3,817.6c-0.4-0.1-0.8-0.1-1.2-0.1c-1.4,0-2.4,0.8-2.9,2.3v11.9h-2.7v-16.6h2.6v1.7c0.7-1.3,1.8-2,3.1-2
			c0.4,0,0.8,0.1,1.1,0.2V817.6z"/>
	</g>
	<g class="st3">
		<path class="st7" d="M1301.3,811.1v4h2.5v2.2h-2.5v10.3c0,0.7,0.1,1.2,0.3,1.5c0.2,0.3,0.6,0.5,1.1,0.5c0.4,0,0.7-0.1,1.1-0.2v2.3
			c-0.6,0.2-1.2,0.3-1.9,0.3c-1.1,0-1.9-0.4-2.5-1.2s-0.8-1.9-0.8-3.3v-10.3h-2.5V815h2.5v-4h2.7V811.1z"/>
		<path class="st7" d="M1310.2,810.7c0,0.5-0.1,0.8-0.4,1.2c-0.3,0.3-0.6,0.5-1.2,0.5c-0.5,0-0.9-0.2-1.2-0.5
			c-0.3-0.3-0.4-0.7-0.4-1.2s0.1-0.9,0.4-1.2s0.6-0.5,1.2-0.5s0.9,0.2,1.2,0.5C1310.1,809.8,1310.2,810.2,1310.2,810.7z M1310,831.7
			h-2.7v-16.6h2.7V831.7z"/>
		<path class="st7" d="M1313.7,822.6c0-2.4,0.6-4.3,1.8-5.7s2.7-2.1,4.7-2.1c1.9,0,3.5,0.7,4.6,2.1c1.2,1.4,1.8,3.2,1.8,5.6v1.8
			c0,2.4-0.6,4.3-1.8,5.7c-1.2,1.4-2.7,2.1-4.7,2.1c-1.9,0-3.5-0.7-4.6-2c-1.2-1.4-1.8-3.2-1.8-5.5V822.6z M1316.4,824.2
			c0,1.7,0.3,3.1,1,4c0.7,1,1.6,1.5,2.7,1.5c2.4,0,3.6-1.7,3.7-5.2v-1.9c0-1.7-0.3-3-1-4s-1.6-1.5-2.7-1.5s-2,0.5-2.7,1.5
			s-1,2.3-1,4V824.2z"/>
		<path class="st7" d="M1332.7,815.1l0.1,1.8c1.1-1.4,2.4-2.1,4-2.1c2.9,0,4.4,2,4.5,5.9v11.1h-2.7v-10.9c0-1.3-0.2-2.2-0.7-2.8
			s-1.1-0.8-2-0.8c-0.7,0-1.3,0.2-1.8,0.7s-1,1-1.3,1.8v12.1h-2.7v-16.6h2.6V815.1z"/>
		<path class="st7" d="M1361.1,831.7c-0.2-0.4-0.3-1-0.4-1.8c-1,1.4-2.2,2.1-3.7,2.1s-2.7-0.4-3.5-1.3c-0.8-0.8-1.3-2-1.3-3.6
			c0-1.7,0.6-3,1.7-4s2.7-1.5,4.7-1.5h2v-1.8c0-1-0.2-1.7-0.7-2.1c-0.4-0.4-1.1-0.6-2-0.6c-0.8,0-1.5,0.2-2,0.7s-0.8,1.1-0.8,1.9
			h-2.7c0-0.9,0.2-1.7,0.8-2.4c0.5-0.8,1.2-1.4,2-1.8c0.9-0.4,1.8-0.7,2.8-0.7c1.7,0,3,0.4,3.9,1.3c0.9,0.8,1.3,2.1,1.4,3.7v8.4
			c0,1.3,0.2,2.4,0.5,3.3v0.2L1361.1,831.7L1361.1,831.7z M1357.5,829.6c0.7,0,1.3-0.2,1.9-0.6c0.6-0.4,1-0.8,1.3-1.4v-4h-1.5
			c-1.3,0-2.3,0.3-3.1,0.9c-0.7,0.6-1.1,1.3-1.1,2.3c0,0.9,0.2,1.6,0.6,2.1C1355.9,829.3,1356.6,829.6,1357.5,829.6z"/>
		<path class="st7" d="M1373.4,829.7c0.9,0,1.6-0.3,2.2-0.8s0.8-1.4,0.9-2.4h2.6c-0.1,1.6-0.6,2.9-1.7,4s-2.4,1.6-3.9,1.6
			c-2.1,0-3.6-0.6-4.7-1.9c-1.1-1.3-1.6-3.2-1.6-5.8v-1.8c0-2.5,0.5-4.4,1.6-5.7s2.6-2,4.7-2c1.7,0,3.1,0.5,4,1.6
			c1,1.1,1.5,2.5,1.6,4.4h-2.6c-0.1-1.2-0.4-2.2-0.9-2.8s-1.3-0.9-2.2-0.9c-1.2,0-2.1,0.4-2.7,1.2s-0.9,2.1-0.9,3.9v2.1
			c0,2,0.3,3.3,0.9,4.2C1371.2,829.3,1372.1,829.7,1373.4,829.7z"/>
		<path class="st7" d="M1387.9,829.7c0.9,0,1.6-0.3,2.2-0.8s0.8-1.4,0.9-2.4h2.6c-0.1,1.6-0.6,2.9-1.7,4s-2.4,1.6-3.9,1.6
			c-2.1,0-3.6-0.6-4.7-1.9c-1.1-1.3-1.6-3.2-1.6-5.8v-1.8c0-2.5,0.5-4.4,1.6-5.7s2.6-2,4.7-2c1.7,0,3.1,0.5,4,1.6
			c1,1.1,1.5,2.5,1.6,4.4h-2.6c-0.1-1.2-0.4-2.2-0.9-2.8s-1.3-0.9-2.2-0.9c-1.2,0-2.1,0.4-2.7,1.2s-0.9,2.1-0.9,3.9v2.1
			c0,2,0.3,3.3,0.9,4.2C1385.8,829.3,1386.7,829.7,1387.9,829.7z"/>
		<path class="st7" d="M1402.6,832c-2.1,0-3.7-0.6-4.8-1.9c-1.1-1.2-1.7-3-1.7-5.4v-2c0-2.5,0.5-4.4,1.6-5.8
			c1.1-1.4,2.6-2.1,4.5-2.1s3.4,0.6,4.4,1.9c1,1.2,1.5,3.2,1.5,5.8v1.8h-9.3v0.4c0,1.8,0.3,3.1,1,3.9c0.7,0.8,1.6,1.2,2.9,1.2
			c0.8,0,1.5-0.2,2.1-0.5s1.2-0.8,1.7-1.4l1.4,1.7C1406.9,831.2,1405.1,832,1402.6,832z M1402.3,817.1c-1.1,0-2,0.4-2.5,1.2
			s-0.9,2-0.9,3.6h6.5v-0.4c-0.1-1.6-0.4-2.7-0.9-3.4C1404.1,817.5,1403.3,817.1,1402.3,817.1z"/>
		<path class="st7" d="M1419.5,827.5c0-0.6-0.2-1.1-0.7-1.5c-0.4-0.4-1.3-0.9-2.6-1.5c-1.5-0.6-2.5-1.1-3.1-1.6
			c-0.6-0.4-1-0.9-1.3-1.5c-0.3-0.5-0.4-1.2-0.4-2c0-1.4,0.5-2.5,1.5-3.4s2.3-1.3,3.8-1.3c1.6,0,2.9,0.5,3.9,1.4s1.5,2.2,1.5,3.6
			h-2.7c0-0.7-0.3-1.4-0.8-1.9s-1.1-0.8-1.9-0.8s-1.4,0.2-1.9,0.6c-0.5,0.4-0.7,1-0.7,1.7c0,0.6,0.2,1,0.5,1.3s1.1,0.8,2.4,1.3
			c2,0.8,3.4,1.6,4.1,2.3s1.1,1.7,1.1,2.9c0,1.4-0.5,2.6-1.5,3.5s-2.3,1.3-4,1.3s-3.1-0.5-4.2-1.5s-1.6-2.3-1.6-3.8h2.7
			c0,0.9,0.3,1.6,0.8,2.2s1.3,0.8,2.2,0.8c0.9,0,1.6-0.2,2.1-0.6C1419.3,828.7,1419.5,828.1,1419.5,827.5z"/>
		<path class="st7" d="M1433.9,827.5c0-0.6-0.2-1.1-0.7-1.5c-0.4-0.4-1.3-0.9-2.6-1.5c-1.5-0.6-2.5-1.1-3.1-1.6
			c-0.6-0.4-1-0.9-1.3-1.5c-0.3-0.5-0.4-1.2-0.4-2c0-1.4,0.5-2.5,1.5-3.4s2.3-1.3,3.8-1.3c1.6,0,2.9,0.5,3.9,1.4s1.5,2.2,1.5,3.6
			h-2.7c0-0.7-0.2-1.4-0.8-1.9c-0.5-0.5-1.1-0.8-1.9-0.8s-1.4,0.2-1.9,0.6c-0.5,0.4-0.7,1-0.7,1.7c0,0.6,0.2,1,0.5,1.3
			s1.1,0.8,2.4,1.3c2,0.8,3.4,1.6,4.1,2.3c0.7,0.8,1.1,1.7,1.1,2.9c0,1.4-0.5,2.6-1.5,3.5s-2.3,1.3-4,1.3s-3.1-0.5-4.2-1.5
			s-1.6-2.3-1.6-3.8h2.7c0,0.9,0.3,1.6,0.8,2.2c0.5,0.5,1.3,0.8,2.2,0.8c0.9,0,1.6-0.2,2.1-0.6
			C1433.6,828.7,1433.9,828.1,1433.9,827.5z"/>
		<path class="st7" d="M1450.5,810.7c0,0.5-0.1,0.8-0.4,1.2c-0.3,0.3-0.6,0.5-1.2,0.5c-0.5,0-0.9-0.2-1.2-0.5
			c-0.3-0.3-0.4-0.7-0.4-1.2s0.1-0.9,0.4-1.2s0.6-0.5,1.2-0.5s0.9,0.2,1.2,0.5C1450.3,809.8,1450.5,810.2,1450.5,810.7z
			 M1450.3,831.7h-2.7v-16.6h2.7V831.7z"/>
		<path class="st7" d="M1462.6,827.5c0-0.6-0.2-1.1-0.7-1.5c-0.4-0.4-1.3-0.9-2.6-1.5c-1.5-0.6-2.5-1.1-3.1-1.6
			c-0.6-0.4-1-0.9-1.3-1.5c-0.3-0.5-0.4-1.2-0.4-2c0-1.4,0.5-2.5,1.5-3.4s2.3-1.3,3.8-1.3c1.6,0,2.9,0.5,3.9,1.4s1.5,2.2,1.5,3.6
			h-2.7c0-0.7-0.3-1.4-0.8-1.9s-1.1-0.8-1.9-0.8s-1.4,0.2-1.9,0.6c-0.5,0.4-0.7,1-0.7,1.7c0,0.6,0.2,1,0.5,1.3s1.1,0.8,2.4,1.3
			c2,0.8,3.4,1.6,4.1,2.3c0.7,0.8,1.1,1.7,1.1,2.9c0,1.4-0.5,2.6-1.5,3.5s-2.3,1.3-4,1.3s-3.1-0.5-4.2-1.5s-1.6-2.3-1.6-3.8h2.7
			c0,0.9,0.3,1.6,0.8,2.2s1.3,0.8,2.2,0.8c0.9,0,1.6-0.2,2.1-0.6C1462.4,828.7,1462.6,828.1,1462.6,827.5z"/>
		<path class="st7" d="M1488.1,824.2c0,2.6-0.5,4.6-1.4,5.9c-0.9,1.3-2.3,1.9-4,1.9s-3-0.6-3.9-1.9v8h-2.7v-23h2.5l0.1,1.8
			c0.9-1.4,2.2-2.2,3.9-2.2c1.8,0,3.2,0.6,4.1,1.9c0.9,1.3,1.4,3.2,1.4,5.7V824.2z M1485.4,822.7c0-1.9-0.3-3.2-0.9-4.1
			c-0.6-0.9-1.5-1.3-2.8-1.3s-2.3,0.7-3,2v8.7c0.7,1.3,1.7,1.9,3,1.9c1.2,0,2.1-0.4,2.7-1.3c0.6-0.9,0.9-2.2,0.9-4.1v-1.8H1485.4z"
			/>
	</g>
	<g class="st3">
		<path class="st7" d="M1498.5,817.6c-0.4-0.1-0.8-0.1-1.2-0.1c-1.4,0-2.4,0.8-2.9,2.3v11.9h-2.7v-16.6h2.6v1.7c0.7-1.3,1.8-2,3.1-2
			c0.4,0,0.8,0.1,1.1,0.2V817.6z"/>
	</g>
	<g class="st3">
		<path class="st7" d="M1500.3,822.6c0-2.4,0.6-4.3,1.8-5.7c1.2-1.4,2.7-2.1,4.7-2.1c1.9,0,3.5,0.7,4.6,2.1c1.2,1.4,1.8,3.2,1.8,5.6
			v1.8c0,2.4-0.6,4.3-1.8,5.7c-1.2,1.4-2.7,2.1-4.7,2.1c-1.9,0-3.5-0.7-4.6-2c-1.2-1.4-1.8-3.2-1.8-5.5V822.6z M1503,824.2
			c0,1.7,0.3,3.1,1,4s1.6,1.5,2.7,1.5c2.4,0,3.6-1.7,3.7-5.2v-1.9c0-1.7-0.3-3-1-4s-1.6-1.5-2.7-1.5s-2,0.5-2.7,1.5s-1,2.3-1,4
			V824.2z"/>
		<path class="st7" d="M1520.2,811.1v4h2.5v2.2h-2.5v10.3c0,0.7,0.1,1.2,0.3,1.5c0.2,0.3,0.6,0.5,1.1,0.5c0.4,0,0.7-0.1,1.1-0.2v2.3
			c-0.6,0.2-1.2,0.3-1.9,0.3c-1.1,0-1.9-0.4-2.5-1.2s-0.8-1.9-0.8-3.3v-10.3h-2.5V815h2.5v-4h2.7V811.1z"/>
		<path class="st7" d="M1531.9,832c-2.1,0-3.7-0.6-4.8-1.9c-1.1-1.2-1.7-3-1.7-5.4v-2c0-2.5,0.5-4.4,1.6-5.8s2.6-2.1,4.5-2.1
			s3.4,0.6,4.4,1.9c1,1.2,1.5,3.2,1.5,5.8v1.8h-9.3v0.4c0,1.8,0.3,3.1,1,3.9c0.7,0.8,1.6,1.2,2.9,1.2c0.8,0,1.5-0.2,2.1-0.5
			s1.2-0.8,1.7-1.4l1.4,1.7C1536.1,831.2,1534.3,832,1531.9,832z M1531.6,817.1c-1.1,0-2,0.4-2.5,1.2s-0.9,2-0.9,3.6h6.5v-0.4
			c-0.1-1.6-0.4-2.7-0.9-3.4C1533.4,817.5,1532.6,817.1,1531.6,817.1z"/>
		<path class="st7" d="M1546.5,829.7c0.9,0,1.6-0.3,2.2-0.8s0.8-1.4,0.9-2.4h2.6c-0.1,1.6-0.6,2.9-1.7,4s-2.4,1.6-3.9,1.6
			c-2.1,0-3.6-0.6-4.7-1.9c-1.1-1.3-1.6-3.2-1.6-5.8v-1.8c0-2.5,0.5-4.4,1.6-5.7s2.6-2,4.7-2c1.7,0,3.1,0.5,4,1.6
			c1,1.1,1.5,2.5,1.6,4.4h-2.6c-0.1-1.2-0.4-2.2-0.9-2.8s-1.3-0.9-2.2-0.9c-1.2,0-2.1,0.4-2.7,1.2s-0.9,2.1-0.9,3.9v2.1
			c0,2,0.3,3.3,0.9,4.2S1545.2,829.7,1546.5,829.7z"/>
		<path class="st7" d="M1558.8,811.1v4h2.5v2.2h-2.5v10.3c0,0.7,0.1,1.2,0.3,1.5c0.2,0.3,0.6,0.5,1.1,0.5c0.4,0,0.7-0.1,1.1-0.2v2.3
			c-0.6,0.2-1.2,0.3-1.9,0.3c-1.1,0-1.9-0.4-2.5-1.2s-0.8-1.9-0.8-3.3v-10.3h-2.5V815h2.5v-4h2.7V811.1z"/>
		<path class="st7" d="M1570.5,832c-2.1,0-3.7-0.6-4.8-1.9c-1.1-1.2-1.7-3-1.7-5.4v-2c0-2.5,0.5-4.4,1.6-5.8
			c1.1-1.4,2.6-2.1,4.5-2.1s3.4,0.6,4.4,1.9c1,1.2,1.5,3.2,1.5,5.8v1.8h-9.3v0.4c0,1.8,0.3,3.1,1,3.9s1.6,1.2,2.9,1.2
			c0.8,0,1.5-0.2,2.1-0.5s1.2-0.8,1.7-1.4l1.4,1.7C1574.7,831.2,1572.9,832,1570.5,832z M1570.2,817.1c-1.1,0-2,0.4-2.5,1.2
			s-0.9,2-0.9,3.6h6.5v-0.4c-0.1-1.6-0.4-2.7-0.9-3.4C1571.9,817.5,1571.2,817.1,1570.2,817.1z"/>
		<path class="st7" d="M1578.7,822.7c0-2.6,0.5-4.5,1.4-5.9c1-1.3,2.3-2,4.1-2c1.6,0,2.8,0.6,3.7,1.9v-8.6h2.7v23.6h-2.5l-0.1-1.8
			c-0.9,1.4-2.2,2.1-3.8,2.1c-1.7,0-3.1-0.7-4.1-2s-1.5-3.2-1.5-5.7v-1.6H1578.7z M1581.4,824.2c0,1.9,0.3,3.2,0.8,4.1
			c0.6,0.9,1.5,1.3,2.7,1.3c1.4,0,2.4-0.7,3-2v-8.4c-0.7-1.3-1.7-2-3-2c-1.2,0-2.2,0.4-2.7,1.3c-0.6,0.9-0.8,2.2-0.8,4V824.2z"/>
	</g>
	<g class="st3">
		<path class="st7" d="M1237.4,860.4c0-2.4,0.6-4.3,1.8-5.7c1.2-1.4,2.7-2.1,4.7-2.1c1.9,0,3.5,0.7,4.6,2.1c1.2,1.4,1.8,3.2,1.8,5.6
			v1.8c0,2.4-0.6,4.3-1.8,5.7c-1.2,1.4-2.7,2.1-4.7,2.1c-1.9,0-3.5-0.7-4.6-2c-1.2-1.4-1.8-3.2-1.8-5.5V860.4z M1240.1,862
			c0,1.7,0.3,3.1,1,4s1.6,1.5,2.7,1.5c2.4,0,3.6-1.7,3.7-5.2v-1.9c0-1.7-0.3-3-1-4s-1.6-1.5-2.7-1.5s-2,0.5-2.7,1.5s-1,2.3-1,4V862z
			"/>
		<path class="st7" d="M1260.7,855.4c-0.4-0.1-0.8-0.1-1.2-0.1c-1.4,0-2.4,0.8-2.9,2.3v11.9h-2.7v-16.6h2.6v1.7c0.7-1.3,1.8-2,3.1-2
			c0.4,0,0.8,0.1,1.1,0.2V855.4z"/>
		<path class="st7" d="M1273.3,854.6c1-1.3,2.4-2,4-2c2.9,0,4.4,2,4.5,5.9v11.1h-2.7v-10.9c0-1.3-0.2-2.2-0.7-2.8s-1.1-0.8-2-0.8
			c-0.7,0-1.3,0.2-1.8,0.7s-1,1-1.3,1.8v12.1h-2.7v-23.6h2.7V854.6z"/>
		<path class="st7" d="M1294.3,869.5c-0.2-0.4-0.3-1-0.4-1.8c-1,1.4-2.2,2.1-3.7,2.1s-2.7-0.4-3.5-1.3c-0.8-0.8-1.3-2-1.3-3.6
			c0-1.7,0.6-3,1.7-4s2.7-1.5,4.7-1.5h2v-1.8c0-1-0.2-1.7-0.7-2.1c-0.4-0.4-1.1-0.6-2-0.6c-0.8,0-1.5,0.2-2,0.7s-0.8,1.1-0.8,1.9
			h-2.7c0-0.9,0.3-1.7,0.8-2.4c0.5-0.8,1.2-1.4,2-1.8c0.9-0.4,1.8-0.7,2.8-0.7c1.7,0,3,0.4,3.9,1.3s1.3,2.1,1.4,3.7v8.4
			c0,1.3,0.2,2.4,0.5,3.3v0.2L1294.3,869.5L1294.3,869.5z M1290.7,867.3c0.7,0,1.3-0.2,1.9-0.6s1-0.8,1.3-1.4v-4h-1.5
			c-1.3,0-2.3,0.3-3.1,0.9c-0.7,0.6-1.1,1.3-1.1,2.3c0,0.9,0.2,1.6,0.6,2.1C1289.2,867.1,1289.8,867.3,1290.7,867.3z"/>
		<path class="st7" d="M1308.9,865.2c0-0.6-0.2-1.1-0.7-1.5c-0.4-0.4-1.3-0.9-2.6-1.5c-1.5-0.6-2.5-1.1-3.1-1.6
			c-0.6-0.4-1-0.9-1.3-1.5c-0.3-0.5-0.4-1.2-0.4-2c0-1.4,0.5-2.5,1.5-3.4s2.3-1.3,3.8-1.3c1.6,0,2.9,0.5,3.9,1.4s1.5,2.2,1.5,3.6
			h-2.7c0-0.7-0.3-1.4-0.8-1.9s-1.1-0.8-1.9-0.8s-1.4,0.2-1.9,0.6c-0.5,0.4-0.7,1-0.7,1.7c0,0.6,0.2,1,0.5,1.3s1.1,0.8,2.4,1.3
			c2,0.8,3.4,1.6,4.1,2.3c0.7,0.8,1.1,1.7,1.1,2.9c0,1.4-0.5,2.6-1.5,3.5s-2.3,1.3-4,1.3s-3.1-0.5-4.2-1.5s-1.6-2.3-1.6-3.8h2.7
			c0,0.9,0.3,1.6,0.8,2.2c0.5,0.5,1.3,0.8,2.2,0.8c0.9,0,1.6-0.2,2.1-0.6C1308.7,866.5,1308.9,865.9,1308.9,865.2z"/>
		<path class="st7" d="M1334.4,862c0,2.6-0.5,4.5-1.4,5.9s-2.3,2-4.1,2c-1.8,0-3.1-0.8-4-2.3l-0.1,2h-2.5V846h2.7v8.8
			c0.9-1.4,2.2-2.1,3.8-2.1c1.8,0,3.2,0.6,4.1,1.9s1.4,3.2,1.4,5.8L1334.4,862L1334.4,862z M1331.7,860.4c0-2-0.3-3.4-0.8-4.2
			s-1.4-1.3-2.7-1.3c-1.4,0-2.4,0.8-3.1,2.3v7.9c0.7,1.5,1.7,2.2,3.2,2.2c1.2,0,2.1-0.4,2.6-1.3c0.5-0.9,0.8-2.2,0.8-4V860.4z"/>
		<path class="st7" d="M1343.9,869.8c-2.1,0-3.7-0.6-4.8-1.9c-1.1-1.2-1.7-3-1.7-5.4v-2c0-2.5,0.5-4.4,1.6-5.8s2.6-2.1,4.5-2.1
			s3.4,0.6,4.4,1.9c1,1.2,1.5,3.2,1.5,5.8v1.8h-9.3v0.4c0,1.8,0.3,3.1,1,3.9c0.7,0.8,1.6,1.2,2.9,1.2c0.8,0,1.5-0.2,2.1-0.5
			s1.2-0.8,1.7-1.4l1.4,1.7C1348.1,869,1346.3,869.8,1343.9,869.8z M1343.6,854.9c-1.1,0-2,0.4-2.5,1.2s-0.9,2-0.9,3.6h6.5v-0.4
			c-0.1-1.6-0.4-2.7-0.9-3.4C1345.3,855.2,1344.6,854.9,1343.6,854.9z"/>
		<path class="st7" d="M1358.6,869.8c-2.1,0-3.7-0.6-4.8-1.9c-1.1-1.2-1.7-3-1.7-5.4v-2c0-2.5,0.5-4.4,1.6-5.8
			c1.1-1.4,2.6-2.1,4.5-2.1s3.4,0.6,4.4,1.9c1,1.2,1.5,3.2,1.5,5.8v1.8h-9.3v0.4c0,1.8,0.3,3.1,1,3.9s1.6,1.2,2.9,1.2
			c0.8,0,1.5-0.2,2.1-0.5s1.2-0.8,1.7-1.4l1.4,1.7C1362.8,869,1361,869.8,1358.6,869.8z M1358.3,854.9c-1.1,0-2,0.4-2.5,1.2
			s-0.9,2-0.9,3.6h6.5v-0.4c-0.1-1.6-0.4-2.7-0.9-3.4C1360.1,855.2,1359.3,854.9,1358.3,854.9z"/>
		<path class="st7" d="M1370,852.9l0.1,1.8c1.1-1.4,2.4-2.1,4-2.1c2.9,0,4.4,2,4.5,5.9v11.1h-2.7v-10.9c0-1.3-0.2-2.2-0.7-2.8
			s-1.1-0.8-2-0.8c-0.7,0-1.3,0.2-1.8,0.7s-1,1-1.3,1.8v12.1h-2.7v-16.6h2.6V852.9z"/>
		<path class="st7" d="M1395.8,869.8c-2.1,0-3.7-0.6-4.8-1.9c-1.1-1.2-1.7-3-1.7-5.4v-2c0-2.5,0.5-4.4,1.6-5.8
			c1.1-1.4,2.6-2.1,4.5-2.1s3.4,0.6,4.4,1.9c1,1.2,1.5,3.2,1.5,5.8v1.8h-9.3v0.4c0,1.8,0.3,3.1,1,3.9s1.6,1.2,2.9,1.2
			c0.8,0,1.5-0.2,2.1-0.5s1.2-0.8,1.7-1.4l1.4,1.7C1400,869,1398.2,869.8,1395.8,869.8z M1395.5,854.9c-1.1,0-2,0.4-2.5,1.2
			s-0.9,2-0.9,3.6h6.5v-0.4c-0.1-1.6-0.4-2.7-0.9-3.4C1397.3,855.2,1396.5,854.9,1395.5,854.9z"/>
		<path class="st7" d="M1409.4,858.9l2.8-6.1h3.2l-4.5,8.2l4.6,8.4h-3.1l-2.9-6.2l-3,6.2h-3.1l4.6-8.4l-4.5-8.2h3.1L1409.4,858.9z"
			/>
		<path class="st7" d="M1430.4,862c0,2.6-0.5,4.6-1.4,5.9c-0.9,1.3-2.3,1.9-4,1.9s-3-0.6-3.9-1.9v8h-2.7v-23h2.5l0.1,1.8
			c0.9-1.4,2.2-2.2,3.9-2.2c1.8,0,3.2,0.6,4.1,1.9c0.9,1.3,1.4,3.2,1.4,5.7V862z M1427.7,860.4c0-1.9-0.3-3.2-0.9-4.1
			c-0.6-0.9-1.5-1.3-2.8-1.3s-2.3,0.7-3,2v8.7c0.7,1.3,1.7,1.9,3,1.9c1.2,0,2.1-0.4,2.7-1.3c0.6-0.9,0.9-2.2,0.9-4.1v-1.8H1427.7z"
			/>
		<path class="st7" d="M1442.5,869.5c-0.2-0.4-0.3-1-0.4-1.8c-1,1.4-2.2,2.1-3.7,2.1s-2.7-0.4-3.5-1.3c-0.8-0.8-1.3-2-1.3-3.6
			c0-1.7,0.6-3,1.7-4s2.7-1.5,4.7-1.5h2v-1.8c0-1-0.2-1.7-0.7-2.1c-0.4-0.4-1.1-0.6-2-0.6c-0.8,0-1.5,0.2-2,0.7s-0.8,1.1-0.8,1.9
			h-2.7c0-0.9,0.3-1.7,0.8-2.4c0.5-0.8,1.2-1.4,2-1.8c0.9-0.4,1.8-0.7,2.8-0.7c1.7,0,3,0.4,3.9,1.3s1.3,2.1,1.4,3.7v8.4
			c0,1.3,0.2,2.4,0.5,3.3v0.2L1442.5,869.5L1442.5,869.5z M1438.9,867.3c0.7,0,1.3-0.2,1.9-0.6s1-0.8,1.3-1.4v-4h-1.5
			c-1.3,0-2.3,0.3-3.1,0.9c-0.7,0.6-1.1,1.3-1.1,2.3c0,0.9,0.2,1.6,0.6,2.1C1437.3,867.1,1438,867.3,1438.9,867.3z"/>
		<path class="st7" d="M1451.6,852.9l0.1,1.8c1.1-1.4,2.4-2.1,4-2.1c2.9,0,4.4,2,4.5,5.9v11.1h-2.7v-10.9c0-1.3-0.2-2.2-0.7-2.8
			s-1.1-0.8-2-0.8c-0.7,0-1.3,0.2-1.8,0.7s-1,1-1.3,1.8v12.1h-2.7v-16.6h2.6V852.9z"/>
		<path class="st7" d="M1463.7,860.4c0-2.6,0.5-4.5,1.4-5.9c1-1.3,2.3-2,4.1-2c1.6,0,2.8,0.6,3.7,1.9v-8.6h2.7v23.6h-2.5l-0.1-1.8
			c-0.9,1.4-2.2,2.1-3.8,2.1c-1.7,0-3.1-0.7-4.1-2s-1.5-3.2-1.5-5.7v-1.6H1463.7z M1466.4,862c0,1.9,0.3,3.2,0.8,4.1
			c0.6,0.9,1.5,1.3,2.7,1.3c1.4,0,2.4-0.7,3-2V857c-0.7-1.3-1.7-2-3-2c-1.2,0-2.2,0.4-2.7,1.3c-0.6,0.9-0.8,2.2-0.8,4V862z"/>
		<path class="st7" d="M1485.8,869.8c-2.1,0-3.7-0.6-4.8-1.9c-1.1-1.2-1.7-3-1.7-5.4v-2c0-2.5,0.5-4.4,1.6-5.8s2.6-2.1,4.5-2.1
			s3.4,0.6,4.4,1.9c1,1.2,1.5,3.2,1.5,5.8v1.8h-9.3v0.4c0,1.8,0.3,3.1,1,3.9c0.7,0.8,1.6,1.2,2.9,1.2c0.8,0,1.5-0.2,2.1-0.5
			s1.2-0.8,1.7-1.4l1.4,1.7C1490,869,1488.2,869.8,1485.8,869.8z M1485.5,854.9c-1.1,0-2,0.4-2.5,1.2s-0.9,2-0.9,3.6h6.5v-0.4
			c-0.1-1.6-0.4-2.7-0.9-3.4C1487.3,855.2,1486.5,854.9,1485.5,854.9z"/>
		<path class="st7" d="M1494,860.4c0-2.6,0.5-4.5,1.4-5.9c1-1.3,2.3-2,4.1-2c1.6,0,2.8,0.6,3.7,1.9v-8.6h2.7v23.6h-2.5l-0.1-1.8
			c-0.9,1.4-2.2,2.1-3.8,2.1c-1.7,0-3.1-0.7-4-2c-1-1.3-1.5-3.2-1.5-5.7L1494,860.4L1494,860.4z M1496.8,862c0,1.9,0.3,3.2,0.8,4.1
			s1.5,1.3,2.7,1.3c1.4,0,2.4-0.7,3-2V857c-0.7-1.3-1.7-2-3-2c-1.2,0-2.2,0.4-2.7,1.3c-0.6,0.9-0.8,2.2-0.8,4V862z"/>
	</g>
	<polygon class="st5" points="1189.8,896 1219.5,912.7 1219.5,946.2 1189.2,962.8 1158.6,946.1 1158.6,912.7 	"/>
	<polygon class="st2" points="1190.2,767.7 1219.9,784.3 1219.9,817.9 1189.6,834.4 1159,817.7 1159,784.3 	"/>
</g>
</svg>
