<?xml version="1.0" encoding="utf-8"?>
<!-- Generator: Adobe Illustrator 27.0.1, SVG Export Plug-In . SVG Version: 6.00 Build 0)  -->
<svg version="1.1" id="Layer_1" xmlns="http://www.w3.org/2000/svg" xmlns:xlink="http://www.w3.org/1999/xlink" x="0px" y="0px"
	 viewBox="0 0 1920 1080" style="enable-background:new 0 0 1920 1080;" xml:space="preserve">
<style type="text/css">
	.st0{fill:#FEFEFE;}
	.st1{fill-rule:evenodd;clip-rule:evenodd;fill:#1F425A;}
	.st2{fill-rule:evenodd;clip-rule:evenodd;fill:#1F4257;}
	.st3{enable-background:new    ;}
	.st4{fill:#FFFFFF;}
	.st5{fill-rule:evenodd;clip-rule:evenodd;fill:#802521;}
	.st6{fill:#802521;}
	.st7{fill:#A5A5A0;}
	.st8{fill:#1F4257;}
</style>
<path class="st0" d="M116.4,203.6l0.2,0.2c0,0-0.1,0-0.1,0C116.4,203.7,116.4,203.7,116.4,203.6L116.4,203.6L116.4,203.6z"/>
<polygon class="st1" points="1593.6,37.5 1649.3,67.9 1649.3,129.6 1594.6,160.4 1537.2,129.6 1537.2,68.2 "/>
<polygon class="st2" points="251,37.5 305.8,68.8 305.8,131.9 250.1,163 193.6,131.6 193.6,68.8 "/>
<g class="st3">
	<path class="st4" d="M243.7,105.3h-9l-2.1,7h-3.4l8.6-26.6h2.9l8.6,26.6h-3.4L243.7,105.3z M235.6,102.5h7.2l-3.6-12.1L235.6,102.5
		z"/>
	<path class="st4" d="M258.8,100l-2.6,3.2v9.1h-3.3V85.7h3.3v12.8l2.2-2.9l7.2-9.9h4L261,97.4l9.3,14.9h-4L258.8,100z"/>
</g>
<polygon class="st1" points="1413,139 1467.7,170.4 1467.7,233.5 1411.9,264.5 1355.5,233.1 1355.5,170.4 "/>
<polygon class="st1" points="1533.2,139 1587.9,170.4 1587.9,233.5 1532.2,264.5 1475.7,233.1 1475.7,170.4 "/>
<polygon class="st1" points="494.2,243.1 548.9,273.8 548.9,335.6 493.1,366 436.7,335.3 436.7,273.8 "/>
<g class="st3">
	<path class="st4" d="M475.1,291.4L482,313l6.9-21.7h4.3v26.6h-3.3v-10.4l0.3-10.4l-7,20.7h-2.6l-6.9-20.6l0.3,10.3v10.4h-3.3v-26.6
		H475.1z"/>
	<path class="st4" d="M514.6,294.2h-7v23.7h-3.3v-23.7h-7v-2.9h17.3V294.2z"/>
</g>
<polygon class="st5" points="617,243.1 671.8,273.8 671.8,335.6 616,366 559.6,335.3 559.6,273.8 "/>
<polygon class="st2" points="1351.6,243.1 1406.3,273.8 1406.3,335.6 1350.5,366 1294.1,335.3 1294.1,273.8 "/>
<polygon class="st1" points="739.9,243.1 794.6,273.9 794.6,335.6 738.9,366 682.4,335.3 682.4,273.9 "/>
<polygon class="st5" points="860.4,243.1 914.8,273.5 914.8,335.3 861.4,366 805.3,335.3 805.3,273.9 "/>
<polygon class="st2" points="1473.1,243.1 1526.5,273.9 1526.5,335.6 1472,366 1417,335.3 1417,273.9 "/>
<polygon class="st2" points="1593.6,243.1 1649.3,273.5 1649.3,335.3 1594.6,366 1537.2,335.3 1537.2,273.9 "/>
<polygon class="st1" points="372.5,245.8 426,276.5 426,338.2 371.6,368.7 316.5,337.9 316.5,276.5 "/>
<g class="st3">
	<path class="st4" d="M352.3,309.6l0.3,3l0.5-2.6l4.3-18.5h2.8l4.1,18.5l0.5,2.7l0.4-3.1l3.2-18.2h3.3l-5.3,26.6h-3l-4.4-19.4
		l-0.3-1.6l-0.3,1.6l-4.6,19.4h-3l-5.3-26.6h3.3L352.3,309.6z"/>
	<path class="st4" d="M385.8,311h-9l-2.1,7h-3.4l8.6-26.6h2.9l8.6,26.6h-3.4L385.8,311z M377.7,308.1h7.2l-3.6-12.1L377.7,308.1z"/>
</g>
<polygon class="st5" points="1105.8,245.8 1160.6,276.5 1160.6,338.2 1104.8,368.7 1048.4,337.9 1048.4,276.5 "/>
<polygon class="st5" points="431.7,347.3 487.5,377.7 487.5,439.5 432.7,470.2 375.3,439.5 375.3,378 "/>
<polygon class="st5" points="554.6,347.3 610.3,377.7 610.3,439.5 555.6,470.2 498.1,439.5 498.1,378 "/>
<polygon class="st5" points="678.5,347.3 733.2,378 733.2,439.8 677.4,470.2 621,439.5 621,378 "/>
<polygon class="st5" points="1166.2,347.3 1222,377.7 1222,439.5 1167.2,470.2 1109.8,439.5 1109.8,378 "/>
<polygon class="st5" points="1289.1,347.3 1344.8,377.7 1344.8,439.5 1290.1,470.2 1232.7,439.5 1232.7,378 "/>
<polygon class="st2" points="1413,347.3 1467.7,378 1467.7,439.8 1411.9,470.2 1355.5,439.5 1355.5,378 "/>
<polygon class="st5" points="800,347.3 853.4,378 853.4,439.8 799,470.2 743.9,439.5 743.9,378 "/>
<polygon class="st2" points="1533.2,347.3 1587.9,378 1587.9,439.8 1532.2,470.2 1475.7,439.5 1475.7,378 "/>
<polygon class="st5" points="1043.4,347.3 1099.1,378.4 1099.1,441.5 1044.4,472.9 986.9,441.5 986.9,378.7 "/>
<polygon class="st2" points="921.5,347.3 976.2,378.7 976.2,441.8 920.5,472.9 864.1,441.5 864.1,378.7 "/>
<polygon class="st1" points="494.2,448.8 548.9,480.1 548.9,543.3 493.1,574.4 436.7,543 436.7,480.1 "/>
<polygon class="st1" points="617,448.8 671.8,480.1 671.8,543.3 616,574.4 559.6,543 559.6,480.1 "/>
<polygon class="st1" points="1228.7,448.8 1283.4,480.1 1283.4,543.3 1227.7,574.4 1171.2,543 1171.2,480.1 "/>
<polygon class="st1" points="1351.6,448.8 1406.3,480.1 1406.3,543.3 1350.5,574.4 1294.1,543 1294.1,480.1 "/>
<polygon class="st5" points="739.9,448.8 794.6,480.2 794.6,543.3 738.9,574.4 682.4,543 682.4,480.2 "/>
<polygon class="st5" points="860.4,448.8 914.8,479.9 914.8,543 861.4,574.4 805.3,543 805.3,480.2 "/>
<polygon class="st1" points="372.5,451.5 426,482.2 426,543.9 371.6,574.4 316.5,543.6 316.5,482.2 "/>
<polygon class="st5" points="984.2,451.5 1037.7,482.2 1037.7,543.9 983.3,574.4 928.2,543.6 928.2,482.2 "/>
<polygon class="st5" points="1105.8,451.5 1160.6,482.2 1160.6,543.9 1104.8,574.4 1048.4,543.6 1048.4,482.2 "/>
<polygon class="st2" points="431.7,553 487.5,583.4 487.5,645.2 432.7,675.9 375.3,645.2 375.3,583.7 "/>
<polygon class="st5" points="554.6,553 610.3,583.4 610.3,645.2 555.6,675.9 498.1,645.2 498.1,583.7 "/>
<polygon class="st5" points="678.5,553 733.2,583.7 733.2,645.5 677.4,675.9 621,645.2 621,583.7 "/>
<polygon class="st2" points="1166.2,553 1222,583.4 1222,645.2 1167.2,675.9 1109.8,645.2 1109.8,583.7 "/>
<polygon class="st5" points="1289.1,555.7 1344.8,586 1344.8,647.8 1290.1,678.5 1232.7,647.8 1232.7,586.4 "/>
<polygon class="st2" points="800,553 853.4,584.4 853.4,647.5 799,678.5 743.9,647.2 743.9,584.4 "/>
<polygon class="st5" points="1043.4,553 1099.1,584 1099.1,647.2 1044.4,678.5 986.9,647.2 986.9,584.4 "/>
<polygon class="st5" points="921.5,555.7 976.2,586.4 976.2,648.1 920.5,678.5 864.1,647.8 864.1,586.4 "/>
<polygon class="st2" points="1656.1,555.7 1710.8,586.4 1710.8,648.1 1655,678.5 1598.6,647.8 1598.6,586.4 "/>
<polygon class="st2" points="617,657.2 671.8,687.8 671.8,749.6 616,780 559.6,749.3 559.6,687.8 "/>
<polygon class="st5" points="1228.7,657.2 1283.4,688.5 1283.4,751.6 1227.7,782.7 1171.2,751.3 1171.2,688.5 "/>
<polygon class="st5" points="739.9,657.2 794.6,687.9 794.6,749.6 738.9,780 682.4,749.3 682.4,687.9 "/>
<polygon class="st5" points="860.4,657.2 914.8,687.5 914.8,749.3 861.4,780 805.3,749.3 805.3,687.9 "/>
<polygon class="st5" points="984.2,657.2 1037.7,688.5 1037.7,751.6 983.3,782.7 928.2,751.3 928.2,688.5 "/>
<polygon class="st5" points="1105.8,659.8 1160.6,690.5 1160.6,752.2 1104.8,782.7 1048.4,751.9 1048.4,690.5 "/>
<polygon class="st5" points="678.5,758.7 733.2,790 733.2,853.2 677.4,884.2 621,852.8 621,790 "/>
<polygon class="st5" points="1166.2,761.3 1222,791.7 1222,853.5 1167.2,884.2 1109.8,853.5 1109.8,792 "/>
<polygon class="st2" points="1228.7,865.5 1283.4,896.2 1283.4,958 1227.7,988.4 1171.2,957.7 1171.2,896.2 "/>
<polygon class="st2" points="251,862.8 305.8,894.2 305.8,957.2 250.1,988.4 193.6,956.9 193.6,894.2 "/>
<g class="st3">
	<path class="st4" d="M613,317.9h-3.4L599,297.5v20.5h-3.4v-26.6h3.4l10.7,20.6v-20.6h3.3V317.9z"/>
	<path class="st4" d="M618.8,317.9v-26.6h6.3c3.1,0,5.5,1,7.2,2.9s2.6,4.7,2.6,8.2v4.5c0,3.5-0.9,6.2-2.6,8.2s-4.3,2.9-7.6,2.9
		H618.8z M622.2,294.2v20.8h2.7c2.3,0,4.1-0.7,5.1-2c1.1-1.3,1.6-3.3,1.7-6v-4.7c0-2.8-0.5-4.9-1.6-6.2s-2.7-2-4.9-2H622.2z"/>
</g>
<g class="st3">
	<path class="st4" d="M717.9,291.4l6.9,21.7l6.9-21.7h4.3v26.6h-3.3v-10.4l0.3-10.4l-7,20.7h-2.6l-6.9-20.6l0.3,10.3v10.4h-3.3
		v-26.6H717.9z"/>
	<path class="st4" d="M759.2,317.9h-3.4l-10.6-20.5v20.5h-3.4v-26.6h3.4l10.7,20.6v-20.6h3.3V317.9z"/>
</g>
<g class="st3">
	<path class="st4" d="M845.4,309.7l0.3,3l0.5-2.6l4.3-18.5h2.8l4.1,18.5l0.5,2.7l0.4-3.1l3.2-18.2h3.3l-5.3,26.6h-3l-4.4-19.4
		l-0.3-1.6l-0.3,1.6l-4.6,19.4h-3l-5.3-26.6h3.3L845.4,309.7z"/>
	<path class="st4" d="M872.3,318.1H869v-26.6h3.3V318.1z"/>
</g>
<g class="st3">
	<path class="st4" d="M1093.8,291.5l6.9,21.7l6.9-21.7h4.3v26.6h-3.3v-10.4l0.3-10.4l-7,20.7h-2.6l-6.9-20.6l0.3,10.3v10.4h-3.3
		v-26.6H1093.8z"/>
	<path class="st4" d="M1121.2,318.1h-3.3v-26.6h3.3V318.1z"/>
</g>
<g class="st3">
	<path class="st4" d="M1347.3,317.9h-3.4l-10.6-20.5v20.5h-3.4v-26.6h3.4l10.7,20.6v-20.6h3.3V317.9z"/>
	<path class="st4" d="M1360,304.7l5.4-13.3h3.8l-7.6,16.7v9.9h-3.3V308l-7.6-16.7h3.8L1360,304.7z"/>
</g>
<g class="st3">
	<path class="st4" d="M1454.1,291.4l6.9,21.7l6.9-21.7h4.3v26.6h-3.3v-10.4l0.3-10.4l-7,20.7h-2.6l-6.9-20.6l0.3,10.3v10.4h-3.3
		v-26.6H1454.1z"/>
	<path class="st4" d="M1490.4,311h-9l-2.1,7h-3.4l8.6-26.6h2.9l8.6,26.6h-3.4L1490.4,311z M1482.3,308.1h7.2l-3.6-12.1L1482.3,308.1
		z"/>
</g>
<g class="st3">
	<path class="st4" d="M1399.4,210.6l6.1-21.5h3.7l-8.3,26.6h-2.9l-8.3-26.6h3.7L1399.4,210.6z"/>
	<path class="st4" d="M1428.3,192h-7v23.7h-3.3V192h-7v-2.9h17.3V192z"/>
</g>
<g class="st3">
	<path class="st4" d="M1526,215.7h-3.4l-10.6-20.5v20.5h-3.4v-26.6h3.4l10.7,20.6v-20.6h3.3V215.7z"/>
	<path class="st4" d="M1549.2,215.7h-3.4v-12.3h-10.7v12.3h-3.3v-26.6h3.3v11.4h10.7v-11.4h3.4V215.7z"/>
</g>
<g class="st3">
	<path class="st4" d="M1579.1,85.7l6.9,21.7l6.9-21.7h4.3v26.6h-3.3v-10.4l0.3-10.4l-7,20.7h-2.6l-6.9-20.6l0.3,10.3v10.4h-3.3V85.7
		H1579.1z"/>
	<path class="st4" d="M1615.8,100h-9.4v9.4h11v2.9H1603V85.7h14.1v2.9h-10.8v8.6h9.4V100z"/>
</g>
<g class="st3">
	<path class="st4" d="M420.7,423.2h-3.3v-26.6h3.3V423.2z"/>
	<path class="st4" d="M425.1,423.2v-26.6h6.3c3.1,0,5.5,1,7.2,2.9s2.6,4.7,2.6,8.2v4.5c0,3.5-0.9,6.2-2.6,8.2s-4.3,2.9-7.6,2.9
		H425.1z M428.4,399.5v20.8h2.7c2.3,0,4.1-0.7,5.1-2c1.1-1.3,1.6-3.3,1.7-6v-4.7c0-2.8-0.5-4.9-1.6-6.2s-2.7-2-4.9-2H428.4z"/>
</g>
<g class="st3">
	<path class="st4" d="M537.6,414.9l0.3,3l0.5-2.6l4.3-18.5h2.8l4.1,18.5l0.5,2.7l0.4-3.1l3.2-18.2h3.3l-5.3,26.6h-3l-4.4-19.4
		l-0.3-1.6l-0.3,1.6l-4.6,19.4h-3l-5.3-26.6h3.3L537.6,414.9z"/>
	<path class="st4" d="M566.4,410l5.4-13.3h3.8l-7.6,16.7v9.9h-3.3v-9.9l-7.6-16.7h3.8L566.4,410z"/>
</g>
<g class="st3">
	<path class="st4" d="M670.2,415.3c0-1.3-0.4-2.3-1.1-3s-2-1.4-3.9-2.1c-1.9-0.7-3.3-1.4-4.3-2.1c-1-0.7-1.7-1.6-2.2-2.5
		c-0.5-0.9-0.7-2-0.7-3.2c0-2.1,0.7-3.8,2.1-5.2c1.4-1.4,3.2-2,5.5-2c1.6,0,2.9,0.3,4.2,1c1.2,0.7,2.2,1.7,2.8,2.9
		c0.7,1.2,1,2.6,1,4.1h-3.4c0-1.6-0.4-2.9-1.2-3.8c-0.8-0.9-1.9-1.4-3.4-1.4c-1.4,0-2.4,0.4-3.1,1.1c-0.7,0.8-1.1,1.8-1.1,3.2
		c0,1.1,0.4,2.1,1.2,2.8s2,1.4,3.7,2c2.6,0.9,4.5,1.9,5.6,3.2c1.1,1.3,1.7,2.9,1.7,5c0,2.2-0.7,3.9-2.1,5.2
		c-1.4,1.3-3.3,1.9-5.7,1.9c-1.5,0-3-0.3-4.3-1c-1.3-0.7-2.3-1.6-3.1-2.8c-0.7-1.2-1.1-2.6-1.1-4.2h3.4c0,1.6,0.5,2.9,1.4,3.8
		c0.9,0.9,2.2,1.4,3.8,1.4c1.5,0,2.6-0.4,3.3-1.1C669.8,417.6,670.2,416.6,670.2,415.3z"/>
	<path class="st4" d="M676.4,422v-26.6h6.3c3.1,0,5.5,1,7.2,2.9s2.6,4.7,2.6,8.2v4.5c0,3.5-0.9,6.2-2.6,8.2s-4.3,2.9-7.6,2.9H676.4z
		 M679.8,398.3v20.8h2.7c2.3,0,4.1-0.7,5.1-2c1.1-1.3,1.6-3.3,1.7-6v-4.7c0-2.8-0.5-4.9-1.6-6.2s-2.7-2-4.9-2H679.8z"/>
</g>
<g class="st3">
	<path class="st4" d="M790.1,423.4h-3.3v-26.6h3.3V423.4z"/>
	<path class="st4" d="M806.9,416.4h-9l-2.1,7h-3.4l8.6-26.6h2.9l8.6,26.6H809L806.9,416.4z M798.8,413.6h7.2l-3.6-12.1L798.8,413.6z
		"/>
</g>
<g class="st3">
	<path class="st4" d="M372.1,516.9c0,3.6-0.8,6.4-2.3,8.4c-1.5,2-3.7,2.9-6.6,2.9c-2.7,0-4.9-1-6.5-2.9c-1.6-1.9-2.4-4.6-2.5-8.1v-5
		c0-3.6,0.8-6.3,2.4-8.4c1.6-2,3.8-3,6.6-3c2.8,0,5,1,6.5,2.9c1.6,1.9,2.4,4.7,2.4,8.3V516.9z M368.8,512.3c0-2.8-0.5-4.9-1.4-6.3
		s-2.3-2.1-4.2-2.1c-1.8,0-3.2,0.7-4.2,2.1c-0.9,1.4-1.4,3.4-1.4,6.1v4.8c0,2.7,0.5,4.8,1.4,6.2c0.9,1.4,2.4,2.1,4.2,2.1
		s3.3-0.7,4.2-2s1.4-3.3,1.4-6V512.3z"/>
	<path class="st4" d="M383.8,517.1h-4.7v10.8h-3.4v-26.6h7.4c2.6,0,4.6,0.7,5.9,2c1.3,1.4,2,3.3,2,6c0,1.6-0.4,3.1-1.1,4.3
		c-0.7,1.2-1.8,2.1-3.1,2.8l5.1,11.3v0.2h-3.6L383.8,517.1z M379.1,514.3h4.1c1.4,0,2.5-0.5,3.4-1.4c0.8-0.9,1.3-2.1,1.3-3.6
		c0-3.4-1.5-5.1-4.6-5.1h-4V514.3z"/>
</g>
<g class="st3">
	<path class="st4" d="M491.1,527.9h-3.4l-10.6-20.5v20.5h-3.4v-26.6h3.4l10.7,20.6v-20.6h3.3V527.9z"/>
	<path class="st4" d="M503,522.8l6.1-21.5h3.7l-8.3,26.6h-2.9l-8.3-26.6h3.7L503,522.8z"/>
</g>
<g class="st3">
	<path class="st4" d="M429,618.3c-0.1,2.8-0.9,5-2.4,6.5c-1.5,1.5-3.5,2.3-6.2,2.3c-2.7,0-4.8-1-6.4-3c-1.6-2-2.4-4.8-2.4-8.2V611
		c0-3.5,0.8-6.2,2.4-8.2c1.6-2,3.8-3,6.6-3c2.6,0,4.6,0.8,6,2.3s2.2,3.7,2.3,6.6h-3.4c-0.1-2.2-0.6-3.7-1.4-4.6
		c-0.8-0.9-1.9-1.4-3.5-1.4c-1.8,0-3.2,0.7-4.2,2.1c-1,1.4-1.5,3.5-1.5,6.2v4.9c0,2.7,0.5,4.8,1.4,6.2c0.9,1.4,2.2,2.2,4,2.2
		s3-0.4,3.8-1.3c0.8-0.9,1.2-2.4,1.4-4.7H429z"/>
	<path class="st4" d="M444.5,619.8h-9l-2.1,7H430l8.6-26.6h2.9l8.6,26.6h-3.4L444.5,619.8z M436.4,616.9h7.2l-3.6-12.1L436.4,616.9z
		"/>
</g>
<g class="st3">
	<path class="st4" d="M546.9,620.2h-9l-2.1,7h-3.4l8.6-26.6h2.9l8.6,26.6H549L546.9,620.2z M538.8,617.3h7.2l-3.6-12.1L538.8,617.3z
		"/>
	<path class="st4" d="M557.1,624.2h12.6v2.9h-16.3v-2.6l12.1-21.1h-12v-2.9h15.7v2.6L557.1,624.2z"/>
</g>
<g class="st3">
	<path class="st4" d="M615.9,519.4c-0.1,2.8-0.9,5-2.4,6.5c-1.5,1.5-3.5,2.3-6.2,2.3c-2.7,0-4.8-1-6.4-3c-1.6-2-2.4-4.8-2.4-8.2
		v-4.8c0-3.5,0.8-6.2,2.4-8.2c1.6-2,3.8-3,6.6-3c2.6,0,4.6,0.8,6,2.3c1.4,1.5,2.2,3.7,2.3,6.6h-3.4c-0.1-2.2-0.6-3.7-1.4-4.6
		s-1.9-1.4-3.5-1.4c-1.8,0-3.2,0.7-4.2,2.1c-1,1.4-1.5,3.5-1.5,6.2v4.9c0,2.7,0.5,4.8,1.4,6.2s2.2,2.2,4,2.2s3-0.4,3.8-1.3
		c0.8-0.9,1.2-2.4,1.4-4.7H615.9z"/>
	<path class="st4" d="M636.2,516.9c0,3.6-0.8,6.4-2.3,8.4c-1.5,2-3.7,2.9-6.6,2.9c-2.7,0-4.9-1-6.5-2.9c-1.6-1.9-2.4-4.6-2.5-8.1v-5
		c0-3.6,0.8-6.3,2.4-8.4c1.6-2,3.8-3,6.6-3c2.8,0,5,1,6.5,2.9c1.6,1.9,2.4,4.7,2.4,8.3V516.9z M632.8,512.3c0-2.8-0.5-4.9-1.4-6.3
		s-2.3-2.1-4.2-2.1c-1.8,0-3.2,0.7-4.2,2.1c-0.9,1.4-1.4,3.4-1.4,6.1v4.8c0,2.7,0.5,4.8,1.4,6.2c0.9,1.4,2.4,2.1,4.2,2.1
		s3.3-0.7,4.2-2s1.4-3.3,1.4-6V512.3z"/>
</g>
<g class="st3">
	<path class="st4" d="M737.8,527.9h-3.4l-10.6-20.5v20.5h-3.4v-26.6h3.4l10.7,20.6v-20.6h3.3V527.9z"/>
	<path class="st4" d="M754.8,515.6h-9.4v9.4h11v2.9h-14.3v-26.6h14.1v2.9h-10.8v8.6h9.4V515.6z"/>
</g>
<g class="st3">
	<path class="st4" d="M676.3,600.2v18.9c0,2.5-0.8,4.5-2.2,5.9c-1.4,1.4-3.4,2.1-6,2.1c-2.6,0-4.6-0.7-6-2.1s-2.1-3.4-2.1-6v-18.9
		h3.3v18.8c0,1.8,0.4,3.1,1.1,4c0.8,0.9,2,1.3,3.7,1.3c1.7,0,2.9-0.4,3.7-1.3c0.8-0.9,1.1-2.2,1.1-4v-18.8H676.3z"/>
	<path class="st4" d="M695.5,603.1h-7v23.7h-3.3v-23.7h-7v-2.9h17.3V603.1z"/>
</g>
<g class="st3">
	<path class="st4" d="M787.1,614.5l-2.6,3.2v9.1h-3.3v-26.6h3.3V613l2.2-2.9l7.2-9.9h4l-8.6,11.7l9.3,14.9h-4L787.1,614.5z"/>
	<path class="st4" d="M811.7,620.1c0-1.3-0.4-2.3-1.1-3c-0.7-0.7-2-1.4-3.9-2.1s-3.3-1.4-4.3-2.1c-1-0.7-1.7-1.6-2.2-2.5
		c-0.5-0.9-0.7-2-0.7-3.2c0-2.1,0.7-3.8,2.1-5.2c1.4-1.4,3.2-2,5.5-2c1.6,0,2.9,0.3,4.2,1c1.2,0.7,2.2,1.7,2.8,2.9
		c0.7,1.2,1,2.6,1,4.1h-3.4c0-1.6-0.4-2.9-1.2-3.8c-0.8-0.9-1.9-1.4-3.4-1.4c-1.4,0-2.4,0.4-3.1,1.1c-0.7,0.8-1.1,1.8-1.1,3.2
		c0,1.1,0.4,2.1,1.2,2.8s2,1.4,3.7,2c2.6,0.9,4.5,1.9,5.6,3.2c1.1,1.3,1.7,2.9,1.7,5c0,2.2-0.7,3.9-2.1,5.2
		c-1.4,1.3-3.3,1.9-5.7,1.9c-1.5,0-3-0.3-4.3-1c-1.3-0.7-2.3-1.6-3.1-2.8s-1.1-2.6-1.1-4.2h3.4c0,1.6,0.5,2.9,1.4,3.8
		c0.9,0.9,2.2,1.4,3.8,1.4c1.5,0,2.6-0.4,3.3-1.1C811.3,622.4,811.7,621.4,811.7,620.1z"/>
</g>
<g class="st3">
	<path class="st4" d="M914.1,620.2h-9l-2.1,7h-3.4l8.6-26.6h2.9l8.6,26.6h-3.4L914.1,620.2z M906,617.3h7.2l-3.6-12.1L906,617.3z"/>
	<path class="st4" d="M929.8,616.4h-4.7v10.8h-3.4v-26.6h7.4c2.6,0,4.6,0.7,5.9,2c1.3,1.4,2,3.3,2,6c0,1.6-0.4,3.1-1.1,4.3
		c-0.7,1.2-1.8,2.1-3.1,2.8l5.1,11.3v0.2h-3.6L929.8,616.4z M925.1,613.5h4.1c1.4,0,2.5-0.5,3.4-1.4c0.8-0.9,1.3-2.1,1.3-3.6
		c0-3.4-1.5-5.1-4.6-5.1h-4V613.5z"/>
</g>
<g class="st3">
	<path class="st4" d="M1036.3,603.4h-7v23.7h-3.3v-23.7h-7v-2.9h17.3V603.4z"/>
	<path class="st4" d="M1056,627.1h-3.4l-10.6-20.5v20.5h-3.4v-26.6h3.4l10.7,20.6v-20.6h3.3V627.1z"/>
</g>
<g class="st3">
	<path class="st4" d="M845.7,501.3l6.9,21.7l6.9-21.7h4.3v26.6h-3.3v-10.4l0.3-10.4l-7,20.7h-2.6l-6.9-20.6l0.3,10.3v10.4h-3.3
		v-26.6H845.7z"/>
	<path class="st4" d="M885.4,516.9c0,3.6-0.8,6.4-2.3,8.4c-1.5,2-3.7,2.9-6.6,2.9c-2.7,0-4.9-1-6.5-2.9c-1.6-1.9-2.4-4.6-2.5-8.1v-5
		c0-3.6,0.8-6.3,2.4-8.4c1.6-2,3.8-3,6.6-3c2.8,0,5,1,6.5,2.9c1.6,1.9,2.4,4.7,2.4,8.3V516.9z M882.1,512.3c0-2.8-0.5-4.9-1.4-6.3
		s-2.3-2.1-4.2-2.1c-1.8,0-3.2,0.7-4.2,2.1c-0.9,1.4-1.4,3.4-1.4,6.1v4.8c0,2.7,0.5,4.8,1.4,6.2c0.9,1.4,2.4,2.1,4.2,2.1
		s3.3-0.7,4.2-2s1.4-3.3,1.4-6V512.3z"/>
</g>
<g class="st3">
	<path class="st4" d="M913.1,423.4h-3.3v-26.6h3.3V423.4z"/>
	<path class="st4" d="M920.8,420.5h10.4v2.9h-13.8v-26.6h3.4V420.5z"/>
</g>
<g class="st3">
	<path class="st4" d="M1037.4,423.4h-3.3v-26.6h3.3V423.4z"/>
	<path class="st4" d="M1059.1,423.4h-3.4l-10.6-20.5v20.5h-3.4v-26.6h3.4l10.7,20.6v-20.6h3.3V423.4z"/>
</g>
<g class="st3">
	<path class="st4" d="M970.7,515.6l-2.6,3.2v9.1h-3.3v-26.6h3.3v12.8l2.2-2.9l7.2-9.9h4l-8.6,11.7l9.3,14.9h-4L970.7,515.6z"/>
	<path class="st4" d="M990.5,514.6l5.4-13.3h3.8l-7.6,16.7v9.9h-3.3V518l-7.6-16.7h3.8L990.5,514.6z"/>
</g>
<g class="st3">
	<path class="st4" d="M1087.3,520.5l0.3,3l0.5-2.6l4.3-18.5h2.8l4.1,18.5l0.5,2.7l0.4-3.1l3.2-18.2h3.3l-5.3,26.6h-3l-4.4-19.4
		l-0.3-1.6l-0.3,1.6l-4.6,19.4h-3l-5.3-26.6h3.3L1087.3,520.5z"/>
	<path class="st4" d="M1116.8,523.8l6.1-21.5h3.7l-8.3,26.6h-2.9l-8.3-26.6h3.7L1116.8,523.8z"/>
</g>
<g class="st3">
	<path class="st4" d="M609.3,730.5h-3.4L595.3,710v20.5h-3.4v-26.6h3.4l10.7,20.6v-20.6h3.3V730.5z"/>
	<path class="st4" d="M617.9,703.9l6.9,21.7l6.9-21.7h4.3v26.6h-3.3v-10.4l0.3-10.4l-7,20.7h-2.6l-6.9-20.6l0.3,10.3v10.4h-3.3
		v-26.6H617.9z"/>
</g>
<g class="st3">
	<path class="st4" d="M673.6,814.1h-7v23.7h-3.3v-23.7h-7v-2.9h17.3V814.1z"/>
	<path class="st4" d="M683.5,821.4l5-10.2h3.9l-6.9,13.2l7.1,13.4h-4l-5.1-10.4l-5.1,10.4h-4l7.1-13.4l-7-13.2h3.9L683.5,821.4z"/>
</g>
<g class="st3">
	<path class="st4" d="M736.8,719.5c0,3.6-0.8,6.4-2.3,8.4c-1.5,2-3.7,2.9-6.6,2.9c-2.7,0-4.9-1-6.5-2.9c-1.6-1.9-2.4-4.6-2.5-8.1v-5
		c0-3.6,0.8-6.3,2.4-8.4c1.6-2,3.8-3,6.6-3c2.8,0,5,1,6.5,2.9c1.6,1.9,2.4,4.7,2.4,8.3V719.5z M733.4,714.9c0-2.8-0.5-4.9-1.4-6.3
		s-2.3-2.1-4.2-2.1c-1.8,0-3.2,0.7-4.2,2.1c-0.9,1.4-1.4,3.4-1.4,6.1v4.8c0,2.7,0.5,4.8,1.4,6.2c0.9,1.4,2.4,2.1,4.2,2.1
		s3.3-0.7,4.2-2s1.4-3.3,1.4-6V714.9z"/>
	<path class="st4" d="M746.4,718.2l-2.6,3.2v9.1h-3.3v-26.6h3.3v12.8l2.2-2.9l7.2-9.9h4l-8.6,11.7l9.3,14.9h-4L746.4,718.2z"/>
</g>
<g class="st3">
	<path class="st4" d="M846.4,727.9h10.4v2.9H843v-26.6h3.4V727.9z"/>
	<path class="st4" d="M872,723.8h-9l-2.1,7h-3.4l8.6-26.6h2.9l8.6,26.6h-3.4L872,723.8z M863.9,720.9h7.2l-3.6-12.1L863.9,720.9z"/>
</g>
<g class="st3">
	<path class="st4" d="M253.4,937.5H250v-12.3h-10.7v12.3H236v-26.6h3.3v11.4H250v-11.4h3.4V937.5z"/>
	<path class="st4" d="M261.2,937.5h-3.3v-26.6h3.3V937.5z"/>
</g>
<g class="st3">
	<path class="st4" d="M965.9,704.2l6.9,21.7l6.9-21.7h4.3v26.6h-3.3v-10.4l0.3-10.4l-7,20.7h-2.6l-6.9-20.6l0.3,10.3v10.4h-3.3
		v-26.6H965.9z"/>
	<path class="st4" d="M1000,724c0-1.3-0.4-2.3-1.1-3c-0.7-0.7-2-1.4-3.9-2.1c-1.9-0.7-3.3-1.4-4.3-2.1c-1-0.7-1.7-1.6-2.2-2.5
		c-0.5-0.9-0.7-2-0.7-3.2c0-2.1,0.7-3.8,2.1-5.2s3.2-2,5.5-2c1.6,0,2.9,0.3,4.2,1c1.2,0.7,2.2,1.7,2.8,2.9c0.7,1.2,1,2.6,1,4.1h-3.4
		c0-1.6-0.4-2.9-1.2-3.8s-1.9-1.4-3.4-1.4c-1.4,0-2.4,0.4-3.1,1.1c-0.7,0.8-1.1,1.8-1.1,3.2c0,1.1,0.4,2.1,1.2,2.8
		c0.8,0.8,2,1.4,3.7,2c2.6,0.9,4.5,1.9,5.6,3.2c1.1,1.3,1.7,2.9,1.7,5c0,2.2-0.7,3.9-2.1,5.2s-3.3,1.9-5.7,1.9c-1.5,0-3-0.3-4.3-1
		c-1.3-0.7-2.3-1.6-3.1-2.8c-0.7-1.2-1.1-2.6-1.1-4.2h3.4c0,1.6,0.5,2.9,1.4,3.8c0.9,0.9,2.2,1.4,3.8,1.4c1.5,0,2.6-0.4,3.3-1.1
		S1000,725.3,1000,724z"/>
</g>
<g class="st3">
	<path class="st4" d="M1098.8,724.1h-9l-2.1,7h-3.4l8.6-26.6h2.9l8.6,26.6h-3.4L1098.8,724.1z M1090.7,721.2h7.2l-3.6-12.1
		L1090.7,721.2z"/>
	<path class="st4" d="M1109.8,728.2h10.4v2.9h-13.8v-26.6h3.4V728.2z"/>
</g>
<g class="st3">
	<path class="st4" d="M1219.9,724.3c0-1.3-0.4-2.3-1.1-3c-0.7-0.7-2-1.4-3.9-2.1c-1.9-0.7-3.3-1.4-4.3-2.1c-1-0.7-1.7-1.6-2.2-2.5
		c-0.5-0.9-0.7-2-0.7-3.2c0-2.1,0.7-3.8,2.1-5.2c1.4-1.4,3.2-2,5.5-2c1.6,0,2.9,0.3,4.2,1c1.2,0.7,2.2,1.7,2.8,2.9
		c0.7,1.2,1,2.6,1,4.1h-3.4c0-1.6-0.4-2.9-1.2-3.8s-1.9-1.4-3.4-1.4c-1.4,0-2.4,0.4-3.1,1.1c-0.7,0.8-1.1,1.8-1.1,3.2
		c0,1.1,0.4,2.1,1.2,2.8c0.8,0.8,2,1.4,3.7,2c2.6,0.9,4.5,1.9,5.6,3.2s1.7,2.9,1.7,5c0,2.2-0.7,3.9-2.1,5.2
		c-1.4,1.3-3.3,1.9-5.7,1.9c-1.5,0-3-0.3-4.3-1c-1.3-0.7-2.3-1.6-3.1-2.8c-0.7-1.2-1.1-2.6-1.1-4.2h3.4c0,1.6,0.5,2.9,1.4,3.8
		c0.9,0.9,2.2,1.4,3.8,1.4c1.5,0,2.6-0.4,3.3-1.1C1219.5,726.7,1219.9,725.6,1219.9,724.3z"/>
	<path class="st4" d="M1242.8,722.6c-0.1,2.8-0.9,5-2.4,6.5c-1.5,1.5-3.5,2.3-6.2,2.3c-2.7,0-4.8-1-6.4-3s-2.4-4.8-2.4-8.2v-4.8
		c0-3.5,0.8-6.2,2.4-8.2c1.6-2,3.8-3,6.6-3c2.6,0,4.6,0.8,6,2.3c1.4,1.5,2.2,3.7,2.3,6.6h-3.4c-0.1-2.2-0.6-3.7-1.4-4.6
		c-0.8-0.9-1.9-1.4-3.5-1.4c-1.8,0-3.2,0.7-4.2,2.1s-1.5,3.5-1.5,6.2v4.9c0,2.7,0.5,4.8,1.4,6.2s2.2,2.2,4,2.2s3-0.4,3.8-1.3
		c0.8-0.9,1.2-2.4,1.4-4.7H1242.8z"/>
</g>
<g class="st3">
	<path class="st4" d="M1164.2,834.5l-0.6,0.7c-1.7,2-4.1,2.9-7.4,2.9c-2.9,0-5.1-1-6.8-2.9c-1.6-1.9-2.5-4.6-2.5-8.1V822
		c0-3.7,0.7-6.5,2.2-8.4c1.5-1.9,3.7-2.8,6.7-2.8c2.5,0,4.5,0.7,5.9,2.1c1.4,1.4,2.2,3.4,2.4,6h-3.3c-0.1-1.7-0.6-2.9-1.4-3.9
		c-0.8-0.9-2-1.4-3.6-1.4c-1.9,0-3.3,0.6-4.2,1.9c-0.9,1.2-1.4,3.2-1.4,6v5.4c0,2.7,0.5,4.7,1.5,6.2c1,1.4,2.5,2.1,4.4,2.1
		c1.8,0,3.2-0.4,4.1-1.3l0.5-0.5v-6.1h-4.9v-2.9h8.2V834.5z"/>
	<path class="st4" d="M1180.6,830.8h-9l-2.1,7h-3.4l8.6-26.6h2.9l8.6,26.6h-3.4L1180.6,830.8z M1172.5,828h7.2l-3.6-12.1L1172.5,828
		z"/>
</g>
<g class="st3">
	<path class="st4" d="M1222.6,929.1h-9v11.7h-3.3v-26.6h13.8v2.9h-10.5v9.1h9V929.1z"/>
	<path class="st4" d="M1230.1,938h10.4v2.9h-13.8v-26.6h3.4V938z"/>
</g>
<g class="st3">
	<path class="st4" d="M1288,627.1h-3.4l-10.6-20.5v20.5h-3.4v-26.6h3.4l10.7,20.6v-20.6h3.3V627.1z"/>
	<path class="st4" d="M1309,618.7c-0.1,2.8-0.9,5-2.4,6.5c-1.5,1.5-3.5,2.3-6.2,2.3c-2.7,0-4.8-1-6.4-3s-2.4-4.8-2.4-8.2v-4.8
		c0-3.5,0.8-6.2,2.4-8.2c1.6-2,3.8-3,6.6-3c2.6,0,4.6,0.8,6,2.3c1.4,1.5,2.2,3.7,2.3,6.6h-3.4c-0.1-2.2-0.6-3.7-1.4-4.6
		s-1.9-1.4-3.5-1.4c-1.8,0-3.2,0.7-4.2,2.1c-1,1.4-1.5,3.5-1.5,6.2v4.9c0,2.7,0.5,4.8,1.4,6.2c0.9,1.4,2.2,2.2,4,2.2
		c1.7,0,3-0.4,3.8-1.3c0.8-0.9,1.2-2.4,1.4-4.7H1309z"/>
</g>
<g class="st3">
	<path class="st4" d="M1153.1,621.6l6.1-21.5h3.7l-8.3,26.6h-2.9l-8.3-26.6h3.7L1153.1,621.6z"/>
	<path class="st4" d="M1176,619.8h-9l-2.1,7h-3.4l8.6-26.6h2.9l8.6,26.6h-3.4L1176,619.8z M1167.9,616.9h7.2l-3.6-12.1L1167.9,616.9
		z"/>
</g>
<g class="st3">
	<path class="st4" d="M1211.2,501.3l6.9,21.7l6.9-21.7h4.3v26.6h-3.3v-10.4l0.3-10.4l-7,20.7h-2.6l-6.9-20.6l0.3,10.3v10.4h-3.3
		v-26.6H1211.2z"/>
	<path class="st4" d="M1233.7,527.9v-26.6h6.3c3.1,0,5.5,1,7.2,2.9c1.7,1.9,2.6,4.7,2.6,8.2v4.5c0,3.5-0.9,6.2-2.6,8.2
		c-1.7,1.9-4.3,2.9-7.6,2.9H1233.7z M1237,504.2V525h2.7c2.3,0,4.1-0.7,5.1-2c1.1-1.3,1.6-3.3,1.7-6v-4.7c0-2.8-0.5-4.9-1.6-6.2
		s-2.7-2-4.9-2H1237z"/>
</g>
<g class="st3">
	<path class="st4" d="M1333.2,524.6V498h6.3c3.1,0,5.5,1,7.2,2.9s2.6,4.7,2.6,8.2v4.5c0,3.5-0.9,6.2-2.6,8.2
		c-1.7,1.9-4.3,2.9-7.6,2.9H1333.2z M1336.5,500.9v20.8h2.7c2.3,0,4.1-0.7,5.1-2c1.1-1.3,1.6-3.3,1.7-6V509c0-2.8-0.5-4.9-1.6-6.2
		c-1.1-1.3-2.7-2-4.9-2H1336.5z"/>
	<path class="st4" d="M1365.8,512.3h-9.4v9.4h11v2.9H1353V498h14.1v2.9h-10.8v8.6h9.4V512.3z"/>
</g>
<g class="st3">
	<path class="st4" d="M1160.8,412.3c0,3.6-0.8,6.4-2.3,8.4c-1.5,2-3.7,2.9-6.6,2.9c-2.7,0-4.9-1-6.5-2.9c-1.6-1.9-2.4-4.6-2.5-8.1
		v-5c0-3.6,0.8-6.3,2.4-8.4c1.6-2,3.8-3,6.6-3c2.8,0,5,1,6.5,2.9c1.6,1.9,2.4,4.7,2.4,8.3V412.3z M1157.4,407.6
		c0-2.8-0.5-4.9-1.4-6.3s-2.3-2.1-4.2-2.1c-1.8,0-3.2,0.7-4.2,2.1c-0.9,1.4-1.4,3.4-1.4,6.1v4.8c0,2.7,0.5,4.8,1.4,6.2
		c0.9,1.4,2.4,2.1,4.2,2.1c1.9,0,3.3-0.7,4.2-2c0.9-1.3,1.4-3.3,1.4-6V407.6z"/>
	<path class="st4" d="M1181.8,423.2h-3.4V411h-10.7v12.3h-3.3v-26.6h3.3v11.4h10.7v-11.4h3.4V423.2z"/>
</g>
<g class="st3">
	<path class="st4" d="M1275.3,411.9v10.4h-3.3v-26.6h8.5c2.5,0,4.4,0.7,5.8,2.2c1.4,1.5,2.1,3.4,2.1,5.9c0,2.6-0.7,4.5-2,5.9
		c-1.3,1.4-3.2,2.1-5.7,2.1H1275.3z M1275.3,409h5.1c1.5,0,2.6-0.4,3.4-1.3c0.8-0.9,1.2-2.2,1.2-3.8c0-1.6-0.4-2.9-1.2-3.8
		s-1.9-1.4-3.4-1.4h-5.1V409z"/>
	<path class="st4" d="M1301.1,415.4h-9l-2.1,7h-3.4l8.6-26.6h2.9l8.6,26.6h-3.4L1301.1,415.4z M1293,412.5h7.2l-3.6-12.1L1293,412.5
		z"/>
</g>
<g class="st3">
	<path class="st4" d="M1407.1,422h-3.4l-10.6-20.5V422h-3.4v-26.6h3.4l10.7,20.6v-20.6h3.3V422z"/>
	<path class="st4" d="M1420.6,395.4h3.4v18.8c0,2.5-0.6,4.5-1.9,6c-1.3,1.4-3,2.2-5.2,2.2c-2.3,0-4-0.7-5.3-2
		c-1.3-1.4-1.9-3.2-1.9-5.7h3.3c0,1.5,0.3,2.7,1,3.6c0.7,0.9,1.6,1.3,2.8,1.3c1.2,0,2.1-0.5,2.8-1.4c0.7-0.9,1-2.2,1-3.9V395.4z"/>
</g>
<g class="st3">
	<path class="st4" d="M1529.3,415.1c-0.1,2.8-0.9,5-2.4,6.5c-1.5,1.5-3.5,2.3-6.2,2.3c-2.7,0-4.8-1-6.4-3c-1.6-2-2.4-4.8-2.4-8.2
		v-4.8c0-3.5,0.8-6.2,2.4-8.2c1.6-2,3.8-3,6.6-3c2.6,0,4.6,0.8,6,2.3c1.4,1.5,2.2,3.7,2.3,6.6h-3.4c-0.1-2.2-0.6-3.7-1.4-4.6
		c-0.8-0.9-1.9-1.4-3.5-1.4c-1.8,0-3.2,0.7-4.2,2.1c-1,1.4-1.5,3.5-1.5,6.2v4.9c0,2.7,0.5,4.8,1.4,6.2s2.2,2.2,4,2.2s3-0.4,3.8-1.3
		c0.8-0.9,1.2-2.4,1.4-4.7H1529.3z"/>
	<path class="st4" d="M1547.4,399.8h-7v23.7h-3.3v-23.7h-7V397h17.3V399.8z"/>
</g>
<g class="st3">
	<path class="st4" d="M1586.3,307.3h-4.7v10.8h-3.4v-26.6h7.4c2.6,0,4.6,0.7,5.9,2c1.3,1.4,2,3.3,2,6c0,1.6-0.4,3.1-1.1,4.3
		c-0.7,1.2-1.8,2.1-3.1,2.8l5.1,11.3v0.2h-3.6L1586.3,307.3z M1581.7,304.5h4.1c1.4,0,2.5-0.5,3.3-1.4s1.3-2.1,1.3-3.6
		c0-3.4-1.5-5.1-4.6-5.1h-4V304.5z"/>
	<path class="st4" d="M1600.1,318.1h-3.3v-26.6h3.3V318.1z"/>
</g>
<g class="st3">
	<path class="st4" d="M1637.2,627.4v-26.6h6.3c3.1,0,5.5,1,7.2,2.9s2.6,4.7,2.6,8.2v4.5c0,3.5-0.9,6.2-2.6,8.2
		c-1.7,1.9-4.3,2.9-7.6,2.9H1637.2z M1640.5,603.7v20.8h2.7c2.3,0,4.1-0.7,5.1-2c1.1-1.3,1.6-3.3,1.7-6v-4.7c0-2.8-0.5-4.9-1.6-6.2
		c-1.1-1.3-2.7-2-4.9-2H1640.5z"/>
	<path class="st4" d="M1673.7,619c-0.1,2.8-0.9,5-2.4,6.5c-1.5,1.5-3.5,2.3-6.2,2.3c-2.7,0-4.8-1-6.4-3s-2.4-4.8-2.4-8.2v-4.8
		c0-3.5,0.8-6.2,2.4-8.2c1.6-2,3.8-3,6.6-3c2.6,0,4.6,0.8,6,2.3c1.4,1.5,2.2,3.7,2.3,6.6h-3.4c-0.1-2.2-0.6-3.7-1.4-4.6
		c-0.8-0.9-1.9-1.4-3.5-1.4c-1.8,0-3.2,0.7-4.2,2.1s-1.5,3.5-1.5,6.2v4.9c0,2.7,0.5,4.8,1.4,6.2s2.2,2.2,4,2.2s3-0.4,3.8-1.3
		c0.8-0.9,1.2-2.4,1.4-4.7H1673.7z"/>
</g>
<g>
	<g class="st3">
		<path class="st6" d="M1429.9,925.1v7.9h-4.5v-22.4h7.6c2.2,0,4,0.7,5.3,2.1s2,3.2,2,5.3c0,2.2-0.7,3.9-2,5.2
			c-1.3,1.3-3.1,1.9-5.4,1.9H1429.9z M1429.9,921.3h3.1c0.9,0,1.5-0.3,2-0.8c0.5-0.6,0.7-1.4,0.7-2.5c0-1.1-0.2-2-0.7-2.7
			c-0.5-0.7-1.1-1-1.9-1h-3.2V921.3z"/>
	</g>
	<g class="st3">
		<path class="st6" d="M1451.2,920.5l-1.4-0.1c-1.2,0-2,0.5-2.4,1.6v11h-4.4v-16.6h4.1l0.1,1.8c0.7-1.4,1.6-2.1,2.8-2.1
			c0.5,0,0.9,0.1,1.2,0.2L1451.2,920.5z"/>
	</g>
	<g class="st3">
		<path class="st6" d="M1452.4,924.1c0-2.5,0.6-4.5,1.8-5.9c1.2-1.4,2.8-2.2,4.9-2.2c2.1,0,3.8,0.7,5,2.2c1.2,1.4,1.8,3.4,1.8,6v1.1
			c0,2.5-0.6,4.5-1.8,5.9c-1.2,1.4-2.8,2.1-4.9,2.1c-2.1,0-3.8-0.7-5-2.1s-1.8-3.4-1.8-6V924.1z M1456.8,925.2c0,3,0.8,4.5,2.4,4.5
			c1.5,0,2.3-1.2,2.4-3.7l0-1.8c0-1.5-0.2-2.6-0.6-3.4s-1-1.1-1.8-1.1c-0.7,0-1.3,0.4-1.7,1.1c-0.4,0.7-0.6,1.9-0.6,3.4V925.2z"/>
		<path class="st6" d="M1476.4,925.2h-7.5v-3.6h7.5V925.2z"/>
		<path class="st6" d="M1484.6,933h-4.4v-23.6h4.4V933z"/>
		<path class="st6" d="M1487.9,912c0-0.7,0.2-1.2,0.6-1.7c0.4-0.4,1-0.6,1.7-0.6c0.7,0,1.3,0.2,1.7,0.6c0.4,0.4,0.6,1,0.6,1.7
			c0,0.7-0.2,1.2-0.6,1.7c-0.4,0.4-1,0.7-1.7,0.7c-0.7,0-1.3-0.2-1.7-0.7C1488.2,913.2,1487.9,912.7,1487.9,912z M1492.5,933h-4.4
			v-16.6h4.4V933z"/>
		<path class="st6" d="M1496.9,933v-13.4h-2v-3.3h2v-1.5c0-1.8,0.5-3.3,1.5-4.3s2.3-1.5,4-1.5c0.5,0,1.2,0.1,2,0.3l0,3.5
			c-0.3-0.1-0.7-0.1-1.1-0.1c-1.3,0-1.9,0.8-1.9,2.3v1.4h2.6v3.3h-2.6V933H1496.9z"/>
		<path class="st6" d="M1512.9,933.3c-2.2,0-4-0.7-5.2-2c-1.3-1.3-1.9-3.2-1.9-5.7v-1.3c0-2.6,0.6-4.6,1.7-6.1
			c1.1-1.4,2.8-2.1,4.9-2.1c2.1,0,3.7,0.7,4.7,2c1.1,1.3,1.6,3.3,1.6,5.9v2.1h-8.7c0.1,1.2,0.3,2.1,0.8,2.7c0.5,0.6,1.2,0.9,2.2,0.9
			c1.5,0,2.7-0.5,3.6-1.5l1.7,2.6c-0.5,0.7-1.3,1.3-2.3,1.8C1515.2,933,1514.1,933.3,1512.9,933.3z M1510.2,923.1h4.4v-0.4
			c0-1-0.2-1.7-0.5-2.3c-0.3-0.5-0.8-0.8-1.6-0.8c-0.8,0-1.3,0.3-1.7,0.8C1510.4,921,1510.2,921.9,1510.2,923.1z"/>
		<path class="st6" d="M1535.9,928.5c0-0.4-0.2-0.7-0.5-1s-1.1-0.7-2.4-1.3c-1.8-0.7-3-1.5-3.7-2.3c-0.7-0.8-1-1.7-1-2.9
			c0-1.5,0.5-2.7,1.6-3.6c1-0.9,2.4-1.4,4.2-1.4c1.8,0,3.3,0.5,4.4,1.4c1.1,0.9,1.6,2.2,1.6,3.8h-4.4c0-1.4-0.6-2-1.7-2
			c-0.5,0-0.8,0.1-1.1,0.4c-0.3,0.3-0.4,0.7-0.4,1.2c0,0.4,0.2,0.7,0.5,1c0.3,0.3,1.1,0.7,2.3,1.2c1.8,0.7,3,1.4,3.8,2.2
			c0.7,0.8,1.1,1.8,1.1,3.1c0,1.5-0.6,2.7-1.7,3.6c-1.1,0.9-2.6,1.4-4.4,1.4c-1.2,0-2.3-0.2-3.2-0.7c-0.9-0.5-1.7-1.1-2.2-2
			c-0.5-0.9-0.8-1.8-0.8-2.8h4.1c0,0.8,0.2,1.3,0.5,1.7c0.3,0.4,0.9,0.6,1.6,0.6C1535.3,930.1,1535.9,929.6,1535.9,928.5z"/>
		<path class="st6" d="M1547.9,912.2v4.1h2.2v3.3h-2.2v8.3c0,0.7,0.1,1.1,0.3,1.4c0.2,0.2,0.5,0.4,1,0.4c0.4,0,0.8,0,1-0.1l0,3.4
			c-0.7,0.3-1.5,0.4-2.4,0.4c-2.8,0-4.2-1.6-4.3-4.8v-8.8h-1.9v-3.3h1.9v-4.1H1547.9z"/>
		<path class="st6" d="M1560.4,933c-0.1-0.3-0.2-0.7-0.4-1.3c-0.8,1.1-1.8,1.6-3.2,1.6c-1.4,0-2.5-0.5-3.5-1.4
			c-0.9-0.9-1.4-2.1-1.4-3.6c0-1.7,0.6-3.1,1.7-4s2.7-1.4,4.8-1.5h1.3v-1.3c0-0.7-0.1-1.3-0.4-1.6s-0.6-0.5-1.1-0.5
			c-1.1,0-1.6,0.6-1.6,1.9h-4.3c0-1.5,0.6-2.8,1.7-3.8s2.6-1.5,4.4-1.5c1.8,0,3.2,0.5,4.2,1.4c1,0.9,1.5,2.3,1.5,4.1v7.8
			c0,1.4,0.2,2.6,0.6,3.4v0.3H1560.4z M1557.8,929.9c0.5,0,0.9-0.1,1.2-0.3c0.3-0.2,0.6-0.4,0.8-0.7v-3.5h-1c-0.7,0-1.3,0.2-1.7,0.7
			c-0.4,0.5-0.6,1.1-0.6,1.9C1556.4,929.2,1556.8,929.9,1557.8,929.9z"/>
		<path class="st6" d="M1572.3,912.2v4.1h2.2v3.3h-2.2v8.3c0,0.7,0.1,1.1,0.3,1.4s0.5,0.4,1,0.4c0.4,0,0.8,0,1-0.1l0,3.4
			c-0.7,0.3-1.5,0.4-2.4,0.4c-2.8,0-4.2-1.6-4.3-4.8v-8.8h-1.9v-3.3h1.9v-4.1H1572.3z"/>
		<path class="st6" d="M1583.7,933.3c-2.2,0-4-0.7-5.2-2c-1.3-1.3-1.9-3.2-1.9-5.7v-1.3c0-2.6,0.6-4.6,1.7-6.1
			c1.1-1.4,2.8-2.1,4.9-2.1c2.1,0,3.7,0.7,4.7,2c1.1,1.3,1.6,3.3,1.6,5.9v2.1h-8.7c0.1,1.2,0.3,2.1,0.8,2.7c0.5,0.6,1.2,0.9,2.2,0.9
			c1.5,0,2.7-0.5,3.6-1.5l1.7,2.6c-0.5,0.7-1.3,1.3-2.3,1.8C1586,933,1584.9,933.3,1583.7,933.3z M1580.9,923.1h4.3v-0.4
			c0-1-0.2-1.7-0.5-2.3c-0.3-0.5-0.8-0.8-1.6-0.8s-1.3,0.3-1.7,0.8S1581,921.9,1580.9,923.1z"/>
		<path class="st6" d="M1599.4,928.5c0-0.4-0.2-0.7-0.5-1s-1.1-0.7-2.4-1.3c-1.8-0.7-3-1.5-3.7-2.3c-0.7-0.8-1-1.7-1-2.9
			c0-1.5,0.5-2.7,1.6-3.6c1-0.9,2.4-1.4,4.2-1.4c1.8,0,3.3,0.5,4.4,1.4c1.1,0.9,1.6,2.2,1.6,3.8h-4.4c0-1.4-0.6-2-1.7-2
			c-0.5,0-0.8,0.1-1.1,0.4c-0.3,0.3-0.4,0.7-0.4,1.2c0,0.4,0.2,0.7,0.5,1c0.3,0.3,1.1,0.7,2.3,1.2c1.8,0.7,3,1.4,3.8,2.2
			c0.7,0.8,1.1,1.8,1.1,3.1c0,1.5-0.6,2.7-1.7,3.6c-1.1,0.9-2.6,1.4-4.4,1.4c-1.2,0-2.3-0.2-3.2-0.7c-0.9-0.5-1.7-1.1-2.2-2
			c-0.5-0.9-0.8-1.8-0.8-2.8h4.1c0,0.8,0.2,1.3,0.5,1.7c0.3,0.4,0.9,0.6,1.6,0.6C1598.8,930.1,1599.4,929.6,1599.4,928.5z"/>
	</g>
	<g class="st3">
		<path class="st7" d="M1436.4,964.9h-7.6l-1.7,5.9h-2.9l7.2-22.4h2.4l7.2,22.4h-2.9L1436.4,964.9z M1429.6,962.5h6.1l-3.1-10.2
			L1429.6,962.5z"/>
		<path class="st7" d="M1455.8,963.2c0,2.6-0.5,4.5-1.4,5.9c-0.9,1.3-2.3,2-4.1,2c-1.8,0-3.1-0.8-4-2.3l-0.1,2h-2.5v-23.6h2.7v8.8
			c0.9-1.4,2.2-2.1,3.8-2.1c1.8,0,3.2,0.6,4.1,1.9s1.4,3.2,1.4,5.8V963.2z M1453.1,961.7c0-2-0.3-3.4-0.8-4.2
			c-0.5-0.8-1.4-1.3-2.7-1.3c-1.4,0-2.4,0.8-3.1,2.3v7.9c0.7,1.5,1.7,2.2,3.2,2.2c1.2,0,2.1-0.4,2.6-1.3c0.5-0.9,0.8-2.2,0.8-4
			V961.7z"/>
		<path class="st7" d="M1458.7,961.6c0-2.4,0.6-4.3,1.8-5.7s2.7-2.1,4.6-2.1c1.9,0,3.5,0.7,4.7,2.1c1.2,1.4,1.8,3.2,1.8,5.6v1.8
			c0,2.4-0.6,4.3-1.8,5.7c-1.2,1.4-2.7,2.1-4.7,2.1c-1.9,0-3.5-0.7-4.6-2c-1.2-1.4-1.8-3.2-1.8-5.5V961.6z M1461.4,963.2
			c0,1.7,0.3,3.1,1,4c0.7,1,1.6,1.5,2.7,1.5c2.4,0,3.6-1.7,3.7-5.2v-1.9c0-1.7-0.3-3-1-4c-0.7-1-1.6-1.5-2.7-1.5
			c-1.1,0-2,0.5-2.7,1.5c-0.7,1-1,2.3-1,4V963.2z"/>
	</g>
	<g class="st3">
		<path class="st7" d="M1481.9,956.7c-0.4-0.1-0.8-0.1-1.2-0.1c-1.4,0-2.4,0.8-2.9,2.3v11.9h-2.7v-16.6h2.6l0,1.7
			c0.7-1.3,1.8-2,3.1-2c0.4,0,0.8,0.1,1.1,0.2L1481.9,956.7z"/>
	</g>
	<g class="st3">
		<path class="st7" d="M1488.9,950.1v4h2.5v2.2h-2.5v10.3c0,0.7,0.1,1.2,0.3,1.5c0.2,0.3,0.6,0.5,1.1,0.5c0.4,0,0.7-0.1,1.1-0.2
			l0,2.3c-0.6,0.2-1.2,0.3-1.9,0.3c-1.1,0-1.9-0.4-2.5-1.2s-0.8-1.9-0.8-3.3v-10.3h-2.5v-2.2h2.5v-4H1488.9z"/>
		<path class="st7" d="M1497.8,949.7c0,0.5-0.1,0.8-0.4,1.2c-0.3,0.3-0.6,0.5-1.2,0.5c-0.5,0-0.9-0.2-1.2-0.5
			c-0.3-0.3-0.4-0.7-0.4-1.2s0.1-0.9,0.4-1.2c0.3-0.3,0.6-0.5,1.2-0.5c0.5,0,0.9,0.2,1.2,0.5
			C1497.7,948.8,1497.8,949.2,1497.8,949.7z M1497.6,970.7h-2.7v-16.6h2.7V970.7z"/>
		<path class="st7" d="M1501.3,961.6c0-2.4,0.6-4.3,1.8-5.7c1.2-1.4,2.7-2.1,4.7-2.1c1.9,0,3.5,0.7,4.6,2.1c1.2,1.4,1.8,3.2,1.8,5.6
			v1.8c0,2.4-0.6,4.3-1.8,5.7c-1.2,1.4-2.7,2.1-4.7,2.1c-1.9,0-3.5-0.7-4.6-2c-1.2-1.4-1.8-3.2-1.8-5.5V961.6z M1504,963.2
			c0,1.7,0.3,3.1,1,4s1.6,1.5,2.7,1.5c2.4,0,3.6-1.7,3.7-5.2v-1.9c0-1.7-0.3-3-1-4c-0.7-1-1.6-1.5-2.7-1.5c-1.1,0-2,0.5-2.7,1.5
			s-1,2.3-1,4V963.2z"/>
		<path class="st7" d="M1520.2,954.1l0.1,1.8c1.1-1.4,2.4-2.1,4-2.1c2.9,0,4.4,2,4.5,5.9v11.1h-2.7v-10.9c0-1.3-0.2-2.2-0.7-2.8
			s-1.1-0.8-2-0.8c-0.7,0-1.3,0.2-1.8,0.7c-0.5,0.5-1,1-1.3,1.8v12.1h-2.7v-16.6H1520.2z"/>
		<path class="st7" d="M1548.7,970.7c-0.2-0.4-0.3-1-0.4-1.8c-1,1.4-2.2,2.1-3.7,2.1c-1.5,0-2.7-0.4-3.5-1.3c-0.8-0.8-1.3-2-1.3-3.6
			c0-1.7,0.6-3,1.7-4c1.1-1,2.7-1.5,4.7-1.5h2v-1.8c0-1-0.2-1.7-0.7-2.1c-0.4-0.4-1.1-0.6-2-0.6c-0.8,0-1.5,0.2-2,0.7
			c-0.5,0.5-0.8,1.1-0.8,1.9h-2.7c0-0.9,0.3-1.7,0.8-2.4c0.5-0.8,1.2-1.4,2-1.8c0.9-0.4,1.8-0.7,2.8-0.7c1.7,0,3,0.4,3.9,1.3
			s1.3,2.1,1.4,3.7v8.4c0,1.3,0.2,2.4,0.5,3.3v0.2H1548.7z M1545.1,968.6c0.7,0,1.3-0.2,1.9-0.6s1-0.8,1.3-1.4v-4h-1.5
			c-1.3,0-2.3,0.3-3.1,0.9c-0.7,0.6-1.1,1.3-1.1,2.3c0,0.9,0.2,1.6,0.6,2.1C1543.5,968.4,1544.2,968.6,1545.1,968.6z"/>
		<path class="st7" d="M1561,968.7c0.9,0,1.6-0.3,2.2-0.8c0.5-0.6,0.8-1.4,0.9-2.4h2.6c-0.1,1.6-0.6,2.9-1.7,4
			c-1.1,1.1-2.4,1.6-3.9,1.6c-2.1,0-3.6-0.6-4.7-1.9c-1.1-1.3-1.6-3.2-1.6-5.8v-1.8c0-2.5,0.5-4.4,1.6-5.7s2.6-2,4.7-2
			c1.7,0,3.1,0.5,4.1,1.6s1.5,2.5,1.6,4.4h-2.6c-0.1-1.2-0.4-2.2-0.9-2.8c-0.5-0.6-1.3-0.9-2.2-0.9c-1.2,0-2.1,0.4-2.7,1.2
			s-0.9,2.1-0.9,3.9v2.1c0,2,0.3,3.3,0.9,4.2C1558.8,968.3,1559.7,968.7,1561,968.7z"/>
		<path class="st7" d="M1575.5,968.7c0.9,0,1.6-0.3,2.2-0.8c0.5-0.6,0.8-1.4,0.9-2.4h2.6c-0.1,1.6-0.6,2.9-1.7,4
			c-1.1,1.1-2.4,1.6-3.9,1.6c-2.1,0-3.6-0.6-4.7-1.9c-1.1-1.3-1.6-3.2-1.6-5.8v-1.8c0-2.5,0.5-4.4,1.6-5.7s2.6-2,4.7-2
			c1.7,0,3.1,0.5,4.1,1.6s1.5,2.5,1.6,4.4h-2.6c-0.1-1.2-0.4-2.2-0.9-2.8c-0.5-0.6-1.3-0.9-2.2-0.9c-1.2,0-2.1,0.4-2.7,1.2
			s-0.9,2.1-0.9,3.9v2.1c0,2,0.3,3.3,0.9,4.2C1573.4,968.3,1574.3,968.7,1575.5,968.7z"/>
		<path class="st7" d="M1590.2,971c-2.1,0-3.7-0.6-4.8-1.9c-1.1-1.2-1.7-3-1.7-5.4v-2c0-2.5,0.5-4.4,1.6-5.8s2.6-2.1,4.5-2.1
			c1.9,0,3.4,0.6,4.4,1.9c1,1.2,1.5,3.2,1.5,5.8v1.8h-9.3v0.4c0,1.8,0.3,3.1,1,3.9c0.7,0.8,1.6,1.2,2.9,1.2c0.8,0,1.5-0.2,2.1-0.5
			c0.6-0.3,1.2-0.8,1.7-1.4l1.4,1.7C1594.4,970.2,1592.6,971,1590.2,971z M1589.9,956.1c-1.1,0-2,0.4-2.5,1.2
			c-0.5,0.8-0.9,2-0.9,3.6h6.5v-0.4c-0.1-1.6-0.4-2.7-0.9-3.4C1591.7,956.5,1590.9,956.1,1589.9,956.1z"/>
		<path class="st7" d="M1607.1,966.5c0-0.6-0.2-1.1-0.7-1.5c-0.4-0.4-1.3-0.9-2.6-1.5c-1.5-0.6-2.5-1.1-3.1-1.6
			c-0.6-0.4-1-0.9-1.3-1.5c-0.3-0.5-0.4-1.2-0.4-2c0-1.4,0.5-2.5,1.5-3.4c1-0.9,2.3-1.3,3.8-1.3c1.6,0,2.9,0.5,3.9,1.4
			c1,0.9,1.5,2.2,1.5,3.6h-2.7c0-0.7-0.3-1.4-0.8-1.9c-0.5-0.5-1.1-0.8-1.9-0.8c-0.8,0-1.4,0.2-1.9,0.6c-0.5,0.4-0.7,1-0.7,1.7
			c0,0.6,0.2,1,0.5,1.3c0.3,0.3,1.1,0.8,2.4,1.3c2,0.8,3.4,1.6,4.1,2.3s1.1,1.7,1.1,2.9c0,1.4-0.5,2.6-1.5,3.5s-2.3,1.3-4,1.3
			c-1.7,0-3.1-0.5-4.2-1.5s-1.6-2.3-1.6-3.8h2.7c0,0.9,0.3,1.6,0.8,2.2c0.5,0.5,1.3,0.8,2.2,0.8c0.9,0,1.6-0.2,2.1-0.6
			C1606.9,967.7,1607.1,967.2,1607.1,966.5z"/>
		<path class="st7" d="M1621.4,966.5c0-0.6-0.2-1.1-0.7-1.5c-0.4-0.4-1.3-0.9-2.6-1.5c-1.5-0.6-2.5-1.1-3.1-1.6
			c-0.6-0.4-1-0.9-1.3-1.5c-0.3-0.5-0.4-1.2-0.4-2c0-1.4,0.5-2.5,1.5-3.4s2.3-1.3,3.8-1.3c1.6,0,2.9,0.5,3.9,1.4
			c1,0.9,1.5,2.2,1.5,3.6h-2.7c0-0.7-0.3-1.4-0.8-1.9c-0.5-0.5-1.1-0.8-1.9-0.8c-0.8,0-1.4,0.2-1.9,0.6c-0.5,0.4-0.7,1-0.7,1.7
			c0,0.6,0.2,1,0.5,1.3c0.3,0.3,1.1,0.8,2.4,1.3c2,0.8,3.4,1.6,4.1,2.3c0.7,0.8,1.1,1.7,1.1,2.9c0,1.4-0.5,2.6-1.5,3.5
			s-2.3,1.3-4,1.3c-1.7,0-3.1-0.5-4.2-1.5s-1.6-2.3-1.6-3.8h2.7c0,0.9,0.3,1.6,0.8,2.2c0.5,0.5,1.3,0.8,2.2,0.8
			c0.9,0,1.6-0.2,2.1-0.6C1621.2,967.7,1621.4,967.2,1621.4,966.5z"/>
		<path class="st7" d="M1638.1,949.7c0,0.5-0.1,0.8-0.4,1.2c-0.3,0.3-0.6,0.5-1.2,0.5c-0.5,0-0.9-0.2-1.2-0.5
			c-0.3-0.3-0.4-0.7-0.4-1.2s0.1-0.9,0.4-1.2c0.3-0.3,0.6-0.5,1.2-0.5c0.5,0,0.9,0.2,1.2,0.5
			C1637.9,948.8,1638.1,949.2,1638.1,949.7z M1637.9,970.7h-2.7v-16.6h2.7V970.7z"/>
		<path class="st7" d="M1650.2,966.5c0-0.6-0.2-1.1-0.7-1.5c-0.4-0.4-1.3-0.9-2.6-1.5c-1.5-0.6-2.5-1.1-3.1-1.6
			c-0.6-0.4-1-0.9-1.3-1.5c-0.3-0.5-0.4-1.2-0.4-2c0-1.4,0.5-2.5,1.5-3.4c1-0.9,2.3-1.3,3.8-1.3c1.6,0,2.9,0.5,3.9,1.4
			c1,0.9,1.5,2.2,1.5,3.6h-2.7c0-0.7-0.3-1.4-0.8-1.9c-0.5-0.5-1.1-0.8-1.9-0.8c-0.8,0-1.4,0.2-1.9,0.6c-0.5,0.4-0.7,1-0.7,1.7
			c0,0.6,0.2,1,0.5,1.3c0.3,0.3,1.1,0.8,2.4,1.3c2,0.8,3.4,1.6,4.1,2.3s1.1,1.7,1.1,2.9c0,1.4-0.5,2.6-1.5,3.5s-2.3,1.3-4,1.3
			c-1.7,0-3.1-0.5-4.2-1.5s-1.6-2.3-1.6-3.8h2.7c0,0.9,0.3,1.6,0.8,2.2c0.5,0.5,1.3,0.8,2.2,0.8c0.9,0,1.6-0.2,2.1-0.6
			C1650,967.7,1650.2,967.2,1650.2,966.5z"/>
		<path class="st7" d="M1666.2,954.1l0.1,1.8c1.1-1.4,2.4-2.1,4-2.1c2.9,0,4.4,2,4.5,5.9v11.1h-2.7v-10.9c0-1.3-0.2-2.2-0.7-2.8
			s-1.1-0.8-2-0.8c-0.7,0-1.3,0.2-1.8,0.7c-0.5,0.5-1,1-1.3,1.8v12.1h-2.7v-16.6H1666.2z"/>
		<path class="st7" d="M1678.3,961.6c0-2.4,0.6-4.3,1.8-5.7c1.2-1.4,2.7-2.1,4.6-2.1s3.5,0.7,4.6,2.1c1.2,1.4,1.8,3.2,1.8,5.6v1.8
			c0,2.4-0.6,4.3-1.8,5.7c-1.2,1.4-2.7,2.1-4.7,2.1c-1.9,0-3.5-0.7-4.6-2c-1.2-1.4-1.8-3.2-1.8-5.5V961.6z M1681.1,963.2
			c0,1.7,0.3,3.1,1,4c0.7,1,1.6,1.5,2.7,1.5c2.4,0,3.6-1.7,3.7-5.2v-1.9c0-1.7-0.3-3-1-4c-0.7-1-1.6-1.5-2.7-1.5
			c-1.1,0-2,0.5-2.7,1.5c-0.7,1-1,2.3-1,4V963.2z"/>
		<path class="st7" d="M1698.3,950.1v4h2.5v2.2h-2.5v10.3c0,0.7,0.1,1.2,0.3,1.5c0.2,0.3,0.6,0.5,1.1,0.5c0.4,0,0.7-0.1,1.1-0.2
			l0,2.3c-0.6,0.2-1.2,0.3-1.9,0.3c-1.1,0-1.9-0.4-2.5-1.2s-0.8-1.9-0.8-3.3v-10.3h-2.5v-2.2h2.5v-4H1698.3z"/>
		<path class="st7" d="M1723.2,963.2c0,2.6-0.5,4.6-1.4,5.9c-0.9,1.3-2.3,1.9-4,1.9c-1.7,0-3-0.6-3.9-1.9v8h-2.7v-23h2.5l0.1,1.8
			c0.9-1.4,2.2-2.2,3.9-2.2c1.8,0,3.2,0.6,4.1,1.9c0.9,1.3,1.4,3.2,1.4,5.7V963.2z M1720.5,961.7c0-1.9-0.3-3.2-0.9-4.1
			c-0.6-0.9-1.5-1.3-2.8-1.3c-1.3,0-2.3,0.7-3,2v8.7c0.7,1.3,1.7,1.9,3,1.9c1.2,0,2.1-0.4,2.7-1.3c0.6-0.9,0.9-2.2,0.9-4.1V961.7z"
			/>
	</g>
	<g class="st3">
		<path class="st7" d="M1733.6,956.7c-0.4-0.1-0.8-0.1-1.2-0.1c-1.4,0-2.4,0.8-2.9,2.3v11.9h-2.7v-16.6h2.6l0,1.7
			c0.7-1.3,1.8-2,3.1-2c0.4,0,0.8,0.1,1.1,0.2L1733.6,956.7z"/>
	</g>
	<g class="st3">
		<path class="st7" d="M1735.4,961.6c0-2.4,0.6-4.3,1.8-5.7c1.2-1.4,2.7-2.1,4.7-2.1c1.9,0,3.5,0.7,4.6,2.1c1.2,1.4,1.8,3.2,1.8,5.6
			v1.8c0,2.4-0.6,4.3-1.8,5.7c-1.2,1.4-2.7,2.1-4.7,2.1c-1.9,0-3.5-0.7-4.6-2c-1.2-1.4-1.8-3.2-1.8-5.5V961.6z M1738.1,963.2
			c0,1.7,0.3,3.1,1,4s1.6,1.5,2.7,1.5c2.4,0,3.6-1.7,3.7-5.2v-1.9c0-1.7-0.3-3-1-4c-0.7-1-1.6-1.5-2.7-1.5c-1.1,0-2,0.5-2.7,1.5
			s-1,2.3-1,4V963.2z"/>
		<path class="st7" d="M1755.3,950.1v4h2.5v2.2h-2.5v10.3c0,0.7,0.1,1.2,0.3,1.5c0.2,0.3,0.6,0.5,1.1,0.5c0.4,0,0.7-0.1,1.1-0.2
			l0,2.3c-0.6,0.2-1.2,0.3-1.9,0.3c-1.1,0-1.9-0.4-2.5-1.2s-0.8-1.9-0.8-3.3v-10.3h-2.5v-2.2h2.5v-4H1755.3z"/>
		<path class="st7" d="M1767,971c-2.1,0-3.7-0.6-4.8-1.9c-1.1-1.2-1.7-3-1.7-5.4v-2c0-2.5,0.5-4.4,1.6-5.8s2.6-2.1,4.5-2.1
			c1.9,0,3.4,0.6,4.4,1.9c1,1.2,1.5,3.2,1.5,5.8v1.8h-9.3v0.4c0,1.8,0.3,3.1,1,3.9c0.7,0.8,1.6,1.2,2.9,1.2c0.8,0,1.5-0.2,2.1-0.5
			c0.6-0.3,1.2-0.8,1.7-1.4l1.4,1.7C1771.2,970.2,1769.4,971,1767,971z M1766.7,956.1c-1.1,0-2,0.4-2.5,1.2c-0.5,0.8-0.9,2-0.9,3.6
			h6.5v-0.4c-0.1-1.6-0.4-2.7-0.9-3.4C1768.5,956.5,1767.7,956.1,1766.7,956.1z"/>
		<path class="st7" d="M1781.6,968.7c0.9,0,1.6-0.3,2.2-0.8s0.8-1.4,0.9-2.4h2.6c-0.1,1.6-0.6,2.9-1.7,4c-1.1,1.1-2.4,1.6-3.9,1.6
			c-2.1,0-3.6-0.6-4.7-1.9c-1.1-1.3-1.6-3.2-1.6-5.8v-1.8c0-2.5,0.5-4.4,1.6-5.7c1.1-1.3,2.6-2,4.7-2c1.7,0,3.1,0.5,4,1.6
			c1,1.1,1.5,2.5,1.6,4.4h-2.6c-0.1-1.2-0.4-2.2-0.9-2.8c-0.5-0.6-1.3-0.9-2.2-0.9c-1.2,0-2.1,0.4-2.7,1.2c-0.6,0.8-0.9,2.1-0.9,3.9
			v2.1c0,2,0.3,3.3,0.9,4.2S1780.3,968.7,1781.6,968.7z"/>
		<path class="st7" d="M1793.9,950.1v4h2.5v2.2h-2.5v10.3c0,0.7,0.1,1.2,0.3,1.5c0.2,0.3,0.6,0.5,1.1,0.5c0.4,0,0.7-0.1,1.1-0.2
			l0,2.3c-0.6,0.2-1.2,0.3-1.9,0.3c-1.1,0-1.9-0.4-2.5-1.2c-0.6-0.8-0.8-1.9-0.8-3.3v-10.3h-2.5v-2.2h2.5v-4H1793.9z"/>
		<path class="st7" d="M1805.6,971c-2.1,0-3.7-0.6-4.8-1.9c-1.1-1.2-1.7-3-1.7-5.4v-2c0-2.5,0.5-4.4,1.6-5.8
			c1.1-1.4,2.6-2.1,4.5-2.1c1.9,0,3.4,0.6,4.4,1.9c1,1.2,1.5,3.2,1.5,5.8v1.8h-9.3v0.4c0,1.8,0.3,3.1,1,3.9s1.6,1.2,2.9,1.2
			c0.8,0,1.5-0.2,2.1-0.5c0.6-0.3,1.2-0.8,1.7-1.4l1.4,1.7C1809.8,970.2,1808,971,1805.6,971z M1805.3,956.1c-1.1,0-2,0.4-2.5,1.2
			c-0.5,0.8-0.9,2-0.9,3.6h6.5v-0.4c-0.1-1.6-0.4-2.7-0.9-3.4C1807.1,956.5,1806.3,956.1,1805.3,956.1z"/>
		<path class="st7" d="M1813.8,961.7c0-2.6,0.5-4.5,1.4-5.9c1-1.3,2.3-2,4.1-2c1.6,0,2.8,0.6,3.7,1.9v-8.6h2.7v23.6h-2.5l-0.1-1.8
			c-0.9,1.4-2.2,2.1-3.8,2.1c-1.7,0-3.1-0.7-4.1-2c-1-1.3-1.5-3.2-1.5-5.7V961.7z M1816.5,963.2c0,1.9,0.3,3.2,0.8,4.1
			c0.6,0.9,1.5,1.3,2.7,1.3c1.4,0,2.4-0.7,3-2v-8.4c-0.7-1.3-1.7-2-3-2c-1.2,0-2.2,0.4-2.7,1.3c-0.6,0.9-0.8,2.2-0.8,4V963.2z"/>
	</g>
	<g class="st3">
		<path class="st7" d="M1425,999.4c0-2.4,0.6-4.3,1.8-5.7c1.2-1.4,2.7-2.1,4.7-2.1c1.9,0,3.5,0.7,4.6,2.1s1.8,3.2,1.8,5.6v1.8
			c0,2.4-0.6,4.3-1.8,5.7c-1.2,1.4-2.7,2.1-4.7,2.1c-1.9,0-3.5-0.7-4.6-2c-1.2-1.4-1.8-3.2-1.8-5.5V999.4z M1427.7,1001
			c0,1.7,0.3,3.1,1,4s1.6,1.5,2.7,1.5c2.4,0,3.6-1.7,3.7-5.2v-1.9c0-1.7-0.3-3-1-4s-1.6-1.5-2.7-1.5c-1.1,0-2,0.5-2.7,1.5
			s-1,2.3-1,4V1001z"/>
		<path class="st7" d="M1448.2,994.4c-0.4-0.1-0.8-0.1-1.2-0.1c-1.4,0-2.4,0.8-2.9,2.3v11.9h-2.7v-16.6h2.6l0,1.7
			c0.7-1.3,1.8-2,3.1-2c0.4,0,0.8,0.1,1.1,0.2L1448.2,994.4z"/>
		<path class="st7" d="M1461.3,987.5c0,0.5-0.1,0.8-0.4,1.2c-0.3,0.3-0.6,0.5-1.2,0.5c-0.5,0-0.9-0.2-1.2-0.5
			c-0.3-0.3-0.4-0.7-0.4-1.2s0.1-0.9,0.4-1.2s0.6-0.5,1.2-0.5c0.5,0,0.9,0.2,1.2,0.5C1461.2,986.6,1461.3,987,1461.3,987.5z
			 M1461.1,1008.5h-2.7v-16.6h2.7V1008.5z"/>
		<path class="st7" d="M1468.9,987.8v4h2.5v2.2h-2.5v10.3c0,0.7,0.1,1.2,0.3,1.5c0.2,0.3,0.6,0.5,1.1,0.5c0.4,0,0.7-0.1,1.1-0.2
			l0,2.3c-0.6,0.2-1.2,0.3-1.9,0.3c-1.1,0-1.9-0.4-2.5-1.2s-0.8-1.9-0.8-3.3v-10.3h-2.5v-2.2h2.5v-4H1468.9z"/>
		<path class="st7" d="M1485,987.5c0,0.5-0.1,0.8-0.4,1.2c-0.3,0.3-0.6,0.5-1.2,0.5c-0.5,0-0.9-0.2-1.2-0.5
			c-0.3-0.3-0.4-0.7-0.4-1.2s0.1-0.9,0.4-1.2c0.3-0.3,0.6-0.5,1.2-0.5s0.9,0.2,1.2,0.5C1484.9,986.6,1485,987,1485,987.5z
			 M1484.8,1008.5h-2.7v-16.6h2.7V1008.5z"/>
		<path class="st7" d="M1497.2,1004.2c0-0.6-0.2-1.1-0.7-1.5c-0.4-0.4-1.3-0.9-2.6-1.5c-1.5-0.6-2.5-1.1-3.1-1.6
			c-0.6-0.4-1-0.9-1.3-1.5c-0.3-0.5-0.4-1.2-0.4-2c0-1.4,0.5-2.5,1.5-3.4c1-0.9,2.3-1.3,3.8-1.3c1.6,0,2.9,0.5,3.9,1.4
			c1,0.9,1.5,2.2,1.5,3.6h-2.7c0-0.7-0.3-1.4-0.8-1.9c-0.5-0.5-1.1-0.8-1.9-0.8c-0.8,0-1.4,0.2-1.9,0.6c-0.5,0.4-0.7,1-0.7,1.7
			c0,0.6,0.2,1,0.5,1.3c0.3,0.3,1.1,0.8,2.4,1.3c2,0.8,3.4,1.6,4.1,2.3c0.7,0.8,1.1,1.7,1.1,2.9c0,1.4-0.5,2.6-1.5,3.5
			s-2.3,1.3-4,1.3c-1.7,0-3.1-0.5-4.2-1.5s-1.6-2.3-1.6-3.8h2.7c0,0.9,0.3,1.6,0.8,2.2s1.3,0.8,2.2,0.8c0.9,0,1.6-0.2,2.1-0.6
			C1496.9,1005.5,1497.2,1004.9,1497.2,1004.2z"/>
		<path class="st7" d="M1518.7,1004.2c0-0.6-0.2-1.1-0.7-1.5c-0.4-0.4-1.3-0.9-2.6-1.5c-1.5-0.6-2.5-1.1-3.1-1.6
			c-0.6-0.4-1-0.9-1.3-1.5c-0.3-0.5-0.4-1.2-0.4-2c0-1.4,0.5-2.5,1.5-3.4s2.3-1.3,3.8-1.3c1.6,0,2.9,0.5,3.9,1.4
			c1,0.9,1.5,2.2,1.5,3.6h-2.7c0-0.7-0.3-1.4-0.8-1.9c-0.5-0.5-1.1-0.8-1.9-0.8c-0.8,0-1.4,0.2-1.9,0.6c-0.5,0.4-0.7,1-0.7,1.7
			c0,0.6,0.2,1,0.5,1.3c0.3,0.3,1.1,0.8,2.4,1.3c2,0.8,3.4,1.6,4.1,2.3c0.7,0.8,1.1,1.7,1.1,2.9c0,1.4-0.5,2.6-1.5,3.5
			s-2.3,1.3-4,1.3c-1.7,0-3.1-0.5-4.2-1.5s-1.6-2.3-1.6-3.8h2.7c0,0.9,0.3,1.6,0.8,2.2c0.5,0.5,1.3,0.8,2.2,0.8
			c0.9,0,1.6-0.2,2.1-0.6C1518.5,1005.5,1518.7,1004.9,1518.7,1004.2z"/>
	</g>
	<g class="st3">
		<path class="st7" d="M1530.9,1008.8c-2.1,0-3.7-0.6-4.8-1.9c-1.1-1.2-1.7-3-1.7-5.4v-2c0-2.5,0.5-4.4,1.6-5.8s2.6-2.1,4.5-2.1
			c1.9,0,3.4,0.6,4.4,1.9c1,1.2,1.5,3.2,1.5,5.8v1.8h-9.3v0.4c0,1.8,0.3,3.1,1,3.9c0.7,0.8,1.6,1.2,2.9,1.2c0.8,0,1.5-0.2,2.1-0.5
			c0.6-0.3,1.2-0.8,1.7-1.4l1.4,1.7C1535.1,1008,1533.3,1008.8,1530.9,1008.8z M1530.6,993.9c-1.1,0-2,0.4-2.5,1.2
			c-0.5,0.8-0.9,2-0.9,3.6h6.5v-0.4c-0.1-1.6-0.4-2.7-0.9-3.4C1532.4,994.2,1531.6,993.9,1530.6,993.9z"/>
	</g>
	<g class="st3">
		<path class="st7" d="M1544.2,1004.4l3.2-12.5h2.8l-4.9,16.6h-2l-5-16.6h2.8L1544.2,1004.4z"/>
		<path class="st7" d="M1558.9,1008.8c-2.1,0-3.7-0.6-4.8-1.9c-1.1-1.2-1.7-3-1.7-5.4v-2c0-2.5,0.5-4.4,1.6-5.8s2.6-2.1,4.5-2.1
			c1.9,0,3.4,0.6,4.4,1.9c1,1.2,1.5,3.2,1.5,5.8v1.8h-9.3v0.4c0,1.8,0.3,3.1,1,3.9c0.7,0.8,1.6,1.2,2.9,1.2c0.8,0,1.5-0.2,2.1-0.5
			c0.6-0.3,1.2-0.8,1.7-1.4l1.4,1.7C1563.1,1008,1561.3,1008.8,1558.9,1008.8z M1558.6,993.9c-1.1,0-2,0.4-2.5,1.2
			c-0.5,0.8-0.9,2-0.9,3.6h6.5v-0.4c-0.1-1.6-0.4-2.7-0.9-3.4C1560.4,994.2,1559.6,993.9,1558.6,993.9z"/>
		<path class="st7" d="M1574.6,994.4c-0.4-0.1-0.8-0.1-1.2-0.1c-1.4,0-2.4,0.8-2.9,2.3v11.9h-2.7v-16.6h2.6l0,1.7
			c0.7-1.3,1.8-2,3.1-2c0.4,0,0.8,0.1,1.1,0.2L1574.6,994.4z"/>
		<path class="st7" d="M1583.2,1008.8c-2.1,0-3.7-0.6-4.8-1.9c-1.1-1.2-1.7-3-1.7-5.4v-2c0-2.5,0.5-4.4,1.6-5.8s2.6-2.1,4.5-2.1
			c1.9,0,3.4,0.6,4.4,1.9c1,1.2,1.5,3.2,1.5,5.8v1.8h-9.3v0.4c0,1.8,0.3,3.1,1,3.9c0.7,0.8,1.6,1.2,2.9,1.2c0.8,0,1.5-0.2,2.1-0.5
			c0.6-0.3,1.2-0.8,1.7-1.4l1.4,1.7C1587.4,1008,1585.6,1008.8,1583.2,1008.8z M1582.9,993.9c-1.1,0-2,0.4-2.5,1.2
			c-0.5,0.8-0.9,2-0.9,3.6h6.5v-0.4c-0.1-1.6-0.4-2.7-0.9-3.4C1584.7,994.2,1583.9,993.9,1582.9,993.9z"/>
		<path class="st7" d="M1595,1008.5h-2.7v-23.6h2.7V1008.5z"/>
		<path class="st7" d="M1603.8,1004l3-12.1h2.9l-5.4,19c-0.4,1.4-1,2.5-1.7,3.3s-1.6,1.1-2.6,1.1c-0.4,0-0.8-0.1-1.4-0.2v-2.3
			l0.6,0.1c0.8,0,1.4-0.2,1.9-0.6c0.4-0.4,0.8-1,1.1-1.9l0.5-1.9l-4.9-16.5h3L1603.8,1004z"/>
		<path class="st7" d="M1626.4,994.4c-0.4-0.1-0.8-0.1-1.2-0.1c-1.4,0-2.4,0.8-2.9,2.3v11.9h-2.7v-16.6h2.6l0,1.7
			c0.7-1.3,1.8-2,3.1-2c0.4,0,0.8,0.1,1.1,0.2L1626.4,994.4z"/>
		<path class="st7" d="M1635.1,1008.8c-2.1,0-3.7-0.6-4.8-1.9c-1.1-1.2-1.7-3-1.7-5.4v-2c0-2.5,0.5-4.4,1.6-5.8s2.6-2.1,4.5-2.1
			c1.9,0,3.4,0.6,4.4,1.9c1,1.2,1.5,3.2,1.5,5.8v1.8h-9.3v0.4c0,1.8,0.3,3.1,1,3.9c0.7,0.8,1.6,1.2,2.9,1.2c0.8,0,1.5-0.2,2.1-0.5
			c0.6-0.3,1.2-0.8,1.7-1.4l1.4,1.7C1639.3,1008,1637.5,1008.8,1635.1,1008.8z M1634.8,993.9c-1.1,0-2,0.4-2.5,1.2
			c-0.5,0.8-0.9,2-0.9,3.6h6.5v-0.4c-0.1-1.6-0.4-2.7-0.9-3.4C1636.5,994.2,1635.8,993.9,1634.8,993.9z"/>
		<path class="st7" d="M1652,1004.2c0-0.6-0.2-1.1-0.7-1.5c-0.4-0.4-1.3-0.9-2.6-1.5c-1.5-0.6-2.5-1.1-3.1-1.6
			c-0.6-0.4-1-0.9-1.3-1.5c-0.3-0.5-0.4-1.2-0.4-2c0-1.4,0.5-2.5,1.5-3.4c1-0.9,2.3-1.3,3.8-1.3c1.6,0,2.9,0.5,3.9,1.4
			c1,0.9,1.5,2.2,1.5,3.6h-2.7c0-0.7-0.3-1.4-0.8-1.9c-0.5-0.5-1.1-0.8-1.9-0.8c-0.8,0-1.4,0.2-1.9,0.6c-0.5,0.4-0.7,1-0.7,1.7
			c0,0.6,0.2,1,0.5,1.3c0.3,0.3,1.1,0.8,2.4,1.3c2,0.8,3.4,1.6,4.1,2.3s1.1,1.7,1.1,2.9c0,1.4-0.5,2.6-1.5,3.5s-2.3,1.3-4,1.3
			c-1.7,0-3.1-0.5-4.2-1.5s-1.6-2.3-1.6-3.8h2.7c0,0.9,0.3,1.6,0.8,2.2c0.5,0.5,1.3,0.8,2.2,0.8c0.9,0,1.6-0.2,2.1-0.6
			C1651.7,1005.5,1652,1004.9,1652,1004.2z"/>
		<path class="st7" d="M1661.8,987.8v4h2.5v2.2h-2.5v10.3c0,0.7,0.1,1.2,0.3,1.5c0.2,0.3,0.6,0.5,1.1,0.5c0.4,0,0.7-0.1,1.1-0.2
			l0,2.3c-0.6,0.2-1.2,0.3-1.9,0.3c-1.1,0-1.9-0.4-2.5-1.2s-0.8-1.9-0.8-3.3v-10.3h-2.5v-2.2h2.5v-4H1661.8z"/>
		<path class="st7" d="M1674.4,994.4c-0.4-0.1-0.8-0.1-1.2-0.1c-1.4,0-2.4,0.8-2.9,2.3v11.9h-2.7v-16.6h2.6l0,1.7
			c0.7-1.3,1.8-2,3.1-2c0.4,0,0.8,0.1,1.1,0.2L1674.4,994.4z"/>
		<path class="st7" d="M1680.2,987.5c0,0.5-0.1,0.8-0.4,1.2c-0.3,0.3-0.6,0.5-1.2,0.5c-0.5,0-0.9-0.2-1.2-0.5
			c-0.3-0.3-0.4-0.7-0.4-1.2s0.1-0.9,0.4-1.2c0.3-0.3,0.6-0.5,1.2-0.5c0.5,0,0.9,0.2,1.2,0.5C1680.1,986.6,1680.2,987,1680.2,987.5z
			 M1680,1008.5h-2.7v-16.6h2.7V1008.5z"/>
		<path class="st7" d="M1690.1,1006.5c0.9,0,1.6-0.3,2.2-0.8s0.8-1.4,0.9-2.4h2.6c-0.1,1.6-0.6,2.9-1.7,4c-1.1,1.1-2.4,1.6-3.9,1.6
			c-2.1,0-3.6-0.6-4.7-1.9c-1.1-1.3-1.6-3.2-1.6-5.8v-1.8c0-2.5,0.5-4.4,1.6-5.7c1.1-1.3,2.6-2,4.7-2c1.7,0,3.1,0.5,4,1.6
			c1,1.1,1.5,2.5,1.6,4.4h-2.6c-0.1-1.2-0.4-2.2-0.9-2.8c-0.5-0.6-1.3-0.9-2.2-0.9c-1.2,0-2.1,0.4-2.7,1.2c-0.6,0.8-0.9,2.1-0.9,3.9
			v2.1c0,2,0.3,3.3,0.9,4.2S1688.8,1006.5,1690.1,1006.5z"/>
		<path class="st7" d="M1702.4,987.8v4h2.5v2.2h-2.5v10.3c0,0.7,0.1,1.2,0.3,1.5c0.2,0.3,0.6,0.5,1.1,0.5c0.4,0,0.7-0.1,1.1-0.2
			l0,2.3c-0.6,0.2-1.2,0.3-1.9,0.3c-1.1,0-1.9-0.4-2.5-1.2c-0.6-0.8-0.8-1.9-0.8-3.3v-10.3h-2.5v-2.2h2.5v-4H1702.4z"/>
		<path class="st7" d="M1714.1,1008.8c-2.1,0-3.7-0.6-4.8-1.9c-1.1-1.2-1.7-3-1.7-5.4v-2c0-2.5,0.5-4.4,1.6-5.8
			c1.1-1.4,2.6-2.1,4.5-2.1c1.9,0,3.4,0.6,4.4,1.9c1,1.2,1.5,3.2,1.5,5.8v1.8h-9.3v0.4c0,1.8,0.3,3.1,1,3.9s1.6,1.2,2.9,1.2
			c0.8,0,1.5-0.2,2.1-0.5c0.6-0.3,1.2-0.8,1.7-1.4l1.4,1.7C1718.3,1008,1716.5,1008.8,1714.1,1008.8z M1713.8,993.9
			c-1.1,0-2,0.4-2.5,1.2c-0.5,0.8-0.9,2-0.9,3.6h6.5v-0.4c-0.1-1.6-0.4-2.7-0.9-3.4C1715.5,994.2,1714.8,993.9,1713.8,993.9z"/>
		<path class="st7" d="M1722.3,999.4c0-2.6,0.5-4.5,1.4-5.9c1-1.3,2.3-2,4.1-2c1.6,0,2.8,0.6,3.7,1.9v-8.6h2.7v23.6h-2.5l-0.1-1.8
			c-0.9,1.4-2.2,2.1-3.8,2.1c-1.7,0-3.1-0.7-4.1-2c-1-1.3-1.5-3.2-1.5-5.7V999.4z M1725,1001c0,1.9,0.3,3.2,0.8,4.1
			c0.6,0.9,1.5,1.3,2.7,1.3c1.4,0,2.4-0.7,3-2V996c-0.7-1.3-1.7-2-3-2c-1.2,0-2.2,0.4-2.7,1.3c-0.6,0.9-0.8,2.2-0.8,4V1001z"/>
	</g>
	<g class="st3">
		<path class="st8" d="M1430.3,786.1v7.9h-4.5v-22.4h7.6c2.2,0,4,0.7,5.3,2.1c1.3,1.4,2,3.2,2,5.3c0,2.2-0.7,3.9-2,5.2
			c-1.3,1.3-3.1,1.9-5.4,1.9H1430.3z M1430.3,782.3h3.1c0.9,0,1.5-0.3,2-0.8c0.5-0.6,0.7-1.4,0.7-2.5c0-1.1-0.2-2-0.7-2.7
			c-0.5-0.7-1.1-1-1.9-1h-3.2V782.3z"/>
	</g>
	<g class="st3">
		<path class="st8" d="M1451.6,781.5l-1.4-0.1c-1.2,0-2,0.5-2.4,1.6v11h-4.4v-16.6h4.1l0.1,1.8c0.7-1.4,1.6-2.1,2.8-2.1
			c0.5,0,0.9,0.1,1.2,0.2L1451.6,781.5z"/>
	</g>
	<g class="st3">
		<path class="st8" d="M1452.8,785.1c0-2.5,0.6-4.5,1.8-5.9c1.2-1.4,2.8-2.2,4.9-2.2c2.1,0,3.8,0.7,5,2.2s1.8,3.4,1.8,6v1.1
			c0,2.5-0.6,4.5-1.8,5.9c-1.2,1.4-2.8,2.1-5,2.1c-2.1,0-3.8-0.7-5-2.1s-1.8-3.4-1.8-6V785.1z M1457.2,786.2c0,3,0.8,4.5,2.4,4.5
			c1.5,0,2.3-1.2,2.4-3.7l0-1.8c0-1.5-0.2-2.6-0.6-3.4c-0.4-0.7-1-1.1-1.8-1.1c-0.7,0-1.3,0.4-1.7,1.1s-0.6,1.9-0.6,3.4V786.2z"/>
		<path class="st8" d="M1476.8,786.2h-7.5v-3.6h7.5V786.2z"/>
		<path class="st8" d="M1486.4,790.6c1.3,0,1.9-0.8,1.9-2.5h4.1c0,1.8-0.6,3.3-1.7,4.4c-1.1,1.1-2.5,1.7-4.2,1.7
			c-2.1,0-3.8-0.7-4.9-2s-1.7-3.3-1.7-5.9v-1.3c0-2.6,0.6-4.6,1.7-6s2.8-2.1,4.9-2.1c1.8,0,3.3,0.6,4.3,1.7c1.1,1.1,1.6,2.7,1.6,4.8
			h-4.1c0-0.9-0.2-1.6-0.5-2.2s-0.8-0.8-1.5-0.8c-0.8,0-1.3,0.3-1.6,0.8c-0.3,0.5-0.5,1.6-0.5,3.1v1.7c0,1.4,0.1,2.3,0.2,2.8
			s0.4,0.9,0.7,1.2C1485.4,790.5,1485.9,790.6,1486.4,790.6z"/>
		<path class="st8" d="M1499.1,778.8c0.9-1.2,2.1-1.8,3.5-1.8c1.5,0,2.7,0.5,3.5,1.6c0.8,1.1,1.2,2.7,1.2,4.8V794h-4.4v-10.5
			c0-1-0.2-1.7-0.5-2.1c-0.3-0.4-0.8-0.7-1.5-0.7c-0.8,0-1.4,0.4-1.8,1.1V794h-4.4v-23.6h4.4V778.8z"/>
		<path class="st8" d="M1509.9,785.1c0-2.5,0.6-4.5,1.8-5.9c1.2-1.4,2.8-2.2,4.9-2.2c2.1,0,3.8,0.7,5,2.2c1.2,1.4,1.8,3.4,1.8,6v1.1
			c0,2.5-0.6,4.5-1.8,5.9c-1.2,1.4-2.8,2.1-4.9,2.1c-2.1,0-3.8-0.7-5-2.1s-1.8-3.4-1.8-6V785.1z M1514.3,786.2c0,3,0.8,4.5,2.4,4.5
			c1.5,0,2.3-1.2,2.4-3.7l0-1.8c0-1.5-0.2-2.6-0.6-3.4s-1-1.1-1.8-1.1c-0.7,0-1.3,0.4-1.7,1.1s-0.6,1.9-0.6,3.4V786.2z"/>
		<path class="st8" d="M1526.1,773c0-0.7,0.2-1.2,0.6-1.7c0.4-0.4,1-0.6,1.7-0.6c0.7,0,1.3,0.2,1.7,0.6c0.4,0.4,0.6,1,0.6,1.7
			c0,0.7-0.2,1.2-0.6,1.7s-1,0.7-1.7,0.7s-1.3-0.2-1.7-0.7C1526.3,774.2,1526.1,773.7,1526.1,773z M1530.6,794h-4.4v-16.6h4.4V794z"
			/>
		<path class="st8" d="M1540,790.6c1.3,0,1.9-0.8,1.9-2.5h4.1c0,1.8-0.6,3.3-1.7,4.4c-1.1,1.1-2.5,1.7-4.2,1.7c-2.1,0-3.8-0.7-4.9-2
			s-1.7-3.3-1.7-5.9v-1.3c0-2.6,0.6-4.6,1.7-6s2.8-2.1,4.9-2.1c1.8,0,3.3,0.6,4.3,1.7c1.1,1.1,1.6,2.7,1.6,4.8h-4.1
			c0-0.9-0.2-1.6-0.5-2.2s-0.8-0.8-1.5-0.8c-0.8,0-1.3,0.3-1.6,0.8c-0.3,0.5-0.5,1.6-0.5,3.1v1.7c0,1.4,0.1,2.3,0.2,2.8
			s0.4,0.9,0.7,1.2C1539,790.5,1539.4,790.6,1540,790.6z"/>
		<path class="st8" d="M1555.2,794.3c-2.2,0-4-0.7-5.2-2s-1.9-3.2-1.9-5.7v-1.3c0-2.6,0.6-4.6,1.7-6.1c1.1-1.4,2.8-2.1,4.9-2.1
			c2.1,0,3.7,0.7,4.7,2c1.1,1.3,1.6,3.3,1.6,5.9v2.1h-8.7c0.1,1.2,0.3,2.1,0.8,2.7c0.5,0.6,1.2,0.9,2.2,0.9c1.5,0,2.7-0.5,3.6-1.5
			l1.7,2.6c-0.5,0.7-1.3,1.3-2.3,1.8C1557.5,794,1556.4,794.3,1555.2,794.3z M1552.5,784.1h4.4v-0.4c0-1-0.2-1.7-0.5-2.3
			c-0.3-0.5-0.8-0.8-1.6-0.8c-0.8,0-1.3,0.3-1.7,0.8C1552.7,782,1552.5,782.9,1552.5,784.1z"/>
		<path class="st8" d="M1578.2,789.5c0-0.4-0.2-0.7-0.5-1s-1.1-0.7-2.4-1.3c-1.8-0.7-3-1.5-3.7-2.3c-0.7-0.8-1-1.7-1-2.9
			c0-1.5,0.5-2.7,1.6-3.6c1.1-0.9,2.4-1.4,4.2-1.4c1.8,0,3.3,0.5,4.4,1.4c1.1,0.9,1.6,2.2,1.6,3.8h-4.4c0-1.4-0.6-2-1.7-2
			c-0.5,0-0.8,0.1-1.1,0.4c-0.3,0.3-0.4,0.7-0.4,1.2c0,0.4,0.2,0.7,0.5,1c0.3,0.3,1.1,0.7,2.3,1.2c1.8,0.7,3,1.4,3.8,2.2
			c0.7,0.8,1.1,1.8,1.1,3.1c0,1.5-0.6,2.7-1.7,3.6c-1.1,0.9-2.6,1.4-4.4,1.4c-1.2,0-2.3-0.2-3.2-0.7s-1.7-1.1-2.2-2
			c-0.5-0.9-0.8-1.8-0.8-2.8h4.1c0,0.8,0.2,1.3,0.5,1.7c0.3,0.4,0.9,0.6,1.6,0.6C1577.6,791.1,1578.2,790.5,1578.2,789.5z"/>
		<path class="st8" d="M1590.1,773.2v4.1h2.2v3.3h-2.2v8.3c0,0.7,0.1,1.1,0.3,1.4c0.2,0.2,0.5,0.4,1,0.4c0.4,0,0.8,0,1-0.1l0,3.4
			c-0.7,0.3-1.5,0.4-2.4,0.4c-2.8,0-4.2-1.6-4.3-4.8v-8.8h-1.9v-3.3h1.9v-4.1H1590.1z"/>
		<path class="st8" d="M1602.7,794c-0.1-0.3-0.2-0.7-0.4-1.3c-0.8,1.1-1.8,1.6-3.2,1.6c-1.4,0-2.5-0.5-3.5-1.4
			c-0.9-0.9-1.4-2.1-1.4-3.6c0-1.7,0.6-3.1,1.7-4c1.1-1,2.7-1.4,4.8-1.5h1.3v-1.3c0-0.7-0.1-1.3-0.4-1.6s-0.6-0.5-1.1-0.5
			c-1.1,0-1.6,0.6-1.6,1.9h-4.4c0-1.5,0.6-2.8,1.7-3.8c1.2-1,2.6-1.5,4.4-1.5c1.8,0,3.2,0.5,4.2,1.4c1,0.9,1.5,2.3,1.5,4.1v7.8
			c0,1.4,0.2,2.6,0.6,3.4v0.3H1602.7z M1600.1,790.8c0.5,0,0.9-0.1,1.2-0.3c0.3-0.2,0.6-0.4,0.8-0.7v-3.5h-1c-0.7,0-1.3,0.2-1.7,0.7
			c-0.4,0.5-0.6,1.1-0.6,1.9C1598.6,790.2,1599.1,790.8,1600.1,790.8z"/>
		<path class="st8" d="M1614.6,773.2v4.1h2.2v3.3h-2.2v8.3c0,0.7,0.1,1.1,0.3,1.4c0.2,0.2,0.5,0.4,1,0.4c0.4,0,0.8,0,1-0.1l0,3.4
			c-0.7,0.3-1.5,0.4-2.4,0.4c-2.8,0-4.2-1.6-4.3-4.8v-8.8h-1.9v-3.3h1.9v-4.1H1614.6z"/>
		<path class="st8" d="M1626,794.3c-2.2,0-4-0.7-5.2-2s-1.9-3.2-1.9-5.7v-1.3c0-2.6,0.6-4.6,1.7-6.1c1.1-1.4,2.8-2.1,4.9-2.1
			c2.1,0,3.7,0.7,4.7,2c1.1,1.3,1.6,3.3,1.6,5.9v2.1h-8.7c0.1,1.2,0.3,2.1,0.8,2.7c0.5,0.6,1.2,0.9,2.2,0.9c1.5,0,2.7-0.5,3.6-1.5
			l1.7,2.6c-0.5,0.7-1.3,1.3-2.3,1.8C1628.2,794,1627.1,794.3,1626,794.3z M1623.2,784.1h4.4v-0.4c0-1-0.2-1.7-0.5-2.3
			c-0.3-0.5-0.8-0.8-1.6-0.8c-0.8,0-1.3,0.3-1.7,0.8C1623.5,782,1623.3,782.9,1623.2,784.1z"/>
		<path class="st8" d="M1641.7,789.5c0-0.4-0.2-0.7-0.5-1s-1.1-0.7-2.4-1.3c-1.8-0.7-3-1.5-3.7-2.3c-0.7-0.8-1-1.7-1-2.9
			c0-1.5,0.5-2.7,1.6-3.6c1-0.9,2.4-1.4,4.2-1.4c1.8,0,3.3,0.5,4.4,1.4c1.1,0.9,1.6,2.2,1.6,3.8h-4.3c0-1.4-0.6-2-1.7-2
			c-0.5,0-0.8,0.1-1.1,0.4c-0.3,0.3-0.4,0.7-0.4,1.2c0,0.4,0.2,0.7,0.5,1c0.3,0.3,1.1,0.7,2.3,1.2c1.8,0.7,3,1.4,3.8,2.2
			c0.7,0.8,1.1,1.8,1.1,3.1c0,1.5-0.6,2.7-1.7,3.6c-1.1,0.9-2.6,1.4-4.4,1.4c-1.2,0-2.3-0.2-3.2-0.7c-0.9-0.5-1.7-1.1-2.2-2
			c-0.5-0.9-0.8-1.8-0.8-2.8h4.1c0,0.8,0.2,1.3,0.5,1.7c0.3,0.4,0.9,0.6,1.6,0.6C1641.1,791.1,1641.7,790.5,1641.7,789.5z"/>
	</g>
	<g class="st3">
		<path class="st7" d="M1436.8,825.9h-7.6l-1.7,5.9h-2.9l7.2-22.4h2.4l7.2,22.4h-2.9L1436.8,825.9z M1430,823.5h6.1l-3.1-10.2
			L1430,823.5z"/>
		<path class="st7" d="M1456.2,824.2c0,2.6-0.5,4.5-1.4,5.9s-2.3,2-4.1,2c-1.8,0-3.1-0.8-4-2.3l-0.1,2h-2.5v-23.6h2.7v8.8
			c0.9-1.4,2.2-2.1,3.8-2.1c1.8,0,3.2,0.6,4.1,1.9s1.4,3.2,1.4,5.8V824.2z M1453.5,822.6c0-2-0.3-3.4-0.8-4.2s-1.4-1.3-2.7-1.3
			c-1.4,0-2.4,0.8-3.1,2.3v7.9c0.7,1.5,1.7,2.2,3.2,2.2c1.2,0,2.1-0.4,2.6-1.3c0.5-0.9,0.8-2.2,0.8-4V822.6z"/>
		<path class="st7" d="M1459.1,822.6c0-2.4,0.6-4.3,1.8-5.7c1.2-1.4,2.7-2.1,4.6-2.1s3.5,0.7,4.6,2.1c1.2,1.4,1.8,3.2,1.8,5.6v1.8
			c0,2.4-0.6,4.3-1.8,5.7c-1.2,1.4-2.7,2.1-4.7,2.1c-1.9,0-3.5-0.7-4.6-2c-1.2-1.4-1.8-3.2-1.8-5.5V822.6z M1461.8,824.2
			c0,1.7,0.3,3.1,1,4c0.7,1,1.6,1.5,2.7,1.5c2.4,0,3.6-1.7,3.7-5.2v-1.9c0-1.7-0.3-3-1-4c-0.7-1-1.6-1.5-2.7-1.5
			c-1.1,0-2,0.5-2.7,1.5c-0.7,1-1,2.3-1,4V824.2z"/>
	</g>
	<g class="st3">
		<path class="st7" d="M1482.3,817.6c-0.4-0.1-0.8-0.1-1.2-0.1c-1.4,0-2.4,0.8-2.9,2.3v11.9h-2.7v-16.6h2.6l0,1.7
			c0.7-1.3,1.8-2,3.1-2c0.4,0,0.8,0.1,1.1,0.2L1482.3,817.6z"/>
	</g>
	<g class="st3">
		<path class="st7" d="M1489.3,811.1v4h2.5v2.2h-2.5v10.3c0,0.7,0.1,1.2,0.3,1.5c0.2,0.3,0.6,0.5,1.1,0.5c0.4,0,0.7-0.1,1.1-0.2
			l0,2.3c-0.6,0.2-1.2,0.3-1.9,0.3c-1.1,0-1.9-0.4-2.5-1.2s-0.8-1.9-0.8-3.3v-10.3h-2.5v-2.2h2.5v-4H1489.3z"/>
		<path class="st7" d="M1498.2,810.7c0,0.5-0.1,0.8-0.4,1.2c-0.3,0.3-0.6,0.5-1.2,0.5c-0.5,0-0.9-0.2-1.2-0.5
			c-0.3-0.3-0.4-0.7-0.4-1.2s0.1-0.9,0.4-1.2c0.3-0.3,0.6-0.5,1.2-0.5s0.9,0.2,1.2,0.5C1498.1,809.8,1498.2,810.2,1498.2,810.7z
			 M1498,831.7h-2.7v-16.6h2.7V831.7z"/>
		<path class="st7" d="M1501.7,822.6c0-2.4,0.6-4.3,1.8-5.7s2.7-2.1,4.7-2.1c1.9,0,3.5,0.7,4.6,2.1c1.2,1.4,1.8,3.2,1.8,5.6v1.8
			c0,2.4-0.6,4.3-1.8,5.7c-1.2,1.4-2.7,2.1-4.7,2.1c-1.9,0-3.5-0.7-4.6-2c-1.2-1.4-1.8-3.2-1.8-5.5V822.6z M1504.4,824.2
			c0,1.7,0.3,3.1,1,4c0.7,1,1.6,1.5,2.7,1.5c2.4,0,3.6-1.7,3.7-5.2v-1.9c0-1.7-0.3-3-1-4c-0.7-1-1.6-1.5-2.7-1.5
			c-1.1,0-2,0.5-2.7,1.5c-0.7,1-1,2.3-1,4V824.2z"/>
		<path class="st7" d="M1520.7,815.1l0.1,1.8c1.1-1.4,2.4-2.1,4-2.1c2.9,0,4.4,2,4.5,5.9v11.1h-2.7v-10.9c0-1.3-0.2-2.2-0.7-2.8
			s-1.1-0.8-2-0.8c-0.7,0-1.3,0.2-1.8,0.7c-0.5,0.5-1,1-1.3,1.8v12.1h-2.7v-16.6H1520.7z"/>
		<path class="st7" d="M1549.1,831.7c-0.2-0.4-0.3-1-0.4-1.8c-1,1.4-2.2,2.1-3.7,2.1c-1.5,0-2.7-0.4-3.5-1.3c-0.8-0.8-1.3-2-1.3-3.6
			c0-1.7,0.6-3,1.7-4s2.7-1.5,4.7-1.5h2v-1.8c0-1-0.2-1.7-0.7-2.1c-0.4-0.4-1.1-0.6-2-0.6c-0.8,0-1.5,0.2-2,0.7
			c-0.5,0.5-0.8,1.1-0.8,1.9h-2.7c0-0.9,0.2-1.7,0.8-2.4c0.5-0.8,1.2-1.4,2-1.8c0.9-0.4,1.8-0.7,2.8-0.7c1.7,0,3,0.4,3.9,1.3
			c0.9,0.8,1.3,2.1,1.4,3.7v8.4c0,1.3,0.2,2.4,0.5,3.3v0.2H1549.1z M1545.5,829.6c0.7,0,1.3-0.2,1.9-0.6c0.6-0.4,1-0.8,1.3-1.4v-4
			h-1.5c-1.3,0-2.3,0.3-3.1,0.9c-0.7,0.6-1.1,1.3-1.1,2.3c0,0.9,0.2,1.6,0.6,2.1C1543.9,829.3,1544.6,829.6,1545.5,829.6z"/>
		<path class="st7" d="M1561.4,829.7c0.9,0,1.6-0.3,2.2-0.8s0.8-1.4,0.9-2.4h2.6c-0.1,1.6-0.6,2.9-1.7,4c-1.1,1.1-2.4,1.6-3.9,1.6
			c-2.1,0-3.6-0.6-4.7-1.9c-1.1-1.3-1.6-3.2-1.6-5.8v-1.8c0-2.5,0.5-4.4,1.6-5.7c1.1-1.3,2.6-2,4.7-2c1.7,0,3.1,0.5,4,1.6
			c1,1.1,1.5,2.5,1.6,4.4h-2.6c-0.1-1.2-0.4-2.2-0.9-2.8c-0.5-0.6-1.3-0.9-2.2-0.9c-1.2,0-2.1,0.4-2.7,1.2c-0.6,0.8-0.9,2.1-0.9,3.9
			v2.1c0,2,0.3,3.3,0.9,4.2C1559.2,829.3,1560.1,829.7,1561.4,829.7z"/>
		<path class="st7" d="M1575.9,829.7c0.9,0,1.6-0.3,2.2-0.8s0.8-1.4,0.9-2.4h2.6c-0.1,1.6-0.6,2.9-1.7,4c-1.1,1.1-2.4,1.6-3.9,1.6
			c-2.1,0-3.6-0.6-4.7-1.9c-1.1-1.3-1.6-3.2-1.6-5.8v-1.8c0-2.5,0.5-4.4,1.6-5.7c1.1-1.3,2.6-2,4.7-2c1.7,0,3.1,0.5,4,1.6
			c1,1.1,1.5,2.5,1.6,4.4h-2.6c-0.1-1.2-0.4-2.2-0.9-2.8c-0.5-0.6-1.3-0.9-2.2-0.9c-1.2,0-2.1,0.4-2.7,1.2c-0.6,0.8-0.9,2.1-0.9,3.9
			v2.1c0,2,0.3,3.3,0.9,4.2C1573.8,829.3,1574.7,829.7,1575.9,829.7z"/>
		<path class="st7" d="M1590.6,832c-2.1,0-3.7-0.6-4.8-1.9c-1.1-1.2-1.7-3-1.7-5.4v-2c0-2.5,0.5-4.4,1.6-5.8
			c1.1-1.4,2.6-2.1,4.5-2.1c1.9,0,3.4,0.6,4.4,1.9c1,1.2,1.5,3.2,1.5,5.8v1.8h-9.3v0.4c0,1.8,0.3,3.1,1,3.9c0.7,0.8,1.6,1.2,2.9,1.2
			c0.8,0,1.5-0.2,2.1-0.5c0.6-0.3,1.2-0.8,1.7-1.4l1.4,1.7C1594.9,831.2,1593.1,832,1590.6,832z M1590.3,817.1c-1.1,0-2,0.4-2.5,1.2
			c-0.5,0.8-0.9,2-0.9,3.6h6.5v-0.4c-0.1-1.6-0.4-2.7-0.9-3.4C1592.1,817.5,1591.3,817.1,1590.3,817.1z"/>
		<path class="st7" d="M1607.5,827.5c0-0.6-0.2-1.1-0.7-1.5c-0.4-0.4-1.3-0.9-2.6-1.5c-1.5-0.6-2.5-1.1-3.1-1.6
			c-0.6-0.4-1-0.9-1.3-1.5c-0.3-0.5-0.4-1.2-0.4-2c0-1.4,0.5-2.5,1.5-3.4c1-0.9,2.3-1.3,3.8-1.3c1.6,0,2.9,0.5,3.9,1.4
			c1,0.9,1.5,2.2,1.5,3.6h-2.7c0-0.7-0.3-1.4-0.8-1.9c-0.5-0.5-1.1-0.8-1.9-0.8c-0.8,0-1.4,0.2-1.9,0.6c-0.5,0.4-0.7,1-0.7,1.7
			c0,0.6,0.2,1,0.5,1.3c0.3,0.3,1.1,0.8,2.4,1.3c2,0.8,3.4,1.6,4.1,2.3s1.1,1.7,1.1,2.9c0,1.4-0.5,2.6-1.5,3.5s-2.3,1.3-4,1.3
			c-1.7,0-3.1-0.5-4.2-1.5s-1.6-2.3-1.6-3.8h2.7c0,0.9,0.3,1.6,0.8,2.2s1.3,0.8,2.2,0.8c0.9,0,1.6-0.2,2.1-0.6
			C1607.3,828.7,1607.5,828.1,1607.5,827.5z"/>
		<path class="st7" d="M1621.9,827.5c0-0.6-0.2-1.1-0.7-1.5c-0.4-0.4-1.3-0.9-2.6-1.5c-1.5-0.6-2.5-1.1-3.1-1.6
			c-0.6-0.4-1-0.9-1.3-1.5c-0.3-0.5-0.4-1.2-0.4-2c0-1.4,0.5-2.5,1.5-3.4c1-0.9,2.3-1.3,3.8-1.3c1.6,0,2.9,0.5,3.9,1.4
			c1,0.9,1.5,2.2,1.5,3.6h-2.7c0-0.7-0.2-1.4-0.8-1.9c-0.5-0.5-1.1-0.8-1.9-0.8c-0.8,0-1.4,0.2-1.9,0.6c-0.5,0.4-0.7,1-0.7,1.7
			c0,0.6,0.2,1,0.5,1.3c0.3,0.3,1.1,0.8,2.4,1.3c2,0.8,3.4,1.6,4.1,2.3c0.7,0.8,1.1,1.7,1.1,2.9c0,1.4-0.5,2.6-1.5,3.5
			s-2.3,1.3-4,1.3c-1.7,0-3.1-0.5-4.2-1.5s-1.6-2.3-1.6-3.8h2.7c0,0.9,0.3,1.6,0.8,2.2c0.5,0.5,1.3,0.8,2.2,0.8
			c0.9,0,1.6-0.2,2.1-0.6C1621.6,828.7,1621.9,828.1,1621.9,827.5z"/>
		<path class="st7" d="M1638.5,810.7c0,0.5-0.1,0.8-0.4,1.2c-0.3,0.3-0.6,0.5-1.2,0.5c-0.5,0-0.9-0.2-1.2-0.5
			c-0.3-0.3-0.4-0.7-0.4-1.2s0.1-0.9,0.4-1.2c0.3-0.3,0.6-0.5,1.2-0.5s0.9,0.2,1.2,0.5C1638.3,809.8,1638.5,810.2,1638.5,810.7z
			 M1638.3,831.7h-2.7v-16.6h2.7V831.7z"/>
		<path class="st7" d="M1650.6,827.5c0-0.6-0.2-1.1-0.7-1.5c-0.4-0.4-1.3-0.9-2.6-1.5c-1.5-0.6-2.5-1.1-3.1-1.6
			c-0.6-0.4-1-0.9-1.3-1.5c-0.3-0.5-0.4-1.2-0.4-2c0-1.4,0.5-2.5,1.5-3.4c1-0.9,2.3-1.3,3.8-1.3c1.6,0,2.9,0.5,3.9,1.4
			c1,0.9,1.5,2.2,1.5,3.6h-2.7c0-0.7-0.3-1.4-0.8-1.9c-0.5-0.5-1.1-0.8-1.9-0.8c-0.8,0-1.4,0.2-1.9,0.6c-0.5,0.4-0.7,1-0.7,1.7
			c0,0.6,0.2,1,0.5,1.3c0.3,0.3,1.1,0.8,2.4,1.3c2,0.8,3.4,1.6,4.1,2.3c0.7,0.8,1.1,1.7,1.1,2.9c0,1.4-0.5,2.6-1.5,3.5
			s-2.3,1.3-4,1.3c-1.7,0-3.1-0.5-4.2-1.5s-1.6-2.3-1.6-3.8h2.7c0,0.9,0.3,1.6,0.8,2.2s1.3,0.8,2.2,0.8c0.9,0,1.6-0.2,2.1-0.6
			C1650.4,828.7,1650.6,828.1,1650.6,827.5z"/>
		<path class="st7" d="M1676.1,824.2c0,2.6-0.5,4.6-1.4,5.9c-0.9,1.3-2.3,1.9-4,1.9c-1.7,0-3-0.6-3.9-1.9v8h-2.7v-23h2.5l0.1,1.8
			c0.9-1.4,2.2-2.2,3.9-2.2c1.8,0,3.2,0.6,4.1,1.9c0.9,1.3,1.4,3.2,1.4,5.7V824.2z M1673.4,822.7c0-1.9-0.3-3.2-0.9-4.1
			c-0.6-0.9-1.5-1.3-2.8-1.3c-1.3,0-2.3,0.7-3,2v8.7c0.7,1.3,1.7,1.9,3,1.9c1.2,0,2.1-0.4,2.7-1.3c0.6-0.9,0.9-2.2,0.9-4.1V822.7z"
			/>
	</g>
	<g class="st3">
		<path class="st7" d="M1686.5,817.6c-0.4-0.1-0.8-0.1-1.2-0.1c-1.4,0-2.4,0.8-2.9,2.3v11.9h-2.7v-16.6h2.6l0,1.7
			c0.7-1.3,1.8-2,3.1-2c0.4,0,0.8,0.1,1.1,0.2L1686.5,817.6z"/>
	</g>
	<g class="st3">
		<path class="st7" d="M1688.3,822.6c0-2.4,0.6-4.3,1.8-5.7c1.2-1.4,2.7-2.1,4.7-2.1c1.9,0,3.5,0.7,4.6,2.1c1.2,1.4,1.8,3.2,1.8,5.6
			v1.8c0,2.4-0.6,4.3-1.8,5.7c-1.2,1.4-2.7,2.1-4.7,2.1c-1.9,0-3.5-0.7-4.6-2c-1.2-1.4-1.8-3.2-1.8-5.5V822.6z M1691,824.2
			c0,1.7,0.3,3.1,1,4s1.6,1.5,2.7,1.5c2.4,0,3.6-1.7,3.7-5.2v-1.9c0-1.7-0.3-3-1-4c-0.7-1-1.6-1.5-2.7-1.5c-1.1,0-2,0.5-2.7,1.5
			s-1,2.3-1,4V824.2z"/>
		<path class="st7" d="M1708.2,811.1v4h2.5v2.2h-2.5v10.3c0,0.7,0.1,1.2,0.3,1.5c0.2,0.3,0.6,0.5,1.1,0.5c0.4,0,0.7-0.1,1.1-0.2
			l0,2.3c-0.6,0.2-1.2,0.3-1.9,0.3c-1.1,0-1.9-0.4-2.5-1.2s-0.8-1.9-0.8-3.3v-10.3h-2.5v-2.2h2.5v-4H1708.2z"/>
		<path class="st7" d="M1719.9,832c-2.1,0-3.7-0.6-4.8-1.9c-1.1-1.2-1.7-3-1.7-5.4v-2c0-2.5,0.5-4.4,1.6-5.8s2.6-2.1,4.5-2.1
			c1.9,0,3.4,0.6,4.4,1.9c1,1.2,1.5,3.2,1.5,5.8v1.8h-9.3v0.4c0,1.8,0.3,3.1,1,3.9c0.7,0.8,1.6,1.2,2.9,1.2c0.8,0,1.5-0.2,2.1-0.5
			c0.6-0.3,1.2-0.8,1.7-1.4l1.4,1.7C1724.1,831.2,1722.3,832,1719.9,832z M1719.6,817.1c-1.1,0-2,0.4-2.5,1.2
			c-0.5,0.8-0.9,2-0.9,3.6h6.5v-0.4c-0.1-1.6-0.4-2.7-0.9-3.4C1721.4,817.5,1720.6,817.1,1719.6,817.1z"/>
		<path class="st7" d="M1734.5,829.7c0.9,0,1.6-0.3,2.2-0.8s0.8-1.4,0.9-2.4h2.6c-0.1,1.6-0.6,2.9-1.7,4c-1.1,1.1-2.4,1.6-3.9,1.6
			c-2.1,0-3.6-0.6-4.7-1.9c-1.1-1.3-1.6-3.2-1.6-5.8v-1.8c0-2.5,0.5-4.4,1.6-5.7c1.1-1.3,2.6-2,4.7-2c1.7,0,3.1,0.5,4,1.6
			c1,1.1,1.5,2.5,1.6,4.4h-2.6c-0.1-1.2-0.4-2.2-0.9-2.8c-0.5-0.6-1.3-0.9-2.2-0.9c-1.2,0-2.1,0.4-2.7,1.2c-0.6,0.8-0.9,2.1-0.9,3.9
			v2.1c0,2,0.3,3.3,0.9,4.2S1733.2,829.7,1734.5,829.7z"/>
		<path class="st7" d="M1746.8,811.1v4h2.5v2.2h-2.5v10.3c0,0.7,0.1,1.2,0.3,1.5c0.2,0.3,0.6,0.5,1.1,0.5c0.4,0,0.7-0.1,1.1-0.2
			l0,2.3c-0.6,0.2-1.2,0.3-1.9,0.3c-1.1,0-1.9-0.4-2.5-1.2c-0.6-0.8-0.8-1.9-0.8-3.3v-10.3h-2.5v-2.2h2.5v-4H1746.8z"/>
		<path class="st7" d="M1758.5,832c-2.1,0-3.7-0.6-4.8-1.9c-1.1-1.2-1.7-3-1.7-5.4v-2c0-2.5,0.5-4.4,1.6-5.8
			c1.1-1.4,2.6-2.1,4.5-2.1c1.9,0,3.4,0.6,4.4,1.9c1,1.2,1.5,3.2,1.5,5.8v1.8h-9.3v0.4c0,1.8,0.3,3.1,1,3.9s1.6,1.2,2.9,1.2
			c0.8,0,1.5-0.2,2.1-0.5c0.6-0.3,1.2-0.8,1.7-1.4l1.4,1.7C1762.7,831.2,1760.9,832,1758.5,832z M1758.2,817.1c-1.1,0-2,0.4-2.5,1.2
			c-0.5,0.8-0.9,2-0.9,3.6h6.5v-0.4c-0.1-1.6-0.4-2.7-0.9-3.4C1759.9,817.5,1759.2,817.1,1758.2,817.1z"/>
		<path class="st7" d="M1766.7,822.7c0-2.6,0.5-4.5,1.4-5.9c1-1.3,2.3-2,4.1-2c1.6,0,2.8,0.6,3.7,1.9v-8.6h2.7v23.6h-2.5l-0.1-1.8
			c-0.9,1.4-2.2,2.1-3.8,2.1c-1.7,0-3.1-0.7-4.1-2c-1-1.3-1.5-3.2-1.5-5.7V822.7z M1769.4,824.2c0,1.9,0.3,3.2,0.8,4.1
			c0.6,0.9,1.5,1.3,2.7,1.3c1.4,0,2.4-0.7,3-2v-8.4c-0.7-1.3-1.7-2-3-2c-1.2,0-2.2,0.4-2.7,1.3c-0.6,0.9-0.8,2.2-0.8,4V824.2z"/>
	</g>
	<g class="st3">
		<path class="st7" d="M1425.4,860.4c0-2.4,0.6-4.3,1.8-5.7c1.2-1.4,2.7-2.1,4.7-2.1c1.9,0,3.5,0.7,4.6,2.1c1.2,1.4,1.8,3.2,1.8,5.6
			v1.8c0,2.4-0.6,4.3-1.8,5.7c-1.2,1.4-2.7,2.1-4.7,2.1c-1.9,0-3.5-0.7-4.6-2c-1.2-1.4-1.8-3.2-1.8-5.5V860.4z M1428.1,862
			c0,1.7,0.3,3.1,1,4s1.6,1.5,2.7,1.5c2.4,0,3.6-1.7,3.7-5.2v-1.9c0-1.7-0.3-3-1-4c-0.7-1-1.6-1.5-2.7-1.5c-1.1,0-2,0.5-2.7,1.5
			s-1,2.3-1,4V862z"/>
		<path class="st7" d="M1448.7,855.4c-0.4-0.1-0.8-0.1-1.2-0.1c-1.4,0-2.4,0.8-2.9,2.3v11.9h-2.7v-16.6h2.6l0,1.7
			c0.7-1.3,1.8-2,3.1-2c0.4,0,0.8,0.1,1.1,0.2L1448.7,855.4z"/>
		<path class="st7" d="M1461.3,854.6c1-1.3,2.4-2,4-2c2.9,0,4.4,2,4.5,5.9v11.1h-2.7v-10.9c0-1.3-0.2-2.2-0.7-2.8s-1.1-0.8-2-0.8
			c-0.7,0-1.3,0.2-1.8,0.7c-0.5,0.5-1,1-1.3,1.8v12.1h-2.7v-23.6h2.7V854.6z"/>
		<path class="st7" d="M1482.3,869.5c-0.2-0.4-0.3-1-0.4-1.8c-1,1.4-2.2,2.1-3.7,2.1c-1.5,0-2.7-0.4-3.5-1.3c-0.8-0.8-1.3-2-1.3-3.6
			c0-1.7,0.6-3,1.7-4c1.1-1,2.7-1.5,4.7-1.5h2v-1.8c0-1-0.2-1.7-0.7-2.1c-0.4-0.4-1.1-0.6-2-0.6c-0.8,0-1.5,0.2-2,0.7
			c-0.5,0.5-0.8,1.1-0.8,1.9h-2.7c0-0.9,0.3-1.7,0.8-2.4c0.5-0.8,1.2-1.4,2-1.8c0.9-0.4,1.8-0.7,2.8-0.7c1.7,0,3,0.4,3.9,1.3
			s1.3,2.1,1.4,3.7v8.4c0,1.3,0.2,2.4,0.5,3.3v0.2H1482.3z M1478.7,867.3c0.7,0,1.3-0.2,1.9-0.6s1-0.8,1.3-1.4v-4h-1.5
			c-1.3,0-2.3,0.3-3.1,0.9c-0.7,0.6-1.1,1.3-1.1,2.3c0,0.9,0.2,1.6,0.6,2.1C1477.2,867.1,1477.8,867.3,1478.7,867.3z"/>
		<path class="st7" d="M1496.9,865.2c0-0.6-0.2-1.1-0.7-1.5c-0.4-0.4-1.3-0.9-2.6-1.5c-1.5-0.6-2.5-1.1-3.1-1.6
			c-0.6-0.4-1-0.9-1.3-1.5c-0.3-0.5-0.4-1.2-0.4-2c0-1.4,0.5-2.5,1.5-3.4s2.3-1.3,3.8-1.3c1.6,0,2.9,0.5,3.9,1.4
			c1,0.9,1.5,2.2,1.5,3.6h-2.7c0-0.7-0.3-1.4-0.8-1.9c-0.5-0.5-1.1-0.8-1.9-0.8c-0.8,0-1.4,0.2-1.9,0.6c-0.5,0.4-0.7,1-0.7,1.7
			c0,0.6,0.2,1,0.5,1.3c0.3,0.3,1.1,0.8,2.4,1.3c2,0.8,3.4,1.6,4.1,2.3c0.7,0.8,1.1,1.7,1.1,2.9c0,1.4-0.5,2.6-1.5,3.5
			s-2.3,1.3-4,1.3c-1.7,0-3.1-0.5-4.2-1.5s-1.6-2.3-1.6-3.8h2.7c0,0.9,0.3,1.6,0.8,2.2c0.5,0.5,1.3,0.8,2.2,0.8
			c0.9,0,1.6-0.2,2.1-0.6C1496.7,866.5,1496.9,865.9,1496.9,865.2z"/>
		<path class="st7" d="M1522.4,862c0,2.6-0.5,4.5-1.4,5.9s-2.3,2-4.1,2c-1.8,0-3.1-0.8-4-2.3l-0.1,2h-2.5v-23.6h2.7v8.8
			c0.9-1.4,2.2-2.1,3.8-2.1c1.8,0,3.2,0.6,4.1,1.9s1.4,3.2,1.4,5.8V862z M1519.7,860.4c0-2-0.3-3.4-0.8-4.2s-1.4-1.3-2.7-1.3
			c-1.4,0-2.4,0.8-3.1,2.3v7.9c0.7,1.5,1.7,2.2,3.2,2.2c1.2,0,2.1-0.4,2.6-1.3c0.5-0.9,0.8-2.2,0.8-4V860.4z"/>
		<path class="st7" d="M1531.9,869.8c-2.1,0-3.7-0.6-4.8-1.9c-1.1-1.2-1.7-3-1.7-5.4v-2c0-2.5,0.5-4.4,1.6-5.8s2.6-2.1,4.5-2.1
			c1.9,0,3.4,0.6,4.4,1.9c1,1.2,1.5,3.2,1.5,5.8v1.8h-9.3v0.4c0,1.8,0.3,3.1,1,3.9c0.7,0.8,1.6,1.2,2.9,1.2c0.8,0,1.5-0.2,2.1-0.5
			c0.6-0.3,1.2-0.8,1.7-1.4l1.4,1.7C1536.1,869,1534.3,869.8,1531.9,869.8z M1531.6,854.9c-1.1,0-2,0.4-2.5,1.2
			c-0.5,0.8-0.9,2-0.9,3.6h6.5v-0.4c-0.1-1.6-0.4-2.7-0.9-3.4C1533.3,855.2,1532.6,854.9,1531.6,854.9z"/>
		<path class="st7" d="M1546.6,869.8c-2.1,0-3.7-0.6-4.8-1.9c-1.1-1.2-1.7-3-1.7-5.4v-2c0-2.5,0.5-4.4,1.6-5.8
			c1.1-1.4,2.6-2.1,4.5-2.1c1.9,0,3.4,0.6,4.4,1.9c1,1.2,1.5,3.2,1.5,5.8v1.8h-9.3v0.4c0,1.8,0.3,3.1,1,3.9s1.6,1.2,2.9,1.2
			c0.8,0,1.5-0.2,2.1-0.5c0.6-0.3,1.2-0.8,1.7-1.4l1.4,1.7C1550.8,869,1549,869.8,1546.6,869.8z M1546.3,854.9c-1.1,0-2,0.4-2.5,1.2
			c-0.5,0.8-0.9,2-0.9,3.6h6.5v-0.4c-0.1-1.6-0.4-2.7-0.9-3.4C1548.1,855.2,1547.3,854.9,1546.3,854.9z"/>
		<path class="st7" d="M1558,852.9l0.1,1.8c1.1-1.4,2.4-2.1,4-2.1c2.9,0,4.4,2,4.5,5.9v11.1h-2.7v-10.9c0-1.3-0.2-2.2-0.7-2.8
			s-1.1-0.8-2-0.8c-0.7,0-1.3,0.2-1.8,0.7c-0.5,0.5-1,1-1.3,1.8v12.1h-2.7v-16.6H1558z"/>
		<path class="st7" d="M1583.8,869.8c-2.1,0-3.7-0.6-4.8-1.9c-1.1-1.2-1.7-3-1.7-5.4v-2c0-2.5,0.5-4.4,1.6-5.8
			c1.1-1.4,2.6-2.1,4.5-2.1c1.9,0,3.4,0.6,4.4,1.9c1,1.2,1.5,3.2,1.5,5.8v1.8h-9.3v0.4c0,1.8,0.3,3.1,1,3.9s1.6,1.2,2.9,1.2
			c0.8,0,1.5-0.2,2.1-0.5c0.6-0.3,1.2-0.8,1.7-1.4l1.4,1.7C1588,869,1586.2,869.8,1583.8,869.8z M1583.5,854.9c-1.1,0-2,0.4-2.5,1.2
			c-0.5,0.8-0.9,2-0.9,3.6h6.5v-0.4c-0.1-1.6-0.4-2.7-0.9-3.4C1585.3,855.2,1584.5,854.9,1583.5,854.9z"/>
		<path class="st7" d="M1597.4,858.9l2.8-6.1h3.2l-4.5,8.2l4.6,8.4h-3.1l-2.9-6.2l-3,6.2h-3.1l4.6-8.4l-4.5-8.2h3.1L1597.4,858.9z"
			/>
		<path class="st7" d="M1618.4,862c0,2.6-0.5,4.6-1.4,5.9c-0.9,1.3-2.3,1.9-4,1.9c-1.7,0-3-0.6-3.9-1.9v8h-2.7v-23h2.5l0.1,1.8
			c0.9-1.4,2.2-2.2,3.9-2.2c1.8,0,3.2,0.6,4.1,1.9c0.9,1.3,1.4,3.2,1.4,5.7V862z M1615.7,860.4c0-1.9-0.3-3.2-0.9-4.1
			c-0.6-0.9-1.5-1.3-2.8-1.3c-1.3,0-2.3,0.7-3,2v8.7c0.7,1.3,1.7,1.9,3,1.9c1.2,0,2.1-0.4,2.7-1.3c0.6-0.9,0.9-2.2,0.9-4.1V860.4z"
			/>
		<path class="st7" d="M1630.5,869.5c-0.2-0.4-0.3-1-0.4-1.8c-1,1.4-2.2,2.1-3.7,2.1c-1.5,0-2.7-0.4-3.5-1.3c-0.8-0.8-1.3-2-1.3-3.6
			c0-1.7,0.6-3,1.7-4c1.1-1,2.7-1.5,4.7-1.5h2v-1.8c0-1-0.2-1.7-0.7-2.1c-0.4-0.4-1.1-0.6-2-0.6c-0.8,0-1.5,0.2-2,0.7
			c-0.5,0.5-0.8,1.1-0.8,1.9h-2.7c0-0.9,0.3-1.7,0.8-2.4c0.5-0.8,1.2-1.4,2-1.8c0.9-0.4,1.8-0.7,2.8-0.7c1.7,0,3,0.4,3.9,1.3
			s1.3,2.1,1.4,3.7v8.4c0,1.3,0.2,2.4,0.5,3.3v0.2H1630.5z M1626.9,867.3c0.7,0,1.3-0.2,1.9-0.6s1-0.8,1.3-1.4v-4h-1.5
			c-1.3,0-2.3,0.3-3.1,0.9c-0.7,0.6-1.1,1.3-1.1,2.3c0,0.9,0.2,1.6,0.6,2.1C1625.3,867.1,1626,867.3,1626.9,867.3z"/>
		<path class="st7" d="M1639.6,852.9l0.1,1.8c1.1-1.4,2.4-2.1,4-2.1c2.9,0,4.4,2,4.5,5.9v11.1h-2.7v-10.9c0-1.3-0.2-2.2-0.7-2.8
			s-1.1-0.8-2-0.8c-0.7,0-1.3,0.2-1.8,0.7c-0.5,0.5-1,1-1.3,1.8v12.1h-2.7v-16.6H1639.6z"/>
		<path class="st7" d="M1651.7,860.4c0-2.6,0.5-4.5,1.4-5.9c1-1.3,2.3-2,4.1-2c1.6,0,2.8,0.6,3.7,1.9v-8.6h2.7v23.6h-2.5l-0.1-1.8
			c-0.9,1.4-2.2,2.1-3.8,2.1c-1.7,0-3.1-0.7-4.1-2c-1-1.3-1.5-3.2-1.5-5.7V860.4z M1654.4,862c0,1.9,0.3,3.2,0.8,4.1
			c0.6,0.9,1.5,1.3,2.7,1.3c1.4,0,2.4-0.7,3-2V857c-0.7-1.3-1.7-2-3-2c-1.2,0-2.2,0.4-2.7,1.3c-0.6,0.9-0.8,2.2-0.8,4V862z"/>
		<path class="st7" d="M1673.8,869.8c-2.1,0-3.7-0.6-4.8-1.9c-1.1-1.2-1.7-3-1.7-5.4v-2c0-2.5,0.5-4.4,1.6-5.8s2.6-2.1,4.5-2.1
			c1.9,0,3.4,0.6,4.4,1.9c1,1.2,1.5,3.2,1.5,5.8v1.8h-9.3v0.4c0,1.8,0.3,3.1,1,3.9c0.7,0.8,1.6,1.2,2.9,1.2c0.8,0,1.5-0.2,2.1-0.5
			c0.6-0.3,1.2-0.8,1.7-1.4l1.4,1.7C1678,869,1676.2,869.8,1673.8,869.8z M1673.5,854.9c-1.1,0-2,0.4-2.5,1.2
			c-0.5,0.8-0.9,2-0.9,3.6h6.5v-0.4c-0.1-1.6-0.4-2.7-0.9-3.4C1675.3,855.2,1674.5,854.9,1673.5,854.9z"/>
		<path class="st7" d="M1682,860.4c0-2.6,0.5-4.5,1.4-5.9c1-1.3,2.3-2,4.1-2c1.6,0,2.8,0.6,3.7,1.9v-8.6h2.7v23.6h-2.5l-0.1-1.8
			c-0.9,1.4-2.2,2.1-3.8,2.1c-1.7,0-3.1-0.7-4-2c-1-1.3-1.5-3.2-1.5-5.7V860.4z M1684.8,862c0,1.9,0.3,3.2,0.8,4.1s1.5,1.3,2.7,1.3
			c1.4,0,2.4-0.7,3-2V857c-0.7-1.3-1.7-2-3-2c-1.2,0-2.2,0.4-2.7,1.3c-0.6,0.9-0.8,2.2-0.8,4V862z"/>
	</g>
	<polygon class="st5" points="1377.8,896 1407.5,912.7 1407.5,946.2 1377.2,962.8 1346.6,946.1 1346.6,912.7 	"/>
	<polygon class="st2" points="1378.2,767.7 1407.9,784.3 1407.9,817.9 1377.6,834.4 1347,817.7 1347,784.3 	"/>
</g>
</svg>
