<?xml version="1.0" encoding="utf-8"?>
<!-- Generator: Adobe Illustrator 27.0.1, SVG Export Plug-In . SVG Version: 6.00 Build 0)  -->
<svg version="1.1" id="Layer_1" xmlns="http://www.w3.org/2000/svg" xmlns:xlink="http://www.w3.org/1999/xlink" x="0px" y="0px"
	 viewBox="0 0 1920 1080" style="enable-background:new 0 0 1920 1080;" xml:space="preserve">
<style type="text/css">
	.st0{fill:#FEFEFE;}
	.st1{fill-rule:evenodd;clip-rule:evenodd;fill:#1F425A;}
	.st2{fill-rule:evenodd;clip-rule:evenodd;fill:#1F4257;}
	.st3{fill:#FFFFFF;}
	.st4{font-family:'RobotoCondensed-Regular';}
	.st5{font-size:37.39px;}
	.st6{fill-rule:evenodd;clip-rule:evenodd;fill:#802521;}
	.st7{letter-spacing:-1;}
	.st8{fill:#802521;}
	.st9{font-family:'RobotoCondensed-Bold';}
	.st10{font-size:31.48px;}
	.st11{fill:#A5A5A0;}
	.st12{fill:#1F4257;}
</style>
<path class="st0" d="M116.4,203.6l0.2,0.2c0,0-0.1,0-0.1,0C116.4,203.7,116.4,203.7,116.4,203.6L116.4,203.6L116.4,203.6z"/>
<polygon class="st1" points="1593.6,37.5 1649.3,67.9 1649.3,129.6 1594.6,160.4 1537.2,129.6 1537.2,68.2 "/>
<polygon class="st2" points="251,37.5 305.8,68.8 305.8,131.9 250.1,163 193.6,131.6 193.6,68.8 "/>
<text transform="matrix(1 0 0 1 228.48 112.28)" class="st3 st4 st5">AK</text>
<polygon class="st1" points="1413,139 1467.7,170.4 1467.7,233.5 1411.9,264.5 1355.5,233.1 1355.5,170.4 "/>
<polygon class="st1" points="1533.2,139 1587.9,170.4 1587.9,233.5 1532.2,264.5 1475.7,233.1 1475.7,170.4 "/>
<polygon class="st1" points="494.2,243.1 548.9,273.8 548.9,335.6 493.1,366 436.7,335.3 436.7,273.8 "/>
<text transform="matrix(1 0 0 1 467.92 317.94)" class="st3 st4 st5">MT</text>
<polygon class="st6" points="617,243.1 671.8,273.8 671.8,335.6 616,366 559.6,335.3 559.6,273.8 "/>
<polygon class="st2" points="1351.6,243.1 1406.3,273.8 1406.3,335.6 1350.5,366 1294.1,335.3 1294.1,273.8 "/>
<polygon class="st1" points="739.9,243.1 794.6,273.9 794.6,335.6 738.9,366 682.4,335.3 682.4,273.9 "/>
<polygon class="st6" points="860.4,243.1 914.8,273.5 914.8,335.3 861.4,366 805.3,335.3 805.3,273.9 "/>
<polygon class="st2" points="1473.1,243.1 1526.5,273.9 1526.5,335.6 1472,366 1417,335.3 1417,273.9 "/>
<polygon class="st2" points="1593.6,243.1 1649.3,273.5 1649.3,335.3 1594.6,366 1537.2,335.3 1537.2,273.9 "/>
<polygon class="st1" points="372.5,245.8 426,276.5 426,338.2 371.6,368.7 316.5,337.9 316.5,276.5 "/>
<text transform="matrix(1 0 0 1 344.32 317.94)" class="st3 st4 st5 st7">WA</text>
<polygon class="st6" points="1105.8,245.8 1160.6,276.5 1160.6,338.2 1104.8,368.7 1048.4,337.9 1048.4,276.5 "/>
<polygon class="st6" points="431.7,347.3 487.5,377.7 487.5,439.5 432.7,470.2 375.3,439.5 375.3,378 "/>
<polygon class="st6" points="554.6,347.3 610.3,377.7 610.3,439.5 555.6,470.2 498.1,439.5 498.1,378 "/>
<polygon class="st6" points="678.5,347.3 733.2,378 733.2,439.8 677.4,470.2 621,439.5 621,378 "/>
<polygon class="st6" points="1166.2,347.3 1222,377.7 1222,439.5 1167.2,470.2 1109.8,439.5 1109.8,378 "/>
<polygon class="st6" points="1289.1,347.3 1344.8,377.7 1344.8,439.5 1290.1,470.2 1232.7,439.5 1232.7,378 "/>
<polygon class="st2" points="1413,347.3 1467.7,378 1467.7,439.8 1411.9,470.2 1355.5,439.5 1355.5,378 "/>
<polygon class="st6" points="800,347.3 853.4,378 853.4,439.8 799,470.2 743.9,439.5 743.9,378 "/>
<polygon class="st2" points="1533.2,347.3 1587.9,378 1587.9,439.8 1532.2,470.2 1475.7,439.5 1475.7,378 "/>
<polygon class="st6" points="1043.4,347.3 1099.1,378.4 1099.1,441.5 1044.4,472.9 986.9,441.5 986.9,378.7 "/>
<polygon class="st2" points="921.5,347.3 976.2,378.7 976.2,441.8 920.5,472.9 864.1,441.5 864.1,378.7 "/>
<polygon class="st1" points="494.2,448.8 548.9,480.1 548.9,543.3 493.1,574.4 436.7,543 436.7,480.1 "/>
<polygon class="st1" points="617,448.8 671.8,480.1 671.8,543.3 616,574.4 559.6,543 559.6,480.1 "/>
<polygon class="st1" points="1228.7,448.8 1283.4,480.1 1283.4,543.3 1227.7,574.4 1171.2,543 1171.2,480.1 "/>
<polygon class="st1" points="1351.6,448.8 1406.3,480.1 1406.3,543.3 1350.5,574.4 1294.1,543 1294.1,480.1 "/>
<polygon class="st6" points="739.9,448.8 794.6,480.2 794.6,543.3 738.9,574.4 682.4,543 682.4,480.2 "/>
<polygon class="st6" points="860.4,448.8 914.8,479.9 914.8,543 861.4,574.4 805.3,543 805.3,480.2 "/>
<polygon class="st1" points="372.5,451.5 426,482.2 426,543.9 371.6,574.4 316.5,543.6 316.5,482.2 "/>
<polygon class="st6" points="984.2,451.5 1037.7,482.2 1037.7,543.9 983.3,574.4 928.2,543.6 928.2,482.2 "/>
<polygon class="st6" points="1105.8,451.5 1160.6,482.2 1160.6,543.9 1104.8,574.4 1048.4,543.6 1048.4,482.2 "/>
<polygon class="st2" points="431.7,553 487.5,583.4 487.5,645.2 432.7,675.9 375.3,645.2 375.3,583.7 "/>
<polygon class="st6" points="554.6,553 610.3,583.4 610.3,645.2 555.6,675.9 498.1,645.2 498.1,583.7 "/>
<polygon class="st6" points="678.5,553 733.2,583.7 733.2,645.5 677.4,675.9 621,645.2 621,583.7 "/>
<polygon class="st2" points="1166.2,553 1222,583.4 1222,645.2 1167.2,675.9 1109.8,645.2 1109.8,583.7 "/>
<polygon class="st6" points="1289.1,555.7 1344.8,586 1344.8,647.8 1290.1,678.5 1232.7,647.8 1232.7,586.4 "/>
<polygon class="st2" points="800,553 853.4,584.4 853.4,647.5 799,678.5 743.9,647.2 743.9,584.4 "/>
<polygon class="st6" points="1043.4,553 1099.1,584 1099.1,647.2 1044.4,678.5 986.9,647.2 986.9,584.4 "/>
<polygon class="st6" points="921.5,555.7 976.2,586.4 976.2,648.1 920.5,678.5 864.1,647.8 864.1,586.4 "/>
<polygon class="st2" points="1656.1,555.7 1710.8,586.4 1710.8,648.1 1655,678.5 1598.6,647.8 1598.6,586.4 "/>
<polygon class="st2" points="617,657.2 671.8,687.8 671.8,749.6 616,780 559.6,749.3 559.6,687.8 "/>
<polygon class="st6" points="1228.7,657.2 1283.4,688.5 1283.4,751.6 1227.7,782.7 1171.2,751.3 1171.2,688.5 "/>
<polygon class="st6" points="739.9,657.2 794.6,687.9 794.6,749.6 738.9,780 682.4,749.3 682.4,687.9 "/>
<polygon class="st6" points="860.4,657.2 914.8,687.5 914.8,749.3 861.4,780 805.3,749.3 805.3,687.9 "/>
<polygon class="st6" points="984.2,657.2 1037.7,688.5 1037.7,751.6 983.3,782.7 928.2,751.3 928.2,688.5 "/>
<polygon class="st6" points="1105.8,659.8 1160.6,690.5 1160.6,752.2 1104.8,782.7 1048.4,751.9 1048.4,690.5 "/>
<polygon class="st6" points="678.5,758.7 733.2,790 733.2,853.2 677.4,884.2 621,852.8 621,790 "/>
<polygon class="st6" points="1166.2,761.3 1222,791.7 1222,853.5 1167.2,884.2 1109.8,853.5 1109.8,792 "/>
<polygon class="st2" points="1228.7,865.5 1283.4,896.2 1283.4,958 1227.7,988.4 1171.2,957.7 1171.2,896.2 "/>
<polygon class="st2" points="251,862.8 305.8,894.2 305.8,957.2 250.1,988.4 193.6,956.9 193.6,894.2 "/>
<text transform="matrix(1 0 0 1 592.81 317.94)" class="st3 st4 st5">ND</text>
<text transform="matrix(1 0 0 1 710.69 317.94)" class="st3 st4 st5">MN</text>
<text transform="matrix(1 0 0 1 837.49 318.09)" class="st3 st4 st5">WI</text>
<text transform="matrix(1 0 0 1 1086.61 318.09)" class="st3 st4 st5">MI</text>
<text transform="matrix(1 0 0 1 1327.11 317.94)" class="st3 st4 st5">NY</text>
<text transform="matrix(1 0 0 1 1446.88 317.94)" class="st3 st4 st5">MA</text>
<text transform="matrix(1 0 0 1 1388.91 215.68)" class="st3 st4 st5">VT</text>
<text transform="matrix(1 0 0 1 1505.8199 215.68)" class="st3 st4 st5">NH</text>
<text transform="matrix(1 0 0 1 1571.91 112.28)" class="st3 st4 st5">ME</text>
<text transform="matrix(1 0 0 1 414.36 423.25)" class="st3 st4 st5 st7">ID</text>
<text transform="matrix(1 0 0 1 529.63 423.25)" class="st3 st4 st5 st7">WY</text>
<text transform="matrix(1 0 0 1 655.68 422.01)" class="st3 st4 st5 st7">SD</text>
<text transform="matrix(1 0 0 1 783.79 423.4)" class="st3 st4 st5 st7">IA</text>
<text transform="matrix(1 0 0 1 351.96 527.88)" class="st3 st4 st5 st7">OR</text>
<text transform="matrix(1 0 0 1 470.89 527.88)" class="st3 st4 st5 st7">NV</text>
<text transform="matrix(1 0 0 1 409.5 626.77)" class="st3 st4 st5 st7">CA</text>
<text transform="matrix(1 0 0 1 531.67 627.11)" class="st3 st4 st5 st7">AZ</text>
<text transform="matrix(1 0 0 1 596.33 527.89)" class="st3 st4 st5 st7">CO</text>
<text transform="matrix(1 0 0 1 717.57 527.89)" class="st3 st4 st5 st7">NE</text>
<text transform="matrix(1 0 0 1 657.62 626.77)" class="st3 st4 st5 st7">UT</text>
<text transform="matrix(1 0 0 1 778.3 626.77)" class="st3 st4 st5 st7">KS</text>
<text transform="matrix(1 0 0 1 898.82 627.11)" class="st3 st4 st5 st7">AR</text>
<text transform="matrix(1 0 0 1 1017.85 627.11)" class="st3 st4 st5 st7">TN</text>
<text transform="matrix(1 0 0 1 838.5 527.88)" class="st3 st4 st5 st7">MO</text>
<text transform="matrix(1 0 0 1 906.77 423.4)" class="st3 st4 st5 st7">IL</text>
<text transform="matrix(1 0 0 1 1031.03 423.4)" class="st3 st4 st5 st7">IN</text>
<text transform="matrix(1 0 0 1 961.85 527.88)" class="st3 st4 st5 st7">KY</text>
<text transform="matrix(1 0 0 1 1079.33 528.89)" class="st3 st4 st5 st7">WV</text>
<text transform="matrix(1 0 0 1 589.08 730.46)" class="st3 st4 st5 st7">NM</text>
<text transform="matrix(1 0 0 1 655.19 837.8)" class="st3 st4 st5 st7">TX</text>
<text transform="matrix(1 0 0 1 716.62 730.46)" class="st3 st4 st5 st7">OK</text>
<text transform="matrix(1 0 0 1 840.13 730.76)" class="st3 st4 st5 st7">LA</text>
<text transform="matrix(1 0 0 1 233.12 937.52)" class="st3 st4 st5 st7">HI</text>
<text transform="matrix(1 0 0 1 958.74 730.76)" class="st3 st4 st5 st7">MS</text>
<text transform="matrix(1 0 0 1 1083.5 731.06)" class="st3 st4 st5 st7">AL</text>
<text transform="matrix(1 0 0 1 1205.4399 731.06)" class="st3 st4 st5 st7">SC</text>
<text transform="matrix(1 0 0 1 1144.74 837.8)" class="st3 st4 st5 st7">GA</text>
<text transform="matrix(1 0 0 1 1207.38 940.83)" class="st3 st4 st5 st7">FL</text>
<text transform="matrix(1 0 0 1 1267.8 627.11)" class="st3 st4 st5 st7">NC</text>
<text transform="matrix(1 0 0 1 1142.62 626.77)" class="st3 st4 st5 st7">VA</text>
<text transform="matrix(1 0 0 1 1204.0699 527.89)" class="st3 st4 st5 st7">MD</text>
<text transform="matrix(1 0 0 1 1330.3101 524.57)" class="st3 st4 st5 st7">DE</text>
<text transform="matrix(1 0 0 1 1140.62 423.25)" class="st3 st4 st5 st7">OH</text>
<text transform="matrix(1 0 0 1 1269.12 422.31)" class="st3 st4 st5 st7">PA</text>
<text transform="matrix(1 0 0 1 1386.9 422.01)" class="st3 st4 st5 st7">NJ</text>
<text transform="matrix(1 0 0 1 1509.8101 423.54)" class="st3 st4 st5 st7">CT</text>
<text transform="matrix(1 0 0 1 1575.4301 318.09)" class="st3 st4 st5 st7">RI</text>
<text transform="matrix(1 0 0 1 1634.3101 627.44)" class="st3 st4 st5 st7">DC</text>
<g>
	<text transform="matrix(1 0 0 1 1423.54 932.96)" class="st8 st9 st10">P</text>
	<text transform="matrix(1 0 0 1 1441.4401 932.96)" class="st8 st9 st10">r</text>
	<text transform="matrix(1 0 0 1 1451.3301 932.96)" class="st8 st9 st10">o-life states</text>
	<text transform="matrix(1 0 0 1 1423.54 970.73)" class="st11 st4 st10">Abo</text>
	<text transform="matrix(1 0 0 1 1473 970.73)" class="st11 st4 st10">r</text>
	<text transform="matrix(1 0 0 1 1483.3401 970.73)" class="st11 st4 st10">tion access is not p</text>
	<text transform="matrix(1 0 0 1 1724.67 970.73)" class="st11 st4 st10">r</text>
	<text transform="matrix(1 0 0 1 1733.9401 970.73)" class="st11 st4 st10">otected </text>
	<text transform="matrix(1 0 0 1 1423.54 1008.5)" class="st11 st4 st10">or it is s</text>
	<text transform="matrix(1 0 0 1 1522.9301 1008.5)" class="st11 st4 st10">e</text>
	<text transform="matrix(1 0 0 1 1537.4701 1008.5)" class="st11 st4 st10">verely restricted</text>
	<text transform="matrix(1 0 0 1 1423.95 793.95)" class="st12 st9 st10">P</text>
	<text transform="matrix(1 0 0 1 1441.85 793.95)" class="st12 st9 st10">r</text>
	<text transform="matrix(1 0 0 1 1451.74 793.95)" class="st12 st9 st10">o-choice states</text>
	<text transform="matrix(1 0 0 1 1423.95 831.72)" class="st11 st4 st10">Abo</text>
	<text transform="matrix(1 0 0 1 1473.4099 831.72)" class="st11 st4 st10">r</text>
	<text transform="matrix(1 0 0 1 1483.75 831.72)" class="st11 st4 st10">tion access is p</text>
	<text transform="matrix(1 0 0 1 1677.5499 831.72)" class="st11 st4 st10">r</text>
	<text transform="matrix(1 0 0 1 1686.8199 831.72)" class="st11 st4 st10">otected </text>
	<text transform="matrix(1 0 0 1 1423.95 869.49)" class="st11 st4 st10">or has been expanded</text>
	<polygon class="st6" points="1377.8,896 1407.5,912.7 1407.5,946.2 1377.2,962.8 1346.6,946.1 1346.6,912.7 	"/>
	<polygon class="st2" points="1378.2,767.7 1407.9,784.3 1407.9,817.9 1377.6,834.4 1347,817.7 1347,784.3 	"/>
</g>
</svg>
